<?xml version="1.0" encoding="iso-8859-1"?>
<svg version="1.1" id="Capa_1" xmlns="http://www.w3.org/2000/svg" xmlns:xlink="http://www.w3.org/1999/xlink" x="0px" y="0px"
	 viewBox="0 0 512 512" style="enable-background:new 0 0 512 512;" xml:space="preserve">
<path style="fill:#303C42;" d="M437.333,192h-32v-42.667C405.333,66.99,338.344,0,256,0S106.667,66.99,106.667,149.333V160
	c0,5.896,4.771,10.667,10.667,10.667H160c5.896,0,10.667-4.771,10.667-10.667v-10.667C170.667,102.281,208.948,64,256,64
	s85.333,38.281,85.333,85.333V192H74.667C68.771,192,64,196.771,64,202.667v266.667C64,492.865,83.135,512,106.667,512h298.667
	C428.865,512,448,492.865,448,469.333V202.667C448,196.771,443.229,192,437.333,192z"/>
<path style="fill:#5C6671;" d="M256,42.667c-58.813,0-106.667,47.854-106.667,106.667H128c0-70.583,57.417-128,128-128
	s128,57.417,128,128V192h-21.333v-42.667C362.667,90.521,314.813,42.667,256,42.667z"/>
<path style="fill:#e35f9b;" d="M426.667,469.333c0,11.76-9.573,21.333-21.333,21.333H106.667c-11.76,0-21.333-9.573-21.333-21.333
	v-256h341.333V469.333z"/>
<path style="opacity:0.2;fill:#FFFFFF;enable-background:new    ;" d="M128,469.333v-256H85.333v256
	c0,11.76,9.573,21.333,21.333,21.333H144C135.18,490.667,128,481.094,128,469.333z"/>
<path style="opacity:0.1;enable-background:new    ;" d="M384,213.333v256c0,11.76-7.18,21.333-16,21.333h37.333
	c11.76,0,21.333-9.573,21.333-21.333v-256H384z"/>
<path style="fill:#303C42;" d="M230.792,354.313l-6.729,60.51c-0.333,3.01,0.635,6.031,2.656,8.292
	c2.021,2.26,4.917,3.552,7.948,3.552h42.667c3.031,0,5.927-1.292,7.948-3.552c2.021-2.26,2.99-5.281,2.656-8.292l-6.729-60.51
	c10.927-7.948,17.458-20.521,17.458-34.313c0-23.531-19.135-42.667-42.667-42.667S213.333,296.469,213.333,320
	C213.333,333.792,219.865,346.365,230.792,354.313z"/>
<path style="fill:#5C6671;" d="M256,298.667c11.76,0,21.333,9.573,21.333,21.333c0,8.177-4.646,15.5-12.125,19.125
	c-4.073,1.979-6.458,6.292-5.958,10.781l6.167,55.427h-18.833l6.167-55.427c0.5-4.49-1.885-8.802-5.958-10.781
	c-7.479-3.625-12.125-10.948-12.125-19.125C234.667,308.24,244.24,298.667,256,298.667z"/>
</svg>
