<?xml version="1.0" encoding="iso-8859-1"?>
<!-- Generator: Adobe Illustrator 19.0.0, SVG Export Plug-In . SVG Version: 6.00 Build 0)  -->
<svg version="1.1" id="Capa_1" xmlns="http://www.w3.org/2000/svg" xmlns:xlink="http://www.w3.org/1999/xlink" x="0px" y="0px"
	 viewBox="0 0 512 512" style="enable-background:new 0 0 512 512;" xml:space="preserve">
<path style="fill:#9A4C0E;" d="M500.253,311.178c-2.837-3.726-7.251-5.913-11.935-5.913H23.682c-4.684,0-9.098,2.188-11.935,5.913
	c-2.837,3.727-3.77,8.564-2.524,13.078c14.615,52.95,46.73,100.7,90.43,134.457c45.126,34.858,99.19,53.284,156.347,53.284
	s111.221-18.426,156.348-53.284c43.7-33.757,75.815-81.507,90.43-134.457C504.023,319.741,503.09,314.904,500.253,311.178z"/>
<path style="fill:#713709;" d="M500.253,311.178c-2.837-3.726-7.251-5.913-11.935-5.913H255.897v206.731
	c0.034,0,0.068,0.001,0.103,0.001c57.157,0,111.221-18.426,156.348-53.284c43.7-33.757,75.815-81.507,90.43-134.457
	C504.023,319.741,503.09,314.904,500.253,311.178z"/>
<path style="fill:#9A4C0E;" d="M256,208.865c-8.284,0-15,6.716-15,15v96.398c0,8.284,6.716,15,15,15c8.284,0,15-6.716,15-15v-96.398
	C271,215.581,264.284,208.865,256,208.865z"/>
<path style="fill:#713709;" d="M271,320.264v-96.398c0-8.284-6.716-15-15-15c-0.034,0-0.067,0.005-0.103,0.006V335.26
	c0.035,0,0.068,0.005,0.103,0.005C264.284,335.264,271,328.548,271,320.264z"/>
<path style="fill:#9A4C0E;" d="M256,0c-8.284,0-15,6.716-15,15v48.2c0,8.284,6.716,15,15,15c8.284,0,15-6.716,15-15V15
	C271,6.716,264.284,0,256,0z"/>
<path style="fill:#713709;" d="M271,63.2V15c0-8.284-6.716-15-15-15c-0.034,0-0.067,0.005-0.103,0.006v78.188
	c0.035,0,0.068,0.005,0.103,0.005C264.284,78.199,271,71.483,271,63.2z"/>
<path style="fill:#FCBF29;" d="M271.865,511.486c-5.954,0-11.586-3.567-13.932-9.434l-31.927-79.817
	c-3.077-7.692,0.664-16.422,8.357-19.498s16.421,0.664,19.497,8.355l31.927,79.819c3.077,7.691-0.664,16.421-8.356,19.498
	C275.604,511.141,273.719,511.486,271.865,511.486z"/>
<path style="fill:#FF9822;" d="M368.47,512c-5.953,0-11.586-3.568-13.932-9.434l-32.133-80.331
	c-3.077-7.692,0.664-16.422,8.356-19.498c7.692-3.078,16.421,0.665,19.497,8.355l32.133,80.333
	c3.077,7.691-0.664,16.421-8.357,19.498C372.209,511.654,370.323,512,368.47,512z"/>
<path style="fill:#FCBF29;" d="M175.673,512c-5.953,0-11.586-3.568-13.932-9.433l-32.135-80.332
	c-3.077-7.691,0.664-16.422,8.355-19.498c7.697-3.078,16.422,0.664,19.498,8.355l32.135,80.332
	c3.077,7.692-0.664,16.422-8.355,19.498C179.412,511.654,177.526,512,175.673,512z"/>
<path style="fill:#EBE5DD;" d="M376.499,208.865c-4.476,0-10.357-5.98-14.985-15.237c-6.471-12.94-10.182-31.2-10.182-50.097
	c0-18.896,3.711-37.155,10.182-50.096c4.628-9.256,10.51-15.237,14.985-15.237c8.284,0,15-6.716,15-15s-6.716-15-15-15H175.668
	c-31.45,0-55.167,40.984-55.167,95.332c0,54.35,23.717,95.333,55.167,95.333h200.831c8.284,0,15-6.716,15-15
	C391.499,215.581,384.783,208.865,376.499,208.865z"/>
<path style="fill:#FCBF29;" d="M488.318,335.264H23.682c-6.747,0-12.664-4.505-14.459-11.009
	c-6.119-22.164-9.221-45.129-9.221-68.257c0-33.932,6.538-66.901,19.431-97.996c3.174-7.652,11.951-11.284,19.601-8.11
	c7.652,3.173,11.284,11.948,8.111,19.601c-11.375,27.433-17.143,56.538-17.143,86.505c0,16.625,1.812,33.147,5.397,49.267H476.6
	c3.585-16.122,5.398-32.645,5.398-49.267c0-8.284,6.716-15,15-15s15,6.716,15,15c0,23.125-3.103,46.09-9.221,68.257
	C500.982,330.759,495.065,335.264,488.318,335.264z"/>
<path style="fill:#C0AB91;" d="M391.499,223.865c0-8.284-6.716-15-15-15c-4.476,0-10.357-5.98-14.985-15.237
	c-6.471-12.94-10.182-31.2-10.182-50.097c0-18.896,3.711-37.155,10.182-50.096c4.628-9.256,10.51-15.237,14.985-15.237
	c8.284,0,15-6.716,15-15s-6.716-15-15-15H255.897v190.665h120.602C384.783,238.865,391.499,232.149,391.499,223.865z"/>
<g>
	<path style="fill:#FF9822;" d="M496.998,240.998c-8.284,0-15,6.716-15,15c0,16.622-1.813,33.145-5.398,49.267H255.897v30h232.421
		c6.747,0,12.664-4.505,14.459-11.009c6.118-22.168,9.221-45.133,9.221-68.257C511.998,247.714,505.282,240.998,496.998,240.998z"/>
	<path style="fill:#FF9822;" d="M285.787,490.912l-29.89-74.726v80.776l2.036,5.09c2.346,5.866,7.978,9.434,13.932,9.434
		c1.854,0,3.739-0.346,5.565-1.076C285.123,507.333,288.864,498.604,285.787,490.912z"/>
</g>
<g>
</g>
<g>
</g>
<g>
</g>
<g>
</g>
<g>
</g>
<g>
</g>
<g>
</g>
<g>
</g>
<g>
</g>
<g>
</g>
<g>
</g>
<g>
</g>
<g>
</g>
<g>
</g>
<g>
</g>
</svg>
