<svg viewBox="0 0 2000 910" xmlns="http://www.w3.org/2000/svg">
  <path d="M432 0C207.2 15.860727 14.6 202.514545 0 420.116091v71.373273c15.4 217.988363 210.6 402.514545 435.2 417.601545h73c178.2-15.667273 328-128.626727 436-260.154727-26.4-38.684727-53-77.176-80.4-115.087091-69.4 102.514545-160 199.226364-282 241.779545C472 815.473909 344.6 789.942 253.2 721.47c-122-86.460364-166.4-253.965182-111.8-388.974818 62-164.023273 270-260.541636 440.2-198.839455 137.8 50.096728 222.8 174.081182 306 284.332728C984.4 542.746636 1064.4 682.785273 1189 784.913c85.8 72.920636 196 115.087 309.4 124.177909h67.8c184.2-16.441 352.6-139.458454 410.4-310.638273-42-.193454-84.2-.193454-126.2.580273-82.6 168.471909-317.6 250.096636-485.6 150.290091-232.4-137.911-332.8-399.419727-515.4-584.719545C761.4 74.661545 642.6 12.185727 514.2 0H432zm1061.8 0c-179.4 16.634455-328.2 132.108364-434.8 265.570636 25 36.943909 50.8 73.500909 76.8 109.671182 67.6-97.679 155.2-189.168363 271.6-230.947818 146-55.31909 328.6-3.094727 415 124.564818 35.4 48.936182 49 108.123818 59.4 165.957455-147.6.967091-295.2 0-443 .386818.2 32.688545.2 65.183727 0 97.872364 187-.193455 374.2.96709 561.2-.773637V420.502909C1981.4 202.514545 1788.6 14.313364 1562 0h-68.2z" fill="#DE3F6B" fill-rule="evenodd"/>
</svg>
