<svg viewBox="0 0 1997 1922" xmlns="http://www.w3.org/2000/svg">
  <g fill-rule="nonzero" fill="none">
    <path d="M1498.11894 186.859031c-38.87224-86.528635-95.6652-147.52423-169.40969-173.251101-196.44053-68.511014-454.466959 133.374449-644.775329 475.515418 37.251101-8.828194 75.339207-16.819383 114.246696-23.85022 246.466963-164.704846 497.814973-261.286344 699.938323-278.414097zM498.488987 1734.69163c38.863436 86.51982 95.682819 147.50661 169.418502 173.24229 196.431718 68.51982 454.449341-133.39207 644.757711-475.48899-37.24229 8.8282-75.33921 16.78414-114.26432 23.82379-246.466959 164.71366-497.797356 261.27754-699.911893 278.42291z" fill="#5FBBD2"/>
    <path d="M937.872247 444.515419c364.863433-42.704846 697.488983 6.537444 907.867843 116.792951 8.14097-81.53304-7.36564-153.198238-49.73568-208.77533-138.18503-181.215859-516.93393-132.45815-900.035247 97.312775 13.903084-1.876652 27.85022-3.69163 41.903084-5.330396zM1058.72687 1477.00881c-364.854623 42.73128-697.480174-6.51101-907.859029-116.76652-8.132158 81.55066 7.356829 153.20705 49.735683 208.75771 138.185022 181.23348 516.92511 132.45815 900.008806-97.32159-13.88546 1.92071-27.82378 3.71807-41.88546 5.3304z" fill="#2C889F"/>
    <path d="M739.026432 999.92511c-51.145375 17.70044-77.198238 85.55066-34.414097 119.48018 42.77533 33.95594 114.563876 18.19383 147.991189-15.23348 33.436124-33.42732 53.594714-115.524233 53.594714-115.524233s-116.026432-6.431718-167.171806 11.277533zM1154.51542 805.696035c-55.55947 39.339207-60.95154 120.960353-60.95154 120.960353s60.44934 5.427312 141.10132-3.444934c80.64317-8.845815 94.90749-74.237886 75.24229-114.572687-19.68282-40.290749-99.80617-42.273128-155.39207-2.942732z" fill="#164451"/>
    <path d="M1994.62996 844.162996c-30.87225-263.770926-501.95595-425.392071-1052.229079-360.995595C392.136564 547.581498-28.911894 813.643172 1.969163 1077.40529c30.881057 263.76211 501.991189 425.37445 1052.237887 360.96035 550.25551-64.40529 971.31277-330.44934 940.42291-594.202644zm-502.81058 48.246696c-36.69603 115.383258-215.01321 137.022028-215.01321 137.022028-71.47137 9.84141-202.59912 8.51101-202.59912 8.51101-9.163 81.30397 41.30396 93.10132 130.49339 94.43172 89.15419 1.28634 199.94714-49.85022 199.94714-49.85022l-27.53304 141.62114s-109.48899 29.4978-190.80176 28.18503c-81.28635-1.28635-189.453749 2.64317-255.497802-98.97798-66.035242 74.07049-150.960352 104.22027-264.378855 104.88987-113.427312.65198-194.722467-66.88106-163.251101-211.76211 31.462555-144.898682 220.942731-160.634365 220.942731-160.634365 96.370044-13.110132 205.198238-9.171806 205.198238-9.171806 13.779736-88.511013-70.140969-93.762115-156.026432-93.101322-85.885462.660793-174.378854 48.528635-174.378854 48.528635l24.246696-139.647578s92.431718-21.638766 210.45815-30.819383c118.00881-9.180617 205.850219 36.061674 234.052859 100.30837 69.4978-76.061674 197.32159-122.61674 311.4097-100.969163 114.06167 21.638767 149.47136 116.052864 112.73127 231.436124z" fill="#164451"/>
  </g>
</svg>
