<svg viewBox="0 0 2000 2000" xmlns="http://www.w3.org/2000/svg">
  <g fill="none" fill-rule="evenodd">
    <circle fill="#21084D" cx="1000" cy="1000" r="1000"/>
    <path d="M932.349893 302.197041c-53.758866 50.921986-101.134752 106.80851-127.659575 168.368794-26.688475 59.716247-33.836895 126.335549-20.425532 190.35461 10.669529 61.262624 40.932375 117.408167 86.241135 160 44.964539 44.539007 105.673759 81.276596 170.212769 120.567376 64.539 39.29078 134.04255 82.836879 192.05673 148.510639 58.2697 66.49057 92.57837 150.58925 97.44681 238.86525 5.77334 84.68067-15.21575 169.03399-60 241.13475-44.46676 66.82063-104.10335 122.1801-174.04255 161.56028-4.39823 2.64646-9.66982 3.43089-14.64803 2.17968-4.97822-1.25121-9.25249-4.43487-11.87679-8.84634-4.73163-8.10031-3.00099-18.42447 4.11347-24.53901 55.37988-44.99168 100.46082-101.34285 132.19858-165.24823 28.04446-61.09602 36.46859-129.38099 24.11348-195.46099-9.67071-63.24635-40.64664-121.29494-87.80142-164.53901-45.95745-44.25532-106.52482-79.57447-171.773049-117.30496-65.248227-37.7305-135.319149-79.007095-196.453901-142.553194-30.858776-32.679388-56.072208-70.259863-74.609929-111.205674-17.547999-40.8942-28.188958-84.416683-31.489362-128.794326-7.010343-86.710808 14.777247-173.312737 61.985816-246.382979 46.194542-66.685146 108.374761-120.720975 180.851064-157.16312 9.283303-4.893779 20.776102-1.337996 25.673759 7.943262 3.912175 7.553385 2.285491 16.790627-3.971631 22.553192h-.141844zm153.333337-31.205674c-6.28664-2.885072-13.72675-1.199421-18.15603 4.113475-5.94964 7.14768-5.64558 17.60717.70922 24.397163a804.2557 804.2557 0 0 1 99.29078 118.581561c109.07801 185.815602 14.18439 354.609929-9.50355 397.16312l-.99291 2.12766c-9.13392 17.265689-8.15579 38.132531 2.5532 54.468085 7.53805 10.944484 19.13872 18.421144 32.21953 20.765567 13.08082 2.344422 26.55603-.637986 37.42586-8.283298 85.10638-74.609929 93.47517-229.929078 94.04255-261.985815a403.546167 403.546167 0 0 0-12.48227-95.602837 386.09907 386.09907 0 0 0-35.88653-86.950355 419.290378 419.290378 0 0 0-53.90071-70.921986c-38.76735-40.595329-84.62703-73.764285-135.31914-97.87234zM912.633581 1733.11903c6.243569 3.02294 13.744842 1.38204 18.156028-3.97163 5.969827-7.19358 5.666108-17.70224-.70922-24.53901a796.02835 796.02835 0 0 1-99.29078-118.43972c-109.078014-185.95744-13.475177-354.60993 9.503546-397.16312l.992908-1.98581c9.133923-17.26569 8.15579-38.13254-2.553192-54.46809-7.513108-10.97602-19.116438-18.47815-32.208946-20.82467-13.092507-2.34651-26.579053.65885-37.436444 8.3424-85.957447 73.90071-93.900709 229.07802-94.468085 261.13475a401.70209 401.70209 0 0 0 12.48227 95.60284 387.234216 387.234216 0 0 0 36.595744 87.37589 430.638135 430.638135 0 0 0 53.90071 71.91489c38.831046 40.30031 84.688055 73.17892 135.319148 97.02128h-.283687z" fill="#FFF" fill-rule="nonzero"/>
  </g>
</svg>
