<svg viewBox="0 0 1989 1989" xmlns="http://www.w3.org/2000/svg">
  <defs>
    <linearGradient x1="20.827345%" y1="18.404845%" x2="88.667625%" y2="91.880517%" id="a">
      <stop stop-color="#FC8F55" offset="0%"/>
      <stop stop-color="#FE7A6A" offset="44%"/>
      <stop stop-color="#FE687C" offset="100%"/>
    </linearGradient>
  </defs>
  <g fill-rule="nonzero" fill="none">
    <circle fill="url(#a)" cx="994.081633" cy="994.081633" r="994.081633"/>
    <path d="M994.081633 1918.97959c-510.807038 0-924.89796-414.09092-924.89796-924.897957 0-510.807038 414.090922-924.89796 924.89796-924.89796 510.807037 0 924.897957 414.090922 924.897957 924.89796 0 510.807037-414.09092 924.897957-924.897957 924.897957zm0-61.22449c476.993687 0 863.673467-386.67978 863.673467-863.673467 0-476.993686-386.67978-863.67347-863.673467-863.67347-476.993686 0-863.67347 386.679784-863.67347 863.67347 0 476.993687 386.679784 863.673467 863.67347 863.673467z" fill="#FFF"/>
    <path d="M864.897959 1100.40816l132.244898-402.448976 134.693873 402.448976H864.897959zm560.612241 254.4898l-109.38775-300.40816h65.30612c26.02282-.22315 47.03213-21.32341 47.14286-47.34694 0-11.907682-4.73031-23.327654-13.15031-31.747654-8.42-8.420001-19.83997-13.150308-31.74765-13.150308h-102.04082l-16.32653-46.734694h116.12245c25.45281.008662 46.27479-20.270137 46.93878-45.714286.05455-12.519707-4.89475-24.542399-13.74761-33.395253-8.85285-8.852854-20.87554-13.802157-33.39525-13.747604h-150.81633l-81.63265-224.489796c-12.19594-32.073705-32.35203-60.516967-58.57143-82.653061-25.90341-21.303089-58.73282-32.343067-92.244896-31.020408-33.599479-1.067671-66.469691 9.937334-92.653062 31.020408-26.234651 22.166363-46.450734 50.595231-58.77551 82.653061l-85.510204 226.530613h-150c-24.942398-.000253-45.193769 20.159896-45.306122 45.10204 0 25.92357 21.015205 46.938776 46.938775 46.938776h113.877551l-17.55102 45.510204H606.938776c-25.021881 0-45.306123 20.284242-45.306123 45.306122-.000246 25.61866 20.708118 46.41825 46.326531 46.53061h65.510204l-111.22449 300.81633c-6.835911 16.95956-10.635299 34.98938-11.22449 53.26531 1.159548 25.63587 12.291384 49.80367 31.020408 67.34693 20.609566 17.85082 47.02119 27.57378 74.285715 27.34694 47.199533 2.58691 89.763476-28.22938 102.040816-73.87755l43.061224-128.36735h396.122449l43.06122 131.42858c13.87228 44.04545 55.94673 72.99267 102.04082 70.20408 17.15048.3436 34.07459-3.95795 48.97959-12.44898a167.551072 167.551072 0 0 0 34.08164-33.87755c8.42913-14.48435 12.73425-30.99905 12.44898-47.7551a313.468683 313.468683 0 0 0-12.65307-52.44898v-.81633z" fill="#FEFEFE"/>
  </g>
</svg>
