<svg viewBox="0 0 1832 2055" xmlns="http://www.w3.org/2000/svg">
  <defs>
    <linearGradient x1="95.205735%" y1="15.994431%" x2="15.821872%" y2="75.015719%" id="a">
      <stop stop-color="#01C1D2" offset="0%"/>
      <stop stop-color="#009EB5" offset="22.487436%"/>
      <stop stop-color="#007BB7" offset="58.417837%"/>
      <stop stop-color="#384D78" offset="86.791684%"/>
      <stop stop-color="#483B6B" offset="100%"/>
    </linearGradient>
  </defs>
  <g transform="translate(28 28)" fill="none" fill-rule="evenodd">
    <path d="M44.395573 183.752239C257.735236 61.250746 528.361996 0 856.275847 0 1184.1897 0 1454.81646 61.250747 1668.15613 183.752241v.000001c28.44652 16.334244 45.16907 47.387227 43.15008 80.127662l-43.93522 712.462802c-18.0502 292.705844-173.84632 559.507264-419.89668 719.074614l-344.255451 223.25481c-28.555741 18.51882-65.330283 18.51882-93.88602 0l-344.255447-223.25481C219.027021 1535.84997 63.230904 1269.04855 45.180706 976.342706L1.245488 263.879901h.000002c-2.018995-32.740436 14.703555-63.793418 43.150082-80.127662z" transform="translate(31.372549 33.333333)" fill="url(#a)"/>
    <path d="M32.618037 297.213232l43.935218 712.462802c18.050198 292.70585 173.846314 559.50727 419.896685 719.07462l344.255449 223.2548c28.555737 18.51883 65.330278 18.51883 93.88602 0l344.255441-223.2548c246.05037-159.56735 401.84649-426.36877 419.89669-719.07462l43.93522-712.462798c2.01899-32.740432-14.70356-63.793416-43.15008-80.127662C1486.40163 94.706167 1215.89317 33.333333 887.648396 33.333333c-328.244772 0-598.753228 61.372833-811.880274 183.752239-28.446527 16.334244-45.169077 47.387226-43.150085 80.12766zM887.648396-27.058825c338.144024 0 618.913054 63.700748 841.952884 191.77216 48.35909 27.768218 76.78742 80.558289 73.35513 136.217025l-43.93521 712.462804c-19.22881 311.81835-185.19778 596.04082-447.31424 766.02726l-344.255443 223.25481c-48.544761 31.482-111.061482 31.482-159.606237 0l-344.255447-223.25481c-262.116461-169.98644-428.085431-454.20891-447.314234-766.02726l-43.935217-712.46281c-3.432287-55.65874 24.996047-108.448809 73.355143-136.217023C268.735346 36.641923 549.504378-27.058825 887.648396-27.058825z" fill="#FFF" fill-rule="nonzero"/>
    <path d="M51.319795 201.714927L89.072364 180.8447l782.666505 1415.78102c5.763152 10.42508 18.886315 14.20432 29.311394 8.44117 3.585775-1.98227 6.53276-4.94487 8.496054-8.54107L1686.16691 173.978514l37.86233 20.670431L947.40865 1617.19625c-5.889882 10.78859-14.73084 19.67639-25.488158 25.62321-31.275252 17.28946-70.644732 5.95173-87.934192-25.32352L51.319795 201.714927z" fill="#FFF" fill-rule="nonzero"/>
    <path d="M1659.354301 1356.914727l-37.646992 21.060076L879.450239 51.11611c-1.163115-2.07919-3.791519-2.82181-5.870709-1.65869-.475028.26573-241.771888 444.957699-723.890568 1334.075894l-37.92422-20.55667L833.968904 30.60978c4.27984-7.89571 10.71256-14.41471 18.550549-18.79935 22.871048-12.79428 51.783507-4.62545 64.577779 18.2456l742.257069 1326.858697z" fill="#FFF" fill-rule="nonzero"/>
    <circle fill="#FFF" fill-rule="nonzero" cx="1347.05885" cy="827.058843" r="94.901963"/>
    <circle fill="#FFF" fill-rule="nonzero" cx="889.803941" cy="1642.35298" r="94.901963"/>
    <circle fill="#FFF" fill-rule="nonzero" cx="410.9804" cy="827.058843" r="94.901963"/>
    <path fill="#FFF" fill-rule="nonzero" d="M868.235313 1631.56866h43.137256v362.35295h-43.137256z"/>
    <path d="M1561.56348 1466.20204l10.99075 41.71363-676.538708 178.2551-5.309898-1.29192c-385.820867-93.87166-610.69952-148.348-674.480582-163.39176l9.902865-41.98519c63.635765 15.0095 286.739777 69.05406 669.465734 162.17055l665.969839-175.47041zM887.647078 490.588247c-27.426215 0-51.424153 24.00589-51.424153 51.44118v188.617651L561.960796 902.11767l29.402596 64.386474 244.859533-81.533533v188.617651l-68.565533 51.441176v51.441177l119.989686-34.294118 119.989683 34.294118v-51.441177l-68.565534-51.441176V884.970611l240.659158 85.837639 33.60297-68.69058-274.262128-171.470592V542.029427c0-27.43529-23.997937-51.44118-51.424149-51.44118z" fill="#FFF" fill-rule="nonzero"/>
  </g>
</svg>
