<svg viewBox="0 0 1983 1982" xmlns="http://www.w3.org/2000/svg">
  <g fill-rule="nonzero" fill="none">
    <path d="M991.557895 412.452632v318.505263c143.305263 0 259.831579 116.463158 259.831579 259.768421 0 143.326314-116.526316 259.873684-259.831579 259.873684-142.968421 0-259.284211-116.06316-259.747369-258.905263V.157895H413.263158V1000.74737h.252632c5.389473 314.29474 262.505263 568.37895 578.042105 568.37895 318.863158 0 578.294735-259.45264 578.294735-578.336846 0-318.884211-259.368419-578.336842-578.294735-578.336842" fill="#004575"/>
    <path d="M991.557895 822.83158c94.168421 0 170.526315 76.315789 170.526315 170.463157 0 94.168421-76.357894 170.526316-170.526315 170.526316" fill="#004575"/>
    <path d="M991.557895.094737v261.326316c402.757895 0 729.368425 326.48421 729.368425 729.347368 0 402.821049-326.48421 729.305259-729.368425 729.305259-402.757895 0-729.347369-326.48421-729.347369-729.305259H.8c0 547.094739 443.536842 990.610529 990.736842 990.610529 547.199998 0 990.757898-443.45263 990.757898-990.610529C1982.4 443.631579 1538.75789.094737 991.557895.094737" fill="#0280AC"/>
  </g>
</svg>
