<svg viewBox="0 0 1814 1995" xmlns="http://www.w3.org/2000/svg">
  <path d="M1590.72727 994.909091c5.81818-6.545455 12.36364-13.090909 18.90909-19.636364 21.09091-22.545454 44.36364-46.545454 66.18182-69.818182 88-91.636363 136.72727-210.90909 136.72727-336 0-8.727272 1.45455-44.363636 1.45455-49.454545-10.18182-286.545455-253.81818-520-541.81818-520H365.272727v362.181818H.181818V1994.90909H1286.72727c285.81818 0 527.27273-251.63636 527.27273-549.81818.72727-213.09091-132.36364-363.63636-223.27273-450.181819zM547.090909 544l722.181821.727273L815.454545 1000l448.727275 450.90909H547.090909V544zm739.636361 1268.36364H182V543.272727h183.272727V1632h898.909093c74.18182 0 140.36363-44.36364 168.72727-112.72727 28.36364-68.36364 13.09091-146.18182-39.27273-198.54546l-320.72727-321.454543 325.81818-326.545454c52.36364-52.363637 67.63637-130.181818 39.27273-198.545455-28.36364-68.363636-94.54545-112.727273-168.72727-112.727273H547.818182V181.090909h725.090908c192 0 353.45455 154.909091 360 343.272727 0 8-1.45454 39.272728-1.45454 40V568c0 106.181818-53.81819 178.181818-86.54546 211.636364-22.54545 23.272727-45.81818 48-66.90909 69.818181-35.63636 37.09091-66.18182 69.09091-80.72727 83.636364l-65.45455 64 64.72727 64.727271c8.72728 8.72727 19.63637 18.90909 32.72728 31.27273 75.63636 69.81818 202.90909 186.18182 202.90909 350.54545.72727 196.36364-160.72727 368.72728-345.45455 368.72728z" fill="#6356AB" fill-rule="nonzero"/>
</svg>
