<svg viewBox="0 0 2000 1678" xmlns="http://www.w3.org/2000/svg">
  <g fill="none" fill-rule="evenodd">
    <path d="M1687.81431 146.22824L1378.33656 0H641.779497L314.119923 154.352031 0 559.381044 1001.93424 1677.75629 2000 562.088975 1687.81431 146.22824zm273.88782 409.67118L1495.9381 779.110251l-131.52804-453.384913 316.05416-144.680851 281.23791 374.854933zM647.969052 26.692457h724.564798l285.49323 135.009671-306.76983 140.038684H657.253385L351.257253 165.957447l296.711799-139.26499zM324.951644 184.139265l313.733076 139.26499-133.462283 460.73501-463.829787-234.4294 283.558994-365.5706zM64.990329 591.489362L502.514507 812.37911l427.079303 744.294L64.990329 591.489362zM1000 1624.75822L527.659574 802.70793l137.717602-473.887814h671.953574l136.55706 470.793037L1000 1624.75822zm62.2824-54.54545l438.68472-763.636368 427.853-205.029013-866.53772 968.665381z" fill="#000"/>
    <path d="M1234.81625 695.938104c-8.12379-80.077369-77.75629-106.382978-165.18375-113.733075l-.38685-111.025145-67.69826.386847.38685 108.317215c-17.794975 0-35.976793.386847-53.771764 1.160541l-.773695-109.090909-67.698259.386848.773695 111.025145-136.55706 1.160541.386847 72.340426s50.290135-1.547389 49.516441-.386847c27.079304 0 36.363636 15.473887 39.071567 29.400386L834.4294 990.32882c-.386847 12.76596-11.218568 22.43714-23.597679 22.43714h-1.547388c.773694.77369-49.129594 0-49.129594 0l-13.152805 81.23791 136.55706-.38685.773695 112.18569h67.311412l-.386848-111.41199c18.568666 0 36.363637.38684 53.771757 0l.7737 110.63829 67.69826-.38684-.7737-112.18569c113.73308-7.3501 193.4236-36.36364 202.70793-143.133463 7.3501-85.880077-33.26886-124.177949-97.87234-139.26499 39.07157-20.502901 63.44294-55.705996 57.25339-114.50677v.386847zm-93.23018 240.618956c.38685 83.94584-143.520306 75.4352-189.555122 75.82205l-.773695-148.93617c46.034817 0 189.555127-14.313346 190.328817 73.11412zm-32.88201-210.058027c.38685 76.595745-119.535781 68.471953-157.833654 68.471953l-.773694-135.009671c38.297872 0 158.220498-13.152804 158.607348 66.537718z" fill="#FDC337"/>
  </g>
</svg>
