<svg viewBox="0 0 1888 2016" xmlns="http://www.w3.org/2000/svg">
  <defs>
    <linearGradient x1="-.016508%" y1="-423.178063%" y2="-423.178063%" id="a">
      <stop stop-color="#FAAC17" offset="0%"/>
      <stop stop-color="#FFD43B" offset="100%"/>
    </linearGradient>
    <linearGradient x1="14978%" y1="0%" x2="25119%" y2="0%" id="b">
      <stop stop-color="#FAAC17" offset="0%"/>
      <stop stop-color="#FFD43B" offset="100%"/>
    </linearGradient>
    <linearGradient x1="14990%" y1="0%" x2="18665%" y2="0%" id="c">
      <stop stop-color="#FAAC17" offset="0%"/>
      <stop stop-color="#FFD43B" offset="100%"/>
    </linearGradient>
    <linearGradient x1="14.197023%" y1="13.623884%" x2="113.758652%" y2="109.920257%" id="d">
      <stop stop-color="#96C859" offset="0%"/>
      <stop stop-color="#54911A" offset="52%"/>
      <stop stop-color="#357303" offset="100%"/>
    </linearGradient>
    <linearGradient x1="8890%" y1="0%" x2="13690%" y2="0%" id="e">
      <stop stop-color="#FAAC17" offset="0%"/>
      <stop stop-color="#FFD43B" offset="100%"/>
    </linearGradient>
    <linearGradient x1="8590%" y1="0%" x2="11577%" y2="0%" id="f">
      <stop stop-color="#FAAC17" offset="0%"/>
      <stop stop-color="#FFD43B" offset="100%"/>
    </linearGradient>
    <linearGradient x1="8632%" y1="0%" x2="9692%" y2="0%" id="g">
      <stop stop-color="#FAAC17" offset="0%"/>
      <stop stop-color="#FFD43B" offset="100%"/>
    </linearGradient>
  </defs>
  <g transform="translate(0 7)" fill-rule="nonzero" fill="none">
    <path d="M191.924012 947.294833S79.340425 856.534954 12.471125 978.115502c0 0-12.158055 24.316108 18.237082 36.474168 0 0-29.848025 95.74468 121.580547 117.75076" fill="url(#a)"/>
    <path d="M4.315254 1003.80776C.126056 995.429361.126056 986.731746 2.53635 978.697429c.611268-2.037559 1.257094-3.616246 1.944963-4.976323 19.017054-34.576462 43.042636-55.412555 70.907898-63.84 30.846718-9.329144 63.291754-2.992048 94.647388 13.016762 7.322087 3.738337 14.013745 7.742029 19.953135 11.755529 3.609104 2.438826 6.20385 4.370799 7.65719 5.542418 3.920679 3.160677 4.536783 8.901251 1.376105 12.821931-3.160677 3.920679-8.901251 4.536783-12.821931 1.376105-.226256-.182398-.748361-.587654-1.549102-1.183863-1.385097-1.031303-3.015286-2.190596-4.873123-3.446016-5.350737-3.615722-11.410343-7.241251-18.035023-10.623522-27.553041-14.067373-55.524282-19.530656-81.07526-11.803133-23.076167 6.979053-43.39118 24.597169-60.041595 54.85612-.07859.157179-.33336.77995-.622689 1.744379-1.192091 3.97364-1.192091 8.084509.622689 11.714069 1.985321 3.970644 6.15866 7.547795 13.467752 10.471425 4.418975 1.76759 6.735273 6.6365 5.31879 11.18021-.188646.60512-.543992 2.02985-.921321 4.14769-2.763766 15.51223-.791422 32.98138 9.444421 49.43233 15.901542 25.55681 49.41425 44.25882 105.663476 52.43313 4.983682.72425 8.436637 5.35143 7.712393 10.33512-.724244 4.98368-5.351432 8.43663-10.335114 7.71239-61.185296-8.89164-99.50419-30.27577-118.525198-60.84616-12.606421-20.26092-15.272537-41.59714-12.163923-60.7977-7.48311-4.19222-12.797267-9.56106-15.973018-15.91256z" fill="#000"/>
    <path d="M1507.91185 826.139818s72.34043 120.547112-57.87234 207.051672c-23.9373 15.62178-50.31979 27.12816-78.05471 34.04255-34.3465 8.81459-101.51975 35.50152-119.39209 111.48936 0 0-31.97569 89.48329-107.41642 140.97265-53.58287 35.52704-122.25713 39.06791-179.209725 9.24012-19.588152-10.45003-36.533063-25.23265-49.544073-43.22188l-4.984802-2.37082c122.31003-258.7842 87.720365-552.036479 47.355623-728.571434l7.112462-1.641337s195.501515 345.957447 542.006075 273.009119z" fill="url(#b)"/>
    <path d="M1133.8693 1799.3921a23.343572 23.343572 0 0 1 1.70213 8.7538c-.01926 9.35314-5.46779 17.84395-13.96237 21.75851-8.49457 3.91455-18.48918 2.54038-25.6121-3.52143-121.580547-102.31003-98.723404-234.52888-98.723404-234.52888l-72.948328 48.63222-2.978723-43.16109-3.768997-54.71125-5.410335-78.66261 60.790274 42.55319 35.927053 15.98784c12.05053 5.35458 21.52225 15.21914 26.38298 27.4772" fill="url(#c)"/>
    <path d="M779.036474 1453.19149l-5.167173 2.18845s-177.81155 82.00608-341.945289 27.29483c0 0-6.079027 72.94833 97.264438 66.8693l5.106383.36474-7.477204 97.26444-3.708207-.30395c-158.054711-42.55319-158.054711-182.37082-158.054711-182.37082S79.340425 1355.07599 170.525836 1002.4924c0 0 28.753799-111.003038 113.37386-164.133737 28.328268-30.395137-4.620061-62.917934-4.620061-62.917934C173.74772 743.708207 13.443769 640.121581 55.024316 303.343465c9.276964-54.371755 27.780557-106.75748 54.711246-154.893617 22.768232-38.711222 56.138538-70.098716 96.170213-90.455927 126.62614-65.410334 452.279635-166.56535 706.261398 336.534954a1256.048636 1256.048636 0 0 1 46.62614 160.243161c40.364742 176.291794 74.954407 469.787234-47.355623 728.571434a756.596106 756.596106 0 0 1-84.3769 138.54103c8.632219 46.32219 31.671733 97.62918 85.106383 121.58055l5.410335-.36475 3.768997 54.71125-9.179332.6079h-20c-32.001591.03286-60.899303-19.13643-73.31307-48.63222l-39.817629-96.59574zm54.346505-505.471125L705.723404 813.981763c12.158055 133.738602-42.553191 133.738602-42.553191 133.738602-115.50152-36.474164-121.580547 66.869305-121.580547 66.869305l2.18845 1.51975s-62.613982 84.19453 46.322188 80.91186a22.613805 22.613805 0 0 1 0 2.67477l34.103343 34.10334c5.683269 5.67682 14.09747 7.63306 21.702128 5.04559 82.857143-27.35562 71.854103-148.571424 71.854103-148.571424l115.623101-42.553191zm-82.06687-88.145897C727 755.128906 727 713.677812 727 713.677812l24.316109 145.896656z" fill="url(#d)"/>
    <path d="M590.100304 1097.02128c.364742-10.51672-1.641337-49.78724-46.56535-80.91186l-2.188449-1.51975s6.079027-103.343469 121.580547-66.869305c0 0 54.711246 0 42.553191-133.738602l127.659575 133.738602-115.50152 42.553191s11.003039 121.215804-71.854103 148.571424c-7.604659 2.58747-16.018859.63123-21.702128-5.04559l-34.103344-34.10334a22.613868 22.613868 0 0 0 .121581-2.67477" fill="url(#e)"/>
    <path d="M704.629179 1780.06079v2.00608c0 12.58359-6.504559 27.23404-19.696048 31.67173-6.580357 2.20968-13.79784 1.43241-19.756839-2.12766-67.902736-40.24316-117.75076-152.64437-117.75076-152.64437l-24.31611 36.47416 3.708207-48.32827 7.477204-97.26444.972644-12.52279 48.632219-6.07903 120.729483 248.81459z" fill="url(#f)"/>
    <path d="M543.534954 1016.10942c44.924013 31.12462 46.930092 70.39514 46.56535 80.91186-108.93617 3.28267-46.56535-80.91186-46.56535-80.91186" fill="url(#g)"/>
    <g stroke-linecap="round" stroke-linejoin="round" fill="#000">
      <path d="M722.959301 718.424735c-2.621653-2.097323-3.046707-5.922808-.949385-8.544462 2.097323-2.621653 5.922808-3.046707 8.544461-.949384.447341.357872 1.228719 1.009402 2.296718 1.941203 1.746543 1.523813 3.683831 3.300448 5.76447 5.316807 5.925622 5.742555 11.845676 12.280604 17.379819 19.515484 31.918087 41.727059 37.583349 86.496447-.441255 127.977834-2.268647 2.474887-6.114042 2.642078-8.588929.373432-2.474888-2.268647-2.642079-6.114042-.373432-8.588929 33.339778-36.370667 28.474327-74.819592-.253207-112.375588-5.145291-6.726526-10.667487-12.825186-16.184114-18.171381-1.924149-1.864704-3.705592-3.498417-5.296372-4.88633-.934395-.815236-1.583298-1.356306-1.898774-1.608686zM786.399699 672.492398c-2.434079-2.312376-2.53274-6.160138-.220364-8.594218s6.160138-2.53274 8.594218-.220365c.536737.5099 1.482538 1.450613 2.779041 2.806254 2.124831 2.221754 4.482814 4.826036 7.015529 7.797163 7.208497 8.456283 14.407548 18.18637 21.127479 29.067942 41.718 67.553884 45.864781 142.729443-12.061651 217.69306-2.052845 2.656624-5.870625 3.146083-8.527249 1.093237-2.656624-2.052845-3.146083-5.870625-1.093237-8.527249 54.466346-70.485859 50.617213-140.26546 11.337646-203.870793-6.377388-10.326895-13.211179-19.563303-20.035525-27.568939-2.37878-2.790545-4.581471-5.223314-6.549552-7.281167-1.159244-1.212123-1.967549-2.016079-2.366335-2.394925z"/>
      <path d="M596.066574 1097.030468c.001684.036329 10.772208 10.858984 32.311573 32.467963 4.04544 4.040849 10.034798 5.433333 15.500215 3.574 30.103161-9.938681 49.298035-33.713377 59.659373-67.571861 7.397388-24.172973 9.347487-49.665756 8.271416-71.167952-.086644-1.731324-.171666-2.922064-.22499-3.509514-.248592-2.738636 1.372239-5.303107 3.952585-6.253761l106.810592-39.351271-109.570446-114.788087c2.985164 55.097513-5.894293 90.163332-23.19367 109.192646-5.519463 6.07141-11.541847 10.046183-17.639045 12.281823-3.828543 1.403799-6.953977 1.894938-9.017125 1.894938a6.07901 6.07901 0 0 1-1.830586-.282172c-54.11922-17.09028-86.24388-4.570483-103.179618 26.639007-4.136802 7.623375-7.007177 15.845172-8.818246 24.073636-.589618 2.67889-1.024087 5.173266-1.326756 7.42297 36.524858 25.632365 49.736191 58.265199 48.294728 85.377635zm-58.187521-77.447672c-1.740003-1.208335-2.725483-3.235342-2.601086-5.350103.154993-2.634873.717378-7.030528 1.946783-12.616241 2.040594-9.271299 5.279696-18.549264 10.006009-27.259 19.622754-36.161174 57.447202-51.076634 116.435982-32.775419.896271-.119956 2.305855-.43758 4.091969-1.092489 4.289391-1.572777 8.653595-4.453151 12.82828-9.045305 16.341055-17.97516 24.466997-55.006241 18.839191-116.912107-.521149-5.732643 6.476787-8.911629 10.45136-4.74779l127.659575 133.738602c3.021094 3.164956 1.809862 8.389042-2.295746 9.901634l-111.255927 40.989026c1.065146 22.637867-1.022347 49.157743-8.82184 74.644702-11.418075 37.31166-33.14827 64.226593-67.421274 75.541701-9.796202 3.333139-20.635244.813137-27.958784-6.502093l-34.103343-34.103344c-1.228447-1.228447-1.872609-2.923787-1.769866-4.658034a16.534961 16.534961 0 0 0 0-1.955747c.45636-8.614165-1.101047-19.392727-5.715167-30.809643-6.760594-16.728027-19.038845-32.243093-38.121305-45.464181-.003238-.002245-.734842-.510301-2.194811-1.524169z"/>
      <path d="M541.092594 1014.30014c.999241-1.34888 2.902768-1.63232 4.251647-.63308 1.348878.99924 1.632315 2.90277.633074 4.25165-.517268.69826-1.45136 2.04129-2.662948 3.9253-2.030321 3.15712-4.062423 6.65041-5.957141 10.37382-4.352148 8.55264-7.308977 16.98432-8.244872 24.75763-2.940893 24.42629 14.142255 38.41657 60.896399 37.00768 1.677915-.05056 3.079123 1.26867 3.129685 2.94659.050563 1.67791-1.268668 3.07912-2.946583 3.12968-50.122319 1.51038-70.556685-15.22438-67.114941-43.81061 1.033428-8.58339 4.21401-17.65312 8.862414-26.78795 1.993203-3.91695 4.126731-7.5846 6.26204-10.90498 1.28779-2.00249 2.297659-3.45448 2.891226-4.25573zM811.894202 1329.94807c.414777-5.01892 4.81966-8.75132 9.838581-8.33654 5.018921.41477 8.751318 4.81966 8.33654 9.83858-2.449718 29.6423-.738932 59.48158 5.07366 88.60553 11.187603 54.64714 36.900237 95.43171 80.753911 115.08853 4.595493 2.05987 6.651023 7.4551 4.591155 12.0506-2.059868 4.59549-7.455104 6.65102-12.050597 4.59115-50.04258-22.43092-78.906446-68.21387-91.169904-128.1167-6.154552-30.83673-7.963209-62.38307-5.373346-93.72115z"/>
      <path d="M742.428186 1381.68413c-1.299427-3.0957.156735-6.65864 3.252428-7.95807 3.095693-1.29943 6.658642.15673 7.958069 3.25243l31.008886 73.87416 40.052716 96.09014c11.463976 27.23903 38.150692 44.94166 67.710062 44.91131l20 .00005c3.357354 0 6.079022 2.72168 6.079015 6.07904-.000008 3.35735-2.721687 6.07902-6.079041 6.07901l-19.993745-.00005c-34.450068.03538-65.558775-20.60058-78.930407-52.37239l-40.054943-96.09545-31.00304-73.86018z"/>
      <path d="M908.480458 1543.6652l-5.410334-78.66261c-.525998-7.64765 8.04619-12.49189 14.326189-8.09589l60.070807 42.04956 35.120068 15.62873c14.230964 6.32344 25.416511 17.97291 31.159416 32.45572l98.57634 249.17641c1.56396 3.86794 2.36763 8.0011 2.36701 12.19071-.02657 12.90496-7.54416 24.62014-19.26453 30.02123-11.72037 5.4011-25.51039 3.50509-35.29613-4.82308-22.04662-18.53369-40.39184-38.78306-55.284844-60.47608-38.055301-55.431-50.606357-113.11952-48.349886-162.88752l-57.11128 38.07419c-5.825373 3.88358-13.672922.02534-14.154959-6.95927l-2.97869-43.16062-3.769177-54.53148zm18.193886-1.25445l3.768997 54.52887 1.897013 27.48732 59.875146-39.91676c6.667131-4.44475 15.413951 1.25386 14.041932 9.14842-.176425 1.01514-.468461 3.1615-.769372 6.33338-4.596062 48.44677 5.981625 106.86879 44.391284 162.81595 13.96424 20.34019 31.2003 39.36527 52.02737 56.87396 4.41802 3.75986 10.6172 4.61219 15.88599 2.18418 5.26879-2.42801 8.64826-7.69447 8.66018-13.47833.00027-1.82825-.3519-3.63941-1.06271-5.39806l-98.599146-249.23335c-3.98122-10.04008-11.739123-18.11974-21.613843-22.50751l-35.927052-15.98785a9.117628 9.117628 0 0 1-1.521826-.86068l-45.154467-31.60813 4.100504 59.61859zM352.069235 1468.71907c-7.497705-3.49786-15.826167-7.81147-24.778417-12.98512-25.515282-14.7457-51.012407-33.4572-74.821569-56.49952-95.483898-92.40859-136.108017-223.78475-90.770611-399.08938.429222-1.656998 1.281976-4.628179 2.589554-8.727471 2.154931-6.755766 4.826828-14.263982 8.047913-22.338956 9.197059-23.05621 20.974405-46.113504 35.61374-67.685735 19.844367-29.242261 43.426503-53.441394 71.110135-70.823207 20.215909-12.660047 42.666676-21.336672 66.142289-25.562237 4.956379-.892139 9.69754 2.402579 10.589679 7.358959.892139 4.956379-2.402579 9.69754-7.358959 10.589679-21.186797 3.813583-41.44867 11.644258-59.684529 23.064308-25.353937 15.919067-47.193042 38.329563-65.708208 65.613142-13.838456 20.39207-25.026948 42.296526-33.765008 64.202067-3.056206 7.661638-5.584383 14.76599-7.612461 21.124069-.704564 2.208825-1.294995 4.161042-1.77488 5.833062-44.18018 170.68731-5.623956 295.37602 85.264144 383.33682 22.672616 21.94238 46.977396 39.77886 71.264018 53.8145 8.478417 4.89982 16.335573 8.96932 23.363424 12.24798 2.438092 1.13742 4.591406 2.09237 6.433913 2.86984 1.072045.45237 1.781567.73749 2.10253.86041 3.527877 1.3511 5.85732 4.73766 5.85732 8.51541 0 1.23964.113866 3.80161.465469 7.49346.598632 6.28563 1.681362 13.32337 3.369744 20.92109 4.834401 21.75481 13.536816 43.51084 27.052146 63.78384 25.256243 37.88436 64.378373 66.27946 120.41939 81.36742 4.862871 1.30924 7.743663 6.31272 6.434428 11.17559-1.309234 4.86287-6.312714 7.74366-11.175585 6.43443-60.343781-16.2464-103.159959-47.32266-130.852403-88.86133-14.851133-22.2767-24.384302-46.10962-29.68078-69.94377-1.857426-8.35842-3.054144-16.13708-3.721872-23.14823-.103966-1.09164-.190496-2.10872-.261727-3.04813-1.239091-.55022-2.625958-1.18067-4.152827-1.89299z"/>
      <path d="M530.696507 1700.80274c-5.207603 7.8114-17.397138 3.60495-16.678901-5.75567l3.708206-48.32827c.38528-5.02127 4.768156-8.77948 9.789428-8.3942 5.021272.38528 8.779486 4.76815 8.394206 9.78942l-1.039813 13.55166 4.968814-7.45322c3.988175-5.98226 13.007914-5.21109 15.922685 1.36136.12619.28454.39278.87403.796196 1.74801.683498 1.48076 1.496762 3.20533 2.436197 5.15325 2.696334 5.59086 5.854871 11.83121 9.446435 18.55701 10.261313 19.216 21.91201 38.42855 34.702441 56.31654 21.536413 30.11963 44.04269 53.27995 66.771318 66.73831 3.672938 2.19431 8.121565 2.6734 12.17278 1.313 7.927788-2.66695 13.454116-12.40582 13.484801-22.94093l-117.02464-241.29339-34.753166 4.34415-.406472 5.33494c-.382589 5.02148-4.76345 8.78204-9.784928 8.39945-5.021477-.38258-8.782039-4.76345-8.399451-9.78492l.972645-12.76596c.329433-4.32381 3.658315-7.81753 7.961173-8.35539l48.632219-6.07903c3.876409-.48455 7.63082 1.55402 9.335555 5.06902l120.790274 249.05775a9.118558 9.118558 0 0 1 .914002 3.97911v2.00608c0 17.74878-9.674825 34.85369-25.911877 40.31592-9.10479 3.05739-19.091129 1.98193-27.305513-2.92565-25.251622-14.95221-49.40285-39.80529-72.283626-71.80507-13.293503-18.59156-25.344502-38.46423-35.954634-58.33345-2.233923-4.18339-4.307694-8.18884-6.21547-11.98116l-15.440884 23.16133z"/>
      <path d="M448.337787 1511.63641c11.870236 20.00601 36.77915 31.3658 80.315204 28.80486 5.02734-.29573 9.342539 3.54 9.638265 8.56734.295725 5.02734-3.540006 9.34254-8.567347 9.63827-49.969114 2.93936-81.481938-11.43216-97.070231-37.70457-4.543324-7.65728-7.369144-15.80222-8.82132-24.03222-.970068-5.49772-1.217187-10.29931-1.051718-14.05284.017941-.40698.034713-.66799.056329-.93973.490658-5.8879 6.365464-9.76173 11.970579-7.89336 11.03853 3.67951 22.328854 6.78667 33.855342 9.33949 76.2027 16.87693 158.171987 9.28975 237.612587-13.68754 17.175421-4.9678 32.818436-10.28758 46.61027-15.60033 4.80974-1.85276 9.038599-3.56938 12.646884-5.1049 2.13596-.90896 3.57261-1.54707 4.270333-1.86929 4.572007-2.11148 9.990046-.11683 12.101528 4.45517 2.111482 4.57201.116831 9.99005-4.455176 12.10153-.862359.39826-2.467224 1.11108-4.775567 2.0934-3.798887 1.61663-8.222692 3.41239-13.232463 5.3422-14.263909 5.49459-30.400257 10.98215-48.09864 16.10121-82.121491 23.75271-166.998389 31.60902-246.623241 13.97417-7.631611-1.69021-15.16976-3.61257-22.61007-5.77206 1.159855 5.60432 3.180754 11.10263 6.228452 16.2392zM509.25026 21.960105C403.62653-2.132683 301.119017 19.073585 210.039066 66.12188c-38.480461 19.568375-70.557679 49.739614-92.345722 86.780103-26.423266 47.229164-44.578216 98.627845-53.619203 151.558826-18.761245 151.955112 2.488429 264.908999 55.493556 344.274248 40.549988 60.716011 97.206709 98.435588 162.435502 118.124956 26.973965 8.442061 55.000769 13.050295 83.25771 13.689432 5.034743.11388 9.023891 4.287664 8.910011 9.322407-.113879 5.034743-4.287663 9.023892-9.322406 8.910012-29.965685-.677787-59.687317-5.564689-88.203831-14.490016-68.929597-20.805938-129.141943-60.892696-172.242775-125.428119-55.62187-83.28333-77.692548-200.601314-58.366235-357.053914 9.45176-55.39622 28.303994-108.768989 55.840034-157.982786 23.650493-40.211269 58.313887-72.815018 99.84514-93.934599C296.248971 1.062731 402.907304-21.00224 513.305971 4.179712 666.13153 39.039245 804.679985 161.378995 920.307246 390.419496c19.642587 53.687267 35.332087 107.608417 47.374593 162.317375 24.856524 108.560121 38.97149 222.0557 37.554532 335.500114-1.800112 144.120395-28.71056 278.732095-85.547244 398.987405a765.714195 765.714195 0 0 1-85.393815 140.21074c-3.065528 3.99551-8.789636 4.74942-12.785151 1.68389-3.995516-3.06553-4.74942-8.78964-1.683892-12.78515 32.611339-42.50463 60.558582-88.39207 83.367301-136.88685 55.636846-117.71673 82.037785-249.77975 83.807141-391.437804 1.397397-111.878274-12.542369-223.965102-37.112736-331.276888a1246.93027 1246.93027 0 0 0-46.103492-158.574437C790.502429 173.973196 656.24267 55.489096 509.25026 21.960105z"/>
      <path d="M274.997063 779.876722c-2.382784-2.365199-2.397039-6.214199-.03184-8.596984 2.365199-2.382784 6.2142-2.397039 8.596984-.03184 2.325786 2.308622 5.640104 6.282413 8.940399 11.601469 10.567001 17.030746 12.97823 35.353162 1.595266 52.54383-1.643143 2.481491-3.562755 4.89781-5.763578 7.24504-2.296396 2.449161-6.143431 2.573001-8.592592.276605-2.449161-2.296397-2.573001-6.143431-.276604-8.592592 1.740101-1.85586 3.234647-3.737125 4.495623-5.641464 8.303085-12.539404 6.529863-26.013743-1.789122-39.421379-1.604503-2.585965-3.327047-4.935623-5.042411-6.992305-1.005018-1.204994-1.758052-2.019068-2.132125-2.39038zM1075.556034 701.387029c-33.638053-31.372444-62.845304-64.966747-87.518347-98.571772-8.64544-11.775209-16.112096-22.720087-22.385593-32.558818-2.205392-3.458718-4.106705-6.537011-5.702085-9.200403-.971304-1.621534-1.632782-2.75896-1.982549-3.377794-2.477965-4.384211-.932648-9.947103 3.451563-12.425068 4.38421-2.477964 9.947102-.932647 12.425067 3.451563.275166.486846.859533 1.491677 1.750964 2.979868 1.50918 2.519486 3.321274 5.45333 5.434118 8.766905 6.06432 9.510678 13.306538 20.126568 21.708862 31.57065 24.034855 32.735803 52.50504 65.482328 85.25661 96.027991 117.69653 109.769361 257.50455 162.963383 418.03869 129.16672 3.80381-.8008 7.69707.897832 9.69726 4.230916 2.79095 4.650802 6.80427 12.815489 10.77761 23.823272 15.49387 42.924384 15.8749 88.855605-9.08267 132.033824-13.53532 23.416977-34.10688 44.725527-62.40251 63.522857-24.78916 16.17772-52.11053 28.09358-80.77152 35.23862-55.23301 14.17484-99.12653 46.6838-112.78247 104.74476-.83719 2.51323-1.89818 5.25362-3.48928 9.03061-2.61985 6.21909-5.80265 13.12921-9.56596 20.55936-10.73892 21.20255-24.0052 42.4009-39.95854 62.22358-17.19953 21.37111-36.54189 39.86288-58.24006 54.6712-56.3544 37.36464-128.580776 41.08866-188.540672 9.68556-20.812413-11.10316-38.81638-26.80969-52.640578-45.92326-2.951348-4.08058-2.035923-9.78108 2.04466-12.73243 4.080582-2.95135 9.781088-2.03593 12.732436 2.04466 12.197822 16.8649 28.083676 30.72361 46.386089 40.48802 54.006769 28.28497 119.128915 24.92724 169.838775-8.69392 20.02202-13.66531 38.07914-30.92836 54.21193-50.97401 15.09641-18.7579 27.69909-38.89588 37.89669-59.02966 3.56447-7.03757 6.5695-13.56175 9.02854-19.3991.85372-2.02658 1.57643-3.8171 2.16987-5.34989 16.16298-66.96152 65.42933-103.36915 126.4361-119.02553 26.74791-6.66833 52.19153-17.76523 75.2147-32.79008 25.95833-17.24495 44.55843-36.511411 56.64256-57.417734 21.88471-37.861971 21.54841-78.400014 7.71811-116.715648-2.01721-5.588497-4.1698-10.625572-6.31563-15.025599-164.22425 32.289714-307.44491-23.097254-427.48274-135.05022z"/>
    </g>
    <g transform="translate(98.18541 139.817629)" fill="#FFF">
      <circle cx="275.987842" cy="160.486322" r="158.054711"/>
      <circle cx="99.696049" cy="306.382979" r="97.264438"/>
    </g>
    <circle fill="#000" cx="313.382979" cy="300.303951" r="85.106383"/>
    <circle fill="#000" cx="179.644377" cy="434.042553" r="60.790274"/>
    <g stroke-linecap="round" stroke-linejoin="round" fill="#000">
      <path d="M993.712795 891.635753c-4.848292-1.36223-7.674304-6.396854-6.312073-11.245147 1.362231-4.848292 6.396855-7.674303 11.245147-6.312072 2.144487.602539 5.990163 1.824346 11.295514 3.732657 8.741584 3.144309 18.455879 7.109113 28.901284 11.962688 29.79317 13.843732 59.574438 32.05835 87.395617 55.206719 28.436682 23.660493 53.218706 51.223056 73.273773 82.976913 2.689206 4.257909 1.417521 9.889657-2.840388 12.578862-4.257908 2.689206-9.889657 1.417521-12.578862-2.840388-18.992103-30.070829-42.497139-56.213128-69.518925-78.696369-26.528025-22.07241-54.978046-39.47282-83.416166-52.686913-9.935546-4.616663-19.14642-8.376-27.388962-11.340807-2.862944-1.029788-5.393174-1.88495-7.560218-2.573441-1.265764-.402145-2.107833-.653711-2.495741-.762702zM1476.909409 1136.291243c-3.424196-3.692762-3.206482-9.462196.486279-12.886393 3.692762-3.424197 9.462196-3.206482 12.886393.486279l310.030391 334.346505c3.4242 3.692761 3.20649 9.462195-.48627 12.886392-3.69277 3.424197-9.4622 3.206482-12.8864-.486279l-310.030393-334.346504zM1239.884379 1385.592312c-3.457857-3.661261-3.292966-9.432446.368294-12.890304 3.661261-3.457857 9.432447-3.292966 12.890305.368295l206.68693 218.844984c3.457857 3.661261 3.292966 9.432447-.368295 12.890304-3.661261 3.457858-9.432446 3.292967-12.890304-.368294l-206.68693-218.844985zM1562.131565 1622.735992c-3.491885-3.628822-3.380876-9.401296.247946-12.893181 3.628822-3.491885 9.401295-3.380876 12.89318.247946l310.030391 322.18845c3.49189 3.62882 3.38088 9.4013-.24794 12.89318-3.62882 3.49189-9.4013 3.38088-12.89318-.24795l-310.030397-322.188445zM1185.120425 1653.013232c-3.426773-3.690371-3.213085-9.459956.477286-12.886728 3.690371-3.426773 9.459956-3.213085 12.886729.477286l316.109422 340.425527c3.426773 3.69038 3.213085 9.45996-.477286 12.88673-3.690371 3.42678-9.459956 3.21309-12.886729-.47728l-316.109422-340.425535zM783.97569 1762.511394c-3.468564-3.65112-3.320573-9.422764.330546-12.891328 3.65112-3.468563 9.422764-3.320572 12.891328.330547l231.003039 243.161094c3.468564 3.65112 3.320573 9.42276-.330547 12.89133-3.651119 3.46856-9.422763 3.32057-12.891327-.33055l-231.00304-243.161093zM90.855087 1010.848741c2.838248 1.79337 3.685288 5.548038 1.891918 8.386286-1.793371 2.838247-5.54804 3.685288-8.386287 1.891917-4.354067-2.751154-10.458184-8.525027-16.425467-17.917395-11.761812-18.512827-17.671614-43.623754-14.771232-76.031077.299279-3.343988 3.25273-5.812213 6.59672-5.512933 3.343988.299279 5.812212 3.25273 5.512933 6.59672-2.664216 29.768528 2.615673 52.202937 12.923649 68.427457 2.904763 4.572032 5.991023 8.266686 9.043722 11.154228 1.748568 1.653967 3.027376 2.634105 3.614045 3.004797z"/>
    </g>
    <ellipse fill="#C1272D" transform="rotate(-48.11 431.934024 674.13704)" cx="431.934024" cy="674.13704" rx="27.355614" ry="39.513664"/>
    <path d="M338.463683 673.949405l4.549838-23.886652c.754458.143706 2.430002.39874 4.89146.666009 18.431062 2.001271 39.324325.456999 58.748676-7.197121 34.714159-13.679031 57.097651-44.115714 61.790226-98.080329l24.224696 2.106495c-5.485997 63.088956-33.742702 101.511933-77.100352 118.596912-23.644274 9.31697-48.279337 11.137807-70.288096 8.748065-3.131305-.340002-5.445461-.692238-6.816448-.953379z" fill="#000"/>
  </g>
</svg>
