<svg viewBox="0 0 1933 1997" xmlns="http://www.w3.org/2000/svg">
  <g fill-rule="nonzero" fill="none">
    <g fill="#FDBA4D">
      <path d="M277.976007 1430.60581c67.557972-67.557973 176.85176-67.557973 244.409732 0 67.557973 67.557973 67.557973 176.85176 0 244.409732-67.557972 67.557973-176.551502 67.85823-244.109475.300258-67.557972-67.557973-67.85823-177.152017-.300257-244.70999zM1458.999291 309.847997c67.557974-67.557974 176.85176-67.557974 244.409733-.000001 67.557973 67.557972 67.557973 176.85176 0 244.409733-67.557973 67.557972-176.85176 67.557972-244.409732 0-66.957458-67.557973-67.257715-177.152018 0-244.409732zM499.711944 1297.76809l182.256398 182.256398 166.943257-166.943257c-39.934269-15.913656-77.166218-39.934268-109.894303-72.662353-32.12757-32.127569-56.44844-69.659776-72.662353-109.894302l-166.643 167.243515zM1318.779509 852.151406l166.943257-166.943257-182.256398-182.256398-166.943257 166.943257c39.934268 15.913656 77.166218 39.934268 109.894302 72.662352 32.427827 32.427828 56.44844 69.659777 72.362096 109.594046z"/>
    </g>
    <g fill="#5DA9DD">
      <path d="M1453.183846 1666.414787c-67.557973-67.557973-67.557973-176.85176 0-244.409733 67.557972-67.557973 176.85176-67.557973 244.409733 0 67.557972 67.557973 67.557972 176.85176 0 244.409733-67.257716 67.257715-177.152018 67.257714-244.409733 0zM295.586661 538.453277c-67.557972-67.557973-67.557972-176.85176 0-244.409732 67.557973-67.557973 176.85176-67.557973 244.409733 0 67.557973 67.557973 67.557973 176.85176 0 244.409732-67.557972 67.557973-176.85176 67.557973-244.409733 0zM1289.666098 1472.894262l182.256397-182.256397-166.943257-166.943257c-15.913655 39.934268-39.934268 77.166217-72.662352 109.894302-32.12757 32.12757-69.659777 56.44844-109.894303 72.662353l167.243515 166.643zM862.735033 660.36272L695.791776 493.419463 513.535378 675.675861l166.943257 166.943257c15.913656-39.934268 39.934269-77.166218 72.662353-109.894302 32.12757-32.12757 69.659777-56.44844 109.594045-72.362096z"/>
    </g>
    <g fill="#18568C">
      <path d="M1167.838641 172.823779c0 95.541401-77.282378 172.823779-172.82378 172.823779-95.5414 0-172.823779-77.282378-172.823779-172.823779C822.191082 77.282378 899.47346 0 995.014861 0c95.541402 0 172.82378 77.282378 172.82378 172.823779zM1167.838641 1823.507431c0 95.541401-77.282378 172.823779-172.82378 172.823779-95.5414 0-172.823779-77.282378-172.823779-172.823779 0-95.541401 77.282378-172.82378 172.823779-172.82378 95.541402 0 172.82378 77.282379 172.82378 172.82378zM1057.893843 436.106158H949.18896v214.012738c17.834395-2.972399 35.66879-4.670912 54.352441-4.670912 18.683652 0 36.518047 1.698513 54.352442 4.670912V436.106158zM1057.893843 1355.690022c-17.834395 2.972399-35.66879 4.670913-54.352442 4.670913-18.683651 0-36.518046-1.698514-54.352441-4.670913v214.012738h108.704883v-214.012738z"/>
    </g>
    <g fill="#18578C">
      <path d="M1759.481954 1123.855626c-95.541401 0-172.823779-77.282378-172.823779-172.823779 0-95.541401 77.282378-172.82378 172.823779-172.82378 95.541401 0 172.823779 77.282379 172.823779 172.82378s-77.282378 172.823779-172.823779 172.823779zM172.917197 1153.15499c-95.541402 0-172.82378-77.282378-172.82378-172.823779 0-95.541402 77.282378-172.82378 172.82378-172.82378 95.5414 0 172.823779 77.282378 172.823779 172.82378 0 95.541401-77.282378 172.823779-172.823779 172.823779zM1319.978768 1034.721869h214.012739V926.016986h-214.012739c2.972399 17.834395 4.670913 35.66879 4.670913 54.352442 0 18.683651-1.698514 36.518046-4.670913 54.352441zM655.17622 1034.717623c-2.972398-17.834395-4.670912-35.66879-4.670912-54.352441 0-18.683652 1.698513-36.518047 4.670913-54.352442H441.163482v108.704883h214.012739z"/>
    </g>
    <path d="M1234.828026 992.968153c0 135.031847-109.55414 245.010616-245.010616 245.010616s-245.010616-109.55414-245.010616-245.010616 109.55414-245.010616 245.010616-245.010616 245.010616 109.978769 245.010616 245.010616z" fill="#18568B"/>
  </g>
</svg>
