<svg viewBox="0 0 1993 613" xmlns="http://www.w3.org/2000/svg">
  <defs>
    <linearGradient x1="0%" y1="50%" x2="310.592011%" y2="50%" id="a">
      <stop stop-color="#FF5193" offset="0%"/>
      <stop stop-color="#F9A43A" offset="100%"/>
    </linearGradient>
    <linearGradient x1="-106.375725%" y1="50%" x2="206.102966%" y2="50%" id="b">
      <stop stop-color="#FF5193" offset="0%"/>
      <stop stop-color="#F9A43A" offset="100%"/>
    </linearGradient>
    <linearGradient x1="-210.384509%" y1="50%" x2="100.010537%" y2="50%" id="c">
      <stop stop-color="#FF5193" offset="0%"/>
      <stop stop-color="#F9A43A" offset="100%"/>
    </linearGradient>
  </defs>
  <g fill-rule="nonzero" fill="none">
    <path d="M0 39.782609C0 17.81128 17.81128 0 39.782609 0h286.304348C495 0 554.565217 20.217391 595.652174 61.304348c25.731276 26.628878 39.1343 62.817044 36.956522 99.782609 0 70.869565-37.608696 118.913043-139.130435 140 98.043478 17.391304 147.826087 57.826086 147.826087 139.130434 1.932702 38.249131-11.986719 75.60351-38.478261 103.26087-40.217391 40.217391-105.869565 69.130435-282.608696 69.130435H39.782609C17.81128 612.608696 0 594.797415 0 572.826087V39.782609zm217.391304 228.260869c0-14.647552 11.874187-26.521739 26.521739-26.521739h92.173914c52.608695 0 91.956521-2.608696 110.217391-21.73913 8.592745-9.210146 12.998261-21.561326 12.173913-34.130435 1.140933-12.256501-2.966974-24.422227-11.304348-33.478261-18.478261-18.478261-57.826087-21.73913-111.086956-21.73913h-171.52174v353.47826h169.782609C392.173913 483.913043 435 479.565217 455 459.347826c9.206557-9.585283 13.942628-22.609479 13.043478-35.869565.853131-13.513943-3.859754-26.788568-13.043478-36.739131C434.782609 366.521739 391.956522 365 334.347826 365h-89.782609c-7.299756.183561-14.35225-2.650651-19.494977-7.83452-5.142727-5.183869-7.920655-12.258722-7.678936-19.556784v-69.565218z" fill="url(#a)"/>
    <path d="M913.043478 313.478261c0-14.647552 11.874187-26.521739 26.521739-26.521739h58.695653c80.43478 0 101.30435-6.086957 124.13043-28.913044 11.63175-12.579963 17.94224-29.174205 17.6087-46.304348 1.01311-17.923021-5.71599-35.418681-18.47826-48.043478-19.34783-19.347826-33.91304-21.73913-123.26087-21.73913H852.173913v470.434782H678.26087V39.782609C678.257951 18.06347 695.675085.35605 717.391304 0H1000c184.56522 0 220.21739 21.73913 265 66.52174 34.31515 38.280441 51.92329 88.678853 48.91304 139.999999 0 46.304348-10.65217 112.826087-52.82608 154.782609-13.26087 13.260869-30 43.478261-135 51.73913l189.78261 199.565218h-228.91305L921.304348 426.956522c-5.850936-7.560799-8.78346-16.975744-8.26087-26.521739v-86.956522z" fill="url(#b)"/>
    <path d="M1350.43478 39.782609c0-10.551004 4.19137-20.669866 11.65206-28.130553C1369.54753 4.19137 1379.66639 0 1390.21739 0h188.47826c219.56522 0 270.86957 36.73913 336.52174 102.391304 51.71771 55.051701 79.40629 128.418609 76.95652 203.913044 2.44977 75.494435-25.23881 148.861343-76.95652 203.913043C1850 575.434783 1798.26087 612.608696 1578.69565 612.608696h-188.47826c-21.97133 0-39.78261-17.811281-39.78261-39.782609V39.782609zm173.91305 434.782608h54.13043c140.86957 0 158.91304-20.217391 195.65217-56.956521 28.30903-29.801291 42.88774-70.070041 40.2174-111.086957 2.43016-40.877471-12.03087-80.959684-40-110.869565-36.73913-36.739131-54.78261-56.956522-195.65218-56.956522h-54.13043l-.21739 335.869565z" fill="url(#c)"/>
  </g>
</svg>
