<svg viewBox="0 0 1943 1929" xmlns="http://www.w3.org/2000/svg">
  <g fill="#000" fill-rule="nonzero">
    <path d="M971.428571 1821.42857c-478.571428 0-864.285714-385.71428-864.285714-857.14286 0-471.428567 385.714286-857.142853 864.285714-857.142853 478.571429 0 864.285719 385.714286 864.285719 857.142853 0 478.57143-385.71429 857.14286-864.285719 857.14286m0-1821.42857C435.714286 0 0 435.714286 0 964.28571 0 1500 435.714286 1928.57143 971.428571 1928.57143c535.714289 0 971.428569-435.71429 971.428569-964.28572C1950 435.714286 1507.14286 0 971.428571 0"/>
    <path d="M1100 1342.85714H814.285714v-107.14285h178.571429v-114.28572H814.285714v-107.14286H1100c85.71429 0 157.14286 71.42858 157.14286 157.14286 0 100-71.42857 171.42857-157.14286 171.42857zM814.285714 578.571429H1050c85.71429 0 157.14286 71.428571 157.14286 157.142857 0 85.714285-71.42857 157.142857-157.14286 157.142857H807.142857V578.571429h7.142857zM1250 942.857143c50-50 85.71429-121.428572 85.71429-207.142857 0-142.857143-100-257.142857-235.71429-285.714286-14.28571 0-35.71429-7.142857-50-7.142857H685.714286v678.571427H514.285714v114.28572h171.428572v228.57142H1100c157.14286 0 285.71429-128.57142 285.71429-285.71428 0-92.85714-50-185.71429-135.71429-235.714287z"/>
  </g>
</svg>
