<svg viewBox="0 0 2000 2000" xmlns="http://www.w3.org/2000/svg">
  <g fill="none" fill-rule="evenodd">
    <path d="M1969.98631 1241.97198c-133.48 535.66-676.18 861.68-1212 728-535.82-133.68-861.69-676.11-728-1211.82 133.69-535.71 676.12-861.88 1211.82-728.18 535.7 133.7 861.87 676.16 728.18 1212z" fill="#FC00AF" fill-rule="nonzero"/>
    <path d="M1824.53387 1205.70487c113.63959-455.476375-163.61245-916.579906-618.96982-1030.227995C750.206675 61.828787 289.128645 339.080821 175.489056 794.446697 61.849468 1249.81257 338.846496 1710.8906 794.305874 1824.52169c455.459376 113.63109 916.766916-163.49344 1030.227996-618.81682zm-1042.331342 667.3298C299.949238 1752.71885 6.650641 1264.50013 126.976875 782.340159 247.320333 300.111168 735.591573 6.647419 1217.67165 126.96496 1699.9 247.319506 1993.34728 735.618469 1873.0485 1217.80161c-120.14662 482.13643-608.60769 775.54513-1090.845972 655.23306z" fill="#FFF" fill-rule="nonzero"/>
    <path d="M1441 857.53c19.88-133.07-81.44-204.61-220-252.33l45-180.25-109.76-27.34-43.84 175.51c-28.82-7.18-58.44-14-87.88-20.68l44-176.67-109.65-27.34L914 528.61l-221.32-54.82L663.48 591s81.42 18.66 79.7 19.82c44.44 11.1 52.5 40.5 51.14 63.82l-123.14 493.8c-5.44 13.5-19.22 33.74-50.28 26 1.1 1.6-79.76-20-79.76-20l-54.48 125.79 221 55.8-45.42 182.35 109.6 27.34 45-180.39c30 8.12 59 15.62 87.42 22.68l-44.82 179.55 109.74 27.34 45.42-182c187.13 35.4 327.85 21.12 387-148 47.72-136.25-2.34-214.85-100.8-266.13 71.7-16.6 125.7-63.74 140.11-161.17m-250.71 351.52c-34 136.25-263.35 62.62-337.77 44.12l60.26-241.55c74.38 18.56 312.89 55.32 277.55 197.41m34-353.5c-30.94 124-221.91 61-283.89 45.54L994.91 682c62 15.48 261.51 44.3 229.25 173.59" fill="#FFF" fill-rule="nonzero"/>
    <path d="M395.67724 1033.591715l20.478531-34.328075c9.789778 5.089675 17.507447 11.185718 23.153236 18.28831 5.64579 7.102593 9.254507 15.07125 10.826256 23.90621 1.57175 8.834959.826527 19.393224-2.235692 31.675111-3.715077 14.90036-8.91649 26.532807-15.604394 34.89769-6.687905 8.364881-16.3418 14.61606-28.961973 18.75372-12.620174 4.137662-27.440078 4.084703-44.460155-.158879-22.693436-5.658109-38.630193-16.038298-47.81075-31.140883-9.180557-15.102582-11.019474-33.68859-5.516808-55.75858 4.305759-17.269455 11.181715-29.974324 20.628075-38.114988 9.446361-8.140663 21.99978-12.808058 37.660636-14.002326l-1.003543 39.481724c-4.503518.267772-7.900326.877676-10.190526 1.82973-3.832602 1.560794-7.049146 3.838013-9.64973 6.831727-2.600582 2.993715-4.42935 6.610233-5.48636 10.849667-2.393816 9.601068-.362702 17.921351 6.0934 24.961097 4.77196 5.295437 13.298755 9.474201 25.580642 12.53642 15.212084 3.792798 26.21419 4.08582 33.006653.879075 6.792462-3.206746 11.23009-8.98712 13.31302-17.341297 2.020754-8.104799 1.272411-14.797421-2.245053-20.078068-3.517462-5.280647-9.375892-9.936395-17.575465-13.967385zm.619424-55.47027c-22.381714-5.580388-38.252367-16.15931-47.612437-31.737081-9.36007-15.577772-11.265426-34.494887-5.716127-56.75191 5.689198-22.818126 16.197877-38.871841 31.526355-48.161626 15.328477-9.289786 34.02743-11.183317 56.097421-5.68065 16.022563 3.994873 28.489213 9.96714 37.400322 17.916978 8.911109 7.949839 14.948097 17.732432 18.111142 29.348074 3.163045 11.615643 2.848174 25.029304-.944625 40.241388-3.854975 15.461463-9.50796 27.643512-16.959126 36.546514-7.451166 8.903002-17.292049 15.173778-29.522947 18.812515-12.230897 3.638737-26.357415 3.460672-42.379978-.534202zm10.749301-42.316315c13.840503 3.450825 24.425508 3.35842 31.755336-.277217 7.329828-3.635637 12.098313-9.879829 14.305597-18.732763 2.269461-9.102312 1.064612-16.885488-3.614585-23.34976-4.679197-6.464273-14.687032-11.608276-30.023805-15.432162-12.905333-3.217661-22.983776-2.965846-30.235632.755451-7.251854 3.721298-11.989125 10.039492-14.211953 18.95477-2.129563 8.54121-.815738 16.1529 3.941515 22.835295 4.757254 6.682395 14.118336 11.764473 28.083527 15.246386zm98.951209-106.04676l-137.0951-34.181647 17.603781-70.604912c3.264294-13.092367 6.881295-22.818734 10.851113-29.179392 3.969818-6.360658 9.522448-10.902852 16.658057-13.626721 7.135608-2.723868 15.067416-2.9977 23.79566-.821504 7.606042 1.8964 13.763569 5.153343 18.472765 9.770929 4.709196 4.617586 8.070957 10.190442 10.085383 16.718735 1.280494 4.160036 1.852711 9.567135 1.716668 16.221458 2.942388-4.630218 5.542764-7.888807 7.801207-9.775861 1.510808-1.27882 4.47451-2.940333 8.891194-4.98459 4.416685-2.044258 7.746844-3.316416 9.99058-3.816514l44.850749-10.570687-11.937929 47.880417-47.537901 12.185291c-6.139017 1.515501-10.29874 3.193355-12.479292 5.03361-2.881385 2.526381-4.80392 5.722206-5.767665 9.587571l-.93265 3.740658 55.642281 13.87318-10.608901 42.54998zm-70.937434-62.881765l4.453407-17.86164c.481872-1.932683.791077-5.828743.927623-11.688298.13839-2.945406-.724271-5.594047-2.58801-7.946006-1.86374-2.35196-4.291843-3.900977-7.284384-4.647102-4.426467-1.103642-8.173938-.548059-11.242524 1.666767-3.068587 2.214825-5.566586 7.18753-7.494074 14.91826l-4.639937 18.609772 27.867899 6.948247zM405.881673 647.25965l28.305948-113.528957 29.270646 7.297991-17.720363 71.072494 21.78933 5.43269 16.437969-65.92909 27.961415 6.971564-16.437968 65.92909 27.026251 6.738402 18.233321-73.129856 31.047458 7.741-28.818906 115.58632-137.0951-34.181648z" fill="#FFF"/>
  </g>
</svg>
