<svg viewBox="0 0 2000 2000" xmlns="http://www.w3.org/2000/svg" xmlns:xlink="http://www.w3.org/1999/xlink">
  <defs>
    <circle id="a" cx="1000" cy="1000" r="1000"/>
  </defs>
  <g fill="none" fill-rule="evenodd">
    <mask id="b" fill="#fff">
      <use xlink:href="#a"/>
    </mask>
    <use fill="#222" xlink:href="#a"/>
    <path d="M541.689821 1071.98546l-43.793462 185.924-525.674137-167.69727h335.83253l43.812536-204.093583 393.607093.26664 98.13474-528.746358h379.721359c260.7771 0 354.65838 98.351927 317.46446 298.712552l-8.58322 46.395293c-24.8341 133.586448-90.63873 217.025602-210.63206 259.68794l-.66758 3.713909c127.03156 42.681387 161.74589 139.109697 136.28236 276.410057l-19.5888 105.7226C1400.41171 1548.66092 1250.03381 1656.25 998.412143 1656.25H602.630636l108.415522-584.24549-169.356337-.01905zm420.706629-2.54102L888.888889 1468.75h143.150291c84.07901 0 135.32591-31.57983 153.0776-128.18816l20.87767-113.27547c22.20383-120.6746-18.66107-157.84193-132.25678-157.84193H962.39645zm101.07401-524.286477L1000 888.888889h97.99915c93.43839 0 156.56679-33.455638 175.79796-137.503815l13.3592-72.461783c17.14083-92.870866-14.02431-133.784402-102.92095-133.784402l-120.7649.019074z" fill="#FFF" fill-rule="nonzero" mask="url(#b)"/>
  </g>
</svg>
