<svg viewBox="0 0 1648 1996" xmlns="http://www.w3.org/2000/svg">
  <g fill="#2C4DC7" fill-rule="nonzero">
    <path d="M983.42637 1213.54321c-70.36197 109.91358-193.21777 182.95062-333.37407 182.95062-218.6626 0-395.94959-177.34568-395.94959-396.12346 0-218.79012 177.287-396.1358 395.94959-396.1358 140.1563 0 263.0121 73.03703 333.37407 182.93827h280.79387C1175.97779 532.74074 934.42473 350 650.0523 350 291.0483 350 0 641.17284 0 1000.37037c0 359.18519 291.0483 650.34568 650.0523 650.34568 284.37243 0 525.92549-182.7284 614.16794-437.17284H983.42637z"/>
    <path d="M1647.12363 997.58025c0 550.06173-447.2958 997.5679-997.12363 997.5679v-254.22222c367.01257 0 671.65942-266.2963 731.96439-616.23457h-357.21471c13.5245-39.93827 21.21224-82.59259 21.21224-127.11111 0-44.54321-7.68774-87.17284-21.21224-127.12346h357.21471C1321.65942 520.51852 1017.01257 254.23457 650 254.23457V0c549.82783 0 997.12363 447.50617 997.12363 997.58025z"/>
  </g>
</svg>
