<svg viewBox="0 0 2000 2000" xmlns="http://www.w3.org/2000/svg">
  <g fill="none" fill-rule="evenodd">
    <rect fill="#0099E5" width="2000" height="2000" rx="100"/>
    <g fill="#FFF" fill-rule="nonzero">
      <path d="M967.414151 997.077802l217.167351 221.067489c57.9003 58.918359 134.88102 91.361373 216.73894 91.361373 81.85792 0 158.80568-32.443014 216.70599-91.361373 119.7551-121.892095 119.7551-320.176939.03295-442.102008-57.93326-58.951328-134.88102-91.394342-216.73894-91.394342-81.85792 0-158.83864 32.443014-216.73894 91.394342L967.414151 997.077802zm433.906291 421.858091c-110.85751 0-215.058287-43.916761-293.423077-123.639534l-292.92876-298.218557 292.92876-298.152618c78.331837-79.722773 182.565567-123.639534 293.423077-123.639534 110.85751 0 215.05829 43.949734 293.39012 123.639534 161.54087 164.391127 161.54087 431.980051 0 596.371175-78.33183 79.722773-182.53261 123.639534-293.39012 123.639534z"/>
      <path d="M603.403451 1418.935893c-110.857504 0-215.058286-43.916761-293.390119-123.639534-161.54087-164.391124-161.54087-431.980048 0-596.371175 78.331833-79.722773 182.532615-123.639534 293.390119-123.639534 110.857503 0 215.058286 43.91676 293.390118 123.639534l13.840714 14.111391-76.684133 77.08513-13.840709-14.078422c-57.900308-58.951328-134.848072-91.394342-216.738943-91.394342-81.85792 0-158.838637 32.443014-216.738945 91.394342-119.755104 121.925069-119.755104 320.176939 0 442.102008 57.900308 58.918359 134.881025 91.361373 216.738945 91.361373 81.857919 0 158.805683-32.443014 216.738943-91.361373l13.840709-14.111395 76.684133 77.08513-13.840714 14.177333c-78.364785 79.722773-182.532615 123.639534-293.390118 123.639534"/>
    </g>
  </g>
</svg>
