<svg viewBox="0 0 1975 1976" xmlns="http://www.w3.org/2000/svg">
  <g fill="#FF3A00" fill-rule="nonzero">
    <path d="M1411.856 899.336c-39.56-200.56-217.04-346.14-422-346.14-31.86 0-64.18 3.54-95.96 10.52-213.86 46.94-356.22 240.32-338.52 459.8 8.4 104.18 48.42 191.8 122.34 267.9l14.26 14.66 18.88-7.94c12.24-5.14 23.8-9.92 34.78-14.34l43.86-17.7-34.7-32.16c-52.62-48.74-86.28-110.38-100-183.24-20-106.46 7.32-205.94 78.96-287.62 64-72.98 156.62-114.84 254.06-114.84 88.66 0 172.22 34 235.28 95.72 71.6 70.1 106.12 155.1 102.6 252.64-3.46 97.5-40.22 178.4-109.24 240.4l-35.34 31.78 43.88 18.26c11.12 4.6 22 9.54 32.7 14.78l19.4 9.52 15.18-15.4c110.92-112.54 150.04-242.26 119.58-396.6"/>
    <path d="M987.48 127.304h.08c229.44 0 445.3 89.58 607.84 252.24 162.58 162.68 252 378.56 251.78 607.92-.4 474.08-386.58 859.76-860.84 859.74-473.42-.34-858.46-386.06-858.34-859.8.16-474.24 385.72-860.08 859.48-860.1m.26-127.3C443.38.004.28 442.504 0 986.404c-.26 544.7 442.14 988.3 986.2 988.84h.94c544.48 0 987.58-442.9 987.78-987.34.18-543.84-442.66-987.02-987.18-987.9"/>
    <path d="M446.406 1464.102l21.92 24.48 82.22-88.46-17.58-20.38c-62.48-72.24-105.68-155.92-128.4-248.7-26.74-109.26-23.08-218.8 10.82-325.58 34.1-107.26 94.78-199.02 180.32-272.7 109.12-94.06 248.48-145.84 392.4-145.84 158.08 0 306.86 60.84 418.92 171.34 110.46 108.86 170.78 241 179.34 392.72 9.32 166.14-41.88 313.36-152.14 437.5l-17.76 20.02 80.58 89.96 22.36-24.02c176.26-189 235.28-471.96 150.36-720.9-99.44-291.52-373.76-487.4-682.66-487.4-5.44 0-10.92.04-16.38.14-304.56 6.7-573.08 205.76-668.14 495.36-96.06 292.5 11.3 554.64 143.82 702.46"/>
  </g>
</svg>
