<svg viewBox="0 0 1623 2000" xmlns="http://www.w3.org/2000/svg">
  <g fill="#0B061C" fill-rule="nonzero">
    <path d="M954.325328 1964.89022l111.374152-12.33575-132.344917-67.61162 20.970765 79.94737zm-33.242307-95.2001l172.015919 87.87852-144.759069 16.03344-27.25685-103.91196zm144.177659-383.90263l-284.537509-44.57821 217.703656 177.57657 66.833853-132.99836zm-64.16315 145.50063l-248.327467-202.55581 324.562657 50.84891-76.23519 151.7069zM285.298571 712.723211L184.233372 897.092644l166.774147-11.498238-65.708948-172.871195zm77.019025 180.110413l-192.13407 13.246677L286.616848 693.67538l75.700748 199.158244z"/>
    <path d="M274.155245 683.204267l-30.63917-80.242562-124.008482 51.115692 154.647652 29.12687zm-182.61193-26.253102l156.516925-64.515513 38.671133 101.277903-195.188059-36.76239zM281.685862 458.60302l-5.690079-70.377293-12.478244 128.309618 18.168323-57.932325zm-5.690079-70.377293l-3.648806-45.129967 4.313629-44.355612.126361.001028 3.591398 44.419923-4.382582 45.064628zm13.789578 71.285062l-41.686947 132.924863 28.631145-294.40452 13.055802 161.479657z"/>
    <path d="M296.314459 465.42279l-35.452172 112.940956 52.965986-22.305954L400.68671 420.89063l-104.372251 44.53216zm-6.529097-5.912001l131.703267-56.193394-102.27045 159.150991-71.157939 29.967266 41.725122-132.924863zM171.145843 883.088863l61.817576-148.671915-128.216621-62.172478 66.399045 210.844393zM91.543314 656.951165l151.706894 73.562955-73.143032 175.909755-78.563862-249.47271z"/>
    <path d="M242.020502 721.044861l26.704821-22.581971-119.773465-22.558546 93.068644 45.140517zM91.543314 656.951165l195.188059 36.76239-43.51934 36.800565-151.668719-73.562955z"/>
    <path d="M250.598404 733.586825l-2.220755 3.036011 1.477545-1.249433.74321-1.786578zm25.404954-20.324676l10.013836-18.247217-.419342-.342856-15.893632 13.439878-10.728015 19.548594 17.027153-14.398399zM198.733044 837.43566l-28.422081 68.322881 35.64284-64.852067 28.587693-68.72099-35.808452 65.250176zm-28.587693 68.720991l73.066682-175.642531 43.51934-36.800565-116.586022 212.443096zm359.9293 353.608599V1105.5094l-112.942264 6.05357-152.662777 167.16418 265.605041-18.9619zm-285.030225 28.36905l168.389307-184.38457 124.640918-6.6806v170.14535l-293.030225 20.91982zm46.356318 4.71092l223.554113 62.79159L528.483 1275.9196l-237.082256 16.92562zm-46.356318-4.71092l293.030225-20.91982-16.720589 98.52931-276.309636-77.60949zm526.194436 479.08634l210.616433-134.55462-290.553633-100.95537-118.634448 160.38926 198.571648 75.12073zm-211.290016-71.37884l128.420229-173.61926 311.697735 108.30208-227.903918 145.59891-212.214046-80.28173z"/>
    <path d="M653.090019 1916.92497l54.890546-87.94292-147.792779-123.78002-69.014987 49.66499 161.91722 162.05795zm-174.224576-163.05738l81.6942-58.78928 157.891221 132.23771-63.904715 102.38498-175.680706-175.83341zm239.250129 62.73063l39.50754-37.54617-157.189576-61.05456 117.682036 98.60073zm-159.99912-123.61953l214.160965 83.18302-53.826553 51.15431-160.334412-134.33733z"/>
    <path d="M914.145412 1874.77207l-140.711539-88.78486-42.061731 40.06871 204.054369 129.84661-21.281099-81.13046zm6.937609-5.08195l27.25685 103.91196-229.889007-146.28606 53.979252-51.42154 148.652905 93.79564zm-109.262693 53.78643l-119.616378 10.84349 149.10504 51.82343-29.488662-62.66692zm4.854451-8.47288l39.969078 84.93907-202.097708-70.24174 162.12863-14.69733z"/>
    <path d="M720.20841 1839.60913l-50.351781 80.67113 127.744332-11.58031-77.392551-69.09082zm96.466369 75.39454l-162.12863 14.69733 63.904715-102.38498 98.223915 87.68765z"/>
    <path d="M898.765948 1951.53889l49.032181 21.82209-45.237596-28.88982-49.573923-22.0632 45.779338 29.13093zm-78.838326-43.84405l2.074868 1.34096-.932652-.83261-1.142216-.50835zm-59.650929-53.76365l-41.277667-26.26636 36.434646 32.66693 41.825828 26.61518-36.982807-33.01575zm56.398086 61.07248l-98.223915-87.68765 229.889007 146.28606-131.665092-58.59841z"/>
    <path d="M860.977962 1990.36407l64.085984-18.50839-92.008591-40.83048 27.922607 59.33887zm76.033374-21.95887l8.702412 3.86185-.136109 1.99111-9.146983 2.6417-11.36671-5.04418 11.94739-3.45048zm-115.131015-42.33913l-3.936412-8.36534 1.455385-1.488 8.450519 3.75007 5.205542 11.0624-11.175034-4.95913zm-5.205542-11.0624l131.703267 58.44571-91.734189 26.49336-39.969078-84.93907zm-695.208574-587.15284l8.085781 15.8519 58.537294-32.81323-66.623075 16.96133zm93.603808-32.08545l28.954465-7.37142.101867.25497-26.062651 14.60949-29.974414 7.63108 26.980733-15.12412zm29.974413-7.63108l-118.838339 66.61513-16.41519-32.18141 135.253529-34.43372z"/>
    <path d="M246.06425 1296.72841l-102.96774 57.5272 287.051365 144.04305L508.51045 1370.286l-262.4462-73.55759zm-1.019824-8.59411l275.813363 77.30409-87.725828 143.30842-307.116748-154.1119 119.029213-66.50061z"/>
    <path d="M369.411897 1547.09682L142.788613 1377.1378l102.414667 280.11138 124.208617-110.15236zm-127.688684 123.93132l-115.708-316.46958 256.038785 192.01954-140.330785 124.45004z"/>
    <path d="M202.419103 1401.8588l179.674236 134.74898 35.950921-26.52117-215.625157-108.22781zm230.865557 106.92619l-51.230662 37.79311-256.038785-192.01954 307.269447 154.22643zM392.06878 1549.13144l67.399842 144.69032-31.719137-171.01215-35.680705 26.32183zm41.21588-40.34645l45.542608 245.5407-96.77327-207.74759 51.230662-37.79311z"/>
    <path d="M463.689928 1739.98479l-84.3432-180.31307-122.113274 108.29415 206.456474 72.01892zm-221.966715-68.95665l140.330785-124.45004 96.92597 207.21314-237.256755-82.7631zm763.278157-30.7921l-72.160602 218.14146 369.931132-125.26969-297.77053-92.87177zm323.63646 92.55903l-408.432831 138.30752 79.670933-240.8452 328.761898 102.53768z"/>
    <path d="M1249.56053 1611.4738l-210.51364 22.62056 272.45919 84.97741-61.94555-107.59797zm73.1969 111.10715l4.31823 7.50067-1.42683 1.78121-8.26235-2.57695-5.8804-10.21411 11.25135 3.50918zm5.8804 10.21412l-328.761898-102.53768 254.015518-27.29502 74.74638 129.8327zm7.00856 7.72199l-19.60319 141.80191 273.55513-152.11417-253.95194 10.31226zm-7.00856-7.72199l294.25182-11.94873-316.96587 176.25333 22.71405-164.3046z"/>
    <path d="M1333.15381 1724.60509l244.17641-9.91531-306.20254-97.82262 62.02613 107.73793zm267.50008-10.86242l20.88913 6.67346-.06588.48756-21.91117.88975-22.23575-7.10366 23.32367-.94711zm-340.83772-100.4892l-4.3784-7.60518 1.40593-1.74277 8.35926 2.67054 5.92472 10.2911-11.31151-3.61369zm68.82166 119.5416l-74.74638-129.8327 368.9982 117.88397-294.25182 11.94873zm-541.75463 43.08764l128.972611 82.91334 69.421227-209.46002L786.8832 1775.88271zm202.38181-138.57933l8.290139-5.28791 1.502638 1.16987-3.093478 9.33375-10.687271 6.81694 3.987972-12.03265zm10.687271-6.81694l-79.747282 240.61615-148.156631-95.24628 227.903913-145.36987zm274.685449 267.11586l-72.92952-17.82605-73.48003 59.40269 146.40955-41.57664zm-181.88236 59.96634l107.00413-86.50423 106.20246 25.95891-213.20659 60.54532z"/>
    <path d="M1214.91833 1866.53415l84.33139 20.61299 18.00605-130.40749-102.33744 109.7945zm113.7195-133.73908l-22.67587 164.22825-106.20246-25.95891 128.87833-138.26934z"/>
    <path d="M968.772007 1863.10259h227.507233l104.88385-112.55752-332.391083 112.55752zm359.865823-130.30752l-128.87833 138.30752H920.204999l408.432831-138.30752zm-236.92049 215.32694l85.41345-69.01942H952.672907l139.044433 69.01942zm95.31367-77.01942h9.90022l.62844 1.77759-7.70039 6.22241h-12.72849l9.90022-8zm-94.27564 86.46605l-174.19189-86.46605h281.19602l-107.00413 86.46605zm-338.319117-517.15343l-53.380591 77.48591 259.703077 90.80727-206.322486-168.29318zm246.661277 190.87291l-312.575756-109.29463 64.248289-93.26118 248.327467 202.55581z"/>
    <path d="M687.197395 1509.81442l52.586225-76.33282-189.879076-51.80509 137.292851 128.13791zm-166.415956-144.37603l231.988624 63.29392-64.248289 93.26118-167.740335-156.5551z"/>
    <path d="M565.625838 1674.64447l112.225196-151.6791-146.576444-137.13819 34.351248 288.81729zm-5.562468 20.96828l-39.320105-330.59428 167.778509 156.97502-128.458404 173.61926zM515.53131 1388.93379l-72.887329 119.54157 105.59929 155.49297-32.711961-275.03454zm-1.529407-12.8589l5.301061-8.6942 1.76706.3851 1.202648 10.11158-6.741362 11.05642-1.529407-12.8589zm46.061467 319.53786l-126.931409-186.90411 87.611304-143.69017 39.320105 330.59428z"/>
    <path d="M549.071622 1693.66716l-101.09205-148.85614 36.33233 195.4649 64.75972-46.60876zm-70.320703 60.46765l-45.618958-245.42617 126.931409 186.90411-81.312451 58.52206zm70.320703-60.46765l-101.09205-148.85614 36.33233 195.4649 64.75972-46.60876zm-70.320703 60.46765l-45.618958-245.42617 126.931409 186.90411-81.312451 58.52206zm-216.268922-673.04975L109.377194 940.016574l-99.302951 77.984066 101.937942 286.92323 150.469812-223.83881zm-152.6911-151.565395l163.159352 150.332595-163.159352 242.71576L.610797 1015.2604l109.1801-85.740735zM237.833 1281.71504l22.637089-168.95753-132.354198 196.89003 109.717109-27.9325zm25.036588-186.86679l9.038824-13.44615.793848.30109-2.151511 16.05834-10.08066 14.99598 2.399499-17.90926zm-17.825162 193.28605l-135.253529 34.43372 163.159352-242.71576-27.905823 208.28204z"/>
    <path d="M397.641959 1109.17833l-117.863104-20.04954-23.412481 174.74486 141.275585-154.69532zM245.044426 1288.1343l27.905823-208.28204 140.483484 23.89747-168.389307 184.38457z"/>
    <path d="M276.631834 1072.36633l94.10903 16.1184-203.112281-116.552371 109.003251 100.433971zm117.021386 20.04269l18.930678 10.86303-.167986.46702-21.512786-3.68458-20.162262-11.56976 22.912356 3.92429zM136.329491 953.97193l-25.878229-23.843815.118457-.161537 30.520271 17.513515 26.538593 24.452266-31.299092-17.960429zm-26.538594-24.452265l304.024585 174.459105-140.865233-24.12651-163.159352-150.332595z"/>
    <path d="M360.949127 900.965733l-189.262349 12.935872-43.435034 16.987925 283.466832 162.66241 105.256911-137.622376-156.02636-54.963831zm-191.032825 5.038218l192.13407-13.132152 167.969383 59.171033-116.204273 151.935938-304.024585-174.459105 60.125405-23.515714z"/>
    <path d="M160.115554 901.273432l-56.068812-178.038278 12.999881 194.861652 43.068931-16.823374zm-56.068812-178.038278l-10.172767-32.302128-2.19051-32.834652.224103-.042137 9.884863 31.387931 2.254311 33.790986zm5.744155 206.284511L91.619664 657.142039l78.372987 248.861912-60.201754 23.515714zM1260.73683 1443.41609l-177.91994 43.06864-60.61176 120.61649 238.5317-163.68513zm18.53205-12.71706l20.41424-4.94162.21695.48653-17.31837 11.88421-21.84487 5.28794 18.53205-12.71706zm-278.17135 200.58909l76.23519-151.7069 223.78103-54.17012-300.01622 205.87702z"/>
    <path d="M1030.8231 1619.1525l215.99714-22.80513 40.65829-152.01246-256.65543 174.81759zm259.8211-186.65335l7.66929-5.22384 1.68866 1.19816-2.39764 8.96425-10.12598 6.89719 3.16567-11.83576zm10.12598-6.89718l-47.64223 178.1239-253.09932 26.7224 300.74155-204.8463zm-626.648948-229.67704l-115.140168-75.44187 86.340032 167.60835 28.800136-92.16648zm-128.724096-84.34229l-6.472068-12.56396.797554-.71839 11.821432 7.74561 7.43701 14.43716-13.583928-8.90042zm138.161906 80.96181l-36.418816 116.54785-109.1801-211.94683 145.598916 95.39898z"/>
    <path d="M539.545945 982.215634l6.139439 110.451696 111.004537 72.71307-117.143976-183.164766zm-8.774999-13.720472l-.787329-14.164465 1.015016-.327672 7.643422 11.951153.90389 16.261456-8.774999-13.720472zm152.788096 224.049288l-145.637091-95.39898-8.054895-144.911764 153.691986 240.310744z"/>
    <path d="M529.531455 1089.59895l-6.383158-115.65675-92.646982 121.12803 99.03014-5.47128zm-115.945022 14.418l116.356973-152.126817 8.01672 145.255337-124.373693 6.87148z"/>
    <path d="M382.972101 892.008802l141.006333 49.738753 8.547276-41.919359 16.824047-82.702118-166.377656 74.882724zm157.393042 9.414166l-10.383562 50.925263-168.503832-59.438257 198.81467-89.481872-19.927276 97.994866z"/>
    <path d="M566.91864 811.141697l-18.714783 92.032269c-.057589.282418-.057589.282418-.115196.564844a7068.345084 7068.345084 0 0 1-.419261 2.053786c-1.139677 5.578638-2.321444 11.330655-3.523475 17.154852l97.385186-116.965277-74.612471 5.159526zm-6.626221-7.560895l99.369161-6.871475-129.870874 155.982478s5.382656-25.653506 10.574437-51.116138l19.927276-97.994865zM644.487436 789.739529l-53.620153-71.927403-20.033281 77.02061 73.653434-5.093207zm-84.195017 13.841273l27.027801-103.911969 72.34136 97.040494-99.369161 6.871475z"/>
    <path d="M553.513571 797.862538l19.631829-75.477173-163.459932 140.362031 143.828103-64.884858zm23.163281-89.05431l8.743208-7.507739 1.26969.79227-2.900982 11.153212-10.643368 9.139394 3.531452-13.577137zm-16.384433 94.772574l-198.012998 89.329172L587.32022 699.668833l-27.027801 103.911969z"/>
    <path d="M363.485456 854.525157l4.186113 23.209912L580.021532 695.39147l34.447485-170.887159-250.983561 330.020846zM618.093843 506.52227l9.992563-13.139324.748756.338472-3.261946 16.181868-11.104199 14.601025 3.624826-17.982041zm-263.10582 345.960527l274.210019-360.561552-41.877822 207.747588-225.040799 193.241141-7.291398-40.427177z"/>
    <path d="M664.787619 535.837856l-31.2549-25.832042-37.676291 187.785089 56.55836 77.392491 12.372831-239.345538zm8.196987-3.603959l-13.74295 265.849725-71.921436-98.414789 40.9998-204.350025 44.664586 36.915089zm.854045-9.675868l119.681528-67.738217-148.486902 43.910332 28.805374 23.827885zm-.854045 9.675868l-44.626411-36.915089 230.041706-68.027601-185.415295 104.94269zm-127.06142 729.407833l84.494312 32.45692-84.464779-163.96799-.029533 131.51107zm95.713362 36.7665l4.107191 7.97312-1.450202 1.61744-8.372362-3.21608-5.503677-10.68406 11.21905 4.30958zm-103.714597-31.2701l.038175-169.99266 109.1801 211.94683-109.218275-41.95417zM531.628839 1352.22827l94.706788-42.55775-82.157708-31.55935-12.54908 74.1171zm6.293112-85.09014l109.218275 41.95417-125.900688 56.57514 16.682413-98.52931z"/>
    <path d="M728.820572 1414.27203l-83.793112-95.45974-100.199304 45.02589 183.992416 50.43385zm0 0l14.017571 3.84233 8.005263 9.11985-.731287 1.16911-11.703201-3.20795-9.588346-10.92334zm23.605918 14.76568l-231.186952-63.37027 125.900688-56.57514 105.286264 119.94541zM433.386904 568.270564l-61.340089 249.026359 234.493274-305.718479-173.153185 56.69212zm-6.706494-6.222101l201.945009-66.118857-273.484697 356.553191 71.539688-290.434334z"/>
    <path d="M328.601433 570.048463l29.185491 238.275103 58.684129-238.275103h-87.86962zm98.078977-8l-71.539688 290.472509-35.578969-290.472509H426.68041z"/>
    <path d="M258.047297 596.899254l87.491711 229.793633-32.564573-253.150091-54.927138 23.356458zm-10.216106-4.349078l71.730562-30.501713 42.526794 330.594287-114.257356-300.092574zm318.476603-259.840192l-22.531068-53.191903-195.927383 146.597118 218.458451-93.405215zM289.556313 459.739838L547.160268 266.99497l29.623691 69.936344-287.227646 122.808524zm124.744769-30.441806l-80.095958 124.750431h84.207291l-4.111333-124.750431zm12.379328 132.750431H319.561753L421.450454 403.35557l5.229956 158.692893z"/>
    <path d="M606.327026 495.226442l-176.63391-79.386027 4.620006 135.314134 172.013904-55.928107zM426.68041 562.048463l-5.42083-158.769243 207.251314 93.146659-201.830484 65.622584z"/>
    <path d="M440.914752 403.421099l174.334861 78.280652-44.209319-134.488726-130.125542 56.208074zm134.991185-67.024233l52.604957 160.029013-207.442189-93.146659 154.837232-66.882354zM617.3352 129.323992l-61.355376 138.049596 17.891342 43.201628L617.3352 129.323992zm10.258465-42.77926l17.568957-39.530154.126861.043-10.087415 42.065963-17.866868 40.200451 10.258465-42.77926zm-51.687728 249.852134l-28.631145-69.134672 98.18574-220.917914-69.554595 290.052586z"/>
    <path d="M541.671774 260.024711l84.940234-190.835034-318.740375 217.597478 233.800141-26.762444zM276.65321 298.41288L645.384182 46.687854l-98.262089 220.765215L276.65321 298.41288z"/>
    <path d="M455.980666 325.226056l-88.203392 47.53902-34.84736 44.530222 123.050752-92.069242zm43.430925-32.495961l47.226502-25.453688-42.908751 32.214524-47.748676 25.735125 43.430925-32.495961zM289.556313 459.739838l72.952157-93.223008 184.651798-99.52186-257.603955 192.744868z"/>
    <path d="M296.641903 304.086764l66.643772 52.929966 143.38778-76.980963-210.031552 24.050997zm229.096468-34.286427l19.975058-2.28737.172406.550775-17.714133 9.510232-21.498247 2.461793 19.064916-10.23543zm21.498246-2.461793L362.43212 366.555005l-85.893435-68.218475 270.697932-30.997986z"/>
    <path d="M351.245083 367.905045l-65.134001-51.852001 9.947 123.337003 55.187001-71.485002zm-61.497896 92.75099L276.65321 298.298356l85.740735 68.256649-72.646758 94.10103zM1328.58263 173.73578l-296.17497 22.227524 211.87302 140.853374 84.30195-163.080898zm13.68362-9.049434l-94.97905 183.735601-238.7074-158.692893 333.68645-25.042708zM931.782477 100.319446l79.896553 81.154517 323.36061-24.267768 9.78706-89.117177-413.044223 32.230428zm422.050753-40.957539l-11.56698 105.324439-333.68645 25.042708-94.559128-96.047948 439.812558-34.319199z"/>
    <path d="M1083.08923 8.91415L949.999044 82.846415l348.831926-27.247763L1083.08923 8.91415zm243.53494 44.513535l26.10124 5.648064-.02296.339293-26.62424 2.079657-27.24724-5.896047 27.7932-2.170967zm27.24724 5.896047L914.020672 93.681106 1081.83736.458098l272.03405 58.865634zm64.82166 288.341722l-179.79874 187.001315 235.16228-53.372047-55.36354-133.629268zm66.38533 139.331234l-270.46888 61.385175 206.79322-215.077161 63.67566 153.691986zm-469.83385-283.570472l-21.176158 167.877241 161.497188 28.575334 77.16964-51.807338-217.49067-144.645237zm231.88995 144.613982l-89.78727 60.278104-172.168619-30.463538 23.744759-188.240235 238.21113 158.425669z"/>
    <path d="M1413.318465 330.813714l-6.391889-169.778642-164.362854 346.8623 170.754743-177.083658zm-198.89982 217.797198l199.272768-420.534257 7.749497 205.838845-207.022266 214.695412z"/>
    <path d="M1231.412571 494.065587l165.019372-348.247777-48.284331 24.529059-93.36064 180.277446-23.3744 143.441272zm-16.993927 54.545325l32.67768-200.532539 95.131751-183.697426 71.463338-36.304292-199.272769 420.534257z"/>
    <path d="M1236.287738 364.957708l-69.072286 46.371233 44.051203 107.984182 25.021084-154.355415zm10.846761-16.91751l-32.52498 200.647064-57.26229-140.36896 89.78727-60.278104zM859.386713 418.766781l92.951206-36.64773-192.351515-21.450278 99.400309 58.098008zm-.681413 8.868l-135.329879-79.09831 261.879539 29.203768-126.54966 49.894542z"/>
    <path d="M725.951151 359.308223l-78.898919 122.434841 191.634376-56.542636-112.735457-65.892205zM858.7053 427.634781l-230.041706 67.874901 94.711827-146.973211 135.329879 79.09831zm-144.226458-80.063123l-33.790116-90.699785-96.065714 81.413335 46.040915 139.28372 83.814915-129.99727zM628.32002 495.96778l-52.986706-160.296236 108.874701-92.268637 39.167406 105.133564L628.32002 495.96778zM1517.607787 424.109504l-76.468911-64.110575 45.613992 110.133783 30.854919-46.023208zm-32.529385 62.887184l-63.828366-154.11191 107.004132 89.710922-43.175766 64.400988z"/>
    <path d="M1574.995075 326.886413l-133.740156 12.555198 84.732425 71.055144 49.007731-83.610342zm-46.893606 95.823811l-106.660559-89.443697 168.351133-15.804392-61.690574 105.248089z"/>
    <path d="M1422.105624 138.89717l5.753871 152.406722 48.383536-136.448941-54.137407-15.95778zm64.499772 10.67193l-65.164486 183.773777-7.749496-205.266222 72.913982 21.492446z"/>
    <path d="M1433.025596 324.27192l143.216581-13.562422-87.766391-142.600107-55.45019 156.162529zm53.50345-174.588295l103.262996 167.77851-168.503831 15.957091 65.240835-183.7356zm-70.575735-29.28055l3.767817 2.415962-1.531934-1.756903-2.235883-.659058zm-15.559623-19.749774l-20.700216-23.740107-25.196825-17.123424-.17547.197941 20.021398 22.961604 26.051113 17.703986zm61.076672 41.506886l23.935042 7.055198.165277-.349464-20.638427-14.025597-25.135036-7.408914 21.673144 14.728777zm25.135036 7.408914l-72.913982-21.492446-60.049055-68.867448 132.963037 90.359894z"/>
    <path d="M1400.94287 125.588078l-41.18125-47.244265-7.92653 72.441206 49.10778-25.196941zm-58.67662 39.098268l11.52881-105.362614 59.89635 68.714748-71.42516 36.647866zM969.76156 368.170084l-93.982254-149.529568-180.70275 31.122793 34.114023 91.446839 240.570981 26.959936zm-90.060087-158.322879l105.668012 168.122083-261.955889-29.356467-39.205581-105.09539 195.493458-33.670226z"/>
    <path d="M888.399161 208.653048l91.790529 146.095227L1000.614787 192.4l-82.651903-83.516324-29.563723 99.769372zm-8.697688 1.194157l34.433723-116.204274 94.902702 95.895248-23.706588 188.431109-105.629837-168.122083zM873.443047 202.809527l28.88285-97.471614-180.211816 51.499005-26.134569 76.617531 177.463535-30.644922zm6.258426 7.037678l-195.646158 33.784751 31.837834-93.337533 198.242047-56.651492-34.433723 116.204274z"/>
    <path d="M662.63474 57.751928l56.621317 83.261233L878.45178 95.51991 662.63474 57.751928zM878.45178 95.51991l17.626123-5.037005 16.24708 2.84324.043224.821738-15.859133 4.532053-18.057294-3.160026zM645.384182 46.611504l268.751014 47.031427-198.242047 56.651493-70.508967-103.68292z"/>
    <path d="M685.696443 215.006405l21.384186-63.49691-46.626603-68.489916 25.242417 131.986826zM645.346007 46.611504l70.585316 103.68292-32.372281 96.124297-38.213035-199.807217z"/>
    <path d="M589.120037 314.250846l85.655751-70.975374-30.331357-158.784651-55.324394 229.760025zm56.22597-267.677517l38.17486 199.845392-107.805804 89.329172 69.630944-289.174564z"/>
    <g>
      <path d="M1533.597125 1404.885632l-154.98388-21.41912 7.114062 140.258608 223.571764 176.300514-75.701946-295.140002zm6.4149-7.189484l82.915796 323.264714-245.006251-193.202966-7.787672-153.539287 169.878127 23.477539zM1307.776754 1430.367554l-41.764794 156.149463 103.678435-63.114129-6.790019-133.869894-55.123622 40.83456zm-7.006576-4.765584l69.36372-51.383361 7.787672 153.539287-124.793618 75.967971 47.642226-178.123897z"/>
      <path d="M1272.69896 1600.912209l310.66709 99.039782-206.041271-162.476608-104.625818 63.436826zm310.66709 99.039782l21.687581 6.913939 16.733951 13.195781-.243266.458093-20.304077-6.472881-17.874189-14.094932zm-329.856349-96.760572l124.411869-75.433523 245.006251 193.202966-369.41812-117.769443zm220.197193-222.734827l-87.986272-34.269445-5.571413 21.339562 93.557685 12.929883zm0 0l34.166047 4.721824 31.262608 12.176356-.055278.212605-33.234292-4.593054-32.139085-12.517731zm66.305131 17.239556l-169.878127-23.47754 10.116338-38.747482 159.761789 62.225022z"/>
      <path d="M1375.777248 1352.539626l3.993242-15.340077-.778904-.413818-10.476579 11.895598-4.472988 17.183024 11.735229-13.324727zm-13.385337 19.663633l2.979998-4.412982-2.268728 1.68063-.71127 2.732352zm-36.395474 24.755639l-24.665913 28.00683.12091.13158 29.988248-22.21474 25.22626-28.643072-30.669505 22.719402zm-25.22626 28.643072l79.480059-90.245369-10.116338 38.862008-69.36372 51.383361z"/>
    </g>
    <path d="M1224.37623 529.560266l250.57234-56.610527 96.04148-155.892397-96.47114-156.026937-127.00787-86.503055-263.13729-57.190916-167.421547 93.045839-267.691359-47.000118-357.105315 243.949857-28.954942 296.201743-154.666875 63.610858 17.816904 269.782659-106.774989 83.851968 104.905726 295.29971 16.383029 32.15645 113.174007 309.88121 233.451164 81.55007 175.774162 176.23221 193.918673 66.97078 87.855726-25.01779 145.193766-16.41686 209.58141-59.26225 304.58523-169.45855-77.84048-303.19456-141.53058-54.987-75.4604 85.13296-231.48317 56.06202-334.126211-52.1582-114.691206-130.75382 37.023617-118.49103-156.061934-243.39153 133.425649-160.441587 13.922722-267.857703 193.727822-109.628612 132.263731-52.078596 185.45211 33.07243 55.35604 135.561274zm77.23219 1352.104904l-3.42532 1.41457 1.63019-.90697 1.79513-.5076zm-86.92255-1333.512356l-57.14777-139.949037-172.321315-30.730762-127.007759 50.009067-185.109895 104.751815-13.74295 264.39908-129.336426 155.52438 153.768336 239.814473-36.571515 117.04412 104.94269 119.64001 325.249804 50.77256 223.51381-54.13195 79.51823-89.71092 159.57092 61.99597 82.95397 323.11202-317.00404 176.36785-212.63397 60.1254-145.178994 16.41519-91.428789 26.03526-202.174058-69.82182-175.79523-176.25333-237.14223-82.83944-115.440777-316.08784-16.41519-32.21959L.648972 1015.29858l109.1801-85.74074-18.018534-272.835724 156.402401-64.324639 28.74567-294.060947L645.613231 46.49698 914.135196 93.64293 1081.87553.419923l272.07223 59.132859 132.39041 90.169019 103.45387 167.320411-104.75181 170.030826-270.35436 61.079776z"/>
  </g>
</svg>
