<svg viewBox="0 0 2000 2000" xmlns="http://www.w3.org/2000/svg">
  <g fill="none" fill-rule="evenodd">
    <path d="M907.148625 1597.24594c47.855125 39.312 100.983005 69.39669 159.383625 90.25406l-8.92212-85.87562c278.22337-26.31113 501.524-241.24632 540.64062-515.54413 38.82019-47.53587 68.57-100.254812 89.24925-158.156875l-86.41975 8.978688c-28.59962-275.66775-242.508-496.29375-515-535.152813-47.53587-38.820188-100.254813-68.57-158.156875-89.24925l8.978687 86.41975c-275.66775 28.599625-496.293749 242.508-535.152812 515-38.820188 47.535875-68.57 100.25481-89.24925 158.15688l86.41975-8.97869c28.362312 273.38025 238.970812 492.6285 508.228875 534.148zm35.572688-258.24656c-150.924438-25.31438-268.503751-148.974-284.591375-302.83238l81.285375-8.44525c-31.013688-24.5525-57.396688-51.363875-79.148938-80.434187 23.562938-153.114063 148.16-272.908125 303.566625-289.157625l8.44525 81.285375c24.5525-31.013688 51.36388-57.396688 80.43419-79.148938 153.11406 23.562938 272.90812 148.16 289.15762 303.566625l-81.28537 8.44525c31.01369 24.5525 57.39668 51.36388 79.14893 80.43419-23.83975 154.91269-151.10124 275.71794-309.05593 289.68731l-8.50025-81.81506c-24.276877 30.66556-50.762315 56.80375-79.456127 78.41469zM1000 2000C447.71525 2000 0 1552.28475 0 1000S447.71525 0 1000 0s1000 447.71525 1000 1000-447.71525 1000-1000 1000z" fill="#373C94"/>
    <path d="M1057.61012 1601.62438l8.92213 85.87562c-129.36825-46.20294-232.862875-137.68481-310.483875-274.44556 107.190875-12.93688 195.900562-63.76007 266.129065-152.46975l8.50025 81.81506c157.95468-13.96938 285.21618-134.77462 309.05593-289.68731 40.46657 54.08062 64.90682 115.97887 73.32082 185.69481 75.55-42.87975 137.28212-93.65538 185.19631-152.327-39.11663 274.29781-262.41725 489.233-540.64063 515.54419v-.00006zM936.902062 398.919813L927.923375 312.5c129.368315 46.202937 232.862935 137.684812 310.483875 274.445563-107.19087 12.936874-195.90056 63.760062-266.129 152.46975l-8.44525-81.285376c-155.406625 16.2495-280.003687 136.043563-303.566625 289.157625-40.466562-54.080625-64.906812-115.978875-73.320812-185.694812-75.55 42.87975-137.282125 93.655375-185.196313 152.327 38.859063-272.492 259.485062-486.400375 535.152813-515l-.000001.000063z" fill-opacity=".3" fill="#393E96"/>
  </g>
</svg>
