<svg id="svg" version="1.1" width="515" height="515" xmlns="http://www.w3.org/2000/svg" xmlns:xlink="http://www.w3.org/1999/xlink" style="display: block;"><g id="svgg"><path id="path0" d="M230.667 1.667 C 229.153 3.181,229.929 24.000,231.500 24.000 C 232.583 24.000,233.000 25.111,233.000 28.000 L 233.000 32.000 226.500 32.000 C 221.389 32.000,220.000 32.321,220.000 33.500 C 220.000 34.679,218.611 35.000,213.500 35.000 C 209.833 35.000,207.000 35.436,207.000 36.000 C 207.000 36.550,204.750 37.000,202.000 37.000 C 198.222 37.000,197.000 37.367,197.000 38.500 C 197.000 39.633,195.778 40.000,192.000 40.000 C 189.250 40.000,187.000 40.450,187.000 41.000 C 187.000 41.550,185.411 42.000,183.469 42.000 C 181.252 42.000,179.723 42.559,179.362 43.500 C 179.045 44.325,177.709 45.000,176.393 45.000 C 174.933 45.000,174.000 45.585,174.000 46.500 C 174.000 47.583,172.889 48.000,170.000 48.000 C 167.800 48.000,166.000 48.450,166.000 49.000 C 166.000 49.550,164.875 50.000,163.500 50.000 C 161.944 50.000,161.000 50.567,161.000 51.500 C 161.000 52.433,160.056 53.000,158.500 53.000 C 157.125 53.000,156.000 53.450,156.000 54.000 C 156.000 54.550,154.875 55.000,153.500 55.000 C 151.944 55.000,151.000 55.567,151.000 56.500 C 151.000 57.410,150.071 58.000,148.640 58.000 C 147.290 58.000,145.477 59.070,144.403 60.500 C 143.369 61.877,141.509 63.000,140.263 63.000 C 138.918 63.000,138.000 63.609,138.000 64.500 C 138.000 65.325,137.325 66.000,136.500 66.000 C 135.675 66.000,135.000 66.450,135.000 67.000 C 135.000 67.550,133.875 68.000,132.500 68.000 C 130.944 68.000,130.000 68.567,130.000 69.500 C 130.000 70.325,129.325 71.000,128.500 71.000 C 127.675 71.000,127.000 71.450,127.000 72.000 C 127.000 72.550,125.875 73.000,124.500 73.000 C 122.944 73.000,122.000 73.567,122.000 74.500 C 122.000 75.325,121.550 76.000,121.000 76.000 C 120.450 76.000,120.000 76.675,120.000 77.500 C 120.000 78.325,119.325 79.000,118.500 79.000 C 117.675 79.000,117.000 79.450,117.000 80.000 C 117.000 80.550,115.875 81.000,114.500 81.000 C 112.944 81.000,112.000 81.567,112.000 82.500 C 112.000 83.325,111.518 84.000,110.929 84.000 C 109.544 84.000,107.000 86.544,107.000 87.929 C 107.000 88.518,106.518 89.000,105.929 89.000 C 104.544 89.000,102.000 91.544,102.000 92.929 C 102.000 93.518,101.325 94.000,100.500 94.000 C 99.675 94.000,99.000 94.482,99.000 95.071 C 99.000 96.456,96.456 99.000,95.071 99.000 C 94.482 99.000,94.000 99.675,94.000 100.500 C 94.000 101.325,93.518 102.000,92.929 102.000 C 92.339 102.000,91.214 102.643,90.429 103.429 C 89.643 104.214,89.000 105.339,89.000 105.929 C 89.000 106.518,88.518 107.000,87.929 107.000 C 86.020 107.000,84.000 109.792,84.000 112.429 C 84.000 113.843,83.518 115.000,82.929 115.000 C 81.544 115.000,79.000 117.544,79.000 118.929 C 79.000 119.518,78.325 120.000,77.500 120.000 C 76.675 120.000,76.000 120.450,76.000 121.000 C 76.000 121.550,75.325 122.000,74.500 122.000 C 73.567 122.000,73.000 122.944,73.000 124.500 C 73.000 125.875,72.550 127.000,72.000 127.000 C 71.450 127.000,71.000 127.675,71.000 128.500 C 71.000 129.325,70.325 130.000,69.500 130.000 C 68.567 130.000,68.000 130.944,68.000 132.500 C 68.000 133.875,67.550 135.000,67.000 135.000 C 66.450 135.000,66.000 135.675,66.000 136.500 C 66.000 137.325,65.325 138.000,64.500 138.000 C 63.567 138.000,63.000 138.944,63.000 140.500 C 63.000 141.875,62.550 143.000,62.000 143.000 C 61.450 143.000,61.000 144.125,61.000 145.500 C 61.000 147.056,60.433 148.000,59.500 148.000 C 58.675 148.000,58.000 148.675,58.000 149.500 C 58.000 150.325,57.325 151.000,56.500 151.000 C 55.567 151.000,55.000 151.944,55.000 153.500 C 55.000 154.875,54.550 156.000,54.000 156.000 C 53.450 156.000,53.000 157.125,53.000 158.500 C 53.000 160.056,52.433 161.000,51.500 161.000 C 50.567 161.000,50.000 161.944,50.000 163.500 C 50.000 164.875,49.550 166.000,49.000 166.000 C 48.450 166.000,48.000 167.800,48.000 170.000 C 48.000 172.889,47.583 174.000,46.500 174.000 C 45.585 174.000,45.000 174.933,45.000 176.393 C 45.000 177.709,44.325 179.045,43.500 179.362 C 42.559 179.723,42.000 181.252,42.000 183.469 C 42.000 185.411,41.550 187.000,41.000 187.000 C 40.450 187.000,40.000 189.250,40.000 192.000 C 40.000 195.778,39.633 197.000,38.500 197.000 C 37.417 197.000,37.000 198.111,37.000 201.000 C 37.000 203.200,36.550 205.000,36.000 205.000 C 35.436 205.000,35.000 207.833,35.000 211.500 C 35.000 216.611,34.679 218.000,33.500 218.000 C 32.385 218.000,32.000 219.175,32.000 222.571 C 32.000 226.977,30.401 230.000,28.071 230.000 C 27.482 230.000,27.000 231.350,27.000 233.000 C 27.000 234.650,26.518 236.000,25.929 236.000 C 24.164 236.000,22.000 238.715,22.000 240.929 C 22.000 242.103,21.351 243.000,20.500 243.000 C 19.675 243.000,19.000 243.675,19.000 244.500 C 19.000 245.325,18.550 246.000,18.000 246.000 C 17.450 246.000,17.000 247.125,17.000 248.500 C 17.000 250.056,16.433 251.000,15.500 251.000 C 14.567 251.000,14.000 251.944,14.000 253.500 C 14.000 254.875,13.550 256.000,13.000 256.000 C 12.450 256.000,12.000 257.125,12.000 258.500 C 12.000 260.056,11.433 261.000,10.500 261.000 C 9.500 261.000,9.000 262.000,9.000 264.000 C 9.000 266.000,8.500 267.000,7.500 267.000 C 6.567 267.000,6.000 267.944,6.000 269.500 C 6.000 270.875,5.550 272.000,5.000 272.000 C 4.450 272.000,4.000 273.125,4.000 274.500 C 4.000 276.056,3.433 277.000,2.500 277.000 C 1.367 277.000,1.000 278.222,1.000 282.000 C 1.000 286.762,4.855 289.785,6.167 286.051 C 6.424 285.318,22.779 284.581,30.750 284.943 C 31.605 284.982,32.000 286.897,32.000 291.000 C 32.000 295.667,32.333 297.000,33.500 297.000 C 34.679 297.000,35.000 298.389,35.000 303.500 C 35.000 307.167,35.436 310.000,36.000 310.000 C 36.550 310.000,37.000 312.475,37.000 315.500 C 37.000 319.722,37.348 321.000,38.500 321.000 C 39.548 321.000,40.000 322.056,40.000 324.500 C 40.000 326.425,40.450 328.000,41.000 328.000 C 41.550 328.000,42.000 329.589,42.000 331.531 C 42.000 333.748,42.559 335.277,43.500 335.638 C 44.478 336.014,45.000 337.569,45.000 340.107 C 45.000 342.901,45.424 344.000,46.500 344.000 C 47.433 344.000,48.000 344.944,48.000 346.500 C 48.000 347.875,48.450 349.000,49.000 349.000 C 49.550 349.000,50.000 350.125,50.000 351.500 C 50.000 353.056,50.567 354.000,51.500 354.000 C 52.433 354.000,53.000 354.944,53.000 356.500 C 53.000 357.875,53.450 359.000,54.000 359.000 C 54.550 359.000,55.000 360.125,55.000 361.500 C 55.000 363.056,55.567 364.000,56.500 364.000 C 57.438 364.000,58.000 364.948,58.000 366.531 C 58.000 367.924,58.675 369.322,59.500 369.638 C 60.325 369.955,61.000 371.098,61.000 372.178 C 61.000 374.302,63.198 377.000,64.929 377.000 C 65.518 377.000,66.000 378.125,66.000 379.500 C 66.000 380.875,66.450 382.000,67.000 382.000 C 67.550 382.000,68.000 382.675,68.000 383.500 C 68.000 384.325,68.675 385.000,69.500 385.000 C 70.433 385.000,71.000 385.944,71.000 387.500 C 71.000 388.875,71.450 390.000,72.000 390.000 C 72.550 390.000,73.000 390.675,73.000 391.500 C 73.000 392.325,73.675 393.000,74.500 393.000 C 75.325 393.000,76.000 393.450,76.000 394.000 C 76.000 394.550,76.675 395.000,77.500 395.000 C 78.433 395.000,79.000 395.944,79.000 397.500 C 79.000 398.875,79.450 400.000,80.000 400.000 C 80.550 400.000,81.000 400.675,81.000 401.500 C 81.000 402.325,81.675 403.000,82.500 403.000 C 83.325 403.000,84.000 403.482,84.000 404.071 C 84.000 405.456,86.544 408.000,87.929 408.000 C 88.518 408.000,89.000 408.482,89.000 409.071 C 89.000 410.456,91.544 413.000,92.929 413.000 C 93.518 413.000,94.000 413.675,94.000 414.500 C 94.000 415.325,94.482 416.000,95.071 416.000 C 96.456 416.000,99.000 418.544,99.000 419.929 C 99.000 420.518,99.675 421.000,100.500 421.000 C 101.325 421.000,102.000 421.482,102.000 422.071 C 102.000 423.456,104.544 426.000,105.929 426.000 C 106.518 426.000,107.000 426.482,107.000 427.071 C 107.000 428.456,109.544 431.000,110.929 431.000 C 111.518 431.000,112.000 431.675,112.000 432.500 C 112.000 433.325,112.675 434.000,113.500 434.000 C 114.325 434.000,115.000 434.450,115.000 435.000 C 115.000 435.550,116.125 436.000,117.500 436.000 C 119.056 436.000,120.000 436.567,120.000 437.500 C 120.000 438.325,120.450 439.000,121.000 439.000 C 121.550 439.000,122.000 439.675,122.000 440.500 C 122.000 441.325,122.675 442.000,123.500 442.000 C 124.325 442.000,125.000 442.450,125.000 443.000 C 125.000 443.550,126.125 444.000,127.500 444.000 C 129.056 444.000,130.000 444.567,130.000 445.500 C 130.000 446.325,130.675 447.000,131.500 447.000 C 132.325 447.000,133.000 447.450,133.000 448.000 C 133.000 448.550,134.125 449.000,135.500 449.000 C 136.875 449.000,138.000 449.482,138.000 450.071 C 138.000 451.802,140.698 454.000,142.822 454.000 C 143.902 454.000,145.045 454.675,145.362 455.500 C 145.678 456.325,147.076 457.000,148.469 457.000 C 150.052 457.000,151.000 457.562,151.000 458.500 C 151.000 459.433,151.944 460.000,153.500 460.000 C 154.875 460.000,156.000 460.450,156.000 461.000 C 156.000 461.550,157.125 462.000,158.500 462.000 C 160.056 462.000,161.000 462.567,161.000 463.500 C 161.000 464.433,161.944 465.000,163.500 465.000 C 164.875 465.000,166.000 465.450,166.000 466.000 C 166.000 466.550,167.125 467.000,168.500 467.000 C 170.056 467.000,171.000 467.567,171.000 468.500 C 171.000 469.576,172.099 470.000,174.893 470.000 C 177.431 470.000,178.986 470.522,179.362 471.500 C 179.678 472.325,180.851 473.000,181.969 473.000 C 183.086 473.000,184.000 473.450,184.000 474.000 C 184.000 474.550,185.800 475.000,188.000 475.000 C 190.889 475.000,192.000 475.417,192.000 476.500 C 192.000 477.633,193.222 478.000,197.000 478.000 C 199.750 478.000,202.000 478.450,202.000 479.000 C 202.000 479.564,204.833 480.000,208.500 480.000 C 213.611 480.000,215.000 480.321,215.000 481.500 C 215.000 482.633,216.222 483.000,220.000 483.000 C 222.750 483.000,225.000 483.450,225.000 484.000 C 225.000 484.550,226.125 485.000,227.500 485.000 C 229.056 485.000,230.000 485.567,230.000 486.500 C 230.000 487.325,230.675 488.000,231.500 488.000 C 232.325 488.000,233.000 488.675,233.000 489.500 C 233.000 490.433,233.944 491.000,235.500 491.000 C 236.875 491.000,238.000 491.450,238.000 492.000 C 238.000 492.550,238.675 493.000,239.500 493.000 C 240.325 493.000,241.000 493.675,241.000 494.500 C 241.000 495.433,241.944 496.000,243.500 496.000 C 244.875 496.000,246.000 496.450,246.000 497.000 C 246.000 497.550,247.125 498.000,248.500 498.000 C 250.056 498.000,251.000 498.567,251.000 499.500 C 251.000 500.325,251.675 501.000,252.500 501.000 C 253.325 501.000,254.000 501.450,254.000 502.000 C 254.000 502.550,255.125 503.000,256.500 503.000 C 258.056 503.000,259.000 503.567,259.000 504.500 C 259.000 505.433,259.944 506.000,261.500 506.000 C 263.056 506.000,264.000 506.567,264.000 507.500 C 264.000 508.433,264.944 509.000,266.500 509.000 C 267.875 509.000,269.000 509.450,269.000 510.000 C 269.000 510.550,270.125 511.000,271.500 511.000 C 273.056 511.000,274.000 511.567,274.000 512.500 C 274.000 513.679,275.389 514.000,280.500 514.000 C 286.639 514.000,290.507 510.399,286.051 508.833 C 285.318 508.576,284.581 492.221,284.943 484.250 C 284.983 483.366,287.197 483.000,292.500 483.000 C 298.500 483.000,300.000 482.700,300.000 481.500 C 300.000 480.321,301.389 480.000,306.500 480.000 C 310.167 480.000,313.000 479.564,313.000 479.000 C 313.000 478.450,315.250 478.000,318.000 478.000 C 321.778 478.000,323.000 477.633,323.000 476.500 C 323.000 475.417,324.111 475.000,327.000 475.000 C 329.200 475.000,331.000 474.550,331.000 474.000 C 331.000 473.450,332.318 473.000,333.929 473.000 C 335.539 473.000,337.532 472.325,338.357 471.500 C 339.182 470.675,340.789 470.000,341.929 470.000 C 343.103 470.000,344.000 469.351,344.000 468.500 C 344.000 467.452,345.056 467.000,347.500 467.000 C 349.425 467.000,351.000 466.550,351.000 466.000 C 351.000 465.450,352.350 465.000,354.000 465.000 C 356.000 465.000,357.000 464.500,357.000 463.500 C 357.000 462.567,357.944 462.000,359.500 462.000 C 360.875 462.000,362.000 461.550,362.000 461.000 C 362.000 460.450,363.125 460.000,364.500 460.000 C 365.875 460.000,367.000 459.550,367.000 459.000 C 367.000 457.264,370.917 454.000,373.000 454.000 C 374.100 454.000,375.000 453.550,375.000 453.000 C 375.000 452.450,376.125 452.000,377.500 452.000 C 378.875 452.000,380.000 451.518,380.000 450.929 C 380.000 449.209,382.692 447.000,384.788 447.000 C 385.851 447.000,387.565 445.875,388.597 444.500 C 389.630 443.125,391.043 442.000,391.737 442.000 C 392.432 442.000,393.000 441.325,393.000 440.500 C 393.000 439.567,393.944 439.000,395.500 439.000 C 396.875 439.000,398.000 438.518,398.000 437.929 C 398.000 436.544,400.544 434.000,401.929 434.000 C 402.518 434.000,403.000 433.325,403.000 432.500 C 403.000 431.675,403.675 431.000,404.500 431.000 C 405.325 431.000,406.000 430.550,406.000 430.000 C 406.000 429.450,407.125 429.000,408.500 429.000 C 409.875 429.000,411.000 428.518,411.000 427.929 C 411.000 426.544,413.544 424.000,414.929 424.000 C 415.518 424.000,416.000 423.325,416.000 422.500 C 416.000 421.675,416.450 421.000,417.000 421.000 C 417.550 421.000,418.000 420.325,418.000 419.500 C 418.000 418.675,418.675 418.000,419.500 418.000 C 420.325 418.000,421.000 417.550,421.000 417.000 C 421.000 416.450,421.675 416.000,422.500 416.000 C 423.325 416.000,424.000 415.325,424.000 414.500 C 424.000 413.675,424.450 413.000,425.000 413.000 C 425.550 413.000,426.000 411.875,426.000 410.500 C 426.000 409.125,426.482 408.000,427.071 408.000 C 428.456 408.000,431.000 405.456,431.000 404.071 C 431.000 403.482,431.675 403.000,432.500 403.000 C 433.325 403.000,434.000 402.518,434.000 401.929 C 434.000 400.544,436.544 398.000,437.929 398.000 C 438.518 398.000,439.000 396.875,439.000 395.500 C 439.000 393.944,439.567 393.000,440.500 393.000 C 441.325 393.000,442.000 392.432,442.000 391.737 C 442.000 391.043,443.125 389.630,444.500 388.597 C 445.875 387.565,447.000 385.851,447.000 384.788 C 447.000 382.692,449.209 380.000,450.929 380.000 C 451.518 380.000,452.000 378.875,452.000 377.500 C 452.000 376.125,452.450 375.000,453.000 375.000 C 453.550 375.000,454.000 373.923,454.000 372.607 C 454.000 371.291,454.675 369.955,455.500 369.638 C 456.325 369.322,457.000 367.924,457.000 366.531 C 457.000 365.139,457.482 364.000,458.071 364.000 C 459.836 364.000,462.000 361.285,462.000 359.071 C 462.000 357.897,462.649 357.000,463.500 357.000 C 464.583 357.000,465.000 355.889,465.000 353.000 C 465.000 350.800,465.450 349.000,466.000 349.000 C 466.550 349.000,467.000 347.875,467.000 346.500 C 467.000 344.944,467.567 344.000,468.500 344.000 C 469.351 344.000,470.000 343.103,470.000 341.929 C 470.000 340.789,470.675 339.182,471.500 338.357 C 472.325 337.532,473.000 335.539,473.000 333.929 C 473.000 332.318,473.450 331.000,474.000 331.000 C 474.550 331.000,475.000 329.200,475.000 327.000 C 475.000 324.111,475.417 323.000,476.500 323.000 C 477.633 323.000,478.000 321.778,478.000 318.000 C 478.000 315.250,478.450 313.000,479.000 313.000 C 479.550 313.000,480.000 310.750,480.000 308.000 C 480.000 304.222,480.367 303.000,481.500 303.000 C 482.679 303.000,483.000 301.611,483.000 296.500 C 483.000 292.833,483.436 290.000,484.000 290.000 C 484.550 290.000,485.000 288.875,485.000 287.500 C 485.000 285.944,485.567 285.000,486.500 285.000 C 487.325 285.000,488.000 284.325,488.000 283.500 C 488.000 282.675,488.675 282.000,489.500 282.000 C 490.325 282.000,491.000 281.325,491.000 280.500 C 491.000 279.675,491.450 279.000,492.000 279.000 C 492.550 279.000,493.000 277.875,493.000 276.500 C 493.000 275.125,493.482 274.000,494.071 274.000 C 495.802 274.000,498.000 271.302,498.000 269.178 C 498.000 268.098,498.675 266.955,499.500 266.638 C 500.325 266.322,501.000 264.924,501.000 263.531 C 501.000 262.139,501.450 261.000,502.000 261.000 C 502.550 261.000,503.000 259.875,503.000 258.500 C 503.000 256.944,503.567 256.000,504.500 256.000 C 505.433 256.000,506.000 255.056,506.000 253.500 C 506.000 251.944,506.567 251.000,507.500 251.000 C 508.433 251.000,509.000 250.056,509.000 248.500 C 509.000 247.125,509.450 246.000,510.000 246.000 C 510.550 246.000,511.000 244.875,511.000 243.500 C 511.000 242.051,511.575 241.000,512.369 241.000 C 513.174 241.000,513.994 239.456,514.358 237.250 C 515.624 229.593,516.205 230.000,504.000 230.000 C 494.889 230.000,493.000 230.258,493.000 231.500 C 493.000 232.633,491.778 233.000,488.000 233.000 L 483.000 233.000 483.000 224.000 C 483.000 216.667,482.722 215.000,481.500 215.000 C 480.321 215.000,480.000 213.611,480.000 208.500 C 480.000 204.833,479.564 202.000,479.000 202.000 C 478.450 202.000,478.000 199.750,478.000 197.000 C 478.000 193.222,477.633 192.000,476.500 192.000 C 475.417 192.000,475.000 190.889,475.000 188.000 C 475.000 185.800,474.550 184.000,474.000 184.000 C 473.450 184.000,473.000 182.682,473.000 181.071 C 473.000 179.461,472.325 177.468,471.500 176.643 C 470.675 175.818,470.000 174.211,470.000 173.071 C 470.000 171.897,469.351 171.000,468.500 171.000 C 467.567 171.000,467.000 170.056,467.000 168.500 C 467.000 167.125,466.550 166.000,466.000 166.000 C 465.450 166.000,465.000 164.200,465.000 162.000 C 465.000 159.111,464.583 158.000,463.500 158.000 C 462.649 158.000,462.000 157.103,462.000 155.929 C 462.000 153.715,459.836 151.000,458.071 151.000 C 457.482 151.000,457.000 149.861,457.000 148.469 C 457.000 147.076,456.325 145.678,455.500 145.362 C 454.675 145.045,454.000 143.709,454.000 142.393 C 454.000 141.077,453.550 140.000,453.000 140.000 C 452.450 140.000,452.000 138.875,452.000 137.500 C 452.000 136.125,451.518 135.000,450.929 135.000 C 449.209 135.000,447.000 132.308,447.000 130.212 C 447.000 129.149,445.875 127.435,444.500 126.403 C 443.125 125.370,442.000 123.957,442.000 123.263 C 442.000 122.568,441.325 122.000,440.500 122.000 C 439.567 122.000,439.000 121.056,439.000 119.500 C 439.000 118.125,438.518 117.000,437.929 117.000 C 436.544 117.000,434.000 114.456,434.000 113.071 C 434.000 112.482,433.325 112.000,432.500 112.000 C 431.675 112.000,431.000 111.518,431.000 110.929 C 431.000 109.544,428.456 107.000,427.071 107.000 C 426.482 107.000,426.000 106.518,426.000 105.929 C 426.000 104.544,423.456 102.000,422.071 102.000 C 421.482 102.000,421.000 101.325,421.000 100.500 C 421.000 99.675,420.518 99.000,419.929 99.000 C 418.544 99.000,416.000 96.456,416.000 95.071 C 416.000 94.482,415.325 94.000,414.500 94.000 C 413.675 94.000,413.000 93.518,413.000 92.929 C 413.000 91.544,410.456 89.000,409.071 89.000 C 408.482 89.000,408.000 88.518,408.000 87.929 C 408.000 86.544,405.456 84.000,404.071 84.000 C 403.482 84.000,403.000 83.325,403.000 82.500 C 403.000 81.675,402.325 81.000,401.500 81.000 C 400.675 81.000,400.000 80.550,400.000 80.000 C 400.000 79.450,398.875 79.000,397.500 79.000 C 395.944 79.000,395.000 78.433,395.000 77.500 C 395.000 76.675,394.550 76.000,394.000 76.000 C 393.450 76.000,393.000 75.325,393.000 74.500 C 393.000 73.675,392.325 73.000,391.500 73.000 C 390.675 73.000,390.000 72.550,390.000 72.000 C 390.000 71.450,388.875 71.000,387.500 71.000 C 385.944 71.000,385.000 70.433,385.000 69.500 C 385.000 68.675,384.325 68.000,383.500 68.000 C 382.675 68.000,382.000 67.550,382.000 67.000 C 382.000 66.450,380.875 66.000,379.500 66.000 C 377.944 66.000,377.000 65.433,377.000 64.500 C 377.000 63.609,376.082 63.000,374.737 63.000 C 373.491 63.000,371.631 61.877,370.597 60.500 C 369.523 59.070,367.710 58.000,366.360 58.000 C 364.929 58.000,364.000 57.410,364.000 56.500 C 364.000 55.567,363.056 55.000,361.500 55.000 C 360.125 55.000,359.000 54.550,359.000 54.000 C 359.000 53.450,357.875 53.000,356.500 53.000 C 354.944 53.000,354.000 52.433,354.000 51.500 C 354.000 50.567,353.056 50.000,351.500 50.000 C 350.125 50.000,349.000 49.550,349.000 49.000 C 349.000 48.450,347.200 48.000,345.000 48.000 C 342.111 48.000,341.000 47.583,341.000 46.500 C 341.000 45.585,340.067 45.000,338.607 45.000 C 337.291 45.000,335.955 44.325,335.638 43.500 C 335.277 42.559,333.748 42.000,331.531 42.000 C 329.589 42.000,328.000 41.550,328.000 41.000 C 328.000 40.450,326.425 40.000,324.500 40.000 C 322.056 40.000,321.000 39.548,321.000 38.500 C 321.000 37.348,319.722 37.000,315.500 37.000 C 312.475 37.000,310.000 36.550,310.000 36.000 C 310.000 35.436,307.167 35.000,303.500 35.000 C 298.389 35.000,297.000 34.679,297.000 33.500 C 297.000 32.385,295.825 32.000,292.429 32.000 C 288.023 32.000,285.000 30.401,285.000 28.071 C 285.000 27.482,284.325 27.000,283.500 27.000 C 282.675 27.000,282.000 26.325,282.000 25.500 C 282.000 24.567,281.056 24.000,279.500 24.000 C 278.125 24.000,277.000 23.550,277.000 23.000 C 277.000 22.450,275.875 22.000,274.500 22.000 C 272.944 22.000,272.000 21.433,272.000 20.500 C 272.000 19.675,271.325 19.000,270.500 19.000 C 269.675 19.000,269.000 18.550,269.000 18.000 C 269.000 17.450,267.875 17.000,266.500 17.000 C 264.944 17.000,264.000 16.433,264.000 15.500 C 264.000 14.567,263.056 14.000,261.500 14.000 C 260.125 14.000,259.000 13.550,259.000 13.000 C 259.000 12.450,257.875 12.000,256.500 12.000 C 254.944 12.000,254.000 11.433,254.000 10.500 C 254.000 9.675,253.325 9.000,252.500 9.000 C 251.675 9.000,251.000 8.325,251.000 7.500 C 251.000 6.417,249.889 6.000,247.000 6.000 C 244.800 6.000,243.000 5.550,243.000 5.000 C 243.000 4.450,241.875 4.000,240.500 4.000 C 238.944 4.000,238.000 3.433,238.000 2.500 C 238.000 0.961,232.049 0.284,230.667 1.667 M243.000 140.500 C 243.000 146.500,243.300 148.000,244.500 148.000 C 245.679 148.000,246.000 149.389,246.000 154.500 C 246.000 160.767,246.090 161.000,248.500 161.000 C 250.056 161.000,251.000 160.433,251.000 159.500 C 251.000 158.675,251.482 158.000,252.071 158.000 C 253.836 158.000,256.000 155.285,256.000 153.071 C 256.000 151.897,256.649 151.000,257.500 151.000 C 258.325 151.000,259.000 150.325,259.000 149.500 C 259.000 148.675,259.450 148.000,260.000 148.000 C 260.550 148.000,261.000 147.325,261.000 146.500 C 261.000 145.675,261.675 145.000,262.500 145.000 C 263.325 145.000,264.000 144.550,264.000 144.000 C 264.000 143.450,265.125 143.000,266.500 143.000 C 268.056 143.000,269.000 142.433,269.000 141.500 C 269.000 140.675,269.482 140.000,270.071 140.000 C 271.456 140.000,274.000 137.456,274.000 136.071 C 274.000 135.378,277.700 135.000,284.500 135.000 C 293.167 135.000,295.000 135.262,295.000 136.500 C 295.000 137.583,296.111 138.000,299.000 138.000 C 301.200 138.000,303.000 138.450,303.000 139.000 C 303.000 139.550,304.125 140.000,305.500 140.000 C 307.056 140.000,308.000 140.567,308.000 141.500 C 308.000 142.433,308.944 143.000,310.500 143.000 C 311.875 143.000,313.000 143.450,313.000 144.000 C 313.000 144.550,314.125 145.000,315.500 145.000 C 317.056 145.000,318.000 145.567,318.000 146.500 C 318.000 147.433,318.944 148.000,320.500 148.000 C 322.056 148.000,323.000 148.567,323.000 149.500 C 323.000 150.325,323.675 151.000,324.500 151.000 C 325.325 151.000,326.000 151.450,326.000 152.000 C 326.000 152.550,327.125 153.000,328.500 153.000 C 329.875 153.000,331.000 153.482,331.000 154.071 C 331.000 155.456,333.544 158.000,334.929 158.000 C 335.518 158.000,336.000 158.675,336.000 159.500 C 336.000 160.325,336.884 161.000,337.966 161.000 C 340.024 161.000,346.000 166.182,346.000 167.966 C 346.000 168.535,346.480 169.000,347.067 169.000 C 347.654 169.000,349.620 170.575,351.435 172.500 C 353.251 174.425,355.246 176.000,355.868 176.000 C 356.491 176.000,357.000 177.157,357.000 178.571 C 357.000 181.208,359.020 184.000,360.929 184.000 C 361.518 184.000,362.000 184.675,362.000 185.500 C 362.000 186.325,362.450 187.000,363.000 187.000 C 363.550 187.000,364.000 188.125,364.000 189.500 C 364.000 191.056,364.567 192.000,365.500 192.000 C 366.433 192.000,367.000 192.944,367.000 194.500 C 367.000 196.056,367.567 197.000,368.500 197.000 C 369.325 197.000,370.000 197.675,370.000 198.500 C 370.000 199.325,370.450 200.000,371.000 200.000 C 371.550 200.000,372.000 201.125,372.000 202.500 C 372.000 204.056,372.567 205.000,373.500 205.000 C 374.548 205.000,375.000 206.056,375.000 208.500 C 375.000 210.425,375.450 212.000,376.000 212.000 C 376.550 212.000,377.000 213.350,377.000 215.000 C 377.000 217.000,377.500 218.000,378.500 218.000 C 379.633 218.000,380.000 219.222,380.000 223.000 C 380.000 225.750,380.450 228.000,381.000 228.000 C 381.564 228.000,382.000 230.833,382.000 234.500 C 382.000 239.611,382.321 241.000,383.500 241.000 C 384.325 241.000,385.000 241.450,385.000 242.000 C 385.000 242.578,381.833 243.000,377.500 243.000 C 371.500 243.000,370.000 243.300,370.000 244.500 C 370.000 245.708,368.444 246.000,362.000 246.000 C 354.133 246.000,354.000 246.042,354.000 248.500 C 354.000 250.056,354.567 251.000,355.500 251.000 C 356.325 251.000,357.000 251.675,357.000 252.500 C 357.000 253.351,357.897 254.000,359.071 254.000 C 361.285 254.000,364.000 256.164,364.000 257.929 C 364.000 258.518,364.675 259.000,365.500 259.000 C 366.325 259.000,367.000 259.450,367.000 260.000 C 367.000 260.550,367.675 261.000,368.500 261.000 C 369.325 261.000,370.000 261.509,370.000 262.132 C 370.000 262.754,371.575 264.749,373.500 266.565 C 375.425 268.380,377.000 270.346,377.000 270.933 C 377.000 271.520,377.482 272.000,378.071 272.000 C 380.668 272.000,382.000 275.027,382.000 280.929 C 382.000 284.310,381.557 287.000,381.000 287.000 C 380.450 287.000,380.000 289.250,380.000 292.000 C 380.000 295.778,379.633 297.000,378.500 297.000 C 377.500 297.000,377.000 298.000,377.000 300.000 C 377.000 301.650,376.550 303.000,376.000 303.000 C 375.450 303.000,375.000 304.575,375.000 306.500 C 375.000 308.944,374.548 310.000,373.500 310.000 C 372.567 310.000,372.000 310.944,372.000 312.500 C 372.000 313.875,371.550 315.000,371.000 315.000 C 370.450 315.000,370.000 315.675,370.000 316.500 C 370.000 317.325,369.325 318.000,368.500 318.000 C 367.567 318.000,367.000 318.944,367.000 320.500 C 367.000 322.056,366.433 323.000,365.500 323.000 C 364.567 323.000,364.000 323.944,364.000 325.500 C 364.000 326.875,363.550 328.000,363.000 328.000 C 362.450 328.000,362.000 328.675,362.000 329.500 C 362.000 330.325,361.518 331.000,360.929 331.000 C 359.020 331.000,357.000 333.792,357.000 336.429 C 357.000 337.843,356.491 339.000,355.868 339.000 C 355.246 339.000,353.251 340.575,351.435 342.500 C 349.620 344.425,347.654 346.000,347.067 346.000 C 346.480 346.000,346.000 346.480,346.000 347.067 C 346.000 347.654,344.425 349.620,342.500 351.435 C 340.575 353.251,339.000 355.246,339.000 355.868 C 339.000 356.491,337.843 357.000,336.429 357.000 C 333.792 357.000,331.000 359.020,331.000 360.929 C 331.000 361.518,330.325 362.000,329.500 362.000 C 328.675 362.000,328.000 362.450,328.000 363.000 C 328.000 363.550,326.875 364.000,325.500 364.000 C 323.944 364.000,323.000 364.567,323.000 365.500 C 323.000 366.325,322.550 367.000,322.000 367.000 C 321.450 367.000,321.000 367.675,321.000 368.500 C 321.000 369.500,320.000 370.000,318.000 370.000 C 316.350 370.000,315.000 370.450,315.000 371.000 C 315.000 371.550,313.875 372.000,312.500 372.000 C 310.944 372.000,310.000 372.567,310.000 373.500 C 310.000 374.433,309.056 375.000,307.500 375.000 C 306.125 375.000,305.000 375.450,305.000 376.000 C 305.000 376.550,303.200 377.000,301.000 377.000 C 298.111 377.000,297.000 377.417,297.000 378.500 C 297.000 379.633,295.778 380.000,292.000 380.000 C 289.250 380.000,287.000 380.450,287.000 381.000 C 287.000 381.578,283.833 382.000,279.500 382.000 L 272.000 382.000 272.000 372.000 C 272.000 363.778,271.733 362.000,270.500 362.000 C 269.417 362.000,269.000 360.889,269.000 358.000 C 269.000 354.400,268.750 354.000,266.500 354.000 C 264.500 354.000,264.000 354.500,264.000 356.500 C 264.000 358.056,263.433 359.000,262.500 359.000 C 261.675 359.000,261.000 359.482,261.000 360.071 C 261.000 361.456,258.456 364.000,257.071 364.000 C 256.482 364.000,256.000 365.157,256.000 366.571 C 256.000 369.621,253.901 372.000,251.212 372.000 C 250.149 372.000,248.435 373.125,247.403 374.500 C 246.370 375.875,244.957 377.000,244.263 377.000 C 243.568 377.000,243.000 377.482,243.000 378.071 C 243.000 380.500,239.973 382.000,235.071 382.000 C 232.282 382.000,230.000 381.550,230.000 381.000 C 230.000 380.450,227.750 380.000,225.000 380.000 C 221.222 380.000,220.000 379.633,220.000 378.500 C 220.000 377.417,218.889 377.000,216.000 377.000 C 213.800 377.000,212.000 376.550,212.000 376.000 C 212.000 375.450,210.875 375.000,209.500 375.000 C 207.944 375.000,207.000 374.433,207.000 373.500 C 207.000 372.567,206.056 372.000,204.500 372.000 C 203.125 372.000,202.000 371.550,202.000 371.000 C 202.000 370.450,200.875 370.000,199.500 370.000 C 197.944 370.000,197.000 369.433,197.000 368.500 C 197.000 367.567,196.056 367.000,194.500 367.000 C 192.944 367.000,192.000 366.433,192.000 365.500 C 192.000 364.675,191.325 364.000,190.500 364.000 C 189.675 364.000,189.000 363.550,189.000 363.000 C 189.000 362.450,187.875 362.000,186.500 362.000 C 185.125 362.000,184.000 361.518,184.000 360.929 C 184.000 359.544,181.456 357.000,180.071 357.000 C 179.482 357.000,179.000 356.325,179.000 355.500 C 179.000 354.675,178.116 354.000,177.034 354.000 C 174.976 354.000,169.000 348.818,169.000 347.034 C 169.000 346.465,168.535 346.000,167.966 346.000 C 166.182 346.000,161.000 340.024,161.000 337.966 C 161.000 336.884,160.325 336.000,159.500 336.000 C 158.675 336.000,158.000 335.518,158.000 334.929 C 158.000 333.544,155.456 331.000,154.071 331.000 C 153.482 331.000,153.000 329.875,153.000 328.500 C 153.000 327.125,152.550 326.000,152.000 326.000 C 151.450 326.000,151.000 325.325,151.000 324.500 C 151.000 323.675,150.325 323.000,149.500 323.000 C 148.567 323.000,148.000 322.056,148.000 320.500 C 148.000 318.944,147.433 318.000,146.500 318.000 C 145.567 318.000,145.000 317.056,145.000 315.500 C 145.000 314.125,144.550 313.000,144.000 313.000 C 143.450 313.000,143.000 311.875,143.000 310.500 C 143.000 308.944,142.433 308.000,141.500 308.000 C 140.567 308.000,140.000 307.056,140.000 305.500 C 140.000 304.125,139.550 303.000,139.000 303.000 C 138.450 303.000,138.000 301.200,138.000 299.000 C 138.000 296.111,137.583 295.000,136.500 295.000 C 135.367 295.000,135.000 293.778,135.000 290.000 C 135.000 287.250,134.550 285.000,134.000 285.000 C 133.436 285.000,133.000 282.167,133.000 278.500 L 133.000 272.000 144.500 272.000 C 154.056 272.000,156.000 271.746,156.000 270.500 C 156.000 269.567,156.944 269.000,158.500 269.000 C 160.500 269.000,161.000 268.500,161.000 266.500 C 161.000 264.500,160.500 264.000,158.500 264.000 C 156.944 264.000,156.000 263.433,156.000 262.500 C 156.000 261.675,155.518 261.000,154.929 261.000 C 153.544 261.000,151.000 258.456,151.000 257.071 C 151.000 256.482,150.325 256.000,149.500 256.000 C 148.675 256.000,148.000 255.550,148.000 255.000 C 148.000 254.450,147.325 254.000,146.500 254.000 C 145.675 254.000,145.000 253.491,145.000 252.868 C 145.000 252.246,143.425 250.251,141.500 248.435 C 139.575 246.620,138.000 244.654,138.000 244.067 C 138.000 243.480,137.518 243.000,136.929 243.000 C 135.544 243.000,133.000 240.456,133.000 239.071 C 133.000 238.482,132.325 238.000,131.500 238.000 C 130.567 238.000,130.000 237.056,130.000 235.500 C 130.000 233.944,130.567 233.000,131.500 233.000 C 132.433 233.000,133.000 232.056,133.000 230.500 C 133.000 229.125,133.450 228.000,134.000 228.000 C 134.550 228.000,135.000 226.875,135.000 225.500 C 135.000 223.944,135.567 223.000,136.500 223.000 C 137.583 223.000,138.000 221.889,138.000 219.000 C 138.000 216.800,138.450 215.000,139.000 215.000 C 139.550 215.000,140.000 213.200,140.000 211.000 C 140.000 208.111,140.417 207.000,141.500 207.000 C 142.433 207.000,143.000 206.056,143.000 204.500 C 143.000 203.125,143.450 202.000,144.000 202.000 C 144.550 202.000,145.000 200.875,145.000 199.500 C 145.000 197.944,145.567 197.000,146.500 197.000 C 147.325 197.000,148.000 196.325,148.000 195.500 C 148.000 194.675,148.675 194.000,149.500 194.000 C 150.351 194.000,151.000 193.103,151.000 191.929 C 151.000 189.715,153.164 187.000,154.929 187.000 C 155.518 187.000,156.000 185.875,156.000 184.500 C 156.000 183.125,156.450 182.000,157.000 182.000 C 157.550 182.000,158.000 181.325,158.000 180.500 C 158.000 179.675,158.675 179.000,159.500 179.000 C 160.325 179.000,161.000 178.401,161.000 177.669 C 161.000 176.937,162.125 175.736,163.500 175.000 C 164.875 174.264,166.000 173.063,166.000 172.331 C 166.000 171.599,166.482 171.000,167.071 171.000 C 167.661 171.000,168.786 170.357,169.571 169.571 C 170.357 168.786,171.000 167.661,171.000 167.071 C 171.000 166.482,171.599 166.000,172.331 166.000 C 173.063 166.000,174.264 164.875,175.000 163.500 C 175.736 162.125,176.937 161.000,177.669 161.000 C 178.401 161.000,179.000 160.325,179.000 159.500 C 179.000 158.675,179.675 158.000,180.500 158.000 C 181.325 158.000,182.000 157.550,182.000 157.000 C 182.000 156.450,183.125 156.000,184.500 156.000 C 185.875 156.000,187.000 155.518,187.000 154.929 C 187.000 153.164,189.715 151.000,191.929 151.000 C 193.103 151.000,194.000 150.351,194.000 149.500 C 194.000 148.675,194.675 148.000,195.500 148.000 C 196.325 148.000,197.000 147.325,197.000 146.500 C 197.000 145.567,197.944 145.000,199.500 145.000 C 200.875 145.000,202.000 144.550,202.000 144.000 C 202.000 143.450,203.125 143.000,204.500 143.000 C 206.056 143.000,207.000 142.433,207.000 141.500 C 207.000 140.417,208.111 140.000,211.000 140.000 C 213.200 140.000,215.000 139.550,215.000 139.000 C 215.000 138.450,216.125 138.000,217.500 138.000 C 219.056 138.000,220.000 137.433,220.000 136.500 C 220.000 135.367,221.222 135.000,225.000 135.000 C 227.750 135.000,230.000 134.550,230.000 134.000 C 230.000 133.436,232.833 133.000,236.500 133.000 L 243.000 133.000 243.000 140.500 " stroke="none" fill="#000000" fill-rule="evenodd"></path></g></svg>