<svg viewBox="0 0 2000 2000" xmlns="http://www.w3.org/2000/svg">
  <g fill="none" fill-rule="evenodd">
    <circle fill="#181A21" cx="1000" cy="1000" r="1000"/>
    <g fill-rule="nonzero">
      <g transform="translate(521.761224 647.163646)" fill="#FFF">
        <circle cx="127.677465" cy="127.857431" r="127.402422"/>
        <circle transform="rotate(-84.35 118.959399 442.183258)" cx="118.959399" cy="442.183258" r="101.921735"/>
        <circle cx="178.638434" cy="671.137759" r="93.276773"/>
        <circle cx="297.395692" cy="858.146314" r="76.441453"/>
        <circle cx="441.633434" cy="951.423088" r="67.796289"/>
        <circle cx="772.879731" cy="908.652275" r="42.315804"/>
        <circle cx="857.51134" cy="824.020666" r="25.480484"/>
        <circle cx="899.827145" cy="747.579212" r="16.83532"/>
        <circle cx="628.186981" cy="968.258408" r="50.960969"/>
      </g>
      <g transform="translate(927.718923 339.757764)" fill="#0693A8">
        <circle transform="rotate(-80.78 146.30238 1007.732187)" cx="146.30238" cy="1007.73219" r="127.402459"/>
        <circle cx="421.068062" cy="855.691306" r="101.921938"/>
        <circle cx="588.511245" cy="688.248122" r="93.276773"/>
        <circle cx="689.068157" cy="491.229377" r="76.441453"/>
        <circle cx="696.348295" cy="319.236107" r="67.796289"/>
        <circle cx="491.594403" cy="55.786099" r="42.315804"/>
        <circle cx="375.567197" cy="25.755528" r="25.480484"/>
        <circle cx="288.205536" cy="28.030571" r="16.83532"/>
        <circle cx="615.811764" cy="149.972889" r="50.960969"/>
      </g>
      <g transform="translate(313.457245 367.058283)" fill="#E31B29">
        <circle cx="1048.52499" cy="346.536626" r="127.402422"/>
        <circle transform="rotate(-79.1 789.618699 168.633513)" cx="789.618699" cy="168.633513" r="101.922154"/>
        <circle cx="564.850796" cy="94.006825" r="93.276773"/>
        <circle cx="343.716592" cy="92.186791" r="76.441453"/>
        <circle cx="186.738607" cy="162.258123" r="67.796289"/>
        <circle cx="42.500865" cy="463.018841" r="42.315804"/>
        <circle cx="67.526341" cy="580.411072" r="25.480484"/>
        <circle cx="108.477119" cy="657.762543" r="16.83532"/>
        <circle cx="71.16641" cy="309.680925" r="50.960969"/>
      </g>
    </g>
  </g>
</svg>
