<svg viewBox="0 0 1633 1954" xmlns="http://www.w3.org/2000/svg">
  <g fill="#0084C9" fill-rule="nonzero">
    <path d="M1625.843476 880.004348c-14.74782-100-53.23478-196.76-111.50869-279.855217-11.86957-16.907827-24.82174-33.454783-38.48696-49.282174-22.30435-26.259131-47.12609-50.72087-73.38696-73.379131-15.82174-13.670869-32.36956-26.25913-49.27826-38.132174-83.09565-58.272174-179.85652-96.760391-279.85652-111.511348-20.143478-2.876134-41.008695-5.03323-62.230434-6.113578-11.869566-.720832-23.739131-1.078551-34.891305-1.078551-23.382608 0-46.404348 1.078551-69.065217 3.59876-20.504348 2.157109-41.365217 5.394543-61.869565 9.349239-95.686087 19.42287-187.411305 61.15374-265.469566 120.143304-16.546956 12.592174-32.374347 25.901305-47.842608 39.929566-25.538261 23.742608-49.28087 49.282608-70.503044 75.897391-12.590434 16.190869-25.180434 33.09913-36.690434 51.080435-51.080435 79.140434-84.17374 166.188261-97.842566 259.353478-2.877908 20.143478-5.035008 41.004348-6.115356 62.230435-.719033 11.513043-.719032 23.382608-.719032 34.534782 0 23.382609 1.078554 46.404348 3.596962 69.06087 2.158905 20.508696 5.39634 41.369565 9.352818 61.869565 17.986608 88.491304 53.596739 171.226087 105.755434 245.330434 12.23087 17.26522 24.82087 33.81304 38.49 49.63913 22.302609 26.26087 47.12174 50.71739 73.38087 73.38261 15.467826 13.3087 32.374348 26.25652 49.280435 38.12609 74.1 52.16087 156.834782 87.76956 245.326087 105.75652 20.504348 4.31739 41.365217 7.19565 62.226087 9.35217 22.304347 2.51739 45.686956 3.6 69.069565 3.6 11.152174 0 23.021739-.36087 34.530435-.72174 20.865217-1.07826 41.726087-3.23913 62.230434-6.11304 92.804348-13.66957 180.217392-46.76522 259.35217-97.84348 17.62609-11.51304 34.89566-23.73913 51.07827-36.6913 26.62173-21.22174 52.52173-44.96522 75.9-70.50435 14.03043-15.46522 27.7-31.29565 39.93043-47.83913 58.9913-78.06087 100.71739-169.786957 120.14348-265.108697 4.31739-20.504347 7.19565-41.365217 9.35217-62.234782 2.51739-22.656522 3.59565-45.678261 3.59565-69.06087 0-11.152174-.36087-22.665217-.71739-34.534782-1.07826-20.86087-3.23913-41.726087-6.11739-62.230435zm-92.80435 155.756522c-1.79565 17.630434-4.67826 35.608695-8.26956 53.23913-16.54783 81.652174-52.16087 159.713044-102.52174 226.256522-10.7913 14.030432-22.3 27.700002-34.17391 41.008692-20.13913 21.94348-42.08696 42.08696-64.74783 60.07392-14.026087 11.14782-28.417391 21.58261-43.882608 31.2913-67.265218 43.53044-141.726087 71.58696-221.226087 83.45652-17.265218 2.51739-35.252174 4.31739-52.873913 5.39565-9.356522 0-19.430435.35653-29.139131.35653-19.786956 0-39.569565-1.07826-58.991304-3.23479-17.630435-1.8-35.613044-4.67826-53.23913-8.27391-75.539131-15.46956-146.044348-45.68261-209.353044-89.92609-14.749565-10.43478-28.777826-21.22608-42.086956-32.73478-22.302609-19.06522-43.524783-40.28696-62.59-62.5913-11.51-13.3087-22.302609-27.700003-32.733914-42.08696-44.243913-63.308695-74.820869-133.813043-89.927826-209.352173-3.596956-17.269566-6.115217-35.247827-7.914782-52.878261-2.156957-19.426087-3.237391-39.208696-3.237391-58.991305 0-9.713043.359565-19.426087.71913-29.495652 1.080435-17.986956 2.877826-35.613043 5.396087-52.882609 11.871304-79.495652 39.928261-153.597391 83.454782-221.218695 9.712174-15.112174 20.503044-29.857826 31.293914-43.528696 18.346086-23.019565 38.49-44.962609 60.431304-65.106522 12.949565-11.869565 26.618696-23.383043 40.648696-34.172174C705.69913 479.283478 781.599999 444.75 864.330434 427.847391c17.626087-3.598695 35.252174-6.116956 52.882609-7.914782 19.421739-2.156957 39.204348-3.237391 58.991304-3.237391 9.708696 0 19.426087.361304 29.491305.71913 17.986956 1.07826 35.617391 2.879565 52.886956 5.394348 85.604348 12.592174 167.982609 45.685652 238.843478 95.326087 14.386957 10.071739 28.77826 21.223913 42.08696 32.732174 22.3 19.064782 43.52608 40.28913 62.5913 62.591739 11.5087 13.666956 22.66087 27.698695 32.73478 42.086521 49.63913 70.86087 82.73479 153.237392 95.32609 238.846087 2.51304 17.269566 4.31304 35.256522 5.39131 52.882609.35652 10.069565.71739 19.782609.71739 29.495652 0 19.782609-1.07826 39.565218-3.23479 58.991305z"/>
    <path d="M207.68326 935.065217c26.258913 2.878261 49.999783-15.826087 53.237174-42.082609 14.028261-119.786957 58.273913-234.895652 128.057826-333.096087 10.431739-14.747391 21.943478-29.494783 33.093478-43.165652 19.065218-23.023478 39.928261-45.320435 61.871305-65.466087 13.30913-12.23087 26.977826-24.461304 41.006521-35.613478 97.485218-78.416087 214.028696-130.576522 337.411305-149.999566 26.260869-4.316087 43.886956-28.775652 39.926087-55.034695-3.956522-23.742479-24.1-40.650525-47.482609-40.650525-2.513043 0-5.034783.361316-7.552174.72263-139.569565 22.30259-271.941739 80.930851-382.374348 170.143025-15.827826 12.588261-31.294348 26.259131-46.402608 40.285652-24.821305 23.021739-48.202609 48.205653-70.143479 74.463044-12.95 15.468261-25.540434 32.014782-37.411304 48.56-79.496522 111.512609-129.49626 242.086522-145.323982 377.699565-2.877931 26.256522 15.827721 50 42.086808 53.234783zM1516.121739 364.52913c-15.104348-13.309131-30.934783-26.618696-47.478261-38.847392-115.831304-87.77087-253.241739-142.80726-397.125652-159.713527-1.799565 0-3.596957-.359517-5.396522-.359517-24.100174 0-44.964739 17.984827-47.481352 42.446305-2.87793 26.258913 15.825917 49.999783 42.085004 53.237174 126.979392 14.747392 248.20287 63.309131 350.361566 141.007826 14.74913 11.150435 28.777391 22.662174 41.726956 34.172174 22.664783 19.783913 43.882174 41.367826 63.669131 63.668261 17.630434 19.786087 47.83913 21.943478 67.626087 4.317826 19.782608-17.626956 21.93913-47.842608 4.313043-67.626522-22.295652-25.53826-46.76087-49.640434-72.3-72.302608zM436.034782 1588.665217c15.106956 13.313044 31.294348 26.621739 47.481304 38.852174 106.115217 80.573913 232.014348 134.173913 363.31 155.034783 26.256522 3.956522 50.721739-13.669565 55.034783-39.926087 4.317391-26.26087-13.665218-50.721739-39.930435-55.039131-115.826087-18.343478-226.617391-65.826086-320.499565-136.691304-14.389566-10.791304-28.777392-22.3-41.727392-34.173913-22.662174-19.782609-43.884347-41.363913-63.668695-63.666522-11.871305-13.30913-23.38087-27.337391-34.173913-42.086521-71.221739-93.884348-118.345653-204.678261-136.69-320.503783-3.956087-23.382913-24.10174-40.290996-47.483044-40.290996-2.51826 0-5.034956.361316-7.553348.722626-26.259087 4.315979-43.884382 28.7775-39.927904 55.034761 20.86273 131.295652 74.459513 257.196522 155.036035 363.311305 12.230869 16.548695 25.54 32.374782 38.849565 47.47913 22.302609 25.182609 46.762174 49.643478 71.942609 71.943478zM1537.413043 1453.73913c-12.947826 0-25.53913 5.035044-35.252174 15.10687-20.504347 21.943131-42.447826 42.446175-65.46826 61.870957-13.668696 11.51-28.417826 22.662174-43.165218 33.453044-98.201739 69.783913-213.31 114.029565-332.736087 128.057826-26.259087 2.878261-45.322435 26.978261-42.08499 53.237391 3.237447 26.25913 26.97812 45.324348 53.237164 42.086956 135.611305-15.827826 266.187826-65.827826 377.699131-145.323913 16.905217-12.230869 33.453043-24.820869 48.91826-37.770869 26.26087-21.581739 51.082609-45.322609 74.104348-70.143478 17.986957-19.424783 17.26087-49.640174-2.156521-67.986305-9.356522-8.272487-21.226087-12.588478-33.095653-12.588478z"/>
    <path d="M1507.073912 1679.305913c-129.85652 98.201913-283.813042 158.273652-445.682607 173.741913-18.347826 1.797391-36.691305 2.877826-54.678261 3.596956-30.934783 1.078261-61.513044.359131-91.008696-1.44-18.343478-1.078695-36.691304-2.876087-54.673913-5.394782-157.916087-20.503044-307.196522-84.173479-432.376522-183.453913-8.633913-7.553422-19.065217-10.79087-29.496521-10.79087-14.028261 0-28.058392 6.115391-37.77074 17.984826-16.546739 20.86274-12.949795 51.079957 7.555218 67.626913 138.489435 110.43087 304.316391 180.935652 479.492913 203.597826 20.147826 2.516522 40.291304 4.675218 60.434782 6.115218 32.373914 2.156956 66.908696 2.876087 100.717392 1.797826 20.147826-.719131 40.291304-2.159131 60.434782-3.956522 180.217392-17.266087 351.078263-84.173913 494.965213-192.806957 21.22609-15.826086 25.18261-46.043478 9.35218-67.265652-15.82609-21.224043-46.04348-25.180521-67.26522-9.352782zM103.685218 1091.160869c-2.518261-17.986956-4.317826-36.334782-5.396522-54.673913C96.85087 1016.7 96.13174 996.195652 96.13174 975.691304c0-10.069565 0-20.5.357826-30.217391.72087-17.982609 1.79913-36.330435 3.598695-54.669565 15.466522-161.876522 75.54-315.830435 173.74-445.689566 15.827826-21.223913 11.871305-51.079956-9.350869-67.265391-8.633913-5.394557-18.705652-8.632-28.777826-8.632-14.387826 0-28.777392 6.473087-38.489566 19.065174C88.576522 532.164782 21.670522 703.032174 4.764261 882.526087c-1.799378 20.143478-3.237443 40.291304-3.958274 60.434782-.359514 11.152174-.71903 22.3-.71903 33.447826 0 22.665218.719035 45.326087 2.158896 67.269566 1.438065 20.143478 3.237452 40.286956 6.115365 60.434782 23.021652 175.178261 93.524435 341.004348 203.597913 479.495648 16.546522 20.86087 46.762174 24.1 67.624783 7.55218 20.864782-16.54783 24.102173-46.76087 7.555217-67.62609-99.282174-124.81739-162.95087-274.460868-183.453913-432.373912zM411.913478 301.243043C540.33087 194.047826 695.366958 125.703478 860.834783 104.12c17.986956-2.518261 36.330435-4.316087 54.673913-5.396522 29.856522-2.156956 60.795652-2.51826 91.373913-1.437826 17.978261.71913 36.330435 1.797391 54.673913 3.596957 169.421739 16.187391 329.134783 80.936087 462.586953 187.050869 20.86957 16.546957 51.08261 12.95 67.62609-7.555217 16.54783-20.862609 12.95652-51.078261-7.55217-67.624783-147.83913-117.626956-325.539134-189.569609-513.308699-207.554435-20.143478-1.79937-40.286957-3.237434-60.434783-3.95647C998.965218.52174 987.452174.52174 976.304348.52174c-22.66087 0-45.326087.72083-67.269565 2.158896C888.891305 4.1187 868.752174 5.918087 848.604348 8.796c-183.452609 24.100217-355.754783 99.640087-498.200565 218.704869-20.505009 16.907827-23.021609 47.123479-6.115348 67.626522 16.90626 20.503478 47.122 23.021739 67.625043 6.115652zM760.94913 975.608697c-25.687564 0-46.514346 20.826782-46.514346 46.516086v114.834783c0 25.689565 20.826782 46.516087 46.514347 46.516087 25.68913 0 46.516087-20.826522 46.516087-46.516087v-114.834783c0-25.689304-20.826957-46.516086-46.516087-46.516086zM939.646521 831.695654c-25.689304 0-46.51609 20.828608-46.51609 46.516086v258.743913c0 25.68913 20.826786 46.516087 46.51609 46.516087 25.687391 0 46.516087-20.826957 46.516087-46.516087V878.21174c0-25.687478-20.828696-46.516086-46.516087-46.516086zM1118.342174 654.347825c-25.687478 0-46.516087 20.82861-46.516087 46.516088v436.088261c0 25.686956 20.828609 46.513043 46.516087 46.513043 25.68913 0 46.516087-20.826087 46.516087-46.513043V700.863913c0-25.687478-20.826957-46.516088-46.516087-46.516088z"/>
  </g>
</svg>
