<svg viewBox="0 0 2000 2000" xmlns="http://www.w3.org/2000/svg">
  <g fill="#373635" fill-rule="nonzero">
    <path d="M1000.864407 759.084746c87.440678 0 164.008475 46.813559 206.457627 116.610169l.008475-.008475v.008475l99.872881-98.466102 26.559325-26.177966 79.72034-78.525424 85.57627-80.881355 24.9661-23.584746c-16.19492-19.355932-33.74576-37.669492-52.22881-55.101695-92.37289-87.135593-210.949157-149.20339-333.601699-174.745763-21.025424-4.372881-42.169492-7.686441-63.31356-9.864407V196.728813h-126.88983v131.237288C622.31356 356.338983 382.669492 596.940678 340.601696 903.68644c-1.449153 10.576272-2.669492 21.228814-3.644068 31.957628-1.949153 21.457627-2.949153 43.203389-2.949153 65.194915 0 21.991525 1 43.737288 2.949153 65.194915.974576 10.728814 2.194915 21.381356 3.644067 31.957627 42.067797 306.720339 281.711865 547.364409 607.389831 575.788139v129.72881h126.88983v-130.08475c10.576272-1.07627 21.118644-2.40678 31.627119-4.02542 157.601695-24.04237 306.61864-107.38983 410.38136-227.59322l-107.27967-104.61017-107.618639-105.40678-64.686441-64.398304-34.237288-34.09322c0 .008475-.008475.008475-.008475.008475v-.008475.008475l-.008474-.008475c-8.11017 12.330508-17.322034 23.881356-27.491526 34.508475-44.050847 46.042369-106.050847 74.796609-174.635593 74.796609-133.279661 0-241.813559-108.432203-241.813559-241.771186 0-133.271186 108.474576-241.745762 241.754237-241.745762m-294.915254 679.355928c-14.042373-9.5-27.601695-19.65254-40.644068-30.41525-97.79661-80.75424-166.110169-195.98305-186.169491-326.898306-2.677966-17.457627-4.491526-35.194915-5.40678-53.161017-.457627-8.98305-.686441-18.025423-.686441-27.127118 0-9.093221.228814-18.135593.686441-27.118644.915254-17.966102 2.728814-35.694916 5.40678-53.152543 20.059322-130.898305 88.372881-246.135593 186.169491-326.88983 13.042373-10.771187 26.601695-20.923729 40.644068-30.423729 84.254237-56.983051 185.762712-90.288136 294.915254-90.288136 29.90678 0 59.228814 2.51695 87.762712 7.347458 60.652542 10.262712 117.711864 31.067797 169.5 60.254237 21.313559 12.025424 41.788136 25.398305 61.161017 40.152543l-106.864407 105.18644c-60.432203-40.940678-133.18644-64.898305-211.550847-64.898305h-.016949c-58.90678 0-114.720339 13.474577-164.525424 37.508475-5.533898 2.669491-10.991526 5.474576-16.372881 8.398305-91.483051 49.762712-160.364407 136.025424-186.940678 239.110169-1.567797 6.059323-2.983051 12.186441-4.245763 18.355933-2.533898 12.355932-4.474576 24.923729-5.771187 37.677966-1.29661 12.754237-1.966101 25.694915-1.966101 38.779661 0 13.09322.669491 26.025424 1.966101 38.779661 1.296611 12.754237 3.237289 25.322034 5.771187 37.669491 1.262712 6.177966 2.677966 12.296611 4.245763 18.364407 26.576271 103.067792 95.457627 189.322032 186.940678 239.059322 5.381355 2.94068 10.838983 5.73729 16.372881 8.39831 49.805085 24.03389 105.618644 37.50847 164.525424 37.50847h.016949c47.050847 0 92.042373-8.63559 133.584746-24.39831 24.923728-9.44915 48.601694-21.4661 70.728813-35.72033l56.59322 56.18644 50.296611 49.95762c-27.288136 20.01695-56.559322 37.5-87.449153 52.0678-37.059322 17.48305-76.466102 30.77119-117.618644 39.23729-34.279661 7.05932-69.779661 10.77118-106.144068 10.77118-109.152542.00848-210.661017-33.30508-294.915254-90.27966"/>
    <path d="M1000 1872.88136c482.07906 0 872.88136-390.8023 872.88136-872.88136 0-482.079061-390.8023-872.881356-872.88136-872.881356-482.079061 0-872.881356 390.802295-872.881356 872.881356 0 482.07906 390.802295 872.88136 872.881356 872.88136zM1000 2000C447.71525 2000 0 1552.28475 0 1000S447.71525 0 1000 0s1000 447.71525 1000 1000-447.71525 1000-1000 1000z"/>
  </g>
</svg>
