<svg viewBox="0 0 2000 2000" xmlns="http://www.w3.org/2000/svg">
  <defs>
    <linearGradient x1="10.569%" y1="7.381%" x2="81.779%" y2="85.694%" id="a">
      <stop stop-color="#5FE2EC" offset="0%"/>
      <stop stop-color="#00BDCD" offset="100%"/>
    </linearGradient>
  </defs>
  <g fill-rule="nonzero" fill="none">
    <circle cx="1000" cy="1000" r="1000" fill="url(#a)"/>
    <path d="M1336.56923 674.984615l-28 28c-70-58-156.03077-88.015384-246.03077-88.015384-204.030768 0-372.061537 158.030769-386.061537 360.092307h-40c14-226.061538 200.015385-400.107692 426.061537-400.107692 100 0 196.03077 36 274.03077 100.030769zm-274.03077 42c92 0 178.01539 44.015385 232.03077 118.03077l28-28c-62-82.015385-158.01538-130.03077-260.03077-130.03077-180.030768 0-326.061537 146.03077-326.061537 324.076925 0 180.04615 146.030769 326.09231 326.061537 326.09231 102 0 198.03077-48.01539 260.03077-130.03077l-28-28c-54.03955 74.15829-140.27171 118.01765-232.03077 118.01538-158.030768 0-286.046152-128.03077-286.046152-286.07692 0-156.030771 128.015384-284.076925 286.046152-284.076925zm306.04616-12l-28 28c10 10 18 20.015385 26 30.015385l28-28c-8-10-16-20-26-30v-.015385zM634.461538 1029.09231c14 226.06154 200.03077 400.10769 426.076922 400.10769 100 0 198.03077-36.01538 274.03077-100.03077l-28-28c-70 58-156.03077 88-246.03077 88-204.030768 0-372.061537-158.03077-386.061537-360.07692h-40.015385zm706.107692 242.06154l28 28c10-10 18-20 26-30l-28-28c-8 10-16 20-26 30zM1062.53846 1485.2c-266.046152 0-484.076922-218.06154-484.076922-484.13846 0-266.06154 218.03077-484.123078 484.076922-484.123078 144.14708-.109249 280.72455 64.516977 372.04616 176.046153l28-28c-100-120.046153-246.03077-188.061538-400.04616-188.061538-288.046152 0-524.076922 234.061538-524.076922 524.153843 0 288.06154 234.03077 524.12308 524.076922 524.12308 156.01539 0 300.04616-68 400.04616-188.04615l-28-28c-92 114.01538-228.03077 176.04615-372.04616 176.04615z" fill="#FFF"/>
  </g>
</svg>
