<svg viewBox="0 0 2000 2000" xmlns="http://www.w3.org/2000/svg">
  <g fill="none" fill-rule="evenodd">
    <circle fill="#0F1429" cx="1000" cy="1000" r="1000"/>
    <g fill="#FFF" fill-rule="nonzero">
      <path d="M731.512371 1333.34561l-43.158869 26.947173L367.906067 847.06088l76.1199 34.025728c113.805597 50.8713 202.845254 66.757695 266.472558 49.290654 103.579814-28.434851 222.710028-141.378703 283.101989-277.72241l7.711153-14.690077c13.346991 27.23673 25.444135 42.059075 30.100573 54.056476-68.533075 141.097346-193.213862 256.062733-307.444231 287.421387-61.284347 16.82385-137.024498 9.011604-227.544772-22.618199l235.089134 376.521171zM1293.062331 979.808807c-78.055967-13.870404-147.507225-58.393837-202.994984-126.946772 9.496163-24.435084 11.837237-26.306033 21.981256-50.513698l6.933391 4.386932c50.747201 69.685701 111.480969 110.272041 182.982278 122.977695 72.626785 12.905649 156.197705-2.261018 250.924205-46.313008l75.69098-35.199629-308.856169 510.770443-21.360463-11.64878c-.680857-.371301-2.246181-1.191148-4.650335-2.395838-4.15642-2.082728-9.062013-4.423936-14.670886-6.960052-16.178381-7.315238-34.631963-14.655819-54.989704-21.516322-48.172999-16.234168-99.070638-27.166582-150.822625-30.363455-74.006989-4.57163-140.605632-2.185854-199.777001 7.09047-9.977355 1.564154-11.230249 1.625973-20.785169 3.581631l-22.921508-46.437362c2.265655-.463724 8.747127-2.628748 11.032996-3.071825 69.244517-13.421852 147.764631-17.371833 235.587748-11.946739 56.564931 3.494183 111.770779 15.351966 163.934333 32.93094 22.023497 7.421858 42.039146 15.383807 59.703838 23.371098.174355.078837 67.648032-110.957325 202.421035-333.108487-75.50776 25.467175-145.326835 32.691908-209.363216 21.312758z"/>
    </g>
  </g>
</svg>
