<svg width="60" height="39" viewBox="0 0 60 39" xmlns="http://www.w3.org/2000/svg" xmlns:xlink="http://www.w3.org/1999/xlink">
  <path d="M38.183 22.917a3.847 3.847 0 1 0 0-7.694H16.288a3.847 3.847 0 1 0 0 7.694h21.895z" fill="#000"/>
  <path d="M40.585.004V0H28.848a3.847 3.847 0 1 0 0 7.695h11.586c6.28 0 11.373 5.091 11.373 11.372 0 6.28-5.092 11.372-11.373 11.372v.006H28.848a3.847 3.847 0 1 0 0 7.695h11.737v-.004c10.462-.082 18.919-8.585 18.919-19.066 0-10.482-8.457-18.985-18.92-19.066M14.905 7.695a3.847 3.847 0 0 0 0-7.695H3.847a3.847 3.847 0 1 0 0 7.695h11.058z" fill="#000"/>
</svg>
