<svg viewBox="0 0 1984 1272" xmlns="http://www.w3.org/2000/svg">
  <g fill="#000" fill-rule="evenodd">
    <path d="M1353 .533333V.4H961.766667c-70.830519 0-128.25 57.41948-128.25 128.25 0 70.830519 57.419481 128.25 128.25 128.25h386.200003c209.33333 0 379.1 169.7 379.1 379.066667 0 209.333333-169.73334 379.066663-379.1 379.066663v.2H961.766667c-70.830519 0-128.25 57.41948-128.25 128.25s57.419481 128.25 128.25 128.25H1353V1271.6c348.73333-2.73333 630.63333-286.16667 630.63333-635.533333 0-349.4-281.9-632.833334-630.66666-635.533334H1353zM497 256.9c70.830519 0 128.25-57.419481 128.25-128.25C625.25 57.81948 567.830519.4 497 .4H128.4C57.56948.4.15 57.81948.15 128.65c0 70.830519 57.41948 128.25 128.25 128.25H497z" fill-rule="nonzero"/>
    <path d="M1272.93333 764.3c70.82132 0 128.23334-57.412019 128.23334-128.233333 0-70.821315-57.41202-128.233334-128.23334-128.233334H543.1c-70.821314 0-128.233333 57.412019-128.233333 128.233334C414.866667 706.887981 472.278686 764.3 543.1 764.3h729.83333z"/>
  </g>
</svg>
