<svg viewBox="0 0 1998 1998" xmlns="http://www.w3.org/2000/svg">
  <g fill-rule="nonzero" fill="none">
    <path d="M998.887122 1997.77424C447.216998 1997.77424 0 1550.55725 0 998.887122 0 447.216998 447.216998 0 998.887122 0c551.670128 0 998.887118 447.216998 998.887118 998.887122 0 551.670128-447.21699 998.887118-998.887118 998.887118zm0-32.75039c533.582578 0 966.136728-432.55415 966.136728-966.136728 0-533.582579-432.55415-966.136725-966.136728-966.136725-533.582579 0-966.136725 432.554146-966.136725 966.136725 0 533.582578 432.554146 966.136728 966.136725 966.136728z" fill="#FFCE45"/>
    <path fill="#FFCE45" d="M998.892262 229.912862L1751.5316 982.5522l-752.639338 752.639338L246.252924 982.5522z"/>
    <path fill="#FEBE44" d="M998.887122 1228.1399L245.627981 982.511924l753.259141-752.623212 753.259138 752.623212z"/>
    <path fill="#FFF" d="M507.631161 933.386328h343.879173L998.887122 769.63434l163.751988 163.751988h343.87917l-507.631158-548.55326-491.255961 548.55326"/>
    <path fill="#D9A547" opacity=".42" d="M998.887122 1735.13514V229.888712l752.623208 752.623212-752.623208 752.623216"/>
  </g>
</svg>
