<svg viewBox="0 0 2000 2000" xmlns="http://www.w3.org/2000/svg">
  <defs>
    <linearGradient x1="29.791727%" y1="18.263909%" x2="78.193271%" y2="94.279784%" id="a">
      <stop stop-color="#464645" offset="0%"/>
      <stop stop-color="#030303" offset="100%"/>
    </linearGradient>
  </defs>
  <g fill="none" fill-rule="evenodd">
    <circle fill="#010100" fill-rule="nonzero" cx="1000" cy="1000" r="1000"/>
    <circle fill="url(#a)" fill-rule="nonzero" cx="1007.28421" cy="1000" r="578.189474"/>
    <g fill="#FFF" fill-rule="nonzero">
      <path d="M749.094737 843.621053h152.715789v-58.147369h145.473685c28.08421 0 80 7.242105 116.336842 50.905263h181.852631C1309.094737 734.526316 1167.2 640 1063.957895 640H749.094737M749.094737 1127.284211h152.715789v58.189473h145.473685c28.08421 0 80-7.28421 116.336842-50.947368h181.852631c-36.378947 101.852631-178.273684 196.378947-281.515789 196.378947H749.094737"/>
    </g>
    <g fill="#E7B86A">
      <path d="M631.157895 173.51579l109.221052 233.010526s80-43.705263 138.357895-43.705263l-50.989473-254.863158s-109.221053 7.28421-196.589474 65.557895M1135.284208 104.336843l-38.357892 254.48421s90.863162 8.084211 139.368422 40.378947l98.94737-240.336842s-94.94737-54.526315-199.9579-54.526315M1595.242108 313.768421l-166.56842 196.126316s73.01052 54.736842 97.22105 107.705263l210.52631-152.252631s-51.87368-96.336842-141.17894-151.578948M1867.957898 744.084211l-246.44211 74.147368s31.57895 85.6 23.11579 143.157895l259.57895-13.347368s8.67368-109.052632-36.25263-203.957895M1868.378948 1247.705262l-246.4-74.18947s-21.05263 88.8-59.83158 132.16842l223.83158 132.16842s67.45263-86.27368 82.4-190.14737M1604.210528 1677.389472l-172.63158-191.07368s-63.83158 65.22105-119.53684 82.23158l123.28421 228.8421s102.27368-38.73684 168.88421-120M1140.589478 1895.031582l-37.431583-254.61053s-89.305263 18.69474-145.094737 1.89474l-24.715789 258.73684s106.652631 24.54737 207.242109-6.02105M633.010526 1825.726312l106.694737-234.14736s-85.178947-32.67369-122.905263-77.05264l-161.094737 203.9579s76.336842 78.4421 177.305263 107.2421M252.631579 1491.115792l215.326316-140.88421s-54.736842-73.17895-62.694737-130.86316L160 1305.684212s22.568421 107.11579 92.631579 185.43158M113.68421 999.410527l256.842106-5.978948s-7.663158-90.821052 15.789474-144.042105l-253.473685-56.042105s-37.305263 102.736842-19.157894 206.063158M250.778947 509.136843l217.51579 136.926315s43.747368-80 92.631579-111.368421L380.673684 347.957895S292.8 413.010527 250.778947 509.136843" fill-rule="nonzero"/>
      <path d="M751.042889 874.152939h85.213413c16.868269 0 29.446573.702834 37.735291 2.108523 8.288719 1.40569 15.704829 4.338204 22.248554 8.797631 6.543724 4.459427 11.996747 10.397163 16.35923 17.813384 4.362483 7.416222 6.543692 15.729051 6.543692 24.938738 0 9.985239-2.690158 19.146316-8.070554 27.483507-5.380396 8.33719-12.675328 14.589989-21.885014 18.758584 12.990505 3.780818 22.975595 10.227503 29.955568 19.340245 6.979973 9.112743 10.469907 19.824902 10.469907 32.136799 0 9.694407-2.253915 19.122077-6.761815 28.283292-4.507899 9.161214-10.663755 16.480382-18.467753 21.957722-7.803998 5.47734-17.425553 8.846096-28.864953 10.106369-7.173861.775553-24.478119 1.260266-51.913291 1.454154h-72.562275V874.152939zm43.042953 35.481353v49.295814h28.210584c16.771324 0 27.192656-.242356 31.264307-.727077 7.367749-.872496 13.16007-3.41724 17.377137-7.634307 4.217068-4.217067 6.325569-9.767032 6.325569-16.650061 0-6.592197-1.817674-11.948277-5.453076-16.0684-3.635403-4.120123-9.039954-6.616395-16.213815-7.488892-4.265539-.48472-16.52878-.727077-36.790091-.727077h-24.720615zm0 84.777167v57.002829h39.843814c15.511052 0 25.350727-.436242 29.519322-1.308738 6.398309-1.163329 11.608975-3.998901 15.632154-8.5068 4.023179-4.5079 6.034738-10.542577 6.034738-18.104215 0-6.398309-1.551082-11.827095-4.653292-16.286523-3.10221-4.459427-7.585806-7.707005-13.450923-9.74283-5.865116-2.035826-18.588835-3.053723-38.171537-3.053723h-34.754276zm176.091506 92.920428V874.152939h158.06652v36.063015H1013.2203v47.259998h107.025718v35.917599H1013.2203v58.020737h119.095198v35.917599h-162.13815zm271.88764 0V910.215954h-63.25569v-36.063015h169.40892v36.063015h-63.11028v177.115933h-43.04295z"/>
    </g>
  </g>
</svg>
