<svg viewBox="0 0 2000 2000" xmlns="http://www.w3.org/2000/svg">
  <g fill-rule="nonzero" fill="none">
    <rect fill="#322A3F" width="2000" height="2000" rx="28.05"/>
    <path d="M987.837838 532.702703L603.310811 1334.45946h638.378379c18.50241-.00314 35.22347 11.02904 42.5 28.04054l.67567 1.55405c4.78627 11.1583 4.06085 23.91565-1.95945 34.45946-10.83536 18.87903-30.93525 30.52666-52.70271 30.54054H551.756757c-10.463119-.00501-20.690421-3.10847-29.391892-8.91891l-3.581081-2.36487c-14.73822-9.84376-23.585922-26.39834-23.581081-44.12162-.015803-8.00242 1.786288-15.90389 5.27027-23.10811l453.716216-933.716216c4.741373-9.745712 11.487704-18.380095 19.797297-25.337838 16.244315-13.545127 39.782324-13.771182 56.283784-.54054 3.5864 2.836659 6.49487 6.437616 8.51351 10.54054l460.20271 940.135134c6.2418 12.77488 7.54128 27.40611 3.64865 41.08108-4.38859 15.46066-18.52318 26.11682-34.5946 26.08108h-5.27027c-21.46552-.00061-40.9992-12.40002-50.13513-31.82432l-396.8919-844.121622c-2.50828-5.427632-7.93061-8.913674-13.90972-8.942629-5.979116-.028954-11.434954 3.404409-13.995682 8.807494z" fill="#F4AE95"/>
  </g>
</svg>
