<svg viewBox="0 0 2000 2000" xmlns="http://www.w3.org/2000/svg">
  <path d="M384.81989 753.538762L15.29296 824.941499A1004.57274 1004.57274 0 0 0 0 1000.00873c0 62.49504 5.785572 123.65832 16.748172 182.99597l368.080538 64.29422-.00882-493.760158zm615.175601 163.945834l231.131819-458.323371H768.854848l231.140643 458.323371zM459.141555 768.867067V1231.1504l458.338984-231.14167-458.338984-231.141663zm1056.254885-70.397313l-213.87212-213.881888-217.5763 431.46797 431.44842-217.586082zM642.366023 435.58668L297.648259 297.74659l137.319132 345.222001L642.366023 435.58668zM1702.25453 297.649575l-345.22048 137.346198 207.38982 207.39073 137.83066-344.736928zM1540.84061 1231.1504V768.867067l-458.31253 231.141663 458.31253 231.14167zm161.51093 471.11166l-137.34559-345.22201-207.39863 207.39955 344.74422 137.82246zM1319.28673 370.022458l329.38952-131.04025c-112.68635-96.141457-246.96277-167.702944-394.5654-206.367667l65.17588 337.407917zm680.71307 629.986272c0-62.503851-5.78557-123.658319-16.74817-182.995969l-368.07172-64.294213v493.742512l369.52693-71.40273a1004.36978 1004.36978 0 0 0 15.29296-175.0496zm-370.48825-320.209874l335.8542 58.658548c-39.12317-144.754585-109.89059-276.465117-204.47057-387.282235l-131.38363 328.623687zM642.948108 1565.02169l-207.389813-207.38191-137.821842 344.71929 345.211655-137.33738zm987.030872-245.72913l131.03967 329.39098c96.14103-112.66921 167.69338-246.95504 206.36675-394.55832l-337.40642 65.16734zm18.8472 441.61922l-328.61341-131.38421-58.66711 335.86451c144.73631-39.12334 276.4639-109.89107 387.28052-204.4803zm-133.42092-459.37289l-431.45724-217.58608 217.5763 431.45033 213.88094-213.86425zM752.715219 384.839231h493.749151l-71.40242-369.546204A1005.335737 1005.335737 0 0 0 999.995491 0c-62.521216 0-123.666594 5.785597-182.995162 16.774704l-64.28511 368.064527zM1247.27576 1615.18705H753.53543l71.402421 369.51975a1004.481155 1004.481155 0 0 0 175.066459 15.29303c62.50358 0 123.64896-5.7856 182.99516-16.74825l64.27629-368.06453zm-247.280269-532.65418l-231.131824 458.31455h462.263643l-231.131819-458.31455zM351.182436 239.12332l328.595775 131.375391 58.675927-335.864503C593.700194 73.766365 461.990244 144.525277 351.182436 239.12332zm133.420926 459.364073l431.439603 217.568443-217.56748-431.432692-213.872123 213.864249zm-114.582541-17.762489L238.972332 351.33392C142.84012 464.011954 71.278948 598.297783 32.605577 745.892249l337.415244-65.167345zm114.573722 620.831626l213.863303 213.87307 217.585119-431.47679-431.448422 217.60372zm196.100893 328.42966l-329.371889 131.04025c112.668716 96.14145 246.96277 167.69412 394.565403 206.36766l-65.193514-337.40791zm-310.207183-309.7764l-335.854198-58.65855c39.114345 144.73695 109.890583 276.47394 204.470569 387.28224l131.383629-328.62369z" fill="#3E6492" fill-rule="nonzero"/>
</svg>
