<svg viewBox="0 0 1897 1966" xmlns="http://www.w3.org/2000/svg">
  <g fill-rule="nonzero" fill="none">
    <path d="M1884.94845 797.938144c-13.25298-64.567833-36.93044-126.547079-70.10309-183.505154-68.04124-113.402062-216.49484-278.350516-402.06185-408.247423 0 0-140.20619-90.721649-206.18557-121.649485C965.360825-26.804124 695.257732-49.484536 464.329897 154.639175 76.701031 498.969072-117.113403 979.381443 76.701031 1457.73196c4.123711 10.30928 111.340206 303.09278 754.639175 498.96907 282.474224 8.24742 447.422684-8.24742 628.865984-113.40206 237.1134-136.08248 375.25773-383.50516 424.74226-635.05155 14.43299-76.28866 16.49485-334.020616 0-410.309276" fill="#04FFCC"/>
    <path d="M1134.43299 119.587629v459.793814l-531.958763-32.98969-218.556701 276.288659-26.804124 521.649488 181.443299 193.81443 272.164948 136.08247 356.701031 39.17526 387.62887-98.96907V655.670103l-74.22681-397.938144S1272.57732 94.845361 1136.49485 55.670103" fill="#7DF8FB"/>
    <g fill="#2C398F">
      <path d="M1757.113401 1259.79381c-74.2268-4.12371-32.98969-121.64948-65.97938-255.6701-39.17526-148.453607 18.5567-251.54639 94.84536-247.422679 35.82672 5.583775 69.77716 19.729793 98.96907 41.237113-13.25298-64.567833-36.93045-126.547079-70.10309-183.505154-68.04124-113.402062-216.49485-278.350516-402.06186-408.247423V1449.48454c.05957 58.81487-40.71303 109.79065-98.104 122.65415-57.39097 12.86349-116.02101-15.83239-141.07125-69.04591-203.552154 126.15862-468.507719 86.44199-626.122369-93.85526-157.61465-180.29725-161.563839-448.183915-9.332416-633.048918 152.231422-184.865002 415.901097-232.37464 623.083645-112.271076V181.443299c-.69138-37.581592 16.05843-73.365267 45.36083-96.907216-241.237116-111.340207-511.340209-134.02062-742.268044 70.103092C76.701031 498.969072-117.113402 979.381443 76.701031 1457.73196c4.123711 10.30928 8.247422 20.61856 12.371134 28.86598 5.666555-11.57251 13.346295-22.04488 22.680412-30.92784 101.030928-103.09278 212.371134 107.2165 449.484536 228.86598 150.515464 76.28866 237.113402 177.31959 270.103093 272.16495 220.618555 26.80412 447.422685-8.24742 628.865975-113.40206 237.11341-136.08248 375.25774-383.50516 424.74227-635.05155-35.61138 31.05456-80.6428 49.21239-127.83505 51.54639zM948.865979 282.474227c55.670102-2.061856 107.216492 63.917526 109.278352 94.845361 2.06185 30.927835-47.42268 18.556701-101.030929 37.113402-59.793815 20.618556-103.092784 2.061855-105.154639-28.86598-2.061856-30.927835 39.175257-101.030928 96.907216-103.092783z"/>
      <path d="M827.216495 1268.04124c119.587629 68.04123 263.917526 41.23711 290.721646-111.34021 14.43299-88.65979 6.18557-226.804123-72.16495-270.103092C785.979381 738.14433 567.42268 1119.58763 827.216495 1268.04124"/>
    </g>
  </g>
</svg>
