<svg viewBox="0 0 1881 2018" xmlns="http://www.w3.org/2000/svg"><defs><linearGradient x1="103.377%" y1="54.281%" x2="13.284%" y2="34.301%" id="a"><stop stop-color="#F3F5F7" offset="33%"/><stop stop-color="#8099B9" offset="78%"/></linearGradient><linearGradient x1="94.758%" y1="50.667%" x2="-15.829%" y2="48.533%" id="b"><stop stop-color="#F3F5F7" offset="33%"/><stop stop-color="#E4E9EF" offset="37%"/><stop stop-color="#C0CCDC" offset="48%"/><stop stop-color="#A4B6CC" offset="59%"/><stop stop-color="#90A6C2" offset="70%"/><stop stop-color="#849CBB" offset="81%"/><stop stop-color="#8099B9" offset="91%"/></linearGradient><linearGradient x1="79.8%" y1="65.444%" x2="96.963%" y2="75.104%" id="c"><stop stop-color="#1797E5" offset="12%"/><stop stop-color="#1693E1" offset="14%"/><stop stop-color="#0A6FBA" offset="33%"/><stop stop-color="#0358A2" offset="48%"/><stop stop-color="#005099" offset="57%"/><stop stop-color="#0663AD" offset="71%"/><stop stop-color="#1694E2" offset="99%"/><stop stop-color="#1797E5" offset="100%"/></linearGradient><linearGradient x1="17.398%" y1="19.164%" x2="90.638%" y2="88.436%" id="d"><stop stop-color="#1797E5" offset="13%"/><stop stop-color="#1693E1" offset="26%"/><stop stop-color="#1287D4" offset="40%"/><stop stop-color="#0B73BE" offset="54%"/><stop stop-color="#0257A0" offset="69%"/><stop stop-color="#005099" offset="72%"/></linearGradient><linearGradient x1="35270.022%" y1="96762%" x2="24030.692%" y2="52764%" id="e"><stop stop-color="#F3F5F7" offset="33%"/><stop stop-color="#8099B9" offset="78%"/></linearGradient><linearGradient x1="77.46%" y1="59.57%" x2="-20.237%" y2="30.76%" id="f"><stop stop-color="#F7AE2D" offset="17%"/><stop stop-color="#B04211" offset="86%"/></linearGradient><linearGradient x1="14566.568%" y1="61809%" x2="22333.701%" y2="63062%" id="g"><stop stop-color="#F7AE2D" offset="17%"/><stop stop-color="#B04211" offset="86%"/></linearGradient><linearGradient x1="34.269%" y1="186.413%" x2="62.492%" y2="-33.583%" id="h"><stop stop-color="#1797E5" offset="26%"/><stop stop-color="#1694E2" offset="40%"/><stop stop-color="#138BD8" offset="51%"/><stop stop-color="#0E7CC8" offset="61%"/><stop stop-color="#0767B1" offset="70%"/><stop stop-color="#005099" offset="77%"/></linearGradient><linearGradient x1="125.394%" y1="63.718%" x2="29.624%" y2="50.16%" id="i"><stop stop-color="#1797E5" offset="26%"/><stop stop-color="#005099" offset="77%"/></linearGradient><linearGradient x1="76216%" y1="61481.215%" x2="64061%" y2="63674.026%" id="j"><stop stop-color="#1797E5" offset="26%"/><stop stop-color="#005099" offset="77%"/></linearGradient><radialGradient cx="95486.255%" cy="96503.122%" fx="95486.255%" fy="96503.122%" r="57594.287%" gradientTransform="matrix(.70191 0 0 1 284.635 0)" id="k"><stop stop-color="#1797E5" offset="26%"/><stop stop-color="#005099" offset="77%"/></radialGradient><linearGradient x1="7860.145%" y1="14816%" x2="22555.302%" y2="18327%" id="l"><stop stop-color="#F3F5F7" offset="33%"/><stop stop-color="#8099B9" offset="78%"/></linearGradient><linearGradient x1="35926%" y1="0%" x2="58619%" y2="0%" id="m"><stop stop-color="#F3F5F7" offset="33%"/><stop stop-color="#8099B9" offset="78%"/></linearGradient><linearGradient x1="48597%" y1="0%" x2="59943%" y2="0%" id="n"><stop stop-color="#F3F5F7" offset="33%"/><stop stop-color="#8099B9" offset="78%"/></linearGradient><linearGradient x1="39819.394%" y1="9154%" x2="36788.081%" y2="935%" id="o"><stop stop-color="#F3F5F7" offset="33%"/><stop stop-color="#8099B9" offset="78%"/></linearGradient><linearGradient x1="54492.289%" y1="17889%" x2="50233.06%" y2="21784%" id="p"><stop stop-color="#F3F5F7" offset="33%"/><stop stop-color="#8099B9" offset="78%"/></linearGradient><linearGradient x1="71083.454%" y1="75017%" x2="65606.622%" y2="69715%" id="q"><stop stop-color="#F3F5F7" offset="33%"/><stop stop-color="#8099B9" offset="78%"/></linearGradient><linearGradient x1="79077.849%" y1="68941%" x2="71704.719%" y2="66389%" id="r"><stop stop-color="#F3F5F7" offset="33%"/><stop stop-color="#8099B9" offset="78%"/></linearGradient><linearGradient x1="52095%" y1="55530.56%" x2="57572%" y2="55209.735%" id="s"><stop stop-color="#F3F5F7" offset="33%"/><stop stop-color="#8099B9" offset="78%"/></linearGradient><linearGradient x1="46058%" y1="62162.465%" x2="51546%" y2="62359.382%" id="t"><stop stop-color="#F3F5F7" offset="33%"/><stop stop-color="#8099B9" offset="78%"/></linearGradient><linearGradient x1="42868%" y1="18228.118%" x2="46486%" y2="20022.407%" id="u"><stop stop-color="#F3F5F7" offset="33%"/><stop stop-color="#8099B9" offset="78%"/></linearGradient><linearGradient x1="48770%" y1="18471.306%" x2="52587%" y2="20413.002%" id="v"><stop stop-color="#F3F5F7" offset="33%"/><stop stop-color="#8099B9" offset="78%"/></linearGradient><linearGradient x1="55763%" y1="19174.128%" x2="59200%" y2="20989.614%" id="w"><stop stop-color="#F3F5F7" offset="33%"/><stop stop-color="#8099B9" offset="78%"/></linearGradient><linearGradient x1="32560.007%" y1="70717%" x2="37094.461%" y2="70939%" id="x"><stop stop-color="#F3F5F7" offset="33%"/><stop stop-color="#8099B9" offset="78%"/></linearGradient><radialGradient cx="49.998%" cy="50.341%" fx="49.998%" fy="50.341%" r="134.446%" gradientTransform="matrix(1 0 0 .525 0 .24)" id="y"><stop stop-color="#3FC0E5" offset="17%"/><stop stop-color="#20A1E6" offset="62%"/></radialGradient><linearGradient x1="81407%" y1="37915.97%" x2="76030%" y2="36529.487%" id="z"><stop stop-color="#1797E5" offset="26%"/><stop stop-color="#005099" offset="77%"/></linearGradient><linearGradient x1="98068%" y1="72403.545%" x2="91216%" y2="69236.739%" id="A"><stop stop-color="#1797E5" offset="26%"/><stop stop-color="#005099" offset="77%"/></linearGradient><linearGradient x1="53741%" y1="28832.683%" x2="37889%" y2="26492.488%" id="B"><stop stop-color="#1797E5" offset="26%"/><stop stop-color="#005099" offset="77%"/></linearGradient><linearGradient x1="59233%" y1="16455.549%" x2="41775%" y2="15136.657%" id="C"><stop stop-color="#1797E5" offset="26%"/><stop stop-color="#005099" offset="77%"/></linearGradient><linearGradient x1="62525%" y1="25691.406%" x2="70568%" y2="28954.295%" id="D"><stop stop-color="#1797E5" offset="26%"/><stop stop-color="#005099" offset="77%"/></linearGradient></defs><g transform="translate(10 9)" fill="none" fill-rule="evenodd"><g fill-rule="nonzero" stroke="#122A44"><path d="M1302.936 484.812s31.976-31.976 46.518-63.951c0 0-34.896-40.707 0-81.399 0 0 8.717-52.268-29.085-81.399 0 0 66.872-52.267 142.46 37.786 0 0 23.243-17.432 43.597 11.638 0 0 223.843 58.14 151.176 462.229" stroke-width="18.911" fill="#1797E5"/><g stroke-linejoin="round" stroke-width="5.673"><path d="M61.384 41.599s26.133 8.716 40.691-5.811c0 0 51.36 97.863 14.051 194.281L.338 152.068s61.046-29.086 61.046-110.47" fill="url(#a)" transform="translate(1365.104 398.155)"/><path d="M123.12 20.953s26.134.123 40.8-20.154c0 0 124.52 98.494 63.828 320.585l-85.334-85.212s49.915-101.506-19.293-215.219" fill="url(#b)" transform="translate(1365.104 398.155)"/></g><g fill="#1797E5"><path d="M186.01 664.704S6.38 731.914 32.545 827.855c0 0 5.534 31.576 62.368 23.06 0 0 125.226-177.848 91.099-186.21" stroke-width="20.802"/><path d="M118.955 1316.28s-75.634 89.977-9.024 188.101a16.787 16.787 0 0 0 19.2 6.564c21.968-7.348 69.731-32.282 112.73-116.218m-3.813 163.89c-6.15 31.33-13.175 102.382 39.308 143.35a12.375 12.375 0 0 0 11.806 1.922c14.45-5.15 50.008-23.29 80.8-82.628a12.467 12.467 0 0 0-5.442-16.91l-108.717-54.359a12.437 12.437 0 0 0-17.755 8.624" stroke-width="21.874"/></g></g><path d="M1430.838 444.12s-2.168 73.036-46.119 93.205l23.751 2.49s28.225-34.65 28.225-92.79m58.109-23.259s55.234 87.21 23.259 174.42l17.433 8.732s37.801-87.21-29.07-186.011" fill="#7DA4B7" fill-rule="nonzero"/><path d="M97.233 962.168s-144.643 141.614-78.401 221.967c0 0 18.831 27.779 70.038-4.858-.061 0 44.95-223.858 8.363-217.11" stroke="#122A44" stroke-width="21.874" fill="#1797E5" fill-rule="nonzero"/><path d="M440.446 1799.078s20.476 73.328 71.145 96.387c0 0 82.23 17.556 31.407-129.439" fill="#122A44" fill-rule="nonzero"/><path d="M151.73 711.56S47.07 755.173 58.692 833.666c0 0-20.338-2.905-11.622-37.786 0 0 5.811-49.423 98.848-95.941l23.259-11.622-14.543 23.243m-75.588 296.526S-22.69 1118.555 35.45 1176.695c0 0-2.906-110.469 61.045-151.16m37.786 316.863s-40.691 72.683-2.905 142.46c0 0 17.448-5.826 20.353-11.637 0 0-2.905 14.542-26.133 23.259 0 0-61.046-61.046-2.906-159.877m136.603 258.724s2.905 63.95 31.975 84.304c0 0 2.906 0 8.717-2.905 0 0-2.906 8.716-14.528 11.621 0 0-43.612-31.975-34.896-93.02" fill="#5DC5F9" fill-rule="nonzero"/><path d="M1672.13 1266.826s142.443-264.55-20.34-488.394l-46.517-87.21s-5.811-14.543-20.354-11.637c0 0-40.691-69.762-90.115-81.399 0 0-37.802-58.14-107.61-61.045 0 0-17.448-81.476-110.468-66.857 0 0-20.354-81.399-104.658-46.518 0 0-14.528-43.612-66.857-29.07 0 0-2.905-78.493-203.505-17.448 0 0-601.767-84.304-720.983 279.078 0 0-5.427 13.59 9.946 17.125a.938.938 0 0 1 .522 1.537 139.462 139.462 0 0 0-33.728 83.014s-101.752 69.777-52.267 183.151c0 0-34.88 81.476 5.81 136.633 0 0-58.139 75.588 5.827 148.256 0 0-40.707 84.304 46.503 130.822 0 0-34.881 87.21 43.613 116.28 0 0-2.906 104.658 93.02 133.743 0 0 2.906 58.14 63.966 66.872 0 0-29.07 81.475 75.573 110.469 0 0 49.424 98.831 122.106 49.408 0 0 46.503 63.966 154.066 49.423 0 0 66.872 58.14 174.435 29.07 0 0 72.667 34.896 165.704-17.433 0 0 55.234 26.134 104.658-17.448 0 0 84.304 2.906 113.374-29.07 0 0 49.423 17.448 90.115-11.637 0 0 93.02-20.338 119.185 20.354 0 0 34.897 66.871-31.975 139.539 0 0 162.798 34.896 174.435-168.61 0 0 8.716-110.468-122.106-139.538l168.624-421.46z" stroke="#122A44" stroke-width="18.911" fill="url(#c)" fill-rule="nonzero"/><ellipse fill="url(#d)" fill-rule="nonzero" cx="959.892" cy="1173.789" rx="680.261" ry="668.624"/><g fill-rule="nonzero" stroke="#122A44"><path d="M698.786 101.245l46.272 53.805s34.88-122.09-46.518 357.571l-46.518 136.633L72.068 595.45S-6.426 580.907 3.705 492.606l695.08-391.36" stroke-width="13.237" fill="url(#e)" stroke-linejoin="round" transform="translate(395.08 664.105)"/><path stroke-width="18.911" fill="#C91111" d="M439.523 845.288l29.07-180.23 627.933 81.399-26.165 186.056-46.502 302.337-627.933-78.493z"/></g><path fill="#750606" fill-rule="nonzero" d="M433.713 987.748l-8.717 55.234 191.868 23.244 290.7 63.966v-31.975l141.552 27.81 6.718-59.801-622.121-78.478"/><path d="M991.545 775.465L567.44 714.481c-21.352 60.984-81.398 66.856-81.398 66.856l-46.38 286.918c67.087 18.294 69.715 85.196 69.715 85.196l427.364 58.14c21.353-67.102 78.401-55.234 78.401-55.234l43.613-296.526c-79.308-27.456-67.21-84.366-67.21-84.366zm14.82 369.254s-58.14-8.716-78.494 55.235l-406.949-55.235s-2.859-64.012-66.856-81.398l37.863-218.033 8.732-52.267s58.14-8.717 78.478-66.857l401.23 58.14s-11.745 58.125 63.828 84.259l-37.833 276.156z" fill="#3D0000" fill-rule="nonzero"/><g fill-rule="nonzero" stroke="#4F1A00"><path stroke-width="18.911" fill="url(#f)" d="M490.607 100.307l191.868 31.976 98.832 142.444-87.21 49.424-26.165-58.14L478.97 231.13l11.637-130.823z" transform="translate(396.618 814.758)"/><path d="M12.39 40.707l209.301 26.134-20.307 130.853L6.61 174.435l-5.826 29.07S-2.152 69.777 12.39 40.707" stroke-width="13.237" fill="url(#g)" stroke-linejoin="round" transform="translate(396.618 814.758)"/><path stroke-width="18.911" fill="#F7AE2D" d="M602.321 816.218l-31.975 247.103 308.147 43.612 34.897-250.008-311.069-40.707z"/></g><path d="M893.036 900.523l-8.716 58.155-101.753 110.469-11.637-42.168 122.106-126.456m-151.176-52.33l-150.07 159.17-5.21 43.613 7.025.723L788.378 854.02l-46.518-5.826m61.06 8.731l-200.599 197.68 23.26-14.528 186.056-183.152h-8.716" fill="#FFF" fill-rule="nonzero" opacity=".63"/><g fill="#4F1A00" fill-rule="nonzero"><path d="M727.333 961.583l-31.976 63.951 73.79 7.164-12.806-68.21s23.26-2.905 26.134-29.07c0 0 5.81-37.8-31.975-43.612 0 0-31.976-2.905-40.708 29.07.093-.046-5.718 29.07 17.54 40.707"/><path d="M756.341 885.995s37.787 5.811 37.787 43.598c0 0 2.905 31.99-23.26 43.612l5.888 81.368h11.622l-11.622-75.588s32.483-17.494 21-59.43a43.305 43.305 0 0 0-14.097-22.107 51.376 51.376 0 0 0-27.318-11.453z"/></g><path d="M750.592 888.9s34.958 5.796 34.958 43.613c0 0 0 23.244-26.134 34.881l11.622 90.116h11.637l-14.543-87.21s18.955-7.425 22.368-32.083a43.213 43.213 0 0 0-37.68-49.1l-2.228-.216z" fill="#FFF" fill-rule="nonzero"/><path d="M994.789 1167.978s-34.574-3.95-56.541 56.173l68.162-6.749m2.906-468.04s-23.26 75.588 58.14 101.753l14.542-93.037m-601.767-78.493l-14.543 87.225s72.682-2.92 81.399-78.493m-127.902 389.546l-8.732 66.856 84.305 11.638s-11.622-63.967-75.573-78.494" fill="#3D0000" fill-rule="nonzero"/><path d="M930.822 409.224s61.046-49.408 154.082 0l-5.734 11.637s58.14-8.716 98.832 75.588c0 0 17.448-116.295 84.304 0 0 0 87.225-11.637 98.847 49.408 0 0-14.543 29.085 2.905 49.424 0 0-11.621-43.598 17.449-40.692 0 0 49.408 2.905 84.304 49.423l11.622 8.717s37.801 5.81 87.21 75.588a527.147 527.147 0 0 1 42.413 64.765 431.205 431.205 0 0 0 23.167 37.633c28.409 41.26 90.868 146.518 68.147 246.441 0 0-8.716 156.987-43.597 200.6 0 0 52.268-90.131 61.046-200.6 0 0 11.621-142.444-78.494-255.819l-49.423-93.02-17.433-8.732s-37.802-61.045-93.144-75.573v-5.826s-31.975-49.408-101.752-52.267l-2.906-11.622s-20.338-69.777-107.61-49.424c0 0-8.716-81.399-93.02-46.503 0 0-52.268-29.085-84.304-23.259 0 0 34.88-61.06-98.848-43.612 0 0-53.604 9.224-68.946 16.218l10.883 21.507z" fill="#5DC5F9" fill-rule="nonzero"/><path d="M253.482 552.498S462.72 307.456 712.79 400.508C902.521 471.098 890.13 534.25 890.13 534.25S761.4 554.42 701.646 636.003c0 0-116.541-127.271-265.95-19.585 0 .03-2.89-170.238-182.213-63.92" fill="url(#h)" fill-rule="nonzero"/><path d="M1113.974 1862.767s-19.14 24.597-72.068-6.626c0 0-47.117 38.617-154.68 15.373 0 0-72.683 46.503-159.878-26.134 0 0-119.2 26.134-148.27-69.777 0 0-72.668 69.777-107.61-29.07 0 0-72.682 8.732-81.476-84.304 0 0 17.433-29.07 0-43.597 0 0-58.155 61.045-58.155-40.707 0 0-151.16-46.518-52.267-119.186 0 0-142.46 0-75.588-113.374 0 0-98.847-43.613-46.519-130.822 0 0-61.045-29.07-29.07-127.917l20.354-8.717s-55.234-63.95-8.732-125.011l2.921-11.622s-46.518-127.917 29.07-139.539l29.07-2.905s-26.134-69.777 26.134-116.295c0 0-23.26-113.375 194.773-229.655h-40.6s-151.16 66.872-188.962 215.127l11.637 14.528s-24.596 14.788-33.082 71.544c-1.445 9.64-6.149 18.832-14.204 24.366-25.396 17.433-77.648 74.743-37.018 162.783 0 0-34.896 75.588 5.811 136.633 0 0-61.045 78.494 8.716 145.35 0 0-52.267 78.493 46.518 127.917 0 0-43.612 87.21 40.692 113.374 0 0-11.622 107.61 90.13 130.823 0 0-2.905 58.14 61.046 66.856l5.811 14.543s-31.975 69.761 69.777 95.926c0 0 46.503 101.752 116.28 43.612 0 0 40.692 69.762 151.16 52.268l14.543 8.716s66.857 49.424 159.877 20.354c0 0 72.667 34.88 165.704-17.448 0 0 49.423 26.133 93.02-11.622l-34.865-5.765z" fill="#5DC5F9" fill-rule="nonzero"/><path d="M733.144 1449.962s-162.798-43.598-142.445-186.011c0 0-49.423-66.872-29.07-133.743 0 0 11.622-46.519 26.134-43.613 0 0 43.597-58.14 84.305-52.268 0 0-2.906 29.07 8.716 34.897 0 0 49.424-72.683 95.942-66.872 0 0-20.354 55.234 0 81.399 0 0 37.786-63.95 78.493-63.95 0 0-5.826 37.785 2.906 55.234 0 0 46.502-14.543 46.502 133.743 0 0 34.896 11.622 52.268 43.597l-5.811 162.798" stroke="#122A44" stroke-width="17.02" fill="#1797E5" fill-rule="nonzero"/><path d="M817.94 1102.767s98.386 222.198-29.562 291.96l136.634-20.4 5.81-136.633s-17.678-15.511-39.37-19.385c0 0 7.395-91.084-21.675-125.98" fill="url(#i)" fill-rule="nonzero"/><path d="M593.605 1098.217s-40.707 78.478 20.353 162.798c0 0-20.353 124.996 127.902 165.703l-37.786 2.951s-125.012-55.342-101.753-168.654c0 0-66.856-72.683-11.622-168.625l2.906 5.827zm703.858 726.349l69.424-17.033s69.777-17.433 125.012 8.731c0 0 69.761 43.598 8.716 168.61h-23.29s31.976-34.882 29.07-90.116c0 0 0-26.134-11.622-46.518 0 0-20.353-40.707-113.374-29.07l-23.26 5.81a83.259 83.259 0 0 1-75.587 11.623l14.911-12.037z" fill="#5DC5F9" fill-rule="nonzero"/><path d="M1131.437 1092.39s-101.752-5.81-122.106 119.201l-61.045 11.622s-31.975 40.707-5.811 87.21c0 0-11.637 37.801 2.905 61.06 0 0-238.385-17.448-290.714 159.877 0 0-31.976 311.069 444.78 328.502 0 0 284.904 14.542 497.126-250.008l46.503-14.527 63.966 124.996s23.243-177.325 154.066-232.56c0 0-145.35-142.444-72.667-319.754l-145.365 87.21s-29.086-93.036-55.25-93.036c0 0-2.906-20.354-20.354-26.134 0 0-17.433-34.88 2.921-93.02 0 0-58.155-29.07-136.633 61.045 0 0-29.07-11.637-37.802 20.353l-34.88-11.637s-11.623-40.692-40.708-37.786c0 0-11.622-11.637 20.354-110.469 0 0-84.305-11.637-139.54 78.493 0 0-31.975-11.637-40.691 20.339 0-.046-20.354 2.859-29.055 29.023" stroke="#122A44" stroke-width="18.911" fill="#1797E5" fill-rule="nonzero" stroke-linejoin="round"/><path d="M1113.974 1284.258l-127.917-26.133 44.089-10.992a7.686 7.686 0 0 0 6.549-5.673c5.765-22.183 33.482-110.545 112.221-125.78l-8.716-8.716s-87.21-2.906-116.28 119.185l-66.872 14.543v49.393l139.54 34.88" fill="url(#j)" fill-rule="nonzero"/><path d="M913.39 1807.533S800 1636.018 930.822 1647.656c0 0 29.07 0 139.54 31.975 0 0 34.895 5.811-5.812-40.707 0 0-58.14-49.424-101.752-63.95 0 0-37.786-46.519 49.423-26.135l49.424 8.717s46.518 11.637 58.14-40.692c0 0 8.716-52.268-63.951-46.518 0 0-8.732 0-20.354 8.716 0 0 40.708-58.14 110.47-20.338a128.578 128.578 0 0 1 29.07 17.433l34.819-32.006 31.99-5.811-26.133-84.305s-31.991 8.717-11.638-23.259l72.683-14.527s46.518-14.543 63.95-31.99c0 0 81.477-66.857 180.247-63.952 0 0 58.14-2.905 61.045-52.267 0 0 23.26 20.354 46.518 87.21 0 0 2.906 14.542 17.433 14.542l91.191-55.541 17.94 27.778s-33.466 94.558 59.555 234.097c0 0-84.305 93.036-116.28 188.962l-41.983-94.435-77.202 27.58s-177.387 325.595-665.765 209.3" fill="url(#k)" fill-rule="nonzero"/><g fill="#1797E5" fill-rule="nonzero" stroke="#122A44"><path d="M983.151 493.543s-5.81-90.13-43.597-43.612c0 0-69.777-110.469 43.597-261.645 0 0 52.268-26.134 34.881-75.573 0 0 8.732-29.07 69.777-43.612 0 0-34.88-75.588-136.633-49.424 0 0-26.134-40.692-78.493-2.905 0 0-491.3-104.658-700.6 470.945 0 0 203.49-69.762 281.983-31.975 0 0 34.881 14.542 23.26 75.588 0 0 154.065-84.305 229.653 26.133 0 0 93.021-98.847 156.987-75.588 0 0 26.134 11.638 40.692 49.424" stroke-width="18.911"/><path d="M1015.127 650.515s-107.61-130.807-229.654-40.692c0 0-79.939-1.46-114.835 71.222 0 0-5.81 8.717-5.81 14.528 0 0 46.517 11.637 46.517 69.777 0 0 11.622 0 40.692-75.588 0 0 46.518 8.731 52.267 72.682 0 0 11.638 2.906 37.802-17.448 0 0 8.716-49.423 23.244-55.234 0 0 37.801 0 46.518 63.966 0 0 5.81 11.622 58.14-34.896l78.493 8.731s14.604-23.259-33.374-77.048" stroke-width="5.673"/></g><path d="M1113.974 1266.826s-8.67 43.597-20.354 46.502l-130.822-31.975s-2.906-23.26 8.732-37.787l55.203-7.886a7.133 7.133 0 0 0 6.15-6.518c1.737-22.72 14.45-106.38 107.286-116.418l-6.149-5.81s-89.762-8.717-110.1 101.752c0 0-2.905 14.527-14.543 17.432l-52.267 8.732s-20.354 29.07-5.811 61.045l142.444 37.787s26.042 5.81 20.23-66.856m116.28 31.975s-26.133 26.134-26.133 49.423c0 0 177.34-5.826 270.361 49.409l-284.92-37.787s-20.353-20.353 40.693-61.045m-203.49 206.395s10.146-35.557 44.72-33.067a22.875 22.875 0 0 1 15.142 7.256c6.794 7.302 15.741 22.045 15.741 49.07-.015 0-17.463-61.045-75.603-23.259m-159.892-52.314s10.161-35.51 44.734-33.082a22.844 22.844 0 0 1 15.143 7.256c6.794 7.302 15.741 22.045 15.741 49.07-.03 0-17.478-61.045-75.618-23.244" fill="#5DC5F9" fill-rule="nonzero"/><g stroke="#122A44"><g stroke-width="11.346"><path d="M1031.115 1506.656s46.518-40.707 58.155 20.354m-213.021-69.67s38.786-41.506 55.05 13.252m298.955-174.666s-49.839 23.843-48.486 54.681a17.402 17.402 0 0 0 15.157 16.434l277.525 36.495" stroke-linecap="round"/><g stroke-linejoin="round"><path d="M1223.95 1370.561s-14.665 62.936 53.16 93.559a136.387 136.387 0 0 0 78.401 9.946c32.544-5.411 76.126-22.552 88.947-74.543" fill="#F3F5F7" fill-rule="nonzero"/><g stroke-linecap="round"><path d="M1119.785 1266.826s4.612 37.909-4.966 60.061c-4.805 10.603-16.633 16.109-27.84 12.96l-146.687-39.309"/><path d="M1076.188 1339.493s23.243 34.896-5.827 66.871c0 0-58.14-29.07-136.633-29.07l11.699-72.682" fill="#F3F5F7" fill-rule="nonzero"/></g></g></g><path d="M1105.304 1435.434s-31.207-31.898-70.869-42.152" stroke-width="9.455" stroke-linecap="round" stroke-linejoin="round"/></g><path d="M1647.133 769.716s-89.87-33.36-78.201 100.292c0 0 10.176-123.551 92.867-77.172" fill="#122A44" fill-rule="nonzero"/><g stroke-linejoin="round" fill-rule="nonzero" stroke="#122A44" stroke-width="5.673"><path d="M592.867.6s-7.271 39.246 7.271 62.428c0 0-197.678 66.872-348.854 328.502 0 0-34.881-104.643-250.008-20.339 0 .062 87.21-363.336 591.591-370.591" fill="url(#l)" transform="translate(253.651 56.88)"/><path d="M605.95 83.444l26.133 26.133s-153.99 162.829-188.932 314.005c0 0-61.045-43.613-159.877-8.732-.015 0 101.738-229.654 322.675-331.406" fill="url(#m)" transform="translate(253.651 56.88)"/><path d="M652.467 132.867s-98.847 127.917 0 281.983c0 0-78.493-69.762-174.42 11.637.047 0 58.14-209.316 174.42-293.62" fill="url(#n)" transform="translate(253.651 56.88)"/></g><path d="M1363.566 1388.9s-32.943 56.296 27.349 74.666c0 0 44.673-28.332 49.577-64.565m-419.155-74.128s-32.375 40.784-6.149 58.232l55.235 14.528s24.058-39.508-8.317-61.907" fill="#122A44" fill-rule="nonzero"/><g transform="translate(994.62 1338.97)" fill="#FFF" fill-rule="nonzero"><circle cx="366.457" cy="99.37" r="14.543"/><circle cx="14.696" cy="15.065" r="14.543"/></g><path d="M1378.524 944.135s2.906-34.88 29.07-37.786c0 0 34.881 0 37.786 31.975 0 0-8.716-52.267 29.07-61.045" stroke="#000" stroke-width="3.782" stroke-linecap="round" stroke-linejoin="round"/><g fill="#122A44" fill-rule="nonzero"><path d="M1729.808 1027.717s-40.23-37.064-92.56 76.31c0 0 68.378-71.19 92.33-64.673m-6.75-94.788s-50.73-73.113-82.674 28.64c0 0 15.726-27.518 32.636-38.925a17.848 17.848 0 0 1 21.384 1.061c9.746 8.21 24.427 28.07 35.465 75.896M1581.86 674.696s-66.733 10.761-43.49 77.571c0 0-4.365-64.166 67.64-59.707m-103.566-92.083s-44.32 3.704-14.68 72.959a12.052 12.052 0 0 1-4.397 14.758 12.052 12.052 0 0 1-15.62-1.922c-6.333-6.98-18.446-21.03-29.884-28.87a9.454 9.454 0 0 0-14.573 5.503c-2.614 11.13-2.721 35.081 7.548 86.457 0 0-38.125-57.202-21.522-98.232 5.98-14.82 24.012-21.23 37.571-12.76A53.574 53.574 0 0 1 1460 650.515s-19.677-76.833 42.444-50.038m-97.371-61.323s-69.178 5.043-41.153 55.004a18.786 18.786 0 0 0 3.72 4.612l11.438 10.454a11.79 11.79 0 0 1 .983 13.543 11.76 11.76 0 0 1-12.298 5.519c-14.604-2.829-47.363-15.542-66.917 15.28a18.248 18.248 0 0 0-2.091 15.48 38.909 38.909 0 0 0 15.834 20.554s-46.503-23.259-11.622-58.14c0 0 11.622-14.527 43.597-14.527 0 0-43.243-76.018 39.431-74.358m-336.033-91.376s66.687-63.92 115.849 14.727a50.223 50.223 0 0 1 5.027 10.761l7.025 21.092s-34.88-2.906-52.267 29.07l-11.622-11.622s5.81 34.88 55.234 84.304c0 0 2.906-23.259-29.07-58.14 0 0 34.881-52.267 72.683-17.448 0 0 17.433 8.732 49.408 61.06 0 0-8.716-49.423-63.95-84.319 0 0-17.449-75.573-72.683-90.115 0-.062-52.33-11.637-75.634 40.63M930.653 3.69s-23.059 18.894-2.736 82.86c0 0-26.134-40.707-17.433-84.305m31.976 104.643s38.816 40.784 79 21.845l-2.244 19.339s-62.23-.492-76.756-41.184"/><path d="M863.95 60.384s11.623-31.975 49.424-52.267l-43.612 2.905s-8.701 11.56-5.811 49.362m61.06 84.305s20.354 40.691 84.305-5.811l-5.811 40.692s-63.95 11.637-78.493-34.881"/></g><path d="M1076.188 66.195s-58.156 17.448-66.872 55.25c0 0-81.399-26.134-63.95-95.942.06-.015 104.596-26.164 130.822 40.692" fill="url(#o)" fill-rule="nonzero"/><path d="M1332.006 263.874s36.895 41.214 26.134 78.493c0 0 81.476 17.449 98.832-40.691.03 0-69.655-83.582-124.966-37.802" fill="url(#p)" fill-rule="nonzero"/><path d="M1558.002 1050.638s-22.522 58.17-2.153 91.176c0 0-81.475 23.259-119.185-23.259 0 0 63.95-90.115 121.338-67.917" fill="url(#q)" fill-rule="nonzero"/><path d="M1326.195 979.016s-29.07 55.235-17.448 107.61c0 0-72.928 21.337-105.196-30.085 0-.046 58.678-103.69 122.644-77.525" fill="url(#r)" fill-rule="nonzero"/><path d="M852.068 1023.09s-11.945 34.481 6.149 66.395c0 0-38.432 27.225-69.777 0-.062 0 17.386-52.329 63.628-66.395" fill="url(#s)" fill-rule="nonzero"/><path d="M763.766 1013.62s-15.788 32.883-1.537 66.641c0 0-41.276 22.675-69.316-7.947 0 0 23.305-50.023 70.853-58.694" fill="url(#t)" fill-rule="nonzero"/><g stroke-linejoin="round" fill-rule="nonzero" stroke="#122A44" stroke-width="8.51"><path d="M8.747 106.918S25.288 77.079 61.015 69.13c0 0-5.196-54.05-46.395-59.154.061 0-26.35 53.144-5.873 96.94" fill="url(#u)" transform="translate(650.269 693.313)"/><path d="M100.938 95.926s14.466-21.752 50.253-29.7c0 0-7.27-59.6-45.057-65.411-.062 0-29.07 52.329-5.196 95.111" fill="url(#v)" transform="translate(650.269 693.313)"/><path d="M205.596 95.926s17.632-31.93 53.42-39.892c0 0-4.12-50.13-45.319-55.22-.015 0-28.578 51.315-8.101 95.112" fill="url(#w)" transform="translate(650.269 693.313)"/></g><path d="M669.193 1042.982s-20.062 26.764-5.796 60.538c0 0-38.432 16.91-66.41-13.835 0 .077 25.688-49.624 72.206-46.703" fill="url(#x)" fill-rule="nonzero"/><path d="M949.347 17.264s-15.62 63.474 65.78 104.181l-5.811 8.716s-87.21-26.133-69.762-110.468l9.793-2.43zm530.914 275.68s8.732 40.646-40.691 69.854c0 0 49.423-14.543 52.267-61.046" fill="#122A44" fill-rule="nonzero"/><path d="M616.864 1790.1s-421.537-250.008-316.88-819.8L186.61 1080.707s-20.353 482.706 430.254 709.393" fill="url(#y)" fill-rule="nonzero"/><path d="M317.433 865.642s26.133 37.786 61.045 0c0 0-30.515 49.423-61.045 0" fill="#5DC5F9" fill-rule="nonzero"/><g fill="#122A44" fill-rule="nonzero"><path d="M1494.543 311.683s13.082 25.965 3.566 62.66c0 0 14.512-15.127 18.31-52.836m-169.886 41.29s23.26 34.882 75.588 8.717c0 0-52.267 11.637-72.667-17.448"/><path d="M1346.533 368.532s8.732 52.267 63.967 46.518c0 0-30.177 18.017-63.029 3.198m109.531-122.399s-17.432 66.872-104.642 40.707l-2.906 14.528s98.832 29.07 127.902-58.14M826.164 1836.603s86.334-2.352 88.24 83.136l-33.974-5.135s21.322-57.57-54.266-78.001m-136.633-61.046s64.843 31.714 38.232 116.157l-20.722-7.579s23.167-85.319-17.51-108.578m-284.888-186.01s37.786 75.588-46.518 95.941l-17.433-26.134s66.856 17.372 63.95-69.807m-142.444-142.49s-2.905 37.8-58.14 29.07l2.721-16.342a.8.8 0 0 1 1.138-.615c5.473 2.598 33.436 13.99 54.281-12.114M198.31 993.56s-23.32 104.658-81.476 78.493l-11.637 23.244s93.113 37.802 93.113-101.737m-96.003-78.494s40.66 84.305 78.493-49.423c0 0 5.811 119.185-75.588 93.036m66.872-209.316s-5.826 63.95 69.762 37.786c0 0-66.857 63.029-97.387-10.653m50.869-125.98s20.353 61.045 110.469-29.07c0 0-87.21 127.917-5.811 133.743 0 0-72.668 11.638-40.692-72.682 0 0-33.743 32.482-72.099-2.66m80.815 220.677s31.976 8.731 46.518-29.07c0 0 17.433 31.975 49.424 14.542 0 0 11.622-5.81 20.338-31.975 0 0-20.338 46.503-52.267 26.134 0 0-17.433-8.732-17.433-34.897-.062.031-8.793 55.266-46.58 55.266"/></g><path d="M895.942 57.479s20.353 52.267 40.691 75.572c0 0-52.313-17.432-40.691-75.572m-674.45 386.64S329.1 179.57 535.464 103.983c0 0 159.877-66.857 319.754-61.046 0 0-270.361-31.975-433.159 107.61.03-.046-142.414 107.517-200.569 293.574m715.142-250.008s-90.115 98.832-17.432 264.535c0 0-104.658-136.633 17.432-264.535m456.787 196.51s61.492 5.135 97.864-36.771c0 0-23.736 67.133-97.864 36.772m150.808-16.28s95.926 90.115 81.475 311.068c-.077 0 49.332-215.127-81.475-311.068" fill="#5DC5F9" fill-rule="nonzero"/><path d="M1157.571 1133.098s5.811 20.353 31.975 34.88c0 0-40.707-72.682 46.503-75.588l-52.344-37.817s-37.756 34.912-26.134 78.525" fill="url(#z)" fill-rule="nonzero"/><path d="M282.552 415.065l-23.26 8.717s43.552-159.908 203.429-258.74c0 0 142.444-107.61 380.83-104.658a30.054 30.054 0 0 0-2.905 11.622s-436.003 0-558.094 343.06zm261.645 49.393S648.855 240.615 858.17 144.704l5.78 5.796s-159.877 52.267-308.148 311.053" fill="#7DA4B7" fill-rule="nonzero"/><path d="M1183.705 1054.573a29.485 29.485 0 0 0 5.826 23.26s-34.896 26.133-26.134 66.856c0 .03-31.96-66.826 20.308-90.116" fill="#5DC5F9" fill-rule="nonzero"/><path d="M890.085 208.64s-95.942 78.493-151.176 264.55l11.637-8.732s26.21-116.28 139.539-255.818" fill="#7DA4B7" fill-rule="nonzero"/><g fill="#122A44" fill-rule="nonzero"><path d="M1198.278 1048.793s34.881 52.268 119.185 31.976l11.638 5.81s-84.305 46.519-148.27-34.88"/><path d="M1175.02 1057.51s20.353 52.267 66.87 58.14c0 0-43.612 2.905-78.493-49.424"/></g><path d="M1413.943 1117.863s-41.245 64.658-23.797 87.917c0 0 2.905 14.527 26.134 20.338 0 0-11.622-40.691 14.527-63.95a324.12 324.12 0 0 0 43.613 23.259l14.573-23.244s-33.82-1.414-75.05-44.304" fill="url(#A)" fill-rule="nonzero"/><g fill="#122A44" fill-rule="nonzero"><path d="M1265.18 1121.46s63.967 2.921 63.967-40.691l11.622 14.527s-5.857 34.896-75.588 26.164m-101.784-52.313s-20.353 29.07 0 75.572c0 0-37.801-34.88-34.896-55.234"/><path d="M1282.583 1167.978s63.95 23.26 75.588-58.14l-17.448-23.258s0 75.603-58.14 81.398m125.011-37.786s-29.07 40.692-14.543 81.4c0 0-31.975-17.449-2.905-90.132m75.588 119.201s110.038 60.846 127.686-77.14l-14.312-18.802s0 127.917-113.374 95.942"/></g><path d="M619.77 1106.933s-26.134 113.374 107.609 183.152c0 0-46.518-98.386-58.14-184.92" fill="url(#B)" fill-rule="nonzero"/><path d="M717.156 1083.674s-21.799 133.743 91.576 203.49l-5.811-40.692s-37.802-101.753-31.99-165.765" fill="url(#C)" fill-rule="nonzero"/><g fill="#122A44" fill-rule="nonzero"><path d="M1497.71 1188.317s71.913 12.406 81.014-35.957l-5.427-10.561s-5.826 43.628-75.588 46.518m-90.115-72.668s-5.826 26.134 43.597 58.14c0 0-31.975-2.905-52.267-46.502"/><path d="M1433.759 1109.915s37.786 58.14 127.901 23.26l11.637 20.353s-104.657 49.408-162.797-40.707"/></g><path d="M1422.121 1205.78s40.708 20.338 122.107 8.717c0-.047-78.494 52.329-122.107-8.717m-223.843-72.682s37.787 17.432 119.185 5.81c-.015 0-63.95 55.235-119.185-5.81" fill="#5DC5F9" fill-rule="nonzero"/><g fill="#122A44" fill-rule="nonzero"><path d="M584.889 1098.217s29.07 29.07 87.21 14.527l8.716-43.597-19.985-8.394s-9.224 19.985-6.241 40.37c0 0-34.881 8.716-61.046-14.543"/><path d="M586.334 1099.662s2.905 20.353 34.88 23.259c0 0-27.67 4.366-42.152-18.893m58.156 20.353s29.07 2.906 34.88-17.448l2.906 17.448a47.948 47.948 0 0 1-37.786 0"/><path d="M689.531 1074.958s-17.433 72.667 2.921 119.185c0 0-37.802-55.234-17.448-122.09m20.353-8.732s29.07 26.133 75.573 8.731v8.655s-49.408 26.134-78.478-8.716"/><path d="M686.626 1072.052a60.922 60.922 0 0 0 37.801 26.134s-29.07 0-43.612-17.448m63.95 17.479s26.134-5.827 26.134-20.354l2.921 14.527s-8.7 8.732-29.054 5.827"/><path d="M770.93 1089.485s-29.07 52.267 23.26 130.822c0 0-31.976-87.21-11.623-130.822"/><path d="M785.55 1083.674s40.691 26.134 75.588 0l11.621 8.716s-40.691 34.897-93.02 2.906"/><path d="M776.756 1095.296s8.717 17.448 46.503 23.259c0 0-29.07 2.905-49.408-8.716m63.966 5.81s23.26 0 34.88-26.133l8.717 14.542a61.737 61.737 0 0 1-43.597 11.592m11.607 23.259s29.07-2.906 37.801-26.134l2.86 14.512s-11.592 14.527-40.661 11.622m17.448-453.498s0-55.234 87.21-52.267c0 0-110.47-23.26-98.832 66.856m58.14 8.686s11.622 17.448 5.81 43.612l12.852-3.904s-1.23-31.007-18.662-39.708m-155.204-17.033s15.665-61.492 117.402-70.208c0 0-122.09-2.905-127.902 69.777"/></g><path d="M977.34 621.445s72.683 55.234 69.762 101.753l-78.401-8.717s40.615-26.164 8.64-93.036" fill="url(#D)" fill-rule="nonzero"/><path d="M756.341 1621.491s61.046-93.036 264.55 20.338c.062-.015-171.467-154.066-264.55-20.338" fill="#122A44" fill-rule="nonzero"/><g fill="#5DC5F9" fill-rule="nonzero"><path d="M756.341 1638.924s55.235-87.21 267.487 17.448c0 0-183.12-142.444-267.487-17.448"/><path d="M1096.526 1447.056s-238.724-126.702-379.524 34.881c-27.739 31.949-36.244 76.306-22.29 116.249 25.503 73.467 97.463 188.24 300.077 221.045 0 0 340.123 72.683 575.603-220.937l43.597-40.708s-235.465 409.84-732.59 252.867c0 0-224.98-66.348-215.22-273.727a28.224 28.224 0 0 1 .816-5.427c5.119-20.23 42.367-137.325 220.261-145.288 0 0 156.972-14.528 212.144 55.234l5.904 11.637a35.619 35.619 0 0 0-8.778-5.826z"/><path d="M1755.02 1242.03s-20.616 111.867 72.559 228.239l-10.085 26.21s-75.588 40.708-116.295 180.247l-46.503-90.131s-5.826-8.716-23.259-2.906l-31.975 11.638 2.905-11.638 34.881-14.527s20.354-5.81 29.07 11.622l31.976 66.872s20.353-98.847 110.468-162.798c0 0-81.398-127.917-66.856-223.843l13.113-18.986"/></g><path d="M1550.038 1641.814s72.668-87.21 78.494-113.374c0 0-20.354 72.682-52.268 113.374" fill="#122A44" fill-rule="nonzero"/><path d="M1628.532 1345.319s69.762-40.707 107.61-130.822l23.243-5.811s5.78 113.374-130.853 136.633" fill="#5DC5F9" fill-rule="nonzero"/><path d="M1747.717 1188.317s-23.259 104.658-119.185 156.987c0 0 98.832-43.613 142.444-142.46m-110.469 223.874s75.788 59.508 183.244 41.383v28.01s-107.656 3.274-183.244-69.393" fill="#122A44" fill-rule="nonzero"/><path d="M454.066 984.827l95.926-101.737h-5.81l-95.927 101.737h5.811m-23.259-2.905l104.658-101.738-26.164-2.92-101.753 101.752 23.26 2.906" fill="#FFF" fill-rule="nonzero" opacity=".63"/><path d="M491.852 888.9l87.21 17.449v-8.732l-87.21-8.716M474.42 970.3l95.926 8.716-2.906 8.732-93.02-17.448m270.36-104.658l130.808 20.353L855.25 1051.7l11.622-5.811 20.353-165.704-142.444-14.542m168.609 72.682l84.304 17.433-87.225-5.81 2.92-11.623m-14.542 84.305l84.304 17.448-84.304-8.732v-8.716" fill="#4F1A00" fill-rule="nonzero"/><path fill="#FFF" fill-rule="nonzero" d="M933.728 941.23l136.633 20.353 61.061 90.116-55.234-69.777-8.732 81.399h-5.811l5.81-93.021-133.727-29.07"/><path d="M1044.197 1048.793s37.801 0 46.518 40.692c0 0 0-43.597-46.518-40.692" fill="#4F1A00" fill-rule="nonzero"/><g fill="#FFF" fill-rule="nonzero"><path d="M634.297 862.736s-11.622 125.012-23.244 171.515c0 0 8.716-130.823 23.244-171.515"/><path d="M718.616 854.02l-95.941-8.732s-14.543 139.54-26.134 197.694c0 0 8.716-154.081 20.354-209.316M410.453 976.111l17.449-98.847 142.444 17.448-151.16-26.165-8.733 107.564"/><path opacity=".63" d="M872.683 836.572l-26.165 26.164-23.259-2.905 26.165-26.165 23.259 2.906"/></g></g></svg>