<svg viewBox="0 0 1967 1964" xmlns="http://www.w3.org/2000/svg">
  <g fill="#000" fill-rule="nonzero">
    <path d="M694.626866 1754.58209l168.059701 168.95522c52.922976 52.91425 138.718813 52.91425 191.641793 0l168.95522-168.95522-264.776117-264.77612-263.880597 264.77612zM1113.317058 582.755215l264.690122-264.690121 264.69012 264.69012-264.690121 264.690122zM1312.23881 1668.31343l614.92537-614.92537c52.91425-52.92298 52.91425-138.718815 0-191.641791l-168.95522-168.955224-710.74627 710.746265 264.77612 264.77612zM319.710066 1376.3039l709.6397-709.6397 264.690122 264.690121-709.6397 709.6397zM39.701493 1099.0597l168.955223 168.95523 265.97015-264.77612-264.77612-264.776123L40.895522 907.41791c-53.245433 52.592682-53.779994 138.38972-1.19403 191.64179zM1267.16418 209.208955L1098.20896 39.955224c-52.92298-52.914247-138.71882-52.914247-191.641796 0L291.641791 654.880597 556.41791 919.656716l710.74627-710.447761z"/>
  </g>
</svg>
