<svg viewBox="0 0 1990 1962" xmlns="http://www.w3.org/2000/svg">
  <g transform="translate(-10)" fill="#2B5EBA" fill-rule="nonzero">
    <ellipse cx="1582.77228" cy="980.099502" rx="416.831683" ry="418.905473"/>
    <ellipse cx="1056.0396" cy="201.99005" rx="200.990099" ry="201.99005"/>
    <ellipse cx="1056.0396" cy="1759.20398" rx="200.990099" ry="201.99005"/>
    <path d="M963.960396 1282.587066c12.143796 3.99541 24.845822 6.01097 37.623762 5.97015 60.172482-.18073 111.783972-43.1781 123.116602-102.568052 11.33264-59.389956-20.79028-118.524685-76.62759-141.0629-55.837313-22.538216-119.737058-2.162149-152.429606 48.606074v.995025c-3.925625 5.075372-6.941038 10.79949-8.910891 16.915423-138.613862 245.77114-416.831683 81.59204-416.831683 81.59204-109.855602-65.839187-249.014699-55.279131-347.78709 26.39174-98.77239 81.67087-135.891754 216.86831-92.768894 337.88608 43.12286 121.01778 157.203321 201.80001 285.110439 201.89133 113.010263.2158 216.624316-63.1841 268.316832-164.1791v-.99503c8.865712-17.21017 16.156435-35.19461 21.782178-53.73134 144.554455-333.33333 359.405941-257.71144 359.405941-257.71144M892.673267 835.820895c6.12194 11.299074 13.787018 21.681665 22.772277 30.845771 42.381125 42.835904 109.053436 49.407311 158.908026 15.662415 49.85459-33.744897 68.85548-98.305612 45.28708-153.875213-23.56841-55.569601-83.0707-86.503109-141.818868-73.7275h-.990099c-6.521813 1.078403-12.856598 3.088813-18.811882 5.970149-271.287128 75.621891-352.475247-238.80597-352.475247-238.80597-30.188612-120.840113-130.75786-210.889967-253.672653-227.13887-122.914793-16.248902-243.23532 44.600102-303.492645 153.483582C-11.87807 457.118738.154213 591.94388 78.7291 688.313881s207.749281 134.731075 325.825354 96.760745h.990099c18.335126-6.355471 36.201259-14.002979 53.465346-22.885572 335.643565-133.333333 433.663367 73.631841 433.663367 73.631841z"/>
  </g>
</svg>
