<svg xmlns="http://www.w3.org/2000/svg" viewBox="0 0 2000 1362">
  <g fill="#0175b0">
    <path d="M189.37 988.52L0 1362h439.78l189.37-373.48H189.37M439.95 494.34L251.09 866.81h439.78l188.86-372.47H439.95M690.53.16L501.67 372.63h439.78L1130.31.16H690.53"/>
  </g>
  <g fill="#00a2d0">
    <path d="M627.68 988.37l-189.37 373.47h439.77l189.38-373.47H627.68M878.26 494.18L689.4 866.65h439.77l188.87-372.47H878.26M1128.84 0L939.98 372.46h439.77L1568.62 0h-439.78"/>
  </g>
  <g fill="#0cf">
    <path d="M1059.06 988.37l-189.37 373.47h439.78l189.37-373.47h-439.78M1309.64 494.18l-188.86 372.47h439.78l188.86-372.47h-439.78M1560.22 0l-188.86 372.46h439.78L2000 0h-439.78"/>
  </g>
</svg>
