<svg id="svg" version="1.1" width="515" height="515" xmlns="http://www.w3.org/2000/svg" xmlns:xlink="http://www.w3.org/1999/xlink" style="display: block;"><g id="svgg"><path id="path0" d="M263.294 15.750 C 262.940 16.712,262.054 17.860,261.325 18.300 C 260.596 18.740,260.000 19.752,260.000 20.550 C 260.000 21.347,259.550 22.000,259.000 22.000 C 258.450 22.000,258.000 22.689,258.000 23.531 C 258.000 24.374,257.366 25.306,256.590 25.604 C 255.815 25.901,254.887 27.314,254.528 28.743 C 254.170 30.173,253.004 32.451,251.938 33.806 C 250.872 35.161,250.000 36.884,250.000 37.635 C 250.000 38.386,249.559 39.000,249.019 39.000 C 248.480 39.000,247.756 40.125,247.411 41.500 C 247.066 42.875,246.382 44.000,245.892 44.000 C 245.401 44.000,245.000 44.689,245.000 45.531 C 245.000 46.374,244.375 47.302,243.612 47.595 C 242.849 47.888,241.673 50.095,241.000 52.500 C 240.327 54.905,239.151 57.112,238.388 57.405 C 237.625 57.698,237.000 58.626,237.000 59.469 C 237.000 60.311,236.550 61.000,236.000 61.000 C 235.450 61.000,235.000 61.689,235.000 62.531 C 235.000 63.374,234.352 64.311,233.561 64.615 C 232.770 64.919,231.827 66.510,231.467 68.151 C 231.106 69.792,230.206 71.367,229.467 71.651 C 228.727 71.935,227.834 73.479,227.482 75.084 C 227.129 76.688,226.427 78.000,225.921 78.000 C 225.414 78.000,225.000 78.653,225.000 79.450 C 225.000 80.248,224.411 81.260,223.691 81.700 C 222.971 82.140,221.792 83.963,221.070 85.750 C 220.348 87.537,219.411 89.000,218.987 89.000 C 218.563 89.000,217.934 90.125,217.589 91.500 C 217.244 92.875,216.520 94.000,215.981 94.000 C 215.441 94.000,215.000 94.643,215.000 95.429 C 215.000 96.214,214.418 97.452,213.708 98.179 C 212.997 98.905,211.779 101.075,211.000 103.000 C 210.221 104.925,209.115 107.047,208.542 107.715 C 205.517 111.243,205.030 112.031,204.450 114.342 C 204.103 115.724,203.228 117.082,202.504 117.360 C 201.781 117.638,200.894 119.208,200.533 120.849 C 200.173 122.490,199.230 124.081,198.439 124.385 C 197.648 124.689,197.000 125.626,197.000 126.469 C 197.000 127.311,196.550 128.000,196.000 128.000 C 195.450 128.000,195.000 128.689,195.000 129.531 C 195.000 130.374,194.375 131.302,193.612 131.595 C 192.849 131.888,191.673 134.095,191.000 136.500 C 190.327 138.905,189.151 141.112,188.388 141.405 C 187.625 141.698,187.000 142.626,187.000 143.469 C 187.000 144.311,186.624 145.000,186.164 145.000 C 185.703 145.000,184.030 147.588,182.445 150.750 C 180.860 153.912,179.212 156.650,178.782 156.833 C 178.352 157.017,178.000 157.818,178.000 158.615 C 178.000 159.411,177.352 160.311,176.561 160.615 C 175.770 160.919,174.834 162.479,174.482 164.084 C 174.129 165.688,173.511 167.000,173.107 167.000 C 172.704 167.000,171.755 168.575,171.000 170.500 C 170.245 172.425,169.261 174.000,168.813 174.000 C 168.366 174.000,168.000 174.689,168.000 175.531 C 168.000 176.374,167.352 177.311,166.561 177.615 C 165.770 177.919,164.842 179.442,164.500 181.000 C 164.158 182.558,163.273 184.065,162.533 184.349 C 161.794 184.633,160.894 186.208,160.533 187.849 C 160.173 189.490,159.230 191.081,158.439 191.385 C 157.648 191.689,157.000 192.626,157.000 193.469 C 157.000 194.311,156.550 195.000,156.000 195.000 C 155.450 195.000,155.000 195.643,155.000 196.429 C 155.000 197.214,154.402 198.455,153.671 199.187 C 152.178 200.679,149.653 205.115,147.942 209.250 C 147.316 210.762,146.447 212.000,146.011 212.000 C 145.574 212.000,144.934 213.125,144.589 214.500 C 144.244 215.875,143.520 217.000,142.981 217.000 C 142.441 217.000,142.000 217.614,142.000 218.365 C 142.000 219.116,141.128 220.839,140.062 222.194 C 138.996 223.549,137.830 225.827,137.472 227.257 C 137.113 228.686,136.185 230.099,135.410 230.396 C 134.634 230.694,134.000 231.626,134.000 232.469 C 134.000 233.311,133.550 234.000,133.000 234.000 C 132.450 234.000,132.000 234.689,132.000 235.531 C 132.000 236.374,131.352 237.311,130.561 237.615 C 129.770 237.919,128.827 239.510,128.467 241.151 C 128.106 242.792,127.219 244.362,126.496 244.640 C 125.772 244.918,124.893 246.292,124.541 247.693 C 124.189 249.095,123.361 250.847,122.701 251.586 C 118.626 256.149,118.500 256.545,118.500 264.762 C 118.500 269.782,118.942 273.356,119.615 273.786 C 120.229 274.179,121.051 275.528,121.444 276.785 C 121.836 278.042,124.782 281.663,127.990 284.831 L 133.823 290.593 130.680 293.310 C 124.863 298.340,125.751 316.329,132.091 321.893 C 133.691 323.297,135.000 324.972,135.000 325.616 C 135.000 326.259,135.675 327.045,136.500 327.362 C 137.325 327.678,138.000 328.557,138.000 329.314 C 138.000 330.071,138.900 331.505,140.000 332.500 C 141.100 333.495,142.000 334.712,142.000 335.203 C 142.000 335.694,143.125 337.138,144.500 338.412 C 145.875 339.687,147.000 341.236,147.000 341.856 C 147.000 342.476,147.900 343.545,149.000 344.232 C 150.100 344.919,151.000 346.052,151.000 346.750 C 151.000 347.448,151.900 348.790,153.000 349.732 C 154.100 350.674,155.000 351.816,155.000 352.270 C 155.000 352.724,156.019 354.087,157.264 355.298 C 158.509 356.509,160.197 358.846,161.014 360.492 C 161.831 362.138,163.512 364.439,164.750 365.607 C 165.987 366.774,167.000 368.254,167.000 368.896 C 167.000 369.538,167.644 370.310,168.430 370.612 C 169.217 370.913,170.318 372.474,170.878 374.080 C 171.438 375.686,172.369 377.000,172.948 377.000 C 173.527 377.000,174.000 377.575,174.000 378.278 C 174.000 378.981,174.900 380.326,176.000 381.268 C 177.100 382.210,178.000 383.552,178.000 384.250 C 178.000 384.948,178.900 386.081,180.000 386.768 C 181.100 387.455,182.000 388.524,182.000 389.144 C 182.000 389.764,183.037 391.232,184.306 392.407 C 185.574 393.583,186.909 395.322,187.274 396.272 C 187.639 397.222,188.357 398.000,188.871 398.000 C 189.384 398.000,190.275 399.350,190.850 401.000 C 191.425 402.650,192.369 404.000,192.948 404.000 C 193.527 404.000,194.000 404.689,194.000 405.531 C 194.000 406.374,194.658 407.315,195.462 407.624 C 196.266 407.932,197.210 409.088,197.561 410.191 C 198.213 412.247,198.851 413.097,204.017 418.784 C 205.658 420.591,207.000 422.412,207.000 422.831 C 207.000 423.660,209.527 427.188,212.151 430.020 C 213.059 431.000,214.102 432.747,214.469 433.901 C 214.835 435.056,215.569 436.000,216.099 436.000 C 216.629 436.000,217.352 436.753,217.705 437.674 C 218.058 438.594,219.169 440.169,220.174 441.174 C 221.178 442.178,222.000 443.599,222.000 444.331 C 222.000 445.063,223.091 446.246,224.424 446.959 C 225.757 447.673,227.115 449.324,227.443 450.628 C 227.770 451.933,228.480 453.000,229.019 453.000 C 229.559 453.000,230.000 453.649,230.000 454.443 C 230.000 455.237,230.835 456.475,231.857 457.193 C 232.878 457.912,234.033 459.512,234.424 460.750 C 234.815 461.987,235.554 463.000,236.067 463.000 C 236.580 463.000,237.008 463.563,237.017 464.250 C 237.027 464.938,238.152 466.560,239.517 467.855 C 240.883 469.150,242.000 470.838,242.000 471.605 C 242.000 472.372,242.464 473.000,243.031 473.000 C 243.599 473.000,244.353 473.788,244.707 474.750 C 245.061 475.713,246.397 477.491,247.675 478.702 C 248.954 479.913,250.000 481.306,250.000 481.797 C 250.000 482.288,250.900 483.505,252.000 484.500 C 253.100 485.495,254.000 486.899,254.000 487.620 C 254.000 488.340,254.900 489.411,256.000 490.000 C 257.100 490.589,258.000 491.565,258.000 492.171 C 258.000 492.776,259.012 494.226,260.250 495.393 C 261.488 496.561,263.139 498.750,263.919 500.258 C 264.699 501.766,265.707 503.000,266.158 503.000 C 267.269 503.000,271.000 499.747,271.000 498.778 C 271.000 498.350,271.900 497.100,273.000 496.000 C 274.100 494.900,275.000 493.401,275.000 492.669 C 275.000 491.937,276.091 490.754,277.424 490.041 C 278.757 489.327,280.115 487.676,280.443 486.372 C 280.770 485.067,281.480 484.000,282.019 484.000 C 282.559 484.000,283.000 483.329,283.000 482.508 C 283.000 481.688,283.900 480.455,285.000 479.768 C 286.100 479.081,287.000 477.948,287.000 477.250 C 287.000 476.552,287.900 475.210,289.000 474.268 C 290.100 473.326,291.000 471.981,291.000 471.278 C 291.000 470.575,291.420 470.000,291.933 470.000 C 292.446 470.000,293.149 469.106,293.496 468.014 C 293.842 466.922,295.361 464.784,296.871 463.264 C 298.381 461.744,299.913 459.713,300.277 458.750 C 300.640 457.788,301.401 457.000,301.969 457.000 C 302.536 457.000,303.000 456.410,303.000 455.689 C 303.000 454.967,303.900 453.411,305.000 452.230 C 306.100 451.050,307.000 449.631,307.000 449.077 C 307.000 448.523,307.900 447.589,309.000 447.000 C 310.100 446.411,311.000 445.477,311.000 444.923 C 311.000 444.369,311.900 442.950,313.000 441.770 C 314.100 440.589,315.000 439.033,315.000 438.311 C 315.000 437.590,315.464 437.000,316.031 437.000 C 316.599 437.000,317.353 436.212,317.707 435.250 C 318.061 434.288,319.285 432.596,320.425 431.492 C 321.566 430.388,323.139 428.250,323.919 426.742 C 324.699 425.234,325.712 424.000,326.169 424.000 C 326.626 424.000,327.000 423.311,327.000 422.469 C 327.000 421.626,327.675 420.678,328.500 420.362 C 329.325 420.045,330.000 419.145,330.000 418.362 C 330.000 417.578,330.658 416.685,331.462 416.376 C 332.266 416.068,333.223 414.844,333.589 413.658 C 333.954 412.471,334.859 410.825,335.598 410.000 C 336.338 409.175,338.194 407.134,339.722 405.465 C 341.250 403.795,343.053 401.208,343.729 399.715 C 344.404 398.222,345.417 397.000,345.979 397.000 C 346.540 397.000,347.000 396.425,347.000 395.722 C 347.000 395.019,347.900 393.674,349.000 392.732 C 350.100 391.790,351.000 390.340,351.000 389.510 C 351.000 388.679,351.461 388.000,352.025 388.000 C 352.588 388.000,353.477 386.875,354.000 385.500 C 354.523 384.125,355.381 383.000,355.908 383.000 C 356.434 383.000,357.149 382.106,357.496 381.014 C 357.842 379.922,359.335 377.722,360.813 376.125 C 364.481 372.163,366.000 370.205,366.000 369.437 C 366.000 368.771,369.845 363.735,372.505 360.916 C 373.327 360.045,374.000 358.807,374.000 358.166 C 374.000 357.525,374.420 357.000,374.933 357.000 C 375.446 357.000,376.149 356.106,376.496 355.014 C 376.842 353.922,378.448 351.706,380.063 350.091 C 381.678 348.476,383.000 346.655,383.000 346.046 C 383.000 345.436,383.675 344.678,384.500 344.362 C 385.325 344.045,386.000 343.206,386.000 342.498 C 386.000 341.790,387.117 340.150,388.483 338.855 C 389.848 337.560,390.973 335.938,390.983 335.250 C 390.992 334.563,391.450 334.000,392.000 334.000 C 392.550 334.000,393.000 333.425,393.000 332.722 C 393.000 332.019,393.900 330.674,395.000 329.732 C 396.100 328.790,397.000 327.448,397.000 326.749 C 397.000 326.050,398.350 324.363,400.000 323.000 C 401.650 321.637,403.000 319.977,403.000 319.311 C 403.000 318.644,403.788 317.659,404.750 317.120 C 407.177 315.762,407.382 296.353,404.983 295.011 C 404.149 294.544,402.214 293.001,400.684 291.583 L 397.902 289.004 402.951 284.353 C 405.728 281.795,408.000 279.094,408.000 278.351 C 408.000 277.608,408.414 277.000,408.921 277.000 C 409.427 277.000,410.138 275.650,410.500 274.000 C 410.862 272.350,411.573 271.000,412.079 271.000 C 412.586 271.000,413.000 268.075,413.000 264.500 C 413.000 260.925,412.649 258.000,412.219 258.000 C 411.790 258.000,410.881 256.762,410.199 255.250 C 407.955 250.269,405.904 247.000,405.025 247.000 C 404.549 247.000,403.871 245.688,403.518 244.084 C 403.166 242.479,402.230 240.919,401.439 240.615 C 400.648 240.311,400.000 239.374,400.000 238.531 C 400.000 237.689,399.586 237.000,399.079 237.000 C 398.573 237.000,397.856 235.620,397.485 233.932 C 397.115 232.245,396.219 230.638,395.496 230.360 C 394.772 230.082,393.893 228.708,393.541 227.307 C 393.189 225.905,392.361 224.153,391.701 223.414 C 389.393 220.829,388.478 219.361,385.500 213.461 C 383.850 210.192,381.938 206.919,381.250 206.187 C 380.563 205.456,380.000 204.262,380.000 203.536 C 380.000 202.809,379.367 201.971,378.594 201.675 C 377.821 201.378,376.894 199.792,376.533 198.151 C 376.173 196.510,375.230 194.919,374.439 194.615 C 373.648 194.311,373.000 193.374,373.000 192.531 C 373.000 191.689,372.586 191.000,372.079 191.000 C 371.573 191.000,370.862 189.650,370.500 188.000 C 370.138 186.350,369.460 185.000,368.993 185.000 C 368.527 185.000,366.974 182.525,365.543 179.500 C 364.112 176.475,362.505 174.000,361.971 174.000 C 361.437 174.000,361.000 173.311,361.000 172.469 C 361.000 171.626,360.352 170.689,359.561 170.385 C 358.770 170.081,357.834 168.521,357.482 166.916 C 357.129 165.312,356.481 164.000,356.042 164.000 C 355.602 164.000,354.645 162.537,353.914 160.750 C 353.183 158.963,352.003 156.905,351.292 156.179 C 350.582 155.452,350.000 154.214,350.000 153.429 C 350.000 152.643,349.550 152.000,349.000 152.000 C 348.450 152.000,348.000 151.394,348.000 150.653 C 348.000 149.912,347.100 148.268,346.000 147.000 C 344.900 145.732,344.000 144.074,344.000 143.316 C 344.000 142.557,343.352 141.689,342.561 141.385 C 341.770 141.081,340.834 139.521,340.482 137.916 C 340.129 136.312,339.427 135.000,338.921 135.000 C 338.414 135.000,338.000 134.311,338.000 133.469 C 338.000 132.626,337.352 131.689,336.561 131.385 C 335.770 131.081,334.827 129.490,334.467 127.849 C 334.106 126.208,333.206 124.633,332.467 124.349 C 331.727 124.065,330.842 122.558,330.500 121.000 C 330.158 119.442,329.230 117.919,328.439 117.615 C 327.648 117.311,327.000 116.374,327.000 115.531 C 327.000 114.689,326.640 114.000,326.201 114.000 C 325.761 114.000,324.832 112.425,324.136 110.500 C 323.440 108.575,322.498 107.000,322.044 107.000 C 321.589 107.000,320.934 105.875,320.589 104.500 C 320.244 103.125,319.520 102.000,318.981 102.000 C 318.441 102.000,318.000 101.394,318.000 100.653 C 318.000 99.912,317.128 98.300,316.061 97.071 C 314.995 95.841,313.843 93.560,313.500 92.001 C 313.158 90.442,312.230 88.919,311.439 88.615 C 310.648 88.311,310.000 87.374,310.000 86.531 C 310.000 85.689,309.550 85.000,309.000 85.000 C 308.450 85.000,308.000 84.311,308.000 83.469 C 308.000 82.626,307.375 81.698,306.612 81.405 C 305.849 81.112,304.673 78.905,304.000 76.500 C 303.327 74.095,302.151 71.888,301.388 71.595 C 300.625 71.302,300.000 70.374,300.000 69.531 C 300.000 68.689,299.550 68.000,299.000 68.000 C 298.450 68.000,298.000 67.311,298.000 66.469 C 298.000 65.626,297.375 64.698,296.612 64.405 C 295.849 64.112,294.673 61.905,294.000 59.500 C 293.327 57.095,292.151 54.888,291.388 54.595 C 290.625 54.302,290.000 53.374,290.000 52.531 C 290.000 51.689,289.657 51.000,289.237 51.000 C 288.457 51.000,287.980 50.237,284.500 43.419 C 283.400 41.263,282.163 39.350,281.750 39.167 C 281.337 38.983,281.000 38.182,281.000 37.385 C 281.000 36.589,280.352 35.689,279.561 35.385 C 278.770 35.081,277.834 33.521,277.482 31.916 C 277.129 30.312,276.511 29.000,276.107 29.000 C 275.704 29.000,274.755 27.425,274.000 25.500 C 273.245 23.575,272.261 22.000,271.813 22.000 C 271.366 22.000,271.000 21.347,271.000 20.550 C 271.000 19.752,270.404 18.740,269.675 18.300 C 268.946 17.860,268.060 16.712,267.706 15.750 C 267.352 14.787,266.360 14.000,265.500 14.000 C 264.640 14.000,263.648 14.787,263.294 15.750 " stroke="none" fill="#000000" fill-rule="evenodd"></path></g></svg>