<svg viewBox="0 0 1900 2200" xmlns="http://www.w3.org/2000/svg">
  <path d="M1864.904 529.5233c-2.1162-1.2255-4.1259-2.3928-6.4122-3.8422l-.1693-.1071-.1727-.0993c-89.02-51.6539-179.3888-104.2824-266.7823-155.1776-55.549-32.3494-112.9899-65.8007-169.4797-98.6501-57.8825-33.636-116.6844-67.88-173.5506-100.9968-92.9645-54.1381-189.0935-110.1194-283.754-164.93L954.9902 0l-10.2657 4.0478c-9.7571 3.7125-18.1953 7.6732-26.5519 12.4614l-1.007.5967C786.9393 94.3802 652.2787 174.286 520.1398 252.5638c-57.8902 34.3842-116.7686 69.292-173.7078 103.0516-104.928 62.2102-213.4148 126.531-319.4074 189.763-25.9925 12.511-25.3232 40.2577-25.001 53.6355l.0017.0793c.0035 1.0104.037 2.0565.074 3.1244.0618 1.7997.1202 3.5-.0224 4.9494l-.0507.5122-.0009.5148c-.3093 243.1964-.6289 494.6722-1.2578 742.3485l-.6281 275.1443c-1.4048 20.3732 7.8995 38.3562 23.8101 46.0372 189.1906 108.8259 381.134 219.5593 566.759 326.6483l334.177 192.8204c9.1557 5.762 18.5905 8.8073 27.2977 8.8073 7.8969 0 15.298-2.472 21.4602-7.1592l484.4305-282.8227c60.6732-35.3894 122.319-71.4095 181.9346-106.2432 75.503-44.1174 153.5699-89.7313 230.0017-134.2651 18.85-8.8195 30.359-28.0873 28.2436-47.2385l1.5715-1041.6586c2.5535-30.9461-23.549-45.0207-34.9213-51.0894zM987.9963 2096.5085l.5955-444.277 164.3829-95.5379c45.571-26.6152 92.0417-53.6155 136.9822-79.7264 40.7355-23.6684 82.8577-48.1417 124.3974-72.379l.1633-.0949 2.5956-1.6454c5.1166-3.1114 12.7858-7.8012 18.4161-15.91l4.437-6.188v-7.633c-.8094-94.9325-1.0096-200.578-.6281-332.5045 0-20.4028.0352-40.8048.0695-61.2076.0653-38.1611.1332-77.5609-.0403-116.4476l385.0777-225.1576-.5997 386.5336-.934 584.8513c-113.3378 66.0333-228.4929 133.2495-339.9156 198.2872-66.2237 38.655-132.474 77.3249-198.7724 115.999l-296.2271 173.0378zM568.4234 840.8933l382.1754-224.4251 378.2815 223.2064-377.687 220.7876-130.4359-74.8624c-44.6586-25.6666-90.0621-51.68-133.9715-76.837-38.8023-22.2312-78.7749-45.1331-118.3625-67.8695zm-39.0704 65.0646l384.5176 220.467-.5963 437.9192-376.7667-219.5637-7.1546-438.8225zM77.342 646.5276l376.1481 215.9209 8.0748 495.8778c-1.0216 19.4586 8.6246 37.257 24.14 44.5895 53.4783 31.2841 107.9782 62.9777 160.6867 93.6302 33.6926 19.5928 68.5332 39.8528 102.811 59.8349l164.0435 95.5187-.2982 445.0627-837.4472-483.0122 1.8413-967.4225zm1709.4239-74.662l-382.88 223.8832-427.5797-252.157c-7.6443-5.3814-16.5903-8.2236-25.9058-8.2236-8.6865 0-17.0078 2.4842-24.0902 7.187l-433.419 254.5063-377.7745-216.433 262.5791-155.6872c176.075-104.5411 363.7387-215.697 573.5699-339.7334 188.9697 110.5767 372.0265 216.9767 526.4049 306.6096 54.0814 31.5576 109.065 63.5612 162.2392 94.5109 48.14 28.0202 97.764 56.9037 146.8561 85.5372zm-798.1526 992.7669l.2973-438.2573 378.8512-221.3746v439.1849c-145.4866 84.3857-266.614 154.8126-379.1485 220.447zm512.6601-79.3018c14.0024-3.627 25.5852-13.7105 29.7859-25.8722 7.6056-16.145 4.613-35.8206-7.7208-50.3412l-.183-.2108c-8.6994-9.7018-20.6973-15.2662-32.916-15.2662-4.417 0-8.7913.71-13.004 2.1098-15.6872 4.6871-27.4256 18.2521-30.6656 35.4948-3.1017 16.9046 2.5759 34.1115 14.4852 44.0756 7.3127 7.5242 17.4667 11.6574 28.6784 11.6574 4.0966 0 7.7697-.5244 11.5399-1.6472zm206.4042 140.7383c7.512 6.5477 16.9898 10.1452 26.7684 10.1452 5.7893 0 11.6-1.249 17.3309-3.7394 15.3951-6.803 26.374-21.355 27.5176-36.3703 2.9582-17.5632-4.9301-35.4155-20.2213-45.6627-7.3427-5.0826-15.7362-7.768-24.2801-7.768-7.8342 0-15.4836 2.2812-22.1364 6.6008-13.1011 7.9632-21.3812 22.1598-22.163 38.0052-.794 15.6878 5.9336 30.8199 17.184 38.7892h-.0001zm-1318.828-231.9197c-4.1724 0-8.3317.6324-12.3648 1.878-15.9743 4.6175-28.1139 17.9944-31.7053 34.9879-3.5829 17.3541 2.2347 34.9469 14.828 44.9493 7.7448 6.8996 17.6643 10.694 27.9756 10.694 3.4041 0 7.029-.4373 10.2236-1.2334 14.3117-3.2665 26.5475-13.4902 31.3513-26.1571 7.5154-16.1312 4.528-35.507-7.676-49.539-8.3283-9.9021-20.2162-15.5797-32.6325-15.5797h.0001zm1195.517 157.5878c7.9673 6.3587 17.6986 9.8586 27.4084 9.8586 5.6605 0 10.8595-.9485 15.89-2.898 14.902-5.5896 26.136-18.8602 28.2093-33.2196 4.1448-16.0118-1.1187-33.1264-13.8486-44.8543-8.3196-7.844-18.947-12.1635-29.9353-12.1635-5.0367 0-9.9418.9163-14.5832 2.723-15.2817 5.5111-26.4806 19.347-29.2489 36.1881-2.7572 17.1703 3.5648 34.5758 16.1083 44.3657zm-1290.4675-72.355c-8.1993-7.1958-17.8602-10.9988-27.9463-10.9988-5.2995 0-10.5029 1.0696-15.4707 3.1776-16.2174 5.9023-27.2659 20.8575-28.8683 39.135-1.587 18.5004 6.908 35.9974 21.6518 44.6374 6.7705 4.2456 14.6726 6.5818 22.2756 6.5818 6.1622 0 12.1732-1.3928 18.9162-4.3832l.1538-.0697c13.937-6.4589 23.8402-19.4856 25.4074-33.3346 3.4127-16.2-2.8672-33.6769-16.1195-44.7454v-.0001zm651.095-1362.7504c-2.5364 0-5.0684.2273-7.5352.6742-14.8865 1.7813-28.3183 11.6617-35.125 25.8687l-.0944.203c-6.8822 15.1852-5.8864 31.7048 2.654 44.2516 8.086 12.929 23.0455 20.948 39.1125 20.948 2.8397 0 5.718-.364 8.5112-.7186l.2269-.0278.226-.0392c18.7855-3.2412 33.1152-16.4604 36.619-33.731 3.9841-15.0545.012-30.7274-10.6652-42.046-8.7166-9.7785-21.0727-15.383-33.9298-15.383v.0001zm-780.1092 1432.402c-6.7808-3.8413-14.3117-5.8718-21.779-5.8718-7.4974 0-14.883 2.0427-21.3743 5.9093-14.279 7.9484-23.1425 23.6293-23.1425 40.9764 0 17.342 9.2475 33.285 23.591 40.7377 5.987 3.553 13.0229 5.4294 20.376 5.4294 8.433 0 16.8626-2.5435 24.4235-7.384 14.1184-9.1453 22.536-25.4715 21.1235-40.83.1323-15.916-8.721-30.8016-23.2182-38.967zm804.1278-1128.557c-7.817-5.005-16.763-7.6505-25.8714-7.6505-8.0404 0-15.866 2.0897-22.6536 6.046-13.5677 7.188-22.0368 20.449-23.2491 36.427-1.2192 16.0657 5.7326 31.6551 17.7399 39.877 7.9544 6.31 17.763 9.6435 28.3982 9.6435 6.6185 0 13.3004-1.4755 19.8587-4.3849l.0997-.0435c16.1254-7.3579 26.2623-21.5213 27.1344-37.9042 1.1736-16.8472-6.8246-32.5332-21.4568-42.0103v-.0001zm-56.9459-75.7482c8.3875 7.9371 19.094 12.1295 30.9956 12.1295 6.6193 0 13.3013-1.4755 19.8931-4.3997 17.0173-7.6218 27.789-23.6832 27.5373-40.9955.6736-16.6878-8.3299-32.3137-23.5712-40.8527l-.0989-.055c-7.243-3.9537-15.3023-6.0433-23.3066-6.0433-8.8772 0-17.3215 2.5287-24.4494 7.3151-12.0649 7.0922-20.2015 20.2138-21.7987 35.1891l-.0258.2779c-1.1702 14.6268 4.5022 28.9192 14.8246 37.4346z" fill="#1ABC9C" fill-rule="evenodd"/>
</svg>
