<svg viewBox="0 0 2000 2000" xmlns="http://www.w3.org/2000/svg">
  <path d="M1000 2000c552.28475 0 1000-447.71525 1000-1000S1552.28475 0 1000 0 0 447.71525 0 1000s447.71525 1000 1000 1000zm457.41627-1531.100478c35.88517 4.30622 72.2488 6.698564 107.6555 13.397129 70.33493 13.875598 93.30144 48.803827 81.33971 119.617225-4.78469 28.708134-22.48804 46.411483-50.7177 51.196172-16.74641 2.870813-33.49282 3.349282-50.7177 3.827751-230.62201.478469-461.72249.956938-692.344501 1.913876-34.92823 0-69.37799 3.349282-103.349282 9.090909-114.354067 18.660287-157.416268 66.028708-166.985646 181.339713-4.30622 54.066985-4.30622 54.066985 49.760765 54.066985h946.889954c14.83253.478469 29.1866 3.349283 41.62679 11.483254 42.10527 26.794258 31.57895 68.899521 29.18661 107.655504-1.91388 31.10048-20.57417 48.32536-52.63158 54.54545-13.39713 2.39235-27.27273 2.87082-40.66986 2.87082H612.440191c-34.928229 0-34.44976 0-31.578947 34.44976 2.392345 31.57894 4.30622 62.67942 11.961723 93.30143 14.354066 56.9378 49.282296 92.3445 105.741626 108.13397 62.679426 17.70335 127.272728 21.5311 191.866029 22.00957 225.358848 1.43541 450.239238.95694 675.598088.95694 28.70813 0 55.50239 3.82775 72.2488 30.14354 32.53589 50.7177 7.17704 121.5311-49.76076 139.71292-48.80383 15.78947-100 19.61723-150.71771 20.09569-211.48325 3.82776-422.9665 4.30622-634.449758 0-65.07177-1.4354-130.14354-9.56937-194.258373-22.48803-150.717703-31.10048-225.83732-107.65551-251.196172-258.85168-5.741627-34.92823-9.090909-70.33493-13.397129-105.26316V866.028708c2.870813-27.272727 5.263158-54.545454 8.61244-81.339713 20.095694-171.291866 96.650718-255.502392 265.07177-292.822966 59.808613-13.397129 121.052632-16.267943 181.339713-22.488039 218.660289-.478468 438.277509-.478468 657.894739-.478468z" fill="#BC87ED" fill-rule="nonzero"/>
</svg>
