<svg viewBox="0 0 1999 1866" xmlns="http://www.w3.org/2000/svg">
  <g fill-rule="nonzero" fill="none">
    <circle fill="#DE2813" transform="rotate(-1.146 318.179445 1477.827994)" cx="318.179445" cy="1477.82799" r="203.257094"/>
    <circle fill="#E71619" cx="138.216283" cy="1066.65161" r="138.028457"/>
    <circle fill-opacity="0" fill="#EB6617" cx="217.422486" cy="621.116717" r="121.721297"/>
    <circle fill="#EC6816" cx="473.095449" cy="253.040833" r="104.831739"/>
    <circle fill="#F2961B" cx="902.90558" cy="80.068464" r="79.788601"/>
    <circle fill="#F1C621" cx="1350.18767" cy="142.967507" r="66.393435"/>
    <circle fill="#F3C620" cx="1711.27477" cy="430.089993" r="49.503877"/>
    <circle fill="#156192" cx="1883.66474" cy="851.164145" r="115.314913"/>
    <circle fill="#2090C0" cx="1821.34809" cy="1295.53424" r="103.084543"/>
    <circle fill="#338DCC" cx="1547.03838" cy="1649.63256" r="80.371"/>
    <circle fill="#38BAE8" cx="1118.39304" cy="1812.70415" r="52.998268"/>
    <circle fill="#36BBE6" cx="691.494906" cy="1750.38751" r="36.691109"/>
    <circle fill="#EB6617" transform="rotate(-3.17 218.601583 620.577776)" cx="218.601583" cy="620.577776" r="195.691784"/>
    <path fill="#3F3F3F" d="M661.210181 787.100304l162.489196-92.601369-.582399 538.718655-161.906797 91.43658V787.100304zM1308.83737 787.100304l162.4892-92.601369-.5824 538.718655-161.9068 91.43658zM984.441377 787.100304l162.489193-92.601369-.5824 538.718655-161.906793 91.43658z"/>
    <path fill="#686A69" d="M503.962572 691.004543l158.994805-93.766166 160.742 97.260558-162.489196 92.601369-157.247609-96.095761zM826.61137 691.004543l158.994804-93.766166 160.741996 97.260558-161.906793 92.601369-157.830007-96.095761zM1151.58976 691.586942l158.99481-93.766167 160.742 97.260558-162.4892 92.60137-157.24761-96.095761z"/>
  </g>
</svg>
