<svg viewBox="0 0 1969 1964" xmlns="http://www.w3.org/2000/svg">
  <g fill-rule="nonzero" fill="none">
    <circle fill="#0184CB" cx="1200" cy="981.818182" r="313.636364"/>
    <circle fill="#4ACBF4" cx="313.636364" cy="981.818182" r="313.636364"/>
    <path d="M1968.18182 313.636364C1968.18182 140.909091 1827.27273 0 1654.54545 0c-95.45454 0-181.81818 45.454546-240.90909 113.636364C1359.09091 168.181818 1286.36364 200 1200 200c-81.81818 0-154.54545-31.818182-213.636364-86.363636C927.272727 45.454546 840.909091 0 745.454545 0 572.727273 0 431.818182 140.909091 431.818182 313.636364c0 172.727272 140.909091 313.636363 313.636363 313.636363 95.454546 0 186.363637-45.454545 240.909091-113.636363C1040.90909 459.090909 1113.63636 427.272727 1200 427.272727c81.81818 0 154.54545 31.818182 213.63636 86.363637 59.09091 68.181818 145.45455 113.636363 240.90909 113.636363 172.72728 0 313.63637-140.909091 313.63637-313.636363zM1968.18182 1650c0-172.72727-140.90909-313.63636-313.63637-313.63636-95.45454 0-181.81818 45.45454-240.90909 113.63636-54.54545 54.54545-127.27272 86.36364-213.63636 86.36364-81.81818 0-154.54545-31.81819-213.636364-86.36364-59.090909-68.18182-145.454545-113.63636-240.909091-113.63636-172.727272 0-313.636363 140.90909-313.636363 313.63636 0 172.72727 140.909091 313.63636 313.636363 313.63636 95.454546 0 186.363637-45.45454 240.909091-113.63636 54.545454-54.54545 127.272724-86.36364 213.636364-86.36364 81.81818 0 154.54545 31.81819 213.63636 86.36364 59.09091 68.18182 145.45455 113.63636 240.90909 113.63636 172.72728 0 313.63637-140.90909 313.63637-313.63636z" fill="#4ACBF4"/>
  </g>
</svg>
