<svg viewBox="0 0 1990 1990" xmlns="http://www.w3.org/2000/svg">
  <path d="M1826.75612 1223.08355c19.87632-72.65011 30.48878-149.12749 30.48878-228.08355 0-476.204708-386.04019-862.244898-862.2449-862.244898-476.204708 0-862.244898 386.04019-862.244898 862.244898 0 79.60061 10.786434 156.68191 30.977401 229.862l225.170793-227.17733c-.690901-5.900889-1.046153-11.904354-1.046153-17.990792 0-84.533381 68.527844-153.061225 153.061224-153.061225 84.43181 0 152.896523 68.363264 153.060928 152.756581l125.32872 128.442646-94.943712 92.64192-94.128502-96.46722c-25.136347 18.09209-55.982419 28.74852-89.317434 28.74852-28.479957 0-55.143177-7.77838-77.981133-21.32662l-248.389417 250.60286.055652.11811-19.554691 19.55469-13.540114 13.66077-.060597-.06006-65.689584 65.68958C41.928687 1321.98109.102041 1163.37511.102041 995 .10204 445.53303 445.53303.10204 995 .10204S1989.89796 445.53303 1989.89796 995 1544.46697 1989.89796 995 1989.89796c-260.551306 0-497.70956-100.15757-675.073858-264.07179l93.884441-93.88444.154713.14121 750.447964-756.849277c-.69074-5.900235-1.04591-11.903023-1.04591-17.988765 0-84.53338 68.52784-153.061225 153.06122-153.061225 84.43181 0 152.89652 68.363265 153.06093 152.756582l357.26662 366.143295zm-50.80198 137.88039L1405.74601 981.5576c-25.13635 18.09209-55.98242 28.74852-89.31744 28.74852-28.48254 0-55.14801-7.77979-77.98735-21.330306L519.29344 1714.25792C655.642399 1804.61841 819.175412 1857.2449 995 1857.2449c345.36447 0 643.30434-203.04882 780.95414-496.28096zM540.918367 1040.91837c33.813352 0 61.22449-27.41114 61.22449-61.224492 0-33.813352-27.411138-61.22449-61.22449-61.22449s-61.224489 27.411138-61.224489 61.22449 27.411137 61.224492 61.224489 61.224492zm775.510203-122.448982c33.81335 0 61.22449-27.411138 61.22449-61.22449s-27.41114-61.22449-61.22449-61.22449-61.22449 27.411138-61.22449 61.22449 27.41114 61.22449 61.22449 61.22449z" fill="#294DA8" fill-rule="nonzero"/>
</svg>
