<svg viewBox="0 0 2000 2000" xmlns="http://www.w3.org/2000/svg">
  <path d="M468.75 729.367062v541.265878l267.09625-154.20813c-14.95875-35.04625-23.24375-73.6645-23.24375-114.23187 0-41.924753 8.84875-81.767815 24.767688-117.73794L468.75 729.367062zm35.6505-51.585937l264.28625 152.58575C815.20175 766.94575 886.812938 723.33475 968.75 714.410813V394.091875l-464.3495 283.68925zM1531.25 1270.63294V729.367062L1262.62981 884.455c15.919 35.970125 24.76775 75.813187 24.76775 117.738 0 40.56731-8.285 79.18562-23.24375 114.23187L1531.25 1270.63294zm-28.66688 55.61794l-269.03187-155.32563c-46.43844 65.09463-119.03844 109.98156-202.30125 119.04994v316.44894l471.33312-280.17325zm-1005.166245-.00001L968.75 1606.42412v-316.44893c-83.262812-9.06838-155.862813-53.95532-202.30125-119.04994l-269.031875 155.32562zM1495.5995 677.781125L1031.25 394.091875v320.318937c81.93706 8.923938 153.54825 52.535 200.06325 115.956063l264.28625-152.58575zM1000 2000C447.71525 2000 0 1552.28475 0 1000S447.71525 0 1000 0s1000 447.71525 1000 1000-447.71525 1000-1000 1000z" fill="#CA4F44" fill-rule="evenodd"/>
</svg>
