<svg xmlns="http://www.w3.org/2000/svg" width="58" height="38" viewBox="271.564 686.417 58 38"><path fill="#AA1422" d="M324.053 710.273a4.213 4.213 0 0 1-4.207 4.218H304.51a4.213 4.213 0 0 1-4.208-4.218v-19.482c0-2.33 1.856-4.307 4.179-4.307l17.628.162c2.324 0 1.944 1.815 1.944 4.145v19.482z"/><path fill="#466790" d="M306.254 711.491c0 1.743-1.694 3.156-3.783 3.156h-20.896c-2.088 0-4.09-2.341-4.09-4.084l.106-19.922c0-1.743 1.436-3.979 3.525-3.979l16.266-.245h5.909c2.089 0 2.962 1.793 2.962 3.536v21.538z"/><path fill="#AA1422" d="M323.721 724.177l-7.639-10.013h-5.534l7.839 10.013z"/><path fill="#466790" d="M277.553 724.417l7.028-9.829h6.169l-7.167 9.829z"/><path fill="#2C3B4D" d="M297.031 686.417l-21.766.335c-2.088 0-3.594 2.077-3.594 3.82l-.106 19.922c0 1.743 2.001 4.083 4.09 4.083h1.899v9.812l7.595-9.74 11.576.018c2.087 0 3.608-1.501 3.608-3.244v-21.538c-.001-1.744-1.215-3.468-3.302-3.468z"/><path fill="#AA1422" d="M300.332 706.743v-12.492h-5.636v12.492"/><path fill="#F0081D" d="M325.906 686.683l-16.064-.199c-2.285 0-3.587 2.06-3.587 4.383v4.668l-5.922-1.308v12.54l5.922-1.175v4.711c0 2.323 1.408 4.208 3.692 4.208l6.232-.008 7.542 9.675v-9.685l2.154-.002c2.285 0 3.734-1.864 3.734-4.187v-19.435c0-2.325-1.417-4.186-3.703-4.186z"/></svg>
