<svg xmlns="http://www.w3.org/2000/svg" viewBox="0 0 2000 2000">
  <path d="M747.28 33.49C1175.42-85.88 1664.12 123 1874.6 515.16c156.26 276.7 167.33 629 28.49 915.13-131.37 279.47-399.65 488.87-702.5 548.69-376.14 81.71-789.34-80-1011.71-394.69C1.64 1329.75-50.64 983.53 51.14 684.39c103.16-316 374.48-569.19 696.14-650.9m139.67 29.09c-170.09 19.94-333.83 88.35-468.79 193.6-345.44 259-464.92 767.51-270.49 1153.34 190.56 415.48 705.26 638.15 1138.1 491.08 447.5-130.46 743.43-627.35 642.2-1084.09-83.24-472.25-566.7-822.63-1041.02-753.93z" fill="#283583"/>
  <path d="M490.34 1545c59.74-67.58 165.39-32.68 217.11 28.25 58.08-173.94 100.4-352.59 142.16-531.24-50.06-.28-100.12-.28-149.9.55-40.93-35.73-65-92.23-15.21-133.5 68.31-15.79 139.12-9.42 208.54-12.46 2.77-20.77 8.57-62.32 11.34-83.09-63.89-10.53-174 11.63-185-78.39 14.1-113.84 147.14-74 225.68-81.43 48.12-105 105.65-209.12 195.26-284.73 84.08-75.62 200.52-100.54 310.59-100-362-249-904.67-131.29-1152.21 227.4C32.34 847.53 102 1405.92 459.09 1668.21c-3.6-43.48-6.36-93.06 31.25-123.21" fill="#eac549"/>
  <path d="M1565.11 345.92c11.34 49 19.91 109.68-22.13 147.63-51.72 51.52-144.65 34.07-178.39-29.36-3.87-18.56-11.89-55.4-16-73.68-7.47 8.59-22.68 25.76-30.15 34.07-38.17 70.35-68.87 144.3-94.31 220.2 62.78 1.66 171.75 2.22 160.14 94.45-24.89 86.14-134.69 53.18-201.9 63.15-4.43 20.22-13.55 60.11-18 80 50.63 8.91 121.63-4.1 149.63 52.4 19.36 49.3-27.11 78.39-56.7 108-45.08-.83-90.44-1.11-135.8-1.11-70.25 245.13-112.29 556.17-370.06 677.77a69.5 69.5 0 0 1-6.91 2.49c-59.19 12.19-119.48 13.85-179.22 15.51 11.06 8.86 33.19 26.31 44.25 35.18 393.56 210.78 932.61 45.15 1142.53-349.27 202.99-343.71 121.91-823.71-186.98-1077.43" fill="#c99805"/>
</svg>
