<svg viewBox="0 0 1995 1995" xmlns="http://www.w3.org/2000/svg">
  <g transform="translate(-4 -4)" fill="none" fill-rule="evenodd">
    <circle fill="#FFF" cx="1000" cy="1000" r="991.189427"/>
    <g fill="#3686BE" fill-rule="nonzero">
      <path d="M1001.03084 3.99119C450.378855 3.99119 4 450.378854 4 1001.00441c0 550.65198 446.378855 997.03083 997.03084 997.03083 550.62555 0 997.0044-446.37885 997.0044-997.03083 0-550.625555-446.37885-997.01322-997.0044-997.01322zm619.03083 504.105726c-7.84141 109.700441-160.837 279.480177-216.77533 345.154185-55.98238 65.674009-103.74449 135.814978-119.04845 137.321586-15.29516 1.480176-117.56829-8.607929-135.81498 36.185023-8.21146 20.14978 110.07929 15.30396 110.07929 15.30396s-191.42731 270.13216-203.36564 272.01763c-11.94713 1.85903-145.251097-7.28635-228.449335 9.5066-83.215859 16.78414-114.466961 63.2511-114.466961 63.2511s118.281939 10.44053 200.748899 14.17622c82.449339 3.71806 209.312777 5.22467 209.312777 5.22467s-91.03084 49.25991-235.81498 41.40969c-144.784141-7.84141-202.61674-19.39207-202.61674-19.39207s20.14978 52.59912 60.079295 77.98238c39.929516 25.37444 107.462555 45.5066 105.973569 49.2511-1.497798 3.72687-87.68282-2.23789-144.035243-29.48018-56.352422-27.23348-66.422907-70.51101-74.255506-63.4185-7.832599 7.0837 14.546255 61.18943 33.947136 79.46255 19.409692 18.29075 68.669604 52.25551 62.334802 54.48458-6.352423 2.2467-117.54185-41.03083-138.440529-66.41409-9.894273 21.09251-115.118942 131.72687-119.312775 120.06167-4.193832-11.6652 78.361234-98.22907 83.955947-123.4185 5.603525-25.17181-1.39207-63.52423-20.149779-62.39648-18.731278 1.10133-51.488987 68.83701-51.488987 68.83701s-12.317181-26.59031-7.268723-54.85463c5.030837-28.26431 24.9163-48.98678 24.9163-48.98678s-39.471366-42.25551-57.929516-60.71366c-18.484581-18.47577-61.004405-50.6696-55.982378-61.56828 5.048458-10.9163 66.881057 24.06167 88.149779 39.17181 21.277533 15.11013 68.008811 60.74008 68.008811 60.74008s-17.911894-56.81057-31.339207-95.16299c-13.436123-38.3348-35.54185-81.43612-30.502203-85.35683 5.039648-3.9207 45.330397 49.25991 62.678414 75.84141 17.348018 26.5815 44.784141 77.51542 44.784141 77.51542s-4.484581-71.36564 1.392071-118.37886c5.876652-47.02202 25.744493-94.31718 35.259912-90.95154 9.515418 3.35683 10.916299 41.69163 31.330396 90.11454 20.440529 48.4141 34.431718 70.52863 43.665198 64.64317 9.242291-5.87665 17.814978-67.91189 12.220265-158.20264-5.594714-90.29075-13.048458-159.32159-13.048458-159.32159s55.127753-58.035239 59.321585-55.233477c4.193833 2.792951 1.400882 94.317177 5.312776 132.916297 3.920705 38.63436 15.400881 76.69604 20.713656 76.13216 5.312775-.55507 29.938326-41.12775 45.99119-138.14978 16.035242-97.022025 23.497797-145.894272 23.497797-145.894272s104.854625-97.682819 108.77533-96.555066c3.911895 1.101321 8.114538 54.290749 14.555066 73.321586 6.431718 19.030837 18.193833 27.982379 18.193833 27.982379s24.334805-25.471366 31.339205-83.955948c6.9956-58.484581 7.54185-81.718061 13.4185-94.590308 5.87666-12.872247 161.48018-136.281938 244.88106-199.53304 83.39207-63.251101 262.48458-172.942731 274.81057-169.312775 12.31718 3.647577 68.29075 63.53304 60.45815 173.23348z"/>
      <path d="M832.370044 1258.47577s215.674006-214.92511 309.700436-326.123347c94.03525-111.189427 265.67401-359.700441 265.67401-359.700441s-216.41409 237.312776-323.87665 363.436124C976.405286 1062.19383 832.370044 1258.47577 832.370044 1258.47577z"/>
    </g>
  </g>
</svg>
