<svg viewBox="0 0 2000 1215" xmlns="http://www.w3.org/2000/svg">
  <path d="M1953.24213 0h-649.54856l-192.5855 488.891929H503.72093V237.181943h607.38714L1200 0H280.246238c-23.859306 0-43.201094 19.341789-43.201094 43.201094V488.89193H88.891929L0 725.937073h237.045144v445.061557c0 24.17663 19.599026 43.77565 43.775649 43.77565h445.11628l88.864569-237.017782H503.69357V725.937073h503.72093L814.801642 1214.77428h296.306428l207.4145-488.864567h637.94802c24.02995.000004 43.51431-19.472107 43.52941-43.502052V46.757866C2000 20.93421 1979.06579 0 1953.24213 0zm-204.95212 451.436389c0 20.716344-16.79391 37.510259-37.51026 37.510259H1407.4145l103.69357-251.709986h199.53488c20.69069-.090886 37.54154 16.600769 37.64706 37.291382v176.908345z" fill="#4096D0" fill-rule="nonzero"/>
</svg>
