<?xml version="1.0" encoding="iso-8859-1"?>
<!-- Generator: Adobe Illustrator 18.0.0, SVG Export Plug-In . SVG Version: 6.00 Build 0)  -->
<!DOCTYPE svg PUBLIC "-//W3C//DTD SVG 1.1//EN" "http://www.w3.org/Graphics/SVG/1.1/DTD/svg11.dtd">
<svg version="1.1" id="Capa_1" xmlns="http://www.w3.org/2000/svg" xmlns:xlink="http://www.w3.org/1999/xlink" x="0px" y="0px"
	 viewBox="0 0 315.274 315.274" style="enable-background:new 0 0 315.274 315.274;" xml:space="preserve">
<path d="M256.432,269.038c-17.705,3.227-25.475-0.382-38.336-6.348c-10.785-4.967-24.221-11.221-44.018-13.198
	c-21.67-2.376-42.908,2.987-62.016,8.45c10.467-28.334,10.445-54.029,8.906-77.78h97.689v-45.055H118.393
	c0.043-13.723,1.436-27.712,5.906-42.813c6.33-17.908,18.592-40.192,41.121-45.878c19.797-4.982,44.607,3.915,66.332,23.828
	l30.385-33.272C228.713,6.413,189.444-6.056,154.446,2.776c-32.912,8.252-58.766,34.961-72.822,75.108l-0.33,0.974
	c-6.066,20.317-7.887,38.971-7.916,56.249H51.418v45.055h24.43c2.301,32.771,1.855,60.309-25.086,96.231l18.008,36.021
	c16.91,0,33.99-4.933,50.471-9.663c17.279-4.983,35.103-10.125,49.977-8.492l0.229,0.031c12.318,1.235,20.408,4.98,29.717,9.275
	c12.051,5.569,25.275,11.709,45.061,11.709c6.072,0,12.785-0.58,20.289-1.939L256.432,269.038z"/>
<g>
</g>
<g>
</g>
<g>
</g>
<g>
</g>
<g>
</g>
<g>
</g>
<g>
</g>
<g>
</g>
<g>
</g>
<g>
</g>
<g>
</g>
<g>
</g>
<g>
</g>
<g>
</g>
<g>
</g>
</svg>
