<svg viewBox="0 0 1990 1996" xmlns="http://www.w3.org/2000/svg">
  <g fill-rule="nonzero" fill="none">
    <path d="M1989.93484 1073.92068c-24.64589 277.6204-141.64306 507.93201-353.82436 688.66856-147.30878 125.49575-319.26345 200.56657-510.48158 224.92917C676.903683 2045.0255 247.441926 1798 74.92068 1379.86969c-38.526912-93.48442-62.889519-190.36827-71.954674-291.21813 4.532578-60.33995 4.532578-120.679889 0-180.736546C46.025496 538.509915 232.994334 268.82153 564.155807 99.699717c68.555241-35.127479 141.359774-59.773371 216.430595-75.354108C1002.68272-21.546742 1219.3966-2.566572 1423.64589 98.849858c311.04816 154.107649 496.034 404.815864 558.07366 745.892352 4.81586 25.779036 5.66572 52.407932 8.21529 78.470255-4.24929 50.141643-4.24929 100.283285 0 150.708215z" fill="#8BC53E"/>
    <path d="M3.249292 908.1983c10.481586 60.339944 10.481586 120.67989 0 180.73654C-1 1028.5949-1 968.254958 3.249292 908.1983z" fill="#89C439"/>
    <path d="M1989.93484 1073.92068c-10.1983-50.14164-10.1983-100.283286 0-150.424929v150.424929z" fill="#88C337"/>
    <path d="M1015.71388 1171.08782c-2.54957-2.26629-5.09915-4.53258-7.36544-6.79887-6.23229-27.47875-6.51558-54.95751.28329-82.43626h489.8017c7.36544 7.08215 4.81586 16.4306 4.81586 24.92918.28329 95.18414 0 190.36827 0 285.55241 0 7.36544 1.41643 15.01416-3.966 21.52974-147.87536 123.22946-317.56374 186.11898-510.764876 181.01983-154.390935-3.966-294.617564-55.24079-404.249292-161.75637-86.402266-83.85269-136.827196-196.034-156.090652-315.86402-39.660056-244.192638 30.878187-455.807369 227.478754-607.365443 174.787535-134.560907 376.203966-156.373938 585.835696-80.453258 69.12181 24.929179 132.86119 59.490085 192.06799 103.116148 14.44759 10.481586 21.24646 17.280453 5.94901 33.711048-33.42777 35.977337-65.15581 73.371104-97.16714 110.764872-13.59774 15.864023-24.36261 13.314448-40.22663 1.133145-64.87252-49.575071-137.39377-82.719547-218.69689-94.050992-7.36544 2.549575-14.44759 4.815864-20.96317-1.983003-106.51558-15.29745-202.549574 12.747876-286.11898 77.053825-195.467422 149.858357-198.300283 479.036828-37.110481 647.308778 66.005666 68.55524 152.407932 98.86686 246.458923 107.36544 24.929178-4.53258 49.858358-4.24929 75.070818 0 80.73655-4.81586 153.25779-34.5609 223.51275-71.95467 14.73088-7.93201 19.26346-21.81303 18.98017-37.67706-.56657-30.31161-3.11615-60.62322-.56657-90.36827 3.39943-36.82719-11.89802-47.59207-45.32578-39.66005-80.73654 1.983-161.1898 6.79886-241.64306-3.11615z" fill="#FEFEFE"/>
    <path d="M1015.71388 1037.37677c-1.983-1.13314-3.966-1.69972-6.23229-1.41643-8.78187-30.02833-8.2153-60.056657-.28329-90.368272l-1.13314 1.133144c5.949-6.51558 13.88102-4.815864 21.24645-4.815864h449.0085c7.36544 0 15.29745-1.699716 21.24646 4.815864l-1.41643-1.133144c8.2153 30.028329 8.78187 60.056662-.28328 90.084982-2.26629-.28328-4.2493 0-5.94901 1.41643-62.32295 5.94901-124.92918 2.54958-187.25213 2.26629-96.31728 0-192.63456 3.96601-288.95184-1.983z" fill="#FEFEFD"/>
    <path d="M1499.56657 947.008499h-491.50141c8.78187-13.314448 22.66289-8.78187 34.5609-8.78187 140.7932-.283286 281.5864-.283286 422.37961 0 11.89801 0 25.77903-4.532578 34.5609 8.78187z" fill="#84C131"/>
    <path d="M1015.71388 1037.37677h475.92068c-7.93201 8.78187-18.4136 6.51558-28.32861 6.51558h-419.26346c-9.63173 0-20.11331 1.983-28.32861-6.51558z" fill="#89C43A"/>
    <path d="M1499.28329 1414.14731c-.28329-110.76487-.56658-221.52975-.84986-332.01133 5.94901 3.68272 8.49858 9.06515 8.49858 15.58073v313.03117c0 1.13314-.56657 2.83286-1.41643 3.11614-1.69972.28329-3.966.28329-6.23229.28329z" fill="#86C334"/>
    <path d="M1015.71388 1171.08782c80.45326.84986 160.90652 1.69972 241.35977 2.54957-52.40793 14.16431-105.949 4.81587-158.92351 5.66573-27.19547.28328-56.37394 9.91501-82.43626-8.2153z" fill="#82C12E"/>
    <path d="M1009.1983 945.592068c0 30.028329.28329 60.339942.28329 90.368272-14.730882-30.02833-14.447596-60.056657-.28329-90.368272z" fill="#84C333"/>
    <path d="M1497.86686 1035.96034c0-30.02833.28328-60.056657.28328-90.084986 14.44759 30.028329 15.01417 60.056656-.28328 90.084986z" fill="#87C334"/>
    <path d="M1008.63173 1081.85269c0 27.47875-.28329 54.95751-.28329 82.43626-13.881018-27.47875-12.464587-54.95751.28329-82.43626z" fill="#86C233"/>
    <path d="M1060.47309 1413.58074c-24.92918 3.68272-49.85836 3.966-75.070824 0 25.212464-10.76488 50.141644-10.48159 75.070824 0z" fill="#80C02B"/>
    <path d="M1062.1728 581.852691c7.08216.566572 13.88102 1.416431 20.96318 1.983003-11.89802 9.915014-24.6459 6.798867-47.0255 1.983003 14.73088-2.266289 20.3966-3.116147 26.06232-3.966006z" fill="#82C12D"/>
  </g>
</svg>
