<svg viewBox="0 0 2000 2000" xmlns="http://www.w3.org/2000/svg">
  <g fill-rule="nonzero" fill="none">
    <path d="M2000 1000c0 552.29818-447.70545 1000-1000 1000C447.698182 2000 0 1552.29818 0 1000 0 447.701818 447.698182 0 1000 0c552.29455 0 1000 447.701818 1000 1000z" fill="#85A4AF"/>
    <circle fill="#6590A2" cx="1000" cy="1000" r="936.363636"/>
    <path d="M1573.99273 655.785455h-16.43637c-7.66909 13.283636-16.66545 23.54909-26.99272 30.781818-10.33091 7.232727-21.90909 12.036363-34.73455 14.396363-12.82545 2.36-35.17091 3.538182-67.03273 3.538182H1274.52l-1.02182-1.247273c18.89818-17.567272 64.21091-65.450909 136.07637-143.832727 49.00727-53.447273 84.43636-104.087273 106.28363-151.927273 14.17455-30.407272 21.26546-60.825454 21.26546-91.247272 0-42.52-16.30546-79.44-48.89819-110.745455-32.59636-31.301818-73.23636-46.956363-121.90545-46.956363-45.72727 0-83.86545 14.621818-114.38909 43.865454C1221.39636 231.654545 1202.44364 273.6 1195.06545 328.24h16.35637c11.19636-33.316364 28.50545-58.603636 51.93454-75.850909 23.42182-17.247273 49.86909-25.876364 79.33819-25.876364 32.41454 0 60.26181 12.243637 83.54545 36.72 23.28 24.472728 34.92 55.734546 34.92 93.774546 0 49.905454-21.22545 104.970909-63.66909 165.196363-31.23636 44.32-79.20727 98.101819-143.79636 161.28-73.38182-46.44-159.47273-69.749091-258.407277-69.749091-124.970909 0-227.472728 38.294546-307.527273 114.858182-80.054545 76.563637-120.083636 167.956364-120.083636 274.203633 0 69.54546 17.527272 133.04 52.614545 190.45455 35.058182 57.44364 85.341818 102.16 150.850909 134.17454-80.312727 67.24364-131.563636 119.23273-153.778182 155.96728-22.214545 36.76-33.323636 68.80727-33.323636 96.13818 0 24.26182 8.381818 45.93818 25.170909 65.08364 16.76 19.14909 45.454546 40.8509 86.021818 65.08363-74.374545 77.10182-114.290909 119.17455-119.745454 126.19273-14.501818 17.97818-27.243637 34.54545-38.301818 49.76364 35.88 18.86181 73.04 35.60363 111.327272 50.06909-.523636-3.89091-.836363-7.82182-.836363-11.81819 0-28.69454 9.403636-60.11272 28.265454-94.20363 18.865455-34.14909 46.734546-70.96727 83.665455-110.51273 94.461818 13.43636 229.545454 22.52727 405.254547 27.27273 120.22909 3.09818 200.65454 13.15273 241.25091 30.2 39.82909 17.01818 59.74545 45.65454 59.74545 85.93818 0 8.26909-.82909 16.45455-2.29818 24.58182 29.96-15.62546 59.01818-32.72727 87.10545-51.20364.41455-6.17454.64728-12.37454.64728-18.60363 0-63.86546-21.70546-117.58546-65.05818-161.19273-43.35273-43.60727-101.36364-70.48364-174.00728-80.62546-47.66909-7.78545-151.96-13.83636-312.869088-18.18181-87.501818-2.58546-142.189091-5.62546-164.061818-9.09091-37.501819-5.39637-62.698182-14.29091-75.596364-26.67637-12.898182-12.35636-19.32-25.11272-19.32-38.26545 0-15.45455 6.050909-34.17455 18.181818-56.22182 12.130909-22.04727 35.425455-47.75636 69.858182-77.13091 55.341818 15.85091 109.545455 23.74909 162.556364 23.74909 128.607276 0 231.109086-35.59636 307.527276-106.84727 76.39272-71.22182 114.60363-156.93091 114.60363-257.13091 0-79.861818-18.22909-146.705455-54.55636-200.6h162.44727l52.97455-153.374545zm-423.50546 593.207275c-38.12363 44.37454-86.73454 66.56363-145.82545 66.56363-62.243638 0-113.578184-25.68363-154.007275-77.10181-52.898181-67.72728-79.345454-163.12364-79.345454-286.192732 0-95 19.432727-165.454545 58.323636-211.421818 38.890909-45.938182 87.130909-68.92 144.687273-68.92 62.21455 0 113.18182 25.709091 152.84 77.101818 53.66545 70.083637 80.51273 167.047273 80.51273 290.850912 0 95.02909-19.06182 164.74545-57.18546 209.12z" fill="#FFF"/>
  </g>
</svg>
