<svg viewBox="0 0 2000 2000" xmlns="http://www.w3.org/2000/svg">
  <g fill-rule="nonzero" fill="none">
    <circle fill="#7F27FF" cx="1000" cy="1000" r="1000"/>
    <g fill="#FFF">
      <path d="M966.666667 866.666667H533.333333V1300c-.43952 44.336028 16.978778 86.984196 48.330625 118.336042 31.351846 31.351847 74.000014 48.770146 118.336042 48.330625h266.666667v-600zm66.666666 0h433.333334V1300c.439521 44.336028-16.978779 86.984196-48.330625 118.336042-31.351846 31.351847-74.000014 48.770146-118.336042 48.330625h-266.666667v-600zM1033.333333 800h420.155039c46.511625 0 80.000005-40 80.000005-80 0-46.511628-40-80-80.000005-80H553.333333c-46.511628 0-80 40-80 80 0 46.511628 40 80 80 80h413.333334V693.333334h66.666666"/>
    </g>
    <g fill="#FFF">
      <path d="M1075.595162 682.953446l-58.167068-32.573558c48.518783-86.640684 92.690912-145.168755 134.083534-176.213221 49.00704-36.75528 99.221481-37.085639 138.570226 2.263107 36.69177 36.69177 45.00735 79.600165 21.150523 121.035707-19.52861 33.918112-59.974144 65.581187-122.457825 98.660783l-31.192514-58.919195c52.31517-27.696266 84.126795-52.600225 95.875508-73.005884 7.935501-13.782712 5.917087-24.197728-10.516144-40.63096-14.191559-14.191559-27.383716-14.104768-51.429774 3.929775-32.30303 24.227272-71.554112 76.234956-115.916466 155.453446zM982.571906 650.379888l-58.167067 32.573558C880.042485 603.734956 840.791402 551.727272 808.488372 527.5c-24.046057-18.034543-37.238214-18.121334-51.429774-3.929774-16.43323 16.43323-18.451644 26.848247-10.516144 40.630959 11.748713 20.405659 43.560339 45.309618 95.875509 73.005884l-31.192515 58.919195c-62.48368-33.079596-102.929215-64.742671-122.457824-98.660783-23.856828-41.435542-15.541247-84.343938 21.150522-121.035707 39.348746-39.348746 89.563187-39.018387 138.570226-2.263107 41.392623 31.044466 85.564751 89.572537 134.083534 176.213221z"/>
    </g>
  </g>
</svg>
