<svg viewBox="0 0 2000 2000" xmlns="http://www.w3.org/2000/svg">
  <defs>
    <linearGradient x1="0%" y1="94.33%" x2="0%" y2="-5.67%" id="a">
      <stop stop-color="#33ACC1" offset="0%"/>
      <stop stop-color="#16B9AD" offset="79%"/>
    </linearGradient>
  </defs>
  <g fill-rule="nonzero" fill="none">
    <path fill="url(#a)" d="M0 0h2000v2000H0z"/>
    <path d="M1690.16667 821.266667c0 380.566663-309.6 690.166663-690 690.166663-380.400003 0-690.000003-309.6-690.000003-689.999997a684.26641 684.26641 0 0 1 5.1-83.966666h124a567.066712 567.066712 0 0 0-6.233334 83.966666c0 312.799997 254.5 567.299997 567.299997 567.299997 298.43334 0 543.83334-231.66666 565.73334-524.63333H688.3c18.653498 136.82728 124.363591 245.48956 260.625315 267.90385 136.261725 22.41429 271.208695-46.66126 332.708015-170.30385h132.83334c-60.39086 177.48264-226.99103 296.89239-414.46667 297.06667-241.2 0-437.5-196.3-437.5-437.500003A438.400025 438.400025 0 0 1 570.6 737.3h1114.46667a684.267611 684.267611 0 0 1 5.1 83.966667z" fill="#FFF"/>
  </g>
</svg>
