<svg viewBox="0 0 2000 2000" xmlns="http://www.w3.org/2000/svg">
  <g fill="none" fill-rule="evenodd">
    <path fill="#14B3F9" d="M0 0h2000v2000H0z"/>
    <g fill="#FFF">
      <path d="M907.335907 853.281853h73.359073v73.359073h-73.359073zM1131.274131 853.281853h73.359073v73.359073h-73.359073zM1131.274131 965.250965h73.359073v73.359073h-73.359073zM1131.274131 1077.220077h73.359073v73.359073h-73.359073zM1131.274131 1189.189189h73.359073v73.359073h-73.359073zM1131.274131 1301.158301h73.359073v73.359073h-73.359073zM1131.274131 1413.127415h73.359073v73.359073h-73.359073zM1131.274131 1525.096525h73.359073v73.359073h-73.359073zM1019.305019 741.312741h73.359073v73.359073h-73.359073zM1243.243243 853.281853h73.359073v73.359073h-73.359073zM1243.243243 965.250965h73.359073v73.359073h-73.359073zM1243.243243 1077.220077h73.359073v73.359073h-73.359073zM1243.243243 1189.189189h73.359073v73.359073h-73.359073zM1243.243243 1301.158301h73.359073v73.359073h-73.359073zM1243.243243 1413.127415h73.359073v73.359073h-73.359073zM1243.243243 1525.096525h73.359073v73.359073h-73.359073zM1131.274131 741.312741h73.359073v73.359073h-73.359073zM683.397683 405.405405h185.328185v1193.05019H683.397683z"/>
    </g>
  </g>
</svg>
