<svg viewBox="0 0 1960 1963" xmlns="http://www.w3.org/2000/svg" xmlns:xlink="http://www.w3.org/1999/xlink">
  <defs>
    <path id="a" d="M.004262 3.256152H1957.11485V1965.14012H.004262z"/>
  </defs>
  <g fill="none" fill-rule="evenodd">
    <g transform="translate(0 -2.711211)">
      <mask id="b" fill="#fff">
        <use xlink:href="#a"/>
      </mask>
      <path d="M957.285318 228.350137c-151.442573 0-292.205413 46.813055-409.316002 127.059124-163.034305 157.766576-264.9137 381.920713-264.9137 630.630555 0 242.113804 96.543787 460.936434 252.069037 617.925494 119.599405 85.73992 265.135308 136.07314 422.160665 136.07314 407.287452 0 737.455782-338.40567 737.455782-755.844158 0-417.447026-330.16833-755.844155-737.455782-755.844155m999.829532 755.844155c0 541.763498-438.11634 980.946688-978.555292 980.946688-540.438953 0-978.555296-439.18319-978.555296-980.946688 0-541.754955 438.116343-980.93814 978.555296-980.93814 540.438952 0 978.555292 439.183185 978.555292 980.93814" fill="#689432" fill-rule="nonzero" mask="url(#b)"/>
    </g>
    <path fill="#9ABB4B" fill-rule="nonzero" d="M1419.22693 1458.97881l-246.89537-138.60219V379.911826l246.89537 133.646616z"/>
    <path fill="#689432" fill-rule="nonzero" d="M1419.22267 988.741284L826.680587 1132.2905 579.793734 998.64388l592.542086-143.557756z"/>
    <path fill="#689432" fill-rule="nonzero" d="M826.68485 1602.52632l-246.895376-138.61074V523.459329L826.68485 657.097403z"/>
    <path d="M957.285319 225.638927c-151.442574 0-292.205413 46.813055-409.316003 127.059126-163.034305 157.766573-264.9137 381.92071-264.9137 630.630552 0 242.113813 96.543787 460.936433 252.069037 617.925493 119.599405 85.73992 265.135308 136.07314 422.160666 136.07314 407.287446 0 737.455786-338.40567 737.455786-755.844156 0-417.447027-330.16834-755.844155-737.455786-755.844155m1001.875136 755.844155c0 477.631576-375.5977 864.841086-838.94311 864.841086-463.336884 0-838.943105-387.20951-838.943105-864.841086 0-477.631579 375.606221-864.84108 838.943105-864.84108 463.34541 0 838.94311 387.209501 838.94311 864.84108" fill="#9ABB4B" fill-rule="nonzero"/>
  </g>
</svg>
