<svg viewBox="0 0 2000 2000" xmlns="http://www.w3.org/2000/svg">
  <g fill="none" fill-rule="evenodd">
    <rect fill="#252933" width="2000" height="2000" rx="1000"/>
    <path d="M425.209243 608.695653c-76.262633 92.781537-120.861417 204.97404-120.861417 325.825346 0 319.36466 311.454087 578.260868 695.652174 578.260868 384.198085 0 695.652175-258.896208 695.652175-578.260868 0-120.851306-44.59879-233.043809-120.86142-325.825346 102.77584 112.77053 164.33968 256.390229 164.33968 412.781868 0 362.586944-330.91997 656.521736-739.130435 656.521736-408.210467 0-739.130435-293.934792-739.130435-656.521736 0-156.391639 61.563841-300.011338 164.339678-412.781868z" fill="#D6D9D6"/>
    <g fill="#D6D9D6">
      <path d="M951.027638 426.086957C671.573453 450.607469 445.755069 665.27278 400 941.86208c77.104109-219.720985 275.516891-384.178402 516.885131-416.618083l34.142507-99.15704zM1052.173913 426.086957c279.454185 24.520512 505.272567 239.185823 551.027637 515.775123-77.10411-219.720985-275.51689-384.178402-516.88513-416.618083l-34.142507-99.15704z"/>
    </g>
    <path fill="#FFF" d="M1137.28104 864.844407l-132.03275 540.728401-140.728402-540.7284z"/>
    <path fill="#E20000" d="M868.777213 829.971297l132.03275-392.902315 140.728402 392.902315z"/>
  </g>
</svg>
