<svg viewBox="0 0 1973 1988" xmlns="http://www.w3.org/2000/svg">
  <g fill-rule="nonzero" fill="none">
    <g fill="#B2A3F6">
      <ellipse cx="757.260274" cy="540.410959" rx="123.287671" ry="122.054795"/>
      <ellipse cx="1109.45205" cy="400.958904" rx="123.287671" ry="122.054795"/>
      <ellipse cx="1250.41096" cy="1237.80822" rx="123.287671" ry="122.054795"/>
      <ellipse cx="70.410959" cy="1115.75342" rx="70.410959" ry="69.726027"/>
      <ellipse cx="264.109589" cy="1586.57534" rx="52.876712" ry="52.328767"/>
      <ellipse cx="827.671233" cy="1935.20548" rx="52.876712" ry="52.328767"/>
      <ellipse cx="1743.56164" cy="1621.36986" rx="52.876712" ry="52.328767"/>
      <ellipse cx="1180" cy="1516.84932" rx="52.876712" ry="52.328767"/>
      <ellipse cx="1496.9863" cy="1272.73973" rx="52.876712" ry="52.328767"/>
      <ellipse cx="1127.12329" cy="1917.80822" rx="70.410959" ry="69.726027"/>
      <ellipse cx="1444.10959" cy="1046.0274" rx="70.410959" ry="69.726027"/>
      <ellipse cx="1549.86301" cy="1743.42466" rx="70.410959" ry="69.726027"/>
      <ellipse cx="158.356164" cy="1377.39726" rx="88.082192" ry="87.123288"/>
      <ellipse cx="1003.83562" cy="1691.09589" rx="123.287671" ry="122.054795"/>
      <ellipse cx="334.520548" cy="1098.35616" rx="123.287671" ry="122.054795"/>
      <ellipse cx="1003.83562" cy="1412.19178" rx="88.082192" ry="87.123288"/>
      <ellipse cx="581.09589" cy="680" rx="52.876712" ry="52.328767"/>
      <ellipse cx="915.753425" cy="836.849315" rx="105.616438" ry="104.657534"/>
      <ellipse cx="1162.32877" cy="976.30137" rx="70.410959" ry="69.726027"/>
      <ellipse cx="1285.61644" cy="122.054795" rx="52.876712" ry="52.328767"/>
      <ellipse cx="1039.0411" cy="87.123288" rx="88.082192" ry="87.123288"/>
      <ellipse cx="1091.91781" cy="662.465753" rx="70.410959" ry="69.726027"/>
      <ellipse cx="422.60274" cy="1394.79452" rx="105.616438" ry="104.657534"/>
      <ellipse cx="1444.10959" cy="1499.31507" rx="105.616438" ry="104.657534"/>
      <ellipse cx="1303.28767" cy="1743.42466" rx="105.616438" ry="104.657534"/>
      <ellipse cx="475.479452" cy="1726.0274" rx="123.287671" ry="122.054795"/>
      <ellipse cx="105.616438" cy="836.849315" rx="105.616438" ry="104.657534"/>
    </g>
    <g transform="translate(136.986301 95.890411)" fill="#FC4C04">
      <ellipse cx="496.986301" cy="880.410959" rx="140.958904" ry="139.452055"/>
      <ellipse cx="1236.71233" cy="671.232877" rx="140.958904" ry="139.452055"/>
      <ellipse cx="1624.10959" cy="1298.90411" rx="105.616438" ry="104.657534"/>
      <ellipse cx="1729.86301" cy="880.410959" rx="105.616438" ry="104.657534"/>
      <ellipse cx="1324.79452" cy="409.726027" rx="88.082192" ry="87.123288"/>
      <ellipse cx="1342.32877" cy="148.219178" rx="70.410959" ry="69.726027"/>
      <ellipse cx="1500.82192" cy="235.342466" rx="52.876712" ry="52.328767"/>
      <ellipse cx="1782.73973" cy="653.835616" rx="52.876712" ry="52.328767"/>
      <ellipse cx="267.945205" cy="200.547945" rx="52.876712" ry="52.328767"/>
      <ellipse cx="197.534247" cy="653.835616" rx="52.876712" ry="52.328767"/>
      <ellipse cx="338.493151" cy="723.561644" rx="52.876712" ry="52.328767"/>
      <ellipse cx="514.520548" cy="60.958904" rx="52.876712" ry="52.328767"/>
      <ellipse cx="1782.73973" cy="1107.12329" rx="52.876712" ry="52.328767"/>
      <ellipse cx="1606.57534" cy="479.452055" rx="123.287671" ry="122.054795"/>
      <ellipse cx="1500.82192" cy="793.287671" rx="88.082192" ry="87.123288"/>
      <ellipse cx="303.287671" cy="409.726027" rx="88.082192" ry="87.123288"/>
      <ellipse cx="690.684932" cy="165.616438" rx="88.082192" ry="87.123288"/>
      <ellipse cx="461.780822" cy="217.945205" rx="70.410959" ry="69.726027"/>
      <ellipse cx="74.246575" cy="496.849315" rx="70.410959" ry="69.726027"/>
      <ellipse cx="1553.69863" cy="1054.79452" rx="70.410959" ry="69.726027"/>
      <ellipse cx="796.438356" cy="1037.39726" rx="123.287671" ry="122.054795"/>
      <ellipse cx="567.39726" cy="1159.45205" rx="70.410959" ry="69.726027"/>
      <ellipse cx="602.60274" cy="1403.42466" rx="105.616438" ry="104.657534"/>
      <ellipse cx="602.60274" cy="1647.53425" rx="70.410959" ry="69.726027"/>
    </g>
  </g>
</svg>
