<svg id="svg" version="1.1" width="515" height="515" xmlns="http://www.w3.org/2000/svg" xmlns:xlink="http://www.w3.org/1999/xlink" style="display: block;"><g id="svgg"><path id="path0" d="M259.000 8.680 C 258.175 9.028,256.772 10.143,255.883 11.157 C 254.993 12.170,253.746 13.000,253.111 13.000 C 252.476 13.000,251.445 14.125,250.818 15.500 C 250.192 16.875,249.301 18.000,248.839 18.000 C 248.378 18.000,248.000 18.675,248.000 19.500 C 248.000 20.325,247.550 21.000,247.000 21.000 C 246.417 21.000,246.000 24.333,246.000 29.000 C 246.000 33.667,246.417 37.000,247.000 37.000 C 247.550 37.000,248.000 37.933,248.000 39.074 C 248.000 40.248,250.269 43.392,253.231 46.324 L 258.462 51.500 269.398 51.500 C 277.511 51.500,280.446 51.163,280.769 50.193 C 281.350 48.451,285.847 44.000,287.026 44.000 C 287.541 44.000,288.244 42.875,288.589 41.500 C 288.934 40.125,289.618 39.000,290.108 39.000 C 290.599 39.000,291.000 34.950,291.000 30.000 C 291.000 25.050,290.599 21.000,290.108 21.000 C 289.618 21.000,288.925 19.836,288.568 18.414 C 287.891 15.717,283.794 11.000,282.129 11.000 C 281.600 11.000,280.986 10.457,280.764 9.793 C 280.328 8.483,261.720 7.531,259.000 8.680 M324.000 26.000 C 324.000 26.550,323.132 27.000,322.071 27.000 C 319.416 27.000,317.000 29.654,317.000 32.571 C 317.000 33.907,316.550 35.000,316.000 35.000 C 315.450 35.000,315.000 36.575,315.000 38.500 C 315.000 40.425,315.414 42.000,315.921 42.000 C 316.427 42.000,317.157 43.437,317.542 45.193 C 318.732 50.609,320.422 51.500,329.497 51.500 C 338.573 51.500,340.269 50.606,341.458 45.193 C 341.843 43.437,342.573 42.000,343.079 42.000 C 343.586 42.000,344.000 40.425,344.000 38.500 C 344.000 36.575,343.550 35.000,343.000 35.000 C 342.450 35.000,342.000 33.907,342.000 32.571 C 342.000 29.880,339.637 27.000,337.429 27.000 C 336.643 27.000,336.000 26.550,336.000 26.000 C 336.000 25.444,333.333 25.000,330.000 25.000 C 326.667 25.000,324.000 25.444,324.000 26.000 M166.514 34.309 C 163.156 36.323,161.000 39.194,161.000 41.653 C 161.000 42.944,160.550 44.000,160.000 44.000 C 159.450 44.000,159.000 45.575,159.000 47.500 C 159.000 49.425,159.450 51.000,160.000 51.000 C 160.550 51.000,161.000 52.055,161.000 53.345 C 161.000 55.764,163.763 59.000,165.829 59.000 C 166.473 59.000,167.000 59.450,167.000 60.000 C 167.000 60.556,169.667 61.000,173.000 61.000 C 176.333 61.000,179.000 60.556,179.000 60.000 C 179.000 59.450,179.830 59.000,180.845 59.000 C 183.075 59.000,186.000 55.977,186.000 53.671 C 186.000 52.752,186.450 52.000,187.000 52.000 C 187.550 52.000,188.000 49.750,188.000 47.000 C 188.000 44.250,187.550 42.000,187.000 42.000 C 186.450 42.000,186.000 41.373,186.000 40.606 C 186.000 34.747,172.861 30.502,166.514 34.309 M207.250 51.661 C 206.012 51.924,205.000 52.558,205.000 53.070 C 205.000 53.581,204.530 54.000,203.955 54.000 C 202.219 54.000,198.125 58.654,197.432 61.414 C 197.075 62.836,196.382 64.000,195.892 64.000 C 195.401 64.000,195.000 65.350,195.000 67.000 C 195.000 68.650,194.550 70.000,194.000 70.000 C 193.450 70.000,193.000 71.350,193.000 73.000 C 193.000 74.650,193.450 76.000,194.000 76.000 C 194.550 76.000,195.000 77.575,195.000 79.500 C 195.000 81.425,195.450 83.000,196.000 83.000 C 196.550 83.000,197.000 83.739,197.000 84.642 C 197.000 86.149,202.218 92.000,203.562 92.000 C 203.882 92.000,204.857 92.714,205.729 93.586 C 208.426 96.283,227.194 95.241,229.785 92.250 C 230.857 91.013,232.244 90.000,232.867 90.000 C 233.490 90.000,234.000 89.490,234.000 88.867 C 234.000 88.244,235.012 86.855,236.250 85.779 C 238.320 83.980,238.500 82.973,238.500 73.162 L 238.500 62.500 233.017 57.000 L 227.533 51.500 218.517 51.342 C 213.557 51.255,208.488 51.399,207.250 51.661 M369.121 51.647 C 365.320 53.316,360.000 59.870,360.000 62.883 C 360.000 64.597,359.550 66.000,359.000 66.000 C 358.450 66.000,358.000 67.125,358.000 68.500 C 358.000 69.875,358.450 71.000,359.000 71.000 C 359.550 71.000,360.000 72.555,360.000 74.455 C 360.000 76.830,360.766 78.626,362.452 80.205 C 366.502 83.997,367.864 85.000,368.958 85.000 C 369.531 85.000,370.000 85.450,370.000 86.000 C 370.000 86.578,373.167 87.000,377.500 87.000 C 381.833 87.000,385.000 86.578,385.000 86.000 C 385.000 85.450,385.710 85.000,386.577 85.000 C 388.621 85.000,394.000 79.621,394.000 77.577 C 394.000 76.710,394.450 76.000,395.000 76.000 C 395.564 76.000,396.000 73.167,396.000 69.500 C 396.000 65.833,395.564 63.000,395.000 63.000 C 394.450 63.000,394.000 62.100,394.000 61.000 C 394.000 59.900,393.550 59.000,393.000 59.000 C 392.450 59.000,392.000 58.394,392.000 57.653 C 392.000 52.785,376.060 48.601,369.121 51.647 M107.000 69.000 C 107.000 69.550,106.394 70.000,105.653 70.000 C 98.617 70.000,96.316 85.249,102.428 91.362 C 108.004 96.938,122.530 96.598,123.677 90.865 C 123.992 89.289,124.644 88.000,125.125 88.000 C 125.606 88.000,126.000 85.075,126.000 81.500 C 126.000 77.925,125.581 75.000,125.070 75.000 C 124.558 75.000,123.995 73.987,123.820 72.750 C 123.614 71.304,122.696 70.386,121.250 70.180 C 120.013 70.005,119.000 69.442,119.000 68.930 C 119.000 68.419,116.300 68.000,113.000 68.000 C 109.667 68.000,107.000 68.444,107.000 69.000 M154.000 69.000 C 154.000 69.550,153.174 70.000,152.165 70.000 C 151.156 70.000,149.174 71.298,147.760 72.885 C 146.346 74.472,144.630 75.957,143.945 76.185 C 142.186 76.771,142.003 94.157,143.750 94.746 C 144.438 94.977,145.000 95.845,145.000 96.673 C 145.000 98.374,148.847 101.916,150.750 101.967 C 151.438 101.985,152.000 102.450,152.000 103.000 C 152.000 103.588,155.500 104.000,160.500 104.000 C 165.500 104.000,169.000 103.588,169.000 103.000 C 169.000 102.450,169.675 102.000,170.500 102.000 C 172.438 102.000,176.000 98.438,176.000 96.500 C 176.000 95.675,176.414 95.000,176.921 95.000 C 180.053 95.000,179.158 76.502,175.976 75.492 C 174.946 75.165,173.818 74.002,173.471 72.908 C 173.103 71.748,171.621 70.674,169.920 70.334 C 168.314 70.013,167.000 69.356,167.000 68.875 C 167.000 68.394,164.075 68.000,160.500 68.000 C 156.833 68.000,154.000 68.436,154.000 69.000 M279.000 77.000 C 279.000 77.550,277.875 78.000,276.500 78.000 C 275.125 78.000,274.000 78.450,274.000 79.000 C 274.000 79.550,273.100 80.000,272.000 80.000 C 270.900 80.000,270.000 80.401,270.000 80.892 C 270.000 81.382,268.905 82.058,267.567 82.394 C 266.228 82.730,264.855 83.881,264.515 84.951 C 264.176 86.022,263.021 87.176,261.949 87.516 C 260.877 87.856,260.000 89.004,260.000 90.067 C 260.000 91.130,259.570 92.000,259.045 92.000 C 258.520 92.000,257.795 93.575,257.434 95.500 C 257.073 97.425,256.377 99.000,255.889 99.000 C 255.400 99.000,255.000 102.825,255.000 107.500 C 255.000 112.175,255.392 116.000,255.872 116.000 C 256.352 116.000,257.015 117.692,257.346 119.760 C 257.681 121.855,258.844 124.167,259.973 124.981 C 261.088 125.784,262.000 127.017,262.000 127.721 C 262.000 129.430,265.646 133.000,267.393 133.000 C 268.159 133.000,269.045 133.675,269.362 134.500 C 269.698 135.377,271.197 136.000,272.969 136.000 C 274.636 136.000,276.000 136.450,276.000 137.000 C 276.000 137.606,280.333 138.000,287.000 138.000 C 293.319 138.000,298.000 137.594,298.000 137.045 C 298.000 136.520,299.560 135.798,301.466 135.440 C 303.614 135.038,305.161 134.069,305.533 132.895 C 305.864 131.853,306.534 131.000,307.022 131.000 C 308.464 131.000,313.000 126.034,313.000 124.455 C 313.000 123.655,313.450 123.000,314.000 123.000 C 314.550 123.000,315.000 122.100,315.000 121.000 C 315.000 119.900,315.450 119.000,316.000 119.000 C 316.606 119.000,317.000 114.667,317.000 108.000 C 317.000 101.333,316.606 97.000,316.000 97.000 C 315.450 97.000,315.000 96.325,315.000 95.500 C 315.000 94.675,314.550 94.000,314.000 94.000 C 313.450 94.000,313.000 93.132,313.000 92.071 C 313.000 91.011,312.325 89.468,311.500 88.643 C 310.675 87.818,310.000 86.854,310.000 86.500 C 310.000 85.360,307.469 83.283,305.203 82.565 C 303.992 82.180,303.000 81.446,303.000 80.933 C 303.000 80.420,302.325 80.000,301.500 80.000 C 300.675 80.000,300.000 79.550,300.000 79.000 C 300.000 78.450,298.650 78.000,297.000 78.000 C 295.350 78.000,294.000 77.550,294.000 77.000 C 294.000 76.422,290.833 76.000,286.500 76.000 C 282.167 76.000,279.000 76.422,279.000 77.000 M409.000 76.991 C 409.000 77.537,407.600 79.321,405.889 80.956 C 400.879 85.744,402.454 102.000,407.929 102.000 C 408.518 102.000,409.000 102.450,409.000 103.000 C 409.000 103.571,412.000 104.000,416.000 104.000 C 420.000 104.000,423.000 103.571,423.000 103.000 C 423.000 102.450,423.891 102.000,424.981 102.000 C 426.260 102.000,427.184 101.114,427.589 99.500 C 427.934 98.125,428.618 97.000,429.108 97.000 C 432.269 97.000,429.915 83.994,426.040 80.040 C 422.103 76.024,409.000 73.679,409.000 76.991 M112.750 111.626 C 111.787 111.912,111.000 112.564,111.000 113.073 C 111.000 113.583,110.130 114.000,109.067 114.000 C 108.004 114.000,106.856 114.877,106.516 115.949 C 106.176 117.021,105.021 118.176,103.949 118.516 C 102.877 118.856,102.000 119.967,102.000 120.984 C 102.000 122.001,101.438 123.021,100.750 123.250 C 99.858 123.547,99.500 126.622,99.500 134.000 C 99.500 141.378,99.858 144.453,100.750 144.750 C 101.438 144.979,102.000 145.600,102.000 146.129 C 102.000 146.658,103.125 148.216,104.500 149.591 C 105.875 150.966,107.000 152.493,107.000 152.984 C 107.000 153.475,109.025 154.181,111.500 154.552 C 113.975 154.923,116.000 155.626,116.000 156.114 C 116.000 156.601,118.250 157.000,121.000 157.000 C 123.750 157.000,126.000 156.601,126.000 156.114 C 126.000 155.626,128.025 154.923,130.500 154.552 C 132.975 154.181,135.000 153.475,135.000 152.984 C 135.000 151.823,139.823 147.000,140.984 147.000 C 141.475 147.000,142.181 144.975,142.552 142.500 C 142.923 140.025,143.626 138.000,144.114 138.000 C 144.601 138.000,145.000 136.200,145.000 134.000 C 145.000 131.800,144.609 130.000,144.132 130.000 C 143.654 130.000,143.018 128.174,142.719 125.943 C 142.374 123.372,141.319 121.184,139.838 119.968 C 136.928 117.581,136.420 117.072,134.000 114.126 C 132.046 111.747,117.929 110.086,112.750 111.626 M190.750 111.650 C 189.238 111.916,188.000 112.553,188.000 113.066 C 188.000 113.580,187.090 114.000,185.979 114.000 C 183.568 114.000,173.000 124.090,173.000 126.392 C 173.000 127.276,172.550 128.000,172.000 128.000 C 171.450 128.000,171.000 128.675,171.000 129.500 C 171.000 130.325,170.550 131.000,170.000 131.000 C 169.450 131.000,169.000 133.025,169.000 135.500 C 169.000 137.975,168.550 140.000,168.000 140.000 C 167.450 140.000,167.000 141.125,167.000 142.500 C 167.000 143.875,167.450 145.000,168.000 145.000 C 168.550 145.000,169.000 147.025,169.000 149.500 C 169.000 151.975,169.450 154.000,170.000 154.000 C 170.550 154.000,171.000 154.675,171.000 155.500 C 171.000 156.325,171.450 157.000,172.000 157.000 C 172.550 157.000,173.000 157.725,173.000 158.610 C 173.000 160.656,181.394 169.000,183.453 169.000 C 184.304 169.000,185.000 169.450,185.000 170.000 C 185.000 170.550,185.637 171.000,186.417 171.000 C 187.196 171.000,188.016 171.549,188.240 172.220 C 188.528 173.084,191.955 173.440,200.000 173.440 C 208.045 173.440,211.472 173.084,211.760 172.220 C 211.984 171.549,212.705 171.000,213.363 171.000 C 214.020 171.000,215.207 170.100,216.000 169.000 C 216.793 167.900,218.081 167.000,218.862 167.000 C 221.064 167.000,225.991 161.295,226.654 157.978 C 226.982 156.340,227.644 155.000,228.125 155.000 C 228.606 155.000,229.000 153.875,229.000 152.500 C 229.000 151.125,229.450 150.000,230.000 150.000 C 230.578 150.000,231.000 146.833,231.000 142.500 C 231.000 138.167,230.578 135.000,230.000 135.000 C 229.450 135.000,229.000 133.875,229.000 132.500 C 229.000 131.125,228.606 130.000,228.125 130.000 C 227.644 130.000,226.978 128.642,226.647 126.983 C 225.969 123.596,219.006 116.000,216.578 116.000 C 215.710 116.000,215.000 115.550,215.000 115.000 C 215.000 114.450,214.363 114.000,213.583 114.000 C 212.804 114.000,212.017 113.553,211.833 113.006 C 211.469 111.921,195.181 110.873,190.750 111.650 M364.250 111.667 C 362.462 111.920,361.000 112.562,361.000 113.094 C 361.000 113.627,359.200 115.717,357.000 117.740 C 354.800 119.763,353.000 121.999,353.000 122.709 C 353.000 123.419,352.550 124.000,352.000 124.000 C 351.450 124.000,351.000 125.350,351.000 127.000 C 351.000 128.650,350.550 130.000,350.000 130.000 C 349.450 130.000,349.000 131.800,349.000 134.000 C 349.000 136.200,349.450 138.000,350.000 138.000 C 350.550 138.000,351.000 139.125,351.000 140.500 C 351.000 141.875,351.450 143.000,352.000 143.000 C 352.550 143.000,353.000 143.728,353.000 144.617 C 353.000 147.304,360.790 154.092,364.579 154.707 C 366.461 155.012,368.000 155.653,368.000 156.131 C 368.000 156.609,370.475 157.000,373.500 157.000 C 376.525 157.000,379.000 156.609,379.000 156.131 C 379.000 155.653,380.596 155.003,382.547 154.686 C 386.216 154.091,392.000 149.017,392.000 146.394 C 392.000 145.627,392.450 145.000,393.000 145.000 C 393.550 145.000,394.000 144.325,394.000 143.500 C 394.000 142.675,394.450 142.000,395.000 142.000 C 395.583 142.000,396.000 138.667,396.000 134.000 C 396.000 129.333,395.583 126.000,395.000 126.000 C 394.450 126.000,394.000 125.325,394.000 124.500 C 394.000 123.675,393.550 123.000,393.000 123.000 C 392.450 123.000,392.000 122.261,392.000 121.358 C 392.000 119.645,386.701 114.000,385.092 114.000 C 384.583 114.000,383.994 113.481,383.782 112.846 C 383.377 111.630,370.152 110.831,364.250 111.667 M435.000 120.000 C 435.000 120.550,433.875 121.000,432.500 121.000 C 431.125 121.000,430.000 121.414,430.000 121.921 C 430.000 122.427,428.538 123.162,426.751 123.555 C 423.737 124.217,420.000 127.278,420.000 129.086 C 420.000 129.514,419.101 130.151,418.002 130.499 C 416.904 130.848,415.730 132.228,415.394 133.567 C 415.058 134.905,414.382 136.000,413.892 136.000 C 413.401 136.000,413.000 137.350,413.000 139.000 C 413.000 140.650,412.550 142.000,412.000 142.000 C 411.408 142.000,411.000 145.647,411.000 150.941 C 411.000 155.859,411.450 160.160,412.000 160.500 C 412.550 160.840,413.000 162.216,413.000 163.559 C 413.000 164.902,413.450 166.000,414.000 166.000 C 414.550 166.000,415.000 166.634,415.000 167.408 C 415.000 169.803,423.498 177.731,426.854 178.468 C 428.584 178.848,430.000 179.573,430.000 180.079 C 430.000 180.586,431.125 181.000,432.500 181.000 C 433.875 181.000,435.000 181.450,435.000 182.000 C 435.000 182.571,438.000 183.000,442.000 183.000 C 446.000 183.000,449.000 182.571,449.000 182.000 C 449.000 181.450,450.575 181.000,452.500 181.000 C 454.425 181.000,456.000 180.550,456.000 180.000 C 456.000 179.450,456.665 179.000,457.479 179.000 C 459.794 179.000,470.051 167.993,470.684 164.830 C 470.995 163.274,471.644 162.000,472.125 162.000 C 472.606 162.000,473.000 160.200,473.000 158.000 C 473.000 155.800,473.450 154.000,474.000 154.000 C 474.550 154.000,475.000 152.902,475.000 151.559 C 475.000 150.216,474.550 148.840,474.000 148.500 C 473.450 148.160,473.000 146.109,473.000 143.941 C 473.000 141.773,472.606 140.000,472.125 140.000 C 471.644 140.000,471.002 138.762,470.699 137.250 C 470.395 135.738,469.209 133.600,468.061 132.500 C 465.873 130.402,464.961 129.464,461.205 125.452 C 459.942 124.103,458.255 123.000,457.455 123.000 C 456.655 123.000,456.000 122.550,456.000 122.000 C 456.000 121.450,454.425 121.000,452.500 121.000 C 450.575 121.000,449.000 120.550,449.000 120.000 C 449.000 119.429,446.000 119.000,442.000 119.000 C 438.000 119.000,435.000 119.429,435.000 120.000 M59.000 137.000 C 59.000 137.550,58.325 138.000,57.500 138.000 C 56.675 138.000,56.000 138.450,56.000 139.000 C 56.000 139.550,55.130 140.000,54.067 140.000 C 52.940 140.000,51.839 140.938,51.424 142.250 C 51.034 143.488,49.878 145.228,48.857 146.117 C 47.346 147.433,47.000 149.181,47.000 155.500 C 47.000 161.819,47.346 163.567,48.857 164.883 C 49.878 165.772,51.034 167.512,51.424 168.750 C 51.824 170.016,52.943 171.000,53.984 171.000 C 55.001 171.000,56.021 171.563,56.250 172.250 C 57.078 174.734,72.859 173.892,74.999 171.250 C 76.001 170.012,77.536 169.000,78.410 169.000 C 79.285 169.000,80.000 168.363,80.000 167.583 C 80.000 166.804,80.563 165.979,81.250 165.750 C 85.757 164.248,81.696 142.000,76.914 142.000 C 76.486 142.000,75.849 141.100,75.500 140.000 C 75.100 138.740,73.987 138.000,72.492 138.000 C 71.186 138.000,69.840 137.550,69.500 137.000 C 69.160 136.450,66.659 136.000,63.941 136.000 C 61.223 136.000,59.000 136.450,59.000 137.000 M276.750 154.697 C 275.238 154.937,274.000 155.553,274.000 156.066 C 274.000 156.580,273.130 157.000,272.067 157.000 C 271.004 157.000,269.856 157.877,269.516 158.949 C 269.176 160.021,268.050 161.167,267.015 161.495 C 261.720 163.176,263.226 180.226,269.197 186.197 L 273.437 190.437 281.882 190.469 C 287.771 190.491,290.454 190.122,290.747 189.250 C 290.978 188.563,291.804 188.000,292.583 188.000 C 293.363 188.000,294.000 187.580,294.000 187.067 C 294.000 186.554,294.900 185.849,296.000 185.500 C 297.100 185.151,298.000 183.996,298.000 182.933 C 298.000 181.870,298.450 181.000,299.000 181.000 C 301.222 181.000,300.188 164.571,297.866 162.971 C 295.660 161.451,295.155 160.951,292.231 157.393 C 290.423 155.193,282.420 153.799,276.750 154.697 M346.000 163.000 C 346.000 163.550,344.425 164.000,342.500 164.000 C 340.575 164.000,339.000 164.450,339.000 165.000 C 339.000 165.550,337.907 166.000,336.571 166.000 C 335.236 166.000,333.468 166.675,332.643 167.500 C 331.818 168.325,330.868 169.000,330.532 169.000 C 329.586 169.000,322.000 176.735,322.000 177.701 C 322.000 178.173,321.132 179.184,320.070 179.949 C 318.848 180.830,317.897 183.111,317.477 186.170 C 317.111 188.826,316.405 191.000,315.906 191.000 C 315.408 191.000,315.000 194.150,315.000 198.000 C 315.000 201.850,315.391 205.000,315.870 205.000 C 316.348 205.000,316.979 207.123,317.272 209.717 C 317.564 212.312,318.298 214.599,318.902 214.801 C 319.506 215.002,320.000 215.922,320.000 216.846 C 320.000 217.770,321.125 219.370,322.500 220.403 C 323.875 221.435,325.000 223.117,325.000 224.140 C 325.000 225.287,325.713 226.000,326.860 226.000 C 327.883 226.000,329.565 227.125,330.597 228.500 C 331.630 229.875,333.230 231.000,334.154 231.000 C 335.078 231.000,336.021 231.563,336.250 232.250 C 336.555 233.168,340.257 233.500,350.179 233.500 C 364.150 233.500,367.436 232.755,371.117 228.757 C 372.007 227.791,373.224 227.000,373.822 227.000 C 375.234 227.000,380.000 222.234,380.000 220.822 C 380.000 220.224,380.954 218.907,382.120 217.896 C 383.478 216.718,384.423 214.431,384.750 211.529 C 385.030 209.038,385.652 207.000,386.130 207.000 C 386.609 207.000,387.000 203.175,387.000 198.500 C 387.000 193.825,386.601 190.000,386.114 190.000 C 385.626 190.000,384.923 187.975,384.552 185.500 C 384.181 183.025,383.455 181.000,382.939 181.000 C 382.422 181.000,382.000 180.531,382.000 179.958 C 382.000 178.894,380.526 176.854,378.202 174.702 C 373.009 169.894,372.000 168.806,372.000 168.016 C 372.000 167.525,369.975 166.819,367.500 166.448 C 365.025 166.077,363.000 165.374,363.000 164.886 C 363.000 164.399,361.425 164.000,359.500 164.000 C 357.575 164.000,356.000 163.550,356.000 163.000 C 356.000 162.450,353.750 162.000,351.000 162.000 C 348.250 162.000,346.000 162.450,346.000 163.000 M146.000 167.116 C 142.220 170.446,140.532 183.677,143.750 184.750 C 144.438 184.979,145.000 185.698,145.000 186.347 C 145.000 188.506,153.133 191.242,158.125 190.762 C 163.550 190.241,169.000 185.582,169.000 181.466 C 169.000 180.109,169.450 179.000,170.000 179.000 C 170.550 179.000,171.000 177.875,171.000 176.500 C 171.000 175.125,170.550 174.000,170.000 174.000 C 169.450 174.000,169.000 173.065,169.000 171.923 C 169.000 164.094,153.182 160.788,146.000 167.116 M94.000 180.000 C 94.000 180.550,92.650 181.000,91.000 181.000 C 89.350 181.000,88.000 181.450,88.000 182.000 C 88.000 182.550,87.518 183.000,86.929 183.000 C 81.701 183.000,80.368 199.459,85.205 204.295 C 86.692 205.783,88.380 207.000,88.955 207.000 C 89.530 207.000,90.000 207.450,90.000 208.000 C 90.000 208.550,92.250 209.000,95.000 209.000 C 97.750 209.000,100.000 208.550,100.000 208.000 C 100.000 207.450,100.690 207.000,101.534 207.000 C 105.565 207.000,109.000 201.233,109.000 194.466 C 109.000 190.822,108.564 188.000,108.000 188.000 C 107.450 188.000,107.000 187.394,107.000 186.653 C 107.000 184.445,103.424 181.000,101.133 181.000 C 99.960 181.000,99.000 180.550,99.000 180.000 C 99.000 179.450,97.875 179.000,96.500 179.000 C 95.125 179.000,94.000 179.450,94.000 180.000 M483.000 180.000 C 483.000 180.550,482.085 181.000,480.966 181.000 C 478.641 181.000,473.000 186.336,473.000 188.534 C 473.000 189.341,472.550 190.000,472.000 190.000 C 471.450 190.000,471.000 192.250,471.000 195.000 C 471.000 197.750,471.450 200.000,472.000 200.000 C 472.550 200.000,473.000 200.675,473.000 201.500 C 473.000 202.325,473.420 203.000,473.933 203.000 C 474.446 203.000,475.151 203.900,475.500 205.000 C 475.849 206.100,477.004 207.000,478.067 207.000 C 479.130 207.000,480.000 207.450,480.000 208.000 C 480.000 208.556,482.667 209.000,486.000 209.000 C 489.333 209.000,492.000 208.556,492.000 208.000 C 492.000 207.450,492.482 207.000,493.071 207.000 C 494.456 207.000,497.000 204.456,497.000 203.071 C 497.000 202.482,497.410 202.000,497.912 202.000 C 500.984 202.000,500.099 186.484,496.970 185.491 C 495.943 185.164,494.824 184.021,494.484 182.949 C 494.056 181.601,492.961 181.000,490.933 181.000 C 489.320 181.000,488.000 180.550,488.000 180.000 C 488.000 179.450,486.875 179.000,485.500 179.000 C 484.125 179.000,483.000 179.450,483.000 180.000 M28.122 190.680 C 25.394 191.245,15.000 201.470,15.000 203.589 C 15.000 204.365,14.550 205.000,14.000 205.000 C 13.397 205.000,13.000 209.167,13.000 215.500 C 13.000 221.501,13.409 226.000,13.955 226.000 C 14.480 226.000,15.202 227.560,15.560 229.466 C 15.954 231.571,16.934 233.162,18.054 233.517 C 19.068 233.839,20.182 234.998,20.529 236.092 C 20.897 237.252,22.379 238.326,24.080 238.666 C 25.686 238.987,27.000 239.644,27.000 240.125 C 27.000 240.606,28.125 241.000,29.500 241.000 C 30.875 241.000,32.000 241.450,32.000 242.000 C 32.000 242.578,35.167 243.000,39.500 243.000 C 43.833 243.000,47.000 242.578,47.000 242.000 C 47.000 241.450,48.125 241.000,49.500 241.000 C 50.875 241.000,52.000 240.559,52.000 240.019 C 52.000 239.480,53.075 238.768,54.390 238.438 C 56.841 237.823,61.000 233.767,61.000 231.992 C 61.000 231.447,61.400 231.000,61.889 231.000 C 62.377 231.000,63.073 229.425,63.434 227.500 C 63.795 225.575,64.520 224.000,65.045 224.000 C 65.570 224.000,66.000 220.625,66.000 216.500 C 66.000 212.375,65.609 209.000,65.132 209.000 C 64.654 209.000,64.028 207.247,63.741 205.105 C 63.205 201.106,56.322 193.000,53.463 193.000 C 52.750 193.000,51.980 192.438,51.751 191.750 C 51.324 190.467,33.132 189.643,28.122 190.680 M227.750 190.647 C 226.787 190.922,226.000 191.564,226.000 192.073 C 226.000 192.583,225.130 193.000,224.067 193.000 C 223.004 193.000,221.849 193.900,221.500 195.000 C 221.151 196.100,220.514 197.000,220.086 197.000 C 218.258 197.000,214.956 200.971,214.377 203.866 C 214.032 205.590,213.356 207.000,212.875 207.000 C 212.394 207.000,212.000 211.275,212.000 216.500 C 212.000 221.866,212.415 226.000,212.955 226.000 C 213.480 226.000,214.205 227.575,214.566 229.500 C 214.927 231.425,215.619 233.000,216.103 233.000 C 216.587 233.000,218.273 234.350,219.850 236.000 C 221.426 237.650,223.455 239.000,224.358 239.000 C 225.261 239.000,226.000 239.450,226.000 240.000 C 226.000 240.550,227.125 241.000,228.500 241.000 C 229.875 241.000,231.000 241.450,231.000 242.000 C 231.000 242.578,234.167 243.000,238.500 243.000 C 242.833 243.000,246.000 242.578,246.000 242.000 C 246.000 241.450,246.932 241.000,248.071 241.000 C 249.211 241.000,250.818 240.325,251.643 239.500 C 252.468 238.675,253.980 238.000,255.004 238.000 C 256.028 238.000,257.151 237.100,257.500 236.000 C 257.849 234.900,258.554 234.000,259.067 234.000 C 259.580 234.000,260.000 233.531,260.000 232.958 C 260.000 232.385,260.850 231.004,261.889 229.889 C 269.594 221.619,262.374 193.000,252.583 193.000 C 251.804 193.000,250.980 192.438,250.751 191.750 C 250.328 190.477,231.504 189.574,227.750 190.647 M120.750 200.938 C 119.237 202.468,118.000 204.458,118.000 205.360 C 118.000 206.262,117.550 207.000,117.000 207.000 C 116.450 207.000,116.000 209.250,116.000 212.000 C 116.000 214.750,116.450 217.000,117.000 217.000 C 117.550 217.000,118.000 217.800,118.000 218.778 C 118.000 220.608,121.255 224.000,123.011 224.000 C 123.555 224.000,124.000 224.450,124.000 225.000 C 124.000 225.556,126.667 226.000,130.000 226.000 C 133.333 226.000,136.000 225.556,136.000 225.000 C 136.000 224.450,136.707 224.000,137.571 224.000 C 139.857 224.000,141.938 221.560,142.638 218.058 C 142.975 216.376,143.644 215.000,144.125 215.000 C 144.606 215.000,145.000 213.650,145.000 212.000 C 145.000 210.350,144.550 209.000,144.000 209.000 C 143.450 209.000,143.000 207.811,143.000 206.358 C 143.000 198.402,127.089 194.526,120.750 200.938 M408.000 207.875 C 408.000 208.356,406.638 209.022,404.974 209.355 C 401.100 210.130,397.130 214.100,396.355 217.974 C 396.022 219.638,395.356 221.000,394.875 221.000 C 394.394 221.000,394.000 224.825,394.000 229.500 C 394.000 234.175,394.401 238.000,394.892 238.000 C 395.382 238.000,396.066 239.125,396.411 240.500 C 396.756 241.875,397.480 243.000,398.019 243.000 C 398.559 243.000,399.000 243.675,399.000 244.500 C 399.000 245.325,399.870 246.000,400.933 246.000 C 401.996 246.000,403.143 246.876,403.483 247.946 C 404.779 252.029,425.313 252.251,428.809 248.221 C 429.868 246.999,431.244 246.000,431.867 246.000 C 432.490 246.000,433.000 245.424,433.000 244.721 C 433.000 244.017,433.900 242.793,435.000 242.000 C 436.100 241.207,437.000 239.983,437.000 239.279 C 437.000 238.576,437.450 238.000,438.000 238.000 C 438.588 238.000,439.000 234.500,439.000 229.500 C 439.000 224.500,438.588 221.000,438.000 221.000 C 437.450 221.000,437.000 220.100,437.000 219.000 C 437.000 217.900,436.550 217.000,436.000 217.000 C 435.450 217.000,435.000 216.325,435.000 215.500 C 435.000 214.675,434.580 214.000,434.067 214.000 C 433.554 214.000,432.864 213.147,432.533 212.105 C 432.161 210.931,430.614 209.962,428.466 209.560 C 426.560 209.202,425.000 208.480,425.000 207.955 C 425.000 207.423,421.231 207.000,416.500 207.000 C 411.825 207.000,408.000 207.394,408.000 207.875 M159.000 216.000 C 159.000 216.550,157.875 217.000,156.500 217.000 C 155.125 217.000,154.000 217.450,154.000 218.000 C 154.000 218.550,153.100 219.000,152.000 219.000 C 150.900 219.000,150.000 219.420,150.000 219.933 C 150.000 220.446,149.035 221.171,147.856 221.546 C 145.268 222.367,140.000 227.577,140.000 229.314 C 140.000 229.998,139.132 231.184,138.070 231.949 C 136.848 232.830,135.897 235.111,135.477 238.170 C 135.111 240.826,134.405 243.000,133.906 243.000 C 133.408 243.000,133.000 246.375,133.000 250.500 C 133.000 254.625,133.408 258.000,133.906 258.000 C 134.405 258.000,135.125 260.275,135.508 263.055 C 135.968 266.401,136.845 268.510,138.101 269.295 C 139.146 269.948,140.000 271.083,140.000 271.819 C 140.000 274.054,147.766 281.003,150.983 281.647 C 152.642 281.978,154.000 282.644,154.000 283.125 C 154.000 283.606,154.675 284.000,155.500 284.000 C 156.325 284.000,157.000 284.450,157.000 285.000 C 157.000 285.611,161.667 286.000,169.000 286.000 C 176.333 286.000,181.000 285.611,181.000 285.000 C 181.000 284.450,181.900 284.000,183.000 284.000 C 184.100 284.000,185.000 283.599,185.000 283.108 C 185.000 282.618,186.117 281.936,187.482 281.594 C 190.742 280.776,198.000 274.058,198.000 271.859 C 198.000 270.910,198.846 269.866,199.881 269.538 C 201.731 268.951,203.000 265.223,203.000 260.375 C 203.000 259.069,203.450 258.000,204.000 258.000 C 204.578 258.000,205.000 254.833,205.000 250.500 C 205.000 246.375,204.609 243.000,204.130 243.000 C 203.652 243.000,203.030 240.962,202.750 238.471 C 202.423 235.569,201.478 233.282,200.120 232.104 C 198.954 231.093,198.000 229.675,198.000 228.954 C 198.000 227.278,191.191 221.000,189.374 221.000 C 188.618 221.000,188.000 220.550,188.000 220.000 C 188.000 219.450,187.325 219.000,186.500 219.000 C 185.675 219.000,185.000 218.550,185.000 218.000 C 185.000 217.450,183.650 217.000,182.000 217.000 C 180.350 217.000,179.000 216.550,179.000 216.000 C 179.000 215.400,175.000 215.000,169.000 215.000 C 163.000 215.000,159.000 215.400,159.000 216.000 M463.000 224.875 C 463.000 225.356,461.608 226.028,459.907 226.369 C 456.793 226.991,451.000 232.205,451.000 234.385 C 451.000 235.030,450.100 236.207,449.000 237.000 C 447.900 237.793,447.000 239.467,447.000 240.721 C 447.000 241.974,446.550 243.000,446.000 243.000 C 445.422 243.000,445.000 246.167,445.000 250.500 C 445.000 254.833,445.422 258.000,446.000 258.000 C 446.550 258.000,447.000 258.906,447.000 260.014 C 447.000 263.526,455.146 274.000,457.878 274.000 C 458.403 274.000,459.021 274.563,459.249 275.250 C 460.103 277.815,484.830 276.924,486.997 274.250 C 488.000 273.012,489.343 272.000,489.982 272.000 C 491.589 272.000,493.601 269.833,494.435 267.203 C 494.820 265.992,495.554 265.000,496.067 265.000 C 496.580 265.000,497.000 264.363,497.000 263.583 C 497.000 262.804,497.563 261.979,498.250 261.750 C 501.749 260.584,499.373 239.537,495.250 235.179 C 494.563 234.452,494.000 233.214,494.000 232.429 C 494.000 231.643,493.207 231.000,492.237 231.000 C 491.268 231.000,489.630 229.875,488.597 228.500 C 487.523 227.070,485.710 226.000,484.360 226.000 C 483.062 226.000,482.000 225.550,482.000 225.000 C 482.000 224.404,478.167 224.000,472.500 224.000 C 467.275 224.000,463.000 224.394,463.000 224.875 M291.250 233.649 C 290.012 233.918,289.000 234.558,289.000 235.070 C 289.000 235.581,288.518 236.000,287.929 236.000 C 286.583 236.000,284.000 238.529,284.000 239.845 C 284.000 240.389,283.438 241.021,282.750 241.250 C 281.152 241.782,280.990 258.730,282.573 259.785 C 283.163 260.178,283.953 261.330,284.328 262.345 C 284.703 263.360,285.908 264.425,287.005 264.712 C 288.102 264.999,289.000 265.631,289.000 266.117 C 289.000 266.602,289.900 267.000,291.000 267.000 C 292.100 267.000,293.000 267.450,293.000 268.000 C 293.000 268.564,295.833 269.000,299.500 269.000 C 303.167 269.000,306.000 268.564,306.000 268.000 C 306.000 267.450,306.690 267.000,307.534 267.000 C 309.470 267.000,315.000 261.420,315.000 259.466 C 315.000 258.659,315.450 258.000,316.000 258.000 C 316.578 258.000,317.000 254.833,317.000 250.500 C 317.000 246.167,316.578 243.000,316.000 243.000 C 315.450 243.000,315.000 242.341,315.000 241.534 C 315.000 235.673,301.906 231.325,291.250 233.649 M84.750 250.663 C 83.237 250.921,82.000 251.553,82.000 252.066 C 82.000 252.580,81.308 253.000,80.463 253.000 C 79.617 253.000,77.030 255.013,74.713 257.474 C 68.829 263.723,68.000 264.771,68.000 265.958 C 68.000 266.531,67.550 267.000,67.000 267.000 C 66.450 267.000,66.000 268.125,66.000 269.500 C 66.000 270.875,65.550 272.000,65.000 272.000 C 64.404 272.000,64.000 275.833,64.000 281.500 C 64.000 287.167,64.404 291.000,65.000 291.000 C 65.550 291.000,66.000 291.675,66.000 292.500 C 66.000 293.325,66.450 294.000,67.000 294.000 C 67.550 294.000,68.000 294.900,68.000 296.000 C 68.000 297.100,68.420 298.000,68.933 298.000 C 69.446 298.000,70.185 299.012,70.576 300.250 C 71.362 302.741,74.681 306.000,76.432 306.000 C 77.052 306.000,78.207 306.900,79.000 308.000 C 79.793 309.100,81.467 310.000,82.721 310.000 C 83.974 310.000,85.000 310.450,85.000 311.000 C 85.000 311.600,88.980 312.000,94.941 312.000 C 100.490 312.000,105.155 311.558,105.500 311.000 C 105.840 310.450,107.186 310.000,108.492 310.000 C 109.937 310.000,111.099 309.264,111.462 308.119 C 111.793 307.076,113.346 305.981,114.949 305.660 C 116.655 305.319,118.105 304.246,118.487 303.041 C 118.843 301.918,119.554 301.000,120.067 301.000 C 120.580 301.000,121.000 300.518,121.000 299.929 C 121.000 299.339,121.675 298.182,122.500 297.357 C 123.325 296.532,124.000 294.764,124.000 293.429 C 124.000 292.093,124.450 291.000,125.000 291.000 C 125.603 291.000,126.000 286.833,126.000 280.500 C 126.000 274.725,125.586 270.000,125.079 270.000 C 124.573 270.000,123.882 268.737,123.543 267.194 C 123.204 265.651,122.043 263.752,120.963 262.973 C 119.883 262.195,119.000 260.758,119.000 259.779 C 119.000 258.801,118.345 258.000,117.545 258.000 C 116.745 258.000,115.033 256.988,113.740 255.750 C 109.151 251.358,106.805 250.607,97.000 250.397 C 91.775 250.285,86.263 250.405,84.750 250.663 M359.000 251.655 C 355.772 253.958,353.075 257.164,353.033 258.750 C 353.015 259.438,352.550 260.000,352.000 260.000 C 351.415 260.000,351.000 263.373,351.000 268.118 C 351.000 276.266,355.325 284.000,359.882 284.000 C 360.497 284.000,361.000 284.450,361.000 285.000 C 361.000 285.583,364.333 286.000,369.000 286.000 C 373.667 286.000,377.000 285.583,377.000 285.000 C 377.000 284.450,377.675 284.000,378.500 284.000 C 379.325 284.000,380.000 283.580,380.000 283.067 C 380.000 282.554,380.853 281.864,381.895 281.533 C 383.069 281.161,384.038 279.614,384.440 277.466 C 384.798 275.560,385.520 274.000,386.045 274.000 C 386.570 274.000,387.000 271.300,387.000 268.000 C 387.000 264.667,386.556 262.000,386.000 262.000 C 385.450 262.000,385.000 261.290,385.000 260.421 C 385.000 252.905,366.154 246.551,359.000 251.655 M234.000 259.000 C 234.000 259.550,232.875 260.000,231.500 260.000 C 230.125 260.000,229.000 260.450,229.000 261.000 C 229.000 261.550,228.325 262.000,227.500 262.000 C 226.675 262.000,226.000 262.420,226.000 262.933 C 226.000 263.446,225.008 264.180,223.797 264.565 C 221.482 265.299,219.000 267.367,219.000 268.561 C 219.000 268.949,218.160 269.994,217.134 270.884 C 216.108 271.774,214.947 273.964,214.555 275.751 C 214.162 277.538,213.427 279.000,212.921 279.000 C 212.414 279.000,212.000 283.725,212.000 289.500 C 212.000 295.275,212.391 300.000,212.869 300.000 C 213.347 300.000,213.990 301.548,214.297 303.441 C 214.996 307.751,223.747 316.799,228.048 317.660 C 229.672 317.984,231.000 318.644,231.000 319.125 C 231.000 319.606,232.575 320.000,234.500 320.000 C 236.425 320.000,238.000 320.450,238.000 321.000 C 238.000 321.550,240.250 322.000,243.000 322.000 C 245.750 322.000,248.000 321.550,248.000 321.000 C 248.000 320.450,249.575 320.000,251.500 320.000 C 253.425 320.000,255.000 319.586,255.000 319.079 C 255.000 318.573,256.327 317.867,257.950 317.511 C 261.306 316.774,269.000 309.782,269.000 307.470 C 269.000 306.627,269.675 305.678,270.500 305.362 C 271.325 305.045,272.000 303.709,272.000 302.393 C 272.000 301.077,272.450 300.000,273.000 300.000 C 273.603 300.000,274.000 295.833,274.000 289.500 C 274.000 283.167,273.603 279.000,273.000 279.000 C 272.450 279.000,272.000 278.325,272.000 277.500 C 272.000 276.675,271.550 276.000,271.000 276.000 C 270.450 276.000,270.000 275.118,270.000 274.039 C 270.000 272.961,269.320 271.499,268.489 270.789 C 267.658 270.080,265.236 267.813,263.107 265.750 C 260.978 263.688,258.732 262.000,258.118 262.000 C 257.503 262.000,257.000 261.550,257.000 261.000 C 257.000 260.450,255.650 260.000,254.000 260.000 C 252.350 260.000,251.000 259.550,251.000 259.000 C 251.000 258.412,247.500 258.000,242.500 258.000 C 237.500 258.000,234.000 258.412,234.000 259.000 M25.000 268.000 C 25.000 268.550,23.895 269.000,22.545 269.000 C 19.865 269.000,15.000 273.220,15.000 275.545 C 15.000 276.345,14.550 277.000,14.000 277.000 C 12.506 277.000,12.730 292.763,14.250 294.571 C 21.339 303.003,21.334 303.000,30.482 303.000 C 35.167 303.000,39.000 302.599,39.000 302.108 C 39.000 301.618,40.139 300.931,41.530 300.582 C 43.315 300.134,44.236 299.070,44.655 296.973 C 44.982 295.338,45.644 294.000,46.125 294.000 C 46.606 294.000,47.000 293.325,47.000 292.500 C 47.000 291.675,47.450 291.000,48.000 291.000 C 48.556 291.000,49.000 288.333,49.000 285.000 C 49.000 281.667,48.556 279.000,48.000 279.000 C 47.450 279.000,47.000 278.531,47.000 277.958 C 47.000 275.919,40.400 269.000,38.455 269.000 C 37.655 269.000,37.000 268.550,37.000 268.000 C 37.000 267.444,34.333 267.000,31.000 267.000 C 27.667 267.000,25.000 267.444,25.000 268.000 M421.750 276.626 C 420.788 276.912,420.000 277.564,420.000 278.073 C 420.000 278.583,419.130 279.000,418.067 279.000 C 416.940 279.000,415.839 279.938,415.424 281.250 C 415.034 282.488,413.878 284.228,412.857 285.117 C 410.797 286.912,410.037 301.000,412.000 301.000 C 412.550 301.000,413.000 301.657,413.000 302.460 C 413.000 303.262,414.848 305.805,417.107 308.110 L 421.215 312.300 429.807 312.300 C 435.808 312.300,438.526 311.922,438.818 311.046 C 439.048 310.356,440.533 308.552,442.118 307.038 C 443.703 305.523,445.000 303.545,445.000 302.642 C 445.000 301.739,445.450 301.000,446.000 301.000 C 446.578 301.000,447.000 297.833,447.000 293.500 C 447.000 289.167,446.578 286.000,446.000 286.000 C 445.450 286.000,445.000 285.261,445.000 284.358 C 445.000 278.836,430.511 274.018,421.750 276.626 M313.000 285.000 C 313.000 285.550,311.875 286.000,310.500 286.000 C 309.125 286.000,308.000 286.401,308.000 286.892 C 308.000 287.382,306.875 288.066,305.500 288.411 C 304.125 288.756,303.000 289.480,303.000 290.019 C 303.000 290.559,302.325 291.000,301.500 291.000 C 300.675 291.000,300.000 291.420,300.000 291.933 C 300.000 292.446,299.100 293.151,298.000 293.500 C 296.900 293.849,296.000 295.004,296.000 296.067 C 296.000 297.130,295.559 298.000,295.019 298.000 C 294.480 298.000,293.756 299.125,293.411 300.500 C 293.066 301.875,292.382 303.000,291.892 303.000 C 291.401 303.000,291.000 304.125,291.000 305.500 C 291.000 306.875,290.550 308.000,290.000 308.000 C 289.429 308.000,289.000 311.000,289.000 315.000 C 289.000 319.000,289.429 322.000,290.000 322.000 C 290.550 322.000,291.000 323.575,291.000 325.500 C 291.000 327.425,291.401 329.000,291.892 329.000 C 292.382 329.000,293.066 330.125,293.411 331.500 C 293.756 332.875,294.480 334.000,295.019 334.000 C 295.559 334.000,296.000 334.482,296.000 335.071 C 296.000 336.220,298.456 339.000,299.471 339.000 C 300.058 339.000,301.435 340.034,304.463 342.750 C 305.230 343.438,306.789 344.000,307.929 344.000 C 309.068 344.000,310.000 344.450,310.000 345.000 C 310.000 345.550,311.575 346.000,313.500 346.000 C 315.425 346.000,317.000 346.450,317.000 347.000 C 317.000 347.550,318.800 348.000,321.000 348.000 C 323.200 348.000,325.000 347.550,325.000 347.000 C 325.000 346.450,326.575 346.000,328.500 346.000 C 330.425 346.000,332.000 345.550,332.000 345.000 C 332.000 344.450,332.900 344.000,334.000 344.000 C 335.100 344.000,336.000 343.599,336.000 343.108 C 336.000 342.618,337.095 341.942,338.433 341.606 C 339.772 341.270,341.152 340.096,341.501 338.998 C 341.849 337.899,342.486 337.000,342.914 337.000 C 344.722 337.000,347.783 333.263,348.445 330.249 C 348.838 328.462,349.573 327.000,350.079 327.000 C 350.586 327.000,351.000 325.425,351.000 323.500 C 351.000 321.575,351.450 320.000,352.000 320.000 C 352.550 320.000,353.000 317.750,353.000 315.000 C 353.000 312.250,352.550 310.000,352.000 310.000 C 351.450 310.000,351.000 308.875,351.000 307.500 C 351.000 306.125,350.550 305.000,350.000 305.000 C 349.450 305.000,349.000 303.907,349.000 302.571 C 349.000 301.236,348.325 299.468,347.500 298.643 C 346.675 297.818,346.000 296.466,346.000 295.639 C 346.000 294.812,345.100 293.849,344.000 293.500 C 342.900 293.151,342.000 292.446,342.000 291.933 C 342.000 291.420,341.325 291.000,340.500 291.000 C 339.675 291.000,339.000 290.559,339.000 290.019 C 339.000 289.480,337.875 288.756,336.500 288.411 C 335.125 288.066,334.000 287.382,334.000 286.892 C 334.000 286.401,332.875 286.000,331.500 286.000 C 330.125 286.000,329.000 285.550,329.000 285.000 C 329.000 284.417,325.667 284.000,321.000 284.000 C 316.333 284.000,313.000 284.417,313.000 285.000 M478.297 293.700 C 477.086 293.934,475.818 294.998,475.480 296.063 C 475.142 297.129,474.446 298.000,473.933 298.000 C 473.420 298.000,473.000 298.675,473.000 299.500 C 473.000 300.325,472.550 301.000,472.000 301.000 C 471.450 301.000,471.000 303.475,471.000 306.500 C 471.000 309.525,471.450 312.000,472.000 312.000 C 472.550 312.000,473.000 312.485,473.000 313.077 C 473.000 314.733,478.647 320.000,480.423 320.000 C 481.290 320.000,482.000 320.450,482.000 321.000 C 482.000 321.550,483.350 322.000,485.000 322.000 C 486.650 322.000,488.000 321.550,488.000 321.000 C 488.000 320.450,489.109 320.000,490.466 320.000 C 497.013 320.000,504.037 302.179,498.250 300.250 C 497.563 300.021,497.000 298.971,497.000 297.917 C 497.000 296.863,496.380 296.000,495.622 296.000 C 494.865 296.000,493.685 295.325,493.000 294.500 C 491.792 293.044,483.894 292.614,478.297 293.700 M181.000 302.000 C 181.000 302.550,180.065 303.000,178.923 303.000 C 176.487 303.000,171.000 308.140,171.000 310.423 C 171.000 311.290,170.550 312.000,170.000 312.000 C 169.450 312.000,169.000 312.675,169.000 313.500 C 169.000 314.325,168.550 315.000,168.000 315.000 C 167.450 315.000,167.000 317.250,167.000 320.000 C 167.000 322.750,167.450 325.000,168.000 325.000 C 168.550 325.000,169.000 325.900,169.000 327.000 C 169.000 328.100,169.450 329.000,170.000 329.000 C 170.550 329.000,171.000 329.675,171.000 330.500 C 171.000 331.325,171.420 332.000,171.933 332.000 C 172.446 332.000,173.136 332.853,173.467 333.895 C 173.839 335.069,175.386 336.038,177.534 336.440 C 179.440 336.798,181.000 337.520,181.000 338.045 C 181.000 338.570,183.250 339.000,186.000 339.000 C 188.750 339.000,191.000 338.550,191.000 338.000 C 191.000 337.450,192.206 337.000,193.679 337.000 C 197.003 337.000,203.000 330.807,203.000 327.374 C 203.000 326.068,203.450 325.000,204.000 325.000 C 204.556 325.000,205.000 322.333,205.000 319.000 C 205.000 315.667,204.556 313.000,204.000 313.000 C 203.450 313.000,203.000 312.364,203.000 311.586 C 203.000 309.670,196.411 303.000,194.518 303.000 C 193.683 303.000,193.000 302.550,193.000 302.000 C 193.000 301.444,190.333 301.000,187.000 301.000 C 183.667 301.000,181.000 301.444,181.000 302.000 M377.000 311.000 C 377.000 311.550,376.261 312.000,375.358 312.000 C 371.446 312.000,368.000 317.615,368.000 323.991 C 368.000 327.330,368.444 330.000,369.000 330.000 C 369.550 330.000,370.000 330.670,370.000 331.489 C 370.000 334.059,373.320 337.000,376.222 337.000 C 377.750 337.000,379.000 337.450,379.000 338.000 C 379.000 338.550,380.125 339.000,381.500 339.000 C 382.875 339.000,384.000 338.608,384.000 338.128 C 384.000 337.648,385.800 336.968,388.000 336.616 C 391.111 336.119,392.000 335.534,392.000 333.988 C 392.000 332.895,392.450 332.000,393.000 332.000 C 393.550 332.000,394.000 331.325,394.000 330.500 C 394.000 329.675,394.450 329.000,395.000 329.000 C 395.550 329.000,396.000 326.525,396.000 323.500 C 396.000 320.475,395.550 318.000,395.000 318.000 C 394.450 318.000,394.000 317.518,394.000 316.929 C 394.000 315.107,391.261 313.002,388.058 312.362 C 386.376 312.025,385.000 311.356,385.000 310.875 C 385.000 310.394,383.200 310.000,381.000 310.000 C 378.800 310.000,377.000 310.450,377.000 311.000 M49.000 327.870 C 49.000 328.348,47.040 328.961,44.645 329.231 C 39.946 329.760,32.000 336.140,32.000 339.383 C 32.000 340.272,31.550 341.000,31.000 341.000 C 30.404 341.000,30.000 344.833,30.000 350.500 C 30.000 356.167,30.404 360.000,31.000 360.000 C 31.550 360.000,32.000 360.678,32.000 361.507 C 32.000 362.335,33.185 364.023,34.633 365.257 C 36.081 366.490,37.849 368.063,38.562 368.750 C 39.274 369.438,40.302 370.000,40.845 370.000 C 41.389 370.000,42.021 370.563,42.250 371.250 C 42.546 372.137,45.522 372.500,52.500 372.500 C 59.478 372.500,62.454 372.137,62.750 371.250 C 62.979 370.563,63.583 370.000,64.092 370.000 C 65.853 370.000,71.000 364.662,71.000 362.835 C 71.000 361.826,71.450 361.000,72.000 361.000 C 72.550 361.000,73.000 360.325,73.000 359.500 C 73.000 358.675,73.450 358.000,74.000 358.000 C 75.443 358.000,75.242 344.919,73.750 341.707 C 73.063 340.227,72.162 339.012,71.750 339.008 C 71.338 339.004,71.000 338.394,71.000 337.653 C 71.000 335.720,67.538 332.000,65.740 332.000 C 64.901 332.000,63.955 331.325,63.638 330.500 C 63.277 329.559,61.748 329.000,59.531 329.000 C 57.589 329.000,56.000 328.550,56.000 328.000 C 56.000 327.450,54.425 327.000,52.500 327.000 C 50.575 327.000,49.000 327.391,49.000 327.870 M112.000 327.864 C 112.000 328.339,109.916 329.014,107.368 329.363 C 103.141 329.942,99.000 332.774,99.000 335.086 C 99.000 335.514,98.101 336.151,97.002 336.499 C 95.904 336.848,94.730 338.228,94.394 339.567 C 94.058 340.905,93.382 342.000,92.892 342.000 C 92.401 342.000,92.000 343.350,92.000 345.000 C 92.000 346.650,91.550 348.000,91.000 348.000 C 90.436 348.000,90.000 350.833,90.000 354.500 C 90.000 358.167,90.436 361.000,91.000 361.000 C 91.550 361.000,92.000 361.749,92.000 362.664 C 92.000 365.624,95.327 371.969,97.189 372.560 C 98.185 372.876,99.000 373.486,99.000 373.914 C 99.000 376.025,103.095 378.991,106.834 379.589 C 109.125 379.956,111.000 380.648,111.000 381.128 C 111.000 381.608,113.700 382.000,117.000 382.000 C 120.300 382.000,123.000 381.608,123.000 381.128 C 123.000 380.648,124.800 379.968,127.000 379.616 C 129.200 379.264,131.000 378.532,131.000 377.988 C 131.000 377.445,131.870 377.000,132.933 377.000 C 133.996 377.000,135.144 376.123,135.484 375.051 C 135.824 373.979,136.979 372.824,138.051 372.484 C 139.123 372.144,140.000 371.033,140.000 370.016 C 140.000 368.999,140.563 367.979,141.250 367.750 C 143.808 366.897,142.923 342.535,140.250 340.217 C 139.012 339.144,138.000 337.949,138.000 337.561 C 138.000 336.648,135.352 334.000,134.439 334.000 C 134.051 334.000,132.907 333.046,131.896 331.880 C 130.718 330.522,128.431 329.577,125.529 329.250 C 123.038 328.970,121.000 328.348,121.000 327.870 C 121.000 327.391,118.975 327.000,116.500 327.000 C 114.025 327.000,112.000 327.389,112.000 327.864 M440.000 327.869 C 440.000 328.347,438.452 328.990,436.559 329.297 C 432.448 329.964,424.357 337.621,421.580 343.472 C 418.862 349.201,419.708 366.144,422.848 368.868 C 424.032 369.895,425.000 371.244,425.000 371.867 C 425.000 372.490,425.420 373.000,425.933 373.000 C 426.446 373.000,427.151 373.900,427.500 375.000 C 427.849 376.100,429.004 377.000,430.067 377.000 C 431.130 377.000,432.000 377.430,432.000 377.955 C 432.000 378.480,433.575 379.205,435.500 379.566 C 437.425 379.927,439.000 380.623,439.000 381.111 C 439.000 381.600,442.375 382.000,446.500 382.000 C 450.625 382.000,454.000 381.609,454.000 381.131 C 454.000 380.653,455.612 380.000,457.582 379.680 C 461.803 378.995,469.487 371.891,470.539 367.701 C 470.912 366.215,471.618 365.000,472.108 365.000 C 472.599 365.000,473.000 363.425,473.000 361.500 C 473.000 359.575,473.450 358.000,474.000 358.000 C 474.550 358.000,475.000 356.425,475.000 354.500 C 475.000 352.575,474.550 351.000,474.000 351.000 C 473.450 351.000,473.000 349.425,473.000 347.500 C 473.000 345.575,472.599 344.000,472.108 344.000 C 471.618 344.000,470.910 342.762,470.535 341.250 C 469.850 338.488,463.862 332.000,461.998 332.000 C 461.449 332.000,461.000 331.578,461.000 331.061 C 461.000 330.545,458.975 329.819,456.500 329.448 C 454.025 329.077,452.000 328.374,452.000 327.886 C 452.000 327.399,449.300 327.000,446.000 327.000 C 442.700 327.000,440.000 327.391,440.000 327.869 M254.049 336.689 C 252.152 336.946,249.849 338.021,248.932 339.078 C 248.015 340.135,246.825 341.000,246.286 341.000 C 244.640 341.000,241.000 344.639,241.000 346.284 C 241.000 347.136,240.438 348.021,239.750 348.251 C 238.858 348.550,238.500 351.625,238.500 359.002 C 238.500 366.379,238.858 369.453,239.750 369.751 C 240.438 369.979,241.000 370.564,241.000 371.050 C 241.000 373.439,247.723 379.079,251.250 379.649 C 253.313 379.983,255.000 380.648,255.000 381.128 C 255.000 381.608,257.250 382.000,260.000 382.000 C 262.750 382.000,265.000 381.601,265.000 381.114 C 265.000 380.626,266.936 379.937,269.302 379.582 C 272.019 379.175,274.138 378.166,275.052 376.846 C 277.111 373.873,278.769 372.243,280.232 371.757 C 282.025 371.160,282.042 348.850,280.250 348.251 C 279.563 348.021,279.000 347.161,279.000 346.340 C 279.000 345.518,277.685 343.531,276.077 341.923 C 274.469 340.315,272.482 339.000,271.660 339.000 C 270.839 339.000,270.017 338.582,269.833 338.071 C 269.433 336.955,258.894 336.033,254.049 336.689 M188.250 353.666 C 186.463 353.919,185.000 354.548,185.000 355.063 C 185.000 355.579,184.100 356.000,183.000 356.000 C 181.900 356.000,181.000 356.450,181.000 357.000 C 181.000 357.550,180.325 358.000,179.500 358.000 C 178.675 358.000,178.000 358.420,178.000 358.933 C 178.000 359.446,177.082 360.157,175.959 360.513 C 174.747 360.898,173.681 362.347,173.334 364.080 C 173.013 365.686,172.356 367.000,171.875 367.000 C 171.394 367.000,171.000 367.675,171.000 368.500 C 171.000 369.325,170.550 370.000,170.000 370.000 C 169.450 370.000,169.000 371.125,169.000 372.500 C 169.000 373.875,168.550 375.000,168.000 375.000 C 167.450 375.000,167.000 377.250,167.000 380.000 C 167.000 382.750,167.450 385.000,168.000 385.000 C 168.550 385.000,169.000 386.575,169.000 388.500 C 169.000 390.425,169.450 392.000,170.000 392.000 C 170.550 392.000,171.000 392.643,171.000 393.429 C 171.000 395.430,179.414 404.000,181.380 404.000 C 182.271 404.000,183.000 404.450,183.000 405.000 C 183.000 405.550,183.675 406.000,184.500 406.000 C 185.325 406.000,186.000 406.450,186.000 407.000 C 186.000 407.588,189.500 408.000,194.500 408.000 C 199.500 408.000,203.000 407.588,203.000 407.000 C 203.000 406.450,204.302 406.000,205.893 406.000 C 207.542 406.000,209.034 405.355,209.362 404.500 C 209.678 403.675,210.821 403.000,211.901 403.000 C 212.987 403.000,214.149 402.106,214.500 401.000 C 214.849 399.900,215.554 399.000,216.067 399.000 C 216.580 399.000,217.000 398.325,217.000 397.500 C 217.000 396.675,217.450 396.000,218.000 396.000 C 218.550 396.000,219.000 395.137,219.000 394.083 C 219.000 393.029,219.563 391.978,220.250 391.747 C 221.152 391.445,221.500 388.172,221.500 379.997 C 221.500 371.821,221.152 368.550,220.250 368.250 C 219.563 368.021,219.000 367.399,219.000 366.869 C 219.000 365.123,209.135 356.000,207.248 356.000 C 206.231 356.000,204.912 355.512,204.316 354.916 C 203.112 353.712,193.304 352.950,188.250 353.666 M357.017 355.556 C 355.651 356.305,354.065 357.558,353.492 358.342 C 352.919 359.125,351.567 359.937,350.487 360.145 C 349.407 360.353,348.352 361.411,348.143 362.497 C 347.934 363.583,346.916 365.206,345.881 366.103 C 344.847 367.000,344.000 368.244,344.000 368.867 C 344.000 369.490,343.550 370.000,343.000 370.000 C 341.530 370.000,341.742 388.045,343.250 391.293 C 343.938 392.773,344.837 393.988,345.250 393.992 C 345.663 393.996,346.000 394.469,346.000 395.042 C 346.000 397.081,352.600 404.000,354.545 404.000 C 355.345 404.000,356.000 404.450,356.000 405.000 C 356.000 405.550,357.125 406.000,358.500 406.000 C 359.875 406.000,361.000 406.450,361.000 407.000 C 361.000 407.571,364.000 408.000,368.000 408.000 C 372.000 408.000,375.000 407.571,375.000 407.000 C 375.000 406.450,376.125 406.000,377.500 406.000 C 378.875 406.000,380.000 405.550,380.000 405.000 C 380.000 404.450,380.914 404.000,382.031 404.000 C 383.149 404.000,384.322 403.325,384.638 402.500 C 384.955 401.675,386.066 401.000,387.107 401.000 C 388.298 401.000,389.000 400.298,389.000 399.107 C 389.000 398.066,389.675 396.955,390.500 396.638 C 391.325 396.322,392.000 395.149,392.000 394.031 C 392.000 392.914,392.450 392.000,393.000 392.000 C 393.550 392.000,394.000 390.875,394.000 389.500 C 394.000 388.125,394.450 387.000,395.000 387.000 C 395.571 387.000,396.000 384.000,396.000 380.000 C 396.000 376.000,395.571 373.000,395.000 373.000 C 394.450 373.000,394.000 371.875,394.000 370.500 C 394.000 369.125,393.550 368.000,393.000 368.000 C 392.450 368.000,392.000 367.345,392.000 366.545 C 392.000 364.600,385.081 358.000,383.042 358.000 C 382.469 358.000,381.996 357.663,381.992 357.250 C 381.960 354.113,362.108 352.767,357.017 355.556 M294.883 373.435 C 294.122 374.334,292.938 375.697,292.250 376.463 C 291.563 377.230,291.000 378.339,291.000 378.929 C 291.000 379.518,290.550 380.000,290.000 380.000 C 289.450 380.000,289.000 382.475,289.000 385.500 C 289.000 388.525,289.450 391.000,290.000 391.000 C 290.550 391.000,291.000 391.445,291.000 391.989 C 291.000 393.745,294.392 397.000,296.222 397.000 C 297.200 397.000,298.000 397.450,298.000 398.000 C 298.000 398.550,300.250 399.000,303.000 399.000 C 305.750 399.000,308.000 398.550,308.000 398.000 C 308.000 397.450,308.739 397.000,309.642 397.000 C 316.575 397.000,320.009 380.918,314.296 375.205 C 310.857 371.766,297.337 370.533,294.883 373.435 M67.750 393.055 C 64.008 396.903,61.966 408.000,65.000 408.000 C 65.550 408.000,66.000 408.470,66.000 409.045 C 66.000 414.081,85.207 418.880,86.756 414.232 C 86.988 413.535,87.813 412.329,88.589 411.554 C 89.365 410.778,90.000 409.661,90.000 409.071 C 90.000 408.482,90.450 408.000,91.000 408.000 C 91.550 408.000,92.000 405.507,92.000 402.461 C 92.000 389.796,76.694 383.859,67.750 393.055 M250.000 398.000 C 250.000 398.550,249.100 399.000,248.000 399.000 C 246.900 399.000,246.000 399.450,246.000 400.000 C 246.000 400.550,245.325 401.000,244.500 401.000 C 243.675 401.000,243.000 401.420,243.000 401.933 C 243.000 402.446,242.008 403.180,240.797 403.565 C 238.531 404.283,236.000 406.360,236.000 407.500 C 236.000 407.854,235.325 408.818,234.500 409.643 C 233.675 410.468,233.000 412.011,233.000 413.071 C 233.000 414.132,232.550 415.000,232.000 415.000 C 231.450 415.000,231.000 416.125,231.000 417.500 C 231.000 418.875,230.550 420.000,230.000 420.000 C 229.412 420.000,229.000 423.500,229.000 428.500 C 229.000 433.500,229.412 437.000,230.000 437.000 C 230.550 437.000,231.000 438.125,231.000 439.500 C 231.000 440.875,231.401 442.000,231.892 442.000 C 232.382 442.000,233.066 443.125,233.411 444.500 C 233.756 445.875,234.480 447.000,235.019 447.000 C 235.559 447.000,236.000 447.870,236.000 448.933 C 236.000 450.060,236.938 451.161,238.250 451.576 C 239.488 451.966,241.227 453.121,242.116 454.141 C 243.004 455.161,245.142 456.278,246.866 456.623 C 248.590 456.968,250.000 457.644,250.000 458.125 C 250.000 458.606,254.500 459.000,260.000 459.000 C 265.500 459.000,270.000 458.600,270.000 458.111 C 270.000 457.623,271.477 456.945,273.282 456.607 C 275.088 456.268,277.212 455.093,278.003 453.995 C 278.794 452.898,279.948 452.000,280.568 452.000 C 282.372 452.000,286.000 448.415,286.000 446.633 C 286.000 445.735,286.414 445.000,286.921 445.000 C 287.427 445.000,288.138 443.650,288.500 442.000 C 288.862 440.350,289.573 439.000,290.079 439.000 C 290.586 439.000,291.000 434.275,291.000 428.500 C 291.000 422.499,290.591 418.000,290.045 418.000 C 289.520 418.000,288.795 416.425,288.434 414.500 C 288.073 412.575,287.377 411.000,286.889 411.000 C 286.400 411.000,286.000 410.530,286.000 409.955 C 286.000 408.410,281.659 404.344,279.165 403.552 C 277.974 403.174,277.000 402.446,277.000 401.933 C 277.000 401.420,276.325 401.000,275.500 401.000 C 274.675 401.000,274.000 400.550,274.000 400.000 C 274.000 399.450,273.100 399.000,272.000 399.000 C 270.900 399.000,270.000 398.550,270.000 398.000 C 270.000 397.400,266.000 397.000,260.000 397.000 C 254.000 397.000,250.000 397.400,250.000 398.000 M433.971 399.123 C 433.162 400.290,431.938 401.833,431.250 402.551 C 430.563 403.269,430.000 404.339,430.000 404.929 C 430.000 405.518,429.550 406.000,429.000 406.000 C 428.450 406.000,428.000 408.250,428.000 411.000 C 428.000 413.750,428.450 416.000,429.000 416.000 C 429.550 416.000,430.000 416.675,430.000 417.500 C 430.000 418.325,430.900 419.900,432.000 421.000 C 433.100 422.100,434.675 423.000,435.500 423.000 C 436.325 423.000,437.000 423.450,437.000 424.000 C 437.000 424.550,439.250 425.000,442.000 425.000 C 444.750 425.000,447.000 424.550,447.000 424.000 C 447.000 423.450,447.659 423.000,448.466 423.000 C 454.646 423.000,459.670 405.299,454.000 403.500 C 452.900 403.151,452.000 401.996,452.000 400.933 C 452.000 399.870,451.325 399.000,450.500 399.000 C 449.675 399.000,449.000 398.550,449.000 398.000 C 449.000 395.825,435.560 396.829,433.971 399.123 M121.000 406.869 C 121.000 407.347,119.373 408.002,117.384 408.325 C 114.116 408.855,104.000 417.380,104.000 419.603 C 104.000 419.967,102.988 421.143,101.752 422.215 C 99.078 424.534,98.188 449.895,100.750 450.750 C 101.438 450.979,102.000 451.559,102.000 452.039 C 102.000 453.607,112.786 464.000,114.413 464.000 C 115.286 464.000,116.000 464.450,116.000 465.000 C 116.000 465.550,117.125 466.000,118.500 466.000 C 119.875 466.000,121.000 466.450,121.000 467.000 C 121.000 467.596,124.833 468.000,130.500 468.000 C 136.167 468.000,140.000 467.596,140.000 467.000 C 140.000 466.450,141.125 466.000,142.500 466.000 C 143.875 466.000,145.000 465.580,145.000 465.067 C 145.000 464.554,145.969 463.827,147.153 463.451 C 149.905 462.578,157.000 455.378,157.000 453.460 C 157.000 452.657,157.340 452.000,157.756 452.000 C 160.891 452.000,163.051 428.651,160.182 425.782 C 159.532 425.132,159.000 423.820,159.000 422.867 C 159.000 421.914,158.100 420.849,157.000 420.500 C 155.900 420.151,155.000 419.157,155.000 418.291 C 155.000 416.581,149.649 411.000,148.009 411.000 C 147.454 411.000,147.000 410.600,147.000 410.111 C 147.000 409.623,145.425 408.927,143.500 408.566 C 141.575 408.205,140.000 407.480,140.000 406.955 C 140.000 406.415,135.866 406.000,130.500 406.000 C 125.275 406.000,121.000 406.391,121.000 406.869 M323.750 415.635 C 322.788 415.917,322.000 416.564,322.000 417.073 C 322.000 417.583,321.148 418.000,320.107 418.000 C 319.066 418.000,317.955 418.675,317.638 419.500 C 317.322 420.325,316.149 421.000,315.031 421.000 C 313.692 421.000,313.000 421.657,313.000 422.929 C 313.000 423.989,312.325 425.532,311.500 426.357 C 310.675 427.182,310.000 428.339,310.000 428.929 C 310.000 429.518,309.550 430.000,309.000 430.000 C 308.450 430.000,308.000 431.125,308.000 432.500 C 308.000 433.875,307.550 435.000,307.000 435.000 C 306.444 435.000,306.000 437.667,306.000 441.000 C 306.000 444.333,306.444 447.000,307.000 447.000 C 307.550 447.000,308.000 448.125,308.000 449.500 C 308.000 450.875,308.450 452.000,309.000 452.000 C 309.550 452.000,310.000 452.852,310.000 453.893 C 310.000 454.934,310.675 456.045,311.500 456.362 C 312.325 456.678,313.000 457.658,313.000 458.540 C 313.000 460.552,314.936 462.527,317.797 463.435 C 319.008 463.820,320.000 464.554,320.000 465.067 C 320.000 465.580,321.125 466.000,322.500 466.000 C 323.875 466.000,325.000 466.450,325.000 467.000 C 325.000 467.588,328.500 468.000,333.500 468.000 C 338.500 468.000,342.000 467.588,342.000 467.000 C 342.000 466.450,343.302 466.000,344.893 466.000 C 346.542 466.000,348.034 465.355,348.362 464.500 C 348.678 463.675,349.863 463.000,350.994 463.000 C 352.474 463.000,353.216 462.168,353.644 460.030 C 353.979 458.356,355.059 456.799,356.119 456.462 C 357.154 456.134,358.000 455.033,358.000 454.016 C 358.000 452.999,358.563 451.979,359.250 451.750 C 360.142 451.453,360.500 448.378,360.500 441.000 C 360.500 433.622,360.142 430.547,359.250 430.250 C 358.563 430.021,358.000 429.295,358.000 428.637 C 358.000 427.980,357.100 426.793,356.000 426.000 C 354.900 425.207,354.000 423.807,354.000 422.888 C 354.000 421.939,352.919 420.945,351.500 420.589 C 350.125 420.244,349.000 419.520,349.000 418.981 C 349.000 418.441,348.363 418.000,347.583 418.000 C 346.804 418.000,345.986 417.457,345.764 416.793 C 345.350 415.549,327.293 414.600,323.750 415.635 M188.000 424.000 C 188.000 424.550,187.531 425.000,186.958 425.000 C 184.358 425.000,178.000 431.775,178.000 434.545 C 178.000 435.895,177.550 437.000,177.000 437.000 C 176.450 437.000,176.000 438.800,176.000 441.000 C 176.000 443.200,176.450 445.000,177.000 445.000 C 177.550 445.000,178.000 446.179,178.000 447.620 C 178.000 449.426,179.421 451.601,182.571 454.620 L 187.143 459.000 195.071 459.000 C 199.432 459.000,203.000 458.606,203.000 458.125 C 203.000 457.644,204.338 456.982,205.973 456.655 C 208.070 456.236,209.134 455.315,209.582 453.530 C 209.931 452.139,210.618 451.000,211.108 451.000 C 211.599 451.000,212.000 450.100,212.000 449.000 C 212.000 447.900,212.450 447.000,213.000 447.000 C 213.556 447.000,214.000 444.333,214.000 441.000 C 214.000 437.667,213.556 435.000,213.000 435.000 C 212.450 435.000,212.000 434.325,212.000 433.500 C 212.000 432.675,211.581 432.000,211.070 432.000 C 210.558 432.000,209.995 430.992,209.820 429.760 C 209.636 428.473,208.655 427.359,207.514 427.142 C 206.422 426.933,204.794 425.916,203.897 424.881 C 202.091 422.799,188.000 422.018,188.000 424.000 M387.000 424.000 C 387.000 424.550,386.325 425.000,385.500 425.000 C 384.675 425.000,384.000 425.420,384.000 425.933 C 384.000 426.446,383.101 427.151,382.002 427.499 C 380.904 427.848,379.730 429.228,379.394 430.567 C 379.058 431.905,378.382 433.000,377.892 433.000 C 377.401 433.000,377.000 436.600,377.000 441.000 C 377.000 445.667,377.417 449.000,378.000 449.000 C 378.550 449.000,379.000 449.655,379.000 450.455 C 379.000 452.339,383.661 457.000,385.545 457.000 C 386.345 457.000,387.000 457.450,387.000 458.000 C 387.000 458.583,390.333 459.000,395.000 459.000 C 399.400 459.000,403.000 458.599,403.000 458.108 C 403.000 457.618,404.118 456.936,405.485 456.593 C 407.018 456.208,408.208 455.018,408.593 453.485 C 408.936 452.118,409.618 451.000,410.108 451.000 C 410.599 451.000,411.000 450.100,411.000 449.000 C 411.000 447.900,411.450 447.000,412.000 447.000 C 412.556 447.000,413.000 444.333,413.000 441.000 C 413.000 437.667,412.556 435.000,412.000 435.000 C 411.450 435.000,411.000 434.325,411.000 433.500 C 411.000 432.675,410.581 432.000,410.070 432.000 C 409.558 432.000,408.995 430.988,408.820 429.750 C 408.614 428.304,407.696 427.386,406.250 427.180 C 405.012 427.005,404.000 426.442,404.000 425.930 C 404.000 425.419,403.325 425.000,402.500 425.000 C 401.675 425.000,401.000 424.550,401.000 424.000 C 401.000 423.429,398.000 423.000,394.000 423.000 C 390.000 423.000,387.000 423.429,387.000 424.000 M284.000 467.000 C 284.000 467.550,283.531 468.000,282.958 468.000 C 281.943 468.000,280.185 469.246,277.715 471.715 C 275.246 474.185,274.000 475.943,274.000 476.958 C 274.000 477.531,273.550 478.000,273.000 478.000 C 272.444 478.000,272.000 480.667,272.000 484.000 C 272.000 487.333,272.444 490.000,273.000 490.000 C 273.550 490.000,274.000 491.125,274.000 492.500 C 274.000 493.875,274.420 495.000,274.933 495.000 C 275.446 495.000,276.151 495.899,276.499 496.998 C 276.848 498.096,278.228 499.270,279.567 499.606 C 280.905 499.942,282.000 500.618,282.000 501.108 C 282.000 501.599,285.813 502.000,290.474 502.000 L 298.947 502.000 303.474 497.474 L 308.000 492.947 308.000 484.474 C 308.000 479.813,307.599 476.000,307.108 476.000 C 306.618 476.000,305.936 474.882,305.593 473.515 C 305.208 471.982,304.018 470.792,302.485 470.407 C 301.118 470.064,300.000 469.382,300.000 468.892 C 300.000 468.401,299.100 468.000,298.000 468.000 C 296.900 468.000,296.000 467.550,296.000 467.000 C 296.000 466.444,293.333 466.000,290.000 466.000 C 286.667 466.000,284.000 466.444,284.000 467.000 M211.075 475.660 C 204.949 478.341,198.855 495.000,204.000 495.000 C 204.550 495.000,205.000 495.891,205.000 496.981 C 205.000 498.260,205.886 499.184,207.500 499.589 C 208.875 499.934,210.000 500.618,210.000 501.108 C 210.000 501.599,212.960 502.000,216.577 502.000 C 223.148 502.000,229.000 498.739,229.000 495.077 C 229.000 494.485,229.450 494.000,230.000 494.000 C 230.550 494.000,231.000 491.525,231.000 488.500 C 231.000 485.475,230.550 483.000,230.000 483.000 C 229.450 483.000,229.000 482.518,229.000 481.929 C 229.000 481.339,228.365 480.222,227.589 479.446 C 226.813 478.671,226.011 477.534,225.807 476.920 C 225.398 475.693,213.353 474.663,211.075 475.660 " stroke="none" fill="#000000" fill-rule="evenodd"></path></g></svg>