<svg viewBox="0 0 1998 1983" xmlns="http://www.w3.org/2000/svg">
  <g fill-rule="nonzero" fill="none">
    <path d="M1301.14068 46.76806v356.273765c222.81369 112.927757 363.11788 339.923954 363.4981 588.593156 0 248.669199-140.30418 476.045629-363.4981 588.973389v354.75285c414.06845-130.79848 695.43727-512.1673 696.19772-943.726239-.38023-431.939164-281.74905-814.068441-696.19772-944.86692zm-604.942961 1.140685C282.129278 178.326996.380229 560.076046 0 991.634981c0 431.939159 281.749049 813.688209 696.197719 944.486689v-356.27376C473.38403 1466.92015 333.079848 1239.92395 332.69962 991.254753c0-248.669202 140.304182-476.425856 363.498099-588.973384V47.908745z" fill="#3D92EF"/>
    <path d="M998.479087 0c-73.38403.380228-146.387832 9.125475-217.870722 25.475285v342.205323c69.961977-24.714829 143.726236-37.262357 217.870722-37.642585 74.144483.380228 147.908743 12.927756 217.870723 37.262357V24.714829C1144.86692 8.745247 1071.86312.380229 998.479087 0zm302.661593 46.76806V402.28137 46.768061zm-604.942961 1.140685v355.13308-355.13308zm302.281368 598.09886c-79.46768 0-156.273764 27.376425-217.870722 76.806083v537.262362c61.596958 49.42965 138.78327 76.80608 217.870722 76.80608 79.467683 0 156.273763-27.37643 217.870723-76.80608V722.813688c-61.59696-49.429658-138.40304-76.806083-217.870723-76.806083zM696.197719 820.912548v340.684412-340.684412zm604.942961.380228v340.684414-340.684414zm0 758.555134v355.51331-355.51331zm-604.942961.76046v355.5133-355.5133zm520.532321 34.60076c-69.96198 24.71482-143.72624 37.26235-217.870724 37.64258-74.144487-.38023-147.908746-12.92776-217.870723-37.26236v342.58555c71.48289 16.34981 144.486692 24.33461 217.870723 24.71483 73.384034-.38022 146.387834-9.12547 217.870724-25.47528v-342.20532z" fill="#81BFFF"/>
    <path d="M998.479087 887.072243c-73.38403.380228-146.387832 4.942966-218.25095 14.068441V1959.31559c71.48289 8.74525 144.86692 13.30798 218.25095 13.68821 73.384033-.38023 146.387833-4.94296 217.870723-14.06844V900.760456c-71.48289-8.745247-144.48669-13.307985-217.870723-13.688213zm302.661593 25.855514V1946.76806 912.927757z" fill="#81BFFF"/>
  </g>
</svg>
