<svg viewBox="0 0 1731 1999" xmlns="http://www.w3.org/2000/svg">
  <path d="M865.384615 0L0 499.615385v999.230765l865.384615 499.61539 865.384615-499.61539V499.615385L865.384615 0m17.692308 1618.46154l-664.230769-378.84616 2.692308-184.23076 661.153846 378.46153L1201.53846 1250l-213.846152-123.46154-80 46.15385-150-86.15385L838.076923 1040l-105-60.769231-63.461538 36.923081L519.230769 930l63.846154-36.923077-338.846154-195.769231 638.461539-368.461538L1485 672.307692l-161.53846 93.846154-440.769232-252.692308-318.846154 183.846154 178.461538 103.076923 91.153846-53.076923 150.384616 86.153846-91.923077 53.076924 105 60.76923 74.615383-43.461538L1221.92308 990l-75.38462 43.84615 373.84616 215.76923-637.307697 368.84616" fill="#000" fill-rule="nonzero"/>
</svg>
