<svg viewBox="0 0 1832 2000" xmlns="http://www.w3.org/2000/svg">
  <path d="M915.838928 2000.00099c-65.919551.0025-130.668502-17.41966-187.686069-50.50114l-539.875867-312.05252C71.952655 1570.11492.233079 1445.98222 0 1311.57631V688.471285c.474254-134.340911 72.129427-258.362142 188.276992-325.871019L728.152859 50.547743C785.464102 17.490843 850.450252.060886 916.611673.001143c65.688949-.058469 130.206927 17.389 186.913327 50.5466l539.92132 312.052523c116.30685 67.343919 188.00786 191.474458 188.23154 325.871019v623.105025c-.46483 134.33159-72.10146 258.35068-188.23154 325.87102L1103.525 1949.49985c-57.0159 33.0855-121.76595 50.50795-187.686072 50.50114zM605.240983 1357.1228l-100.002265 100.00226c52.502014 53.21897 124.340854 82.87299 199.095419 82.18368 155.833146-.1753 282.124183-126.44601 282.324577-282.27912v-85.2292c42.742836 24.72298 91.261716 37.70735 140.639546 37.63721 74.99522 1.49551 147.3103-27.8907 200.00453-81.27457l-100.00226-100.00226c-26.46232 26.63235-62.45848 41.60348-100.00227 41.59185-77.61083-.15007-140.489476-63.02872-140.639546-140.63955V459.511553H846.019165v798.427177c0 77.82371-63.088578 140.91228-140.912283 140.91228-37.516186-.06075-73.459359-15.07934-99.865899-41.72821z" fill="#0050DB" fill-rule="nonzero"/>
</svg>
