<svg id="svg" version="1.1" width="515" height="515" xmlns="http://www.w3.org/2000/svg" xmlns:xlink="http://www.w3.org/1999/xlink" style="display: block;"><g id="svgg"><path id="path0" d="M62.204 127.667 C 62.438 227.900,62.761 254.421,63.750 254.750 C 64.512 255.004,65.000 256.988,64.999 259.833 C 64.997 266.158,67.127 281.000,68.036 281.000 C 68.440 281.000,69.079 283.475,69.457 286.500 C 69.835 289.525,70.472 292.000,70.873 292.000 C 71.274 292.000,72.202 295.375,72.935 299.500 C 73.668 303.625,74.585 307.000,74.974 307.000 C 75.363 307.000,76.274 309.475,77.000 312.500 C 77.726 315.525,78.612 318.000,78.971 318.000 C 79.329 318.000,80.199 320.250,80.903 323.000 C 81.608 325.750,82.593 328.000,83.092 328.000 C 83.592 328.000,84.000 328.868,84.000 329.929 C 84.000 330.989,84.656 332.513,85.457 333.314 C 86.258 334.115,87.436 336.847,88.075 339.385 C 88.715 341.923,89.544 344.000,89.918 344.000 C 90.292 344.000,91.168 345.575,91.864 347.500 C 92.560 349.425,93.478 351.000,93.905 351.000 C 94.331 351.000,95.266 352.777,95.983 354.948 C 96.699 357.119,97.896 359.130,98.643 359.416 C 99.389 359.703,100.000 360.626,100.000 361.469 C 100.000 362.311,100.366 363.000,100.813 363.000 C 101.261 363.000,102.245 364.575,103.000 366.500 C 103.755 368.425,104.655 370.000,105.000 370.000 C 105.345 370.000,106.237 371.556,106.984 373.458 C 107.730 375.360,108.939 377.146,109.670 377.427 C 110.402 377.708,111.000 378.604,111.000 379.419 C 111.000 380.234,111.564 381.260,112.253 381.700 C 112.942 382.140,114.853 384.525,116.500 387.000 C 118.147 389.475,120.058 391.860,120.747 392.300 C 121.436 392.740,122.008 393.640,122.017 394.300 C 122.027 394.960,123.152 396.560,124.517 397.855 C 125.883 399.150,127.000 400.627,127.000 401.136 C 127.000 401.645,128.575 403.507,130.500 405.274 C 132.425 407.041,134.000 408.807,134.000 409.200 C 134.000 409.593,136.475 412.369,139.500 415.370 C 142.525 418.371,145.000 421.123,145.000 421.485 C 145.000 422.336,172.586 450.000,173.436 450.000 C 173.790 450.000,177.019 452.925,180.611 456.500 C 184.204 460.075,187.480 463.000,187.891 463.000 C 188.303 463.000,189.533 464.012,190.626 465.250 C 191.718 466.488,193.903 468.400,195.480 469.500 C 197.058 470.600,199.334 472.512,200.539 473.750 C 201.744 474.988,203.007 476.000,203.346 476.000 C 203.686 476.000,205.558 477.548,207.506 479.440 C 209.455 481.333,211.896 483.150,212.932 483.478 C 213.968 483.807,215.068 484.734,215.376 485.538 C 215.685 486.342,216.611 487.000,217.433 487.000 C 218.256 487.000,219.411 487.900,220.000 489.000 C 220.589 490.100,221.730 491.000,222.535 491.000 C 223.341 491.000,224.000 491.460,224.000 492.021 C 224.000 492.583,225.192 493.586,226.650 494.250 C 228.107 494.914,230.815 496.929,232.668 498.729 C 234.521 500.528,236.417 502.000,236.883 502.000 C 237.348 502.000,239.252 503.332,241.114 504.961 C 242.977 506.590,245.611 508.502,246.970 509.211 C 248.328 509.920,250.240 511.288,251.220 512.250 C 254.222 515.201,261.882 514.030,264.300 510.250 C 264.740 509.563,265.644 509.000,266.309 509.000 C 266.975 509.000,268.081 508.100,268.768 507.000 C 269.455 505.900,270.688 505.000,271.508 505.000 C 272.329 505.000,273.000 504.626,273.000 504.169 C 273.000 503.712,274.238 502.699,275.750 501.919 C 277.262 501.139,279.088 499.712,279.807 498.750 C 280.525 497.787,281.538 497.000,282.057 497.000 C 283.031 497.000,284.520 495.852,289.971 490.894 C 291.722 489.302,293.457 487.999,293.827 487.999 C 294.197 487.998,295.850 486.892,297.500 485.541 C 299.150 484.190,301.585 482.279,302.912 481.293 C 304.239 480.307,307.123 477.813,309.321 475.750 C 311.520 473.688,313.652 472.000,314.059 472.000 C 314.467 472.000,316.375 470.425,318.300 468.500 C 320.225 466.575,322.157 465.000,322.592 465.000 C 323.028 465.000,325.744 462.525,328.627 459.500 C 331.511 456.475,334.297 454.000,334.819 454.000 C 335.341 454.000,337.733 451.952,340.134 449.449 C 342.535 446.945,346.219 443.233,348.320 441.199 C 350.421 439.164,353.796 435.785,355.820 433.690 C 364.024 425.196,367.351 422.000,367.990 422.000 C 368.360 422.000,369.301 420.772,370.081 419.272 C 370.861 417.772,373.556 414.484,376.069 411.965 C 378.582 409.447,380.930 406.625,381.287 405.693 C 381.645 404.762,382.387 404.000,382.937 404.000 C 383.486 404.000,384.513 402.935,385.218 401.633 C 386.464 399.333,390.881 393.568,394.076 390.072 C 394.943 389.123,395.942 387.594,396.295 386.674 C 396.648 385.753,397.401 385.000,397.969 385.000 C 398.536 385.000,399.001 384.438,399.001 383.750 C 399.002 383.063,400.114 381.207,401.473 379.628 C 402.831 378.048,404.211 375.910,404.539 374.878 C 404.867 373.845,405.470 373.000,405.881 373.000 C 406.291 373.000,407.245 371.425,408.000 369.500 C 408.755 367.575,409.685 366.000,410.065 366.000 C 410.446 366.000,411.348 364.537,412.070 362.750 C 412.792 360.962,413.971 359.140,414.691 358.700 C 415.411 358.260,416.000 357.248,416.000 356.450 C 416.000 355.653,416.379 355.000,416.842 355.000 C 417.305 355.000,418.223 353.200,418.882 351.000 C 419.541 348.800,420.441 347.000,420.882 347.000 C 421.323 347.000,422.223 345.200,422.882 343.000 C 423.541 340.800,424.467 339.000,424.940 339.000 C 425.413 339.000,426.340 336.750,427.000 334.000 C 427.660 331.250,428.584 329.000,429.054 329.000 C 429.525 329.000,430.205 327.425,430.566 325.500 C 430.927 323.575,431.590 322.000,432.040 322.000 C 432.489 322.000,433.410 319.525,434.087 316.500 C 434.764 313.475,435.635 311.000,436.022 311.000 C 436.410 311.000,437.300 308.300,438.000 305.000 C 438.700 301.700,439.607 299.000,440.014 299.000 C 440.422 299.000,441.316 295.400,442.000 291.000 C 442.684 286.600,443.604 283.000,444.043 283.000 C 444.482 283.000,445.161 279.963,445.553 276.250 C 445.945 272.538,446.610 269.275,447.030 269.000 C 449.332 267.495,450.000 234.128,450.000 120.693 L 450.000 1.000 255.954 1.000 L 61.907 1.000 62.204 127.667 M384.816 157.037 C 384.584 223.990,384.197 248.262,383.356 248.787 C 382.727 249.179,381.886 252.988,381.488 257.250 C 381.091 261.512,380.430 265.000,380.020 265.000 C 379.610 265.000,378.730 268.375,378.065 272.500 C 377.399 276.625,376.480 280.000,376.021 280.000 C 375.563 280.000,374.877 282.262,374.496 285.026 C 374.116 287.790,373.241 290.616,372.551 291.306 C 371.862 291.995,370.696 294.909,369.960 297.780 C 369.224 300.651,368.293 303.000,367.890 303.000 C 367.488 303.000,366.862 304.350,366.500 306.000 C 366.138 307.650,365.445 309.000,364.961 309.000 C 364.476 309.000,363.541 310.800,362.882 313.000 C 362.223 315.200,361.323 317.000,360.882 317.000 C 360.441 317.000,359.541 318.800,358.882 321.000 C 358.223 323.200,357.415 325.000,357.086 325.000 C 356.757 325.000,355.841 326.462,355.050 328.250 C 353.698 331.305,353.046 332.300,350.439 335.285 C 349.855 335.953,348.732 337.963,347.944 339.750 C 347.156 341.538,346.160 343.000,345.731 343.000 C 345.302 343.000,344.523 344.125,344.000 345.500 C 343.477 346.875,342.588 348.000,342.025 348.000 C 341.461 348.000,340.999 348.563,340.999 349.250 C 340.998 350.505,337.821 354.737,334.031 358.535 C 332.914 359.655,332.000 360.884,332.000 361.267 C 332.000 361.650,330.425 363.585,328.500 365.568 C 326.575 367.550,325.000 369.565,325.000 370.046 C 325.000 370.526,323.125 372.625,320.833 374.710 C 318.541 376.794,315.953 379.352,315.083 380.393 C 314.212 381.434,312.712 382.996,311.750 383.865 C 310.788 384.734,310.000 385.829,310.000 386.299 C 310.000 387.716,304.579 392.682,302.211 393.433 C 300.995 393.819,300.000 394.496,300.000 394.938 C 300.000 395.981,286.988 409.000,285.945 409.000 C 285.507 409.000,282.902 411.137,280.156 413.750 C 274.600 419.037,269.409 423.326,267.956 423.833 C 267.430 424.017,265.454 425.592,263.564 427.333 C 256.131 434.182,255.643 434.293,252.047 429.958 C 250.698 428.331,249.026 427.000,248.332 427.000 C 247.638 427.000,246.605 426.130,246.036 425.068 C 245.467 424.005,244.043 422.831,242.870 422.459 C 241.698 422.087,239.338 420.256,237.626 418.391 C 235.914 416.526,234.134 415.000,233.669 415.000 C 232.686 415.000,231.368 413.760,207.750 390.604 C 197.988 381.033,190.000 372.898,190.000 372.527 C 190.000 372.156,188.459 370.198,186.577 368.176 C 184.694 366.154,181.544 362.767,179.577 360.650 C 177.609 358.532,176.000 356.480,176.000 356.089 C 176.000 355.697,175.187 354.505,174.194 353.439 C 173.201 352.372,171.741 350.038,170.950 348.250 C 170.159 346.462,169.160 345.000,168.731 345.000 C 168.302 345.000,167.523 343.875,167.000 342.500 C 166.477 341.125,165.588 340.000,165.025 340.000 C 164.461 340.000,164.000 339.311,164.000 338.469 C 164.000 337.626,163.402 336.708,162.670 336.427 C 161.939 336.146,160.730 334.360,159.984 332.458 C 159.237 330.556,158.351 329.000,158.014 329.000 C 157.677 329.000,156.832 327.425,156.136 325.500 C 155.440 323.575,154.522 322.000,154.095 322.000 C 153.669 322.000,152.726 320.200,152.000 318.000 C 151.274 315.800,150.302 314.000,149.840 314.000 C 149.378 314.000,149.000 313.357,149.000 312.571 C 149.000 311.786,148.412 310.548,147.692 309.821 C 146.973 309.095,145.790 306.363,145.063 303.750 C 144.335 301.137,143.420 299.000,143.030 299.000 C 142.639 299.000,141.726 296.525,141.000 293.500 C 140.274 290.475,139.353 288.000,138.954 288.000 C 138.554 288.000,137.675 285.075,137.000 281.500 C 136.325 277.925,135.410 275.000,134.966 275.000 C 134.522 275.000,133.846 272.075,133.463 268.500 C 133.080 264.925,132.433 262.000,132.025 262.000 C 131.014 262.000,129.000 243.662,129.000 234.464 C 129.000 230.155,128.577 227.000,128.000 227.000 C 127.342 227.000,127.000 199.500,127.000 146.500 L 127.000 66.000 256.066 66.000 L 385.132 66.000 384.816 157.037 M251.855 191.570 C 250.560 192.984,247.779 195.796,245.675 197.820 C 243.571 199.844,239.296 204.142,236.175 207.372 C 233.054 210.601,228.746 214.876,226.603 216.872 C 224.459 218.867,221.084 222.254,219.103 224.397 C 217.121 226.541,213.757 229.916,211.626 231.897 C 204.421 238.597,201.000 242.196,201.000 243.078 C 201.000 243.952,254.617 298.000,255.484 298.000 C 256.674 298.000,310.000 243.701,310.000 242.490 C 310.000 240.396,258.136 189.000,256.023 189.000 C 255.026 189.000,253.150 190.157,251.855 191.570 " stroke="none" fill="#000000" fill-rule="evenodd"></path></g></svg>