<svg viewBox="0 0 1917 1927" xmlns="http://www.w3.org/2000/svg">
  <g fill="#34373C" fill-rule="nonzero">
    <path d="M958.267717 133.218707c-220.683841 0-428.168197 86.35421-584.219412 243.154736C217.99709 533.173969 132.057908 741.659759 132.057908 963.405545c0 221.745794 85.939182 430.231584 241.990397 587.032114 156.051215 156.78 363.535571 243.1342 584.219412 243.1342 220.683833 0 428.168193-86.3542 584.219403-243.1342 156.05122-156.80053 241.9904-365.28632 241.9904-587.032114 0-221.745786-85.93918-430.231576-241.9904-587.032102-156.05121-156.800526-363.53557-243.154736-584.219403-243.154736m0 1793.055792c-129.326351 0-254.843593-25.47316-373.027793-75.70106-114.110286-48.50368-216.589553-117.90316-304.565692-206.31-87.996508-88.40684-157.069693-191.38736-205.345555-306.04736-49.986905-118.74474-75.32664-244.85842-75.32664-374.810534 0-129.972627 25.339735-256.065786 75.32664-374.810523 48.275862-114.680526 117.349047-217.640526 205.345555-306.047369 87.976139-88.406842 190.455406-157.826842 304.565692-206.330526C703.424124 25.989233 828.941366.536601 958.267717.536601c129.326343 0 254.843583 25.452632 373.027783 75.680526 114.11029 48.503684 216.58956 117.923684 304.56569 206.330526 87.99651 88.406843 157.0697 191.366843 205.34556 306.047369 49.98691 118.744737 75.32664 244.837896 75.32664 374.810523 0 129.952114-25.33973 256.065794-75.32664 374.810534-48.27586 114.66-117.34905 217.64052-205.34556 306.04736-87.97613 88.40684-190.4554 157.80632-304.56569 206.31-118.1842 50.2279-243.70144 75.70106-373.027783 75.70106"/>
    <path d="M1094.61341 938.156103c-22.91575 0-45.17969-11.987365-57.38105-33.416841-18.10854-31.795262-7.12935-72.334738 24.52495-90.521048l569.41074-327.333162c31.6543-18.186315 72.0064-7.163684 90.11494 24.652106 18.10854 31.795263 7.12935 72.334736-24.52495 90.521052L1127.3473 929.391366c-10.34773 5.93211-21.61211 8.764737-32.73389 8.764737"/>
    <path d="M1094.55434 938.145841h-.18333c-36.46151-.102627-65.93627-29.886317-65.85479-66.525786l1.01848-383.883161c.08148-36.577894 29.63771-66.176842 66.01775-66.176842h.18333c36.46152.102632 65.93627 29.886316 65.85479 66.52579L1160.5721 871.969c-.08149 36.577897-29.63772 66.176841-66.01776 66.176841"/>
    <path d="M1425.00771 1117.5089c-10.59217 0-21.3473-2.5658-31.30801-7.98474l-330.51652-179.338422c-32.10243-17.426841-44.05936-57.678952-26.72486-89.905262 17.31412-32.246842 57.38105-44.275262 89.46311-26.848421l330.51651 179.338425c32.08207 17.40631 44.05937 57.65842 26.72487 89.90526-11.93656 22.20947-34.669 34.83316-58.1551 34.83316M959.312676 1903.95621c-36.359669 0-65.915904-29.55789-66.017752-66.13579l-2.098069-734.39052c-.122214-36.63948 29.352538-66.44369 65.814055-66.56684h.203697c36.380041 0 65.915903 29.55788 66.038123 66.13578l2.09806 734.39053c.10185 36.63947-29.352535 66.44369-65.814052 66.56684h-.224062z"/>
    <path d="M626.946603 1362.4371c-22.752801 0-44.894515-11.82316-57.156991-33.02684-18.312237-31.6721-7.618217-72.29368 23.913865-90.68526l330.333185-192.88579c31.532083-18.39158 71.945297-7.63579 90.277908 24.03631 18.31223 31.69264 7.59784 72.29369-23.913873 90.7058L660.06751 1353.44658c-10.449584 6.09632-21.85654 8.99052-33.120907 8.99052"/>
    <path d="M1275.40143 1373.53568c-12.16063 0-24.44348-3.36631-35.44304-10.42736l-318.254038-203.97c-30.737669-19.68474-39.761386-60.71684-20.145497-91.60895 19.595517-30.89211 60.416117-39.96474 91.174159-20.25947l318.233666 203.97c30.75804 19.70526 39.78175 60.73736 20.16586 91.62947-12.58838 19.82842-33.93568 30.66631-55.73111 30.66631M882.468497 904.739262c18.108544-31.795262 7.129351-72.334738-24.524952-90.521048L251.439837 466.78979c-31.654299-18.206842-71.986032-7.163684-90.094573 24.631578-18.108541 31.81579-7.129347 72.355264 24.524953 90.54158l606.483342 347.428418c10.347738 5.93211 21.612103 8.764737 32.733882 8.764737 22.915759 0 45.17969-11.987365 57.381056-33.416841z"/>
    <path d="M825.144476 938.145841h.183331c36.46151-.102627 65.936269-29.886317 65.854793-66.525786l-1.018483-383.883161c-.081476-36.577894-29.63771-66.176842-66.017745-66.176842h-.183331c-36.46151.102632-65.936269 29.886316-65.854793 66.52579L759.126731 871.969c.081476 36.577897 29.63771 66.176841 66.017745 66.176841"/>
    <path d="M494.693147 1117.5089c10.592172 0 21.347301-2.5658 31.308017-7.98474l330.516512-179.338422c32.102434-17.426841 44.059365-57.678952 26.724869-89.905262-17.314131-32.246842-57.381055-44.275262-89.463117-26.848421L463.262913 992.77048c-32.082061 17.40631-44.059363 57.65842-26.724865 89.90526 11.936563 22.20947 34.668994 34.83316 58.155099 34.83316"/>
  </g>
</svg>
