<svg viewBox="0 0 1156 2000" xmlns="http://www.w3.org/2000/svg">
  <defs>
    <linearGradient x1="-75.357711%" y1="0%" x2="-75.357711%" y2="100%" id="a">
      <stop stop-color="#C1DFD2" offset="0%"/>
      <stop stop-color="#B5D5D8" offset="100%"/>
    </linearGradient>
    <linearGradient x1="-79.131886%" y1="0%" x2="-79.131886%" y2="100%" id="b">
      <stop stop-color="#2D9B8B" offset="0%"/>
      <stop stop-color="#047D95" offset="100%"/>
    </linearGradient>
    <linearGradient x1="-11.337869%" y1="0%" x2="-11.337869%" y2="100%" id="c">
      <stop stop-color="#79C29B" offset="0%"/>
      <stop stop-color="#2D94AF" offset="100%"/>
    </linearGradient>
  </defs>
  <g fill="none" fill-rule="evenodd">
    <path fill="#EEF6F2" fill-rule="nonzero" d="M474.9499 50.1002l630.26052 465.931864L474.9499 834.669339V50.1002"/>
    <path fill="url(#a)" fill-rule="nonzero" d="M1105.21042 516.032064L474.9499 834.669339l600.2004 641.282561 30.06012-959.919836"/>
    <path fill="url(#b)" fill-rule="nonzero" d="M491.983968 1949.8998L474.9499 834.669339l600.2004 641.282561-583.166332 473.9479"/>
    <path fill="url(#c)" fill-rule="nonzero" d="M474.9499 834.669339V50.1002L50.1002 527.054108l97.194389 941.883772 344.689379 480.96192L474.9499 834.669339"/>
    <g stroke="#FFF" stroke-width="20">
      <path d="M474.949899 50.1002v784.569138M1105.210418 516.032064L474.949899 834.669338M1075.150298 1475.9519L474.949899 834.669338M491.983968 1949.8998L474.949899 834.669338M147.294589 1468.93788l344.689379 480.96192M47.094188 527.054108l100.200401 941.883772M474.949899 50.1002L47.094188 527.054108M1105.210418 516.032064L474.949899 50.1002M1075.150298 1475.9519l30.06012-959.919836M491.983968 1949.8998l583.16633-473.9479"/>
    </g>
    <g fill-rule="nonzero">
      <path d="M474.9499 90.18036c-22.135662 0-40.080161-17.944498-40.080161-40.08016 0-22.13566 17.944499-40.08016 40.080161-40.08016 22.135661 0 40.08016 17.9445 40.08016 40.08016 0 10.62992-4.222719 20.824465-11.739207 28.340954-7.516488 7.516488-17.711034 11.739207-28.340953 11.739207" fill="#414142"/>
      <path d="M474.9499 20.04008c16.601746 0 30.06012 13.458374 30.06012 30.06012 0 16.601746-13.458374 30.06012-30.06012 30.06012-16.601746 0-30.06012-13.458374-30.06012-30.06012 0-16.601746 13.458374-30.06012 30.06012-30.06012zm0-20.04008c-27.669577 0-50.100201 22.430624-50.100201 50.1002 0 27.669577 22.430624 50.100201 50.100201 50.100201 27.669576 0 50.1002-22.430624 50.1002-50.1002C525.016973 22.444356 502.605743.033126 474.9499 0z" fill="#FFF"/>
      <path d="M50.1002 567.134269c-22.13566 0-40.08016-17.944499-40.08016-40.080161 0-22.135661 17.9445-40.08016 40.08016-40.08016 22.135662 0 40.08016 17.944499 40.08016 40.08016 0 22.135662-17.944498 40.080161-40.08016 40.080161" fill="#414142"/>
      <path d="M50.1002 496.993988c16.601746 0 30.06012 13.458374 30.06012 30.06012 0 16.601746-13.458374 30.06012-30.06012 30.06012-16.601746 0-30.06012-13.458374-30.06012-30.06012 0-16.601746 13.458374-30.06012 30.06012-30.06012zm0-20.04008c-27.669576 0-50.1002 22.430624-50.1002 50.1002 0 27.669577 22.430624 50.100201 50.1002 50.100201 27.669577 0 50.100201-22.430624 50.100201-50.100201-.033128-27.655843-22.444357-50.067073-50.1002-50.1002z" fill="#FFF"/>
      <path d="M147.294589 1509.01804c-22.135661 0-40.08016-17.9445-40.08016-40.08016 0-22.13567 17.944499-40.08016 40.08016-40.08016s40.08016 17.94449 40.08016 40.08016c0 22.13566-17.944499 40.08016-40.08016 40.08016" fill="#414142"/>
      <path d="M147.294589 1438.87776c16.601746 0 30.06012 13.45837 30.06012 30.06012 0 16.60174-13.458374 30.06012-30.06012 30.06012-16.601746 0-30.06012-13.45838-30.06012-30.06012 0-16.60175 13.458374-30.06012 30.06012-30.06012zm0-20.04008c-27.669576 0-50.1002 22.43062-50.1002 50.1002 0 27.66957 22.430624 50.1002 50.1002 50.1002 27.669577 0 50.100201-22.43063 50.100201-50.1002-.033128-27.65585-22.444358-50.06708-50.100201-50.1002z" fill="#FFF"/>
      <path d="M1105.21042 556.112224c-22.13566 0-40.08016-17.944499-40.08016-40.08016s17.9445-40.08016 40.08016-40.08016c22.13566 0 40.08016 17.944499 40.08016 40.08016s-17.9445 40.08016-40.08016 40.08016" fill="#414142"/>
      <path d="M1105.21042 485.971944c16.60175 0 30.06012 13.458374 30.06012 30.06012 0 16.601746-13.45837 30.06012-30.06012 30.06012-16.60175 0-30.06012-13.458374-30.06012-30.06012 0-16.601746 13.45837-30.06012 30.06012-30.06012zm0-20.04008c-27.66958 0-50.1002 22.430623-50.1002 50.1002s22.43062 50.100201 50.1002 50.100201 50.1002-22.430624 50.1002-50.100201c-.03313-27.655843-22.44436-50.067073-50.1002-50.1002z" fill="#FFF"/>
      <path d="M474.9499 874.749499c-22.135662 0-40.080161-17.944499-40.080161-40.08016 0-22.135662 17.944499-40.080161 40.080161-40.080161 22.135661 0 40.08016 17.944499 40.08016 40.080161 0 22.135661-17.944499 40.08016-40.08016 40.08016" fill="#414142"/>
      <path d="M474.9499 804.609218c16.601746 0 30.06012 13.458375 30.06012 30.060121s-13.458374 30.06012-30.06012 30.06012c-16.601746 0-30.06012-13.458374-30.06012-30.06012 0-16.601746 13.458374-30.060121 30.06012-30.060121zm0-20.04008c-27.669577 0-50.100201 22.430624-50.100201 50.100201 0 27.669576 22.430624 50.1002 50.100201 50.1002 27.669576 0 50.1002-22.430624 50.1002-50.1002-.033127-27.655844-22.444357-50.067073-50.1002-50.100201z" fill="#FFF"/>
      <path d="M491.983968 1989.97996c-22.135661 0-40.08016-17.9445-40.08016-40.08016 0-22.13566 17.944499-40.08016 40.08016-40.08016s40.08016 17.9445 40.08016 40.08016c0 22.13566-17.944499 40.08016-40.08016 40.08016" fill="#414142"/>
      <path d="M491.983968 1919.83968c16.601746 0 30.06012 13.45837 30.06012 30.06012 0 16.60175-13.458374 30.06012-30.06012 30.06012-16.601746 0-30.06012-13.45837-30.06012-30.06012 0-16.60175 13.458374-30.06012 30.06012-30.06012zm0-20.04008c-27.669577 0-50.1002 22.43062-50.1002 50.1002S464.314391 2000 491.983968 2000s50.1002-22.43062 50.1002-50.1002c-.033127-27.65584-22.444357-50.06707-50.1002-50.1002z" fill="#FFF"/>
      <path d="M1077.15431 1516.03206c-22.13566 0-40.08016-17.94449-40.08016-40.08016 0-22.13566 17.9445-40.08016 40.08016-40.08016 22.13566 0 40.08016 17.9445 40.08016 40.08016 0 10.62992-4.22272 20.82447-11.73921 28.34096-7.51649 7.51649-17.71103 11.7392-28.34095 11.7392" fill="#414142"/>
      <path d="M1077.15431 1445.89178c16.60174 0 30.06012 13.45838 30.06012 30.06012 0 16.60175-13.45838 30.06012-30.06012 30.06012-16.60175 0-30.06012-13.45837-30.06012-30.06012 0-16.60174 13.45837-30.06012 30.06012-30.06012zm0-20.04008c-27.66958 0-50.1002 22.43063-50.1002 50.1002 0 27.66958 22.43062 50.1002 50.1002 50.1002s50.1002-22.43062 50.1002-50.1002c-.03313-27.65584-22.44436-50.06707-50.1002-50.1002z" fill="#FFF"/>
    </g>
  </g>
</svg>
