<svg id="svg" version="1.1" width="515" height="515" xmlns="http://www.w3.org/2000/svg" xmlns:xlink="http://www.w3.org/1999/xlink" style="display: block;"><g id="svgg"><path id="path0" d="M229.000 5.000 C 229.000 5.550,228.325 6.000,227.500 6.000 C 226.675 6.000,226.000 6.675,226.000 7.500 C 226.000 8.325,225.550 9.000,225.000 9.000 C 223.302 9.000,223.868 16.822,225.722 18.989 C 230.598 24.684,241.000 20.550,241.000 12.917 C 241.000 9.000,239.296 6.000,237.071 6.000 C 236.482 6.000,236.000 5.550,236.000 5.000 C 236.000 4.450,234.425 4.000,232.500 4.000 C 230.575 4.000,229.000 4.450,229.000 5.000 M238.000 52.500 C 238.000 71.500,237.644 82.000,237.000 82.000 C 236.422 82.000,236.000 85.167,236.000 89.500 C 236.000 93.833,236.422 97.000,237.000 97.000 C 237.654 97.000,238.000 115.377,238.000 150.130 L 238.000 203.260 242.717 202.728 C 245.312 202.436,247.599 201.702,247.801 201.098 C 248.002 200.494,249.061 200.000,250.155 200.000 C 251.248 200.000,252.818 199.325,253.643 198.500 C 254.468 197.675,256.136 197.000,257.351 197.000 C 258.565 197.000,260.207 196.100,261.000 195.000 C 261.793 193.900,263.017 193.000,263.721 193.000 C 264.424 193.000,265.000 192.600,265.000 192.111 C 265.000 191.623,266.575 190.927,268.500 190.566 C 270.425 190.205,272.000 189.480,272.000 188.955 C 272.000 188.430,273.125 188.000,274.500 188.000 C 275.875 188.000,277.000 187.600,277.000 187.111 C 277.000 186.623,278.575 185.927,280.500 185.566 C 282.425 185.205,284.000 184.480,284.000 183.955 C 284.000 183.430,284.870 183.000,285.933 183.000 C 286.996 183.000,288.139 182.136,288.474 181.081 C 288.891 179.769,290.414 178.937,293.287 178.452 C 295.598 178.061,298.194 176.930,299.054 175.938 C 299.915 174.946,301.829 173.830,303.309 173.459 C 304.789 173.087,306.000 172.382,306.000 171.892 C 306.000 171.401,307.350 171.000,309.000 171.000 C 310.650 171.000,312.000 170.550,312.000 170.000 C 312.000 169.450,312.482 169.000,313.071 169.000 C 313.661 169.000,314.818 168.325,315.643 167.500 C 316.468 166.675,318.236 166.000,319.571 166.000 C 320.907 166.000,322.000 165.550,322.000 165.000 C 322.000 164.450,322.482 164.000,323.071 164.000 C 323.661 164.000,324.818 163.325,325.643 162.500 C 326.468 161.675,327.984 161.000,329.012 161.000 C 330.041 161.000,331.160 160.550,331.500 160.000 C 331.840 159.450,332.991 159.000,334.059 159.000 C 335.127 159.000,336.000 158.550,336.000 158.000 C 336.000 157.450,336.675 157.000,337.500 157.000 C 338.325 157.000,339.000 156.570,339.000 156.045 C 339.000 155.520,340.575 154.795,342.500 154.434 C 344.425 154.073,346.000 153.377,346.000 152.889 C 346.000 152.400,346.675 152.000,347.500 152.000 C 348.325 152.000,349.000 151.550,349.000 151.000 C 349.000 150.450,349.852 150.000,350.893 150.000 C 351.934 150.000,353.045 149.325,353.362 148.500 C 353.678 147.675,354.851 147.000,355.969 147.000 C 357.086 147.000,358.000 146.550,358.000 146.000 C 358.000 145.450,358.932 145.000,360.071 145.000 C 361.211 145.000,362.818 144.325,363.643 143.500 C 364.468 142.675,366.236 142.000,367.571 142.000 C 368.907 142.000,370.000 141.550,370.000 141.000 C 370.000 140.450,370.675 140.000,371.500 140.000 C 372.325 140.000,373.000 139.550,373.000 139.000 C 373.000 138.450,373.900 138.000,375.000 138.000 C 376.100 138.000,377.000 137.570,377.000 137.045 C 377.000 136.520,378.575 135.795,380.500 135.434 C 385.293 134.535,385.122 126.000,380.311 126.000 C 379.854 126.000,378.266 124.875,376.783 123.500 C 375.301 122.125,373.824 121.000,373.501 121.000 C 372.736 121.000,370.386 119.059,367.750 116.250 C 366.589 115.013,365.045 114.000,364.320 114.000 C 363.594 114.000,363.000 113.580,363.000 113.067 C 363.000 112.554,361.988 111.815,360.750 111.424 C 359.512 111.034,357.772 109.878,356.883 108.857 C 355.993 107.836,354.776 107.000,354.178 107.000 C 352.908 107.000,348.000 102.296,348.000 101.080 C 348.000 100.623,346.686 99.987,345.080 99.666 C 343.347 99.319,341.898 98.253,341.513 97.041 C 341.151 95.899,340.000 95.000,338.901 95.000 C 337.821 95.000,336.678 94.325,336.362 93.500 C 336.045 92.675,334.934 92.000,333.893 92.000 C 332.703 92.000,332.000 91.298,332.000 90.108 C 332.000 88.925,331.064 87.982,329.500 87.589 C 328.125 87.244,327.000 86.520,327.000 85.981 C 327.000 85.441,326.518 85.000,325.929 85.000 C 325.339 85.000,324.230 84.438,323.463 83.750 C 320.423 81.024,319.057 80.000,318.459 80.000 C 318.115 80.000,316.304 78.425,314.434 76.500 C 312.565 74.575,310.352 73.000,309.518 73.000 C 308.683 73.000,308.000 72.580,308.000 72.067 C 308.000 71.554,306.988 70.815,305.750 70.424 C 304.512 70.034,302.721 68.766,301.769 67.607 C 300.816 66.448,299.561 64.938,298.979 64.250 C 298.397 63.562,297.069 63.000,296.028 63.000 C 294.987 63.000,293.849 62.100,293.500 61.000 C 293.151 59.900,292.059 59.000,291.073 59.000 C 290.087 59.000,288.435 57.875,287.403 56.500 C 286.370 55.125,284.936 54.000,284.215 54.000 C 283.494 54.000,281.862 52.875,280.588 51.500 C 279.313 50.125,277.965 49.000,277.592 49.000 C 277.218 49.000,275.699 47.875,274.217 46.500 C 272.734 45.125,271.179 44.000,270.763 44.000 C 270.346 44.000,268.335 42.425,266.294 40.500 C 264.253 38.575,262.101 37.000,261.512 37.000 C 260.923 37.000,259.793 36.100,259.000 35.000 C 258.207 33.900,257.003 33.000,256.325 33.000 C 255.646 33.000,254.020 31.929,252.711 30.620 C 251.402 29.311,249.379 27.938,248.216 27.569 C 247.054 27.200,245.824 26.021,245.484 24.949 C 245.029 23.516,243.957 23.000,241.433 23.000 L 238.000 23.000 238.000 52.500 M222.000 26.445 C 222.000 27.239,219.750 30.104,217.000 32.811 C 214.250 35.518,212.000 38.243,212.000 38.866 C 212.000 39.490,211.518 40.000,210.929 40.000 C 209.631 40.000,207.000 42.510,207.000 43.748 C 207.000 44.238,205.988 45.589,204.750 46.750 C 203.512 47.911,201.959 49.455,201.298 50.181 C 200.637 50.906,199.512 52.041,198.798 52.702 C 196.840 54.515,195.000 56.843,195.000 57.505 C 195.000 57.830,192.863 60.303,190.250 63.001 C 187.637 65.699,184.998 68.490,184.384 69.203 C 183.770 69.916,182.308 71.162,181.134 71.971 C 179.960 72.780,179.000 74.011,179.000 74.708 C 179.000 75.404,176.750 78.235,174.000 81.000 C 171.250 83.765,169.000 86.470,169.000 87.013 C 169.000 87.556,168.580 88.000,168.067 88.000 C 167.554 88.000,166.849 88.900,166.500 90.000 C 166.151 91.100,164.996 92.000,163.933 92.000 C 162.870 92.000,162.000 92.655,162.000 93.455 C 162.000 95.072,157.449 100.000,155.955 100.000 C 155.430 100.000,155.000 100.882,155.000 101.961 C 155.000 103.039,154.333 104.501,153.517 105.211 C 147.695 110.274,143.000 115.146,143.000 116.124 C 143.000 116.760,140.750 119.405,138.000 122.000 C 133.209 126.521,130.853 133.000,134.000 133.000 C 134.550 133.000,135.000 134.125,135.000 135.500 C 135.000 136.875,134.550 138.000,134.000 138.000 C 133.450 138.000,133.000 138.852,133.000 139.893 C 133.000 140.934,132.256 142.071,131.347 142.420 C 129.462 143.144,130.136 182.167,132.045 182.833 C 132.570 183.017,133.000 186.504,133.000 190.583 C 133.000 194.662,133.384 198.000,133.852 198.000 C 134.321 198.000,135.023 205.313,135.413 214.250 C 135.802 223.188,136.544 230.650,137.060 230.833 C 137.577 231.017,138.000 235.404,138.000 240.583 C 138.000 246.194,138.404 250.000,139.000 250.000 C 139.578 250.000,140.000 253.167,140.000 257.500 C 140.000 261.625,140.402 265.000,140.894 265.000 C 141.385 265.000,142.115 272.425,142.515 281.500 C 142.915 290.575,143.638 298.000,144.121 298.000 C 144.605 298.000,145.000 302.275,145.000 307.500 C 145.000 312.725,145.403 317.000,145.895 317.000 C 146.387 317.000,147.117 323.982,147.517 332.516 C 147.917 341.050,148.639 348.277,149.122 348.575 C 149.605 348.874,150.000 352.691,150.000 357.059 C 150.000 361.686,150.417 365.000,151.000 365.000 C 151.550 365.000,152.000 365.482,152.000 366.071 C 152.000 367.456,154.544 370.000,155.929 370.000 C 156.518 370.000,157.000 370.675,157.000 371.500 C 157.000 372.325,157.450 373.000,158.000 373.000 C 158.556 373.000,159.000 375.667,159.000 379.000 C 159.000 382.300,159.394 385.000,159.875 385.000 C 160.356 385.000,161.013 386.314,161.334 387.920 C 161.681 389.653,162.747 391.102,163.959 391.487 C 165.101 391.849,166.000 393.000,166.000 394.099 C 166.000 395.179,166.675 396.322,167.500 396.638 C 168.325 396.955,169.000 397.901,169.000 398.740 C 169.000 399.579,169.836 400.993,170.857 401.883 C 171.878 402.772,173.034 404.512,173.424 405.750 C 173.815 406.987,174.554 408.000,175.067 408.000 C 175.580 408.000,176.000 408.675,176.000 409.500 C 176.000 410.325,176.420 411.000,176.933 411.000 C 177.446 411.000,178.184 412.003,178.573 413.230 C 178.962 414.456,180.504 416.603,182.000 418.000 C 183.496 419.397,185.038 421.544,185.427 422.770 C 185.816 423.997,186.554 425.000,187.067 425.000 C 187.580 425.000,188.000 425.469,188.000 426.042 C 188.000 427.023,188.782 428.154,191.750 431.463 C 192.438 432.230,193.000 433.174,193.000 433.561 C 193.000 433.949,193.836 434.993,194.857 435.883 C 195.878 436.772,197.034 438.512,197.424 439.750 C 197.815 440.987,198.554 442.000,199.067 442.000 C 199.580 442.000,200.000 442.482,200.000 443.071 C 200.000 443.661,200.675 444.818,201.500 445.643 C 202.325 446.468,203.000 448.011,203.000 449.071 C 203.000 450.132,203.381 451.000,203.847 451.000 C 205.358 451.000,208.695 454.441,209.424 456.750 C 209.815 457.987,210.554 459.000,211.067 459.000 C 211.580 459.000,212.000 459.696,212.000 460.548 C 212.000 461.399,213.125 463.138,214.500 464.412 C 215.875 465.687,217.000 467.690,217.000 468.865 C 217.000 470.333,217.624 471.000,219.000 471.000 C 220.344 471.000,221.000 471.667,221.000 473.031 C 221.000 474.149,221.675 475.322,222.500 475.638 C 223.325 475.955,224.000 477.066,224.000 478.107 C 224.000 479.148,224.441 480.000,224.981 480.000 C 225.520 480.000,226.244 481.125,226.589 482.500 C 227.097 484.521,227.836 485.000,230.445 485.000 L 233.672 485.000 233.227 362.750 C 232.974 293.344,232.396 240.089,231.891 239.550 C 231.401 239.028,231.000 235.315,231.000 231.300 C 231.000 224.583,230.835 224.000,228.929 224.000 C 227.789 224.000,226.277 223.420,225.569 222.712 C 224.517 221.660,225.463 221.498,230.703 221.832 C 236.231 222.184,237.397 221.951,239.063 220.162 C 241.004 218.079,241.783 212.000,240.108 212.000 C 239.618 212.000,238.934 210.875,238.589 209.500 C 236.860 202.611,224.000 207.459,224.000 215.000 C 224.000 217.200,223.550 219.000,223.000 219.000 C 222.450 219.000,222.000 216.975,222.000 214.500 C 222.000 212.025,222.450 210.000,223.000 210.000 C 223.550 210.000,224.000 209.325,224.000 208.500 C 224.000 207.675,224.675 207.000,225.500 207.000 C 226.325 207.000,227.000 206.550,227.000 206.000 C 227.000 205.450,227.900 205.000,229.000 205.000 C 230.983 205.000,231.000 204.333,231.000 128.000 C 231.000 77.333,230.658 51.000,230.000 51.000 C 229.385 51.000,229.000 46.000,229.000 38.000 L 229.000 25.000 225.500 25.000 C 223.115 25.000,222.000 25.460,222.000 26.445 M387.250 126.525 C 384.977 128.953,384.085 135.000,386.000 135.000 C 386.550 135.000,387.000 135.470,387.000 136.045 C 387.000 140.462,395.472 143.508,398.000 140.000 C 398.793 138.900,400.242 138.000,401.221 138.000 C 402.689 138.000,403.000 137.127,403.000 133.000 C 403.000 130.250,402.550 128.000,402.000 128.000 C 401.450 128.000,401.000 127.100,401.000 126.000 C 401.000 122.791,390.366 123.198,387.250 126.525 M117.250 129.496 C 116.563 130.277,116.000 133.401,116.000 136.439 C 116.000 142.793,116.856 143.364,125.566 142.812 L 130.500 142.500 130.812 137.566 C 131.368 128.786,130.822 127.994,124.231 128.038 C 120.576 128.062,118.047 128.590,117.250 129.496 M378.750 142.689 C 377.788 142.941,377.000 143.564,377.000 144.073 C 377.000 144.583,376.100 145.000,375.000 145.000 C 373.900 145.000,373.000 145.414,373.000 145.921 C 373.000 146.427,371.650 147.138,370.000 147.500 C 368.350 147.862,367.000 148.573,367.000 149.079 C 367.000 149.586,366.100 150.000,365.000 150.000 C 363.900 150.000,363.000 150.450,363.000 151.000 C 363.000 151.550,362.325 152.000,361.500 152.000 C 360.675 152.000,360.000 152.400,360.000 152.889 C 360.000 153.377,358.425 154.073,356.500 154.434 C 354.575 154.795,353.000 155.520,353.000 156.045 C 353.000 156.570,352.100 157.000,351.000 157.000 C 349.900 157.000,349.000 157.450,349.000 158.000 C 349.000 158.550,348.325 159.000,347.500 159.000 C 346.675 159.000,346.000 159.400,346.000 159.889 C 346.000 160.377,344.425 161.073,342.500 161.434 C 340.575 161.795,339.000 162.520,339.000 163.045 C 339.000 163.570,338.325 164.000,337.500 164.000 C 336.675 164.000,336.000 164.400,336.000 164.889 C 336.000 165.377,334.425 166.073,332.500 166.434 C 330.575 166.795,329.000 167.520,329.000 168.045 C 329.000 168.570,328.100 169.000,327.000 169.000 C 325.900 169.000,325.000 169.450,325.000 170.000 C 325.000 170.550,324.325 171.000,323.500 171.000 C 322.675 171.000,322.000 171.400,322.000 171.889 C 322.000 172.377,320.425 173.073,318.500 173.434 C 316.575 173.795,315.000 174.520,315.000 175.045 C 315.000 175.570,314.325 176.000,313.500 176.000 C 312.675 176.000,312.000 176.400,312.000 176.889 C 312.000 177.377,310.425 178.073,308.500 178.434 C 306.575 178.795,305.000 179.520,305.000 180.045 C 305.000 180.570,304.100 181.000,303.000 181.000 C 301.900 181.000,301.000 181.450,301.000 182.000 C 301.000 182.550,300.325 183.000,299.500 183.000 C 298.675 183.000,298.000 183.400,298.000 183.889 C 298.000 184.377,296.425 185.073,294.500 185.434 C 292.575 185.795,291.000 186.520,291.000 187.045 C 291.000 187.570,290.325 188.000,289.500 188.000 C 288.675 188.000,288.000 188.400,288.000 188.889 C 288.000 189.377,286.425 190.073,284.500 190.434 C 282.575 190.795,281.000 191.520,281.000 192.045 C 281.000 192.570,280.100 193.000,279.000 193.000 C 277.900 193.000,277.000 193.450,277.000 194.000 C 277.000 194.550,276.325 195.000,275.500 195.000 C 274.675 195.000,274.000 195.400,274.000 195.889 C 274.000 196.377,272.425 197.073,270.500 197.434 C 268.575 197.795,267.000 198.520,267.000 199.045 C 267.000 199.570,265.875 200.000,264.500 200.000 C 263.125 200.000,262.000 200.450,262.000 201.000 C 262.000 201.550,261.086 202.000,259.969 202.000 C 258.851 202.000,257.678 202.675,257.362 203.500 C 257.045 204.325,255.934 205.000,254.893 205.000 C 253.852 205.000,253.000 205.450,253.000 206.000 C 253.000 206.550,252.325 207.000,251.500 207.000 C 250.675 207.000,250.000 207.400,250.000 207.889 C 250.000 208.377,248.425 209.073,246.500 209.434 C 242.697 210.147,241.498 214.467,244.250 217.537 C 246.987 220.589,248.000 221.944,248.000 222.555 C 248.000 222.906,252.275 227.393,257.500 232.525 C 262.725 237.658,267.000 242.347,267.000 242.946 C 267.000 243.545,268.688 245.606,270.750 247.525 C 278.116 254.378,280.636 257.279,281.448 259.835 C 281.840 261.071,282.964 262.000,284.067 262.000 C 285.130 262.000,286.000 262.675,286.000 263.500 C 286.000 264.325,286.482 265.000,287.071 265.000 C 288.220 265.000,291.000 267.456,291.000 268.471 C 291.000 269.415,294.470 273.321,299.202 277.702 C 301.526 279.854,303.000 281.894,303.000 282.958 C 303.000 283.531,303.568 284.000,304.263 284.000 C 304.957 284.000,305.970 285.012,306.513 286.250 C 307.056 287.488,308.491 288.641,309.703 288.813 C 310.914 288.986,312.215 290.102,312.593 291.294 C 312.971 292.485,317.043 297.205,321.640 301.782 C 326.238 306.359,330.000 310.575,330.000 311.151 C 330.000 312.647,335.945 318.000,337.606 318.000 C 338.373 318.000,339.000 318.724,339.000 319.610 C 339.000 320.495,341.700 323.821,345.000 327.000 C 348.300 330.179,351.000 333.268,351.000 333.865 C 351.000 334.461,352.609 336.423,354.576 338.224 C 356.542 340.026,358.680 342.084,359.326 342.798 C 360.724 344.344,364.384 348.019,366.202 349.702 C 368.526 351.854,370.000 353.894,370.000 354.958 C 370.000 355.531,370.420 356.000,370.933 356.000 C 371.446 356.000,372.157 356.918,372.513 358.041 C 372.898 359.253,374.347 360.319,376.080 360.666 C 378.061 361.062,379.000 361.853,379.000 363.125 C 379.000 364.542,379.733 365.000,382.000 365.000 L 385.000 365.000 385.000 358.000 C 385.000 354.000,385.429 351.000,386.000 351.000 C 386.649 351.000,387.000 337.833,387.000 313.500 C 387.000 289.167,387.351 276.000,388.000 276.000 C 388.650 276.000,389.000 262.186,389.000 236.559 C 389.000 211.344,389.361 196.895,390.000 196.500 C 390.627 196.113,391.000 185.823,391.000 168.941 L 391.000 142.000 385.750 142.116 C 382.863 142.180,379.712 142.438,378.750 142.689 M238.575 358.725 C 239.157 464.186,239.569 491.712,240.582 492.725 C 243.255 495.398,249.788 494.278,253.567 490.500 C 255.492 488.575,257.512 487.000,258.055 487.000 C 258.599 487.000,261.480 484.525,264.457 481.500 C 267.434 478.475,270.349 476.000,270.935 476.000 C 271.521 476.000,272.000 475.325,272.000 474.500 C 272.000 473.667,272.889 473.000,274.000 473.000 C 275.100 473.000,276.000 472.602,276.000 472.117 C 276.000 471.631,276.910 470.995,278.021 470.705 C 279.133 470.414,280.527 468.786,281.119 467.088 C 281.751 465.277,282.896 464.000,283.889 464.000 C 284.820 464.000,287.237 462.200,289.260 460.000 C 291.283 457.800,293.451 456.000,294.079 456.000 C 294.706 456.000,297.821 453.300,301.000 450.000 C 304.179 446.700,307.297 444.000,307.928 444.000 C 308.558 444.000,311.043 441.975,313.448 439.500 C 315.854 437.025,318.119 435.000,318.482 435.000 C 319.247 435.000,322.726 432.011,325.702 428.798 C 327.555 426.797,329.848 425.000,330.547 425.000 C 330.894 425.000,333.096 423.027,335.441 420.615 C 337.785 418.203,340.670 415.922,341.851 415.547 C 343.073 415.159,344.000 414.032,344.000 412.933 C 344.000 411.870,344.677 411.000,345.505 411.000 C 346.333 411.000,349.213 408.750,351.906 406.000 C 354.598 403.250,357.491 401.000,358.333 401.000 C 359.176 401.000,360.151 400.100,360.500 399.000 C 360.849 397.900,361.557 397.000,362.074 397.000 C 362.591 397.000,363.960 395.911,365.117 394.581 C 366.274 393.250,368.296 391.892,369.610 391.562 C 370.925 391.232,372.000 390.541,372.000 390.026 C 372.000 389.512,373.125 387.966,374.500 386.591 C 375.875 385.216,377.000 382.972,377.000 381.604 C 377.000 380.237,377.450 378.840,378.000 378.500 C 378.550 378.160,379.000 376.559,379.000 374.941 C 379.000 373.323,378.550 372.000,378.000 372.000 C 377.450 372.000,377.000 371.130,377.000 370.067 C 377.000 369.004,376.100 367.849,375.000 367.500 C 373.900 367.151,373.000 366.453,373.000 365.949 C 373.000 365.444,370.075 362.216,366.500 358.774 C 362.925 355.331,360.000 351.781,360.000 350.883 C 360.000 349.866,358.860 349.022,356.979 348.646 C 354.626 348.175,353.826 347.380,353.360 345.050 C 353.029 343.396,351.944 341.800,350.932 341.478 C 349.926 341.159,348.824 340.021,348.484 338.949 C 348.144 337.877,347.466 337.000,346.978 337.000 C 345.825 337.000,341.000 332.175,341.000 331.022 C 341.000 330.534,340.123 329.856,339.051 329.516 C 337.979 329.176,336.831 328.044,336.500 327.000 C 336.169 325.956,335.021 324.824,333.949 324.484 C 332.877 324.144,332.000 323.174,332.000 322.330 C 332.000 321.485,328.901 317.756,325.114 314.043 C 321.326 310.330,317.921 306.327,317.546 305.146 C 317.159 303.927,316.031 303.000,314.933 303.000 C 313.870 303.000,313.000 302.342,313.000 301.538 C 313.000 300.735,308.777 295.854,303.617 290.694 C 298.456 285.533,293.933 280.363,293.565 279.206 C 293.198 278.049,292.021 276.824,290.949 276.484 C 289.877 276.144,289.000 275.466,289.000 274.978 C 289.000 274.194,287.989 273.105,282.798 268.298 C 282.084 267.637,280.950 266.512,280.278 265.798 C 279.605 265.084,278.543 263.988,277.916 263.361 C 277.290 262.735,275.682 261.048,274.343 259.611 C 273.004 258.175,271.480 257.000,270.955 257.000 C 270.430 257.000,270.000 256.238,270.000 255.306 C 270.000 254.374,265.500 249.178,260.000 243.758 C 254.500 238.338,250.000 233.471,250.000 232.943 C 250.000 230.516,244.187 226.000,241.063 226.000 L 237.842 226.000 238.575 358.725 M142.411 372.500 C 142.066 373.875,141.382 375.000,140.892 375.000 C 138.708 375.000,140.110 381.264,142.923 384.077 C 145.736 386.890,152.000 388.292,152.000 386.108 C 152.000 385.618,153.125 384.934,154.500 384.589 C 157.861 383.746,158.201 375.201,155.000 372.000 C 151.799 368.799,143.254 369.139,142.411 372.500 M382.153 373.867 C 379.014 376.590,379.172 383.263,382.455 386.545 C 384.951 389.042,392.000 390.116,392.000 388.000 C 392.000 387.450,392.900 387.000,394.000 387.000 C 395.806 387.000,396.000 386.333,396.000 380.125 L 396.000 373.250 392.875 372.625 C 387.549 371.560,384.392 371.926,382.153 373.867 M231.153 495.867 C 228.014 498.590,228.172 505.263,231.455 508.545 C 236.864 513.954,245.000 509.970,245.000 501.913 C 245.000 496.686,242.284 494.000,237.000 494.000 C 234.829 494.000,232.418 494.770,231.153 495.867 " stroke="none" fill="#000000" fill-rule="evenodd"></path></g></svg>