<svg id="svg" version="1.1" width="515" height="515" viewBox="0 0 480 500" xmlns="http://www.w3.org/2000/svg" xmlns:xlink="http://www.w3.org/1999/xlink" style="display: block;"><g id="svgg"><path id="path0" d="M274.750 76.000 C 223.510 127.336,206.000 145.467,206.000 147.187 C 206.000 149.842,342.367 287.000,345.006 287.000 C 346.785 287.000,388.000 246.046,388.000 244.279 C 388.000 243.616,366.438 221.530,340.085 195.199 L 292.170 147.323 340.085 99.415 C 366.438 73.066,388.000 50.958,388.000 50.286 C 388.000 48.658,346.264 6.983,344.711 7.060 C 344.045 7.093,312.563 38.116,274.750 76.000 M166.750 184.019 C 155.338 195.505,146.000 205.397,146.000 206.000 C 146.000 208.376,283.804 345.000,286.200 345.000 C 289.643 345.000,328.000 306.448,328.000 302.988 C 328.000 300.131,191.714 162.945,188.997 163.068 C 188.174 163.105,178.162 172.533,166.750 184.019 M108.250 242.517 C 92.515 258.395,89.000 262.450,89.000 264.725 C 89.000 267.063,96.443 274.950,135.500 314.000 C 161.075 339.571,182.000 361.041,182.000 361.712 C 182.000 362.383,161.075 383.852,135.500 409.420 C 96.262 448.647,89.000 456.346,89.000 458.713 C 89.000 462.177,127.112 501.000,130.512 501.000 C 134.911 501.000,268.000 366.059,268.000 361.600 C 268.000 356.289,135.601 222.964,130.409 223.046 C 127.982 223.084,124.312 226.309,108.250 242.517 " stroke="none" fill="#000000" fill-rule="evenodd"></path></g></svg>
