<svg id="svg" version="1.1" width="515" height="515" xmlns="http://www.w3.org/2000/svg" xmlns:xlink="http://www.w3.org/1999/xlink" style="display: block;"><g id="svgg"><path id="path0" d="M254.359 4.258 C 252.081 6.591,250.051 9.400,249.848 10.500 C 249.638 11.641,248.542 12.634,247.296 12.812 C 245.579 13.058,245.048 13.902,244.807 16.773 C 244.559 19.724,244.022 20.532,242.000 21.002 C 240.418 21.369,239.383 22.393,239.180 23.791 C 239.005 25.006,238.442 26.000,237.930 26.000 C 237.419 26.000,237.000 26.822,237.000 27.826 C 237.000 28.830,235.899 30.686,234.553 31.950 C 233.208 33.214,231.970 35.205,231.803 36.374 C 231.615 37.697,230.650 38.621,229.250 38.820 C 227.956 39.003,227.000 39.839,227.000 40.788 C 227.000 41.694,225.945 43.351,224.655 44.468 C 222.541 46.300,220.206 50.484,218.638 55.250 C 218.322 56.212,217.149 57.000,216.031 57.000 C 214.743 57.000,214.000 57.657,214.000 58.797 C 214.000 59.785,212.200 62.352,210.000 64.500 C 207.800 66.648,206.000 69.037,206.000 69.809 C 206.000 70.581,204.875 72.097,203.500 73.179 C 202.125 74.260,201.000 75.957,201.000 76.950 C 201.000 77.943,200.325 79.315,199.500 80.000 C 198.675 80.685,198.000 82.058,198.000 83.053 C 198.000 84.167,197.136 84.984,195.750 85.180 C 194.326 85.383,193.386 86.304,193.189 87.689 C 192.994 89.052,192.052 89.994,190.689 90.189 C 189.058 90.421,188.423 91.290,188.198 93.598 C 187.999 95.637,186.547 98.013,183.948 100.551 C 181.777 102.671,180.000 105.183,180.000 106.133 C 180.000 107.164,179.092 107.990,177.750 108.180 C 176.053 108.422,175.426 109.261,175.198 111.598 C 174.999 113.637,173.547 116.013,170.948 118.551 C 168.777 120.671,167.000 123.215,167.000 124.203 C 167.000 125.343,166.257 126.000,164.969 126.000 C 163.851 126.000,162.678 126.788,162.362 127.750 C 160.744 132.666,158.751 136.000,157.428 136.000 C 156.616 136.000,155.558 137.034,155.077 138.297 C 154.597 139.560,153.041 141.698,151.619 143.047 C 150.198 144.396,149.027 146.261,149.017 147.191 C 149.008 148.121,148.550 149.160,148.000 149.500 C 147.450 149.840,147.000 150.983,147.000 152.040 C 147.000 153.244,146.088 154.191,144.556 154.575 C 142.710 155.039,142.038 155.960,141.806 158.344 C 141.571 160.768,140.964 161.576,139.189 161.828 C 137.918 162.008,136.639 162.908,136.348 163.828 C 136.057 164.747,135.450 166.400,135.000 167.500 C 134.550 168.600,133.930 170.287,133.622 171.250 C 133.314 172.213,132.177 173.000,131.095 173.000 C 129.605 173.000,129.051 173.790,128.813 176.250 C 128.573 178.741,127.975 179.575,126.250 179.820 C 124.908 180.010,124.000 180.836,124.000 181.867 C 124.000 182.817,122.200 185.352,120.000 187.500 C 117.800 189.648,116.000 192.123,116.000 193.000 C 116.000 193.877,114.200 196.352,112.000 198.500 C 109.800 200.648,108.000 203.183,108.000 204.133 C 108.000 205.164,107.092 205.990,105.750 206.180 C 104.027 206.425,103.383 207.320,103.000 210.000 C 102.617 212.680,101.973 213.575,100.250 213.820 C 98.864 214.016,98.000 214.833,98.000 215.947 C 98.000 216.942,97.325 218.315,96.500 219.000 C 95.675 219.685,95.000 220.926,95.000 221.758 C 95.000 222.590,93.920 224.271,92.600 225.494 C 91.281 226.718,90.039 228.569,89.840 229.609 C 89.640 230.658,88.483 231.642,87.240 231.820 C 85.908 232.010,85.000 232.839,85.000 233.867 C 85.000 234.817,83.223 237.329,81.052 239.449 C 78.453 241.987,77.001 244.363,76.802 246.402 C 76.574 248.739,75.947 249.578,74.250 249.820 C 72.908 250.010,72.000 250.836,72.000 251.867 C 72.000 252.817,70.200 255.352,68.000 257.500 C 65.800 259.648,64.000 262.126,64.000 263.007 C 64.000 263.887,62.425 266.134,60.500 268.000 C 58.575 269.866,57.000 272.001,57.000 272.744 C 57.000 273.487,55.929 275.088,54.621 276.300 C 53.313 277.513,52.073 279.384,51.866 280.459 C 51.656 281.550,50.389 282.670,48.995 282.995 C 47.030 283.455,46.430 284.305,46.171 286.995 C 45.950 289.298,44.762 291.432,42.527 293.540 C 40.703 295.260,39.046 297.524,38.844 298.572 C 38.642 299.620,37.582 300.647,36.489 300.854 C 33.967 301.332,33.035 302.781,33.015 306.250 C 33.004 308.251,32.497 309.000,31.155 309.000 C 29.040 309.000,26.008 311.976,25.983 314.079 C 25.973 314.860,24.848 316.560,23.483 317.855 C 19.609 321.529,23.616 330.000,29.228 330.000 C 30.157 330.000,30.999 330.965,31.180 332.240 C 31.365 333.531,32.345 334.641,33.496 334.860 C 34.593 335.070,36.881 336.715,38.579 338.515 C 40.277 340.316,42.510 341.951,43.540 342.150 C 44.570 342.348,45.675 343.633,45.997 345.005 C 46.353 346.521,47.400 347.619,48.667 347.803 C 49.813 347.970,51.786 349.208,53.050 350.553 C 54.314 351.899,56.170 353.000,57.174 353.000 C 58.343 353.000,59.000 353.731,59.000 355.031 C 59.000 356.149,59.787 357.322,60.750 357.638 C 66.367 359.486,69.088 361.383,70.554 364.474 C 71.536 366.542,73.024 368.005,74.336 368.192 C 75.677 368.383,76.619 369.334,76.812 370.693 C 77.058 372.423,77.896 372.952,80.773 373.193 C 83.720 373.441,84.533 373.979,85.004 375.995 C 85.334 377.405,86.438 378.643,87.544 378.842 C 88.620 379.036,89.927 379.600,90.450 380.097 C 90.972 380.594,92.210 381.000,93.200 381.000 C 94.276 381.000,95.000 381.734,95.000 382.826 C 95.000 384.883,98.948 389.000,100.921 389.000 C 101.631 389.000,103.073 390.095,104.126 391.433 C 105.179 392.771,107.043 394.009,108.270 394.183 C 109.674 394.383,110.615 395.310,110.811 396.689 C 111.006 398.052,111.948 398.994,113.311 399.189 C 114.696 399.386,115.617 400.326,115.820 401.750 C 116.010 403.092,116.836 404.000,117.867 404.000 C 118.817 404.000,121.352 405.800,123.500 408.000 C 125.648 410.200,127.990 412.000,128.703 412.000 C 129.416 412.000,131.759 413.759,133.909 415.909 C 136.059 418.059,138.647 419.976,139.659 420.169 C 140.672 420.362,141.644 421.528,141.820 422.760 C 142.078 424.572,142.781 425.000,145.500 425.000 C 148.224 425.000,148.921 425.426,149.180 427.250 C 149.372 428.599,150.302 429.615,151.502 429.787 C 152.603 429.945,155.724 432.307,158.437 435.037 C 161.150 437.767,163.865 440.000,164.469 440.000 C 165.074 440.000,168.013 442.475,171.000 445.500 C 173.987 448.525,177.203 451.000,178.146 451.000 C 179.163 451.000,179.991 451.916,180.180 453.250 C 180.378 454.641,181.303 455.615,182.603 455.800 C 183.759 455.965,186.210 457.653,188.049 459.550 C 189.888 461.448,191.962 463.000,192.658 463.000 C 193.353 463.000,195.656 464.751,197.775 466.891 C 199.893 469.031,202.498 470.948,203.563 471.151 C 204.638 471.356,205.639 472.492,205.812 473.704 C 206.058 475.421,206.902 475.952,209.773 476.193 C 212.724 476.441,213.532 476.978,214.002 479.000 C 214.362 480.554,215.395 481.618,216.730 481.811 C 218.046 482.002,218.998 482.966,219.189 484.301 C 219.363 485.519,220.364 486.645,221.461 486.854 C 222.539 487.059,225.574 489.427,228.206 492.114 C 230.837 494.801,233.589 497.000,234.321 497.000 C 235.053 497.000,236.686 498.101,237.950 499.447 C 239.214 500.792,241.205 502.030,242.374 502.197 C 243.697 502.385,244.621 503.350,244.820 504.750 C 245.017 506.139,245.833 507.000,246.953 507.000 C 247.951 507.000,250.393 508.800,252.381 511.000 C 257.529 516.698,260.529 516.487,266.597 510.000 C 269.169 507.250,271.887 505.000,272.638 505.000 C 273.388 505.000,276.418 502.525,279.371 499.500 C 282.324 496.475,285.443 494.000,286.301 494.000 C 287.159 494.000,288.005 492.988,288.180 491.750 C 288.436 489.951,289.239 489.439,292.188 489.193 C 295.099 488.951,295.941 488.427,296.188 486.704 C 296.363 485.476,297.363 484.356,298.473 484.144 C 299.558 483.937,303.715 480.445,307.710 476.384 C 311.706 472.323,315.572 469.000,316.301 469.000 C 317.029 469.000,318.919 467.650,320.500 466.000 C 322.081 464.350,324.190 463.000,325.187 463.000 C 326.283 463.000,327.000 462.270,327.000 461.155 C 327.000 458.963,329.704 456.351,332.500 455.843 C 333.662 455.632,334.634 454.542,334.820 453.240 C 335.068 451.497,335.795 451.000,338.094 451.000 C 340.332 451.000,341.282 450.389,342.007 448.482 C 342.533 447.097,344.077 445.541,345.437 445.024 C 346.797 444.507,349.130 442.715,350.620 441.042 C 352.111 439.369,354.086 438.000,355.010 438.000 C 357.058 438.000,359.664 435.215,360.157 432.500 C 360.360 431.381,361.452 430.366,362.636 430.197 C 363.799 430.030,365.786 428.792,367.050 427.447 C 368.314 426.101,370.139 425.000,371.105 425.000 C 372.162 425.000,372.988 424.108,373.180 422.760 C 373.363 421.478,374.344 420.359,375.475 420.144 C 376.561 419.936,377.911 419.182,378.475 418.468 C 379.039 417.753,380.400 417.014,381.500 416.824 C 382.670 416.623,383.633 415.550,383.820 414.240 C 384.010 412.908,384.839 412.000,385.867 412.000 C 386.817 412.000,389.352 410.200,391.500 408.000 C 393.648 405.800,396.183 404.000,397.133 404.000 C 398.161 404.000,398.990 403.092,399.180 401.760 C 399.365 400.468,400.345 399.359,401.497 399.139 C 402.596 398.930,404.487 397.687,405.700 396.379 C 406.912 395.071,408.500 394.000,409.227 394.000 C 409.955 394.000,413.882 390.646,417.954 386.546 C 422.027 382.446,426.272 378.959,427.388 378.796 C 428.602 378.619,429.651 377.495,429.998 376.000 C 430.468 373.978,431.276 373.441,434.227 373.193 C 437.104 372.952,437.942 372.423,438.188 370.693 C 438.381 369.334,439.323 368.383,440.664 368.192 C 441.976 368.005,443.464 366.542,444.446 364.474 C 445.912 361.383,448.633 359.486,454.250 357.638 C 455.212 357.322,456.000 356.149,456.000 355.031 C 456.000 353.384,456.649 353.000,459.430 353.000 C 462.206 353.000,462.922 352.578,463.180 350.791 C 463.381 349.406,464.419 348.367,465.964 348.005 C 467.503 347.644,468.645 346.505,469.007 344.969 C 469.327 343.617,470.430 342.348,471.460 342.150 C 472.490 341.951,474.723 340.316,476.421 338.515 C 478.119 336.715,480.407 335.070,481.504 334.860 C 482.655 334.641,483.635 333.531,483.820 332.240 C 484.016 330.864,484.836 330.000,485.947 330.000 C 486.942 330.000,488.315 329.325,489.000 328.500 C 489.685 327.675,491.090 327.000,492.122 327.000 C 495.497 327.000,494.590 320.914,490.603 316.809 C 488.735 314.886,487.043 312.454,486.843 311.406 C 486.640 310.342,485.490 309.359,484.240 309.180 C 482.561 308.941,481.996 308.189,481.985 306.180 C 481.965 302.780,481.020 301.330,478.511 300.854 C 477.418 300.647,476.358 299.620,476.156 298.572 C 475.954 297.524,474.297 295.260,472.473 293.540 C 470.238 291.432,469.050 289.298,468.829 286.995 C 468.570 284.305,467.970 283.455,466.005 282.995 C 464.611 282.670,463.344 281.550,463.134 280.459 C 462.927 279.384,461.687 277.513,460.379 276.300 C 459.071 275.088,458.000 273.618,458.000 273.034 C 458.000 272.450,457.583 271.191,457.073 270.236 C 456.563 269.281,455.902 267.712,455.604 266.750 C 455.306 265.788,454.149 265.000,453.031 265.000 C 451.437 265.000,451.000 264.349,451.000 261.975 C 451.000 259.663,450.407 258.725,448.482 257.993 C 447.097 257.467,445.561 255.977,445.069 254.682 C 444.577 253.387,442.785 250.939,441.087 249.241 C 439.389 247.543,438.000 245.536,438.000 244.780 C 438.000 244.024,436.200 241.648,434.000 239.500 C 431.800 237.352,430.000 234.817,430.000 233.867 C 430.000 232.836,429.092 232.010,427.750 231.820 C 426.027 231.575,425.383 230.680,425.000 228.000 C 424.617 225.320,423.973 224.425,422.250 224.180 C 420.864 223.984,420.000 223.167,420.000 222.053 C 420.000 221.058,419.325 219.685,418.500 219.000 C 417.675 218.315,417.000 216.942,417.000 215.947 C 417.000 214.833,416.136 214.016,414.750 213.820 C 413.027 213.575,412.383 212.680,412.000 210.000 C 411.617 207.320,410.973 206.425,409.250 206.180 C 407.864 205.984,407.000 205.167,407.000 204.053 C 407.000 203.058,406.325 201.685,405.500 201.000 C 404.675 200.315,404.000 198.989,404.000 198.052 C 404.000 197.115,402.875 195.292,401.500 194.000 C 400.125 192.708,399.000 190.861,399.000 189.895 C 399.000 188.838,398.108 188.012,396.760 187.820 C 395.462 187.634,394.364 186.659,394.149 185.500 C 393.944 184.400,393.152 183.140,392.389 182.700 C 391.625 182.260,391.000 181.023,391.000 179.950 C 391.000 178.657,390.316 178.000,388.969 178.000 C 387.851 178.000,386.686 177.213,386.378 176.250 C 386.070 175.287,385.450 173.600,385.000 172.500 C 384.550 171.400,383.930 169.713,383.622 168.750 C 383.314 167.787,382.177 167.000,381.095 167.000 C 379.611 167.000,379.050 166.210,378.813 163.789 C 378.571 161.310,377.930 160.446,376.000 159.998 C 374.476 159.645,373.382 158.604,373.197 157.333 C 373.030 156.187,371.792 154.214,370.447 152.950 C 369.101 151.686,368.000 149.830,368.000 148.826 C 368.000 147.822,367.550 147.000,367.000 147.000 C 366.450 147.000,366.000 146.089,366.000 144.975 C 366.000 143.732,365.028 142.581,363.482 141.993 C 362.097 141.467,360.574 140.015,360.097 138.768 C 359.620 137.521,358.278 135.643,357.115 134.595 C 355.952 133.547,355.000 131.948,355.000 131.041 C 355.000 130.134,353.449 127.889,351.553 126.051 C 349.398 123.963,347.992 121.559,347.803 119.644 C 347.573 117.317,346.898 116.439,345.000 115.998 C 343.488 115.647,342.381 114.603,342.200 113.356 C 342.035 112.223,340.347 109.790,338.450 107.951 C 336.552 106.112,335.000 103.951,335.000 103.149 C 335.000 102.347,333.245 100.020,331.099 97.980 C 328.954 95.939,327.037 93.421,326.839 92.384 C 326.641 91.348,325.497 90.360,324.296 90.188 C 322.573 89.941,322.049 89.099,321.807 86.188 C 321.561 83.239,321.049 82.436,319.250 82.180 C 317.827 81.978,317.000 81.169,317.000 79.980 C 317.000 78.946,316.375 77.740,315.611 77.300 C 314.848 76.860,314.056 75.600,313.851 74.500 C 313.639 73.360,312.541 72.366,311.296 72.188 C 309.573 71.941,309.049 71.099,308.807 68.188 C 308.561 65.239,308.049 64.436,306.250 64.180 C 304.864 63.984,304.000 63.167,304.000 62.053 C 304.000 61.058,303.325 59.685,302.500 59.000 C 301.675 58.315,301.000 57.075,301.000 56.244 C 301.000 55.413,299.918 53.780,298.596 52.616 C 297.273 51.452,296.031 49.600,295.835 48.500 C 295.628 47.334,294.545 46.367,293.240 46.180 C 291.864 45.984,291.000 45.164,291.000 44.053 C 291.000 43.058,290.325 41.685,289.500 41.000 C 288.675 40.315,288.000 39.074,288.000 38.242 C 288.000 37.410,286.875 35.687,285.500 34.412 C 284.125 33.138,283.000 31.469,283.000 30.703 C 283.000 28.877,279.777 26.000,277.732 26.000 C 276.592 26.000,276.030 24.903,275.810 22.250 C 275.558 19.205,275.065 18.438,273.189 18.172 C 271.918 17.992,270.632 17.092,270.332 16.172 C 268.947 11.930,266.921 8.238,265.047 6.542 C 263.921 5.524,263.000 3.635,263.000 2.345 C 263.000 -1.467,259.105 -0.605,254.359 4.258 M223.754 283.236 C 223.506 390.693,223.452 393.482,221.597 393.839 C 220.551 394.041,219.291 393.484,218.798 392.603 C 218.304 391.721,217.054 391.000,216.020 391.000 C 214.834 391.000,214.021 390.173,213.820 388.760 C 213.633 387.454,212.666 386.373,211.500 386.167 C 210.400 385.972,207.925 384.329,206.000 382.515 C 204.075 380.701,201.516 378.922,200.313 378.561 C 199.097 378.197,197.988 376.933,197.813 375.713 C 197.636 374.471,196.639 373.356,195.514 373.142 C 194.422 372.933,192.608 371.691,191.483 370.381 C 190.357 369.072,188.751 368.000,187.914 368.000 C 187.077 368.000,184.888 366.448,183.049 364.550 C 181.210 362.653,178.759 360.965,177.603 360.800 C 176.339 360.620,175.378 359.644,175.194 358.354 C 174.832 355.811,172.289 353.350,169.500 352.843 C 168.357 352.635,167.366 351.545,167.188 350.299 C 166.954 348.661,166.082 348.041,163.688 347.809 C 161.347 347.582,160.421 346.948,160.203 345.422 C 159.933 343.535,157.066 341.785,150.750 339.653 C 149.787 339.329,149.000 338.149,149.000 337.031 C 149.000 335.743,148.343 335.000,147.203 335.000 C 146.215 335.000,143.648 333.200,141.500 331.000 C 139.352 328.800,136.817 327.000,135.867 327.000 C 134.836 327.000,134.010 326.092,133.820 324.750 C 133.617 323.326,132.696 322.386,131.311 322.189 C 129.948 321.994,129.006 321.052,128.811 319.689 C 128.576 318.034,127.646 317.378,125.000 317.000 C 119.196 316.171,119.166 306.750,124.950 301.308 C 127.176 299.213,128.997 296.791,128.998 295.924 C 128.999 295.058,130.125 293.292,131.500 292.000 C 132.875 290.708,134.000 289.055,134.000 288.326 C 134.000 286.544,137.378 283.265,139.659 282.833 C 140.910 282.595,141.600 281.445,141.813 279.242 C 142.050 276.790,142.607 276.000,144.095 276.000 C 145.177 276.000,146.306 275.212,146.604 274.250 C 146.902 273.288,147.563 271.719,148.073 270.764 C 148.583 269.809,149.000 268.332,149.000 267.482 C 149.000 266.632,149.640 265.692,150.423 265.391 C 151.205 265.091,152.587 263.282,153.494 261.371 C 154.401 259.460,156.236 257.481,157.572 256.973 C 158.907 256.465,160.000 255.442,160.000 254.699 C 160.000 253.956,161.125 252.292,162.500 251.000 C 163.875 249.708,165.000 248.124,165.000 247.479 C 165.000 244.907,168.349 239.818,170.606 238.960 C 171.923 238.459,173.000 237.432,173.000 236.678 C 173.000 235.924,174.575 233.685,176.500 231.703 C 178.425 229.721,180.000 227.480,180.000 226.724 C 180.000 225.967,181.125 224.292,182.500 223.000 C 183.875 221.708,185.000 219.852,185.000 218.875 C 185.000 217.899,185.625 216.740,186.389 216.300 C 187.152 215.860,187.944 214.600,188.149 213.500 C 188.360 212.362,189.459 211.366,190.699 211.189 C 192.052 210.995,192.995 210.048,193.189 208.689 C 193.386 207.304,194.326 206.383,195.750 206.180 C 197.577 205.921,198.000 205.225,198.000 202.480 C 198.000 200.621,198.625 198.740,199.389 198.300 C 200.152 197.860,200.944 196.600,201.149 195.500 C 201.360 194.362,202.459 193.366,203.699 193.189 C 205.052 192.995,205.995 192.048,206.189 190.689 C 206.386 189.304,207.326 188.383,208.750 188.180 C 210.538 187.926,211.000 187.216,211.000 184.718 C 211.000 180.818,218.147 173.000,221.713 173.000 L 224.009 173.000 223.754 283.236 M299.571 174.429 C 300.357 175.214,301.000 176.509,301.000 177.306 C 301.000 178.103,301.675 179.315,302.500 180.000 C 303.325 180.685,304.000 182.058,304.000 183.053 C 304.000 184.167,304.864 184.984,306.250 185.180 C 308.049 185.436,308.561 186.239,308.807 189.188 C 309.049 192.099,309.573 192.941,311.296 193.188 C 312.500 193.360,313.644 194.361,313.845 195.418 C 314.047 196.473,315.964 198.909,318.106 200.832 C 320.248 202.755,322.000 205.063,322.000 205.961 C 322.000 206.859,323.800 209.352,326.000 211.500 C 328.200 213.648,330.000 216.108,330.000 216.966 C 330.000 217.823,331.125 219.370,332.500 220.403 C 333.875 221.435,335.000 223.029,335.000 223.944 C 335.000 224.859,336.575 227.134,338.500 229.000 C 340.425 230.866,342.012 233.092,342.028 233.946 C 342.043 234.801,343.393 236.812,345.028 238.417 C 346.662 240.021,348.000 241.845,348.000 242.470 C 348.000 243.096,349.575 245.134,351.500 247.000 C 353.425 248.866,355.000 251.120,355.000 252.009 C 355.000 252.898,356.350 254.919,358.000 256.500 C 359.650 258.081,361.000 259.976,361.000 260.712 C 361.000 261.448,362.125 262.477,363.500 263.000 C 365.031 263.582,366.000 264.736,366.000 265.975 C 366.000 267.089,366.450 268.000,367.000 268.000 C 367.550 268.000,368.000 268.822,368.000 269.826 C 368.000 270.830,369.125 272.708,370.500 274.000 C 371.875 275.292,373.000 277.015,373.000 277.829 C 373.000 278.643,374.755 280.980,376.901 283.020 C 379.046 285.061,380.963 287.579,381.161 288.616 C 381.360 289.658,382.521 290.643,383.760 290.820 C 385.136 291.016,386.000 291.836,386.000 292.947 C 386.000 293.942,386.675 295.315,387.500 296.000 C 388.325 296.685,389.000 298.057,389.000 299.050 C 389.000 300.043,390.125 301.740,391.500 302.821 C 392.875 303.903,394.000 305.421,394.000 306.194 C 394.000 306.967,394.487 308.087,395.082 308.682 C 395.824 309.424,395.847 310.351,395.155 311.632 C 394.600 312.659,393.902 314.288,393.604 315.250 C 393.306 316.212,392.313 317.000,391.396 317.000 C 390.479 317.000,388.729 318.080,387.506 319.400 C 386.282 320.719,384.431 321.961,383.391 322.160 C 382.342 322.360,381.358 323.517,381.180 324.760 C 381.000 326.024,380.157 327.000,379.245 327.000 C 377.007 327.000,373.000 330.962,373.000 333.174 C 373.000 334.594,372.222 335.000,369.500 335.000 C 366.649 335.000,366.000 335.376,366.000 337.031 C 366.000 338.149,365.212 339.329,364.250 339.653 C 357.950 341.780,355.066 343.537,354.797 345.411 C 354.634 346.549,353.632 347.645,352.571 347.848 C 350.117 348.316,348.318 350.110,347.846 352.559 C 347.643 353.614,346.611 354.644,345.553 354.848 C 344.494 355.052,342.486 356.519,341.091 358.109 C 339.696 359.699,337.755 361.000,336.777 361.000 C 335.658 361.000,335.000 361.752,335.000 363.031 C 335.000 364.149,334.212 365.306,333.250 365.604 C 332.288 365.902,330.719 366.563,329.764 367.073 C 328.809 367.583,327.518 368.000,326.895 368.000 C 326.273 368.000,322.936 370.883,319.481 374.408 C 316.025 377.932,312.366 380.974,311.349 381.168 C 310.332 381.362,309.356 382.528,309.180 383.760 C 308.990 385.092,308.161 386.000,307.133 386.000 C 306.183 386.000,303.666 387.781,301.540 389.959 C 299.414 392.136,297.298 393.684,296.837 393.400 C 295.533 392.593,295.766 173.000,297.071 173.000 C 297.661 173.000,298.786 173.643,299.571 174.429 " stroke="none" fill="#000000" fill-rule="evenodd"></path></g></svg>