<svg viewBox="0 0 1756 1996" xmlns="http://www.w3.org/2000/svg">
  <defs>
    <linearGradient x1="-35.163764%" y1="22.453248%" x2="108.232668%" y2="79.628672%" id="a">
      <stop stop-color="#F85F7D" offset="0%"/>
      <stop stop-color="#F14E10" offset="100%"/>
    </linearGradient>
  </defs>
  <path d="M859.748172 4.860362C865.374661 1.629909 871.649231 0 877.923792 0c6.245113 0 12.490217 1.61523 18.101982 4.816317l802.142916 460.794905c24.18506 13.89095 24.21452 48.677068.05891 62.62676l-697.83193 402.4999c-23.861027-27.825963-57.148629-47.399574-94.928593-53.831113V658.043502c75.64829-12.892443 133.282983-78.39724 133.282983-157.499321 0-88.323548-71.833472-159.936842-160.443309-159.936842s-160.428588 71.613294-160.428588 159.936842c0 78.661557 57.001339 143.902054 132.031013 157.293756v219.259728c-37.234977 6.637113-69.97761 26.063892-93.57352 53.537439L58.444815 529.632959c-24.170344-13.89095-24.214525-48.677077-.058924-62.612081L859.748172 4.860362zm840.703508 580.48324c5.84743-3.377285 12.06308-4.919095 18.10199-4.919095 18.94152 0 36.30704 15.095022 36.3365 36.181086l.76591 894.777057c.01473 12.90713-6.89318 24.84513-18.1167 31.30604l-776.867905 448.0493c-24.170335 13.94969-54.409032-3.43603-54.423756-31.2473l-.662814-767.71742c38.501683-6.59307 72.393185-26.63656 96.283665-55.3876l194.05496 111.27445c-5.19935 19.88198-6.67225 41.08551-3.60862 62.71487 12.35766 87.47188 93.51461 148.38063 181.25543 136.06085 87.74083-12.34914 148.83685-93.24265 136.47919-180.71455-12.37239-87.47188-93.52934-148.39531-181.27016-136.06085-46.19024 6.49027-84.83921 32.08428-109.42196 67.53118l-190.10757-109.01314c6.0389-16.84242 9.50022-34.88891 9.50022-53.78707 0-21.43847-4.35979-41.819691-12.03362-60.482912l673.73524-388.564887v-.000009zM.78066 616.605593c.014734-21.100742 17.380254-36.181086 36.321783-36.181086 6.038905 0 12.254552 1.54181 18.101982 4.919095l674.50115 389.020099c-7.555991 18.545747-11.827412 38.765449-11.827412 60.027709 0 18.91284 3.446597 36.95933 9.500226 53.80175l-190.063394 108.99846c-24.612208-35.4469-63.246443-61.04091-109.436678-67.53118-87.740833-12.33446-168.897774 48.58897-181.25543 136.06085-12.372389 87.4719 48.723629 168.36541 136.464452 180.71455 87.740824 12.31978 168.897774-48.58897 181.270154-136.06085 3.048914-21.62936 1.590742-42.83289-3.623339-62.71487l194.010769-111.25978c23.728471 28.50142 57.237005 48.44213 95.326281 55.21141l-.662815 767.87894c-.014724 27.81127-30.253421 45.19699-54.409032 31.2473L18.102 1542.68869c-11.208787-6.46091-18.116706-18.39891-18.101973-31.30604l.780634-894.777057z" fill="url(#a)" fill-rule="evenodd"/>
</svg>
