<svg viewBox="0 0 1996 1994" xmlns="http://www.w3.org/2000/svg">
  <path d="M941.016216 9.81081C878.6 32.697298 824.275676 104.772974 830.47027 156.47027c1.713514 14.264865 2.589189 13.535135 14.172973-11.821621 57.881081-126.67027 233.362167-133.091892 297.762167-10.891892 6.23783 11.848648 11.35135 24.621621 11.35135 28.378378 0 3.762162 2.74594 6.837838 6.09729 6.837838 4.12433 0 4.93514-7.264865 2.51352-22.416216C1145.71351 42.432432 1036.33514-25.14054 941.016216 9.810811m363.589194 444.994594c-4.73514 4.821622-42.43784 52.275676-83.78379 105.45946C1029.12432 806.848649 1001.4 842.010811 997.96757 842.956757c-2.016219.551351-42.589192-49.032433-90.156759-110.189189-47.567568-61.156757-116.6-149.875676-153.410811-197.145946-36.810811-47.275676-68.091892-84.783784-69.518919-83.356757-1.427027 1.427027 6.643243 38.821621 17.940541 83.097297l20.529729 80.502703-66.572973 126.14054c-36.616216 69.378379-73.2 138.486487-81.291892 153.578379-8.097297 15.091892-28.832432 54.2-46.086486 86.902702-17.248649 32.702704-39.162162 74.054054-48.691892 91.891894-30.718919 57.50811-65.248649 122.77838-100.081081 189.18919-55.048649 104.95675-66.886486 116.21621-122.2 116.21621-42.897297 0-66.508108-15.98378-88.778378-60.1027-120.751352-239.2-117.52973-572.427026 7.794594-806.918918 28.443243-53.216216 13.335135-62.086486-20.118919-11.805405C-137.091892 943.481081-3.351351 1575.98378 447.351351 1872.57838c155.221622 102.14594 364.945946 168.27567 247.8 78.13513-103.178378-79.39459-150.643243-180.16756-145.345946-308.58919l2.686487-65.04324 51.735135-151.35135c28.454054-83.24324 80.8-236.48649 116.324324-340.54054 35.518919-104.054055 66.643244-194.524325 69.167568-201.043244 4.145946-10.708108 7-8.102703 29.610811 27.027027 38.264865 59.464865 96.059459 151.216217 137.545946 218.362167 44.535134 72.08648 39.043243 70.33513 68.686484 21.87027 13.17838-21.54595 44.08108-70.81082 68.65946-109.45946 24.58919-38.64865 58.05406-91.783788 74.38379-118.081085 35.72973-57.545946 34.35675-58.27027 64.99459 34.297297 12.3027 37.162162 55.53514 164.864868 96.07568 283.783788 112.47567 329.92973 114.69189 337.11891 118.78918 384.11891 10.87028 124.68109-44.21081 247.78379-143.95135 321.72433-99.1027 73.46486 22.70271 51.37838 173.38379-31.44324 505.07027-277.5946 672.63784-940.367572 358.76756-1418.994599-38.63783-58.924324-44.77297-38.951351-10.54594 34.345946 116.69189 249.870271 116.43243 547.924323-.68649 787.108113-29.78919 60.84324-95.82702 81.58918-145.18919 45.62162-20.32432-14.80541-407.56756-730.362165-407.56756-753.108111 0-4 9.61621-42.427027 21.38378-85.405405 23.24865-84.940541 23.0973-83.875676 10.54595-71.108109" fill="#000" fill-rule="nonzero"/>
</svg>
