<svg viewBox="0 0 2000 2000" xmlns="http://www.w3.org/2000/svg">
  <g fill-rule="nonzero" fill="none">
    <path fill="#2F0735" d="M0 0h2000v2000H0z"/>
    <path d="M354.739726 408.273973c-4.65444-3.293938-10.762347-3.701294-15.812987-1.054621-5.050639 2.646674-8.191781 7.900786-8.132218 13.602566v682.246572c-.025349 13.72989 6.640193 26.61115 17.863013 34.52055l146.136987 103.83562c6.857269 4.84438 16.341467 3.22692 21.205479-3.61644 1.810857-2.58611 2.78611-5.66485 2.794521-8.82192V796.109589c.183566-1.846116 1.288805-3.473968 2.936955-4.325696 1.64815-.851729 3.615343-.811644 5.227428.106518L880 1042.52055c6.504379 4.63106 10.36366 12.125 10.356164 20.10959v442.52054c-.085324 10.87671 5.153048 21.10791 14.027398 27.39727l81.479452 57.9178c8.478446 5.97251 19.795526 5.97251 28.273976 0l81.75342-58.35616c8.87435-6.28936 14.11272-16.52055 14.0274-27.39726v-442.30137c-.02592-7.98903 3.83746-15.49095 10.35616-20.10959l353.0411-250.630137c1.57438-1.136019 3.65379-1.290252 5.37854-.398937 1.72476.891315 2.80179 2.676733 2.78584 4.618115v432.876709c.00697 5.68356 3.17749 10.89054 8.22362 13.50578 5.04612 2.61523 11.12852 2.2037 15.77638-1.06742l146.13699-103.78082c11.21711-7.93931 17.87843-20.83285 17.86301-34.57534V420.712329c.03022-4.077839-1.58765-7.995064-4.48663-10.863094s-6.83335-4.443771-10.91063-4.369783c-3.16209-.024347-6.25056.953989-8.82192 2.794521l-626.08219 444.49315c-11.46068 8.230889-26.89548 8.230889-38.356162 0l-626.082192-444.49315z" fill="#E85D53"/>
  </g>
</svg>
