<svg xmlns="http://www.w3.org/2000/svg" viewBox="0 0 2000 2000">
  <path d="M1000 0C447.69 0 0 447.69 0 1000s447.69 1000 1000 1000 1000-447.69 1000-1000S1552.21 0 1000 0zM797.62 525.9c39.91-24.69 157.93 159.44 180.21 162.67s79.82-54.22 116.41-84.56 197-130.82 204.09-120.44-112.48 79.82-178.69 130.82-112.89 128.81-165.7 128.81-148.36-148.36-161.86-164.79a35 35 0 0 1 1.71-49.49 36 36 0 0 1 3.83-3zm516.23 848.1l-100-414.63-214.05 257.32-217.7-257.51-100 414.63H493.35l188.87-795.3L999.8 967.45l309.72-388.93 187.26 795.1z" fill="#ff9616"/>
</svg>
