<svg viewBox="0 0 1992 855" xmlns="http://www.w3.org/2000/svg">
  <g transform="translate(0 -17)" fill="#4A90E2" fill-rule="nonzero">
    <circle cx="143.283582" cy="728.358209" r="143.283582"/>
    <path d="M1850.74627 17.910448c-77.61194 0-143.28358 62.686567-143.28358 143.283582 0 113.432836-17.91045 143.283582-143.28359 143.283582h-11.94029c-71.6418 5.970149-128.35821 65.671642-128.35821 140.298507v2.985075c0 110.447761-20.89553 137.313433-143.28359 137.313433-5.97014 0-11.94029 0-14.92537 2.985074-71.64179 8.955224-128.35821 68.656717-128.35821 140.298508 0 77.61194 62.68657 143.283582 143.28358 143.283582 74.62687 0 137.31344-59.701492 140.29851-131.343284v-11.940298c0-101.492537 32.83582-140.298508 140.29851-143.283582h2.98507c74.62687 0 137.31344-59.701493 140.29851-134.328358v-8.955224c0-104.477612 32.83582-143.283582 143.28358-143.283582 77.61194 0 143.28359-62.686567 143.28359-143.283582 0-74.626866-62.68657-137.313433-140.29851-137.313433zm-841.79105 286.567164h-11.940295c-125.373134 0-143.283582-29.850746-143.283582-143.283582 0-77.61194-62.686567-143.283582-143.283582-143.283582-77.61194 0-143.283582 62.686567-143.283582 143.283582 0 113.432836-17.910448 140.298507-143.283582 140.298507h-11.940298c-71.641792 5.97015-128.358209 65.671642-128.358209 140.298508 0 77.61194 62.686567 143.283582 143.283582 143.283582 74.626865 0 137.313432-59.701493 140.298507-131.343284v-8.955224c0-104.477612 32.835821-143.283582 143.283582-143.283582 110.447761 0 143.283582 38.80597 143.283582 140.298508 0 77.61194 62.686567 143.283582 143.283582 143.283582s143.283585-62.686567 143.283585-143.283582c-2.98508-71.641791-59.7015-131.343284-131.34329-137.313433z"/>
  </g>
</svg>
