<svg id="Layer_1" xmlns="http://www.w3.org/2000/svg" viewBox="0 0 67 30" width="300" height="300">
  <style>.st0{fill:#000}</style>
  <circle class="st0" cx="4.8" cy="24.4" r="4.8"/>
  <path class="st0" d="M62 .6c-2.6 0-4.8 2.1-4.8 4.8 0 3.8-.6 4.8-4.8 4.8H52c-2.4.2-4.3 2.2-4.3 4.7v.1c0 3.7-.7 4.6-4.8 4.6-.2 0-.4 0-.5.1-2.4.3-4.3 2.3-4.3 4.7 0 2.6 2.1 4.8 4.8 4.8 2.5 0 4.6-2 4.7-4.4v-.4c0-3.4 1.1-4.7 4.7-4.8h.1c2.5 0 4.6-2 4.7-4.5v-.3c0-3.5 1.1-4.8 4.8-4.8 2.6 0 4.8-2.1 4.8-4.8 0-2.5-2.1-4.6-4.7-4.6zM33.8 10.2h-.4c-4.2 0-4.8-1-4.8-4.8 0-2.6-2.1-4.8-4.8-4.8C21.2.6 19 2.7 19 5.4c0 3.8-.6 4.7-4.8 4.7h-.4c-2.4.2-4.3 2.2-4.3 4.7 0 2.6 2.1 4.8 4.8 4.8 2.5 0 4.6-2 4.7-4.4v-.3c0-3.5 1.1-4.8 4.8-4.8 3.7 0 4.8 1.3 4.8 4.7 0 2.6 2.1 4.8 4.8 4.8s4.8-2.1 4.8-4.8c-.1-2.4-2-4.4-4.4-4.6z"/>
</svg>
