<svg viewBox="0 0 1870 2000" xmlns="http://www.w3.org/2000/svg">
  <g fill-rule="nonzero" fill="none">
    <path d="M435.370881 760.43956v-39.430569L39.82228 500.27972C13.872092 543.362934.082022 593.050923 0 643.766234v358.511486l.968912.54945L435.37088 760.43956z" fill="#3377B5"/>
    <path fill="#4F6CB0" d="M.978601 1002.83716l434.39228 242.38762V760.44955L.978601 1002.83716"/>
    <path d="M1832.73565 504.915084l-387.24503 216.093907v39.430569L1870 997.322677V643.766233c0-49.44056-13.28378-97.022977-37.25466-138.861139" fill="#504CA1"/>
    <path d="M435.370881 1264.485514v-19.250749L.968911 1002.847152 0 1003.396603v352.827173c0 52.947053 15.211917 103.796204 42.506166 147.662337l393.630155-219.650349-.76544-19.75025z" fill="#3B9CC7"/>
    <path fill="#5465AD" d="M1405.53269 695.084915V219.070929L979.017668 457.072927l426.515022 238.011988"/>
    <path d="M1445.49062 717.372627v3.626374l387.24503-216.093906c-25.66648-44.785215-63.58969-82.917083-111.05669-109.43057l-316.14627-176.403596v476.013986" fill="#513D9A"/>
    <path fill="#214688" d="M940.193368 1480.5994l423.879582-236.53347v-4.6953l-423.879582-236.53347v477.76224"/>
    <path fill="#4395C4" d="M469.883523 1304.52547v479.41059l5.106166 2.84716 429.576788-239.7003-434.682954-242.55745"/>
    <path d="M436.194456 1285.71429l-.048446-1.47853-393.630156 219.64036c25.482384 40.95904 61.477462 75.92408 105.785804 100.61938l321.620621 179.44056v-479.41059l-33.727823-18.81118z" fill="#54A4CB"/>
    <path d="M943.148549 437.072927l35.849741 19.98002 426.505332-238.011988-322.23103-179.82018C1039.320265 14.85883 990.331165 1.749827 940.435595.999001v437.562438l2.712954-1.488512z" fill="#7F6FB3"/>
    <path d="M904.566476 458.591409l35.849741-19.98002V.999001c-46.43345-.886178-92.4768 8.886914-134.795026 28.611389L470.707098 216.503497l433.859378 242.087912z" fill="#5054A4"/>
    <path fill="#50479E" d="M470.707098 216.503497l-.833264.44955v484.195804l434.682954-242.557442-433.84969-242.087912"/>
    <path d="M435.370881 720.539461l18.409327-10.429571 16.045181-8.991009V216.963037l-339.652072 189.57043c-36.60926 23.801039-67.502137 55.858228-90.351037 93.756244l395.548601 220.71928v-.46953z" fill="#5057A6"/>
    <path d="M943.14855 1568.611387l-2.712954-1.50849v431.8981c49.906923-.76228 98.905085-13.88132 142.866063-38.25175l317.14425-176.96303-421.42824-235.15485-35.869119 19.98002z" fill="#2C7AB6"/>
    <path d="M904.566477 1547.072927l-429.576787 239.76024 311.679585 173.93606c47.216392 26.14944 100.170218 39.31647 153.756632 38.23177v-431.90809" fill="#4FA2CA"/>
    <path fill="#4D8DC0" d="M979.017668 1548.59141l421.428242 235.15484 5.08678-2.84715v-470.2997l-426.515022 237.99201"/>
    <g>
      <path d="M1445.490622 1288.291708l-39.948238 22.297703v470.30969l316.13658-176.413587c45.945803-25.634365 83.035751-62.157842 108.663471-105.074925l-384.851813-214.785214" fill="#4488BE"/>
      <path d="M1445.490622 1284.655345l384.851813 214.785214c25.849226-43.024914 39.580293-92.615866 39.657565-143.226773v-347.862138l-424.509378 236.883117" fill="#6687BE"/>
    </g>
    <path fill="#415CA8" d="M1445.49062 1245.23477L1870 1008.35165v-11.028973L1445.49062 760.42957v484.8052"/>
    <path fill="#5D62AC" d="M1364.06326 1239.37063V766.313686L940.183679 1002.83716l423.879581 236.53347"/>
  </g>
</svg>
