<svg viewBox="0 0 1998 1997" xmlns="http://www.w3.org/2000/svg">
  <g transform="translate(-1)" fill-rule="nonzero" fill="none">
    <circle fill="#F80000" cx="1000" cy="998.245614" r="903.508772"/>
    <path d="M1000 1996.49123c-551.315829 0-998.245614-446.92979-998.245614-998.245616C1.754386 446.929785 448.684171 0 1000 0c551.31583 0 998.24561 446.929785 998.24561 998.245614 0 551.315826-446.92978 998.245616-998.24561 998.245616zm0-189.47369c446.6724 0 808.77193-362.09952 808.77193-808.771926 0-446.672403-362.09953-808.77193-808.77193-808.77193-446.672403 0-808.77193 362.099527-808.77193 808.77193 0 446.672406 362.099527 808.771926 808.77193 808.771926z" fill="#000"/>
    <path d="M877.192982 736.842105l343.859648-42.105263-168.42105-73.68421s17.54386-133.333334-98.245615-168.421053l-10.526316 42.105263s70.175441 17.54386 63.157891 129.824562" fill="#FFF"/>
    <path d="M1000 1806.69298c-450.338483 0-815.464912-361.92356-815.464912-808.447366 0-446.523802 365.126429-808.447368 815.464912-808.447368 450.33848 0 815.46491 361.923566 815.46491 808.447368 0 446.523806-365.12643 808.447366-815.46491 808.447366zm0-30.92982c433.31712 0 784.53509-348.13711 784.53509-777.517546 0-429.380433-351.21797-777.517544-784.53509-777.517544-433.317117 0-784.535088 348.137111-784.535088 777.517544 0 429.380436 351.217971 777.517546 784.535088 777.517546z" fill="#FFF"/>
    <path d="M1242.10526 1017.54386l-129.82456 7.01754 115.78948-308.771926-352.631584 50.877193-31.578947 340.350873h77.192983l-12.280702 387.7193 333.33333-477.19298zm-273.684207 338.59649c0 6.78245-5.498258 12.2807-12.280702 12.2807s-12.280702-5.49825-12.280702-12.2807v-91.22807c0-6.78244 5.498258-12.2807 12.280702-12.2807s12.280702 5.49826 12.280702 12.2807v91.22807zm-91.228071-275.4386l27.122807-298.526311c.542598-5.798656 5.404095-10.234772 11.228071-10.245614h2c3.159355-.0022 6.174382 1.322629 8.309539 3.651284 2.135157 2.328656 3.194114 5.447015 2.918531 8.59433l-23.508772 271.964911h70.175438l-3.22807 165.50877c-.152811 7.46712-6.25062 13.44016-13.719298 13.4386h-.596491c-3.690961-.00865-7.223573-1.50038-9.803621-4.13981-2.580048-2.63944-3.991013-6.20508-3.915677-9.89528l3.192982-140.35088h-70.175439z" fill="#FFF"/>
  </g>
</svg>
