<svg viewBox="0 0 2000 2000" xmlns="http://www.w3.org/2000/svg">
  <g fill="none" fill-rule="evenodd">
    <circle fill="#0A4682" cx="1000" cy="1000" r="1000"/>
    <g fill="#FFF" fill-rule="nonzero">
      <path d="M871.251798 1170.841726l-42.201438 84.676259h-93.129497l252.834533-507.316546 168.438848 338.330935h-95.316546l-75.302159-147.086331-75.302158 148.920863-40.021583 82.47482zm368.158274 84.676259h-93.129497l-42.201438-84.676259h93.129496l42.201439 84.676259z"/>
      <path d="M1489.697841 935.064748l-53.11511 68.978417-199.719422-253.683453h108.776982l144.05755 184.705036zm-53.11511 66.791367l53.11511 68.978417-144.05755 184.676259h-108.776982l199.719422-253.654676zm106.58993 0l-53.11511-68.978417 144.06475-184.67626h106.58993l-197.53957 253.654677zm0 0l197.53957 253.654676h-106.58993l-144.05755-184.676259 53.10791-68.978417zM691.539568 821.582734c48.299989 47.363444 74.779908 112.646189 73.122302 180.273381.647229 67.445366-25.677856 132.354157-73.122302 180.294964-48.748201 51.079137-108.776978 73.381295-179.71223 73.381295-67.395307 1.021411-132.293999-25.478455-179.71223-73.381295-48.144943-47.476035-74.595877-112.695126-73.122302-180.294964-.89047-52.675904 15.46281-104.198966 46.568345-146.719425l62.208633 62.410072c-16.119943 26.091306-24.567008 56.19457-24.3741 86.86331.009712 44.835397 17.497119 87.900976 48.748201 120.050359 31.259965 32.638685 74.493365 51.095375 119.68705 51.095375s88.427085-18.45669 119.68705-51.095375c32.115487-31.589767 49.755858-75.042457 48.748202-120.079136-.002224-44.845356-17.490181-87.922613-48.748202-120.079137-31.161031-32.571452-74.62973-50.466332-119.690647-49.273381-29.693864-.881553-59.008027 6.85177-84.402878 22.266187l-61.870503-62.410072c42.32174-31.17557 93.716315-47.578255 146.273381-46.683453 67.472928-1.436828 132.529334 25.127437 179.71223 73.381295z"/>
    </g>
  </g>
</svg>
