<svg viewBox="0 0 2000 2000" xmlns="http://www.w3.org/2000/svg" xmlns:xlink="http://www.w3.org/1999/xlink">
  <defs>
    <path d="M586.2069 1172.41379c323.753129 0 586.2069-262.453764 586.2069-586.206893C1172.4138 262.453767 909.960029 0 586.2069 0S0 262.453767 0 586.206897c0 323.753129 262.453771 586.206893 586.2069 586.206893zm0-137.93103c-247.575923 0-448.27586-200.699941-448.27586-448.275863 0-247.575923 200.699937-448.275863 448.27586-448.275863 247.575922 0 448.27586 200.69994 448.27586 448.275863 0 247.575922-200.699938 448.275863-448.27586 448.275863z" id="a"/>
    <path id="c" d="M488-104h196v1386H488z"/>
  </defs>
  <g fill="none" fill-rule="evenodd">
    <circle fill="#212121" fill-rule="nonzero" cx="1000" cy="1000" r="1000"/>
    <g transform="translate(414 414)">
      <mask id="b" fill="#fff">
        <use xlink:href="#a"/>
      </mask>
      <use fill="#FFF" fill-rule="nonzero" xlink:href="#a"/>
      <g mask="url(#b)">
        <use fill="#212121" xlink:href="#c"/>
        <path stroke="#979797" d="M488.5-103.5h195v1385h-195z"/>
      </g>
    </g>
    <path d="M1000.25616 1916.51232C494.221855 1916.51232 84 1506.29046 84 1000.25616 84 494.221855 494.221855 84 1000.25616 84c506.0343 0 916.25616 410.221855 916.25616 916.25616 0 506.0343-410.22186 916.25616-916.25616 916.25616zm0-29.55665c489.71062 0 886.69951-396.98889 886.69951-886.69951 0-489.710618-396.98889-886.699509-886.69951-886.699509-489.710618 0-886.699509 396.988891-886.699509 886.699509 0 489.71062 396.988891 886.69951 886.699509 886.69951z" fill="#FFF" fill-rule="nonzero"/>
  </g>
</svg>
