<svg viewBox="0 0 2000 2000" xmlns="http://www.w3.org/2000/svg">
  <g fill="none" fill-rule="evenodd">
    <circle fill="#373744" cx="1000" cy="1000" r="1000"/>
    <path d="M1068.493151 1493.042704c-22.390327 3.08173-45.25577 4.67419-68.493151 4.67419-16.95412 0-33.710247-.8477-50.228311-2.50304v79.38845h-63.92694v-90.03829C665.982396 1432.967514 502.283105 1235.600765 502.283105 1000c0-235.600766 163.699291-432.967514 383.561644-484.564016v-86.21224h63.92694v75.562398c16.518064-1.655334 33.274191-2.503037 50.228311-2.503037 23.237381 0 46.102824 1.592457 68.493151 4.674193v-77.733554h63.92694v90.867792C1343.022568 578.07278 1497.716895 770.970991 1497.716895 1000c0 229.029008-154.694327 421.927221-365.296803 479.908454l-.000001 94.69385h-63.92694v-81.5596zm0-73.880037V580.837332c-22.29663-3.615508-45.175417-5.494867-68.493151-5.494867-16.99441 0-33.75566.998273-50.228311 2.939377v843.436315c16.472651 1.941104 33.233901 2.939377 50.228311 2.939377 23.317734 0 46.196521-1.879359 68.493151-5.494867zm63.926941-15.55825c169.68889-55.639916 292.237442-215.310793 292.237442-403.604417 0-188.293625-122.548552-347.964502-292.237442-403.604417l-.000001 807.208845zm-246.575343 5.534012V590.861571C706.755271 640.723854 575.342466 805.015374 575.342466 1000c0 194.984625 131.412805 359.276145 310.502283 409.138425z" fill="#FFC500" fill-rule="nonzero"/>
  </g>
</svg>
