<svg viewBox="0 0 2000 2000" xmlns="http://www.w3.org/2000/svg">
  <g fill="none" fill-rule="evenodd">
    <circle fill="#212727" cx="1000" cy="1000" r="1000"/>
    <g fill="#03E8B0" fill-rule="nonzero">
      <path d="M963.250819 343.242427c42.982577-18.70693 73.626014 20.93689 100.125433 47.43012 47.331009 40.15176 92.332944 83.03522 135.018193 128.04335 24.473867 26.69764 14.562911 75.54627-18.713124 90.4127-25.58885 13.95586-56.839333 3.43786-76.456831-15.98142-51.481223-49.35656-100.73248-101.13511-154.233059-148.2679-33.17135-27.10027-26.396592-85.95896 14.259388-101.63685M1432.113374 479.976447c29.13201-15.67789 75.75067-2.92992 83.84668 31.75842 12.33914 30.84785-7.48277 61.38599-29.23112 81.92025-47.63453 47.02749-93.95586 95.368174-140.2772 143.708861-16.885787 20.435153-46.618655 25.898567-70.49167 14.872629-34.483933-14.265583-43.787842-66.044133-17.79636-92.24003 58.456057-59.46573 110.03639-126.11691 173.94967-180.02013M501.161787 489.583887c30.342392-18.3043 67.862174-6.16957 90.314206 18.71312 50.466588 50.96709 102.549901 100.22454 153.624154 150.38637 33.781494 31.250483 10.216337 97.393725-36.911497 97.598139-39.443127 6.07046-60.380641-32.972512-86.776614-54.312039-46.320092-38.33062-88.695624-81.00968-130.667283-123.99225-23.768331-24.47387-16.685714-69.3767 10.417034-88.39334M540.30201 790.870752c50.871079-19.623693 100.527447 44.500193 68.772124 88.690668-37.52164 48.953928-86.372743 88.294229-127.330388 134.51645-24.172202 24.8765-46.723343 63.106774-86.977249 58.250405-47.13025-1.81928-70.794578-67.356096-36.510351-99.108321 61.895345-59.267517 111.048112-134.212927 182.045864-182.349202M1571.783514 932.659367c34.99187-22.857143 87.7863 3.134339 88.90128 45.311651 5.1537 39.643825-34.1866 60.574525-55.82965 87.178008-38.12621 45.913743-79.99381 88.698101-123.1808 129.858921-31.55401 29.831977-90.518 8.894463-96.17963-34.284475-7.38367-44.606116 34.48393-72.314051 60.88424-100.832208 43.68873-40.560587 80.60085-88.393339 125.40456-127.231897M672.991748 1246.285375c33.979712-20.329849 85.561902 3.840495 86.370265 45.100425 6.269299 39.849476-33.072241 60.990165-54.611846 87.589312-38.030196 46.017188-80.40325 88.187067-123.18513 129.858921-27.812001 28.114285-87.078898 14.556716-94.9674-25.788927-13.451026-38.937049 19.621215-70.393185 44.802477-94.872627 48.851102-45.714904 91.32822-97.998913 141.591634-141.887104M1276.975937 1244.760946c18.812233-6.46504 42.679054-6.972977 58.555167 6.579016 58.86488 55.928764 121.46496 107.912348 176.78668 167.581878 17.0902 17.295237 18.60782 46.32195 7.28455 67.152921-15.98142 37.420053-70.80139 38.330003-97.39992 11.831823-53.6988-50.670382-105.27913-103.861863-159.287646-154.333407-32.662794-25.385055-24.981803-84.144016 14.061169-98.812231M823.785704 1387.770466c28.012079-15.171196 60.883623-.805265 81.010297 20.528687 50.767633 50.36562 101.536505 100.730621 154.231819 149.078123 34.688346 32.968175 11.224158 99.823396-37.624467 100.324271-39.43941 4.65302-59.973672-34.48511-86.470613-55.923188-46.017188-38.131784-88.695004-80.105922-129.957411-123.291674-24.881455-26.599767-14.767324-76.048004 18.810375-90.716219M733.742811 394.104207c0 31.93806-25.888037 57.82424-57.822995 57.82424-31.934959 0-57.822995-25.88618-57.822995-57.82424 0-31.93186 25.888036-57.82423 57.822995-57.82423 31.934958 0 57.822995 25.89237 57.822995 57.82423M902.284193 547.903667c0 31.93805-25.888037 57.82423-57.822376 57.82423-31.934959 0-57.820517-25.88618-57.820517-57.82423 0-31.93186 25.885558-57.82424 57.820517-57.82424 31.934339 0 57.822376 25.89238 57.822376 57.82424M450.820325 689.190538c0 31.938056-25.888037 57.824234-57.824978 57.824234-31.932356 0-57.820393-25.886178-57.820393-57.824234 0-31.931861 25.888037-57.818041 57.820393-57.818041 31.936941 0 57.824978 25.88618 57.824978 57.818041M1368.720414 389.520397c0 31.93186-25.88617 57.81804-57.818036 57.81804-31.938055 0-57.824234-25.88618-57.824234-57.81804 0-31.93806 25.886179-57.82424 57.824234-57.82424 31.931866 0 57.818036 25.88618 57.818036 57.82424M1668.173764 674.683376c0 31.931861-25.88618 57.824234-57.81804 57.824234-31.93187 0-57.82424-25.892373-57.82424-57.824234 0-31.931859 25.89237-57.824229 57.82424-57.824229 31.93186 0 57.81804 25.89237 57.81804 57.824229M1510.143564 840.834359c0 31.931861-25.89237 57.81804-57.82423 57.81804s-57.81804-25.886179-57.81804-57.81804c0-31.931861 25.88618-57.818039 57.81804-57.818039 31.93186 0 57.82423 25.886178 57.82423 57.818039M1667.907404 1307.832412c0 31.931861-25.88618 57.818039-57.82424 57.818039-31.93186 0-57.81804-25.886178-57.81804-57.818039 0-31.937437 25.88618-57.825473 57.81804-57.825473 31.93806 0 57.82424 25.888036 57.82424 57.825473M1216.958904 1448.828769c0 31.936817-25.892372 57.822376-57.824234 57.822376-31.931861 0-57.824234-25.885559-57.824234-57.822376 0-31.932481 25.892373-57.825473 57.824234-57.825473 31.931862 0 57.824234 25.892992 57.824234 57.825473M1383.314304 1606.999822c0 31.939604-25.89238 57.825225-57.824237 57.825225-31.938056 0-57.824234-25.88562-57.824234-57.825225 0-31.929631 25.886178-57.817668 57.824234-57.817668 31.931857 0 57.824237 25.888037 57.824237 57.817668M750.084738 1606.999822c0 31.932357-25.888036 57.817966-57.819897 57.817966-31.937437 0-57.825473-25.88561-57.825473-57.817966 0-31.937065 25.888036-57.822623 57.825473-57.822623 31.931861 0 57.819897 25.885558 57.819897 57.822623M609.05679 1154.108529c0 31.930003-25.888037 57.818039-57.819898 57.818039-31.937436 0-57.825473-25.888036-57.825473-57.818039 0-31.939914 25.888037-57.825473 57.825473-57.825473 31.931861 0 57.819898 25.885559 57.819898 57.825473M450.820325 1322.166132c0 31.932481-25.888037 57.818039-57.824978 57.818039-31.932356 0-57.820393-25.885558-57.820393-57.818039 0-31.936817 25.888037-57.824854 57.820393-57.824854 31.936941 0 57.824978 25.888037 57.824978 57.824854"/>
    </g>
  </g>
</svg>
