<svg viewBox="0 0 1998 1998" xmlns="http://www.w3.org/2000/svg">
  <defs>
    <linearGradient x1="-2.469821%" y1="-2.469821%" x2="102.468189%" y2="-2.469821%" id="a">
      <stop stop-color="#FFF" offset="0%"/>
      <stop stop-color="#333" offset="34%"/>
      <stop stop-color="#FFF" offset="71%"/>
      <stop stop-color="#333" offset="100%"/>
    </linearGradient>
  </defs>
  <g fill-rule="nonzero" fill="none">
    <circle fill="#FBB466" cx="998.881988" cy="998.881988" r="951.863354"/>
    <g fill="#F89D4C">
      <path d="M314.720497 622.981367l324.503105 346.149068-189.440994 611.118012 303.012423 329.90683s903.198755 221.77019 1178.881985-730.031053l-32.32919-400.279503-270.40373-254.192547-1314.2236 97.329193zM1154.627329 337.391305l122.763975 112.546583h-151.428571l28.664596-112.546583M1387.173916 348.198758l122.79503 112.546584h-151.45963l28.6646-112.546584"/>
    </g>
    <path d="M998.881988 1997.74845c-551.658713 0-998.86646-447.20775-998.86646-998.866462 0-551.658713 447.207747-998.86646 998.86646-998.86646 551.658712 0 998.866462 447.207747 998.866462 998.86646 0 551.658712-447.20775 998.866462-998.866462 998.866462zm0-94.00621c499.740512 0 904.860252-405.11974 904.860252-904.860252 0-499.740516-405.11974-904.860249-904.860252-904.860249-499.740516 0-904.860249 405.119733-904.860249 904.860249 0 499.740512 405.119733 904.860252 904.860249 904.860252z" fill="url(#a)"/>
    <path d="M458.043478 430.993789L312.080745 625.68323H1439.7205v202.826087c-5.3013 40.445186-35.7299 73.045479-75.71429 81.118012H833.913043l37.857143-183.881987h-248.78882L449.937888 1580.24845h243.354037l97.360249-481.36646h135.217391l-11.552795 43.97515c-3.695841 14.05532-.666145 29.02992 8.202774 40.5431 8.86892 11.51318 22.574687 18.26371 37.107785 18.27678h12.919255c20.469326.00814 38.575626-13.26982 44.720496-32.79503l22.1118-69.96895h113.57143l-11.11801 42.23603c-3.7993 14.45608-.68594 29.85673 8.43035 41.70182 9.11628 11.84509 23.20652 18.79766 38.1535 18.82613h4.78261c21.05966.01191 39.69203-13.64176 46.02484-33.72671l21.73913-69.03727h159.56522c29.46007.09488 58.79996-3.75931 87.23603-11.45962 60.62111-16.58385 150.71428-55.65218 175.09316-143.602488a159.844698 159.844698 0 0 0 5.34162-42.763975V654.347826c.34092-66.131144-32.9856-127.892851-88.44721-163.913043-35.59006-22.795031-85.37267-40.962733-154.90683-45.931677h-53.88199l12.42236-49.968945c3.50231-13.988907.36015-28.811273-8.51679-40.175939-8.87693-11.364665-22.49733-18.002481-36.91799-17.991762h-19.28571c-20.4277-.013724-38.50433 13.223194-44.65839 32.701863l-22.1118 70.031056h-108.07453l12.42236-49.968944c3.49928-13.986702.36114-28.80561-8.50731-40.173251-8.86846-11.36764-22.47863-18.0168-36.89642-18.025507h-12.1118c-21.26849.004082-39.86366 14.339447-45.27951 34.906832l-17.85714 67.857143-597.546582-2.701863z" fill="#000"/>
  </g>
</svg>
