<svg viewBox="0 0 32 32" xmlns="http://www.w3.org/2000/svg">
  <g fill="none" fill-rule="evenodd">
    <circle cx="16" cy="16" fill="#00bfff" r="16"/>
    <path d="M8.409749 20.902439h-.097487V25H6V11.125h2.260472v.640244h.088348c.789032-.756098 1.794364-.77744 2.357958-.77744 2.364052 0 3.9147 2.25305 3.9147 5.262196v.390244c0 3.131098-1.794364 4.996951-3.954304 4.996951-1.011424.003049-1.760853-.228658-2.257425-.734756zm4.063975-4.07622v-.682926c0-1.960366-.746382-3.271342-2.077684-3.271342-1.437929 0-2.208683 1.52439-2.208683 3.271342v.679878c0 1.664634.758568 2.939024 2.248287 2.939024 1.172886-.003049 2.03808-.917683 2.03808-2.935975zM15.739528 7h2.315308v14.57622h-2.315308zm8.92917 6.408537c-1.297792 0-2.586444 1.030487-2.586444 2.332317v5.844512h-2.303122V11.22256h2.13252v.637195H22c.517898-.545732 1.785225-.80183 2.827113-.786585.10358 0 .01828.003048.118812.003048l.012186 2.332318zm-.97182 5.685975H26v2.481707h-2.303123z" fill="#fff" fill-rule="nonzero"/>
  </g>
</svg>
