<svg viewBox="0 0 1952 1881" xmlns="http://www.w3.org/2000/svg">
  <g fill="none" fill-rule="evenodd">
    <path d="M1190.0487 315.489872L952.57429 552.744186v377.149285l237.47441-238.199548zM871.208561 634.034508L649.818084 855.219806v376.204054l221.390477-221.1853zM569.398463 935.56489l-203.41433 203.22581v376.20405l203.41433-203.22581zM1590.25456 364.642161c.94612.945236.94612 1.890472 1.89223 2.835709l170.30037-170.142536c-.94611-.945237-1.89222-2.835709-3.78446-3.780946-59.60513-59.549887-139.07863-92.633158-224.22882-92.633158-84.20407 0-163.67757 33.083271-224.22881 92.633158l-40.68287 40.645162v376.204051l245.98943-245.76144c21.7606-19.849963 54.87456-19.849963 74.74293 0z"/>
    <path d="M1590.25456 438.370593l-244.09719 243.870968h371.82247l41.62898-41.590398c59.60513-59.549888 92.71909-138.949738 92.71909-224.021006 0-83.180794-32.16785-160.690172-88.93464-220.24006L1593.0929 366.532633c17.03004 20.795199 17.03004 51.987997-2.83834 71.83796zM645.087516 1382.66166L444.511525 1583.997H816.334l200.57599-201.33534zM725.507135 1302.31658h371.822475l221.39047-221.1853H946.897613zM1637.56022 763.531884h-371.82247l-237.4744 236.309076h371.82247z" fill="#E1DED9" fill-rule="nonzero"/>
    <path d="M1830.56731 122.661665C1752.03992 44.207052 1647.02135.726182 1536.32612.726182c-111.64136 0-215.71381 43.48087-294.2412 121.935483L280.833948 1083.02175c-9.461131 9.45237-15.13781 23.63091-14.191697 37.80946v494.35859L.784453 1880.8012h146.64754l196.791537-196.60915h491.978844c14.191697 0 27.437284-5.67142 36.898413-16.06902l956.520403-955.633907.94612-.945239c77.58128-78.454612 121.10248-182.430606 121.10248-293.023254 0-112.48312-42.57509-216.459115-121.10248-295.858965zM1271.41443 234.19955l40.68287-40.645162c59.60513-59.549887 139.07863-92.633158 224.22882-92.633158 84.20407 0 163.67757 33.083271 224.22882 92.633158.94611.945237 1.89222 2.835709 3.78445 3.780946 57.7129 59.549887 88.93463 137.059265 88.93463 220.24006 0 84.126031-33.11396 163.525881-92.71908 224.021006l-41.62899 41.590394h-371.82247l244.0972-243.870965c19.86837-19.849963 19.86837-50.097524 1.89222-70.892723-.94611-.945236-.94611-1.890473-1.89222-2.835709-19.86838-19.849963-52.98234-19.849963-72.85072 0l-245.98942 245.76144V234.19955h-.94611zM444.511525 1583.997l200.575991-200.3901h371.822474L816.334 1583.997H444.511525zm583.751825-584.15604l237.4744-237.254315h371.82247l-237.4744 237.254315h-371.82247zm290.45673 81.29032l-221.39047 221.1853H725.507135l221.390478-221.1853h371.822467zM952.57429 552.744186l238.42052-238.19955V690.74869L952.57429 929.893471V552.744186zm-302.756206 302.47562l221.390477-221.185298v376.204052l-221.390477 221.1853V855.219806zM365.984133 1138.7907l203.41433-202.280571v376.204051l-203.41433 202.28057V1138.7907z" fill="#393534" fill-rule="nonzero"/>
  </g>
</svg>
