<?xml version="1.0" encoding="UTF-8"?>
<svg width="2000px" height="1237px" viewBox="0 0 2000 1237" version="1.1" xmlns="http://www.w3.org/2000/svg" xmlns:xlink="http://www.w3.org/1999/xlink">
    <!-- Generator: Sketch 49.3 (51167) - http://www.bohemiancoding.com/sketch -->
    <title>poly</title>
    <desc>Created with Sketch.</desc>
    <defs></defs>
    <g id="Page-1" stroke="none" stroke-width="1" fill="none" fill-rule="evenodd">
        <g id="poly" transform="translate(0.000000, -1.000000)" fill-rule="nonzero">
            <polygon id="Shape" fill="#313A62" points="2000 127.191011 1995.95506 59.7752809 1976.17978 115.955056 1864.7191 213.483146 1737.07865 233.258427 1698.8764 196.404494 1810.33708 41.7977528 1925.39326 7.64044944 1801.34831 10.3370787 1621.1236 141.123596 1452.13483 128.988764 1621.57303 244.94382 1705.16854 303.820225 1450.78652 124.94382 1214.38202 7.64044944 1214.38202 7.64044944 1074.1573 35.505618 636.853933 399.550562 426.516854 467.41573 339.775281 555.955056 184.269663 557.752809 107.865169 700.674157 0 731.685393 102.022472 746.067416 196.853933 617.977528 342.921348 648.539326 340.674157 785.168539 267.41573 982.47191 225.617978 1164.94382 180.674157 1237.75281 294.831461 1212.58427 281.797753 1137.97753 378.426966 937.52809 565.842697 862.47191 638.202247 742.47191 760.449438 653.033708 1002.69663 688.988764 1247.64045 581.573034 1205.8427 751.011236 1097.07865 760.898876 1066.06742 900.674157 1159.55056 838.202247 1313.25843 771.235955 1434.1573 582.47191 1441.34831 492.58427 1506.51685 560 1694.83146 677.752809 1801.34831 627.41573 1795.05618 377.078652 1764.49438 280.449438 1904.26966 245.393258"></polygon>
            <g id="Group">
                <g id="Shape">
                    <polygon fill="#3F4B80" points="1700.22472 198.651685 1617.97753 138.876404 1810.33708 41.7977528"></polygon>
                    <polygon fill="#313A62" points="1211.23596 1.79775281 1450.78652 124.94382 1479.55056 323.595506"></polygon>
                    <polygon fill="#3F4B80" points="1479.55056 323.595506 1441.34831 492.58427 1211.23596 1.79775281"></polygon>
                    <polygon fill="#4B5897" points="1441.34831 492.58427 1074.60674 29.6629213 1211.68539 2.69662921"></polygon>
                    <polygon fill="#5161A4" points="1441.34831 492.58427 1043.59551 337.078652 1074.60674 29.6629213"></polygon>
                    <polygon fill="#4B5897" points="1074.60674 29.6629213 1043.59551 337.078652 633.707865 394.606742"></polygon>
                    <polygon fill="#4B5897" points="1441.34831 492.58427 1002.69663 611.685393 1043.59551 337.078652"></polygon>
                    <polygon fill="#3F4B80" points="1002.69663 611.685393 1441.34831 492.58427 1243.59551 584.719101"></polygon>
                    <polygon fill="#3F4B80" points="760.449438 653.033708 1002.69663 611.685393 1006.74157 694.382022"></polygon>
                    <polygon fill="#313A62" points="1006.74157 694.382022 1002.69663 611.685393 1243.59551 584.719101"></polygon>
                    <polygon fill="#3F4B80" points="633.707865 394.606742 1043.59551 337.078652 1002.69663 611.685393"></polygon>
                    <polygon fill="#4B5897" points="633.707865 394.606742 1002.69663 611.685393 760.449438 653.033708"></polygon>
                    <polygon fill="#313A62" points="633.707865 394.606742 760.449438 653.033708 638.202247 742.47191"></polygon>
                    <polygon fill="#5161A4" points="425.617978 464.269663 474.606742 758.651685 339.775281 555.955056"></polygon>
                    <polygon fill="#313A62" points="184.269663 557.752809 339.775281 555.955056 340.674157 650.786517"></polygon>
                    <polygon fill="#3F4B80" points="196.853933 622.022472 184.269663 557.752809 340.674157 650.786517"></polygon>
                    <polygon fill="#4B5897" points="196.853933 622.022472 107.865169 700.674157 184.269663 557.752809"></polygon>
                    <polygon fill="#313A62" points="107.865169 700.674157 101.573034 748.314607 0 731.685393"></polygon>
                    <polygon fill="#5161A4" points="107.865169 700.674157 196.853933 622.022472 101.573034 748.314607"></polygon>
                    <polygon fill="#3F4B80" points="339.775281 555.955056 474.606742 758.651685 340.674157 785.168539"></polygon>
                    <polygon fill="#3F4B80" points="379.325843 936.179775 281.797753 1137.97753 267.41573 982.47191"></polygon>
                    <polygon fill="#1F243E" points="267.41573 982.47191 281.797753 1137.97753 225.617978 1164.94382"></polygon>
                    <polygon fill="#3F4B80" points="281.797753 1137.97753 296.629213 1213.93258 180.674157 1237.75281"></polygon>
                    <polygon fill="#313A62" points="225.617978 1164.94382 281.797753 1137.97753 180.674157 1237.75281"></polygon>
                    <polygon fill="#313A62" points="340.674157 785.168539 474.606742 758.651685 267.41573 982.47191"></polygon>
                    <polygon fill="#4B5897" points="474.606742 758.651685 565.842697 862.47191 267.41573 982.47191"></polygon>
                    <polygon fill="#4B5897" points="425.617978 464.269663 633.707865 394.606742 474.606742 758.651685"></polygon>
                    <polygon fill="#3F4B80" points="474.606742 758.651685 633.707865 394.606742 638.202247 742.47191"></polygon>
                    <polygon fill="#313A62" points="565.842697 862.47191 474.606742 758.651685 638.202247 742.47191"></polygon>
                    <polygon fill="#4B5897" points="1243.59551 584.719101 1436.40449 583.370787 1313.25843 771.235955"></polygon>
                    <polygon fill="#5161A4" points="1243.59551 584.719101 1441.34831 492.58427 1436.40449 583.370787"></polygon>
                    <polygon fill="#3F4B80" points="1205.8427 751.011236 1243.59551 584.719101 1313.25843 771.235955"></polygon>
                    <polygon fill="#4B5897" points="1159.55056 838.202247 1205.8427 751.011236 1313.25843 771.235955"></polygon>
                    <polygon fill="#3F4B80" points="1066.06742 900.674157 1095.2809 757.752809 1205.8427 751.011236"></polygon>
                    <polygon fill="#313A62" points="1066.06742 900.674157 1205.8427 751.011236 1159.55056 838.202247"></polygon>
                    <polygon fill="#495692" points="1617.97753 138.876404 1801.34831 10.3370787 1810.33708 41.7977528"></polygon>
                    <polygon fill="#5D6CAC" points="1801.34831 10.3370787 1951.46067 2.69662921 1810.33708 41.7977528"></polygon>
                    <polygon fill="#4F60A3" points="1705.16854 303.820225 1621.57303 244.94382 1904.26966 245.393258"></polygon>
                    <polygon fill="#495692" points="1621.57303 244.94382 1864.7191 213.483146 1904.26966 245.393258"></polygon>
                    <polygon fill="#3F4B80" points="1864.7191 213.483146 1976.17978 115.955056 1904.26966 245.393258"></polygon>
                    <polygon fill="#4F60A3" points="1904.26966 245.393258 1976.17978 115.955056 2000 127.191011"></polygon>
                    <polygon fill="#313A62" points="1976.17978 115.955056 1995.95506 59.7752809 2000 127.191011"></polygon>
                </g>
                <polygon id="Shape" fill="#313A62" points="1479.55056 323.595506 1506.51685 560 1441.34831 492.58427"></polygon>
                <polygon id="Shape" fill="#3F4B80" points="1506.51685 560 1479.55056 323.595506 1705.16854 303.820225"></polygon>
                <polygon id="Shape" fill="#4B5897" points="1705.16854 303.820225 1479.55056 323.595506 1450.78652 124.94382"></polygon>
                <polygon id="Shape" fill="#313A62" points="1700.22472 198.651685 1736.62921 231.460674 1621.57303 244.94382"></polygon>
                <polygon id="Shape" fill="#3F4B80" points="1450.78652 124.94382 1700.22472 198.651685 1621.57303 244.94382"></polygon>
                <polygon id="Shape" fill="#313A62" points="1450.78652 124.94382 1617.97753 138.876404 1700.22472 198.651685"></polygon>
                <polygon id="Shape" fill="#3F4B80" points="1694.83146 677.752809 1705.16854 303.820225 1795.05618 377.078652"></polygon>
                <polygon id="Shape" fill="#495692" points="1694.83146 677.752809 1705.16854 303.820225 1506.51685 560"></polygon>
                <polygon id="Shape" fill="#313A62" points="1795.05618 377.078652 1766.29213 283.595506 1705.16854 303.820225"></polygon>
                <polygon id="Shape" fill="#313A62" points="1807.19101 626.067416 1694.83146 677.752809 1795.05618 377.078652"></polygon>
            </g>
        </g>
    </g>
</svg>