<svg viewBox="0 0 2060 1899" xmlns="http://www.w3.org/2000/svg">
  <g fill="#E8E5CF" fill-rule="evenodd">
    <path d="M338.14838 1006.564914l602.794554 470.954721-620.194199-159.159528zM346.041475 996.462213l602.794555 470.95472-304.470366-563.267606zM17.492949 750.61828l311.567733 243.42339-17.439093 317.187529zM22.755013 743.883144l311.567733 243.423392L637.86955 893.65085z"/>
    <g>
      <path d="M339.383958 1717.219831l627.198915-133.315245-436.363301 312.484602zM337.149624 1706.708117l627.198915-133.315245-525.73665-107.983944zM2.264342 1785.214606l324.18167-68.906942 194.276897 182.100102zM.774786 1778.206796l324.18167-68.90694L428.370449 1463.9236z"/>
    </g>
    <g>
      <path d="M1021.930555 500v928.48643L707.42735 716.354501zM1023.541466 0v480.807364L707.42735 701.566256z"/>
    </g>
    <g>
      <path d="M1722.005467 1006.564914l-602.794555 470.954721 620.194199-159.159528zM1714.112371 996.462213l-602.794555 470.95472 304.470366-563.267606zM2042.660897 750.61828l-311.567733 243.42339 17.439093 317.187529zM2037.398833 743.883144L1725.8311 987.306536l-303.546805-93.655686z"/>
      <g>
        <path d="M1720.769888 1717.219831l-627.198915-133.315245 436.363301 312.484602zM1723.004222 1706.708117l-627.198915-133.315245 525.73665-107.983944zM2057.889504 1785.214606l-324.18167-68.906942-194.276897 182.100102zM2059.37906 1778.206796l-324.18167-68.90694-103.413993-245.376255z"/>
      </g>
      <g>
        <path d="M1038.223291 500v928.48643l314.503205-712.131929zM1036.61238 0v480.807364l316.114116 220.758892z"/>
      </g>
    </g>
  </g>
</svg>
