<svg viewBox="0 0 1999 1997" xmlns="http://www.w3.org/2000/svg">
  <path d="M1997.45858 1092.43223c.20932-.38103.20932-.84262 0-1.22365l-232.02183-232.021833v-656.25h-.98833v-.988328h-498.11747v.517695h-.47063v159.544428L904.555723.564759 1.317771 903.567395l-.376506.611822c-.349026.115554-.591753.432966-.611822.800075V1996.04669H1760.49511v-664.25076L1998.54104 1093.75M362.716491 1873.68223h-240.02259V955.28991L904.36747 173.569277l340.22026 340.220256a896.31967 896.31967 0 0 1 21.27259 150.60241v35.673946h1.03539c1.4119 432.981931-408.085469 734.798571-772.402111 693.288781-44.239457-5.03577-82.360692-14.40136-131.777108-27.76732v508.09488m1275.696539-592.99699c-.24336.23345-.37959.55699-.37651.8942v592.10279H484.986822v-344.87952c14.401356.80008 29.179217 1.17658 44.710091 1.17658 474.350527 0 858.904367-359.23381 858.904367-802.428462 0-9.177334 0-18.260542-.5177-27.34375V324.171687h254.6122v584.713855c-.378.466413-.378 1.133738 0 1.600151l182.8878 182.887797" fill="#2CACE2" fill-rule="nonzero"/>
</svg>
