<svg viewBox="0 0 1994 1993" xmlns="http://www.w3.org/2000/svg">
  <defs>
    <linearGradient x1="21.01611%" y1="61.132119%" x2="114.380589%" y2="25.311825%" id="a">
      <stop stop-color="#884096" offset="0%"/>
      <stop stop-color="#4C2F7F" offset="100%"/>
    </linearGradient>
  </defs>
  <path d="M171.336406 987.465438C168.801843 1210 287.281106 1773.73272 1010.46083 1825.20737c22.34914 1.30411 43.25733 11.46025 58.09831 28.22121 14.84098 16.76097 22.39119 38.74492 20.98003 61.08755-3.17996 44.33655-40.53561 78.41041-84.97696 77.51152-253.456219-4.6083-981.152072-147.97235-999.999998-1004.147466-.424583-22.84146 8.590119-44.846831 24.917759-60.825589 16.32764-15.978759 38.522558-24.516136 61.349522-23.598374 45.204861 1.475342 80.956724 38.782524 80.506913 84.009217m826.036866-820.691244c222.534558-1.290323 785.576038 120.32258 833.041478 843.778806 1.12929 22.38344 11.14602 43.39031 27.82702 58.35822 16.681 14.96791 38.64633 22.65864 61.0209 21.36528 44.39294-2.86791 78.74325-40.03515 78.1106-84.51613C1994.10138 752.304147 1854.83871 23.778802 998.75576.046083c-22.82924-.546174-44.873865 8.343314-60.938132 24.573282s-24.727072 38.364653-23.94666 61.187087c1.250314 45.177156 38.308073 81.110094 83.502304 80.967742m0 316.451612c222.534558-1.290322 497.050688 130.184332 522.442398 515.576037 1.12931 22.395657 11.1509 43.414237 27.84054 58.390787 16.68964 14.97654 38.66668 22.67214 61.05347 21.3788 44.34545-2.96164 78.61045-40.12255 77.97235-84.562213-3.27189-253.456222-157.09678-673.640553-688.018436-677.419355-22.76227-.319946-44.673671 8.641719-60.687813 24.821045-16.014142 16.179326-24.750487 38.181534-24.196979 60.939323 1.300177 45.17688 38.399301 81.069362 83.59447 80.875576M408.801843 901.889401c-22.756115-.652602-44.796995 7.988627-61.046039 23.933382-16.249045 15.944756-25.305344 37.818362-25.082993 60.582747 1.889401 530.92166 421.24424 686.4977 674.700461 690.78341 44.380658.82726 81.660698-33.19432 84.884788-77.46544 1.37154-22.37705-6.23826-44.37703-21.14287-61.12416-14.9046-16.74714-35.873-26.85824-58.25805-28.09243-385.345619-26.95852-515.6682-302.02765-513.456218-524.516127.474399-45.287317-35.332533-82.650182-80.599079-84.101382m600.691247 287.004609c-208.479265-15.48387-204.101385-175.6682-201.244242-206.912443.414746-4.239632.599078-8.479263.78341-12.764977 3.502304-86.728111 67.834101-130.599078 116.267281-151.428572 37.350101-16.299813 78.706891-21.112473 118.801841-13.824884 113.27189 21.382488 146.45162 124.70046 155.39171 196.221196 5.52367 42.95698 42.89465 74.6124 86.17511 72.99539 22.51784-.75774 43.77891-10.56308 58.97429-27.19821 15.19539-16.63513 23.04127-38.69459 21.76304-61.188883-17.09677-289.078341-258.43318-342.119816-258.43318-342.119816-208.202765-50.368664-327.880184 35.898618-392.119815 118.75576-48.663595 62.672811-73.133641 140.368664-73.732719 219.723503-1.843318 277.373276 210.645161 360.783406 342.442396 377.880186 55.023038 7.18894 104.377878-33.22581 102.580648-88.6636-1.28172-43.00163-34.75939-78.12834-77.64977-81.47465m335.62212 146.91244c33.59442-33.61352 33.59442-88.09155 0-121.70507l-114.97696-114.97696c-33.62933-33.5997-88.12182-33.5997-121.75115 0-33.59442 33.61352-33.59442 88.09155 0 121.70507l115.20737 115.20738c33.66611 33.38288 87.98147 33.27989 121.52074-.23042" transform="translate(-4)" fill="url(#a)" fill-rule="nonzero"/>
</svg>
