<svg viewBox="0 0 1985 1541" xmlns="http://www.w3.org/2000/svg">
  <g fill="#A50B5E" fill-rule="nonzero">
    <path d="M1947.86542 1319.66425c-20.28686 0-36.75155 16.46518-36.75155 36.75262v110.25788h-476.64306l-.93104-69.68298c205.02462-143.77627 327.13777-377.66997 327.13777-628.616894C1760.67754 344.739621 1415.94804 0 992.3252 0 568.702376 0 223.972869 344.739621 223.972869 768.374876c0 249.770834 121.966132 484.644614 326.206727 628.420884.343015.19601.539023.19601.93104.39203l-.93104 69.48696H73.536538v-110.25788c0-20.28744-16.464693-36.75262-36.751547-36.75262-20.286853 0-36.751546 16.46518-36.751546 36.75262V1540.18h622.669204l2.107088-159.45739c.196008-15.68112-9.555402-28.91206-23.177975-34.44946-2.450104-3.62626-5.341225-7.10551-9.163386-9.7517-184.737775-130.00628-294.992414-342.289443-294.992414-568.342588 0-383.207368 311.653115-694.869626 694.849238-694.869626 383.19613 0 694.84924 311.662258 694.84924 694.869626 0 231.247515-114.27281 446.372878-305.87087 575.791128-3.67515 2.30316-6.32126 5.53739-8.82037 8.82063-7.84033 6.86049-13.03455 16.61218-12.83853 27.73598l2.10708 159.45739 622.86521.19601v-183.76313c0-20.28744-16.46469-36.75262-36.75154-36.75262z"/>
    <path d="M1456.866836 821.534377c-14.79058-18.362309-31.243017-36.724617-48.988018-55.013181 17.745001-18.288565 34.123578-36.724618 48.988018-55.013182 81.85597-101.324546 107.24554-191.07125 71.55242-252.77672-27.12529-46.88288-85.9183-71.660936-169.934691-71.660936-46.827598 0-100.265718 7.780014-157.470725 22.178571-45.294993-157.277965-120.226536-258.399714-206.569537-258.399714-86.416862 0-161.293011 101.121749-206.588003 258.399714-57.260403-14.398557-110.643127-22.178571-157.526121-22.178571-84.10872 0-142.809404 24.778056-169.934697 71.660936-35.711583 61.70547-10.248153 151.507483 71.552423 252.77672 14.864439 18.362309 31.298414 36.798361 49.117276 55.234414-113.745271 117.732633-163.87813 232.957962-120.74356 307.642412 27.125293 46.882882 85.825978 71.660937 169.934697 71.660937 46.809133 0 100.265718-7.780015 157.526122-22.178572 45.239596 157.277964 120.17114 258.381284 206.514141 258.381284 86.416862 0 161.274545-101.10332 206.569537-258.381284 57.278869 14.398557 110.735453 22.178572 157.544587 22.178572 84.016391 0 142.809401-24.778055 169.934701-71.660937 35.76697-61.705468 10.3774-151.525918-71.47857-252.850463zm-98.382271-388.668863c46.513691 0 106.894701 8.425276 130.179251 48.763359 25.18645 43.490648.51702 116.81083-67.508561 201.063591-13.922717 17.219273-29.285714 34.42011-45.941271 51.713127-39.884706-37.517367-85.40128-74.315729-135.109441-109.473281-5.687263-61.355183-15.067555-118.967848-27.54999-171.455291 53.161141-13.403009 102.721581-20.611505 145.930012-20.611505zm-260.967843 511.969183c-34.271303 19.726577-68.819582 37.812344-103.072419 54.146687-34.345163-16.408087-68.819582-34.42011-103.146281-54.220431-34.345163-19.80032-67.379301-40.614624-98.751576-62.074189-2.806702-37.093339-4.320843-75.827485-4.320843-116.239312 0-40.467136 1.588002-79.293463 4.320843-116.368366 30.799855-20.961792 63.686272-41.702351 98.751576-61.945137 34.326699-19.80032 68.801118-37.812344 103.146281-54.146687 34.326697 16.334343 68.801116 34.420111 103.146279 54.146687 34.326698 19.80032 67.360836 40.614624 98.806972 62.07419 2.825167 37.093338 4.339308 75.845921 4.339308 116.239313 0 40.411827-1.514141 79.145973-4.339308 116.239312-31.519997 21.607053-64.554135 42.347613-98.880832 62.147933zm93.119708-3.244745c-5.410287 45.223638-12.777879 87.350017-21.788868 125.955113-38.869122-11.799074-79.270851-26.492609-120.374256-44.062167 24.078544-12.259975 48.101693-25.146776 71.977122-38.973815 24.023148-13.82704 47.455413-28.151853 70.186002-42.919131zm-250.221132 81.948254c-41.121869 17.51425-81.505133 32.263092-120.392722 44.080603-9.010989-38.605095-16.360115-80.731475-21.770402-125.955113 22.712124 14.693534 46.088993 29.092091 70.112143 42.919131 23.875427 13.753295 47.953971 26.71384 72.050981 38.955379zM744.444753 848.266653c-35.637723-26.732276-68.671861-54.238867-98.382274-82.114179 28.990272-27.064125 61.802828-54.515408 98.382274-81.800765-1.440281 26.787584-2.234282 54.146687-2.234282 82.095743.055395 27.87531.849396 55.086925 2.234282 81.819201zm53.73356-256.814214c5.410287-45.223637 12.759413-87.350018 21.788868-125.955112 38.869123 11.743765 79.252387 26.492607 120.374256 44.006857-24.097009 12.241539-48.101693 25.202084-72.050981 38.95538-24.17087 13.974528-47.547739 28.373085-70.112143 42.992875zm250.294993-81.948255c41.103405-17.51425 81.505134-32.263092 120.374256-44.080601 8.937129 38.605094 16.378581 80.731475 21.788868 125.955111-22.730589-14.693534-46.088993-29.092091-70.112143-42.91913-23.949288-13.753296-48.046297-26.713841-72.050981-38.95538zm195.970545 175.271553c35.490003 26.658532 68.37642 54.017635 98.012972 81.745459-29.636552 27.727822-62.522969 55.160669-98.012972 81.745457 1.366421-26.732276 2.160422-53.943891 2.160422-81.745457 0-27.801568-.794001-55.013182-2.160422-81.745459zM994.444303 196.73655c60.085569 0 122.756259 83.46001 163.010268 224.532686-52.441002 15.781261-107.411728 36.743053-163.010268 62.221678-55.617006-25.478625-110.587732-46.440417-163.010269-62.221678C871.669576 280.19656 934.284872 196.73655 994.444303 196.73655zM500.132466 481.628873c23.303009-40.264339 83.665556-48.763359 130.197713-48.763359 43.208431 0 92.750405 7.208496 145.911547 20.611505-12.463971 52.413699-21.770402 110.026364-27.549991 171.455291-50.409836 35.655326-95.704828 72.527432-135.017114 109.547026-16.747884-17.293018-32.110881-34.567599-46.033598-51.786872-68.007115-84.252761-92.602684-157.572943-67.508557-201.063591zm130.197713 618.548005c-46.532157 0-106.894704-8.425276-130.197713-48.689616-30.005854-51.989669 11.042155-147.783398 113.172852-253.127003 40.032426 37.59111 85.622861 74.592269 135.460278 109.823565 5.705728 61.355184 15.067555 118.967849 27.54999 171.455291-53.235002 13.255521-102.776976 20.537763-145.985407 20.537763zm364.114124 236.128961c-60.085571 0-122.774727-83.46001-163.010269-224.477377 52.422537-15.762825 107.393263-36.724616 163.010269-62.221677 55.59854 25.497061 110.569266 46.458852 163.010268 62.16637-40.32787 141.072674-102.924699 224.532684-163.010268 224.532684zm494.219513-284.892321c-23.28455 40.26434-83.66556 48.76336-130.179251 48.76336-43.208431 0-92.768871-7.208497-145.930012-20.611507 12.482435-52.487442 21.788866-110.100107 27.54999-171.455291 49.708161-35.157552 95.224735-72.029658 135.109441-109.473281 16.655557 17.219273 32.018554 34.493855 45.941271 51.713128 68.099441 84.252762 92.695011 157.572942 67.508561 201.063591z"/>
    <path d="M994.444303 592.318933c-96.221853 0-174.477122 78.131991-174.477122 174.202263 0 96.07027 78.255269 174.276006 174.477122 174.276006 96.221851 0 174.47712-78.131992 174.47712-174.276006 0-96.070272-78.255269-174.202263-174.47712-174.202263zm0 302.60937c-70.906144 0-128.609711-57.612666-128.609711-128.407107 0-70.794443 57.703567-128.407107 128.609711-128.407107 70.906143 0 128.609709 57.612664 128.609709 128.407107-.073861 70.794441-57.703566 128.407107-128.609709 128.407107z"/>
  </g>
</svg>
