<svg viewBox="0 0 2000 2000" xmlns="http://www.w3.org/2000/svg">
  <defs>
    <linearGradient x1="0%" y1="-14.318965%" x2="0%" y2="122.275862%" id="a">
      <stop stop-color="#337A8D" offset="0%"/>
      <stop stop-color="#0F3653" offset="100%"/>
    </linearGradient>
  </defs>
  <path d="M524.137931 1000c-.400067-194.170527 117.212601-369.108625 297.174521-442.019948 179.961918-72.911323 386.172368-29.169712 521.036488 110.522891 134.86412 139.692604 171.32789 347.313587 92.13382 524.600507l-313.7931-313.793105-241.379315 241.379315 313.793105 313.7931c-60.69768 27.3535-126.52706 41.4598-193.10345 41.37931-262.575331-.56896-475.293106-213.28674-475.862069-475.86207m1287.931039 0c.48722-156.783729-45.07581-310.259206-131.03449-441.37931L2000 239.655172 1760.34483 0l-318.96552 318.965517c-268.32452-174.693935-614.434101-174.693935-882.75862 0L239.655172 0 0 239.655172 318.965517 558.62069c-174.693935 268.324519-174.693935 614.4341 0 882.75862L0 1760.34483 239.655172 2000l318.965518-318.96552c268.324519 174.69394 614.4341 174.69394 882.75862 0L1760.34483 2000 2000 1760.34483l-318.96552-318.96552c85.95868-131.1201 131.52171-284.59558 131.03449-441.37931" fill="url(#a)" fill-rule="nonzero"/>
</svg>
