<svg viewBox="0 0 1891 1688" xmlns="http://www.w3.org/2000/svg">
  <path d="M1793.88214 1442.97c-12.77143 0-24.22 2.34286-34.08428 6.12857-10.9 4.2-20.61857 9.85714-28.66143 17.06429l-171.15-147.96857L1691.59214 911.11h4.67143c17.20572 0 32.72857-6.314286 46.38143-19.077143 13.14286-12.628571 19.77714-28.8 19.77714-48.41 0-18.561428-6.64285-34.457143-19.77714-47.731428-13.65714-12.628572-29.12857-19.075715-46.38143-19.075715h-4.67143l-115.24143-355.944285c9.02858-5.285715 16.55143-13.142858 22.48858-23.19 5.28571-9.028572 8.37142-19.964286 8.88571-32.728572 0-18.561428-6.64286-34.458571-19.77714-47.732857-13.27143-13.142857-29.17429-19.777143-47.73143-19.777143-8.18572.428572-16.03714 1.871429-23.19 4.214286-7.85714 2.8-14.49429 6.971428-19.77714 12.257143L1193.13214 93.665714c1.42857-3.742857 2.8-7.485714 4.21429-11.6.28571-3.742857.42857-8.514285.42857-13.657143 0-18.561428-6.64286-34.458571-19.77714-47.731428C1164.34071 7.534286 1148.86929.89857 1131.61643.89857c-16.36429 1-30.53 5.8-42.26572 14.307143-12.75714 9.542857-20.61857 21.975715-23.19 36.842857H697.260714c-3.271428-13.471428-11.085714-25.574285-23.191428-36.141428-12.3-9.914286-26.088572-15.008572-40.91-15.008572-19.075715 0-35.112857 6.642858-47.731429 19.778572-13.285714 13.271428-19.777143 29.174286-19.777143 47.731428 0 5.1.285715 9.728572 1.428572 13.657143 1 4.2 1.871428 8 3.271428 11.6l-304.12 220.248572c-6.485714-5.285715-12.785714-9.542857-19.094285-12.257143-7.842858-2.342857-15.855715-3.742857-23.868572-4.214286-19.094286 0-35.117143 6.642857-47.732857 19.777143-13.3 13.285714-19.771429 29.175714-19.771429 47.732857 0 12.757143 2.9 23.704286 8.857143 32.728572 5.285715 10.057142 12.957143 17.907142 22.502857 23.19h1.285715L73.171857 774.767143h-4.768571c-19.094715 0-35.117572 6.642857-47.732 19.777143C7.374143 807.83.898714 823.672857.898714 842.277143c0 19.075714 6.48 35.112857 19.772572 47.731428 12.614285 13.285715 28.637285 19.777143 47.732 19.777143H71.81757l116.601715 357.309996c-10.571429 5.98572-18.58 13.8-23.868572 23.19-5.971428 9.54286-8.857143 20.61858-8.857143 32.72858 0 19.07571 6.471429 35.11285 19.772858 47.73142 12.614285 13.28572 28.637142 19.77715 47.731428 19.77715 8.014286 0 16.022857-1.42857 23.868572-4.2 6.314285-2.34286 12.614285-5.8 19.094285-10.9l304.121429 218.88285c-1.428572 4.21429-2.342857 8.51429-3.271429 12.3-1 4.2-1.428571 8.88572-1.428571 12.94286 0 18.93572 6.5 34.92572 19.777143 47.73286 12.628571 13.14286 28.66 19.77714 47.731428 19.77714 14.821429 0 28.661429-4.95714 40.91-14.30714 12.114286-8.7 19.964286-20.94572 23.191429-36.84286h368.899997c2.34286 15.85 10.37143 28.14572 23.19 36.84286 11.78572 9.35714 25.90143 14.30714 42.26572 14.30714 17.20571 0 32.72857-6.64286 46.38143-19.77714 13.14285-12.75714 19.77714-28.80143 19.77714-47.73286 0-4.2-.28572-8.51428-.42857-12.94286-1.42857-3.74285-2.8-7.85714-4.21429-12.3l347.08-250.25L1709.92786 1490.66c-4.67143 6.82857-8 14.68143-10.24286 23.19-2.8 9.54286-3.74286 18.56143-3.27143 26.60286-.42857 26.93143 9.02857 49.43857 28.66 68.19285 18.56286 18.93572 41.61286 28.66 68.87 28.66 26.27714 0 49.09714-9.72857 68.18714-28.66 18.56286-18.74857 28.14715-41.23857 28.66143-68.19285-.42857-26.74286-10.05714-49.94286-28.66143-69.54715-19.07571-18.56142-41.93857-27.95857-68.18714-27.95857l-.06143.02286zm-242.06857-992.141429l108.42 336.85c-7.85714 4.671429-13.98571 10.385715-18.42143 17.065715-5.1 6.5-8.7 13.985714-10.9 22.488571h-55.91428c-2.8-11.728571-8-21.834286-15.71-30.015714-8.7-8-18.23429-14.494286-28.66-19.077143l21.18571-327.311429zm-31.37286-21.834285l-23.19 347.762857h-1.87142c-1.42858.428571-2.34286 1-2.8 1.428571L1354.15786 514.98c6.64285-4.957143 12.44285-12.3 17.06428-21.834286 3.74286-8.514285 5.61429-17.907143 6.12857-27.96 0-.285714-.28571-1.871428-.42857-4.771428-1-1.871429-1.42857-4.2-.42857-6.828572l111.83286-47.732857c3.74286 5.1 8.51428 9.728572 15.00857 13.657143 4.21429 5.1 9.87143 7.857143 16.36429 8.185714l.74142 1.298572zm-377.08142 349.127143c-1 .428571-2.34286.285714-4.77143-.428572-2.8-.285714-5.1-.428571-6.82857-.428571-3.27143 0-6.5.285714-9.54286.428571-3.27143 1-6.64286 1.871429-10.24286 1.871429L927.862143 459.078571c3.271428-2.342857 6.128571-6.314285 8.885714-10.885714 2.342857-3.742857 4.771429-8.185714 7.485714-12.3L1242.21643 473.39c.28571 9.542857 3.27143 17.58 8.18571 23.891429 3.74286 7.857142 9.54286 14.171428 16.36429 19.077142l-123.40714 261.762858zM1296.785 531.28c1.42857 0 3.74286.285714 6.82857.428571 1.42857 1 3.27143 1.428572 6.12857.428572 2.34286.428571 4.77143.285714 7.48572-.428572 2.34285-.285714 5.1-1.428571 8.88571-2.8l138.42143 263.89c-5.98571 5.1-10.38571 10.371429-12.95714 15.708572-4.21429 5.985714-6.5 12.114286-6.82857 18.421428h-248.20715c-2.8-6.314285-5.61428-12.442857-8.18571-18.421428-3.74286-5.285714-8.37143-10.571429-13.65714-15.708572L1296.785 531.28zm-212.74857 264.571429c-4.67143 4.671428-8 9.357142-10.24286 14.307142-2.8 5.1-5.28571 10.757143-7.48571 17.065715H697.407857c-1-6.314286-3.271428-11.928572-6.828571-17.065715-3.742857-4.957142-7.342857-9.728571-10.9-14.307142L865.155 475.365714c2.342857 0 4.771429.285715 7.485714.428572 2.342857 1 5.471429 1.428571 9.542857.428571 3.271429.428572 6.128572.285714 8.885715-.428571 2.342857-.285715 5.1-.428572 8.885714-.428572l184.08143 320.485715zm-432.312859-16.364286c-4.214285-.285714-7.342857-1-9.542857-1.871429-2.8-.285714-5.8-.428571-8.885714-.428571-2.8 0-5.1.285714-6.828571.428571-2.8 1-4.957143 1.428572-6.128572.428572L496.919286 516.198571c6.314285-4.957142 11.728571-11.271428 16.364285-19.075714 3.742858-6.314286 6.314286-14.307143 8.185715-23.891428l297.982857-39.554286c2.342857 6.5 4.771428 11.271428 7.485714 14.307143 1.871429 4.671428 4.771429 8.371428 8.885714 10.9l-184.1 320.602857zm-61.371428 13.657143c-5.985714 4.2-10.571429 9.028571-13.657143 14.305714-4.671429 6.457143-7.157143 13.142857-7.485714 19.778571H322.367857c-2.714286-5.8-5.628571-11.742857-8.185714-17.72-3.742857-5.285714-8.357143-10.385714-13.642857-15.008571l138.421428-263.207143c2.342857 0 4.771429.285714 7.485715.428572 2.342857 1 5.1 1.428571 8.885714.428571 1.871428.428571 4.214286.285714 6.828571-.428571 1.871429-.285715 4.214286-.428572 6.828572-.428572l121.362857 261.851429zm-267.978572 67.508571h244.792858c1.871428 7.857143 4.957142 14.494286 9.542857 19.777143 3.271428 5.985714 7.671428 10.757143 13.657143 14.307143L466.947857 1156.57857h-20.485714c-2.8.42857-5.285714 1.42857-7.485714 1.87143L300.555 893.195714c5.285714-3.742857 9.885714-9.028571 13.642857-15.008571 2.571429-5.285714 5.457143-11.271429 8.185714-17.72l-.01.185714zM620.355 909.745714c1.428571 0 3.271429.285715 6.128571.428572 1.871429 1.428571 4.2 1.871428 6.828572.428571 3.271428 1 6.314286.428572 9.542857-.428571 3.271429-.285715 6.128571-1 8.885714-1.871429l184.105715 319.120003c-4.2 3.74285-7.157143 7.67143-8.885715 11.6-2.8 5.1-5.285714 9.4-7.485714 12.94285l-297.981429-37.49714c-1.871428-8-4.671428-16.03571-8.185714-23.84428-4.671428-6.64286-10.057143-13.14286-16.364286-19.07572L620.355 909.745714zm59.322857-17.72c3.742857-3.742857 7.157143-8.885714 10.9-14.307143 3.742857-4.957142 5.8-10.571428 6.828572-17.065714h368.900001c.28571 6.457143 2.8 12.114286 6.82857 17.065714 3.27143 5.471429 6.82857 10.385715 10.9 14.307143L899.927857 1211.15c-2.8.42857-5.614286.28571-8.185714-.42857-3.271429-1-6.457143-1.42857-9.542857-1.42857-4.2 0-7.342857.42857-9.542857 1.42857-2.8 1-5.8 1.87143-8.885715 1.87143v-1.42857L679.677857 892.025714zM1111.99643 908.39c3.74286 1 6.82857 1.871429 9.54286 1.871429 2.34285 1.428571 5.1 1.871428 8.88571.428571 2.34286 1 5.47143.428571 8.18571-.428571 1.87143-.285715 4.21429-.428572 6.82858-.428572h-1.87143l123.42428 261.844283c-6.5 5.98572-11.78571 12.44286-15.71 19.07715-4.21428 7.85714-6.5 15.85-6.82857 23.84428l-300.029999 37.49714c-2.8-3.74285-4.957142-7.85714-6.128571-12.95714-2.8-3.74286-5.614286-7.85714-8.185714-11.6L1111.99643 908.39zm61.36571-13.657143c4.95715-3.742857 9.54286-8.371428 13.65715-14.307143 3.74285-5.285714 6.82857-11.928571 9.54285-19.777143h248.20715c2.34285 6.457143 4.95714 12.442858 8.18571 17.72 2.34286 5.985715 7.15714 10.571429 13.65714 13.657143l-141.83571 266.618576c-2.8-1-5.28572-1.42858-7.48572-1.87143h-20.44285l-123.48572-262.040003zm1.42857-775.301428l302.75715 220.93c-1.42857 3.742857-2.34286 7.671428-2.8 11.6-1.42857 5.1-1.87143 9.4-1.87143 12.957142-.42857 2.8-.28572 4.671429.42857 5.471429 1 1.871429 1.42857 3.742857 1.42857 6.128571v-1.871428l-112.51143 49.78c-6.5-7.157143-13.97143-13.657143-22.48857-19.075714-9.54286-4.957143-19.59-7.485715-30.01714-7.485715h-6.12857c-3.27143.428572-5.61429 1.428572-6.82857 1.871429h1.42857l-124.78857-278.21v-.428572c0-1 .28571-1.428571 1.42857-1.428571l-.03715-.238571zm-68.86857 11.6c3.74286 1.871428 7.67143 3.271428 12.3 3.271428 3.74286 1 7.67143 1.428572 12.3 1.428572 1.87143 1 4.2.428571 6.82857-.428572 1.42858-.285714 3.27143-.428571 6.12858-.428571l125.46714 278.208571c-5.98572 3.271429-10.38572 7.342857-12.95714 12.3-3.74286 5.1-6.64286 10.385714-8.88572 15.662857l-299.342856-39.554285c-.428571-5.8-1.871428-11.785715-4.214285-17.72-2.8-5.8-5.8-10.9-8.842858-15.008572l171.218569-237.731428zM697.472143 85.352857h368.899997c.28572 4.671429 1.87143 9.028572 4.77143 12.957143 2.34286 5.1 4.95714 9.357143 8.18572 12.957143L904.766429 346.514286c-3.271429-.285715-6.642858-1-10.242858-1.871429-4.671428-.285714-8.7-.428571-12.3-.428571-5.1 0-9.728571.285714-13.657142.428571-4.214286 1-8 2.342857-11.6 4.2v-1.871428L684.450714 111.72c2.342857-3.742857 5.471429-7.671429 8.185715-12.3 2.342857-3.271429 3.742857-7.671429 4.771428-13.657143l.064286-.41zM633.375 135.81c3.742857 0 7.857143-.285714 12.957143-1.428571 3.742857-.285715 7.857143-1.428572 11.6-3.271429L831.125 368.405714c-4.671429 4.2-8 9.214286-10.242857 15.007143-2.8 5.985714-4.214286 11.928572-4.771429 17.72l-299.348571 39.555714c-2.8-5.285714-5.614286-10.571428-8.185714-15.662857-4.214286-4.957143-8-9.028571-11.6-12.3l124.784285-278.21c.285715 0 1.871429.285715 4.771429.428572 1.871428 1.428571 4.214286 1.871428 6.828571.428571l.014286.437143zm-42.967143-16.364286v1.428572c0 1 .428572 1.428571 1.871429.428571L466.813571 399.508571c-2.8-1-4.671428-1.428571-5.471428-1.871428h-6.128572c-11.414285 0-21.46 2.342857-30.017142 7.485714-9.542858 5.471429-17.205715 11.928572-22.488572 19.075714L288.835 374.42c.857143-.285714 1.542857-1.871429 2.057143-4.771429V363.52c-.571429-3.742857-1.285714-8.371429-2.057143-12.957143-1.285714-3.742857-2.385714-6.971428-2.714286-10.242857l304.287143-220.874286zM276.060714 405.837143L389.932143 453.57c-1.428572 2.8-1.871429 5.1-1.871429 6.828571v6.828572c-.428571 9.214286 1.428572 17.905714 6.128572 25.901428 3.742857 9.542858 9.214285 16.878572 17.064285 21.834286L272.830714 778.168571H269.345l-24.545714-350.487142c6.314285-1.871429 12.442857-4.957143 18.411428-9.542858 5.285715-3.742857 9.714286-7.671428 12.957143-12.242857l-.107143-.058571zm-62.732857 831.217147L103.545 900.2c6.642857-3.742857 12.957143-9.728571 18.411429-17.065714 4.442857-5.8 8.185714-13.285715 10.914285-22.488572h59.322857c3.085715 10.885715 8.528572 20.618572 16.364286 28.66 7.157143 8.7 16.022857 15.148572 26.594286 19.075715h1.285714l-23.11 328.672861zm-21.138571-409.815719H132.865c-1-8-4.257143-16.037142-9.542857-23.844285-6.485714-6.642857-12.614286-12.442857-18.411429-17.065715l108.42-335.488571 23.185715 328.667143c-11.428572 4.671428-20.797143 11.085714-27.96 19.075714-7.842858 8.7-13.3 18.234286-16.364286 28.66l-.002857-.004286zm52.504285 432.995719l24.547143-350.487147H272.583571L411.005 1172.95286c-7.857143 6.5-13.471429 13.78571-17.065714 21.83428-4.671429 9.21429-6.642857 18.56143-6.128572 27.96v5.47143c0 1.87143.428572 3.74286 1.871429 6.12857L275.807857 1282.08c-4.585714-5.28571-9.2-9.91429-13.642857-13.65714-5.114286-2.34286-11.085714-5.47143-17.73-8.18572l.258571-.00285zm345.714286 308.21285l-304.118571-218.88285c.285714-3.74286 1.285714-7.48572 2.714285-11.6.857143-3.74286 1.542858-8.51429 2.057143-13.65715v-6.12857c-.571428-1.87143-1.285714-4.21428-2.057143-6.82857v1.87143l112.512858-49.78c5.8 7.85714 13.285714 14.17143 22.49 19.07714 9.028571 5.1 19.075714 7.48572 30.015714 7.48572h6.828571c1.428572 0 3.271429-.42858 6.128572-1.87143L592.445 1566.33714c-1.428571 1.42857-1.871429 1.87143-1.871429 1.87143l-.165714.23857zm67.508572-11.6c-3.742858-.28571-7.671429-1.42857-11.6-3.27143-5.1-.28571-9.357143-1-12.957143-1.42857-2.8 0-5.1.28572-6.828572.42857-2.8 1-4.957143 1.42858-6.128571.42858h1.428571L497.046429 1274.8c3.742857-3.27143 7.485714-7.15714 11.6-12.3 2.342857-4.21429 5.471428-9.72857 8.185714-15.66286h1.428571l297.982857 37.49715c.285715 6.82857 1.871429 13.14285 4.771429 18.42142 2.342857 5.98572 5.614286 11.41429 10.242857 16.36429l-30.017143 39.55429-143.324285 198.17285zm408.445711 45.68H697.462143c-1-3.74285-2.342857-8.37143-4.771429-13.65714-2.8-5.1-5.614285-9.02857-8.185714-12.3l172.515714-238.66c3.742857 2.8 7.485715 4.2 11.6 4.2 3.742857 1 8.514286 1.42857 13.657143.42857 3.742857.42857 7.857143.28572 12.957143-.42857 3.742857 0 7.857143-1.42857 12.957143-4.2h-1.428572l172.515719 238.66c-3.27143 4.95714-5.98572 9.21429-8.18572 12.94286-2.8 4.95714-4.21428 9.21428-4.77143 12.95714l.04.05714zm77.05143-49.09714c-2.8.42857-4.95714.28571-6.12857-.42857-2.8-.28572-5.1-.42857-6.82857-.42857-4.67143.42857-8.7 1-12.3 1.42857-4.67143 1.87143-8.7 3.27143-12.3 3.27143l-173.198573-237.29429c3.742857-4.95714 7.671429-10.38571 10.9-16.36428 2.342857-5.28572 3.742857-11.6 4.214286-18.42143l299.342857-37.49715c2.34286 5.98572 5.1 11.08572 8.88571 15.00858 3.27143 5.1 6.82858 9.34285 10.9 12.95714l-120.01428 267.98-3.47286 9.78857zm31.37286 15.00857h-1.42857v-1.87143l3.27143-8.18571 121.37571-270.02286c.28571 1.42857 2.34286 1.87143 5.47143 1.87143h6.12857c10.37143 0 20.47857-2.34286 30.01571-6.82857 8.51429-3.74286 16.03715-9.72857 22.49-18.42143v-1.42857l145.23858 62.73571-332.56286 242.15143zm201.15857-334.12428c-.42857-2.34286-.28571-4.2.42857-6.12858.28572-1 .42857-2.8.42857-5.47142-.42857-9.91429-2.34285-19.07572-6.12857-27.25715-4.67143-8-10.38571-15.66285-17.06571-22.49l140.46571-264.565711h2.3l25.24714 390.032861-145.67571-64.12zM1530.73071 906.33c10.38572-3.742857 19.77715-9.542857 27.96-17.72 6.64286-7.157143 11.6-16.551429 14.30715-27.96h57.96143c2.34285 9.214286 5.8 16.691429 10.9 22.488571 4.2 7.342858 10.57142 13.142858 18.42142 17.065715l-108.42 336.854284-21.13-330.72857z" fill="#2E9AD0" fill-rule="nonzero"/>
</svg>
