<svg viewBox="0 0 1995 1064" xmlns="http://www.w3.org/2000/svg">
  <g fill="#9B0006" fill-rule="nonzero">
    <path d="M1252.63441 10.645161c-7.00136 7.83155-10.83477 17.99008-10.75269 28.494624 0 9.67742-4.83871 57.526882-10.75269 106.451613-5.91398 48.924731-15.5914 131.72043-21.50537 184.946236-5.91398 53.225807-15.05377 125.806452-18.81721 161.290323-3.76344 35.483871-8.06451 74.193548-8.06451 86.021505 0 11.827957-1.07527 19.354839-2.68818 17.741936-1.6129-1.612903-11.82795-54.83871-22.04301-117.741936-20.96774-126.88172-26.88172-141.397849-52.68817-129.569892-14.51613 6.451613-13.44086 2.150538-43.54839 128.494624l-19.89247 82.258064H527.204301c-393.010753 0-516.129032 1.612903-520.967742 6.451613-8.064516 8.064516-8.064516 27.419355 0 35.483871 4.83871 4.83871 131.72043 6.451613 537.634409 6.451613h531.182792l6.98925-12.365592c4.30108-6.451612 10.75269-26.344086 14.51613-44.086021 3.76344-17.741936 8.60215-34.408602 10.75269-36.55914 2.15054-2.150537 13.97849 60.752688 26.88172 139.784946 24.73118 155.913979 29.03226 167.741936 55.91398 160.752689 8.34303-2.006068 14.93445-8.391504 17.2043-16.666667 1.6129-7.526882 14.51613-115.591398 28.49462-240.860215 29.03226-256.451613 26.88172-254.83871 40.86022-25.268817 29.03225 466.129032 32.7957 516.129032 41.93548 525.268812 11.29032 11.29033 34.4086 4.83871 39.24731-10.75268 2.15054-6.45162 16.12903-107.526885 31.72043-224.193552 29.03226-220.430107 30.10753-223.655914 39.78495-130.107527 5.37634 49.462366 11.82796 61.290323 32.25806 59.139785 11.82796-1.612903 19.35484-11.827957 50.53764-70.430107l37.09677-68.27957h316.66667l13.44086 16.129032c13.90677 16.653457 35.19541 25.285271 56.77324 23.0196 21.57783-2.265672 40.60926-15.131095 50.75364-34.309922 22.04301-42.473119-9.67742-96.23656-56.98925-96.23656-20.4301 0-46.23656 12.903226-53.76344 26.881721-5.37634 10.215054-11.29032 10.752688-176.34408 10.752688-128.49463 0-173.11828 1.612903-179.5699 6.451613-4.83871 3.763441-16.66666 22.043011-25.80645 40.860215-9.13978 18.817204-17.74193 33.333333-18.8172 32.258065-1.07527-1.075269-8.06452-59.67742-16.12903-130.645162-8.06452-70.967742-17.20431-132.258064-19.89248-136.021505-9.67742-11.290323-36.0215-8.064516-41.93548 5.376344-2.68817 6.989247-10.75269 61.827957-18.81721 122.580645-8.06451 60.752688-17.2043 134.946237-21.50537 164.516129-4.30108 29.569893-8.06452 62.365592-8.06452 71.505376 0 10.215054-2.15054 16.129033-5.37634 13.978495-3.22581-2.150538-5.37635-19.354839-5.37635-39.247312 0-19.892473-4.83871-104.838709-10.75268-189.247312-5.91398-84.408602-13.9785-211.290322-18.81721-282.258064-13.97849-218.817204-13.97849-219.892473-23.11828-230.107527-10.5914-11.827957-19.73118-11.827957-33.17204 1.612903z"/>
    <path d="M119.301075 366.55914l1.612903 136.021505h48.387097l1.612903-52.688172 1.612903-52.150537h15.053764c12.903226 0 19.354838 6.989247 51.075269 53.763441l35.48387 53.763441h26.881721c15.053763 0 26.88172-2.150538 26.88172-4.301076 0-2.150537-16.666666-29.032258-37.096774-59.139785l-37.795699-54.354838 17.741936-11.290323c34.946236-21.505376 46.236559-73.655914 23.118279-108.064516-17.204301-26.344086-51.612903-36.55914-120.967742-37.096774h-54.677419m126.344086 56.505376c17.741936 17.741936 17.204301 37.634409-2.150538 56.989247-13.44086 12.903226-19.892473 15.591398-43.010752 15.591398h-27.419355v-86.021505h29.569892c24.569893 0 32.258065 2.150537 43.010753 13.44086M354.784946 368.172043v137.096775h172.043011v-43.010753h-118.27957v-75.268817h91.397849v-43.010753h-91.397849v-69.892473h118.27957v-43.010753H354.784946M563.924731 234.83871v136.021505l.537634 131.72043h66.129032c76.344086 0 103.763441-8.064516 134.408603-38.709677 27.956989-27.419355 37.634408-56.989247 35.483871-105.376344-2.688173-52.688172-21.505377-83.870968-63.978495-108.064516-28.494624-16.129032-32.795699-16.666667-100.537635-18.27957-39.247311-1.075269-71.505376 0-72.04301 2.688172m145.698924 51.612903c27.95699 18.27957 39.247312 41.935484 39.247312 81.72043 0 38.172043-10.215053 61.290323-35.483871 80.107527-11.827957 8.602151-25.268817 11.827957-58.064516 13.44086l-42.473118 1.612904V274.086022h39.784946c31.72043 0 42.473118 2.150537 56.989247 12.365591M803.709677 658.494624c-2.688172 1.075269-10.268817 1.075269-17.795699 2.688172-30.645161 6.451613-58.010753 52.688172-51.021505 86.55914 4.838709 24.193548 23.655914 39.784946 62.365591 52.688172 19.892473 6.989247 39.247312 17.204301 43.548387 22.580645 8.319961 13.327246 5.569826 30.744769-6.451613 40.860215-13.44086 10.752688-48.924731 8.064516-69.892473-4.83871l-18.817204-11.290322-9.67742 11.827957c-14.516129 17.741935-12.903225 24.193548 10.752689 37.096774 26.88172 15.053763 63.978494 20.430107 88.172043 12.365591 24.193548-8.064516 50.537634-37.634408 55.376344-62.365591 7.526881-40.860215-9.67742-63.978495-63.978495-83.333333-41.935484-15.053764-46.774193-19.354839-46.774193-38.172043 0-26.344086 32.258064-34.408603 68.279569-17.204301 18.817205 8.60215 19.354839 8.60215 29.032259-4.301076 5.376344-6.989247 9.139784-15.053763 8.60215-17.741935-3.763441-12.365592-61.075269-31.935484-81.72043-27.419355M118.225806 784.83871v123.655914h48.387097v-86.021505h31.182796c60.215053-.537635 97.849462-31.182796 97.849462-80.645162 0-56.989247-36.021506-80.107527-122.04301-80.645161h-55.376345m115.053763 48.870968c18.27957 14.516129 19.354839 44.086021 2.150538 62.365591-9.139785 9.677419-17.204301 12.365592-40.32258 12.365592h-28.494624v-86.021506h26.344086c18.27957.053764 30.107527 3.27957 40.32258 11.290323M322.526881 749.892473c0 77.95699 1.075269 91.935484 10.752688 109.67742 36.55914 71.505376 147.311828 70.967742 182.258065-.537635 10.215054-21.505376 11.290323-33.333333 11.290323-110.752688v-87.096774h-48.010753l-1.612903 91.397849c-1.612904 86.55914-2.150538 91.935484-13.978495 103.225807-17.204301 17.204301-60.215054 17.741935-77.419355 0-11.827957-11.290323-12.365591-17.204301-15.053763-102.150538l-2.688172-89.784946-22.580645-1.612903-23.11828-1.612903.16129 89.247311zM564.462365 784.83871v123.655914h145.16129v-37.634409h-96.774193V661.182796h-48.387097M919.301075 784.83871v123.655914h155.913978v-37.634409H967.688172v-69.892473h86.021505v-32.258064h-86.021505v-69.892473h107.526881v-37.634409H919.301075"/>
  </g>
</svg>
