<svg viewBox="0 0 2000 2000" xmlns="http://www.w3.org/2000/svg">
  <g fill="none" fill-rule="evenodd">
    <circle fill="#FDA616" fill-rule="nonzero" cx="1000" cy="1000" r="1000"/>
    <g fill="#686868" fill-rule="nonzero">
      <path d="M600 1589.487177l-105.274725 105.2381s458.095238 489.59707 881.684982-70.98901c0 0-481.684982 239.41392-776.410257-34.24909M1347.362638 242.087912l63.150183 63.186813-131.575092 131.575092s-268.424908-289.37729-563.150183 89.450549c0 0-10.51282-347.362637 421.245422-336.996337"/>
    </g>
    <path d="M563.441686 547.547505c1.847574 147.688682 23.390067 249.630361 64.627477 305.825034 61.856116 84.29201 105.046651 145.125057 315.368891 225.324801 210.322236 80.19975 248.118426 173.06262 264.394476 216.54648 16.27604 43.48386 32.88118 118.07463 5.00801 292.35348-18.58211 116.1859 9.10385 109.46681 83.0579-20.15725 71.57404-211.54085 61.89665-352.68334-29.03217-423.42749-136.39324-106.11621-384.01802-215.201462-403.58862-225.421386-13.047066-6.813282-112.992387-130.494505-299.835964-371.043669z" fill="#686868"/>
    <path d="M652.637363 1494.72527c10.51282 31.5751 141.575091 161.83151 277.802197 161.83151 202.08791 0 320.14652-117.03297 320.14652-286.337 0-156.88645-81.75824-246.52015-288.351648-333.663-249.74359-97.106231-404.139194-239.047622-404.139194-475.604399 0-261.465202 197.545788-455.677656 494.945052-455.677656 156.66667 0 315.38462 94.725275 368.02198 157.875458l-126.337 126.336996c-49.92674-29.890109-109.89011-104.945054-248.49816-104.945054-208.791213 0-288.351652 136.959707-288.351652 251.501831 0 156.886447 93.113553 234.065934 304.249082 323.699634 258.82784 109.560439 390.51282 246.52015 390.51282 493.04029 0 258.97436-175.82417 489.30403-536.849814 489.30403-147.582418 0-305.274725-94.72527-400-210.51282" fill="#FFF" fill-rule="nonzero"/>
    <path d="M810.512821 536.849817S800 589.487179 852.637363 652.637363c0 0 473.663007-105.274726 463.150187 326.300366 0 0 73.69963 31.575091 136.84981 147.362641 0 0 157.87546-715.787549-642.124539-589.450553" fill="#686868" fill-rule="nonzero"/>
    <path d="M810.512821 473.699634S789.487179 536.849817 821.062271 600c0 0 526.300369-73.699634 515.787549 357.912088 0 0 63.15018 21.025641 126.30036 136.813182 0 0 147.36264-747.362633-652.637359-621.025636" fill="#FFF" fill-rule="nonzero"/>
    <path d="M1157.91209 1473.69963s42.08791-63.18681 21.02564-136.84981c0 0-578.75458 115.78754-561.611723-384.981688 0 0-60.07326-28.754579-108.351648-151.501832-9.74359 29.30403-252.234432 784.8718 648.937731 673.33333" fill="#686868" fill-rule="nonzero"/>
    <path d="M1174.06593 1434.61538s36.63004-76.70329 4.8718-150.40293c0 0-578.75458 115.78755-561.611723-384.981681 0 0-60.07326-28.754579-108.351648-151.465201.18315 0-245.824176 799.597072 665.091571 686.849812" fill="#FFF" fill-rule="nonzero"/>
  </g>
</svg>
