<svg viewBox="0 0 2755 2000" xmlns="http://www.w3.org/2000/svg">
  <path d="M2754.9505 2.475248l-54.45545 287.128712s-136.13861-37.128712-205.44555 96.534654l-153.46534 539.60396 64.35643-44.554455h306.9307l-69.30693 237.623761H2297.0297l-172.32673 587.22772c-47.54762 159.71951-194.39298 269.21424-361.0396 269.20792-172.50442.00155-322.97148-117.16207-365.24753-284.40594L1020.49505 327.376238c-6.23494-23.729159-27.693113-40.265174-52.227723-40.247525-24.912374.053101-46.562709 17.12395-52.425743 41.336634L594.059406 1606.38614C535.820952 1837.79592 327.734565 2000.0013 89.108911 2000H0l59.40594-287.12871s148.514852 29.70297 198.019803-123.76238l153.465346-534.65346-69.306931 59.40594H39.60396l64.356436-232.673271h336.633663l193.366337-610.49505C674.559932 111.442465 817.982346-.001867 982.326733 0c164.676497.010929 308.290947 111.908228 348.564357 271.584158l374.50495 1375.742572c7.29468 29.75659 33.96629 50.68512 64.60396 50.69307 30.39512-.08217 56.87638-20.73756 64.35644-50.19802L2178.66337 340c49.47556-194.690715 223.35189-332.022382 424.20792-335.049505l152.07921-2.475247z" fill="#000" fill-rule="nonzero"/>
</svg>
