<svg id="svg" version="1.1" width="515" height="508" xmlns="http://www.w3.org/2000/svg" xmlns:xlink="http://www.w3.org/1999/xlink" style="display: block;"><g id="svgg"><path id="path0" d="M340.762 42.572 C 340.447 42.886,337.230 43.333,333.611 43.566 C 329.992 43.798,321.974 45.080,315.792 46.415 C 309.610 47.749,304.203 48.625,303.776 48.362 C 303.349 48.098,303.000 48.344,303.000 48.910 C 303.000 49.475,302.438 49.724,301.750 49.462 C 301.063 49.201,297.350 50.174,293.500 51.625 C 289.650 53.076,285.712 54.300,284.750 54.346 C 283.788 54.391,283.000 54.809,283.000 55.273 C 283.000 55.738,282.643 55.897,282.206 55.627 C 281.769 55.357,279.406 56.063,276.956 57.195 C 274.505 58.328,270.025 60.073,267.000 61.073 C 263.975 62.074,261.950 62.935,262.500 62.986 C 263.050 63.038,261.121 64.107,258.212 65.363 C 252.768 67.713,248.517 70.113,239.816 75.750 C 237.057 77.537,234.475 79.000,234.080 79.000 C 233.684 79.000,231.939 80.268,230.203 81.819 C 228.466 83.369,225.832 85.282,224.349 86.069 C 221.259 87.708,215.850 92.235,212.182 96.250 C 210.800 97.763,209.267 99.000,208.774 99.000 C 207.795 99.000,195.460 111.362,190.218 117.597 C 188.413 119.743,185.713 122.737,184.218 124.249 C 182.723 125.761,181.924 126.998,182.441 126.999 C 182.959 126.999,182.694 127.563,181.853 128.250 C 179.736 129.981,170.815 142.057,170.607 143.472 C 170.456 144.497,167.914 148.240,165.011 151.708 C 164.455 152.372,164.000 153.549,164.000 154.323 C 164.000 155.097,163.173 156.803,162.162 158.115 C 159.923 161.019,152.676 176.011,152.671 177.750 C 152.668 178.438,152.292 179.000,151.833 179.000 C 151.375 179.000,151.098 179.338,151.219 179.750 C 151.339 180.162,150.258 183.650,148.816 187.500 C 144.867 198.042,139.841 215.934,140.520 217.032 C 140.849 217.564,140.593 218.000,139.952 218.000 C 139.311 218.000,139.039 218.659,139.348 219.465 C 139.840 220.745,139.386 223.438,136.333 237.362 C 135.736 240.082,135.849 240.195,138.603 239.645 C 164.738 234.422,197.167 234.206,234.559 239.008 C 243.146 240.110,250.583 240.758,251.086 240.447 C 251.589 240.136,252.000 240.411,252.000 241.058 C 252.000 241.776,252.984 242.045,254.528 241.750 C 255.918 241.484,264.806 242.324,274.278 243.616 C 283.750 244.908,295.809 246.181,301.075 246.447 C 306.341 246.712,311.343 247.194,312.190 247.519 C 318.640 249.994,368.682 246.429,382.435 242.515 C 385.149 241.743,387.728 241.332,388.165 241.602 C 388.994 242.114,393.900 240.605,402.641 237.148 C 405.468 236.030,408.003 235.337,408.274 235.607 C 408.545 235.878,411.744 234.492,415.383 232.527 C 419.022 230.562,422.000 229.211,422.000 229.525 C 422.000 229.839,424.137 228.618,426.750 226.811 C 429.363 225.004,431.764 223.608,432.087 223.708 C 432.409 223.809,434.058 222.678,435.750 221.196 C 437.442 219.713,440.941 216.713,443.525 214.528 C 446.110 212.344,450.290 207.844,452.815 204.528 C 455.341 201.213,457.795 198.230,458.270 197.900 C 458.745 197.570,459.233 196.670,459.356 195.900 C 459.478 195.130,460.348 193.263,461.289 191.750 C 465.597 184.826,466.047 183.884,465.483 182.972 C 465.152 182.437,465.385 182.000,466.000 182.000 C 466.615 182.000,466.828 181.530,466.473 180.956 C 466.118 180.382,466.403 179.220,467.106 178.373 C 467.808 177.526,468.459 176.083,468.551 175.167 C 468.644 174.250,469.490 170.610,470.432 167.079 C 471.373 163.547,471.928 159.834,471.665 158.829 C 471.402 157.823,471.595 157.000,472.094 157.000 C 472.592 157.000,473.000 151.375,473.000 144.500 C 473.000 137.625,472.663 132.000,472.250 131.999 C 471.837 131.999,471.454 129.861,471.399 127.249 C 471.265 120.992,465.867 103.233,461.521 94.750 C 459.619 91.037,458.381 88.000,458.771 88.000 C 459.161 88.000,458.359 86.898,456.990 85.551 C 455.620 84.204,451.350 79.515,447.500 75.130 C 443.650 70.746,440.122 67.123,439.659 67.080 C 439.196 67.036,437.001 65.444,434.779 63.543 C 432.558 61.642,430.462 60.164,430.120 60.258 C 429.779 60.352,427.541 59.173,425.148 57.638 C 422.754 56.102,420.054 54.702,419.148 54.526 C 418.241 54.351,414.900 53.016,411.722 51.561 C 408.545 50.106,405.507 49.187,404.972 49.517 C 404.438 49.848,404.000 49.691,404.000 49.170 C 404.000 48.649,403.438 48.277,402.750 48.343 C 402.063 48.409,397.225 47.412,392.000 46.125 C 386.775 44.839,379.916 43.723,376.758 43.644 C 373.600 43.565,371.013 43.163,371.008 42.750 C 370.999 41.884,341.622 41.711,340.762 42.572 M167.998 260.750 C 167.997 261.163,164.060 261.565,159.248 261.643 C 154.437 261.722,145.775 262.787,140.000 264.009 C 134.225 265.231,128.150 266.362,126.500 266.523 C 124.850 266.684,119.787 268.175,115.250 269.838 C 110.713 271.500,107.000 272.661,107.000 272.418 C 107.000 272.174,103.904 273.534,100.119 275.440 C 96.335 277.346,93.024 278.691,92.762 278.428 C 92.500 278.166,91.716 278.638,91.020 279.476 C 90.324 280.314,89.158 281.000,88.427 281.000 C 87.697 281.000,86.706 281.703,86.225 282.563 C 85.744 283.422,84.709 284.223,83.925 284.341 C 83.141 284.460,81.375 285.518,80.000 286.694 C 72.708 292.929,68.716 296.000,67.905 296.000 C 67.407 296.000,67.000 296.635,67.000 297.411 C 67.000 298.187,65.615 299.987,63.923 301.411 C 62.231 302.835,61.144 304.000,61.507 304.000 C 61.871 304.000,60.683 305.875,58.868 308.166 C 57.053 310.458,55.470 313.000,55.351 313.816 C 55.231 314.632,54.714 315.570,54.201 315.900 C 53.009 316.667,48.753 325.024,48.548 327.000 C 48.462 327.825,47.461 331.650,46.324 335.500 C 45.186 339.350,43.748 344.644,43.128 347.264 C 41.876 352.553,41.568 375.996,42.750 376.006 C 43.163 376.009,43.552 377.962,43.616 380.346 C 43.892 390.710,55.044 420.617,59.632 423.300 C 60.385 423.740,61.000 424.715,61.000 425.466 C 61.000 426.218,61.338 426.983,61.750 427.167 C 62.163 427.350,65.012 430.200,68.082 433.500 C 71.153 436.800,73.881 439.500,74.145 439.500 C 74.409 439.500,76.789 441.405,79.435 443.734 C 82.080 446.062,84.639 447.723,85.122 447.425 C 85.605 447.126,86.000 447.318,86.000 447.852 C 86.000 448.635,94.100 453.244,96.000 453.543 C 96.275 453.586,98.300 454.424,100.500 455.405 C 106.668 458.154,111.774 459.893,112.257 459.409 C 112.498 459.168,115.577 459.839,119.098 460.899 C 127.584 463.455,139.402 465.325,141.953 464.515 C 143.143 464.137,144.000 464.312,144.000 464.933 C 144.000 465.642,149.035 466.000,159.000 466.000 C 170.325 466.000,174.004 465.694,174.015 464.750 C 174.027 463.804,174.234 463.821,174.867 464.820 C 175.772 466.247,177.843 465.977,198.500 461.736 C 204.000 460.607,209.287 459.658,210.250 459.627 C 211.213 459.597,212.000 459.191,212.000 458.727 C 212.000 458.262,212.461 458.167,213.024 458.515 C 213.588 458.863,217.750 457.882,222.274 456.335 C 226.798 454.788,230.950 453.474,231.500 453.415 C 232.798 453.275,235.251 452.284,242.000 449.176 C 245.025 447.783,247.842 446.725,248.260 446.825 C 248.677 446.925,251.572 445.565,254.693 443.804 C 257.814 442.043,261.252 440.537,262.333 440.457 C 263.414 440.377,264.795 439.633,265.403 438.802 C 266.010 437.972,268.530 436.265,271.003 435.009 C 273.477 433.754,276.772 431.663,278.327 430.363 C 279.881 429.064,281.756 428.000,282.493 428.000 C 283.230 428.000,283.983 427.657,284.167 427.237 C 284.350 426.818,286.860 424.796,289.744 422.743 C 295.824 418.417,298.077 416.545,301.770 412.750 C 303.241 411.238,304.784 410.000,305.199 410.000 C 305.973 410.000,324.000 392.171,324.000 391.406 C 324.000 391.171,325.795 389.072,327.990 386.740 C 330.184 384.408,331.992 382.170,332.007 381.767 C 332.021 381.363,333.549 379.517,335.402 377.664 C 337.255 375.811,339.045 373.441,339.380 372.398 C 339.714 371.354,341.116 369.193,342.494 367.594 C 343.872 365.996,345.000 364.121,345.000 363.428 C 345.000 362.734,345.337 362.017,345.750 361.833 C 347.145 361.213,352.000 353.404,352.000 351.780 C 352.000 350.892,352.398 350.017,352.884 349.833 C 353.804 349.486,363.000 330.607,363.000 329.065 C 363.000 328.582,364.368 325.136,366.041 321.409 C 367.714 317.681,369.231 313.476,369.412 312.065 C 369.594 310.654,370.770 306.369,372.026 302.542 C 373.281 298.714,374.351 294.328,374.404 292.794 C 374.457 291.260,374.725 290.004,375.000 290.002 C 375.275 290.001,375.544 288.988,375.597 287.750 C 375.683 285.775,376.248 282.634,378.682 270.617 C 379.236 267.882,379.118 267.764,376.383 268.317 C 356.423 272.351,337.106 273.510,313.578 272.084 C 293.450 270.865,272.341 268.509,267.602 266.952 C 265.620 266.302,264.277 266.355,263.352 267.123 C 262.340 267.963,262.000 267.934,262.000 267.006 C 262.000 266.212,261.069 265.945,259.408 266.262 C 257.982 266.535,249.320 265.668,240.158 264.336 C 230.996 263.004,217.988 261.821,211.252 261.707 C 204.516 261.593,199.003 261.163,199.002 260.750 C 199.001 260.337,192.025 260.000,183.500 260.000 C 174.975 260.000,167.999 260.337,167.998 260.750 " stroke="none" fill="#000000" fill-rule="evenodd"></path></g></svg>