<svg viewBox="0 0 2000 2000" xmlns="http://www.w3.org/2000/svg">
  <g fill-rule="nonzero" fill="none">
    <circle fill="#24E44C" cx="999.69863" cy="999.69863" r="999.69863"/>
    <path d="M550.027397 1309.12329l216.438356-41.47945c33.041096 82.9589 105.881279 124.43835 218.520548 124.43835 142.958909 0 214.438359-42.15525 214.438359-126.46575 0-26.95891-11.12329-49.21461-33.36987-66.76712-23.10034-17.9257-50.15519-30.0628-78.90411-35.39727l-186.136981-35.39726c-206.392694-39.78082-309.589041-140.602735-309.589041-302.465749 0-90.374429 32.703196-167.086758 98.109589-230.136986 65.406392-63.050229 162.858447-94.584475 292.356164-94.60274 215.799089 0 347.643839 79.242009 395.534249 237.726027l-205.47945 41.479453c-21.58905-76.876713-82.95891-115.315069-184.109594-115.315069-122.776255 0-184.146118 38.438356-184.109589 115.315069 0 53.278538 49.561644 90.036529 148.684932 110.273972l219.534251 45.506849c170.61187 35.068494 255.9178 132.858444 255.9178 293.369864 0 112.621-43.83561 196.74886-131.50685 252.38356-87.67123 55.6347-191.78995 83.45206-312.35616 83.45206-104.547945 0-196.940639-21.0685-277.178082-63.20548-80.237443-42.13699-132.502283-106.37443-156.794521-192.71233" fill="#000"/>
    <path d="M999.69863 101.09589c-496.30137 0-898.630137 402.328768-898.630137 898.630137 0 496.301373 402.30137 898.630133 898.630137 898.630133 496.32877 0 898.63014-402.32876 898.63014-898.630133 0-496.301369-402.43836-898.630137-898.63014-898.630137zm247.09589 1621.50685v-108.90411c-60.93877 24.98345-125.33267 40.52298-190.9589 46.08219v101.58904c-18.53882 1.36987-37.25115 2.06393-56.13699 2.08219-18.885845.01827-37.607306-.67579-56.164383-2.08219v-101.53424c-65.631394-5.56272-130.027492-21.12126-190.958905-46.13699v108.84932c-300.520547-102.65754-516.684931-387.50685-516.684931-722.84932 0-335.342466 216.164384-620.219178 516.684931-722.986301v131.506849c60.944223-24.961827 125.336176-40.491651 190.958905-46.054794V237.945205c18.557077-1.333333 37.278538-2.018264 56.164383-2.054794 18.88584-.03653 37.59817.648402 56.13699 2.054794v124.082192c65.62995 5.606905 130.02215 21.18298 190.9589 46.191781V276.712329c300.57534 102.79452 516.68493 387.643835 516.68493 723.013698 0 335.369863-216.10959 620.164383-516.68493 722.876713z" fill="#000"/>
  </g>
</svg>
