<svg viewBox="0 0 1951 1981" xmlns="http://www.w3.org/2000/svg">
  <g fill-rule="nonzero" fill="none">
    <path d="M984.904762 1792.904765c460.238097 0 833.333337-373.09524 833.333337-833.333337 0-460.237143-373.09524-833.333333-833.333337-833.333333-460.237143 0-833.333333 373.09619-833.333333 833.333333 0 460.238097 373.09619 833.333337 833.333333 833.333337z" fill="#FFF"/>
    <path d="M306.677143 1542.88571v12.71905H175.765238v-240.08095l-4.06 13.28095-125.191762-38.27619L117.237143 1059.2l-8.706191 12.90952L0 998.904762l135.613333-201.057143L122.68 808.32381 40.294476 706.585714l195.157429-158.038095-24.938095 9.576191-46.914286-122.218572 233.097619-89.477619-27.242381 1.904762-9.131905-130.592857 244.048572-17.065238-22.033334-5.087143 29.447619-127.55619 233.128572 53.820952-14.690476-8.479048L895.680952 0l203.328568 117.391905-7.91428-8.485715 95.74286-89.281666 158.33809 169.795952-3.37143-6.92 117.66191-57.387619 101.57619 208.261429-.92381-5.827619 129.3-20.479048 38.09524 240.527619 2.70952-17.123809 129.3 20.480952-38.66191 244.128571 9.55715-19.604762 117.6619 57.390477-108.94285 223.366663 15.91904-17.07143 95.74286 89.28096-169.25714 181.50952 20.49047-11.83333 65.45715 113.37619-212.76191 122.83809 21.40476-4.94285 29.44762 127.55714-235.09047 54.27619 18.11428 1.26667-9.13333 130.59047-235.32381-16.45714 11.99048 4.60476-46.91429 122.21905-225.261905-86.47143 14.233333 11.52857-82.385714 101.7381-185.928572-150.56191 9.180953 13.60476-108.533334 73.20477-132.904761-197.04286 3.95238 12.92381-125.259047 38.29524-69.64-227.78096zm0-155.55714l81.764762-24.99524 63.544762 207.84762 70.699047-47.68571 120.828572 179.13809 53.966666-66.64285 167.457143 135.6 29.952381-78.02858 201.795234 77.46191 5.91429-84.52857 215.93333 15.1-19.42857-84.16191 211.68095-48.87143-43.85714-75.96666 188.94762-109.09048-64.71429-60.34762L1740.41905 1162.1l-79.62381-38.8381 95.99047-196.809519-87.09047-13.795238 34.22857-216.114286-83.27619 13.185714-34.21429-216.023809-75.00476 36.580952-95.3-195.393333-61.13333 57.009048-147.46667-158.139524-42.19524 73.084762-186.676187-107.775715-19.290476 83.560477-210.004762-48.483334 6.095238 87.192381-215.571429 15.074286 31.876191 83.037619-202.979524 77.914286 54.611905 67.442857-170.408572 137.995238 71.923334 48.509524-122.854286 182.138095 82.782857 25.309524-64.171429 209.895235h86.010953v218.67143z" fill="#FF3B81"/>
    <path d="M949.766667 1122.514286c0-32.552381-11.485714-57.447619-34.465714-74.680952-22.978095-17.614286-64.338095-35.995239-124.080952-55.14762-59.742381-19.528571-107.038572-38.67619-141.888572-57.442857C554.355715 883.92381 506.868096 814.8 506.868096 727.866667c0-45.189524 12.638095-85.400953 37.913809-120.63381 25.658572-35.61619 62.231905-63.380952 109.719524-83.295238 47.870476-19.914285 101.485714-29.871428 160.845714-29.871428 59.742381 0 112.976667 10.914762 159.695715 32.74381 46.723809 21.44619 82.914285 51.891904 108.571428 91.337142 26.042857 39.445714 39.061905 84.252381 39.061905 134.419524H950.342858c0-38.295238-12.061905-67.974762-36.190953-89.038095-24.126666-21.446191-58.019047-32.169048-101.677142-32.169048-42.126191 0-74.87 8.999524-98.230953 26.999048-23.360476 17.616666-35.040952 40.977619-35.040952 70.084285 0 27.190477 13.595238 49.976191 40.785714 68.357143 27.573333 18.380953 67.976191 35.614286 121.208571 51.7 98.040953 29.490476 169.46 66.061905 214.269524 109.719048 44.804762 43.661905 67.209524 98.042857 67.209524 163.142857 0 72.380952-27.380952 129.252381-82.147619 170.614286-54.761905 40.97619-128.482857 61.466666-221.160476 61.466666-64.338095 0-122.931905-11.680952-175.781429-35.042857-52.849047-23.742857-93.251904-56.104762-121.208571-97.080952-27.573334-40.976191-41.36019-88.466667-41.36019-142.461905h172.909237c0 92.290476 55.146667 138.438095 165.440953 138.438095 40.977143 0 72.954762-8.233333 95.932857-24.7 22.98-16.847619 34.465714-40.209524 34.465714-70.080952zM1475.540197 609.617572l-165.811956 606.104145-136.886434-9.584083 103.264658-624.923078 199.433732 28.403016zm-144.592638 669.325713l-43.10399 214.150658-182.058676-53.037913 41.725994-205.449579 183.436672 44.336834z" fill="#FF3B81"/>
  </g>
</svg>
