<svg viewBox="0 0 1996 1796" xmlns="http://www.w3.org/2000/svg">
  <g fill-rule="nonzero" fill="none">
    <path fill="#000" d="M0 0h1995.45918v1795.91837H0z"/>
    <path d="M977.755102 693.418367c24.948978 10.204082 49.897958 5.102041 69.846938 0 15 49.89796 39.94898 94.795919 64.84694 114.744898-14.94898 124.693878-64.84694 169.591837-114.693878 169.591837-69.846939 0-104.795918-144.642857-104.795918-169.591837 19.948979-10 64.846938-39.897959 84.795918-114.744898m-79.795918 439.234693c10.204081 39.89796 39.897959 139.64286 104.744896 139.64286 44.89796 0 94.79592-54.84694 104.79592-134.69388-34.94898-19.94898-49.89796-64.84694-64.84694-134.69388-20 5.10204-49.897958 10.20408-69.846938 0-24.948979 64.64286-44.897959 104.59184-74.846938 129.7449m-399.081633 154.43878c24.94898 39.89796 74.795918 104.74489 129.693878 79.79592 14.948979-5.10205 19.948979-44.89796 14.948979-79.79592-39.897959-24.94898-64.846939-69.84694-94.744898-139.69388-10.204081 5.10204-24.948979 5.10204-39.948979 0 10 74.84694 10 114.7449-9.94898 139.69388m-209.540816-134.69388c19.948979 109.7449 24.948979 119.69388 19.948979 134.69388 34.94898 64.84694 69.846939 94.74489 114.744898 89.79592 14.94898 0 5.102041-39.94898-14.948979-79.84694-41.942889-38.6361-74.386188-86.44544-94.795919-139.69388-7.673153-3.99812-16.330699-5.71547-24.948979-4.94898m-134.693878 0c49.897959 209.4898 144.693878 199.64286 139.693878 189.43877-19.94898-34.89795-39.897959-49.89795-59.846939-64.84693-44.897959-44.79592-79.846939-139.59184-79.846939-124.59184m608.622449 134.69388c24.94898 89.79592 94.795918 89.79592 119.744898 79.79592 34.897959-5.10205 49.846939-34.89796 54.846939-89.79592-44.897959-29.94898-59.846939-94.79592-69.846939-139.69388-14.94898 5.10204-39.897959 5.10204-59.846939 0-5 69.84694-10 124.7449-44.897959 149.69388m-429.030612-154.43878c19.948979 49.84694 79.846939 144.64286 124.744898 144.64286 19.948979 0 29.897959-34.89796 19.948979-139.69388-29.948979-20.2551-54.897959-60.05102-69.846938-124.89796-10.204082 5.10204-29.94898 5.10204-44.89796 0-5 54.84694-10 94.79592-29.948979 119.94898m-154.642857 0c14.948979 39.89796 49.897959 124.69388 94.795918 139.64286 19.94898 10.20408 19.94898-19.94898-5.102041-134.69388 0 0-34.897959-29.89796-59.846938-124.69388h-19.846939c-5 44.69388-10 109.54082-10 119.7449m399.081632 0c5.102041 19.94898 54.89796 119.69388 114.744898 134.69388 69.846939 14.94898 74.846939-74.84694 74.846939-129.7449-34.948979-19.94898-59.897959-59.84694-74.846939-124.69388-20.952672 7.57116-43.894266 7.57116-64.846938 0-10 64.64286-24.94898 99.33674-49.89796 119.7449m-44.897959-15c29.94898 0 54.897959-44.89796 64.846939-129.693876-24.94898-24.94898-54.846939-69.846939-59.846939-174.591837-14.948979 5.102041-29.948979 5.102041-39.897959 0-15 94.795918-29.94898 149.438775-60.102041 179.387755 0 29.897958 35.153061 124.591838 95 124.591838M224.489796 992.755102c24.94898 99.744898 49.897959 124.591838 69.846939 124.591838 44.897959 0 34.897959-74.79592 39.897959-129.693879-14.94898-19.948979-44.897959-69.846939-44.897959-174.591837h-24.94898c-29.693877 154.744898-29.693877 159.744898-39.897959 179.693878m-99.795918-174.591837c-10.204082-5.102041-59.84694 204.489795 15 294.285715 9.948979 10.20408 9.948979-114.693878 9.948979-114.693878-19.948979-44.897959-9.948979-174.642857-24.948979-179.591837m598.673469 174.591837c5.102041 14.948978 34.897959 124.693878 114.744898 124.693878 49.846939 0 89.795918-54.84694 99.744898-134.693878-39.897959-39.897959-59.846939-95-69.846939-169.591837-14.94898 5.102041-39.897959 5.102041-59.846939 0-29.948979 99.744898-49.897959 154.642857-84.795918 179.591837M314.285714 798.163265c5.102041 89.795919 24.94898 179.591837 64.846939 179.591837 44.897959 0 64.846939-99.744898 79.846939-184.540816-15-10.204082-34.94898-39.94898-34.94898-104.795919-11.423698 9.988893-28.474261 9.988893-39.897959 0-5 10-29.94898 94.795919-69.846939 109.744898M189.591837 982.755102c24.897959 0 49.846939-184.591837 49.846939-184.591837-10.204082-14.948979-19.94898-44.897959-14.94898-109.744898-5.102041 5.102041-14.94898 0-19.94898 0-11.774927 38.601364-28.549959 75.496145-49.897959 109.744898-9.948979 54.897959 0 184.591837 34.94898 184.591837M568.72449 798.163265c5.102041 59.897959 34.897959 179.591837 94.744898 179.591837 64.897959 0 94.795918-89.795918 109.795918-179.591837-34.948979-19.948979-49.897959-54.846938-59.897959-109.744898-24.94898 5.102041-44.897959 5.102041-64.846939-5.10204-19.948979 50-59.846939 104.897959-79.795918 114.846938m44.897959-134.693877c-15-19.94898-34.94898-54.846939-24.94898-129.693878H553.72449c-24.94898 49.897959-54.846939 109.744898-94.540817 139.693878 0 10.204081 5.102041 114.744898 54.846939 114.744898 39.693878 0 69.642857-44.897959 99.591837-124.94898M369.183673 538.77551h-20c0 5.102041-64.846938 119.744898-94.744897 139.693878-10.204082 49.897959-10.204082 109.744898 19.948979 114.744898 29.897959 0 49.897959-24.94898 89.795918-124.744898-10-24.94898-19.948979-59.846939 5-129.693878m-144.693877 5.102041c-74.846939 49.897959-114.744898 229.591837-94.795918 234.693878 5.10204 5.10204 64.846938-79.795919 59.897959-129.693878-5-35.255102 49.846939-110.102041 34.897959-105.102041m708.367347 119.489796c-19.94898-19.948979-44.897959-54.846939-54.846939-129.693877-17.957863 4.99937-36.940096 4.99937-54.897959 0-14.94898 44.897959-39.897959 104.795918-89.795918 139.693877 10.204081 49.897959 34.948979 109.744898 79.846938 114.744898 84.795919.204082 104.744898-69.642857 119.693878-124.744898M254.285714 528.571429c-49.744898 75.05102-49.744898 139.795918-29.795918 139.795918 24.94898 0 94.795918-124.693878 109.744898-149.642857-5-24.846939 49.897959-74.846939 29.948979-79.94898-34.948979 0-99.795918 85.051021-109.744897 90m1227.193874 618.62245c-14.94898 5.10204-29.94898 5.10204-39.89796 0-19.94898 64.84694-49.89796 114.7449-94.79591 139.69388-5.10205 34.89796-5.10205 74.79592 14.94898 79.79592 54.89795 19.94897 109.74489-39.89796 129.74489-79.79592-15-24.94898-15-64.84694-10-139.69388m199.54082 0c-20.40973 53.24844-52.85303 101.05778-94.79592 139.69388-24.94898 44.89796-34.89796 79.79592-14.94898 79.79592 44.89796 0 79.79592-24.94898 114.7449-89.79592-5.10204-14.94898 0-24.94898 19.94898-134.69388-10 10-19.94898 10-24.94898 5m79.84694 129.69388c-20 19.94898-39.94898 29.94898-54.89796 64.84694-5.10204 10.20408 89.79592 19.94898 139.69388-189.54082-10-15-39.69388 79.79592-84.79592 124.69388m-573.72449-129.69388c-19.63575 4.99949-40.2112 4.99949-59.84694 0-10.20408 44.89796-29.94898 104.7449-69.84694 139.69388 10.20408 49.84694 19.94898 79.79592 54.84694 89.79592 24.94898 5.10204 94.79592 5.10204 119.7449-79.84694-29.94898-34.89796-44.89796-89.79592-44.89796-149.64286m448.97959-139.69388c-13.97608 7.69802-30.92187 7.69802-44.89796 0-14.84694 54.89796-39.89796 104.54082-69.84694 124.94898-10.20408 104.7449 0 139.64286 19.94898 139.64286 39.94898 0 104.79592-94.7449 124.7449-144.64286-24.94898-20.15306-29.94898-60.10204-29.94898-119.94898m179.59184 10.20408h-19.94898c-24.94898 89.79592-59.84694 124.69388-59.84694 124.69388-24.94898 109.7449-29.94898 139.69388-5.10204 134.69388 39.89796-14.94898 74.84694-99.7449 94.79592-139.69388-9.89796-15.15306-9.89796-80-9.89796-119.89796m-443.87755-10c-20.94813 7.59708-43.89882 7.59708-64.84694 0-15 59.84694-39.89796 104.7449-74.84694 124.7449 0 49.84694 5.10204 144.64286 74.84694 129.69388 54.84694-10.20408 109.7449-109.7449 114.7449-134.69388-30.05103-15.20408-40.05103-49.89796-50-119.7449m189.33673-14.948978c-24.89796-29.94898-39.89796-89.795918-59.84694-179.591837-12.8296 4.998789-27.06836 4.998789-39.89796 0-5.10204 104.744898-34.94898 154.642857-59.84694 174.591837 9.94898 79.795918 34.89796 129.693878 64.84694 129.693878 50.05102-.10204 90-94.79592 94.7449-124.693878m174.64286-179.591837c-10.20408 0-15 5.102041-24.94898 0 0 104.744898-24.94898 154.642857-44.89796 174.591837 5.10204 49.897958-5.10204 129.693878 39.89796 129.693878 19.94898 0 44.89796-29.89796 69.84694-124.693878-9.79592-19.94898-14.7449-24.94898-39.69388-179.591837m104.54081 179.591837s0 124.693878 10.20409 114.744898c74.79591-79.84694 29.89796-299.336735 14.94898-294.336735-10 9.94898 0 139.693878-24.94898 179.591837m-638.77551-179.591837c-24.89796 5.102041-49.84694 5.102041-59.84694 0-9.54082 74.591837-34.69388 129.693878-69.64286 169.591837 15 74.846938 44.89796 139.693878 99.79592 134.693878 69.84694 0 109.7449-109.7449 114.7449-124.693878-44.89796-24.94898-69.84694-79.846939-84.84694-179.591837m413.87755-124.744898c-13.20608 9.008184-30.00738 10.917423-44.89796 5.102041 0 59.846939-19.94898 94.795919-34.89796 109.744898 15.15306 89.591837 35.10204 184.489796 80 184.489796 39.89796 0 64.84694-94.795918 64.84694-179.591837-34.89796-24.948979-64.84694-109.744898-64.84694-119.744898m224.28571 109.744898a630.561518 630.561518 0 0 1-44.89795-109.744898c-5.73647 4.92846-14.21252 4.92846-19.94898 0 5.10204 54.89796-5.10204 89.795919-14.94898 104.795919 0 0 24.89796 184.540816 49.84694 184.540816 25.15306 5 35.15306-124.693878 30.15306-179.591837m-488.77551-109.744898c-19.94898 10.204082-44.89796 10.204082-64.84694 5.102041-5.10204 49.897959-24.94898 89.795919-54.89796 109.744898 14.94898 94.795918 34.94898 184.591837 109.7449 179.591837 54.89796 0 89.79591-119.693878 94.79591-179.591837-30.05102-15.05102-64.94897-69.948979-84.79591-114.846939m124.69387 94.795919c49.89796 0 54.89796-99.744898 54.89796-114.744898-34.94898-24.94898-64.84694-79.795919-94.79592-134.693878-10.20408 5.102041-19.94897 5.102041-34.89795 0 9.94898 69.846939-5.10205 109.744898-24.94898 129.693878 34.79591 79.846939 64.74489 124.744898 99.64285 119.744898m159.64286-119.94898c34.94898 99.795918 54.89796 124.744898 79.84694 124.744898 29.89796-5.102041 29.89796-59.846939 19.94898-114.744898-24.94898-14.948979-94.79592-134.693877-94.79592-139.693877h-19.94898c29.89796 75.05102 19.94898 109.948979 14.94898 129.693877m169.84694-14.744898c-5.10204 44.897959 49.84694 134.693878 54.84694 129.693878 14.94898-5.102041-14.94898-184.540817-94.79592-234.438776-5.15306-5 44.69388 69.846939 39.94898 104.744898m-633.57143 134.693878c49.89796-5.102041 74.79592-54.846939 79.79592-114.744898-39.89796-29.897959-64.84694-89.795919-79.79592-134.693878-17.95786 4.999371-36.9401 4.999371-54.89796 0-5.10204 69.846939-29.89796 114.744898-54.84694 129.693878 14.7449 54.897959 34.69388 124.744898 109.54082 119.744898m463.92857-344.438776c-19.94898 0 34.94898 54.897959 29.94898 79.846939 14.94898 24.94898 79.79592 149.642857 109.7449 149.642857 19.94898 0 19.94898-59.846939-34.94898-139.693877-4.94898-4.744898-79.79592-89.795919-104.7449-89.795919m-1107.5 15.306123s10.204082-24.94898-5.102041-29.94898c-24.948979 0-94.795918 94.795918-124.744898 109.744898-5.10204 10.204082-44.897959 124.744898 5.102041 134.693878 44.897959 5.10204 94.795919-79.795919 124.693878-139.693878-14.897959-15.05102-9.897959-45 .05102-74.795918m234.693878-5.102041c0-5.102041 0-29.94898-24.94898-29.94898-29.948979 0-69.846939 94.795919-114.744898 109.744898-10.204081 54.897959 0 129.744898 44.897959 134.693878 64.846939 5.102041 104.795919-74.795919 124.744898-134.693878-25.153061-14.948979-30.153061-49.846939-30.153061-79.795918m708.571424 79.795918c29.7449 54.897959 74.64286 144.693878 124.54082 139.591837 49.89796-10.204082 9.94898-124.693878 5.10204-134.693878-29.94898-14.948979-99.79592-109.744898-124.7449-109.744898-14.94898 0-5.10204 24.94898-5.10204 29.94898 10 30 10 59.94898 0 74.897959m-264.18367 0c19.94898 54.897959 54.89796 144.693878 124.7449 134.693878 49.84694-5.102041 59.84694-69.795919 44.89796-134.693878-39.94898-14.948979-89.79592-114.693877-114.7449-109.744898-24.94898 0-24.94898 24.94898-24.94898 29.94898-5.20408 29.948979-10.20408 64.846939-30.15306 79.795918M997.755102 419.030612c-54.897959 0-34.94898 89.795919-94.795918 114.744898 5.10204 44.897959 19.948979 134.693878 89.795918 134.693878 79.795918 0 94.795918-109.744898 94.795918-134.693878-39.94898-19.948979-39.94898-114.744898-89.795918-114.744898" fill="#FFF"/>
  </g>
</svg>
