<svg viewBox="0 0 1771 1994" xmlns="http://www.w3.org/2000/svg">
  <g fill="#2683FA" fill-rule="nonzero">
    <path d="M1769.61607 578.660714c-1.59821 62.428572-28.69643 108.955357-80.99107 140.3125-9.65179 5.767857-13 11.642857-12.97321 22.642857.33035 170.303572.30357 340.616069.04464 510.883929-.01786 10.23214 2.58928 16.40179 11.97321 21.80357 60.5 34.96429 91.11607 99.45536 80.25 167.25-10.41964 64.96429-62.34821 118.33036-129.61607 131.10714-39 7.4375-76.77678 1.51786-110.95536-19.45535-10.41964-6.375-17.75892-5.25-27.52678.375-146.40179 84.80357-292.96429 169.38393-439.69643 253.64285-10.03571 5.77679-13.79464 12.11608-13.76786 23.83036.15179 81.9375-63.089283 153.24107-142.089283 161.1875-84.142857 8.49107-158.535714-44.38393-176.714286-126.03571-2.785714-12.55357-3.723214-25.67857-4.008928-38.52679-.214286-8.70536-2.625-14.03571-10.366072-18.51786-148.758928-85.57142-297.392857-171.34821-445.964285-257.25-8.044643-4.6875-14.366072-4.72321-22.482143.1875-97.080357 58.4375-220.8125 2.41965-241.401786-106.75-12.991071-68.96428 15.080357-133.44642 76.803572-169.76785 9.75-5.75893 14.160714-11.55357 14.142857-23.47322-.446429-170.32143-.375-340.60714-.107143-510.901783.008928-10.232143-2.651786-16.285714-12.017857-21.723214C20.1875 683.491071-8.964286 620.955357 2.9375 550.741071c11.821429-69.75 65.758929-120.919642 135.955357-130.919642 37.625-5.348215 73.910714 1.508928 106.464286 22.294642 7.5625 4.839286 13.178571 4.6875 20.875.25 148.133928-85.723214 296.383928-171.205357 444.75-256.491071 8.973214-5.160714 12.473214-11.080357 12.5-21.651786C723.723214 70.428571 797.839286-1.375 891.75.526786c73.196429 1.464285 141.6875 61.883928 152.07143 134.116071.94643 6.642857 2.4375 10.732143 2.4375 19.875 0 20.026786 7.375 28.517857 22.96428 37.428572C1213.1875 274.321429 1356.75 357.339286 1500.21429 440.5c9.85714 5.732143 17.01785 5.964286 27.28571.142857 97.44643-55.580357 215.59821-2.3125 239.32143 107.669643 2.23214 10.232143 2.01786 21 2.79464 30.348214zM499.1875 1162.88393c-1.473214 1.27678-2.464286 2.34821-3.696429 3.03571-80.758928 46.66965-161.455357 93.41965-242.508928 139.53572-4.482143 2.54464-13.1875 2.01785-17.741072-.73215-21.419642-12.92857-44.232142-21.51785-69.196428-22.1875-83.053572-2.125-133.5625 65.71429-136.401786 124.65179-3.285714 69.03571 48.946429 139.75 133.419643 139.11607 74.080357-.55357 130.455357-59.95536 129.723214-134.07143-.116071-13.24107 3.776786-20.73214 15.392857-27.33035 86.071429-49.00893 171.794643-98.60715 257.4375-148.33036 8.276786-4.83036 14.9375-5.625 23.946429-1.375 53.410714 25.10714 108.642857 29.35714 165.580357 13.25893 5.660714-1.58929 13.178572.01785 18.839286 2.4375 16.741071 7.125 32.732143 16.17857 49.580357 22.94643 9.607143 3.89285 12.848214 9.13392 12.830357 19.33928-.294643 134.24107-.267857 268.44643-.026786 402.67857.008929 9.47322-2.973214 14.86607-11.607142 19-45.232143 21.80357-79.366072 78.0625-70.053572 138.23215 10.803572 69.90178 82.616072 122.6875 151.919643 109.13392 61.053571-11.91964 101.16071-53.60714 109.75-117.73214 5.8125-43.49107-15.10714-100.90178-71.035714-129.65178-7.589286-3.875-11.776786-8.11608-11.75-17.4375.276785-130.38393.303571-260.76786 0-391.125 0-11.58929 5.321428-13.96429 15.473214-15.75893 26.785714-4.69643 53.63393-9.88393 79.8125-17.23215 11.84821-3.32142 21.20536-3.79464 32.6875 1.15179 57.40179 24.6875 113.28571 20.46429 166.75-11.80357 7.63393-4.57143 13.10714-4.77679 20.76786-.30357 70.625 41.125 141.36607 82.08035 212.42857 122.41964 11.5 6.50893 15.9375 13.70536 15.59821 27.16964-2.05357 78.01786 65.97322 141.75 145.28572 133.29465 77.86607-8.27679 133.03571-83.22322 114.97321-159.00893-21.65178-90.82143-120.02678-131.80357-199.49107-82.71429-8.375 5.16072-14.42857 6.57143-23.36607 1.33929-67.24107-39.28572-134.64286-78.30357-202.32143-116.83036-10.00893-5.6875-11.33929-10.97321-8.15179-21.69643 20.41072-68.76786 6.53572-129.94643-42.70535-182.633927-9.625-10.303572-54.78572-82.419643-61.08036-95.714286-4.98214-10.517857-2.86607-16.133928 7.15179-21.883928 102.61607-58.767858 205.08035-117.830358 307.36607-177.169643 8.24107-4.758929 13.83035-4.839286 21.91964.589285 28.83036 19.348215 61.15179 25.473215 95.0625 19.535715 66.00893-11.571429 113.84821-71.303572 107.96429-141.8125-6.40179-76.491072-81.42858-133.669643-156.36608-117.080357-65.75892 14.5625-107.07142 65.955357-106.3125 133.517857.10715 11.508928-3.08928 18.071428-13.35714 23.946428-103.91071 59.455357-207.5625 119.3125-311.02678 179.526786-9.33036 5.419643-14.42858 4.294643-21.9375-2.9375-48.75-46.964286-107.41072-73.339286-174.330361-81.705357-22.589286-2.839286-22.598215-2.723214-22.598215-26.035714-.008928-122.196429.294643-244.392858-.366071-366.580358-.089286-17.053571 3.892857-26.9375 19.875-36.116071 57.294647-32.919643 79.071427-103.785714 52.857147-164.214286-26.437504-60.955357-93.973219-93.517857-157.312504-74.223214-57.651786 17.5625-89.785715 58.285714-95.4375 117.553571-4.348215 45.732143 17.285714 96.535715 69.482143 125.0625 8.017857 4.375 13.607142 8.223215 13.571428 19.223215-.428571 134.723214-.401786 269.419643-.0625 404.142857.017857 10.678571-4.848214 14.294643-13.553571 18.705357-26.0625 13.133929-54.026786 24.625-76.151786 42.928571-25.526786 21.0625-49.383929 33.241072-84.919643 33.241072-3.464286-.107143-5.696428.223214-9.303571.151786-8.803572-.1875-18.696429-.553572-25.901786-4.669643C521.75 731.875 417.482143 671.116071 312.535714 611.535714c-14.991071-8.5-22.223214-17.616071-19.723214-34.883928 1-6.883929-1.125-14.258929-2.25-21.348215C280.321429 490.758929 217.196429 436.767857 141 449.285714 66.25 461.589286 18.785714 529.232143 31.125 601.633929c15.732143 92.464285 121.25 139.267857 200.857143 88.6875 8.982143-5.705358 15.196428-6.151786 24.401786-.785715C335.276786 735.553571 414.5 781.026786 493.616071 826.678571c13.5625 7.830358 27.071429 15.714286 40.544643 23.535715-90.883928 96.303571-101.089285 199.741074-34.973214 312.669644z"/>
    <path d="M717.767857 851.696429c20.803572 1.839285 31.151786-5.151786 46.348214-19.276786 65.607143-60.973214 143.008929-79.848214 227.991072-51.625 83.553567 27.75 135.366067 87.125 152.526787 174.232143 3.35714 17.053571 10.07143 27.3125 25.30357 36 43.57143 24.812504 68.65179 78.491074 60.04464 123.205354-11.16964 57.90179-49.13393 98.04465-102.8125 106.55357-28.60714 4.5625-56.98214 1.28572-82.14285-14.19642-11.27679-6.95536-20.19643-6.19643-31.84822-1.32143-74.732141 31.42857-147.107141 26.08928-215.901784-17.16965-10.5625-6.66964-19.401786-7.1875-30.839286-3.4375-96.9375 31.66965-197.758929-23.34821-222.375-120.00892-28.205357-110.848219 60.214286-218.017861 173.705357-212.955361zM1571.70536 1414.70536c0-21.6875 15.58035-37.4375 36.91964-37.39286 20.54464.10714 38.05357 17.0625 38.25893 37.13393.22321 19.32143-18.48214 38.00893-37.95536 38.04464-20.84821 0-37.21428-16.59821-37.22321-37.78571zM847.392857 161.857143c.080357-21 16.455357-37.205357 37.616072-37.223214 21.196428-.017858 37.446428 16.151785 37.526785 37.232142.053572 20.214286-17.598214 38.089286-37.455357 37.839286-20.1875-.196428-37.75-17.857143-37.6875-37.848214zM198.196429 1414.85714c-.080358 21.16965-16.589286 37.80357-37.330358 37.63393-19.598214-.1875-37.714285-18.46428-37.803571-38.19643-.098214-19.71428 17.830357-36.98214 38.401786-36.98214 21.3125.01786 36.8125 15.84821 36.732143 37.54464zM885.419643 1795.1875c21.142857.14286 37.205357 16.22321 37.107143 37.15179-.133929 20.84821-16.4375 36.55357-37.866072 36.41964-21.25-.10714-37.5-16.30357-37.267857-37.16964.241072-20.75 16.803572-36.5625 38.026786-36.40179zM161.883929 616.160714c-21.428572.1875-38.178572-15.428571-38.8125-36.133928-.633929-20.178572 16.3125-37.116072 37.4375-37.419643 22.053571-.330357 37.375 14.366071 37.6875 36.107143.330357 21.848214-14.625 37.25-36.3125 37.446428zM1608.16071 616.214286c-21.66071-.151786-36.66964-15.580357-36.45535-37.428572.21428-21.6875 15.58035-36.4375 37.63393-36.151785 21.14285.294642 37.97321 17.080357 37.47321 37.366071-.5 20.553571-17.36607 36.366071-38.65179 36.214286z"/>
  </g>
</svg>
