<svg viewBox="0 0 2000 2000" xmlns="http://www.w3.org/2000/svg">
  <g fill="none" fill-rule="evenodd">
    <path fill="#2EB6F7" d="M0 0h2000v2000H0z"/>
    <path d="M142.857143 801.495821v51.428572h51.428571l94.285715 189.999997c5.714285 8.57143 20 38.57143 38.571428 35.71429h191.428572c18.571428 0 35.714285-8.57143 42.857142-24.28572l95.714286-164.28571c2.857143-4.285715 5.714286-8.571429 5.714286-14.285715 0-11.428571-8.571429-22.857142-21.428572-22.857142H252.857143l-21.428572-51.428572h-88.571428zm260 352.857139c0 34.28572-17.142857 50-51.428572 50-35.714285 0-52.857142-15.71428-52.857142-50 0-34.28571 18.571428-48.57142 54.285714-48.57142s51.428571 17.14285 51.428571 50l-1.428571-1.42858zm157.142857 0c0 34.28572-17.142857 50-51.428571 50-35.714286 0-52.857143-15.71428-52.857143-50 0-34.28571 18.571428-48.57142 54.285714-48.57142s52.857143 17.14285 52.857143 50L560 1154.35296zm257.144399-104.28571c17.311402.9191 33.855833 7.4366 47.142857 18.57143 12.037186 11.5422 26.769873 19.89072 42.857143 24.28571 5.714286 0 10 0 14.285714-4.28571 2.989036-3.56485 4.05504-8.36187 2.857143-12.85714-.275704-6.65188-4.090956-12.64727-10-15.71429a614.28612 614.28612 0 0 0-60-21.42857c-57.142857-20-88.571428-57.142859-88.571428-111.428573-1.056599-37.732336 16.586237-73.55264 47.142857-95.714286 29.398399-21.41501 65.072192-32.468861 101.428571-31.428571 32.1601-.718056 63.863917 7.703271 91.428574 24.285714 23.07067 11.939082 37.84086 35.461983 38.57143 61.428571.4153 13.796343-4.73248 27.180568-14.28572 37.142858-9.95974 10.598612-24.04072 16.335307-38.571427 15.714285-19.927984-1.122876-38.963789-8.637009-54.285714-21.428571-7.972099-7.381192-17.883216-12.33675-28.571428-14.285714-4.043151-.735773-8.207332.305272-11.428572 2.857142-3.499921 3.292232-5.110313 8.123405-4.285714 12.857143 0 8.571429 14.285714 17.142857 40 24.285715 30.889287 8.385431 59.953231 22.433004 85.714285 41.428571 28.57143 21.428576 42.85714 55.714286 41.42857 89.999996 0 37.14286-14.28571 74.28572-45.71428 98.57143-31.852744 23.16413-70.660869 34.75617-110.000004 32.85715-40.007715 1.94017-79.431802-10.19032-111.428571-34.28572-21.632084-14.36274-34.947774-38.33098-35.714286-64.28571-.114026-15.14058 6.100355-29.6408 17.142857-40 11.51397-11.06837 26.886086-17.21721 42.857143-17.14286zm364.284171-121.428572h-35.71428c-17.35008.952675-34.49989-4.091384-48.57143-14.285714-13.0424-10.34009-20.45271-26.219336-20-42.857143-.53823-11.567891 2.45092-23.026312 8.57143-32.857143 6.10034-9.673081 15.09971-17.172556 25.71428-21.428571 23.39599-5.426194 47.46748-7.351913 71.42857-5.714286h134.28572c21.42857-1.428571 42.85714 0 64.28571 5.714286 10 4.285714 20 11.428571 25.71429 21.428571 5.71428 8.571429 10 20 10 31.428572.35515 18.146505-7.52303 35.478487-21.42857 47.142857-14.89684 10.729786-33.13197 15.7951-51.42858 14.285714h-30v191.428569c.924 16.95116-3.04297 33.81077-11.42857 48.57143-11.42857 18.57143-32.85714 28.57143-55.71428 28.57143-21.42857 0-42.85715-8.57143-54.28572-25.71429-9.0019-15.03843-13.00319-32.54407-11.42857-50V928.638678zM1830 1087.21011c18.57143 12.85714 28.57143 32.85714 31.42857 55.71428 0 18.57143-8.57143 37.14286-24.28571 50-11.64872 9.57742-26.35248 14.64768-41.42857 14.28572-21.54462-1.32213-41.8649-10.46626-57.14286-25.71429-31.24523 16.79569-65.97088 26.08847-101.42857 27.14286-118.57143 0-214.28572-91.42857-214.28572-204.28572.37144-39.456849 12.83684-77.850291 35.71429-109.999996 21.42857-34.285714 52.85714-60 91.42857-75.714286 27.18142-11.244938 56.29876-17.068406 85.71429-17.142857 52.11571-1.265208 102.90534 16.511165 142.85714 50 45.71428 37.142857 72.85714 92.857143 71.42857 151.428569-.56471 29.20193-7.38469 57.94326-20 84.28572z" fill="#FFF" fill-rule="nonzero"/>
  </g>
</svg>
