<svg viewBox="0 0 2000 2000" xmlns="http://www.w3.org/2000/svg">
  <g fill="none" fill-rule="evenodd">
    <rect fill="#7E00F6" width="2000" height="2000" rx="1000"/>
    <g fill="#FFF" fill-rule="nonzero">
      <path d="M1769.579291 798.41424h10v50.420712h-10c-86.4803 0-156.34305 70.050549-156.34305 156.990291 0 86.804535 70.37393 156.990291 156.9903 156.990291h10v50.420712h-10c-91.17834 0-169.5129-59.225868-196.8718-142.124653-27.62121 83.013253-105.62672 142.124653-196.65571 142.124653h-10v-50.420712h10c87.03378 0 156.99029-69.956504 156.99029-156.990291 0-86.804535-70.37392-156.990291-156.99029-156.990291h-10v-50.483408l10.0625.062891c91.19838.56999 168.95955 59.438105 196.17657 142.080799 27.63404-82.990319 105.62815-142.080994 196.64119-142.080994zM674.789644 1203.236246V995.825243h49.089245l.684218 207.411003zM1109.385113 798.41424c114.689718 0 207.411008 92.931533 207.411008 207.411003 0 114.260712-93.1503 207.411003-207.411008 207.411003-114.260711 0-207.411003-93.150291-207.411003-207.411003s93.150292-207.411003 207.411003-207.411003zm0 364.401294c87.033787 0 156.990288-69.956504 156.990288-156.990291 0-86.804535-70.373918-156.990291-156.990288-156.990291-86.804535 0-156.990291 70.373921-156.990291 156.990291 0 86.386538 70.603754 156.990291 156.990291 156.990291zM576.05178 798.41424h263.721683v50.420712H576.05178c-86.386538 0-156.990291 70.603753-156.990291 156.990291 0 114.260712-93.150292 207.411003-207.411004 207.411003h-10v-50.420712h10c86.386538 0 156.990292-70.603753 156.990292-156.990291 0-114.260712 93.150291-207.411003 207.411003-207.411003z"/>
    </g>
  </g>
</svg>
