<svg viewBox="0 0 1990 2000" xmlns="http://www.w3.org/2000/svg" xmlns:xlink="http://www.w3.org/1999/xlink">
  <defs>
    <path d="M0 1000.03704C0 447.740742 445.481483.037037 995.074075.037037 1544.51852.037037 1990 447.740742 1990 1000.03704 1990 1552.22222 1544.51852 2000 995.074075 2000 445.481483 2000 0 1552.22222 0 1000.03704z" id="a"/>
    <linearGradient x1=".000741%" y1="-.001049%" x2=".000741%" y2="256.406662%" id="b">
      <stop stop-color="#EE4037" offset="0%"/>
      <stop stop-color="#C1041B" offset="100%"/>
    </linearGradient>
    <path d="M336.703704 35.814815L13.962963 279.11111c-6.851852 5.148148-8.296296 15-3.148148 22.037037 5.185185 6.814815 15.037037 8.296297 21.851852 3.074074L346.11111 68.074074l452.777776 341.222222H601.185183L277.407407 165.259259c-6.851852-5.148148-16.703703-3.777777-21.888889 3.148149-5.148148 6.962962-3.703703 16.814814 3.148149 22.037037l327.888887 247.074072c2.703704 2.037037 5.962963 3.222225 9.370371 3.222225h249.888892c6.7037 0 12.666666-4.296296 14.740737-10.777779 2.185188-6.407409-.037037-13.444445-5.407404-17.444445L355.481482 35.814815c-2.777778-2.074074-6.037037-3.148148-9.370371-3.148148-3.296296 0-6.592593 1.074074-9.407407 3.148148z" id="d"/>
    <path d="M91.25926 27.185185L22.185184 79.111111c-3.851852 2.962963-6.148148 7.62963-6.148148 12.555556 0 4.888888 2.296296 9.629629 6.148148 12.518518l982.777775 740.777778-223.851848 168.666667-62.814816-47.333334c-6.925925-5.222221-16.666667-3.777779-21.85185 3.074075-5.14815 6.962962-3.777779 16.814812 3.074071 21.962962l72.222225 54.481487c2.85185 2.07407 6.111108 3.11111 9.37037 3.11111 3.296296 0 6.62963-1.03704 9.333334-3.11111l249.888884-188.333337c3.96297-2.925929 6.2963-7.592595 6.2963-12.51852s-2.33333-9.666667-6.2963-12.555555L57.666667 91.666667l52.296296-39.444445c6.925926-5.185185 8.296296-15 3.111111-21.925926-3.037037-4.074074-7.740741-6.333333-12.481482-6.333333-3.259259 0-6.592592 1.074074-9.333333 3.222222z" id="f"/>
    <path d="M31.62963 11.296296c-6.703704 0-12.740741 4.296297-14.851852 10.703704-2.111111 6.407407.074074 13.481482 5.407407 17.555555l499.777777 376.62963c2.703705 2.074073 6.037038 3.111111 9.333334 3.111111 3.259258 0 6.592591-1.037038 9.370371-3.111111l322.14815-242.814815c6.888887-5.222222 8.296295-15.074074 3.07407-22.037037-5.111108-6.888888-14.888887-8.296296-21.85185-3.111111L531.296296 384 78.481482 42.74074h197.851851L596.370371 284c6.925925 5.185185 16.629629 3.777778 21.888887-3.185185 5.14815-6.925926 3.777779-16.740741-3.148146-21.925926L290.777778 14.518519c-2.666667-2.185186-5.962963-3.222223-9.370371-3.222223H31.62963z" id="h"/>
    <path d="M272.074074 35.814815L22.259259 224.185185c-3.925926 2.851852-6.222222 7.555556-6.222222 12.444445 0 5 2.296296 9.666666 6.222222 12.592592l982.703701 740.740741-55.592589 41.851857c-6.851854 5.22222-8.296296 15-3.037038 22.03703 2.962963 4.03704 7.740742 6.18519 12.407409 6.18519 3.296296 0 6.518516-.96296 9.333333-3.07408l72.259255-54.44444c3.96297-2.962966 6.22222-7.66667 6.22222-12.555557 0-5-2.25925-9.592592-6.22222-12.555555L57.666667 236.62963 281.407407 68l68.740741 51.740741c6.888889 5.222222 16.666667 3.814814 21.888889-3.148149 5.111111-6.888888 3.777778-16.703703-3.185185-21.888888l-78.074074-58.88889c-2.740741-2.074073-6.037037-3.148147-9.370371-3.148147-3.259259 0-6.555555 1.074074-9.333333 3.148148z" id="j"/>
  </defs>
  <g fill="none" fill-rule="evenodd">
    <mask id="c" fill="#fff">
      <use xlink:href="#a"/>
    </mask>
    <path fill="url(#b)" fill-rule="nonzero" mask="url(#c)" d="M0 2000h1990.03704V.037037H0z"/>
    <g>
      <g transform="translate(666.666666 296.296292)">
        <mask id="e" fill="#fff">
          <use xlink:href="#d"/>
        </mask>
        <path fill="#FFFFFE" fill-rule="nonzero" mask="url(#e)" d="M-17.296296 465.703704h903.740742V7.62963H-17.296296z"/>
      </g>
      <g transform="translate(481.4815 629.629625)">
        <mask id="g" fill="#fff">
          <use xlink:href="#f"/>
        </mask>
        <path fill="#FFFFFE" fill-rule="nonzero" mask="url(#g)" d="M-9 1074h1080.59259V-1H-9z"/>
      </g>
      <g transform="translate(481.4815 1259.259292)">
        <mask id="i" fill="#fff">
          <use xlink:href="#h"/>
        </mask>
        <path fill="#FFFFFE" fill-rule="nonzero" mask="url(#i)" d="M-9 444.333333h903.14815V-13.740741H-9z"/>
      </g>
      <g transform="translate(481.4815 296.296292)">
        <mask id="k" fill="#fff">
          <use xlink:href="#j"/>
        </mask>
        <path fill="#FFFFFE" fill-rule="nonzero" mask="url(#k)" d="M-9 1085.07408h1080.59259V7.62963H-9z"/>
      </g>
    </g>
  </g>
</svg>
