<svg viewBox="0 0 1999 1999" xmlns="http://www.w3.org/2000/svg">
  <g fill-rule="nonzero" fill="none">
    <path fill="#A02870" d="M210.179415 767.384325L0 977.525968h420.321058z"/>
    <path fill="#80286C" d="M420.2644 1021.41643H.075543l210.084986 210.12276L420.2644 1021.41643"/>
    <path fill="#C42C79" d="M705.344665 736.355052L495.184136 526.213409v420.2644l210.160529-210.122757"/>
    <path fill="#A02870" d="M451.312559 946.477809v-420.2644L241.170916 736.355052l210.141643 210.122757"/>
    <path fill="#C42C79" d="M736.373938 705.306893l210.122757-210.103871h-420.2644l210.141643 210.103871"/>
    <path fill="#FFF" d="M504.287063 473.25779l.018886.018886v-.056657l-.018886.037771"/>
    <path fill="#E4327F" d="M736.373938 241.170916L526.213409 451.331445h420.302172L736.373938 241.170916"/>
    <path fill="#0A8B4B" d="M1231.53919 210.141643L1021.41643 0v420.2644l210.12276-210.122757"/>
    <path fill="#E4327F" d="M977.525968 420.283286V0L767.384325 210.141643z"/>
    <path fill="#632A69" d="M705.344665 1262.54958l-210.160529-210.12276v420.2644l210.160529-210.14164"/>
    <path fill="#80286C" d="M241.189802 1262.54958l210.141643 210.12275v-420.24551l-210.141643 210.12276"/>
    <path fill="#167B55" d="M1262.56846 705.306893l210.14164-210.103871h-420.2644l210.12276 210.103871"/>
    <path fill="#0A8B4B" d="M1052.42682 451.312559h420.28328l-210.14164-210.141643-210.14164 210.141643"/>
    <path fill="#402863" d="M946.534466 1547.57318H526.213409l210.141643 210.16053 210.179414-210.16053"/>
    <path fill="#632A69" d="M736.373938 1293.59773L526.25118 1503.70161h420.226629l-210.103871-210.10388"/>
    <path fill="#FFF" d="M1525.64684 968.404155l.03777.018886.01888-.018886h-.05665"/>
    <path fill="#21695E" d="M1757.7526 736.355052l-210.14165-210.122757v420.226629l210.14165-210.103872"/>
    <path fill="#167B55" d="M1293.59773 736.355052l210.16053 210.141643V526.213409l-210.16053 210.141643"/>
    <path fill="#402863" d="M767.403211 1788.76298l210.122757 210.12276v-420.2644l-210.122757 210.14164"/>
    <g fill="#223160">
      <path d="M1021.41643 1578.640227v420.226629l210.141643-210.103872-210.141643-210.122757M1262.56846 1757.733711l210.160529-210.160528h-420.321057l210.160528 210.160528"/>
    </g>
    <path fill="#1E4561" d="M1262.56846 1293.59773l-210.10387 210.10388h420.20774l-210.10387-210.10388"/>
    <path fill="#245661" d="M1547.62984 1052.42682v420.24551l210.12276-210.12275-210.12276-210.12276"/>
    <path fill="#1E4561" d="M1293.59773 1262.54958l210.16053 210.14164v-420.28329l-210.16053 210.14165"/>
    <path fill="#245661" d="M1788.78187 1231.53919l210.12276-210.14165h-420.24552l210.12276 210.14165"/>
    <path fill="#21695E" d="M1788.78187 767.384325l-210.17941 210.141643h420.33994l-210.16053-210.141643"/>
  </g>
</svg>
