<svg viewBox="0 0 1961 2000" xmlns="http://www.w3.org/2000/svg">
  <path d="M1252 885.411765l29.64706-152.862745-277.72549.470588 39.21568-201.568628h-89.647054C889.317398 632.117156 795.007016 709.958904 684 753.882353L658.823529 885.72549h121.411765s-41.098039 189.41176-54.901961 259.29412c-34.431372 177.88235 51.843138 304.07843 184.470589 304.07843h224.313728l39.21568-168.94118H985.72549c-83.372549 0-78.980392-46.43137-62.745098-128.94117l51.607843-266.196082m896.235295-337.333333c62.03922 51.294117 101.17647 157.411764 87.45098 235.294117l-133.33333 752.235298c-13.96079 78.43137-87.45098 164.70588-163.21569 191.7647l-727.372549 260.47059c-75.764706 27.13726-188.235294 7.45098-250.27451-43.84314L90.117647 1452.07843c-62.039216-51.29412-101.254902-156.86274-87.294118-235.29412l133.333334-752.23529c13.960784-78.431373 87.45098-164.705883 163.215686-191.764706l727.529411-260.54902C1102.66667-14.980392 1215.13725 4.784314 1277.17647 56" fill="#14C8FF" fill-rule="nonzero"/>
</svg>
