<svg viewBox="0 0 2000 2000" xmlns="http://www.w3.org/2000/svg">
  <defs>
    <linearGradient x1=".004618%" y1="-31.63596%" y2="-31.63596%" id="a">
      <stop stop-color="#58B27A" offset="0%"/>
      <stop stop-color="#56AA75" offset="5%"/>
      <stop stop-color="#4A875D" offset="32%"/>
      <stop stop-color="#467A54" offset="46%"/>
      <stop stop-color="#466454" offset="100%"/>
    </linearGradient>
  </defs>
  <g fill-rule="nonzero" fill="none">
    <circle fill="#FFF" cx="1000" cy="1000" r="1000"/>
    <path d="M1469.45245 1295.24496a199.971061 199.971061 0 0 1-40.69164-6.05188c-102.24784-26.94524-143.45822-124.26513-143.45822-124.26513-18.47262-37.46397-28.09798-85.33141-32.24783-135.61959h154.09221V868.126801h-152.73775c3.71758-45.56196 9.2219-85.158501 13.37176-111.123919 4.27467-27.7536 15.38643-54.007856 32.33429-76.397695 101.12392-132.391931 285.79251-72.046109 285.79251-72.046109V441.412104c-271.23919-16.945245-380.02882 115.907781-388.61671 127.0317l-1.32565 1.642651c-68.38617 80.691643-91.93084 202.564842-99.13545 297.838617h-92.68011V425.878963H842.9683v442.247838H699.481268V402.305476H538.32853v465.821325H371.181556v161.181559H538.32853v644.66859h161.152738v-644.66859H842.9683v340.05763h161.18156v-340.05763h93.48703c18.01152 238.55908 165.96542 334.12103 165.96542 334.12103 125.7925 88.44381 355.73487 57.00289 355.73487 57.00289v-125.79251c-19.45245 6.48415-116.51297 2.1902-149.88473.60519z" fill="url(#a)"/>
    <path d="M1001.988473 92.21902c-10.128372 5.624703-21.156884 9.44714-32.59366 11.29683 0 0 5.417867-11.29683 21.729107-12.536023 0 0-25.504323-8.789626-36.801153-21.757925 0 0 21.757925 1.67147 38.040346 13.804034 0 0-24.236312-18.818444-26.311239-48.991354 0 0 26.743515 23.832853 32.997118 46.801153 0 0-9.596542-32.161384 5.014409-61.008646 0 0 11.729107 30.92219 2.103746 61.440922 8.932438-17.731416 22.145694-32.955382 38.443804-44.293948 0 0-2.5072 25.9366-29.654178 46.368876 12.543148-6.182147 26.166648-9.871846 40.115278-10.864553 0 0-19.22191 17.57925-41.815567 19.654179 9.130197.447498 17.706287 4.512588 23.832857 11.29683 0 0-23.40058-.806917-35.100868-11.210375zm194.610948 25.619596c-11.17077 3.093952-22.79388 4.22506-34.35158 3.34294 0 0 7.92507-9.682997 24.0634-7.089337 0 0-22.73775-14.409222-30.66283-29.740634 0 0 20.74928 6.714697 33.7464 22.305475 0 0-19.16426-23.948127-14.14985-53.717579 0 0 20.43227 29.423631 21.15273 53.256484 0 0-1.81556-33.544669 19.16427-58.15562 0 0 4.12104 32.79539-12.36311 60.230548 12.83053-15.162736 29.24448-26.881325 47.75216-34.092219 0 0-8.50144 24.610951-39.71182 38.213257 13.64683-3.070777 27.76012-3.46227 41.5562-1.152738 0 0-22.79539 12.564841-45.24496 9.308357 8.76844 2.563526 16.15313 8.516909 20.51873 16.541787 0 0-22.53602-6.340058-31.46974-19.250721zm206.48415 66.426513c-11.52826.762962-23.10159-.475297-34.20749-3.659942 0 0 9.71182-7.896254 25.01441-2.103746 0 0-19.36599-18.789626-24.0634-35.302594 0 0 18.96253 10.74928 28.55908 28.645533 0 0-13.94813-27.319885-3.05476-55.446686 0 0 14.09222 32.910663 10 56.397695 0 0 4.98559-33.227666 30.4611-53.112392 0 0-2.53603 32.9683-24.2075 56.512968 15.61711-12.269399 34.05252-20.442 53.63113-23.775216 0 0-13.2853 22.391931-46.57061 29.394813 13.98812-.273331 27.89611 2.173536 40.95101 7.204611 0 0-24.87032 7.723343-46.10951 0 8.07468 4.280778 14.11066 11.602767 16.77234 20.345821 0 0-21.03747-10.691643-27.1758-25.100865zm162.56484 113.832853c-11.44161-1.923683-22.46104-5.824365-32.56484-11.527377 0 0 11.26801-5.475504 24.8415 3.659942 0 0-14.55331-22.708933-15.36023-39.884726 0 0 16.02306 14.81268 21.26801 34.582133 0 0-7.31988-29.798271 9.71182-54.755044 0 0 6.16714 35.273776-3.17003 57.204611 0 0 12.44957-31.210374 41.81556-44.726224 0 0-10.02882 31.498559-36.51297 49.452449 18.01195-8.351728 37.82047-12.085634 57.63689-10.864553 0 0-18.06916 18.760807-52.07493 17.95389 13.72935 2.953842 26.75559 8.542109 38.35735 16.455332 0 0-25.9366 1.815562-44.98559-10.547551 6.82425 6.036644 10.9708 14.537076 11.52738 23.631124 0 0-17.78098-15.18732-20.48992-30.634006zm132.24784 135.9366c-10.91523-3.867136-21.07584-9.600763-30.02882-16.945245 0 0 12.04611-3.400576 23.77522 7.982709 0 0-10.28818-24.927954-8.04035-41.959654 0 0 13.1124 17.291066 14.8415 37.636887 0 0-1.95965-30.634006 19.22191-52.103746 0 0-.17292 35.821326-13.22767 55.73487 0 0 17.75216-28.501441 48.99135-36.628242 0 0-15.44668 29.250721-44.66858 42.21902 19.20212-5.04878 39.36174-5.217189 58.64553-.489913 0 0-21.06628 15.273775-54.40922 8.472622 12.90323 5.310491 24.64912 13.082355 34.58213 22.881845 0 0-25.9366-2.881845-42.39193-18.328531 5.7183 7.130892 8.35326 16.249526 7.31988 25.331412 0 0-14.6974-18.097982-14.61095-33.804034zm100.54755 133.112392c-10.03254-5.80324-18.9755-13.312596-26.42651-22.190202 0 0 12.47839-1.123919 21.93084 12.21902 0 0-5.56196-26.397694-.23055-42.708933 0 0 9.71181 19.510086 7.6657 39.711815 0 0 3.71758-30.461095 28.47263-47.694524 0 0-6.7147 35.187319-23.22767 52.363112 0 0 22.68012-24.783862 54.92796-27.0317 0 0-20.51874 25.936599-51.64266 33.342939 19.7667-1.429801 39.57768 2.096555 57.63689 10.259366 0 0-23.51585 11.152738-55.04323-1.67147 11.74129 7.580935 21.90019 17.367923 29.91355 28.818444 0 0-24.92796-7.492795-38.29971-25.936599 4.31142 8.063193 5.22436 17.514251 2.53602 26.253602 0 0-11.26801-20.317003-8.21326-35.73487zm74.0634 185.014409c-8.55933-7.795442-15.69743-17.020358-21.0951-27.262248 0 0 12.42075 1.527378 18.81845 16.570605 0 0 .17291-26.974063 8.81844-41.815562 0 0 5.38905 21.152738-.89337 40.345822 0 0 10.05764-28.991355 37.89625-40.605188 0 0-14.00576 32.9683-33.77521 46.282421 0 0 27.40634-19.423631 59.42363-14.783862 0 0-25.56196 20.979828-57.63689 21.642652 19.66877 2.777122 38.33195 10.424666 54.29395 22.247838 0 0-25.36023 5.9366-53.45822-13.256484 9.85008 9.927097 17.67978 21.671637 23.05476 34.582133 0 0-22.79539-12.59366-31.98847-33.314121 2.50234 8.79415 1.39242 18.223248-3.08358 26.195965 0 0-6.51296-22.420749-.37464-36.829971zm29.51009 180.691643c-6.08287-9.860282-10.40287-20.704181-12.76657-32.04611 0 0 11.52738 4.899136 13.54467 21.123919 0 0 7.57925-25.936599 20.17291-37.723342 0 0-.69164 21.786743-12.04611 38.616714 0 0 17.66571-25.072046 47.63689-28.530259 0 0-22.56484 27.809798-45.24496 35.129683 0 0 31.70029-11.095101 61.18156 2.21902 0 0-30.34582 13.083574-61.26801 4.899135 18.16953 8.075987 34.02312 20.580502 46.10951 36.368877 0 0-25.9366-1.325649-47.69453-27.521614 6.74775 12.256817 11.06318 25.702185 12.70893 39.596541 0 0-18.41498-18.414985-21.55619-40.864553-.01133 9.139868-3.67373 17.89642-10.17291 24.322767 0 0-.51873-23.429395 9.39481-35.590778zm-13.97694 208.35735c-2.94812-11.20613-3.92329-22.83987-2.88185-34.38041 0 0 9.59654 8.06917 6.77234 24.17868 0 0 14.81268-22.53602 30.17291-30.25937 0 0-7.00289 20.63401-22.76657 33.4294 0 0 24.20749-18.84726 53.89049-13.4294 0 0-29.71182 20.02882-53.54467 20.43228 0 0 33.57348-1.35447 57.89625 19.94236 0 0-32.85303 3.68876-60.05764-13.17003 14.95519 13.08465 26.40628 29.69665 33.31412 48.32853 0 0-24.49567-8.81844-37.46397-40.34582 2.88424 13.69265 3.08975 27.81424.60518 41.58502 0 0-12.24783-23.05476-8.64553-45.36023-2.71833 8.6871-8.77071 15.94167-16.82997 20.17291 0 0 6.51297-22.24784 19.53891-31.12392zm-56.10951 210.02882c-1.64294-11.50483-1.26258-23.20827 1.12391-34.58214 0 0 8.64554 9.10663 3.94813 24.78387 0 0 17.29107-20.66283 33.4294-26.57061 0 0-9.33718 19.71182-26.48415 30.57637 0 0 26.2536-15.90778 55.10086-7.08934 0 0-31.70029 16.45533-55.53314 14.09222 0 0 33.48703 2.53602 55.18732 26.51297 0 0-33.05476 0-58.1268-20.02882 13.3889 14.71938 22.88877 32.5502 27.63689 51.8732 0 0-23.31413-11.52738-32.70894-44.29395 1.27949 13.92718-.1493 27.97036-4.20749 41.35447 0 0-9.51009-24.23631-3.40058-46.10951-3.66758 8.36787-10.5251 14.92453-19.04899 18.21326 0 0 9.13545-21.5562 23.08358-28.73199zm-91.00865 156.59942c2.33334-11.3555 6.62399-22.21864 12.68011-32.10375 0 0 5.01441 11.52738-4.63976 24.66859 0 0 23.25648-13.6023 40.34582-13.71758 0 0-15.44669 15.38905-35.27378 19.85591 0 0 30.08646-6.13833 54.26513 11.90202 0 0-35.50432 4.75504-57.0317-5.47551 0 0 30.66283 13.68876 42.99712 43.60231 0 0-31.0951-11.29683-47.95389-38.50144 7.66067 18.33773 10.63199 38.29513 8.64553 58.06916 0 0-18.01153-18.81844-15.82132-52.76657-3.51241 13.52371-9.59843 26.2437-17.92508 37.46398 0 0-.77809-25.9366 12.3343-44.5245-6.27721 6.64695-14.95221 10.50712-24.09222 10.72046 0 0 15.90778-17.14697 31.46974-19.19308zm-127.08934 156.48415c3.03974-11.17644 8.00349-21.73782 14.66859-31.21037 0 0 4.29395 11.75792-6.16715 24.32276 0 0 24.0634-12.16138 41.21038-11.21037 0 0-16.34006 14.40922-36.3977 17.63689 0 0 30.37464-4.23632 53.40058 15.24495 0 0-35.73487 2.53603-56.57061-8.99135 0 0 29.76946 15.56196 40.34583 46.10951 0 0-30.31701-13.19885-45.47551-41.38329 6.48492 18.77668 8.1788 38.87544 4.92796 58.47262 0 0-16.82998-19.88472-12.53603-53.63112-4.31229 13.30335-11.163 25.64442-20.17291 36.34006 0 0 .83574-25.9366 15.07205-43.65994-6.67781 6.23416-15.56861 9.54357-24.69741 9.19308 0 0 16.68588-16.13833 32.39193-17.23343zm-134.3804 102.24784c5.05357-10.42511 11.87929-19.89337 20.17291-27.98271 0 0 2.04611 12.36311-10.57637 22.76657 0 0 25.9366-7.46398 42.59366-3.34294 0 0-18.76081 11.12392-39.04899 10.54755 0 0 30.63401 1.46974 49.65418 24.89914 0 0-35.59078-4.12104-53.91931-19.33718 0 0 26.34006 20.80692 30.95101 52.82421 0 0-27.3487-18.5879-37.0317-48.99136 2.8937 19.64808.83325 39.70779-5.99424 58.35735 0 0-12.85302-22.65129-2.36311-55.01441-6.71475 12.26591-15.74859 23.11043-26.59942 31.93084 0 0 5.76368-25.41787 22.91066-40.08646-7.71087 4.87011-17.04081 6.47693-25.9366 4.46686 0 0 19.71181-12.85302 35.18732-11.03746zm-171.75793 83.83285c6.43008-9.63535 14.49589-18.07179 23.83286-24.92795 0 0 .34582 12.5072-13.60231 21.06628 0 0 26.7147-3.83285 42.6513 2.53602 0 0-20.17291 8.44381-40.11528 5.10087 0 0 30.1441 5.76369 45.76369 31.46974 0 0-34.58213-8.96254-50.77809-26.54179 0 0 23.2853 24.23631 23.42939 56.57061 0 0-24.5245-22.16139-29.94236-53.68876.16668 19.85644-4.62773 39.4402-13.94813 56.97406 0 0-9.59654-24.17867 5.18732-54.75504-8.33136 11.22901-18.76477 20.73261-30.72046 27.98271 0 0 9.07781-24.38041 28.21326-36.57061-8.31515 3.78181-17.79482 4.09296-26.34006.86455 0 0 21.18155-10.02881 36.36887-6.08069zm-195.61959 55.70605c8.2819-8.09903 17.9058-14.70023 28.4438-19.51008 0 0-2.24784 12.30547-17.63689 17.83861 0 0 26.91643 1.70029 41.2392 11.21038 0 0-21.41211 4.14985-40.34582-3.19885 0 0 28.35734 11.70029 38.35734 40.14409 0 0-32.13256-15.87896-44.26513-36.36887 0 0 17.8098 28.47262 11.35447 60.17291 0 0-19.48127-26.7147-18.32853-58.70317-3.89114 19.4792-12.58886 37.67706-25.30259 52.93948 0 0-4.46686-25.67723 16.31124-52.62248-10.45769 9.29753-22.62407 16.47207-35.82133 21.12392 0 0 13.89049-22.01729 35.10087-30.02882-8.90683 2.0008-18.24387.36164-25.9366-4.55331 0 0 22.73775-5.41787 36.82997 1.55619zm-234.063403-4.26513c10.519503-4.84894 21.801677-7.83281 33.342939-8.81844 0 0-6.253602 10.83574-22.59366 10.89337 0 0 24.783862 10.63401 35.072046 24.40922 0 0-21.556196-3.2853-36.916426-16.59942 0 0 22.795389 20.57637 22.622478 50.72046 0 0-24.899135-25.73487-29.452449-49.13545 0 0 7.204611 32.82421-9.538905 60.51874 0 0-9.365994-31.70029 2.507204-61.41211-10.232562 17.0205-24.54446 31.22345-41.642651 41.32565 0 0 4.322767-25.79251 33.14121-44.09222-12.968009 5.22515-26.82589 7.88711-40.806916 7.83862 0 0 20.461095-16.08069 43.227666-16.48415-9.114841-1.09272-17.415131-5.78239-23.054755-13.02594 0 0 23.198847 2.50721 34.092219 13.86167zm-190.489914-45.9366c11.572411-.46628 23.137723 1.08421 34.178675 4.58214 0 0-9.913545 7.63688-25.043228 1.44092 0 0 18.818444 19.27954 23.054755 35.9366 0 0-18.674352-11.26801-27.78098-29.42363 0 0 13.198847 27.69452 1.556196 55.53314 0 0-13.198847-33.31412-8.472622-56.65706 0 0-5.763689 33.05475-31.902018 52.24784 0 0 3.458214-32.88185 25.763689-55.82133-15.954573 11.82759-34.604663 19.49364-54.26513 22.30548 0 0 13.861672-22.04611 47.348704-28.1268-13.984362-.11672-27.813291-2.94514-40.720462-8.32853 0 0 25.043228-7.0317 46.109511 1.23919-7.958528-4.49012-13.798039-11.96843-16.224784-20.7781 0 0 20.634005 11.23919 26.397694 25.85014zm-176.023055-92.21902c11.561122.76985 22.901128 3.53903 33.515851 8.18444 0 0-10.691643 6.54179-25.072047-1.23919 0 0 16.685879 21.18156 19.164266 38.18444 0 0-17.291067-13.17003-24.524496-32.1902 0 0 10.201729 28.81844-4.322767 55.38904 0 0-9.596541-34.58213-2.420749-57.23342 0 0-9.337176 32.24783-37.262248 48.55907 0 0 6.916427-32.33429 31.527378-52.76657-17.120415 10.07869-36.485684 15.72483-56.340058 16.42652 0 0 16.138329-20.43228 50.086455-23.05476-13.89787-1.59919-27.354271-5.87588-39.62536-12.59366 0 0 25.677234-4.35158 45.792507 6.10951-7.442995-5.30648-12.454862-13.36905-13.919308-22.39193 0 0 19.106628 13.51585 23.400576 28.61671zm-153.314121-133.77521c11.422481 1.92729 22.422361 5.82795 32.507205 11.52738 0 0-11.29683 5.41786-24.81268-3.77522 0 0 14.409222 22.76657 15.129683 39.94236 0 0-15.907781-14.89913-21.066283-34.58213 0 0 7.175793 29.82709-10 54.75504 0 0-5.994236-35.30259 3.458214-57.17579 0 0-12.59366 31.15274-42.04611 44.5245 0 0 10.201729-31.46974 36.772334-49.27954-18.036838 8.25225-37.846519 11.87742-57.636887 10.54755 0 0 18.155619-18.64553 52.161383-17.66571-13.655438-3.01073-26.594986-8.64854-38.097983-16.59942 0 0 25.9366-1.67147 44.899136 10.7781-6.845716-6.0446-10.995239-14.57187-11.527378-23.68876 0 0 17.636888 15.21613 20.259366 30.69164zm-112.737752-138.55908c10.027529 5.79847 18.969716 13.29743 26.426513 22.16138 0 0-12.478386 1.15274-21.930836-12.1902 0 0 5.590779 26.36888.259366 42.70894 0 0-9.740634-19.51009-7.723342-39.71182 0 0-3.659943 30.4611-28.414986 47.72334 0 0 6.685879-35.18732 23.054755-52.39193 0 0-22.680115 24.78386-54.927954 27.06052 0 0 20.518732-25.9366 51.642651-33.37176-19.761788 1.44662-39.572266-2.05983-57.636887-10.20173 0 0 23.51585-11.18155 55.043227 1.61384-11.743943-7.58774-21.911089-17.37325-29.942363-28.81845 0 0 24.956773 7.46398 38.328531 25.76369-4.309787-8.0533-5.222819-17.49489-2.536023-26.22478 0 0 11.296829 20.46109 8.357348 35.87896zm-85.965418-158.1268c9.634919 6.4176 18.079775 14.46264 24.956773 23.77522 0 0-12.536023.37464-21.12392-13.54467 0 0 3.89049 26.68588-2.420749 42.65129 0 0-8.645533-20.17291-5.216138-40.11527 0 0-5.590778 30.17291-31.354467 45.85014 0 0 8.876081-34.58213 26.426513-50.83573 0 0-24.178674 23.31412-56.512968 23.57349 0 0 22.103746-24.61095 53.631123-30.08646-19.864545.22921-39.470652-4.51628-57.0317-13.80403 0 0 24.178675-9.683 54.755043 5.07204-11.248636-8.3125-20.78059-18.72523-28.069164-30.66282 0 0 24.438041 9.02017 36.657061 28.09798-3.803706-8.30666-4.135646-17.78771-.922191-26.34006 0 0 10.144093 21.18156 6.224784 36.36888zm-49.971181-180.48991c7.456636 8.89171 13.307744 19.01413 17.291066 29.91354 0 0-12.103746-3.22767-16.397694-18.99135 0 0-3.832854 26.68588-14.409222 40.20173 0 0-2.42075-21.64266 6.397694-39.94237 0 0-13.919308 27.34871-43.083573 35.04323 0 0 18.386167-30.74928 39.79827-41.21037 0 0-29.827089 15.4755-60.893371 6.51296 0 0 28.184438-17.29106 59.971181-13.57348-19.220359-5.45141-36.761161-15.64886-51.008645-29.65418 0 0 25.9366-2.42075 51.152738 20.43227-8.45081-11.18402-14.637549-23.9099-18.213257-37.46397 0 0 20.835735 15.59078 27.146974 37.46397-1.281718-9.04992 1.093006-18.23771 6.599424-25.53314 0 0 3.573487 23.22767-4.351585 36.80116zM93.71758 961.066282c5.589412 10.15179 9.363648 21.201427 11.152737 32.651297 0 0-11.268011-5.504323-12.449567-21.786744 0 0-8.9049 25.446686-21.902018 36.657061 0 0 1.757925-21.700288 13.948127-37.953891 0 0-18.904899 24.149856-48.991354 26.109511 0 0 23.948126-26.657061 46.974063-32.824208 0 0-32.21902 9.481268-61.008645-5.273775 0 0 30.979827-11.527378 61.46974-1.815562-17.707566-9.00077-32.884223-22.285298-44.149856-38.645533 0 0 25.9366 2.622478 46.10951 29.884726-6.098138-12.617255-9.680675-26.301372-10.54755-40.288184 0 0 17.463977 19.308357 19.45245 41.873198.512674-9.146624 4.663602-17.707913 11.527377-23.775216 0 0-1.0951 23.51585-11.585014 35.18732zm34.81268-200.489913c4.066266 10.852691 6.211663 22.330566 6.340057 33.919308 0 0-10.345821-7.0317-9.193083-23.34294 0 0-12.42075 23.919309-26.916427 33.170029 0 0 4.870317-21.239193 19.25072-35.590778 0 0-22.161383 21.210375-52.247838 18.847262 0 0 27.492795-23.054755 51.181556-25.763688 0 0-33.256484 4.755043-59.62536-13.948127 0 0 32.305476-7.0317 61.066282 6.974063-16.219833-11.453433-29.332776-26.765071-38.15562-44.553314 0 0 25.273776 6.282421 41.527378 36.195966-4.266013-13.323691-5.910143-27.347722-4.841498-41.29683 0 0 14.409222 21.585014 13.285302 44.236311 1.764257-8.968358 7.047178-16.856412 14.668588-21.902017 0 0-4.293948 23.025936-16.340057 33.054755zm77.57925-196.599424c.338076 11.586677-1.349113 23.14343-4.98559 34.149856 0 0-7.521614-10.028819-1.12392-25.072046 0 0-19.538905 18.616714-36.224784 22.680115 0 0 11.527378-18.530259 29.740634-27.435158 0 0-27.838616 12.881844-55.533141.893371 0 0 33.458214-12.795389 56.743516-7.809798 0 0-32.997118-6.253602-51.873199-32.507205 0 0 32.824208 3.832853 55.504323 26.397695-11.643443-16.091059-19.091839-34.830907-21.67147-54.524496 0 0 21.873199 14.149856 27.579251 47.694525.265101-13.986736 3.250503-27.788104 8.789625-40.634006 0 0 6.743516 25.158501-1.757925 46.10951 4.579918-7.898597 12.120487-13.64478 20.951009-15.965418 0 0-11.498559 20.432277-26.138329 26.023055zM323.34294 403.89049c-2.06275 11.399958-6.100336 22.352155-11.930836 32.363112 0 0-5.273775-11.354467 4.063401-24.755043 0 0-23.054755 14.149856-40.115274 14.668588 0 0 15.072046-15.734871 34.783862-20.662825 0 0-29.913545 6.829972-54.524496-10.634005 0 0 35.389049-5.590778 57.146974 4.121037 0 0-31.008646-12.9683-44.034582-42.536023 0 0 31.354467 10.547551 48.991354 37.319885-8.064742-18.154597-11.472172-38.034573-9.913544-57.838617 0 0 18.472622 18.357349 17.089337 52.363113 3.173368-13.623441 8.957265-26.502644 17.0317-37.925073 0 0 1.383285 25.9366-11.29683 44.783862 6.128497-6.78164 14.703448-10.846187 23.832853-11.29683 0 0-15.619596 17.579251-31.123919 20.028819zm133.976945-131.729107c-4.414302 10.713231-10.665765 20.573183-18.472622 29.135447 0 0-2.881845-12.21902 9.193083-23.34294 0 0-25.417867 9.020173-42.305475 5.763689 0 0 18.040345-12.21902 38.32853-12.910663 0 0-30.662824.403458-51.066283-21.84438 0 0 35.792508 1.988472 55.01441 16.051873 0 0-27.579251-19.193084-34.092219-50.864553 0 0 28.414985 16.916426 39.913544 46.772334-4.076723-19.439712-3.224723-39.590506 2.478387-58.616715 0 0 14.178674 21.844381 5.763688 54.755043 5.958672-12.650192 14.317004-24.023005 24.610951-33.487031 0 0-4.092219 25.706052-20.461095 41.383285 7.422271-5.331248 16.661661-7.488143 25.677234-5.994236 0 0-18.9049 14.092219-34.582133 13.198847zm145.475504-93.487032c-5.587979 10.150422-12.890784 19.256992-21.585014 26.916427 0 0-1.412104-12.449568 11.700288-22.190202 0 0-26.224784 6.167147-42.680115 1.210375 0 0 19.279539-10.172911 39.510086-8.645533 0 0-30.518732-2.881845-48.32853-27.319885 0 0 35.331412 5.763689 52.881844 21.988472 0 0-25.302593-22.103746-28.299711-54.293948 0 0 26.397694 19.942363 34.582132 50.864554-1.859322-19.669652 1.190474-39.493324 8.876081-57.694525 0 0 11.67147 23.256484-.37464 55.072046 7.319476-11.917071 16.881318-22.301017 28.15562-30.576369 0 0-6.916427 25.100865-24.899136 38.9049 7.95485-4.491095 17.370003-5.631698 26.167147-3.170029 0 0-20.230547 11.642651-35.706052 8.933717zm181.930836-62.074928c-7.912819 8.459432-17.234838 15.4802-27.550432 20.74928 0 0 1.700288-12.420749 16.829971-18.616715 0 0-26.974063-.518732-41.67147-9.394813 0 0 21.181556-5.072046 40.345822 1.469741 0 0-28.818444-10.461095-40.086456-38.472622 0 0 32.766571 14.409222 45.792507 34.43804 0 0-19.020172-27.694524-13.948126-59.62536 0 0 20.634005 25.9366 20.835735 57.838617 3.066717-19.632428 10.991794-38.187014 23.054755-53.976946 0 0 5.561959 25.446686-14.005764 53.256484 10.038601-9.733945 21.871287-17.42666 34.841498-22.651296 0 0-12.853025 22.622478-33.775216 31.527377 8.82234-2.375385 18.227344-1.141432 26.138329 3.429395 0 0-22.449568 6.397694-36.801153.028818z" fill="#467A54"/>
  </g>
</svg>
