<svg viewBox="0 0 1976 1329" xmlns="http://www.w3.org/2000/svg">
  <g fill-rule="nonzero" fill="none">
    <path d="M1885.45457 261.770139c-87.77937-17.634264-157.07225-85.991407-174.94791-172.567669h130.07013c24.7205 0 44.87778 19.831902 44.87778 44.254028v128.313641zm0 716.32331c-137.25632 19.495171-245.89362 126.683131-265.65566 262.068201H356.142463c-19.762036-135.38507-128.399339-242.57303-265.655661-262.068201V351.252953C227.743124 331.757787 336.380427 224.587541 356.142463 89.20247H1619.79891c19.76204 135.385071 128.39934 242.555317 265.65566 262.050483v626.840496zm0 217.796451c0 24.43985-20.15728 44.27175-44.87778 44.27175h-130.07013c17.87566-86.59398 87.16854-154.9334 174.94791-172.58539v128.31364zm-1750.089981 44.27175c-24.720511 0-44.877787-19.8319-44.877787-44.27175v-128.31364c87.779371 17.65199 157.072256 85.99141 174.947916 172.58539H135.364589zM90.486802 133.456498c0-24.422126 20.157276-44.254028 44.877787-44.254028h130.070129c-17.87566 86.576262-87.168545 154.933405-174.947916 172.567669V133.456498zM1840.57679.658968H135.364589C61.131196.658969.749192 60.225565.749192 133.456499V1195.8899c0 73.24866 60.382004 132.81526 134.615397 132.81526H1840.57679c74.25136 0 134.61539-59.5666 134.61539-132.81526V133.456498c0-73.230934-60.36403-132.79753-134.61539-132.79753z" fill="#D9A162"/>
    <path d="M993.25254 228.610634c-246.576311 0-445.633911 196.369497-445.633911 439.616003 0 243.264232 199.0576 439.633723 445.633911 439.633723 246.59428 0 445.65188-196.369491 445.65188-439.633723 0-243.246506-199.0576-439.616003-445.65188-439.616003zm0 78.157894c202.0219 0 366.42408 162.164337 366.42408 361.458109 0 199.311494-164.40218 361.475833-366.42408 361.475833-202.021903 0-366.406111-162.164339-366.406111-361.475833 0-199.293772 164.384208-361.458109 366.406111-361.458109z" fill="#4B8FB9"/>
    <path d="M1164.58939 658.461331h-152.50902V488.481204c0-21.497853-17.83973-39.078951-39.613897-39.078951-21.792138 0-39.613902 17.581098-39.613902 39.078951v189.528461c0 3.899037.988102 6.823311.988102 9.765306-.988102 2.924278-.988102 6.841033-.988102 9.765307 0 21.497853 17.821764 39.078951 39.613902 39.078951h192.122917c21.77417 0 39.6139-17.581098 39.6139-39.078951 0-21.497849-17.83973-39.078947-39.6139-39.078947" fill="#4B8FB9"/>
  </g>
</svg>
