<svg viewBox="0 0 1992 1539" xmlns="http://www.w3.org/2000/svg">
  <g fill="none" fill-rule="evenodd">
    <path d="M995.897436 0H84.102564C49.642368.466096 18.90801 21.785415 6.400587 53.899068c-12.507422 32.113653-4.288505 68.604248 20.7789 92.254778a277.948731 277.948731 0 0 0 27.179487 20l942.051282 671.794872L995.897436 0z" fill="#4896D3"/>
    <path d="M995.897436 1467.69231V0L524.102564 501.538462l388.205128 971.282048c4.073043 12.87062 10.507539 24.87009 18.974359 35.38462 15.981273 19.17451 39.654158 30.25943 64.615385 30.25641v-70.76923z" fill="#94E9F4"/>
    <path fill="#6FD2F2" d="M995.897436 0L524.102564 501.538462l471.794872 336.410256z"/>
    <path d="M995.897436 0h911.794874c34.55339.260217 65.47695 21.50446 78.11532 53.66462 12.63838 32.16016 4.45201 68.773921-20.67942 92.489226a278.974848 278.974848 0 0 1-27.17949 20L995.897436 837.948718V0z" fill="#94E9F4"/>
    <path d="M995.897436 1467.69231V0l472.307694 501.538462L1080 1472.82051c-4.07304 12.87062-10.50754 24.87009-18.97436 35.38462-15.98127 19.17451-39.65416 30.25943-64.615384 30.25641l-.51282-70.76923z" fill="#4896D3"/>
    <path fill="#415369" d="M995.897436 0l472.307694 501.538462-472.307694 336.410256z"/>
  </g>
</svg>
