<svg viewBox="0 0 2000 2000" xmlns="http://www.w3.org/2000/svg">
  <g fill="none" fill-rule="evenodd">
    <path d="M700 0h600c386.59932 0 700 313.400675 700 700v600c0 386.59932-313.40068 700-700 700H700c-386.599325 0-700-313.40068-700-700V700C0 313.400675 313.400675 0 700 0z" fill="#FF3445"/>
    <g fill="#FFF">
      <path d="M230 630h100c22.09139 0 40 17.90861 40 40v70c0 22.09139-17.90861 40-40 40H230c-22.09139 0-40-17.90861-40-40v-70c0-22.09139 17.90861-40 40-40zM570 780v560c0 22.09139-17.90861 40-40 40h-70c-22.09139 0-40-17.90861-40-40V670c0-22.09139 17.90861-40 40-40h310c22.09139 0 40 17.90861 40 40v70c0 22.09139-17.90861 40-40 40H570zM1050 670v670c0 22.09139-17.90861 40-40 40h-70c-22.09139 0-40-17.90861-40-40V670c0-22.09139 17.90861-40 40-40h70c22.09139 0 40 17.90861 40 40zM1292.01074 645.442376l147.77777 189.999999c13.56281 17.437888 10.42143 42.568912-7.01646 56.131714C1425.75073 897.035112 1417.10946 900 1408.21443 900h-78.65108c-12.34362 0-23.99584-5.698914-31.57409-15.442375l-147.777774-190c-13.562802-17.437888-10.421424-42.568912 7.016464-56.131714C1164.249265 632.964888 1172.89054 630 1181.785574 630h78.651076c12.34362 0 23.99584 5.698914 31.57409 15.442375zM1569.3108 992.960173c1.52562 1.458315 2.94608 3.047489 4.24347 4.759621l237.82951 313.859515c5.26796 6.952037 8.1191 15.435483 8.1191 24.157996 0 22.09139-17.90861 40-40 40h-79.71164c-12.47256 0-24.23129-5.817991-31.79805-15.733068l-189.99825-248.963214-195.985 253.428883C1274.43491 1374.265205 1262.75043 1380 1250.36782 1380h-78.868974c-22.09139 0-40-17.90861-40-40 0-8.857007 2.939628-17.463544 8.357881-24.469906l518.133333-670C1665.56509 635.734795 1677.24957 630 1689.63218 630h78.86897c22.09139 0 40 17.90861 40 40 0 8.857007-2.93962 17.463544-8.35788 24.469906L1569.3108 992.960173z"/>
    </g>
  </g>
</svg>
