<svg viewBox="0 0 2000 836" xmlns="http://www.w3.org/2000/svg">
  <g fill="#FFC04E" fill-rule="evenodd">
    <path d="M36.345464 0h218.072781l-36.345463 159.92004H0zM290.763709 0h683.294716L785.062014 835.945664H566.989233L719.829808 159.92004H472.680656L319.84008 835.945664H101.767298zM1010.40389 0l181.72732 414.338285-72.69093 319.84008L937.712962 319.84008zM1912.15399 285.857071c-33.51587 59.489496-82.40383 95.008733-146.66389 106.557711 18.13624 3.637434 136.91567 38.357023 139.29087 141.318351h72.50312l-19.99001 87.956022h-63.37156c-37.20194 142.743494-152.6181 214.16233-346.24847 214.256509-90.23781-.393064-228.13634-.440708-413.69558-.142933L1328.13031 0h350.72363c170.49485 6.14401 256.03443 72.111026 256.61875 197.901049h63.8004l-19.99 87.956022h-67.1291zm-490.37908 186.633956l-47.91638 205.827484h130.25802c107.14576 0 165.29259-36.083994 174.44048-108.251982 7.20284-65.050334-30.15301-97.575502-112.06755-97.575502h-144.71457zm66.99163-319.84008l-42.21709 181.345851h100.22663c94.40158 0 145.63228-31.792074 153.69209-95.376222 6.34612-57.313086-26.56653-85.969629-98.73795-85.969629h-112.96368z"/>
  </g>
</svg>
