<svg viewBox="0 0 2000 2000" xmlns="http://www.w3.org/2000/svg">
  <defs>
    <linearGradient x1="43.215677%" y1="68.13038%" x2="50%" y2="50%" id="a">
      <stop stop-color="#FFF" offset="0%"/>
      <stop stop-color="#F6FAF9" stop-opacity=".069152" offset="100%"/>
    </linearGradient>
    <linearGradient x1="44.848636%" y1="86.5758%" x2="47.478014%" y2="50%" id="b">
      <stop stop-color="#FFF" offset="0%"/>
      <stop stop-color="#F6FAF9" stop-opacity=".069152" offset="100%"/>
    </linearGradient>
    <linearGradient x1="56.229362%" y1="91.210631%" x2="50%" y2="50%" id="c">
      <stop stop-color="#FFF" offset="0%"/>
      <stop stop-color="#F6FAF9" stop-opacity=".069152" offset="100%"/>
    </linearGradient>
    <linearGradient x1="82.307295%" y1="71.739971%" x2="33.448119%" y2="42.225021%" id="d">
      <stop stop-color="#FFF" offset="0%"/>
      <stop stop-color="#F6FAF9" stop-opacity=".069152" offset="100%"/>
    </linearGradient>
  </defs>
  <g fill="none" fill-rule="evenodd">
    <circle fill="#14DA9E" cx="1000" cy="1000" r="1000"/>
    <path d="M1054.19677 1006.23466l290.4826 243.73417-.00869.0124.0097-.01156.31962.26819 2.77998-3.98639c26.71463-32.25486 50.7138-66.66777 71.74995-102.88672l1.18436-1.69832-328.60436-189.66186c-11.07472 19.195457-23.77515 37.334859-37.91316 54.23009z" fill="url(#a)" opacity=".3" transform="translate(238.095238 238.095238)"/>
    <path d="M1323.81277 861.372738l-186.73511-32.995221c3.77186-21.434744 5.75167-43.487087 5.77919-65.996803h380.00029l-.76599 8.856792c-.44069 37.740132-3.69757 75.394094-9.74254 112.64808l-.92004 10.637985-2.78506 10.327946c-7.07549 37.002146-16.89796 73.42694-29.38568 108.971873l-2.11497 7.84304-.60853-.22112-.13896.3821.10563-.39421-356.40925-129.506062c7.41623-20.42579 13.13503-41.665833 16.98591-63.549621l186.73511 32.995221z" fill="url(#b)" opacity=".3" transform="translate(238.095238 238.095238)"/>
    <path d="M1420.71429 383.095l.89944 1.912748c20.42457 35.615246 37.92248 72.827677 52.3232 111.269587l3.20593 6.817665 2.06531 7.701876c12.76401 36.307622 22.74622 73.533943 29.86086 111.356135l2.35954 8.799132-374.12969 65.74963c-3.79979-22.031473-9.49185-43.415292-16.90279-63.978068l178.0524-64.697719-178.0524 64.697719c-7.56295-20.984567-16.91602-41.114059-27.87493-60.204197-11.04946-19.247884-23.7314-37.439167-37.85694-54.384956l290.01504-243.34186-.00843-.012041.00941.011217.31976-.268297 2.78091 3.987716c26.71476 32.254623 50.71334 66.667726 71.74963 102.886273l1.18375 1.69744z" fill="url(#c)" opacity=".3" transform="translate(238.095238 238.095238)"/>
    <path d="M862.819754 201.225321L829.960403 387.01386c-21.553925-3.88705-43.73812-5.96089-66.388974-6.057911V3.809473c43.656361.000051 87.230314 3.769032 130.236571 11.263516l1.906286.164868 1.891647.507257c42.019288 7.543226 83.326961 18.620442 123.483087 33.112785l2.48241.665672 2.3432 1.094428c39.79767 14.66873 78.29541 32.649952 115.08854 53.753931l1.85397.865927 1.69612 1.182821c36.22054 21.036907 70.63491 45.037094 102.89103 71.752952l3.98428 2.778513-.26808.31943.01133.009505-.01212-.008489-243.1737 289.814617c-16.859478-14.280306-34.9772-27.120906-54.163341-38.331976-18.929507-11.061111-38.89904-20.535993-59.726292-28.24234l64.692095-177.370084-64.692095 177.370084c-20.598465-7.621693-42.035907-13.513492-64.135964-17.49903l32.859351-185.788539z" fill="url(#d)" opacity=".3" transform="translate(238.095238 238.095238)"/>
    <path d="M617.281935 1000c0 211.353417 171.364647 382.690418 382.718065 382.690418 117.478459 0 222.57294-52.95324 292.771838-136.27211l289.74495 243.87518c-139.67563 165.77735-348.77961 271.13789-582.516788 271.13789-420.54033 0-761.431379-340.91524-761.431379-761.431378 0-420.54033 340.891049-761.431379 761.431379-761.431379v378.713314c-211.353418 0-382.718065 171.337005-382.718065 382.718065zm713.393713 192.706965c11.16769-19.118454 20.7321-39.287335 28.48937-60.330419l355.4588 131.009612c-15.4385 41.87194-34.47403 81.99546-56.68848 120.03542l-327.25969-190.714613zm52.01477-192.707311c0-22.670554-1.98337-44.874635-5.76352-66.463665l373.03272-65.776049c7.52229 42.95346 11.47176 87.133571 11.47176 132.239714h-378.74096zm-88.51191-244.776676c-14.25677-17.117805-29.98553-32.960588-46.97894-47.359032l244.62499-289.095346c33.81751 28.644854 65.10916 60.16456 93.47759 94.220494l-291.12364 242.233884z" fill="#FFF"/>
  </g>
</svg>
