<svg viewBox="0 0 2000 2000" xmlns="http://www.w3.org/2000/svg">
  <g fill-rule="nonzero" fill="none">
    <circle fill="#30C0F2" cx="1000" cy="1000" r="1000"/>
    <path d="M1516.1745 545.838926l472.95302 601.812084s-49.5302 640.53691-764.29531 826.97986l-265.100666-316.91275L1516.1745 545.838926z" fill="#298EA1" opacity=".4"/>
    <path d="M624.161074 422.818792h758.389266s20.13422 100.671141 127.51677 107.38255c0 0 355.7047 832.214768-510.06711 1187.919468 0 0-798.657718-255.03356-516.778523-1181.208058 0 0 120.805369-6.71141 140.939597-114.09396" fill="#FFF"/>
    <path d="M1325.50336 506.711409s4.09396 82.684564 91.87919 88.456376c0 0 290.67114 711.409395-416.91275 1015.570475 0 0-657.046981-211.54363-426.644297-1003.35571 0 0 90.939598-8.85906 107.382551-100.671141h644.295306z" fill="#F8B642"/>
    <path d="M695.292348 524.372483c-9.521248 34.333009-29.60235 59.946385-56.960493 77.529576-13.618645 8.75276-28.101911 14.902199-42.583093 18.945046-2.862594.799177-5.536515 1.468479-7.99323 2.022573-57.531494 203.413939-58.73889 378.190022-12.525191 526.777662 38.261542 123.01962 107.559622 223.80371 199.108338 304.60983 50.83497 44.86984 105.342606 80.7565 159.822531 108.47915 19.030557 9.68388 36.672368 17.64656 52.459332 23.99387 4.911245 1.97462 9.311313 3.65781 13.158315 5.05921 225.790303-98.65993 361.111293-245.0089 422.018143-426.79979 50.95107-152.07549 46.41609-315.193176 8.01016-469.85555-6.34864-25.566247-13.14374-48.637093-19.92558-68.806258-1.82994-5.442238-3.55451-10.3584-5.14688-14.724921-37.0888-5.296517-63.5668-23.909823-80.02529-51.443228-6.81837-11.406455-11.39529-23.499862-14.20147-35.58176-.01063-.045732-205.08249-.114202-615.215592-.20541zm647.850472-18.534456c.08819 1.781177.57733 5.607486 1.77141 10.748541 2.02634 8.724334 5.32383 17.437159 10.11353 25.449853 12.30964 20.592784 32.25861 33.453356 63.51349 35.508341l11.0151.724234 4.17525 10.218814c.52763 1.291364 1.45797 3.666315 2.7332 7.075165 2.08938 5.585155 4.40764 12.104088 6.89692 19.507198 7.07681 21.046406 14.14036 45.028662 20.72646 71.551189 39.88525 160.619661 44.60012 330.207748-8.79881 489.589468-64.68897 193.07948-209.10724 348.12949-447.84489 450.75294l-6.08382 2.61518-6.303427-2.02946c-4.102605-1.32088-11.461209-3.96513-21.613203-8.04684-16.727261-6.72537-35.315587-15.11526-55.3021-25.2856-56.997418-29.00369-113.967125-66.51133-167.177675-113.47799-96.173253-84.888-169.169432-191.05044-209.462379-320.6015-49.150733-158.03087-47.008878-343.329554 15.365877-557.689402l3.341585-11.48384 11.903783-1.159631c.423651-.041271 1.589176-.197182 3.38556-.512116 3.201988-.561357 6.823148-1.36979 10.752065-2.466662 11.280192-3.149197 22.558302-7.937761 32.983607-14.638148 23.1484-14.877572 38.922849-36.950601 44.589226-68.589799l2.605386-14.547626h675.882645l.83121 16.787691z" fill="#298EA1"/>
    <path d="M1169.46309 885.90604h-19.59732c1.94631-39.395973-6.71141-125.167785-112.68456-148.993288-30.78882-7.395596-63.04388-5.906184-93.020136 4.295302-41.342282 14.7651-90.738255 51.879194-92.550336 144.697986h-14.362416c-30.548908.07379-55.295337 24.82022-55.369127 55.369128v231.543622c.07379 30.54891 24.820219 55.29534 55.369127 55.36913h332.214768c30.5489-.07379 55.29533-24.82022 55.36912-55.36913V941.275168c-.07379-30.548908-24.82022-55.295338-55.36912-55.369128zm-129.19463 261.74497h-73.825507l19.530201-97.5839c-18.959591-8.23679-29.535287-28.64943-25.328879-48.88843 4.206408-20.238998 22.039929-34.747155 42.711425-34.747155 20.67151 0 38.50503 14.508157 42.71143 34.747155 4.20641 20.239-6.36928 40.65164-25.32887 48.88843l19.5302 97.5839zM899.328859 885.90604c1.812081-30.33557 14.563758-102.080537 93.959732-107.38255 0 0 104.765099-5.771812 102.885909 107.38255H899.328859z" fill="#FFF"/>
  </g>
</svg>
