<svg viewBox="0 0 1900 1901" xmlns="http://www.w3.org/2000/svg" xmlns:xlink="http://www.w3.org/1999/xlink">
  <defs>
    <path id="a" d="M0 0v1900h1900V0z"/>
  </defs>
  <g fill="none" fill-rule="evenodd">
    <path d="M0 .666667v1900h1900v-1900z"/>
    <g transform="matrix(1 0 0 -1 0 1900.666667)">
      <mask id="b" fill="#fff">
        <use xlink:href="#a"/>
      </mask>
      <g mask="url(#b)" fill-rule="nonzero">
        <path d="M1900.200003 950.400003c0-524.933337-425.2-950.46667-950.13334-950.46667-524.53333 0-950.199997 425.533333-950.199997 950.46667 0 524.46666 425.666667 949.66666 950.199997 949.66666 524.93334 0 950.13334-425.2 950.13334-949.66666z" fill="#FFD385"/>
        <path d="M1900.200003 950.400003c0-524.933337-425.2-950.46667-950.13334-950.46667-524.53333 0-950.199997 425.533333-950.199997 950.46667h1900.333337z" fill="#D2963F"/>
        <path d="M1733.200003 950.400003C1733.200003 517.4 1383.066663 166.8 950.066663 166.8 517.266666 166.8 167.6 517.4 167.6 950.400003c0 432.53333 349.666666 782.93333 782.466663 782.93333 433 0 783.13334-350.4 783.13334-782.93333z" fill="#FDC05C"/>
        <path d="M1115.600003 940.933333c.73333 37.53333-12.86667 72.8-42.73334 80.6 0-20.26667-1.46666-43.73333-1-64 11.13334-12.53333 23-14 43.73334-16.6zm-52.53334 252.86667c-38.86666 126.46666-78.93333 275.46666-119.93333 399.93333-46.066667-149.8-99.933333-322.93333-147.266667-471.53333 84.466667 22.13333 180.599997 48.4 267.199997 71.6zM1075.800003 677.4c-31.6 30-36.6 64-72.33334 97.733333-43.8 42.333333-121.599997 55-101.13333 148.466667C837.2 938.466663 727.8 873.933333 699.8 806.866666 649.466666 663 598.333333 505.333333 547.866666 360.8c131.6 94.333333 266.066667 209.266666 398.199997 306 128.6-93 257.66667-192.533334 385.6-284.866667 2.8-2.533333 2.53334-15.466667 6.66667-14.533333-34.73333 100.866666-64.46667 211.2-98.26667 313-31.2-4.4-64-3.933334-97.8-3-22 .666666-44.4.666666-66.46666 0zm-509.66667 442.933333c-86.266667 1.66667-180.666667 1.86667-263.6 0 5.6-8.93333 10.666667-19.06667 25.333333-26 82.933334-42.6 161.266667-99.66667 238.266667-153.2v179.2zm592.33333-5.06667c-22.8-10.66666-48.13333-26.66666-71.46666-37.53333 8.06666-33.86667 52.6-23 68.26666-46.26667 4.2-71.2 18.13334-131.999997 35.26667-189.33333 128.66667 90.933333 268.53333 175 397.33333 265.26667 3.2 2.8 3.2 14.6.93334 16.66666-143.26667-3.06666-286.73334-5.8-430.33334-8.8z" fill="#462613"/>
        <path d="M1115.866663 931.933333c.46667 38-6.66666 68.4-36.4 76.26667 0-19.6-8.06666-30.4-7.6-50.66667 11.13334-12.53333 23.2-23.06667 44-25.6zm-52.8 260.93333c-38.86666 127.2-76.66666 255.8-118.13333 379.4-45.6-149.26666-91-299.6-138.666667-448.2 84.8 22.6 170.199997 45.33334 256.799997 68.8zm12.73334-528.599997c-31.6 29.8-36.6 63.333334-72.33334 97.666667-43.8 42.2-121.599997 54.866667-101.13333 148.6C837.2 924.8 727.8 860.533333 699.8 793c-50.333334-143.466667-101.466667-287.666667-151.933334-432.2 131.6 94.333333 266.066667 196.133333 398.199997 293.066666 128.6-93.4 257.66667-192.733333 385.6-284.933333 2.8-2.733333 7.86667-6.4 11.8-5.6-35 100.533333-69.6 201.933333-103.4 303.466667-31.2-3.8-64-3.2-97.8-2.533334-22 .533334-44.4 1.266667-66.46666 0zm-509.66667 443.133337c-86.266667 1.46666-172.4 2.13333-255.066667.26666 4.866667-9.66666 15.933334-13.13333 23.733334-18.66666 77.866666-53.6 154.333333-107.13334 231.333333-161.400003v179.800003zm592.33333-5c-22.8-11.26667-45.13333-21.93334-67.93333-33.06667 8.33333-29.6 49.06667-27.73333 64.73333-50.53333 4.2-71.4 18.13334-132.733337 35.26667-189.800003 128.66667 91.133333 261.06667 183.066663 389.73333 272.933333 3.86667 3 10.8 6.93333 8.53334 8.93333-143.26667-2.86666-286.73334-5.93333-430.33334-8.46666z" fill="#915623"/>
        <path d="M1426.333333 1772.533333l-122.46667-123.33333c20.26667-10.6 41.2-21.86667 61.06667-34.33334l119.8 120.73334c-18.46667 12.46666-46.6 29.73333-58.4 36.93333z" fill="#FFDDA1"/>
        <path d="M1303.866663 1649.200003l-290.06666-289.53334c7.86666-24.66666 14.6-49.53333 21.4-73.93333l329.73333 329.13333c-19.86667 12.46667-40.8 23.73334-61.06667 34.33334z" fill="#FFCF82"/>
        <path d="M1013.800003 1359.666663l-1.06667-1.53333c7-24.53333 14.8-48.6 22.26667-73.33333l.2.93333c-6.8 24.4-13.53334 49.26667-21.4 73.93333z" fill="#674A3A"/>
        <path d="M156.266666 428.066666c3.266667-5.4 5.6-8.8 8.533334-13.266666v.466666c-2.933334 4.2-5.8 8.333334-8.533334 12.8z" fill="#FFF"/>
        <path d="M251 596.6L128.133333 474.066666c6.733333-11.266666 18.2-30.466666 28.133333-46 2.733334-4.466666 5.6-8.6 8.533334-12.8l120.533333 120.266667c-12.2 20-23.6 40.266667-34.333333 61.066667z" fill="#DBAC6B"/>
        <path d="M805.2 1150.533333L251 596.6c10.733333-20.8 22.133333-41.066667 34.333333-61.066667l613.066667 613.2c-30.333334-8.33333-61.2-16.06667-92.133334-24.66667 0 .46667 0 .93334 1.4 1.13334-4.133333-1.13334-8.133333-1.86667-11.8-3 2.8 9.46666 6.266667 18.86666 9.333334 28.33333z" fill="#FFCF82"/>
        <path d="M819.466666 1165.266663L805.2 1150.533333c-3.066667-9.46667-6.533334-18.86667-9.333334-28.33333 3.666667 1.13333 7.666667 1.86666 11.8 3 3.733334 12.93333 7.866667 27.06666 11.8 40.06666z" fill="#674A3A"/>
        <path d="M1012.733333 1358.133333l-193.266667-192.86667c-3.933333-13-8.066666-27.13333-11.8-40.06666-1.4-.2-1.4-.66667-1.4-1.13334 30.933334 8.6 61.8 16.33334 92.133334 24.66667l136.600003 136.06667c-7.46667 24.73333-15.26667 48.8-22.26667 73.33333z" fill="#A77448"/>
        <path d="M1690.133333 1546.400003c6.66667-8.26667 12.86667-16 18.6-24.06667-5.73333 8.06667-11.93333 15.8-18.6 24.06667z" fill="#FFF"/>
        <path d="M1601.400003 1640.933333l-116.93334-118.13333c38.8-35.93334 74.13334-76 105-120.06667l119.26667 119.6c-5.73333 8.06667-11.93333 15.8-18.6 24.06667-33.93333 41.73333-71.2 78.6-88.73333 94.53333z" fill="#FFDDA1"/>
        <path d="M1071.866663 957.533333c-.46666 20.26667 1 43.73333 1 64 29.86667-7.8 43.46667-42.6 42.73334-80.4.26666-2.86667.26666-6.26667.26666-9.2-20.8 2.53333-32.86666 13.06667-44 25.6zm412.6 565.26667l-597.73333-597.533337c5.266667 0 10.533333-.933333 15.6-1.666666-1.4-4.533334-2.066667-8.733334-2.533333-12.8.8-.266667 1.133333-.266667 2.533333-.266667-2.066667-8.066667-2.8-15.466667-3-21.666667 3-51.6 44.73333-70.666666 80.93333-95.133333l179.2 179.8c-1.46666 14.2-2.8 29.6-4.2 45.26667-15.66666 22.8-56.2 20.93333-64.73333 50.53333-1.33333 2.46667-2.8 5.4-3.53333 8.4 23.33333 10.86667 48.66666 26.86667 71.46666 37.53333 48.4 1 97.4 2.06667 146.26667 3l284.73333 284.46667c-30.86666 44.06667-66.2 84.13333-105 120.06667z" fill="#FFCF82"/>
        <path d="M1072.866663 1021.533333c0-20.26667-1.46666-43.73333-1-64-.46666 20.26667 7.6 31.06667 7.6 50.66667 27.2-7.13334 35.26667-33.6 36.13334-67.06667.73333 37.8-12.86667 72.6-42.73334 80.4zm-173.53333-132.666667c-3.666667-57.333333 35.93333-78.533333 72.86667-102.933333l8.06666 7.8c-36.2 24.466667-77.93333 43.533333-80.93333 95.133333zm-12.6 36.4l-13-13.4c2.6.8 5.133333.8 8.133333.8 6.733334 0 12.6-1 17.933334-1.866666.466666 4.333333 1.133333 8.266666 2.533333 12.8-5.066667.733333-10.333333 1.666666-15.6 1.666666z" fill="#674A3A"/>
        <path d="M332.466666 228.066666c14.6-12 29.8-24.666666 45.6-36.466666-15.4 11.533333-31 24-45.6 36.466666z" fill="#FFF"/>
        <path d="M377.866666 416.066666L259 298.533333c10.333333-11.8 38.466666-39.866667 73.466666-70.466667 14.6-12.466666 30.2-24.933333 45.6-36.466666L497.6 311c-43.933334 30.8-83.866667 66.066666-119.733334 105.066666z" fill="#DBAC6B"/>
        <path d="M664.466666 703l-286.6-286.933334C413.733333 377.066666 453.666666 341.8 497.6 311l50.266666 50.666666c38.733334 110 77.6 227.8 116.6 341.333334z" fill="#FFCF82"/>
        <path d="M670.6 709.133333L664.466666 703c-39-113.533334-77.866666-231.333334-116.6-341.333334C588.4 477.733333 629.466666 593.4 670.6 709.133333zm634.133333 409.13333c-48.86667-.66666-97.86667-2-146.26667-3-22.8-10.66666-48.13333-26.66666-71.46666-37.53333.73333-3 2.2-5.93333 3.53333-8.4 22.8 11.13333 45.13333 21.8 67.93333 33.06667 44 .73333 88.93334 1.4 133.4 2.53333l12.86667 13.33333z" fill="#674A3A"/>
        <path d="M1079.466663 1008.200003c0-19.6-8.06666-30.4-7.6-50.66667 11.13334-12.53333 23.2-23.06667 44-25.6 0 2.93333 0 6.33333-.26666 9.2-.86667 33.46667-8.93334 59.93333-36.13334 67.06667zm-197.599997-95.533337c-3 0-5.533333 0-8.133333-.8L670.6 709.133333c-41.133334-115.733333-82.2-231.4-122.733334-347.466667l424.333337 424.266667c-36.93334 24.4-76.533337 45.6-72.86667 102.933333.2 6.2.933333 13.6 3 21.666667-1.4 0-1.533333 0-2.533333.266667-5.333334.866666-11.2 1.866666-17.933334 1.866666zm409.999997 192.266667c-44.46666-1.13333-88.53333-1.8-133.4-2.53333-22.8-11.26667-45.13333-21.93334-67.93333-33.06667 8.53333-29.6 49.06667-27.73333 64.73333-50.53333 1.4-15.66667 2.73334-31.06667 4.2-45.26667l132.4 131.4z" fill="#A77448"/>
      </g>
    </g>
  </g>
</svg>
