<svg viewBox="0 0 1854 1994" xmlns="http://www.w3.org/2000/svg">
  <defs>
    <linearGradient x1="85.355%" y1="20.595144%" x2="14.645%" y2="79.404856%" id="a">
      <stop stop-color="#C79DFC" offset="0%"/>
      <stop stop-color="#40BEFD" offset="100%"/>
    </linearGradient>
    <linearGradient x1="85.355%" y1="19.21978%" x2="14.645%" y2="80.78022%" id="b">
      <stop stop-color="#AC9DFC" offset="0%"/>
      <stop stop-color="#40BEFD" offset="100%"/>
    </linearGradient>
    <linearGradient x1="46.278346%" y1="8.42%" x2="50%" y2="118.985%" id="c">
      <stop stop-color="#71B5FF" offset="0%"/>
      <stop stop-color="#84F1E2" offset="100%"/>
    </linearGradient>
    <linearGradient x1="46.62051%" y1="8.42%" x2="50%" y2="118.985%" id="d">
      <stop stop-color="#71B5FF" offset="0%"/>
      <stop stop-color="#84F1E2" offset="100%"/>
    </linearGradient>
  </defs>
  <g fill-rule="nonzero" fill="none">
    <path d="M352.825688 1944.6422c-300.587156-131.61468-496.568807-841.98165-75.266055-1447.889906C698.899083-109.174312 1277.79817-95.541284 1585.26606 200.880734c307.46788 296.440367 393.72477 816.825686 26.86238 1288.917436-366.84404 472.11009-958.715596 586.42201-1259.302752 454.84403zm88.12844-29.44954c285.706422 105.94495 595.779812 17.30275 1048.568812-533.88991 452.82568-551.192658 301.83486-926.788989 79.90825-1125.504585-221.9266-198.715596-780.715594-158.587156-1202.018346 447.33945C-53.889908 1309.04587 155.247706 1809.24771 440.954128 1915.19266z" fill="url(#a)" opacity=".6" transform="translate(0 -2)"/>
    <path d="M930.458716 1920.0367c-136.220184 52.99082-260 56.97247-375.082569 32.07339-71.853211-7.02752-134.091743-22.93578-181.706422-46.82569-250-125.46789-502.385321-673.8899-81.06422-1279.81651 421.339449-605.889908 979.357795-680.40367 1286.844035-384 307.46789 296.440367 359.63303 810.34862 28.60551 1252.33028-172.55046 230.38532-432.6789 366.49541-677.614683 426.23853h.018349zm0 0c175.119264-68.14679 370.862384-217.33945 595.211004-490.44037 452.80734-551.19266 243.65138-992.880734 72.20184-1151.155963C1318.82569 20.825688 748.513761 148 346.036697 731.651376-56.422018 1315.3211 165.211009 1815.37615 450.917431 1921.3211a766.110262 766.110262 0 0 0 104.458716 30.78899c108.788991 10.6422 239.59633.95413 375.06422-32.07339h.018349z" fill="url(#b)" opacity=".2" style="mix-blend-mode:multiply" transform="translate(0 -2)"/>
    <path d="M696.752294 1901.3211C171.045872 1751.59633-68.678899 1188.77064 17.449541 820.275229 103.559633 451.779817 710.93578 84.036697 1184.16514 316.055046c473.21101 232.055046 733.46789 695.412844 604.11009 1065.724774-129.3578 370.31192-565.81651 669.2477-1091.522936 519.54128zm54.165137-150.11009c455.229359 134.36697 867.431189-67.00918 998.201839-396.73395 130.78899-329.72477-189.06422-729.779812-616.73395-865.688069C704.715596 352.880734 140.311927 523.798165 53.247706 820.238532c-87.045871 296.458718 242.458716 796.587158 697.669725 930.972478z" fill="url(#c)" opacity=".8" transform="translate(0 -2)"/>
    <path d="M31.989576 1007.94495c47.423268 301.08257 351.753543 694.58716 726.432442 805.19266 443.651372 130.95413 824.348622-98.73394 978.844042-395.30275C1607.74312 1788 1063.55963 1993.41284 677.541284 1842.55046c-345.504587-135.04587-647.59633-496.11009-645.551708-834.60551zm238.689323-429.229354C529.045872 377.614679 947.06422 271.045872 1239.2844 411.59633c309.22936 148.733945 502.01835 420.495413 532.29358 700.73395-60.16514-253.688078-308.80734-516.036702-621.00917-619.027528-288.550461-95.211009-646.825691-45.72477-879.889911 85.412844z" fill="url(#d)" opacity=".2" style="mix-blend-mode:multiply" transform="translate(0 -2)"/>
    <g fill="#2F347C">
      <path d="M859.394495 1327.87156h134.422018V791.541285h157.284404V669.192661H702.110091v122.330275h157.284404z"/>
      <path d="M823.174312 1495.211009h208.366972c81.137615 0 119.559633-38.678899 119.559633-120.348623V839.541285H1028.12844v525.009174c0 12.899083-4.275229 17.192661-17.06422 17.192661H843.669724c-12.807339 0-17.06422-4.293578-17.06422-17.192661V839.541285H703.614678v535.339449c0 81.651376 38.440367 120.348624 119.559634 120.348624v-.018349z"/>
    </g>
  </g>
</svg>
