<svg viewBox="0 0 1806 1484" xmlns="http://www.w3.org/2000/svg">
  <g fill="#131116" fill-rule="nonzero">
    <path d="M1424.366105.040197L909.325908 800.794681 394.285712.040197z"/>
    <path d="M287.485386 102.142857l623.651731 969.617363 623.651733-969.617363h264.62824L911.137117 1483.18879 22.857143 102.142857z"/>
    <path d="M628.571429 675.02917v17.08218C405.849314 723.8981 251.428571 793.19818 251.428571 873.57143c0 110.45695 291.654507 200 651.428572 200 359.774067 0 651.428567-89.54305 651.428567-200 0-74.90431-134.12081-140.19111-332.65378-174.45862-7.12867-1.23043-14.34039-2.42088-21.63193-3.57034v-18.19836c10.83419 1.14669 21.57432 2.35431 32.216 3.62154 335.74982 39.98148 573.49829 139.2874 573.49829 255.46292 0 151.48382-404.22292 274.28572-902.857147 274.28572C404.222912 1210.71429 0 1087.91239 0 936.42857c0-122.4318 264.044384-226.12815 628.571429-261.3994z"/>
  </g>
</svg>
