<svg id="svg" version="1.1" width="515" height="515" xmlns="http://www.w3.org/2000/svg" xmlns:xlink="http://www.w3.org/1999/xlink" style="display: block;"><g id="svgg"><path id="path0" d="M348.931 17.885 C 344.218 18.914,339.493 20.224,338.431 20.796 C 337.369 21.367,333.125 23.460,329.000 25.447 C 307.611 35.748,296.390 46.550,286.729 66.138 C 272.112 95.773,272.012 115.203,286.299 150.000 C 288.218 154.675,291.157 162.100,292.830 166.500 C 294.502 170.900,298.150 179.894,300.935 186.487 C 303.721 193.080,306.000 199.046,306.000 199.746 C 306.000 201.195,312.374 216.473,318.126 228.809 C 320.257 233.379,322.000 237.510,322.000 237.988 C 322.000 238.466,322.563 239.452,323.250 240.179 C 323.938 240.905,326.473 244.095,328.885 247.267 C 333.920 253.890,343.414 262.945,349.396 266.831 C 351.653 268.297,354.024 269.989,354.665 270.592 C 355.305 271.194,357.330 272.253,359.165 272.945 C 360.999 273.637,365.131 275.328,368.347 276.701 C 402.434 291.263,448.529 278.614,471.118 248.500 C 474.006 244.650,476.633 241.275,476.957 241.000 C 479.964 238.447,484.501 227.418,488.682 212.500 C 493.244 196.225,492.123 178.193,485.450 160.462 C 484.102 156.883,483.000 153.303,483.000 152.507 C 483.000 151.711,481.927 148.683,480.616 145.780 C 475.762 135.028,468.098 116.311,466.078 110.274 C 464.932 106.850,462.928 101.675,461.625 98.774 C 457.252 89.045,452.106 76.541,450.525 71.806 C 447.339 62.259,436.907 47.989,426.542 39.000 C 405.275 20.554,374.740 12.247,348.931 17.885 M117.500 18.949 C 55.431 29.104,19.931 92.242,45.458 147.081 C 46.845 150.061,47.985 153.156,47.990 153.959 C 47.999 155.302,52.014 165.251,57.490 177.500 C 58.719 180.250,60.950 186.100,62.447 190.500 C 63.945 194.900,68.732 206.882,73.085 217.126 C 77.438 227.370,81.000 236.617,81.000 237.676 C 81.000 238.734,81.376 240.028,81.835 240.550 C 82.294 241.073,83.488 243.750,84.488 246.500 C 85.489 249.250,87.314 253.750,88.544 256.500 C 91.490 263.085,96.366 275.485,97.981 280.500 C 98.689 282.700,100.093 286.300,101.100 288.500 C 104.210 295.291,109.051 307.207,111.258 313.500 C 112.415 316.800,113.906 320.850,114.571 322.500 C 117.916 330.799,126.371 350.853,127.600 353.404 C 128.370 355.001,129.000 357.082,129.000 358.028 C 129.000 359.521,135.327 375.168,140.918 387.500 C 141.915 389.700,143.313 393.300,144.023 395.500 C 145.078 398.762,153.977 421.280,159.437 434.500 C 160.118 436.150,161.406 439.648,162.298 442.272 C 173.057 473.917,218.741 501.319,253.530 496.996 C 269.260 495.042,290.461 486.668,300.500 478.445 C 310.988 469.855,322.000 457.674,322.000 454.665 C 322.000 453.814,322.511 452.802,323.135 452.417 C 325.455 450.983,333.221 432.398,335.176 423.603 C 338.875 406.962,336.503 386.198,328.997 369.500 C 325.924 362.663,322.000 352.699,322.000 351.732 C 322.000 350.810,313.905 331.233,309.379 321.210 C 308.065 318.301,306.565 314.026,306.045 311.710 C 305.526 309.395,304.450 306.150,303.654 304.500 C 301.279 299.570,290.388 272.811,289.003 268.500 C 288.296 266.300,286.511 261.800,285.035 258.500 C 283.560 255.200,281.753 250.925,281.020 249.000 C 280.287 247.075,278.645 243.149,277.370 240.277 C 276.095 237.404,274.751 233.804,274.384 232.277 C 273.739 229.591,268.652 216.696,265.003 208.500 C 262.375 202.595,257.492 190.080,256.031 185.500 C 255.328 183.300,253.962 179.700,252.995 177.500 C 247.008 163.884,241.000 148.983,241.000 147.750 C 241.000 146.956,240.370 145.001,239.600 143.404 C 236.134 136.212,225.000 108.973,225.000 107.684 C 225.000 106.426,218.264 89.931,213.082 78.500 C 212.085 76.300,210.649 72.700,209.891 70.500 C 199.522 40.417,151.174 13.440,117.500 18.949 " stroke="none" fill="#000000" fill-rule="evenodd"></path></g></svg>