<svg viewBox="0 0 2000 2000" xmlns="http://www.w3.org/2000/svg">
  <g fill-rule="nonzero" fill="none">
    <path d="M0 1000C0 447.71525 447.71525 0 1000 0s1000 447.71525 1000 1000-447.71525 1000-1000 1000S0 1552.28475 0 1000zm1460-712.5c-8.5-10-16.5-9.5-26.5 1.5-6.5 7-8.5 19-8.5 47 0 61.5-8 68.5-34.5 31.5-9.5-13.5-20-22.5-26-22.5-5 0-9.5 1-9.5 2a59.000282 59.000282 0 0 1-3 9.5c-1.5 4 4 14.5 13 24 24.5 26.5 31.5 44 34 84.5 2 36.5 1.5 39.5-18 78-26 52-43 94-51 126-6.5 28-8 29.5-22.5 19.5-19-13-60-24-101-27-23-1.5-41.5-2-41.5-.5 0 5 10.5 62 13.5 70.5 2 8.5 6.5 9 43 6 78-6 115-13.5 126-25.5 13.5-15 34-53.5 55.5-106 25-60.5 46-101.5 58-114.5 6-6.5 31.5-19.5 57.5-29.5 36.5-14 46.5-20 46.5-27.5 0-16-15-17-42-3-21.5 11.5-26 12.5-32 6.5-10-10-2.5-21.5 35-53.5 45-38.5 48.5-46 26.5-54.5-16.5-6-28.5 1-42 24.5-14 25.5-38 48-47.5 44s-11-47.5-2.5-81.5c4.5-17 4.5-23.5-.5-29.5zM1032.5 467c-18-7.5-42-8-75-2-79.5 14-103.5 21.5-157 48.5-52.5 26.5-58.5 31-69 52-19 36-17.5 49 5.5 62 35 19.5 43 30.5 43 58 0 13.5-2.5 29-6 34-11.5 18.5 47.5 121.5 103.5 179 18 19 34 39 35.5 45.5 3.5 13-.5 66-8 101-13.32733 65.5228.766894 133.64488 39 188.5 51.5 76 117.5 100.5 181.5 67 32-17 47.5-36.5 61.5-79.5 27.5-83.5 29.5-166.5 6-238-15.5-47-19-68.5-35.5-220.5-15.5-140-19.5-161.5-34-167.5-6-2-18.5-7-27.5-10.5-22.5-8-29.5-21-33-58-3.5-39-9.5-50.5-30.5-59.5zm-462 184.5c-9-7-22-8.5-27-3C536 656 541 682 555 710c16 31.5 18.5 49.5 9 59-13.5 13.5-28 7.5-79.5-34.5-15.5-12.5-34.5-9-34.5 6 0 11.5 22.5 26.5 57.5 37.5 14 4.5 29 12.5 34 18.5 8.5 10 9 11 .5 17-5.5 4-16 5-30 3a111.399999 111.399999 0 0 0-34.5.5c-10.5 2.5-13 6-11.5 17 1.5 12.5 3.5 13.5 21.5 13a279.499931 279.499931 0 0 0 43.5-4.5l23.5-4L593 874c21 19.5 46 46.5 55 60.5 23 34 50 60.5 62 60.5 10.5 0 38.5-34 63.5-77.5 22.5-38.5 25-50.5 19.5-90l-5.5-35-35 58.5c-27.5 46.5-37.5 58.5-46 59-14 0-46-33-61.5-63-15.5-31-15.5-77.5-.5-102 11-18 14-47 5.5-52.5-10-6.5-24.5 8.5-32.5 33.5-5 14.5-10.5 28.5-13 31-6 6.5-14.5-18.5-14.5-44s-9-53-19.5-61.5zm983.5 436c-1-8-5.5-10-21.5-11-24-.5-27.5 0-85 19.5-111 37.5-206.5 97.5-239.5 151-9 14-9 14.5 0 11 70.5-29 168-63.5 170.5-61 4.5 4-92 181.5-104.5 192-15.5 13.5-17.5 22-6.5 31 5.5 5 20 4.5 70-2 105.5-13.5 121.5-11.5 209.5 29 43.5 20 55.5 22 60 10 4-10.5-3.5-19.5-23.5-27.5-44-17-40-34.5 8.5-34.5 27 0 101.5 13.5 123.5 22.5 5 2 13.5-2 22.5-9.5 14-12.5 14.5-13 5-20.5-7.5-5.5-24-7.5-68.5-7.5-49.5 0-60-1.5-70-9.5l-11.5-9.5 16.5-10c9-5.5 38-15 64.5-21 96-21 120.5-32.5 110.5-51-12-22.5-32.5-20.5-107.5 13-44 19.5-85.5 29.5-90 22-8-13 6-30.5 51-64 26-19.5 49-39 50.5-43 3.5-10-12.5-27-26-27-16 0-34 16-60.5 53-13.5 19-31.5 37.5-44 44.5-21.5 12.5-40 16-45 8.5-1-2 7.5-20.5 20-41a298.100528 298.100528 0 0 0 25-48.5c4-15-.5-26.5-10.5-26.5-15 0-31.5 23-37.5 53-3.5 16-8.5 34.5-12 40.5-7.5 14.5-48.5 57.5-71 75-18 13.5-97 48-101 44s5.5-16 98.5-127c31.5-37.5 67.5-79 80-92 31-32.5 51-63.5 49.5-76zm-1231.5 195c-18.5-32-22-35-37.5-36.5-9.564972-.86598-19.165008 1.22857-27.5 6-9 6.5-9 8-2.5 20.5 4 7.5 23 27 42.5 43 53.5 44 87.5 109.5 59 113.5-15.5 2.5-44-14-85-48.5-19.5-17-39.5-30.5-44-30.5-13.5 0-27.5 10-27.5 19.5 0 12 6.5 17 44 32 39.876125 15.75571 76.746522 38.25003 109 66.5 29.5 27.5 26 33.5-18 29-24-2-35-1.5-37.5 3-7.5 12 12.5 21.5 74.5 35.5 34.5 8 72.5 19 84 25 27 14 73.5 58 103 98 23.5 32.5 38 39.5 51 24 3-4 8.5-23 10.5-42s16.5-72 32-117.5c29.5-89 33-114 20.5-154.5-4-13-6-24.5-4-25.5s20.5 1.5 41 5.5c62.5 12 113 6 216.5-25.5 47.5-15 52.5-21 28.5-38-22.5-16-190.5-40-281-40-55 0-58 2-72 45-7.5 23.5-8.5 48.5-9 173.5-.5 80-2 147.5-4.5 149.5-11.5 11.5-34.5-42.5-44-103-6.5-44.5-4-77.5 10.5-123 12.5-39 11-59.5-5.5-64.5-21.5-7-33.5 15-35 64.5-.5 18.5-4 37-7 41.5-6 8-7 8-19.5-.5-19.5-12.5-23.5-27-29-105.5-3-43-7-71.5-10.5-73.5-9-6-31-4.5-37.5 2-8.5 8.5-7.5 28.5 3.5 70 12 45.5 17.5 89 11 89s-49-44-67.5-70c-8.5-12-24.5-38-35.5-57.5z" fill="#399B32"/>
    <g fill="#FFF">
      <path d="M215 96.3s-1.1 8.7 1 13.6c0 0 2.7 4.4 6.3 5.1 0 0 1.6-8.6-1.1-15.5 0 .1-1.1-4-6.2-3.2M142.9 124.8s7.7 4.2 10.6 8.7c0 0 2 4.7.5 8.1 0 0-8-3.7-12-9.9 0 .1-2.6-3.2.9-6.9"/>
    </g>
  </g>
</svg>
