<svg id="svg" version="1.1" width="515" height="515" xmlns="http://www.w3.org/2000/svg" xmlns:xlink="http://www.w3.org/1999/xlink" style="display: block;"><g id="svgg"><path id="path0" d="M374.000 52.048 C 374.000 52.624,372.875 54.138,371.500 55.412 C 369.138 57.602,369.000 58.310,369.000 68.283 C 369.000 74.087,368.727 79.548,368.393 80.418 C 367.409 82.982,364.294 82.308,363.557 79.372 C 363.194 77.926,361.571 75.417,359.949 73.795 C 358.327 72.173,357.000 70.431,357.000 69.923 C 357.000 68.120,352.704 69.035,350.774 71.250 C 348.451 73.916,348.860 80.783,351.428 82.219 C 352.292 82.703,353.000 83.671,353.000 84.369 C 353.000 85.068,354.125 86.618,355.500 87.813 C 356.875 89.009,358.000 90.665,358.000 91.493 C 358.000 92.322,358.418 93.000,358.928 93.000 C 359.438 93.000,360.165 95.475,360.543 98.500 C 360.921 101.525,361.629 104.000,362.115 104.000 C 362.602 104.000,363.000 107.375,363.000 111.500 C 363.000 115.625,362.600 119.000,362.111 119.000 C 361.623 119.000,360.915 120.640,360.539 122.644 C 360.163 124.648,359.213 126.930,358.428 127.715 C 357.642 128.500,357.000 129.911,357.000 130.851 C 357.000 131.790,356.088 133.216,354.973 134.019 C 353.844 134.833,352.681 137.145,352.346 139.240 C 352.015 141.308,351.379 143.000,350.933 143.000 C 350.487 143.000,349.819 145.025,349.448 147.500 C 349.077 149.975,348.379 152.000,347.898 152.000 C 347.417 152.000,346.736 153.800,346.384 156.000 C 346.032 158.200,345.403 160.000,344.986 160.000 C 344.568 160.000,343.923 162.025,343.552 164.500 C 343.181 166.975,342.455 169.000,341.939 169.000 C 341.422 169.000,341.000 170.125,341.000 171.500 C 341.000 173.056,340.433 174.000,339.500 174.000 C 338.675 174.000,338.000 173.586,338.000 173.079 C 338.000 172.573,336.650 171.862,335.000 171.500 C 333.350 171.138,332.000 170.469,332.000 170.014 C 332.000 169.560,329.637 168.866,326.750 168.473 C 323.863 168.080,321.269 167.396,320.987 166.953 C 320.704 166.510,314.898 165.822,308.083 165.423 L 295.693 164.699 296.404 175.099 C 296.795 180.820,297.539 185.650,298.057 185.833 C 298.576 186.017,299.000 187.704,299.000 189.583 L 299.000 193.000 306.500 193.000 C 310.625 193.000,314.000 192.619,314.000 192.154 C 314.000 191.688,319.512 191.011,326.250 190.649 C 332.988 190.287,338.650 189.543,338.833 188.995 C 339.017 188.448,340.704 188.000,342.583 188.000 C 344.462 188.000,346.000 187.550,346.000 187.000 C 346.000 186.450,346.575 186.000,347.278 186.000 C 349.017 186.000,351.816 182.580,352.586 179.515 C 352.933 178.132,353.618 177.000,354.108 177.000 C 354.599 177.000,355.000 176.325,355.000 175.500 C 355.000 174.675,355.414 174.000,355.921 174.000 C 356.427 174.000,357.138 172.650,357.500 171.000 C 357.862 169.350,358.537 168.000,359.000 168.000 C 359.463 168.000,360.138 166.650,360.500 165.000 C 360.862 163.350,361.523 162.000,361.968 162.000 C 362.413 162.000,363.073 160.425,363.434 158.500 C 363.795 156.575,364.520 155.000,365.045 155.000 C 365.570 155.000,366.000 154.127,366.000 153.059 C 366.000 151.991,366.424 150.856,366.942 150.536 C 367.460 150.215,368.187 147.939,368.556 145.477 C 368.925 143.015,369.586 141.000,370.026 141.000 C 370.465 141.000,371.128 139.200,371.500 137.000 C 371.872 134.800,372.550 133.000,373.008 133.000 C 373.466 133.000,374.138 131.650,374.500 130.000 C 374.862 128.350,375.537 127.000,376.000 127.000 C 376.463 127.000,377.117 125.746,377.453 124.213 C 377.790 122.680,379.176 120.592,380.533 119.573 C 381.890 118.554,383.000 117.301,383.000 116.788 C 383.000 115.240,385.600 113.138,388.379 112.441 C 389.821 112.079,391.000 111.382,391.000 110.892 C 391.000 110.401,392.088 110.000,393.417 110.000 C 394.746 110.000,395.993 109.521,396.188 108.935 C 396.383 108.350,398.446 107.616,400.772 107.304 C 403.097 106.992,405.000 106.395,405.000 105.977 C 405.000 105.559,406.179 104.921,407.621 104.559 C 416.447 102.344,413.893 92.080,404.819 93.298 C 402.467 93.613,400.383 94.350,400.188 94.935 C 399.993 95.521,399.244 96.000,398.524 96.000 C 397.803 96.000,396.955 96.675,396.638 97.500 C 396.322 98.325,394.924 99.000,393.531 99.000 C 389.377 99.000,390.275 95.155,395.508 90.532 C 397.979 88.350,400.000 85.793,400.000 84.850 C 400.000 83.906,400.996 82.819,402.214 82.432 C 407.522 80.747,416.081 69.000,412.000 69.000 C 411.450 69.000,411.000 68.377,411.000 67.617 C 411.000 66.087,408.025 65.035,403.641 65.014 C 400.417 64.998,396.044 68.576,396.017 71.250 C 396.008 72.213,395.550 73.000,395.000 73.000 C 394.450 73.000,394.000 73.627,394.000 74.393 C 394.000 75.159,393.325 76.045,392.500 76.362 C 391.675 76.678,391.000 77.626,391.000 78.469 C 391.000 79.311,390.518 80.000,389.929 80.000 C 388.403 80.000,386.382 82.222,385.565 84.797 C 384.755 87.347,383.449 87.592,381.429 85.571 C 379.818 83.961,379.366 71.000,380.920 71.000 C 382.173 71.000,383.387 58.874,382.569 54.518 C 381.918 51.045,374.000 48.762,374.000 52.048 M235.000 105.896 C 235.000 106.389,231.400 107.111,227.000 107.500 C 222.600 107.889,219.000 108.611,219.000 109.104 C 219.000 109.597,217.650 110.000,216.000 110.000 C 214.350 110.000,213.000 110.450,213.000 111.000 C 213.000 111.550,211.988 112.006,210.750 112.014 C 206.932 112.037,204.000 113.168,204.000 114.617 C 204.000 115.426,202.962 116.000,201.500 116.000 C 200.125 116.000,199.000 116.414,199.000 116.921 C 199.000 117.427,197.650 118.138,196.000 118.500 C 194.350 118.862,193.000 119.573,193.000 120.079 C 193.000 120.586,192.325 121.000,191.500 121.000 C 190.675 121.000,190.000 121.450,190.000 122.000 C 190.000 122.550,189.086 123.000,187.969 123.000 C 186.851 123.000,185.689 123.648,185.385 124.439 C 185.081 125.230,183.521 126.166,181.916 126.518 C 180.312 126.871,179.000 127.573,179.000 128.079 C 179.000 128.586,178.394 129.000,177.653 129.000 C 175.635 129.000,172.389 132.170,171.508 135.000 C 171.080 136.375,170.307 137.773,169.789 138.106 C 169.272 138.439,168.598 140.577,168.293 142.856 C 167.987 145.135,167.346 147.000,166.868 147.000 C 163.162 147.000,166.808 156.172,171.047 157.511 C 172.396 157.937,174.228 159.122,175.117 160.143 C 176.007 161.164,177.132 162.008,177.617 162.017 C 178.863 162.042,183.000 166.556,183.000 167.891 C 183.000 168.501,183.450 169.000,184.000 169.000 C 185.464 169.000,185.267 179.744,183.794 180.235 C 182.320 180.727,182.108 194.788,183.559 195.814 C 184.093 196.191,185.423 198.407,186.515 200.739 C 187.607 203.070,188.838 204.982,189.250 204.989 C 189.662 204.995,190.000 205.450,190.000 206.000 C 190.000 206.550,189.438 207.000,188.750 207.000 C 187.354 207.000,182.000 213.303,182.000 214.947 C 182.000 215.526,181.599 216.000,181.108 216.000 C 180.618 216.000,179.934 217.125,179.589 218.500 C 179.244 219.875,178.556 221.000,178.060 221.000 C 177.565 221.000,176.882 222.263,176.543 223.806 C 176.204 225.349,175.043 227.248,173.963 228.027 C 172.883 228.805,172.000 230.031,172.000 230.752 C 172.000 231.473,171.322 232.323,170.494 232.641 C 169.666 232.958,168.709 234.969,168.367 237.109 C 167.772 240.829,162.000 243.422,162.000 239.969 C 162.000 239.402,159.830 236.815,157.177 234.219 C 154.524 231.624,152.063 228.713,151.708 227.750 C 151.353 226.787,150.599 226.000,150.031 226.000 C 149.464 226.000,149.000 225.137,149.000 224.083 C 149.000 223.029,148.482 221.994,147.849 221.783 C 147.216 221.572,146.485 218.834,146.225 215.700 C 145.965 212.565,145.358 210.000,144.876 210.000 C 144.394 210.000,144.000 208.200,144.000 206.000 C 144.000 203.800,144.391 202.000,144.868 202.000 C 145.346 202.000,145.982 200.174,146.281 197.943 C 146.610 195.489,147.712 193.117,149.070 191.939 C 152.009 189.390,152.518 178.387,149.821 175.683 C 147.997 173.854,144.000 173.385,144.000 175.000 C 144.000 175.550,143.375 176.000,142.611 176.000 C 141.816 176.000,140.942 177.495,140.566 179.500 C 140.205 181.425,139.500 183.000,139.000 183.000 C 138.500 183.000,137.776 184.676,137.392 186.725 C 136.778 189.999,135.012 193.000,133.700 193.000 C 133.456 193.000,132.935 187.600,132.541 181.000 C 132.147 174.400,131.414 169.000,130.912 169.000 C 130.411 169.000,129.992 168.438,129.983 167.750 C 129.919 163.141,119.993 160.150,116.466 163.677 C 114.658 165.485,115.132 175.148,117.061 175.833 C 117.578 176.017,118.000 177.493,118.000 179.115 C 118.000 180.813,118.636 182.307,119.500 182.638 C 120.325 182.955,121.000 183.841,121.000 184.607 C 121.000 185.373,121.422 186.000,121.939 186.000 C 123.179 186.000,124.381 194.225,123.531 196.901 C 122.839 199.082,115.000 200.153,115.000 198.067 C 115.000 197.554,113.988 196.817,112.750 196.428 C 111.513 196.040,109.509 194.660,108.298 193.361 C 107.087 192.062,105.624 191.000,105.048 191.000 C 104.471 191.000,103.989 190.438,103.975 189.750 C 103.907 186.263,94.241 183.971,91.655 186.829 C 89.153 189.593,89.853 197.000,92.617 197.000 C 93.377 197.000,94.000 197.450,94.000 198.000 C 94.000 198.550,94.900 199.000,96.000 199.000 C 97.100 199.000,98.000 199.430,98.000 199.955 C 98.000 200.480,99.575 201.205,101.500 201.566 C 103.425 201.927,105.000 202.565,105.000 202.983 C 105.000 203.402,106.800 204.032,109.000 204.384 C 111.200 204.736,113.000 205.420,113.000 205.903 C 113.000 206.387,114.125 207.066,115.500 207.411 C 117.326 207.869,118.000 208.707,118.000 210.519 C 118.000 212.995,117.980 213.000,108.000 213.000 C 102.482 213.000,98.000 213.418,98.000 213.933 C 98.000 214.446,97.100 215.151,96.000 215.500 C 93.366 216.336,93.192 222.666,95.750 224.608 C 97.785 226.153,108.000 226.480,108.000 225.000 C 108.000 224.450,109.575 224.000,111.500 224.000 C 113.425 224.000,115.000 223.550,115.000 223.000 C 115.000 222.450,116.350 222.000,118.000 222.000 C 119.650 222.000,121.000 222.398,121.000 222.883 C 121.000 223.369,121.898 224.001,122.995 224.288 C 124.092 224.575,125.297 225.640,125.673 226.655 C 126.484 228.846,130.155 232.958,131.321 232.983 C 131.773 232.992,132.770 233.562,133.537 234.250 C 138.106 238.348,139.338 239.811,140.269 242.250 C 140.637 243.213,141.353 244.000,141.860 244.000 C 142.368 244.000,143.066 245.125,143.411 246.500 C 143.756 247.875,144.480 249.000,145.019 249.000 C 145.559 249.000,146.000 249.642,146.000 250.427 C 146.000 251.213,147.125 252.740,148.500 253.821 C 149.875 254.903,151.000 256.231,151.000 256.773 C 151.000 260.016,160.874 268.000,164.884 268.000 C 167.148 268.000,169.000 267.599,169.000 267.108 C 169.000 266.618,170.125 265.934,171.500 265.589 C 172.875 265.244,174.000 264.274,174.000 263.433 C 174.000 262.592,175.046 260.913,176.325 259.702 C 177.603 258.491,178.939 256.712,179.293 255.750 C 179.647 254.787,180.401 254.000,180.969 254.000 C 181.536 254.000,182.000 253.086,182.000 251.969 C 182.000 250.851,182.648 249.689,183.439 249.385 C 184.230 249.081,185.166 247.521,185.518 245.916 C 185.871 244.312,186.573 243.000,187.079 243.000 C 187.586 243.000,188.000 241.912,188.000 240.583 C 188.000 239.254,188.479 238.007,189.065 237.812 C 189.650 237.617,190.384 235.554,190.696 233.228 C 191.008 230.903,191.654 229.000,192.132 229.000 C 193.251 229.000,193.268 226.272,192.151 225.833 C 191.684 225.650,191.068 221.450,190.783 216.500 C 190.498 211.550,190.463 208.287,190.705 209.250 C 190.948 210.213,191.514 211.000,191.962 211.000 C 192.410 211.000,193.065 212.532,193.416 214.403 C 193.767 216.275,194.717 218.061,195.527 218.372 C 196.337 218.683,197.000 219.527,197.000 220.248 C 197.000 220.969,197.900 222.207,199.000 223.000 C 200.100 223.793,201.000 224.982,201.000 225.642 C 201.000 226.302,202.912 228.807,205.250 231.208 C 209.822 235.906,211.716 238.479,212.649 241.261 C 212.973 242.229,214.310 243.291,215.619 243.619 C 216.929 243.948,218.000 244.847,218.000 245.618 C 218.000 246.389,218.900 247.790,220.000 248.732 C 221.100 249.674,222.000 251.244,222.000 252.222 C 222.000 253.200,222.450 254.000,223.000 254.000 C 223.550 254.000,224.000 256.025,224.000 258.500 C 224.000 260.975,223.599 263.000,223.109 263.000 C 222.619 263.000,221.895 267.950,221.500 274.000 C 221.105 280.050,220.381 285.000,219.891 285.000 C 219.401 285.000,219.000 291.525,219.000 299.500 C 219.000 307.475,219.391 314.000,219.870 314.000 C 220.348 314.000,220.979 316.123,221.272 318.717 C 221.564 321.312,222.298 323.599,222.902 323.801 C 223.506 324.002,224.000 324.753,224.000 325.469 C 224.000 326.185,224.672 328.060,225.494 329.636 C 226.315 331.211,226.990 333.288,226.994 334.250 C 226.997 335.212,227.401 336.000,227.892 336.000 C 228.382 336.000,229.066 337.125,229.411 338.500 C 229.756 339.875,230.480 341.000,231.019 341.000 C 231.559 341.000,232.000 341.640,232.000 342.423 C 232.000 343.206,233.350 345.196,235.000 346.846 C 236.650 348.496,238.000 350.322,238.000 350.904 C 238.000 351.486,239.125 352.244,240.500 352.589 C 241.875 352.934,243.000 353.552,243.000 353.962 C 243.000 355.100,247.773 360.000,248.881 360.000 C 249.418 360.000,250.536 360.679,251.366 361.509 C 252.196 362.339,255.603 363.303,258.937 363.651 C 263.951 364.175,265.000 364.606,265.000 366.142 C 265.000 367.599,265.756 368.000,268.500 368.000 C 271.244 368.000,272.000 367.599,272.000 366.142 C 272.000 364.601,273.059 364.174,278.214 363.635 C 282.140 363.225,284.736 362.436,285.264 361.493 C 285.723 360.672,286.752 360.000,287.550 360.000 C 288.347 360.000,289.000 359.550,289.000 359.000 C 289.000 358.450,289.734 358.000,290.632 358.000 C 292.767 358.000,298.827 351.539,299.607 348.431 C 299.942 347.094,300.618 346.000,301.108 346.000 C 301.599 346.000,302.000 344.875,302.000 343.500 C 302.000 342.125,302.418 341.000,302.928 341.000 C 303.438 341.000,304.165 338.525,304.543 335.500 C 304.921 332.475,305.601 330.000,306.055 330.000 C 306.508 330.000,307.189 326.850,307.569 323.000 C 307.948 319.150,308.650 316.000,309.129 316.000 C 309.608 316.000,310.000 307.225,310.000 296.500 C 310.000 285.775,309.615 277.000,309.145 277.000 C 308.674 277.000,308.009 273.995,307.666 270.322 C 307.323 266.649,306.647 263.387,306.165 263.072 C 305.683 262.757,304.978 260.813,304.599 258.750 C 304.220 256.688,303.480 255.000,302.955 255.000 C 302.430 255.000,302.000 253.200,302.000 251.000 C 302.000 248.800,301.595 247.000,301.101 247.000 C 300.606 247.000,299.877 241.375,299.480 234.500 C 299.084 227.625,298.412 222.000,297.988 222.000 C 297.564 222.000,296.888 213.675,296.487 203.500 C 296.085 193.325,295.428 185.000,295.026 185.000 C 294.624 185.000,293.984 180.162,293.604 174.250 C 293.224 168.338,292.483 163.350,291.957 163.167 C 291.430 162.983,291.000 161.071,291.000 158.917 C 291.000 156.762,290.550 155.000,290.000 155.000 C 289.450 155.000,289.000 153.682,289.000 152.071 C 289.000 150.461,288.325 148.468,287.500 147.643 C 286.675 146.818,286.000 145.688,286.000 145.133 C 286.000 144.577,283.975 143.819,281.500 143.448 C 279.025 143.077,277.000 142.423,277.000 141.995 C 277.000 141.567,275.882 140.936,274.515 140.593 C 272.982 140.208,271.792 139.018,271.407 137.485 C 271.064 136.118,270.382 135.000,269.892 135.000 C 269.401 135.000,269.000 134.325,269.000 133.500 C 269.000 130.822,270.823 131.916,271.500 135.000 C 271.862 136.650,272.798 138.000,273.579 138.000 C 274.361 138.000,275.000 138.450,275.000 139.000 C 275.000 140.504,278.942 140.201,280.571 138.571 C 282.666 136.476,282.605 119.446,280.500 118.638 C 279.675 118.322,279.000 116.924,279.000 115.531 C 279.000 113.245,278.613 113.000,275.000 113.000 L 271.000 113.000 271.000 117.000 C 271.000 119.200,270.579 121.000,270.063 121.000 C 269.548 121.000,268.945 122.463,268.723 124.250 C 268.476 126.246,268.258 125.281,268.160 121.750 C 268.072 118.588,267.550 116.000,267.000 116.000 C 266.450 116.000,266.000 115.120,266.000 114.045 C 266.000 111.765,261.573 107.000,259.455 107.000 C 258.655 107.000,258.000 106.550,258.000 106.000 C 258.000 105.391,253.500 105.000,246.500 105.000 C 240.175 105.000,235.000 105.403,235.000 105.896 M162.000 161.423 C 162.000 165.971,166.258 172.000,169.470 172.000 C 170.194 172.000,171.048 172.682,171.367 173.515 C 171.687 174.348,173.085 175.462,174.474 175.990 C 175.863 176.518,177.000 177.637,177.000 178.475 C 177.000 181.016,181.663 180.386,182.370 177.750 C 184.113 171.247,180.533 164.573,174.228 162.572 C 173.059 162.201,171.839 161.069,171.518 160.057 C 170.918 158.167,168.221 157.038,164.250 157.014 C 162.254 157.002,162.000 157.499,162.000 161.423 M402.487 290.020 C 402.154 290.559,399.910 291.000,397.500 291.000 C 395.090 291.000,392.867 291.406,392.561 291.902 C 392.254 292.397,389.303 293.117,386.002 293.500 C 382.701 293.883,380.000 294.551,380.000 294.985 C 380.000 295.418,377.975 296.077,375.500 296.448 C 373.025 296.819,371.000 297.540,371.000 298.049 C 371.000 298.559,369.200 299.264,367.000 299.616 C 364.059 300.086,363.000 300.730,363.000 302.048 C 363.000 303.227,361.973 304.067,360.000 304.500 C 358.350 304.862,357.000 305.523,357.000 305.968 C 357.000 306.413,355.425 307.073,353.500 307.434 C 351.575 307.795,350.000 308.484,350.000 308.966 C 350.000 309.447,348.650 310.138,347.000 310.500 C 345.350 310.862,344.000 311.537,344.000 312.000 C 344.000 312.463,342.650 313.138,341.000 313.500 C 339.350 313.862,338.000 314.573,338.000 315.079 C 338.000 315.586,337.325 316.000,336.500 316.000 C 335.675 316.000,335.000 316.441,335.000 316.981 C 335.000 317.520,333.908 318.236,332.572 318.571 C 331.237 318.906,329.901 319.815,329.604 320.590 C 329.306 321.366,328.197 322.000,327.138 322.000 C 326.080 322.000,324.955 322.675,324.638 323.500 C 324.322 324.325,323.599 325.000,323.031 325.000 C 321.838 325.000,314.000 332.617,314.000 333.777 C 314.000 334.205,312.705 335.691,311.123 337.079 C 309.541 338.468,307.930 341.043,307.544 342.802 C 307.157 344.561,306.427 346.000,305.921 346.000 C 305.414 346.000,305.000 346.675,305.000 347.500 C 305.000 348.500,306.000 349.000,308.000 349.000 C 309.650 349.000,311.000 348.608,311.000 348.128 C 311.000 347.648,312.800 346.968,315.000 346.616 C 317.200 346.264,319.000 345.589,319.000 345.116 C 319.000 344.643,320.800 343.968,323.000 343.616 C 325.200 343.264,327.000 342.532,327.000 341.988 C 327.000 341.445,328.125 341.000,329.500 341.000 C 330.875 341.000,332.000 340.600,332.000 340.111 C 332.000 339.623,333.575 338.927,335.500 338.566 C 337.425 338.205,339.000 337.480,339.000 336.955 C 339.000 336.430,340.125 336.000,341.500 336.000 C 342.965 336.000,344.000 335.426,344.000 334.614 C 344.000 333.737,345.655 332.979,348.500 332.552 C 350.975 332.181,353.000 331.455,353.000 330.939 C 353.000 330.422,353.450 330.000,354.000 330.000 C 355.596 330.000,355.155 334.727,353.500 335.362 C 352.675 335.678,352.000 336.626,352.000 337.469 C 352.000 338.311,351.608 339.000,351.128 339.000 C 350.648 339.000,349.968 340.800,349.616 343.000 C 349.264 345.200,348.580 347.000,348.097 347.000 C 347.613 347.000,346.934 348.125,346.589 349.500 C 346.244 350.875,345.556 352.000,345.060 352.000 C 344.565 352.000,343.862 353.350,343.500 355.000 C 343.138 356.650,342.427 358.000,341.921 358.000 C 341.414 358.000,341.000 358.675,341.000 359.500 C 341.000 360.325,340.608 361.000,340.128 361.000 C 339.648 361.000,338.968 362.800,338.616 365.000 C 338.264 367.200,337.567 369.000,337.068 369.000 C 336.568 369.000,335.862 370.350,335.500 372.000 C 335.138 373.650,334.463 375.000,334.000 375.000 C 333.537 375.000,332.852 376.396,332.478 378.102 C 331.699 381.649,328.749 385.000,326.406 385.000 C 325.530 385.000,324.577 385.900,324.290 387.000 C 324.002 388.100,323.369 389.000,322.883 389.000 C 322.398 389.000,322.000 390.125,322.000 391.500 C 322.000 392.875,322.450 394.000,323.000 394.000 C 323.550 394.000,324.000 395.076,324.000 396.392 C 324.000 399.581,326.740 400.185,337.460 399.361 C 343.647 398.886,346.000 398.332,346.000 397.352 C 346.000 396.345,347.784 396.000,353.000 396.000 C 357.000 396.000,360.000 395.571,360.000 395.000 C 360.000 394.400,364.000 394.000,370.000 394.000 C 376.000 394.000,380.000 394.400,380.000 395.000 C 380.000 395.550,381.350 396.000,383.000 396.000 C 384.989 396.000,386.000 396.501,386.000 397.488 C 386.000 398.451,387.412 399.202,390.000 399.616 C 392.200 399.968,394.000 400.612,394.000 401.048 C 394.000 401.484,395.350 402.138,397.000 402.500 C 398.650 402.862,400.000 403.467,400.000 403.844 C 400.000 404.567,407.371 408.000,408.924 408.000 C 409.424 408.000,409.998 408.494,410.199 409.098 C 410.400 409.701,413.557 410.436,417.213 410.729 L 423.860 411.263 424.553 407.570 C 425.334 403.404,423.287 400.612,418.585 399.432 C 417.163 399.075,416.000 398.382,416.000 397.892 C 416.000 397.401,415.325 397.000,414.500 397.000 C 413.675 397.000,413.000 396.373,413.000 395.607 C 413.000 394.841,412.325 393.955,411.500 393.638 C 410.675 393.322,410.000 392.599,410.000 392.031 C 410.000 391.464,410.675 391.000,411.500 391.000 C 412.325 391.000,413.000 390.550,413.000 390.000 C 413.000 389.444,415.667 389.000,419.000 389.000 C 422.300 389.000,425.000 389.385,425.000 389.856 C 425.000 390.327,428.712 391.020,433.250 391.396 C 437.788 391.773,441.650 392.512,441.833 393.040 C 442.017 393.568,443.254 394.000,444.583 394.000 C 445.913 394.000,447.000 394.450,447.000 395.000 C 447.000 395.566,449.878 396.000,453.633 396.000 C 461.253 396.000,464.012 394.027,463.985 388.597 C 463.958 383.183,463.852 383.152,443.907 382.814 C 427.987 382.545,425.109 382.257,423.640 380.786 C 421.184 378.326,424.355 375.369,430.428 374.459 C 432.943 374.081,435.000 373.401,435.000 372.947 C 435.000 372.493,438.150 371.811,442.000 371.431 C 445.850 371.052,449.000 370.394,449.000 369.969 C 449.000 369.544,451.700 368.883,455.000 368.500 C 459.815 367.941,461.000 367.454,461.000 366.031 C 461.000 364.658,462.129 364.108,466.000 363.594 C 468.750 363.230,471.000 362.497,471.000 361.966 C 471.000 361.435,471.575 361.000,472.278 361.000 C 472.981 361.000,474.331 360.095,475.278 358.989 C 477.150 356.801,477.609 353.000,476.000 353.000 C 475.450 353.000,475.000 352.325,475.000 351.500 C 475.000 350.675,474.311 350.000,473.469 350.000 C 472.626 350.000,471.678 349.325,471.362 348.500 C 470.741 346.881,463.000 346.298,463.000 347.870 C 463.000 348.348,460.919 348.974,458.376 349.261 C 455.833 349.548,453.466 350.246,453.116 350.812 C 452.766 351.378,451.247 352.151,449.740 352.529 C 448.233 352.907,447.000 353.618,447.000 354.108 C 447.000 354.599,445.875 355.000,444.500 355.000 C 443.125 355.000,442.000 355.430,442.000 355.955 C 442.000 356.480,440.425 357.205,438.500 357.566 C 436.575 357.927,435.000 358.580,435.000 359.017 C 435.000 359.455,432.750 360.122,430.000 360.500 C 427.250 360.878,425.000 361.595,425.000 362.094 C 425.000 362.592,423.200 363.000,421.000 363.000 C 418.111 363.000,417.000 362.583,417.000 361.500 C 417.000 360.675,417.450 360.000,418.000 360.000 C 418.550 360.000,419.000 359.325,419.000 358.500 C 419.000 357.675,419.675 357.000,420.500 357.000 C 421.333 357.000,422.000 356.111,422.000 355.000 C 422.000 353.883,422.667 353.000,423.510 353.000 C 424.340 353.000,425.790 352.100,426.732 351.000 C 427.674 349.900,428.912 349.000,429.482 349.000 C 430.053 349.000,431.734 347.875,433.217 346.500 C 434.699 345.125,436.319 344.000,436.816 344.000 C 437.313 344.000,438.544 342.902,439.552 341.560 C 440.560 340.218,442.363 338.875,443.559 338.575 C 447.246 337.649,448.312 326.568,444.989 323.722 C 442.822 321.868,435.000 321.302,435.000 323.000 C 435.000 323.550,434.342 324.000,433.539 324.000 C 431.669 324.000,424.000 331.702,424.000 333.579 C 424.000 334.361,423.550 335.000,423.000 335.000 C 422.450 335.000,422.000 335.689,422.000 336.531 C 422.000 337.374,421.325 338.322,420.500 338.638 C 419.675 338.955,419.000 339.819,419.000 340.559 C 419.000 343.153,408.924 352.138,405.368 352.715 C 403.516 353.016,402.000 353.653,402.000 354.131 C 402.000 354.609,401.305 355.000,400.455 355.000 C 398.511 355.000,399.519 347.949,401.641 346.700 C 402.388 346.260,403.000 345.347,403.000 344.671 C 403.000 343.995,403.912 342.784,405.027 341.981 C 406.156 341.167,407.319 338.855,407.654 336.760 C 407.985 334.692,408.606 333.000,409.034 333.000 C 411.125 333.000,411.220 322.854,409.146 320.922 C 406.973 318.897,403.000 318.301,403.000 320.000 C 403.000 320.550,402.425 321.000,401.722 321.000 C 399.983 321.000,397.184 324.420,396.414 327.485 C 396.067 328.868,395.382 330.000,394.892 330.000 C 394.401 330.000,394.000 332.448,394.000 335.441 C 394.000 338.434,393.601 341.129,393.113 341.430 C 392.626 341.731,391.938 343.514,391.586 345.392 C 391.234 347.270,390.283 349.061,389.473 349.372 C 388.663 349.683,388.000 350.420,388.000 351.011 C 388.000 352.176,387.018 353.470,382.673 358.032 C 381.118 359.664,379.461 361.000,378.990 361.000 C 378.520 361.000,377.819 361.995,377.433 363.211 C 376.682 365.579,371.716 371.000,370.299 371.000 C 369.829 371.000,368.674 371.900,367.732 373.000 C 366.790 374.100,365.340 375.000,364.510 375.000 C 363.679 375.000,363.000 375.391,363.000 375.869 C 363.000 376.347,361.391 376.999,359.425 377.318 C 355.207 378.003,350.000 380.172,350.000 381.244 C 350.000 381.660,349.100 382.000,348.000 382.000 C 345.623 382.000,345.431 380.712,347.500 378.643 C 348.325 377.818,349.000 376.799,349.000 376.380 C 349.000 375.960,350.800 373.938,353.000 371.886 C 355.200 369.835,357.000 367.369,357.000 366.407 C 357.000 365.444,359.025 362.717,361.500 360.345 C 363.975 357.974,366.000 355.586,366.000 355.038 C 366.000 354.490,368.409 351.670,371.354 348.771 C 374.299 345.872,377.022 342.511,377.405 341.301 C 377.789 340.092,378.979 338.824,380.051 338.484 C 381.135 338.140,382.000 336.969,382.000 335.846 C 382.000 333.977,384.057 331.342,391.327 323.895 C 392.882 322.303,394.569 321.000,395.077 321.000 C 395.585 321.000,396.000 320.328,396.000 319.506 C 396.000 318.684,398.025 315.958,400.500 313.447 C 402.975 310.936,405.000 308.652,405.000 308.370 C 405.000 308.088,405.675 307.182,406.500 306.357 C 407.325 305.532,408.000 303.764,408.000 302.429 C 408.000 301.093,408.450 300.000,409.000 300.000 C 410.459 300.000,410.225 294.062,408.711 292.679 C 406.133 290.320,403.102 289.026,402.487 290.020 M35.571 344.571 C 33.377 346.766,33.602 352.235,36.000 355.000 C 37.100 356.268,38.000 357.912,38.000 358.653 C 38.000 359.394,38.609 360.000,39.354 360.000 C 41.230 360.000,46.000 364.582,46.000 366.385 C 46.000 367.199,46.922 368.158,48.050 368.516 C 49.996 369.134,57.000 375.463,57.000 376.605 C 57.000 376.901,57.562 377.770,58.250 378.537 C 61.112 381.728,61.792 382.772,62.512 385.077 C 62.929 386.410,63.671 387.759,64.161 388.075 C 66.404 389.523,66.385 399.000,64.139 399.000 C 62.963 399.000,62.000 398.550,62.000 398.000 C 62.000 397.450,60.875 397.000,59.500 397.000 C 57.944 397.000,57.000 396.433,57.000 395.500 C 57.000 394.675,56.358 394.000,55.573 394.000 C 54.787 394.000,53.260 392.875,52.179 391.500 C 51.097 390.125,49.730 389.000,49.141 389.000 C 48.551 389.000,46.726 387.688,45.086 386.084 C 43.445 384.480,41.179 382.874,40.051 382.516 C 38.923 382.158,38.000 381.511,38.000 381.079 C 38.000 375.507,24.649 372.351,20.143 376.857 C 16.162 380.838,19.525 389.000,25.146 389.000 C 26.166 389.000,27.000 389.392,27.000 389.872 C 27.000 390.352,28.800 391.032,31.000 391.384 C 33.200 391.736,35.000 392.468,35.000 393.012 C 35.000 393.555,35.675 394.000,36.500 394.000 C 37.325 394.000,38.000 394.450,38.000 395.000 C 38.000 395.550,38.675 396.000,39.500 396.000 C 40.325 396.000,41.000 396.655,41.000 397.455 C 41.000 398.325,42.405 399.173,44.500 399.566 C 46.425 399.927,48.000 400.623,48.000 401.111 C 48.000 401.600,48.689 402.000,49.531 402.000 C 50.374 402.000,51.322 402.675,51.638 403.500 C 51.955 404.325,52.766 405.000,53.440 405.000 C 54.115 405.000,55.979 406.337,57.583 407.972 C 59.187 409.607,60.832 410.957,61.239 410.972 C 62.616 411.024,66.000 414.437,66.000 415.775 C 66.000 416.798,64.075 417.040,57.659 416.822 C 50.959 416.595,48.991 416.866,47.659 418.198 C 45.819 420.039,45.390 425.000,47.071 425.000 C 48.456 425.000,51.000 427.544,51.000 428.929 C 51.000 429.518,52.260 430.000,53.800 430.000 C 55.340 430.000,57.047 430.447,57.594 430.994 C 58.140 431.540,61.380 432.279,64.794 432.636 C 68.207 432.993,71.000 433.608,71.000 434.003 C 71.000 434.397,73.506 434.979,76.569 435.295 C 79.632 435.611,82.692 436.329,83.369 436.891 C 84.045 437.453,86.462 438.210,88.738 438.574 C 91.014 438.938,93.115 439.858,93.407 440.618 C 93.699 441.378,94.851 442.000,95.969 442.000 C 97.086 442.000,98.000 442.384,98.000 442.854 C 98.000 444.030,102.695 449.000,103.806 449.000 C 105.101 449.000,110.000 453.708,110.000 454.952 C 110.000 455.529,110.675 456.000,111.500 456.000 C 112.352 456.000,113.000 456.897,113.000 458.077 C 113.000 459.219,114.350 461.504,116.000 463.154 C 117.650 464.804,119.000 466.687,119.000 467.340 C 119.000 467.992,120.125 469.370,121.500 470.403 C 122.875 471.435,124.000 472.686,124.000 473.182 C 124.000 476.302,127.985 478.249,133.443 477.796 C 140.486 477.212,140.154 477.700,140.762 467.044 C 141.045 462.070,141.621 458.000,142.041 458.000 C 142.460 458.000,143.117 455.300,143.500 452.000 C 143.883 448.700,144.540 446.000,144.959 446.000 C 145.378 446.000,146.001 443.640,146.342 440.756 C 146.684 437.872,147.422 435.359,147.982 435.173 C 148.542 434.986,149.000 433.746,149.000 432.417 C 149.000 431.088,149.398 430.000,149.885 430.000 C 150.371 430.000,151.079 427.525,151.457 424.500 C 151.835 421.475,152.541 419.000,153.027 419.000 C 153.512 419.000,154.220 417.313,154.599 415.250 C 154.978 413.188,155.786 411.177,156.394 410.783 C 158.025 409.726,157.857 377.786,156.218 377.239 C 155.548 377.016,155.000 376.224,155.000 375.480 C 155.000 373.850,162.068 374.646,163.214 376.405 C 164.182 377.891,200.842 377.852,201.810 376.364 C 202.189 375.780,205.183 374.995,208.462 374.618 C 211.741 374.241,214.666 373.544,214.962 373.068 C 215.258 372.592,218.088 371.880,221.250 371.486 C 224.412 371.092,227.000 370.377,227.000 369.897 C 227.000 369.416,228.800 368.736,231.000 368.384 C 233.954 367.912,235.000 367.272,235.000 365.939 C 235.000 364.712,235.882 364.031,237.750 363.816 C 243.250 363.184,240.210 352.000,234.538 352.000 C 233.784 352.000,232.994 351.481,232.782 350.846 C 232.551 350.154,229.114 349.502,224.199 349.218 C 219.689 348.957,216.000 348.400,216.000 347.981 C 216.000 347.562,210.938 346.891,204.750 346.490 C 198.563 346.090,193.245 345.359,192.933 344.867 C 192.224 343.750,146.800 342.440,141.734 343.390 C 138.910 343.920,137.868 344.678,137.400 346.544 C 137.061 347.895,136.382 349.000,135.892 349.000 C 135.401 349.000,135.000 349.637,135.000 350.417 C 135.000 351.196,134.565 351.983,134.034 352.167 C 133.503 352.350,132.762 356.887,132.387 362.250 C 132.012 367.613,131.321 372.000,130.852 372.000 C 130.384 372.000,130.000 387.075,130.000 405.500 C 130.000 427.167,130.353 439.000,131.000 439.000 C 131.550 439.000,132.000 440.800,132.000 443.000 C 132.000 445.200,131.550 447.000,131.000 447.000 C 130.450 447.000,130.000 447.675,130.000 448.500 C 130.000 451.106,127.247 450.122,126.529 447.260 C 126.151 445.753,125.393 444.243,124.845 443.904 C 124.297 443.565,123.598 441.423,123.293 439.144 C 122.987 436.865,122.346 435.000,121.868 435.000 C 121.391 435.000,121.000 432.788,121.000 430.083 C 121.000 427.290,120.507 425.002,119.859 424.786 C 118.164 424.221,118.060 396.823,119.750 396.254 C 120.437 396.023,121.000 394.772,121.000 393.476 C 121.000 392.179,121.411 390.864,121.913 390.554 C 122.415 390.243,123.130 388.192,123.501 385.995 C 123.872 383.798,124.586 382.000,125.088 382.000 C 125.590 382.000,126.000 379.525,126.000 376.500 C 126.000 373.475,125.657 371.000,125.237 371.000 C 124.818 371.000,124.030 369.988,123.487 368.750 C 121.898 365.129,113.316 364.893,112.424 368.447 C 112.072 369.851,111.382 371.000,110.892 371.000 C 110.401 371.000,110.000 372.350,110.000 374.000 C 110.000 375.650,109.550 377.000,109.000 377.000 C 108.438 377.000,108.000 379.787,108.000 383.360 C 108.000 395.029,107.070 399.000,104.339 399.000 C 102.489 399.000,101.816 398.329,101.354 396.022 C 101.027 394.385,100.138 392.530,99.379 391.900 C 98.621 391.270,98.000 389.685,98.000 388.378 C 98.000 387.070,97.550 386.000,97.000 386.000 C 96.412 386.000,96.000 382.500,96.000 377.500 C 96.000 372.500,95.588 369.000,95.000 369.000 C 94.394 369.000,93.994 364.573,93.985 357.750 C 93.966 344.210,93.762 343.811,86.536 343.211 C 78.665 342.559,76.401 344.914,76.731 353.409 C 76.859 356.682,77.433 359.650,78.008 360.005 C 78.583 360.360,79.335 363.092,79.679 366.075 C 80.024 369.059,80.624 371.725,81.014 372.000 C 82.897 373.329,83.190 389.010,81.318 388.301 C 79.218 387.505,77.000 385.490,77.000 384.378 C 77.000 383.957,74.565 381.254,71.588 378.371 C 68.611 375.488,65.881 372.200,65.520 371.065 C 65.160 369.929,64.481 369.000,64.012 369.000 C 63.543 369.000,62.862 367.650,62.500 366.000 C 62.138 364.350,61.476 363.000,61.029 363.000 C 60.582 363.000,59.913 361.789,59.541 360.309 C 59.170 358.829,58.026 356.890,57.000 356.000 C 55.974 355.110,54.830 353.171,54.459 351.691 C 54.087 350.211,53.382 349.000,52.892 349.000 C 52.401 349.000,52.000 347.927,52.000 346.617 C 52.000 342.823,38.945 341.197,35.571 344.571 " stroke="none" fill="#000000" fill-rule="evenodd"></path></g></svg>