<svg viewBox="0 0 1998 1999" xmlns="http://www.w3.org/2000/svg">
  <path d="M898.865979 5.35567C72.664949 92-296.283505 1094.49485 278.850515 1690.0567c595.175258 616.32474 1630.969075 253.92784 1714.500005-599.85051C2053.68557 473.556701 1516.02577-59.36598 898.865979 5.35567M699.030928 626.360825v167.597938l-166.237114-1.360825-166.237113-1.360825L365.195876 625l-1.360824-166.237113h335.195876v167.597938m438.144332-.072165v167.525773H807.278351V458.762887h329.896909V626.28866m427.83505 0v167.525773h-335.05155V458.762887h335.05155V626.28866m-427.83505 425.25773v164.94846H807.278351V886.597938h329.896909v164.948452m427.83505 0v164.94846h-335.05155V886.597938h335.05155v164.948452m0 422.68041v164.94846h-335.05155v-329.89691h335.05155v164.94845" fill="#4F7BA2" fill-rule="nonzero"/>
</svg>
