<svg viewBox="0 0 1933 2000" xmlns="http://www.w3.org/2000/svg">
  <g fill-rule="nonzero" fill="none">
    <circle fill="#22B24C" cx="956.607495" cy="1690.33531" r="309.664694"/>
    <g transform="translate(0 461.538462)" fill="#CECCCC">
      <circle cx="1607.49507" cy="897.435897" r="278.106509"/>
      <circle cx="207.100592" cy="207.100592" r="207.100592"/>
    </g>
    <circle fill="#22B24C" cx="1280.0789" cy="171.597633" r="171.597633"/>
    <path d="M1726.78501 453.648915c-63.9831-2.694067-125.82174 23.349348-168.59961 71.005917l-.55226.788955c-3.35306 3.944773-6.58778 7.613412-9.6647 11.597633-3.66864 4.773176-7.45562 9.467456-11.55818 13.846154-41.93294 44.575937-141.77515 124.023669-277.31756 57.514793-20.25952-10.031786-38.70974-23.36287-54.59566-39.447732-65.45245-66.275538-154.742-103.545824-247.889545-103.4714-5.798816 0-11.597633 0-17.357002.433925-16.49319.784024-32.976677-1.737453-48.481262-7.416174-77.830375-28.205128-99.684418-92.702169-104.299803-142.011834-2.168604-27.811606 1.873708-55.757457 11.83432-81.814596 24.188324-66.011083 5.664859-140.098905-46.743616-186.959227C699.151657.855006 623.461139-9.297317 560.556532 22.09613c-62.904606 31.393448-100.29682 97.981334-94.358548 168.033279 5.938272 70.051945 54.005634 129.395461 121.297085 149.752248 180.039448 73.648915 121.104537 212.386588 95.976331 257.238659v.433925c-49.12128 61.638514-75.829006 138.145022-75.739645 216.962524a351.676512 351.676512 0 0 0 3.076924 46.311637 5.719889 5.719889 0 0 0 0 1.183432c5.246548 59.644971-1.183432 221.222876-222.44576 226.706116a283.551467 283.551467 0 0 1-39.447732-2.20907 273.805651 273.805651 0 0 0-31.360946-1.69626c-148.004091-.03724-268.497612 118.99538-270.265685 266.98892-1.768074 147.99353 115.847305 269.87083 263.810043 273.36949 147.962737 3.49866 271.207155-112.68339 276.435918-260.59509l.236686.31558v-4.2998-5.56213-3.70809c1.301775-52.07101 22.051282-234.7929 250.690335-208.04734 0 0 76.844182 20.43393 118.343196 20.43393 141.268876-.00232 268.625646-85.10404 322.682446-215.621305 22.16962-50.532544 137.79093-177.514793 337.00197-89.980276a215.306334 215.306334 0 0 0 20.59172 9.74359c79.36815 31.975341 170.14206 13.840399 231.132-46.175882 60.98993-60.01628 80.58322-150.486618 49.88918-230.359029-30.69404-79.87241-105.83118-133.938944-191.31704-137.666273z" fill="#343433"/>
  </g>
</svg>
