<svg xmlns="http://www.w3.org/2000/svg" viewBox="0 0 2000 2000">
  <path d="M1265.57 992.74c0 194.21-166.7 184.74-166.7 184.74V554.73H896.09v623.06s-161.66 1.61-161.66-182.22V554.73H533V979c0 352.45 308.81 365.35 362.73 365.35v68.43H771.11v91.51h124.48v105.22h203.29v-105.18h130v-91.51h-130.21v-67.53c168.82 0 368.78-88.09 368.78-347.31V554.73h-201.88v438z" fill="#fff"/>
  <path d="M1000 0C447.69 0 0 447.69 0 1000s447.69 1000 1000 1000 1000-447.69 1000-1000S1552.21 0 1000 0zm467.45 998c0 259.22-200 347.31-368.78 347.31v67.53h130.22v91.51h-130v105.22h-203.3v-105.24H771.11v-91.51h124.58v-68.43c-53.92 0-362.69-12.9-362.69-365.39V554.73h201.43v440.84c0 183.83 161.66 182.22 161.66 182.22V554.73h202.78v622.76s166.7 9.47 166.7-184.74v-438h201.87V998z" fill="#ffd512"/>
</svg>
