<svg viewBox="0 0 2030 2030" xmlns="http://www.w3.org/2000/svg">
  <g fill="#21A5DE" fill-rule="nonzero">
    <g transform="translate(202.951807 776.445783)">
      <circle cx="491.566265" cy="491.566265" r="168.674699"/>
      <circle cx="814.457831" cy="168.674699" r="168.674699"/>
      <circle cx="1137.3494" cy="491.566265" r="168.674699"/>
      <circle cx="1460.24096" cy="168.674699" r="168.674699"/>
      <circle cx="168.674699" cy="168.674699" r="168.674699"/>
      <circle cx="330.120482" cy="330.120482" r="60.240964"/>
      <circle cx="653.012048" cy="330.120482" r="60.240964"/>
      <circle cx="975.903614" cy="330.120482" r="60.240964"/>
      <circle cx="1298.79518" cy="330.120482" r="60.240964"/>
    </g>
    <path d="M1015 2029.45783C454.73041 2029.45783.542169 1575.26959.542169 1015 .542169 454.73041 454.73041.542169 1015 .542169 1575.26959.542169 2029.45783 454.73041 2029.45783 1015c0 560.26959-454.18824 1014.45783-1014.45783 1014.45783zm0-33.73494c541.6383 0 980.72289-439.08459 980.72289-980.72289 0-541.638297-439.08459-980.722892-980.72289-980.722892-541.638297 0-980.722892 439.084595-980.722892 980.722892 0 541.6383 439.084595 980.72289 980.722892 980.72289z"/>
  </g>
</svg>
