<svg viewBox="0 0 2000 2000" xmlns="http://www.w3.org/2000/svg">
  <path d="M999.295091 2000c561.112819-.70582 999.647359-454.20855 1000.704089-999.82345C2000.70373 448.562 1552.65873.35309 1001.40855.000182 448.397182-.352728 0 446.797455 0 998.764909 0 1551.79109 446.988182 1999.64709 999.295091 2000zm-407.537636-542.79155c338.029636.23528 675.941905 0 1013.736725-.70581-175.766 245.27963-550.54573 392.09454-908.065816 232.57454-369.143909-164.46091-516.378819-575.26027-412.116728-902.770362h12.328182c205.471364-.117636 411.060182 0 616.766364.352909 7.746545.803637 15.132909-3.466091 18.316182-10.587636 39.450545-70.584091 79.605456-140.815182 119.408186-211.399273 2.8179-4.588 5.28363-9.528818 8.806-16.234363H408.242182c-.352273-1.058728-1.056727-1.764546-1.409-2.823364 14.441818-16.940182 28.179-34.586182 43.325182-50.820546 115.533545-124.933818 256.428181-203.987909 423.740545-233.633272 168.016821-29.645273 328.284541-4.940909 480.450641 72.701636 61.25972 30.822727 117.63909 70.543182 167.31236 117.875455 110.60227 105.876 185.62864 232.574545 219.79564 382.565636 28.40372 123.859364 25.13245 252.89945-9.51037 375.15436-1.76118 6.70546-4.22691 9.52882-11.97609 9.52882a667367.353632 667367.353632 0 0 0-686.50909-.35291c-2.46564 0-4.93127 0-9.51036-.35291 126.80518-223.398633 252.55363-445.385451 379.35881-669.136996h-13.03272c-91.22928 0-182.81082 0-274.04-.353-5.87409-.669455-11.47964 2.642727-13.73728 8.117272a144151.014025 144151.014025 0 0 1-234.941814 414.328455 307824.073491 307824.073491 0 0 0-268.756454 472.913269c-2.113455 3.52928-4.226909 7.76428-7.044727 13.05809zm1149.347815 172.5781l-131.032-133.40391c240.22537-297.159 230.36273-711.134549-2.46563-991.000458 44.38181-44.820909 89.11581-89.641818 134.90663-135.874364 146.88264 178.224818 225.43137 379.742364 231.06718 609.140637 7.04473 278.454185-105.6709 510.322815-232.47618 651.138095z" fill="#E5692C" fill-rule="evenodd"/>
</svg>
