<?xml version="1.0" encoding="UTF-8"?>
<svg width="136px" height="90px" viewBox="0 0 136 90" version="1.1" xmlns="http://www.w3.org/2000/svg" xmlns:xlink="http://www.w3.org/1999/xlink">
    <!-- Generator: Sketch 50.2 (55047) - http://www.bohemiancoding.com/sketch -->
    <title>kyberswap</title>
    <desc>Created with Sketch.</desc>
    <defs></defs>
    <g id="Landing-Page" stroke="none" stroke-width="1" fill="none" fill-rule="evenodd">
        <g id="Landing-Page-5" transform="translate(-859.000000, -1191.000000)">
            <g id="kyberswap" transform="translate(859.000000, 1191.000000)">
                <g id="Kyber-Network-Outlined-Logo-Black">
                    <path d="M27.4990914,0.93122715 L1.76053696,20.5987446 C0.644703675,21.4430572 0,22.7591916 0,24.1746568 L0,65.8688004 C0,67.259433 0.644703675,68.6004001 1.76053696,69.4447127 L27.4990914,89.0873974 C29.1108506,90.3042009 31.3425171,90.3042009 32.92948,89.0873974 L58.6680345,69.41988 C59.7838678,68.5755674 60.4285714,67.259433 60.4285714,65.8439677 L60.4285714,24.1498241 C60.4285714,22.7591916 59.7838678,21.4182245 58.6680345,20.5739118 L32.92948,0.93122715 C31.3425171,-0.31040905 29.1108506,-0.31040905 27.4990914,0.93122715 Z M22.7382027,48.36173 L55.8164605,67.3587639 L30.8961838,86.3806305 L22.7382027,48.36173 Z M30.9209801,3.63799407 L55.8164605,22.6598607 L22.7382027,41.6568945 L30.9209801,3.63799407 Z M23.6804619,45.0093123 L57.0562753,25.8136166 L57.0562753,64.1801752 L23.6804619,45.0093123 Z M3.37229615,23.6035042 L27.0775544,5.50044837 L18.5972214,45.0093123 L27.0775544,84.5181762 L3.37229615,66.4151204 L3.37229615,23.6035042 Z" id="Shape" fill="#EF8102" fill-rule="nonzero"></path>
                    <path d="M86.804,31.629 L93.209,39 L90.458,39 L84.032,31.629 L89.849,25.14 L92.579,25.14 L86.804,31.629 Z M83.969,39 L81.743,39 L81.743,25.14 L83.969,25.14 L83.969,39 Z M98.6503333,40.176 C98.2163311,41.170005 97.6948363,41.8909978 97.0858333,42.339 C96.4768303,42.7870022 95.7313377,43.011 94.8493333,43.011 C94.5693319,43.011 94.2823348,42.9935002 93.9883333,42.9585 C93.6943318,42.9234998 93.4143346,42.8710004 93.1483333,42.801 L93.1483333,40.932 C93.4003346,40.9600001 93.6243323,40.9809999 93.8203333,40.995 C94.0163343,41.0090001 94.2053324,41.016 94.3873333,41.016 C94.8633357,41.016 95.2868314,40.918001 95.6578333,40.722 C96.0288352,40.525999 96.3543319,40.1200031 96.6343333,39.504 L97.0543333,38.538 L92.9383333,28.689 L95.3113333,28.689 L98.2513333,36.207 L101.317333,28.689 L103.669333,28.689 L98.6503333,40.176 Z M107.577667,29.949 C107.969669,29.4869977 108.463164,29.1230013 109.058167,28.857 C109.65317,28.5909987 110.307663,28.458 111.021667,28.458 C111.74967,28.458 112.421664,28.5944986 113.037667,28.8675 C113.65367,29.1405014 114.189164,29.5184976 114.644167,30.0015 C115.099169,30.4845024 115.452665,31.0549967 115.704667,31.713 C115.956668,32.3710033 116.082667,33.0849962 116.082667,33.855 C116.082667,34.6250038 115.956668,35.3354967 115.704667,35.9865 C115.452665,36.6375033 115.102669,37.2044976 114.654667,37.6875 C114.206664,38.1705024 113.67467,38.5484986 113.058667,38.8215 C112.442664,39.0945014 111.77067,39.231 111.042667,39.231 C110.272663,39.231 109.56917,39.0840015 108.932167,38.79 C108.295163,38.4959985 107.787668,38.0760027 107.409667,37.53 L107.409667,39 L105.372667,39 L105.372667,23.25 L107.577667,23.25 L107.577667,29.949 Z M110.664667,30.474 C110.272665,30.474 109.891168,30.5404993 109.520167,30.6735 C109.149165,30.8065007 108.816668,31.0129986 108.522667,31.293 C108.228665,31.5730014 107.994167,31.9229979 107.819167,32.343 C107.644166,32.7630021 107.556667,33.2669971 107.556667,33.855 C107.556667,34.4430029 107.647666,34.9504979 107.829667,35.3775 C108.011668,35.8045021 108.249665,36.1544986 108.543667,36.4275 C108.837668,36.7005014 109.170165,36.8999994 109.541167,37.026 C109.912168,37.1520006 110.286665,37.215 110.664667,37.215 C111.112669,37.215 111.529165,37.1310008 111.914167,36.963 C112.299169,36.7949992 112.631665,36.5640015 112.911667,36.27 C113.191668,35.9759985 113.412166,35.6225021 113.573167,35.2095 C113.734167,34.7964979 113.814667,34.3380025 113.814667,33.834 C113.814667,33.3299975 113.734167,32.8715021 113.573167,32.4585 C113.412166,32.0454979 113.188168,31.6920015 112.901167,31.398 C112.614165,31.1039985 112.278169,30.8765008 111.893167,30.7155 C111.508165,30.5544992 111.098669,30.474 110.664667,30.474 Z M123.015,28.458 C123.701003,28.458 124.337997,28.5769988 124.926,28.815 C125.514003,29.0530012 126.017998,29.3819979 126.438,29.802 C126.858002,30.2220021 127.186999,30.7224971 127.425,31.3035 C127.663001,31.8845029 127.782,32.5109966 127.782,33.183 C127.782,33.4630014 127.7645,33.7289987 127.7295,33.981 C127.6945,34.2330013 127.656,34.4289993 127.614,34.569 L119.928,34.569 C120.082001,35.4230043 120.459997,36.0879976 121.062,36.564 C121.664003,37.0400024 122.405995,37.278 123.288,37.278 C123.890003,37.278 124.435997,37.1695011 124.926,36.9525 C125.416002,36.7354989 125.870998,36.4380019 126.291,36.06 L127.362,37.572 C126.815997,38.0900026 126.200003,38.4959985 125.514,38.79 C124.827996,39.0840015 124.072004,39.231 123.246,39.231 C122.447996,39.231 121.706003,39.0945014 121.02,38.8215 C120.333996,38.5484986 119.746002,38.1705024 119.256,37.6875 C118.765997,37.2044976 118.381001,36.6340033 118.101,35.976 C117.820999,35.3179967 117.681,34.6110038 117.681,33.855 C117.681,33.0989962 117.817499,32.3920033 118.0905,31.734 C118.363501,31.0759967 118.741497,30.5055024 119.2245,30.0225 C119.707502,29.5394976 120.270997,29.1580014 120.915,28.878 C121.559003,28.5979986 122.258996,28.458 123.015,28.458 Z M122.952,30.327 C122.195996,30.327 121.552003,30.5544977 121.02,31.0095 C120.487997,31.4645023 120.138001,32.0769961 119.97,32.847 L125.577,32.847 C125.549,32.0349959 125.279502,31.4120022 124.7685,30.978 C124.257497,30.5439978 123.652003,30.327 122.952,30.327 Z M135.071333,28.584 C135.253334,28.584 135.410833,28.5944999 135.543833,28.6155 C135.676834,28.6365001 135.799333,28.6609999 135.911333,28.689 L135.911333,30.642 L135.239333,30.642 C134.833331,30.642 134.444835,30.7014994 134.073833,30.8205 C133.702831,30.9395006 133.380835,31.1179988 133.107833,31.356 C132.834832,31.5940012 132.617834,31.8914982 132.456833,32.2485 C132.295832,32.6055018 132.215333,33.0219976 132.215333,33.498 L132.215333,39 L130.010333,39 L130.010333,28.689 L132.047333,28.689 L132.047333,30.075 C132.411335,29.5849976 132.855831,29.2140013 133.380833,28.962 C133.905836,28.7099987 134.46933,28.584 135.071333,28.584 Z M85.922,51.909 C86.9440051,51.909 87.8399962,52.1434977 88.61,52.6125 C89.3800039,53.0815023 89.9749979,53.6729964 90.395,54.387 L88.841,55.584 C88.4769982,55.0519973 88.0500024,54.6390015 87.56,54.345 C87.0699975,54.0509985 86.524003,53.904 85.922,53.904 C85.3619972,53.904 84.8720021,54.0404986 84.452,54.3135 C84.0319979,54.5865014 83.822,55.0099971 83.822,55.584 C83.822,55.8500013 83.8709995,56.0774991 83.969,56.2665 C84.0670005,56.4555009 84.1999992,56.6234993 84.368,56.7705 C84.5360008,56.9175007 84.7389988,57.0504994 84.977,57.1695 L85.754,57.558 L87.308,58.272 C87.8260026,58.5100012 88.2949979,58.7619987 88.715,59.028 C89.1350021,59.2940013 89.4849986,59.5844984 89.765,59.8995 C90.0450014,60.2145016 90.2619992,60.5609981 90.416,60.939 C90.5700008,61.3170019 90.647,61.7439976 90.647,62.22 C90.647,62.8360031 90.5280012,63.3924975 90.29,63.8895 C90.0519988,64.3865025 89.7230021,64.8064983 89.303,65.1495 C88.8829979,65.4925017 88.3895028,65.7584991 87.8225,65.9475 C87.2554972,66.1365009 86.6430033,66.231 85.985,66.231 C84.8229942,66.231 83.7940045,65.9615027 82.898,65.4225 C82.0019955,64.8834973 81.2880027,64.1520046 80.756,63.228 L82.331,62.031 C82.527001,62.3250015 82.7474988,62.6049987 82.9925,62.871 C83.2375012,63.1370013 83.5069985,63.371499 83.801,63.5745 C84.0950015,63.777501 84.4204982,63.9384994 84.7775,64.0575 C85.1345018,64.1765006 85.5299978,64.236 85.964,64.236 C86.6780036,64.236 87.2554978,64.0645017 87.6965,63.7215 C88.1375022,63.3784983 88.358,62.906003 88.358,62.304 C88.358,62.0379987 88.3090005,61.803501 88.211,61.6005 C88.1129995,61.397499 87.9730009,61.2190008 87.791,61.065 C87.6089991,60.9109992 87.3955012,60.7675007 87.1505,60.6345 C86.9054988,60.5014993 86.6290015,60.3650007 86.321,60.225 L84.788,59.511 C84.3399978,59.3009989 83.920002,59.0770012 83.528,58.839 C83.135998,58.6009988 82.7930015,58.3280015 82.499,58.02 C82.2049985,57.7119985 81.9740008,57.3655019 81.806,56.9805 C81.6379992,56.5954981 81.554,56.1580024 81.554,55.668 C81.554,55.0939971 81.6694988,54.5760023 81.9005,54.114 C82.1315012,53.6519977 82.446498,53.2565016 82.8455,52.9275 C83.244502,52.5984984 83.7064974,52.3465009 84.2315,52.1715 C84.7565026,51.9964991 85.319997,51.909 85.922,51.909 Z M103.543333,62.367 L106.210333,55.689 L108.541333,55.689 L103.984333,66.231 L103.228333,66.231 L99.9733333,59.343 L96.7603333,66.231 L96.0043333,66.231 L91.4263333,55.689 L93.7783333,55.689 L96.4873333,62.43 L99.6163333,55.458 L100.372333,55.458 L103.543333,62.367 Z M113.793667,55.458 C114.42367,55.458 114.997664,55.5489991 115.515667,55.731 C116.033669,55.9130009 116.478165,56.1824982 116.849167,56.5395 C117.220168,56.8965018 117.510666,57.3444973 117.720667,57.8835 C117.930668,58.4225027 118.035667,59.0489964 118.035667,59.763 L118.035667,66 L115.977667,66 L115.977667,64.845 C115.613665,65.2790022 115.151669,65.6184988 114.591667,65.8635 C114.031664,66.1085012 113.39467,66.231 112.680667,66.231 C112.134664,66.231 111.641169,66.1610007 111.200167,66.021 C110.759164,65.8809993 110.381168,65.6780013 110.066167,65.412 C109.751165,65.1459987 109.509667,64.8310018 109.341667,64.467 C109.173666,64.1029982 109.089667,63.6970022 109.089667,63.249 C109.089667,62.3389954 109.432663,61.6215026 110.118667,61.0965 C110.80467,60.5714974 111.728661,60.309 112.890667,60.309 L115.809667,60.309 L115.809667,59.637 C115.809667,58.9229964 115.620668,58.3770019 115.242667,57.999 C114.864665,57.6209981 114.31867,57.432 113.604667,57.432 C113.002664,57.432 112.477669,57.5649987 112.029667,57.831 C111.581664,58.0970013 111.147669,58.4749975 110.727667,58.965 L109.467667,57.663 C109.999669,56.9069962 110.636663,56.3505018 111.378667,55.9935 C112.12067,55.6364982 112.925662,55.458 113.793667,55.458 Z M113.142667,64.53 C113.506668,64.53 113.849665,64.4705006 114.171667,64.3515 C114.493668,64.2324994 114.777165,64.0645011 115.022167,63.8475 C115.267168,63.6304989 115.459666,63.3715015 115.599667,63.0705 C115.739667,62.7694985 115.809667,62.4440017 115.809667,62.094 L115.809667,61.905 L113.163667,61.905 C112.575664,61.905 112.124168,62.0099989 111.809167,62.22 C111.494165,62.4300011 111.336667,62.7449979 111.336667,63.165 C111.336667,63.6130022 111.511665,63.9524988 111.861667,64.1835 C112.211668,64.4145012 112.638664,64.53 113.142667,64.53 Z M126.459,55.458 C127.187004,55.458 127.862497,55.5944986 128.4855,55.8675 C129.108503,56.1405014 129.643998,56.5184976 130.092,57.0015 C130.540002,57.4845024 130.889999,58.0514967 131.142,58.7025 C131.394001,59.3535033 131.52,60.0639962 131.52,60.834 C131.52,61.6040038 131.394001,62.3179967 131.142,62.976 C130.889999,63.6340033 130.536502,64.2044976 130.0815,64.6875 C129.626498,65.1705024 129.091003,65.5484986 128.475,65.8215 C127.858997,66.0945014 127.187004,66.231 126.459,66.231 C125.744996,66.231 125.090503,66.1050013 124.4955,65.853 C123.900497,65.6009987 123.407002,65.2370024 123.015,64.761 L123.015,69.78 L120.81,69.78 L120.81,55.689 L122.847,55.689 L122.847,57.18 C123.225002,56.6339973 123.728997,56.2105015 124.359,55.9095 C124.989003,55.6084985 125.688996,55.458 126.459,55.458 Z M126.102,57.474 C125.723998,57.474 125.349502,57.5404993 124.9785,57.6735 C124.607498,57.8065007 124.275001,58.0094986 123.981,58.2825 C123.686998,58.5555014 123.449001,58.9019979 123.267,59.322 C123.084999,59.7420021 122.994,60.2459971 122.994,60.834 C122.994,61.4220029 123.081499,61.9259979 123.2565,62.346 C123.431501,62.7660021 123.665998,63.1159986 123.96,63.396 C124.254001,63.6760014 124.586498,63.8824993 124.9575,64.0155 C125.328502,64.1485007 125.709998,64.215 126.102,64.215 C126.536002,64.215 126.945498,64.1345008 127.3305,63.9735 C127.715502,63.8124992 128.051498,63.5850015 128.3385,63.291 C128.625501,62.9969985 128.849499,62.6435021 129.0105,62.2305 C129.171501,61.8174979 129.252,61.3590025 129.252,60.855 C129.252,60.3509975 129.171501,59.8925021 129.0105,59.4795 C128.849499,59.0664979 128.629001,58.7130015 128.349,58.419 C128.068998,58.1249985 127.736502,57.8940008 127.3515,57.726 C126.966498,57.5579992 126.550002,57.474 126.102,57.474 Z" id="Kyber-Swap" fill="#141927"></path>
                </g>
            </g>
        </g>
    </g>
</svg>