<?xml version="1.0" encoding="UTF-8"?>
<!DOCTYPE svg  PUBLIC '-//W3C//DTD SVG 1.1//EN'  'http://www.w3.org/Graphics/SVG/1.1/DTD/svg11.dtd'>
<svg width="640" height="619" version="1.1" viewBox="-1 9.49902503952408 644 623.000680389508" xmlns="http://www.w3.org/2000/svg" xmlns:xlink="http://www.w3.org/1999/xlink">
<defs>
<path id="z" d="m343 168.5c-80.08 0-145 64.92-145 145s64.92 145 145 145 145-64.92 145-145-64.92-145-145-145z"/>
<path id="aj" d="m337 321.5c-3-2-4-6-3-10l57-244c1-5 7-9 12-7 5 1 9 7 7 12-3.53 14.93-21.2 89.6-53 224l198-87c5-2 11 0 13 5s0 11-5 13l-217 96h-3c-2 0-5-1-6-2z"/>
<path id="a" d="m219 558.5c-5-2-7-9-4-13l120-236c2-3 5-5 8-5s7 1 9 4l176 236c3 4 2 11-2 14s-11 2-14-2c-11.13-14.93-66.8-89.6-167-224-67.8 133.2-105.47 207.2-113 222-1 3-5 5-8 5-2 0-3 0-5-1z"/>
<path id="ak" d="m340 322.5c-24.3-8.4-218.7-75.6-243-84-5-2-8-7-6-13 2-5 7-8 13-6 24.3 8.4 218.7 75.6 243 84 5 2 8 7 6 13-1 4-5 7-10 7-1 0-2 0-3-1z"/>
<path id="g" d="m343 207.5c-58.54 0-106 47.46-106 106s47.46 106 106 106 106-47.46 106-106-47.46-106-106-106z"/>
<path id="f" d="m352.5 197.89l4.68 0.47 4.62 0.66 4.56 0.84 4.49 1.02 4.43 1.18 4.36 1.36 4.28 1.52 4.2 1.69 4.12 1.84 4.04 1.99 3.94 2.15 3.85 2.29 3.76 2.43 3.65 2.57 3.55 2.71 3.43 2.84 3.33 2.96 3.21 3.09 3.09 3.21 2.96 3.33 2.84 3.43 2.71 3.55 2.57 3.65 2.43 3.76 2.29 3.85 2.15 3.94 1.99 4.04 1.84 4.12 1.69 4.2 1.52 4.28 1.36 4.36 1.18 4.43 1.02 4.49 0.84 4.56 0.66 4.62 0.47 4.68 0.29 4.72 0.1 4.78-0.1 4.78-0.29 4.73-0.47 4.67-0.66 4.62-0.84 4.56-1.02 4.5-1.18 4.42-1.36 4.36-1.52 4.28-1.69 4.21-1.84 4.12-1.99 4.03-2.14 3.94-2.3 3.86-2.43 3.75-2.57 3.65-2.71 3.55-2.84 3.44-2.96 3.32-3.09 3.21-3.21 3.09-3.33 2.97-3.43 2.83-3.55 2.71-3.65 2.57-3.76 2.44-3.85 2.29-3.94 2.14-4.03 1.99-4.13 1.85-4.2 1.68-4.28 1.52-4.36 1.36-4.43 1.19-4.49 1.01-4.56 0.84-4.62 0.66-4.68 0.48-4.72 0.28-4.78 0.1-4.78-0.1-4.73-0.28-4.67-0.48-4.62-0.66-4.56-0.84-4.5-1.01-4.42-1.19-4.36-1.36-4.28-1.52-4.21-1.68-4.12-1.85-4.03-1.99-3.94-2.14-3.86-2.29-3.75-2.44-3.65-2.57-3.55-2.71-3.44-2.83-3.32-2.97-3.21-3.09-3.09-3.21-2.97-3.32-2.83-3.44-2.71-3.55-2.57-3.65-2.44-3.75-2.29-3.86-2.14-3.94-1.99-4.03-1.85-4.12-1.68-4.21-1.52-4.28-1.36-4.36-1.19-4.42-1.01-4.5-0.84-4.56-0.66-4.62-0.48-4.67-0.28-4.73-0.1-4.78 0.1-4.78 0.28-4.72 0.48-4.68 0.66-4.62 0.84-4.56 1.01-4.49 1.19-4.43 1.36-4.36 1.52-4.28 1.68-4.2 1.85-4.12 1.99-4.04 2.14-3.94 2.29-3.85 2.44-3.76 2.57-3.65 2.71-3.55 2.83-3.43 2.97-3.33 3.09-3.21 3.21-3.09 3.32-2.96 3.44-2.84 3.55-2.71 3.65-2.57 3.75-2.43 3.86-2.29 3.94-2.15 4.03-1.99 4.12-1.84 4.21-1.69 4.28-1.52 4.36-1.36 4.42-1.18 4.5-1.02 4.56-0.84 4.62-0.66 4.67-0.47 4.73-0.29 4.78-0.1 4.78 0.1 4.72 0.29zm-17.37 19.93l-3.87 0.39-3.83 0.55-3.77 0.69-3.72 0.84-3.67 0.98-3.61 1.13-3.54 1.25-3.48 1.4-3.41 1.52-3.34 1.65-3.26 1.77-3.19 1.9-3.11 2.01-3.02 2.13-2.93 2.24-2.85 2.35-2.75 2.45-2.66 2.55-2.55 2.66-2.45 2.75-2.35 2.85-2.24 2.93-2.13 3.02-2.01 3.11-1.9 3.19-1.77 3.26-1.65 3.34-1.52 3.41-1.4 3.48-1.25 3.54-1.13 3.61-0.98 3.67-0.84 3.72-0.69 3.77-0.55 3.83-0.39 3.87-0.24 3.91-0.08 3.96 0.08 3.96 0.24 3.91 0.39 3.87 0.55 3.83 0.69 3.77 0.84 3.72 0.98 3.67 1.13 3.6 1.25 3.55 1.4 3.48 1.52 3.41 1.65 3.34 1.77 3.26 1.9 3.19 2.01 3.1 2.13 3.03 2.24 2.93 2.35 2.85 2.45 2.75 2.56 2.65 2.65 2.56 2.75 2.45 2.85 2.35 2.93 2.24 3.02 2.13 3.11 2.01 3.19 1.9 3.26 1.77 3.34 1.65 3.41 1.52 3.48 1.39 3.54 1.26 3.61 1.13 3.67 0.98 3.72 0.84 3.77 0.69 3.83 0.55 3.87 0.39 3.91 0.24 3.96 0.08 3.96-0.08 3.91-0.24 3.87-0.39 3.83-0.55 3.77-0.69 3.72-0.84 3.67-0.98 3.61-1.13 3.54-1.26 3.48-1.39 3.41-1.52 3.34-1.65 3.26-1.77 3.19-1.9 3.1-2.01 3.03-2.13 2.93-2.24 2.85-2.35 2.75-2.45 2.65-2.56 2.56-2.65 2.45-2.75 2.35-2.85 2.24-2.93 2.13-3.03 2.01-3.1 1.9-3.19 1.77-3.26 1.65-3.34 1.52-3.41 1.39-3.48 1.26-3.55 1.13-3.6 0.98-3.67 0.84-3.72 0.69-3.77 0.55-3.83 0.39-3.87 0.24-3.91 0.08-3.96-0.08-3.96-0.24-3.91-0.39-3.87-0.55-3.83-0.69-3.77-0.84-3.72-0.98-3.67-1.13-3.61-1.26-3.54-1.39-3.48-1.52-3.41-1.65-3.34-1.77-3.26-1.9-3.19-2.01-3.11-2.13-3.02-2.24-2.93-2.35-2.85-2.45-2.75-2.56-2.66-2.65-2.55-2.75-2.45-2.85-2.35-2.93-2.24-3.02-2.13-3.11-2.01-3.19-1.9-3.26-1.77-3.34-1.65-3.41-1.52-3.48-1.4-3.54-1.25-3.61-1.13-3.67-0.98-3.72-0.84-3.77-0.69-3.83-0.55-3.87-0.39-3.91-0.24-3.96-0.08-3.96 0.08-3.91 0.24z"/>
<path id="av" d="m100 139.5c-49.71 0-90 40.29-90 90 0 49.7 40.29 90 90 90s90-40.3 90-90c0-49.71-40.29-90-90-90z"/>
<path id="ad" d="m108.17 129.83l4.02 0.41 3.97 0.57 3.93 0.73 3.87 0.88 3.81 1.03 3.75 1.17 3.69 1.32 3.62 1.45 3.55 1.59 3.47 1.72 3.4 1.86 3.32 1.98 3.24 2.1 3.15 2.22 3.06 2.34 2.97 2.45 2.86 2.56 2.77 2.66 2.67 2.77 2.56 2.87 2.45 2.97 2.34 3.06 2.22 3.15 2.1 3.24 1.98 3.31 1.85 3.4 1.73 3.48 1.59 3.55 1.45 3.62 1.32 3.69 1.17 3.75 1.03 3.81 0.88 3.87 0.72 3.92 0.57 3.98 0.42 4.02 0.25 4.06 0.08 4.11-0.08 4.11-0.25 4.06-0.42 4.02-0.57 3.97-0.72 3.93-0.88 3.87-1.03 3.81-1.17 3.75-1.32 3.69-1.45 3.62-1.59 3.55-1.73 3.47-1.85 3.4-1.98 3.32-2.1 3.24-2.22 3.15-2.34 3.06-2.45 2.97-2.56 2.87-2.67 2.77-2.77 2.66-2.86 2.56-2.97 2.45-3.06 2.34-3.15 2.22-3.24 2.1-3.32 1.98-3.4 1.86-3.47 1.72-3.55 1.59-3.62 1.45-3.69 1.32-3.75 1.17-3.81 1.03-3.87 0.88-3.93 0.73-3.97 0.57-4.02 0.41-4.06 0.25-4.11 0.08-4.11-0.08-4.06-0.25-4.02-0.41-3.98-0.57-3.92-0.73-3.87-0.88-3.81-1.03-3.75-1.17-3.69-1.32-3.62-1.45-3.55-1.59-3.48-1.72-3.39-1.86-3.32-1.98-3.24-2.1-3.15-2.22-3.06-2.34-2.97-2.45-2.87-2.56-2.77-2.66-2.66-2.77-2.56-2.87-2.45-2.97-2.34-3.06-2.22-3.15-2.1-3.24-1.98-3.32-1.86-3.4-1.72-3.47-1.59-3.55-1.45-3.62-1.32-3.69-1.17-3.75-1.03-3.81-0.88-3.87-0.73-3.93-0.57-3.97-0.41-4.02-0.25-4.06-0.08-4.11 0.08-4.11 0.25-4.06 0.41-4.02 0.57-3.98 0.73-3.92 0.88-3.87 1.03-3.81 1.17-3.75 1.32-3.69 1.45-3.62 1.59-3.55 1.72-3.48 1.86-3.4 1.98-3.31 2.1-3.24 2.22-3.15 2.34-3.06 2.45-2.97 2.56-2.87 2.66-2.77 2.77-2.66 2.87-2.56 2.97-2.45 3.06-2.34 3.15-2.22 3.24-2.1 3.32-1.98 3.39-1.86 3.48-1.72 3.55-1.59 3.62-1.45 3.69-1.32 3.75-1.17 3.81-1.03 3.87-0.88 3.92-0.73 3.98-0.57 4.02-0.41 4.06-0.25 4.11-0.08 4.11 0.08 4.06 0.25zm-14.71 19.94l-3.21 0.33-3.18 0.45-3.14 0.58-3.1 0.71-3.04 0.82-3.01 0.94-2.95 1.05-2.89 1.16-2.84 1.28-2.78 1.37-2.72 1.49-2.66 1.58-2.59 1.68-2.52 1.78-2.45 1.87-2.37 1.96-2.29 2.05-2.22 2.13-2.13 2.22-2.05 2.29-1.96 2.37-1.87 2.45-1.78 2.52-1.68 2.59-1.58 2.66-1.49 2.72-1.37 2.78-1.28 2.84-1.16 2.89-1.05 2.95-0.94 3-0.82 3.05-0.71 3.1-0.58 3.14-0.45 3.18-0.33 3.21-0.2 3.26-0.07 3.28 0.07 3.28 0.2 3.26 0.33 3.21 0.45 3.18 0.58 3.14 0.71 3.09 0.82 3.05 0.94 3.01 1.05 2.95 1.16 2.89 1.28 2.84 1.37 2.78 1.49 2.72 1.58 2.66 1.68 2.59 1.78 2.52 1.87 2.44 1.96 2.38 2.05 2.29 2.13 2.22 2.22 2.13 2.29 2.05 2.37 1.96 2.45 1.87 2.52 1.78 2.59 1.68 2.66 1.58 2.72 1.49 2.78 1.37 2.84 1.28 2.89 1.16 2.95 1.05 3.01 0.94 3.04 0.82 3.1 0.71 3.14 0.58 3.18 0.45 3.21 0.33 3.26 0.2 3.28 0.07 3.28-0.07 3.26-0.2 3.21-0.33 3.18-0.45 3.14-0.58 3.1-0.71 3.04-0.82 3.01-0.94 2.95-1.05 2.89-1.16 2.84-1.28 2.78-1.37 2.72-1.49 2.66-1.58 2.59-1.68 2.52-1.78 2.44-1.87 2.38-1.96 2.29-2.05 2.22-2.13 2.13-2.22 2.05-2.29 1.96-2.38 1.87-2.44 1.78-2.52 1.68-2.59 1.58-2.66 1.49-2.72 1.37-2.78 1.28-2.84 1.16-2.89 1.05-2.95 0.94-3.01 0.82-3.05 0.71-3.09 0.58-3.14 0.45-3.18 0.33-3.21 0.2-3.26 0.07-3.28-0.07-3.28-0.2-3.26-0.33-3.21-0.45-3.18-0.58-3.14-0.71-3.1-0.82-3.05-0.94-3-1.05-2.95-1.16-2.89-1.28-2.84-1.37-2.78-1.49-2.72-1.58-2.66-1.68-2.59-1.78-2.52-1.87-2.45-1.96-2.37-2.05-2.29-2.13-2.22-2.22-2.13-2.29-2.05-2.37-1.96-2.45-1.87-2.52-1.78-2.59-1.68-2.66-1.58-2.72-1.49-2.78-1.37-2.84-1.28-2.89-1.16-2.95-1.05-3.01-0.94-3.04-0.82-3.1-0.71-3.14-0.58-3.18-0.45-3.21-0.33-3.26-0.2-3.28-0.07-3.28 0.07-3.26 0.2z"/>
<path id="as" d="m99.29 160.58c-38.06 0-68.92 30.86-68.92 68.92s30.86 68.92 68.92 68.92c38.07 0 68.92-30.86 68.92-68.92s-30.85-68.92-68.92-68.92z"/>
<path id="m" d="m224 479.5c-38.66 0-70 31.34-70 70s31.34 70 70 70 70-31.34 70-70-31.34-70-70-70z"/>
<path id="w" d="m230.54 469.77l3.21 0.33 3.18 0.45 3.14 0.58 3.1 0.71 3.04 0.82 3.01 0.94 2.95 1.05 2.89 1.16 2.84 1.28 2.78 1.37 2.72 1.49 2.66 1.58 2.59 1.68 2.52 1.78 2.45 1.87 2.37 1.96 2.29 2.05 2.22 2.13 2.13 2.22 2.05 2.29 1.96 2.38 1.87 2.44 1.78 2.52 1.68 2.59 1.58 2.66 1.49 2.72 1.37 2.78 1.28 2.84 1.16 2.89 1.05 2.95 0.94 3.01 0.82 3.04 0.71 3.1 0.58 3.14 0.45 3.18 0.33 3.21 0.2 3.26 0.07 3.28-0.14 3.28-0.26 3.26-0.39 3.21-0.51 3.18-0.62 3.14-0.74 3.1-0.85 3.04-0.97 3.01-1.07 2.95-1.18 2.89-1.29 2.84-1.38 2.78-1.49 2.72-1.58 2.66-1.68 2.59-1.77 2.52-1.86 2.45-1.95 2.37-2.03 2.29-2.11 2.22-2.2 2.13-2.28 2.05-2.35 1.96-2.42 1.87-2.49 1.78-2.57 1.68-2.63 1.58-2.69 1.49-2.76 1.37-2.82 1.28-2.87 1.16-2.93 1.05-2.98 0.94-3.03 0.82-3.08 0.71-3.12 0.58-3.17 0.45-3.21 0.33-3.25 0.2-3.28 0.07-3.28-0.07-3.26-0.2-3.21-0.33-3.18-0.45-3.14-0.58-3.1-0.71-3.04-0.82-3.01-0.94-2.95-1.05-2.89-1.16-2.84-1.28-2.78-1.37-2.72-1.49-2.66-1.58-2.59-1.68-2.52-1.78-2.45-1.87-2.37-1.96-2.29-2.05-2.22-2.13-2.13-2.22-2.05-2.29-1.96-2.37-1.87-2.45-1.78-2.52-1.68-2.59-1.58-2.66-1.49-2.72-1.37-2.78-1.28-2.84-1.16-2.89-1.05-2.95-0.94-3.01-0.82-3.04-0.71-3.1-0.58-3.14-0.45-3.18-0.33-3.21-0.2-3.26-0.07-3.28 0.07-3.28 0.2-3.26 0.33-3.21 0.45-3.18 0.58-3.14 0.71-3.1 0.82-3.04 0.94-3.01 1.05-2.95 1.16-2.89 1.28-2.84 1.37-2.78 1.49-2.72 1.58-2.66 1.68-2.59 1.78-2.52 1.87-2.44 1.96-2.38 2.05-2.29 2.13-2.22 2.22-2.13 2.29-2.05 2.37-1.96 2.45-1.87 2.52-1.78 2.59-1.68 2.66-1.58 2.72-1.49 2.78-1.37 2.84-1.28 2.89-1.16 2.95-1.05 3.01-0.94 3.04-0.82 3.1-0.71 3.14-0.58 3.18-0.45 3.21-0.33 3.26-0.2 3.28-0.07 3.28 0.07 3.26 0.2zm-11.44 19.93l-2.42 0.25-2.38 0.34-2.35 0.43-2.32 0.53-2.29 0.62-2.25 0.7-2.21 0.79-2.18 0.87-2.13 0.96-2.08 1.03-2.04 1.11-1.99 1.19-1.95 1.26-1.89 1.34-1.83 1.4-1.78 1.47-1.72 1.53-1.67 1.6-1.6 1.67-1.53 1.72-1.47 1.78-1.4 1.83-1.34 1.89-1.26 1.95-1.19 1.99-1.11 2.04-1.03 2.08-0.96 2.13-0.87 2.18-0.79 2.21-0.7 2.25-0.62 2.29-0.53 2.32-0.43 2.35-0.34 2.39-0.25 2.41-0.15 2.44-0.05 2.46 0.05 2.46 0.15 2.44 0.25 2.42 0.34 2.38 0.43 2.35 0.53 2.32 0.62 2.29 0.7 2.25 0.79 2.21 0.87 2.18 0.96 2.13 1.03 2.08 1.11 2.04 1.19 2 1.26 1.94 1.34 1.89 1.4 1.83 1.47 1.78 1.53 1.72 1.6 1.67 1.67 1.6 1.72 1.53 1.78 1.47 1.83 1.4 1.89 1.34 1.95 1.26 1.99 1.19 2.04 1.11 2.08 1.03 2.13 0.96 2.18 0.87 2.21 0.79 2.25 0.7 2.29 0.62 2.32 0.53 2.35 0.43 2.38 0.34 2.42 0.25 2.44 0.15 2.46 0.05 2.46-0.05 2.44-0.15 2.41-0.25 2.39-0.34 2.35-0.43 2.32-0.53 2.29-0.62 2.25-0.7 2.21-0.79 2.18-0.87 2.13-0.96 2.08-1.03 2.04-1.11 1.99-1.19 1.95-1.26 1.89-1.34 1.83-1.4 1.78-1.47 1.72-1.53 1.67-1.6 1.6-1.67 1.53-1.72 1.47-1.78 1.4-1.83 1.34-1.89 1.26-1.94 1.19-2 1.11-2.04 1.03-2.08 0.96-2.13 0.87-2.18 0.79-2.21 0.7-2.25 0.62-2.29 0.53-2.32 0.43-2.35 0.34-2.38 0.25-2.42 0.15-2.44 0.05-2.46-0.05-2.46-0.15-2.44-0.25-2.41-0.34-2.39-0.43-2.35-0.53-2.32-0.62-2.29-0.7-2.25-0.79-2.21-0.87-2.18-0.96-2.13-1.03-2.08-1.11-2.04-1.19-1.99-1.26-1.95-1.34-1.89-1.4-1.83-1.47-1.78-1.53-1.72-1.6-1.67-1.67-1.6-1.72-1.53-1.78-1.47-1.83-1.4-1.89-1.34-1.95-1.26-1.99-1.19-2.04-1.11-2.08-1.03-2.13-0.96-2.18-0.87-2.21-0.79-2.25-0.7-2.29-0.62-2.32-0.53-2.35-0.43-2.39-0.34-2.41-0.25-2.44-0.15-2.46-0.05-2.46 0.05-2.44 0.15z"/>
<path id="ac" d="m224 499.5c-27.61 0-50 22.39-50 50s22.39 50 50 50 50-22.39 50-50-22.39-50-50-50z"/>
<path id="au" d="m560 147.5c-38.66 0-70 31.34-70 70s31.34 70 70 70 70-31.34 70-70-31.34-70-70-70z"/>
<path id="ap" d="m566.54 137.77l3.21 0.33 3.18 0.45 3.14 0.58 3.1 0.71 3.05 0.82 3 0.94 2.95 1.05 2.89 1.16 2.84 1.28 2.78 1.37 2.72 1.49 2.66 1.58 2.59 1.68 2.52 1.78 2.45 1.87 2.37 1.96 2.29 2.05 2.22 2.13 2.13 2.22 2.05 2.29 1.96 2.37 1.87 2.45 1.78 2.52 1.68 2.59 1.58 2.66 1.49 2.72 1.37 2.78 1.28 2.84 1.16 2.89 1.05 2.95 0.94 3.01 0.82 3.04 0.71 3.1 0.58 3.14 0.45 3.18 0.33 3.21 0.2 3.26 0.07 3.28-0.07 3.28-0.2 3.26-0.33 3.21-0.45 3.18-0.58 3.14-0.71 3.1-0.82 3.04-0.94 3.01-1.05 2.95-1.16 2.89-1.28 2.84-1.37 2.78-1.49 2.72-1.58 2.66-1.68 2.59-1.78 2.52-1.87 2.45-1.96 2.37-2.05 2.29-2.13 2.22-2.22 2.13-2.29 2.05-2.37 1.96-2.45 1.87-2.52 1.78-2.59 1.68-2.66 1.58-2.72 1.49-2.78 1.37-2.84 1.28-2.89 1.16-2.95 1.05-3 0.94-3.05 0.82-3.1 0.71-3.14 0.58-3.18 0.45-3.21 0.33-3.26 0.2-3.28 0.07-3.28-0.07-3.26-0.2-3.21-0.33-3.18-0.45-3.14-0.58-3.09-0.71-3.05-0.82-3.01-0.94-2.95-1.05-2.89-1.16-2.84-1.28-2.78-1.37-2.72-1.49-2.66-1.58-2.59-1.68-2.52-1.78-2.44-1.87-2.38-1.96-2.29-2.05-2.22-2.13-2.13-2.22-2.05-2.29-1.96-2.37-1.87-2.45-1.78-2.52-1.68-2.59-1.58-2.66-1.49-2.72-1.37-2.78-1.28-2.84-1.16-2.89-1.05-2.95-0.94-3.01-0.82-3.04-0.71-3.1-0.58-3.14-0.45-3.18-0.33-3.21-0.2-3.26-0.07-3.28 0.07-3.28 0.2-3.26 0.33-3.21 0.45-3.18 0.58-3.14 0.71-3.1 0.82-3.04 0.94-3.01 1.05-2.95 1.16-2.89 1.28-2.84 1.37-2.78 1.49-2.72 1.58-2.66 1.68-2.59 1.78-2.52 1.87-2.45 1.96-2.37 2.05-2.29 2.13-2.22 2.22-2.13 2.29-2.05 2.38-1.96 2.44-1.87 2.52-1.78 2.59-1.68 2.66-1.58 2.72-1.49 2.78-1.37 2.84-1.28 2.89-1.16 2.95-1.05 3.01-0.94 3.05-0.82 3.09-0.71 3.14-0.58 3.18-0.45 3.21-0.33 3.26-0.2 3.28-0.07 3.28 0.07 3.26 0.2zm-11.44 19.93l-2.41 0.25-2.39 0.34-2.35 0.44-2.32 0.52-2.29 0.62-2.25 0.7-2.21 0.79-2.18 0.88-2.13 0.95-2.08 1.03-2.04 1.12-1.99 1.18-1.95 1.26-1.89 1.34-1.83 1.4-1.78 1.47-1.72 1.54-1.66 1.6-1.6 1.66-1.54 1.72-1.47 1.78-1.4 1.83-1.34 1.89-1.26 1.95-1.19 1.99-1.11 2.04-1.03 2.08-0.96 2.13-0.87 2.18-0.79 2.21-0.7 2.25-0.62 2.29-0.53 2.32-0.43 2.35-0.34 2.39-0.25 2.41-0.15 2.44-0.05 2.46 0.05 2.46 0.15 2.44 0.25 2.42 0.34 2.38 0.43 2.35 0.53 2.33 0.62 2.28 0.7 2.25 0.79 2.22 0.87 2.17 0.96 2.13 1.03 2.08 1.11 2.04 1.19 2 1.26 1.94 1.34 1.89 1.4 1.83 1.47 1.78 1.54 1.72 1.6 1.67 1.66 1.6 1.72 1.53 1.78 1.47 1.83 1.41 1.89 1.33 1.95 1.26 1.99 1.19 2.04 1.11 2.08 1.03 2.13 0.96 2.18 0.87 2.21 0.79 2.25 0.7 2.29 0.62 2.32 0.53 2.35 0.43 2.39 0.35 2.41 0.24 2.44 0.15 2.46 0.05 2.46-0.05 2.44-0.15 2.42-0.24 2.38-0.35 2.35-0.43 2.32-0.53 2.29-0.62 2.25-0.7 2.22-0.79 2.17-0.87 2.13-0.96 2.08-1.03 2.04-1.11 2-1.19 1.94-1.26 1.89-1.33 1.83-1.41 1.78-1.47 1.72-1.53 1.67-1.6 1.6-1.67 1.53-1.72 1.47-1.78 1.4-1.83 1.34-1.89 1.26-1.94 1.19-2 1.11-2.04 1.03-2.08 0.96-2.13 0.87-2.17 0.79-2.22 0.7-2.25 0.62-2.28 0.53-2.33 0.43-2.35 0.34-2.38 0.25-2.42 0.15-2.44 0.05-2.46-0.05-2.46-0.15-2.44-0.25-2.41-0.34-2.39-0.43-2.35-0.53-2.32-0.62-2.29-0.7-2.25-0.79-2.21-0.87-2.18-0.96-2.13-1.03-2.08-1.11-2.04-1.19-1.99-1.26-1.95-1.34-1.89-1.4-1.83-1.47-1.78-1.53-1.72-1.6-1.66-1.67-1.6-1.72-1.54-1.78-1.47-1.83-1.4-1.89-1.34-1.94-1.26-2-1.18-2.04-1.12-2.08-1.03-2.13-0.95-2.17-0.88-2.22-0.79-2.25-0.7-2.29-0.62-2.32-0.52-2.35-0.44-2.38-0.34-2.42-0.25-2.44-0.15-2.46-0.05-2.46 0.05-2.44 0.15z"/>
<path id="aa" d="m560 167.5c-27.61 0-50 22.39-50 50s22.39 50 50 50 50-22.39 50-50-22.39-50-50-50z"/>
<path id="ae" d="m401 19.5c-27.61 0-50 22.39-50 50 0 27.62 22.39 50 50 50 27.62 0 50-22.38 50-50 0-27.61-22.38-50-50-50z"/>
<path id="n" d="m405.9 10.7l2.42 0.25 2.38 0.34 2.35 0.43 2.32 0.53 2.29 0.62 2.25 0.7 2.22 0.79 2.17 0.87 2.13 0.96 2.08 1.03 2.04 1.11 2 1.19 1.94 1.26 1.89 1.34 1.83 1.4 1.78 1.47 1.72 1.53 1.67 1.6 1.6 1.67 1.53 1.72 1.47 1.78 1.4 1.83 1.34 1.89 1.26 1.94 1.19 2 1.11 2.04 1.03 2.08 0.96 2.13 0.87 2.17 0.79 2.22 0.7 2.25 0.62 2.29 0.53 2.32 0.43 2.35 0.34 2.38 0.25 2.42 0.15 2.44 0.05 2.46-0.05 2.46-0.15 2.44-0.25 2.41-0.34 2.39-0.43 2.35-0.53 2.32-0.62 2.29-0.7 2.25-0.79 2.21-0.87 2.18-0.96 2.13-1.03 2.08-1.11 2.04-1.19 1.99-1.26 1.95-1.34 1.89-1.4 1.83-1.47 1.78-1.53 1.72-1.6 1.66-1.67 1.6-1.72 1.54-1.78 1.47-1.83 1.4-1.89 1.34-1.95 1.26-1.99 1.19-2.04 1.11-2.08 1.03-2.13 0.96-2.18 0.87-2.21 0.79-2.25 0.7-2.29 0.62-2.32 0.53-2.35 0.43-2.38 0.34-2.42 0.25-2.44 0.15-2.46 0.05-2.46-0.05-2.44-0.15-2.41-0.25-2.39-0.34-2.35-0.43-2.32-0.53-2.29-0.62-2.25-0.7-2.21-0.79-2.18-0.87-2.13-0.96-2.08-1.03-2.04-1.11-1.99-1.19-1.95-1.26-1.89-1.34-1.83-1.4-1.78-1.47-1.72-1.54-1.66-1.6-1.6-1.66-1.54-1.72-1.47-1.78-1.4-1.83-1.34-1.89-1.26-1.95-1.19-1.99-1.11-2.04-1.03-2.08-0.96-2.13-0.87-2.18-0.79-2.21-0.7-2.25-0.62-2.29-0.53-2.32-0.43-2.35-0.34-2.39-0.25-2.41-0.15-2.44-0.05-2.46 0.05-2.46 0.15-2.44 0.25-2.42 0.34-2.38 0.43-2.35 0.53-2.32 0.62-2.29 0.7-2.25 0.79-2.22 0.87-2.17 0.96-2.13 1.03-2.08 1.11-2.04 1.19-2 1.26-1.94 1.34-1.89 1.4-1.83 1.47-1.78 1.54-1.72 1.6-1.67 1.66-1.6 1.72-1.53 1.78-1.47 1.83-1.4 1.89-1.34 1.95-1.26 1.99-1.19 2.04-1.11 2.08-1.03 2.13-0.96 2.18-0.87 2.21-0.79 2.25-0.7 2.29-0.62 2.32-0.53 2.35-0.43 2.39-0.34 2.41-0.25 2.44-0.15 2.46-0.05 2.46 0.05 2.44 0.15zm-8.17 18.93l-1.61 0.17-1.59 0.23-1.56 0.29-1.55 0.35-1.53 0.41-1.5 0.47-1.47 0.52-1.45 0.59-1.42 0.63-1.39 0.69-1.36 0.74-1.33 0.79-1.29 0.85-1.26 0.88-1.23 0.94-1.18 0.98-1.15 1.02-1.11 1.07-1.07 1.11-1.02 1.15-0.98 1.18-0.94 1.23-0.88 1.26-0.84 1.29-0.8 1.33-0.74 1.36-0.69 1.39-0.63 1.42-0.59 1.45-0.52 1.47-0.47 1.5-0.41 1.53-0.35 1.55-0.29 1.56-0.23 1.59-0.17 1.61-0.1 1.63-0.03 1.64 0.03 1.64 0.1 1.63 0.17 1.61 0.23 1.59 0.29 1.57 0.35 1.54 0.41 1.53 0.47 1.5 0.52 1.47 0.59 1.45 0.63 1.42 0.69 1.39 0.74 1.36 0.79 1.33 0.85 1.3 0.88 1.26 0.94 1.22 0.98 1.19 1.02 1.14 1.07 1.11 1.11 1.07 1.15 1.02 1.18 0.98 1.23 0.94 1.26 0.89 1.29 0.84 1.33 0.79 1.36 0.74 1.39 0.69 1.42 0.63 1.45 0.59 1.47 0.52 1.5 0.47 1.53 0.41 1.55 0.35 1.56 0.29 1.59 0.23 1.61 0.17 1.63 0.1 1.64 0.03 1.64-0.03 1.63-0.1 1.61-0.17 1.59-0.23 1.57-0.29 1.54-0.35 1.53-0.41 1.5-0.47 1.47-0.52 1.45-0.59 1.42-0.63 1.39-0.69 1.36-0.74 1.33-0.79 1.29-0.84 1.26-0.89 1.23-0.94 1.18-0.98 1.15-1.02 1.11-1.07 1.07-1.11 1.02-1.14 0.98-1.19 0.94-1.22 0.89-1.26 0.84-1.3 0.79-1.33 0.74-1.36 0.69-1.39 0.63-1.42 0.59-1.45 0.52-1.47 0.47-1.5 0.41-1.53 0.35-1.54 0.29-1.57 0.23-1.59 0.17-1.61 0.1-1.63 0.03-1.64-0.03-1.64-0.1-1.63-0.17-1.61-0.23-1.59-0.29-1.56-0.35-1.55-0.41-1.53-0.47-1.5-0.52-1.47-0.59-1.45-0.63-1.42-0.69-1.39-0.74-1.36-0.79-1.33-0.84-1.29-0.89-1.26-0.94-1.23-0.98-1.18-1.02-1.15-1.07-1.11-1.11-1.07-1.15-1.02-1.18-0.98-1.23-0.94-1.26-0.88-1.29-0.85-1.33-0.79-1.36-0.74-1.39-0.69-1.42-0.63-1.45-0.59-1.47-0.52-1.5-0.47-1.53-0.41-1.54-0.35-1.57-0.29-1.59-0.23-1.61-0.17-1.63-0.1-1.64-0.03-1.64 0.03-1.63 0.1z"/>
<path id="t" d="m401 35.9c-18.55 0-33.6 15.05-33.6 33.6 0 18.56 15.05 33.6 33.6 33.6 18.56 0 33.6-15.04 33.6-33.6 0-18.55-15.04-33.6-33.6-33.6z"/>
<path id="y" d="m520 499.5c-27.61 0-50 22.39-50 50s22.39 50 50 50 50-22.39 50-50-22.39-50-50-50z"/>
<path id="x" d="m524.9 490.7l2.42 0.25 2.38 0.34 2.35 0.43 2.32 0.53 2.29 0.62 2.25 0.7 2.21 0.79 2.18 0.87 2.13 0.96 2.08 1.03 2.04 1.11 1.99 1.19 1.95 1.26 1.89 1.33 1.83 1.41 1.78 1.47 1.72 1.53 1.67 1.6 1.6 1.67 1.53 1.72 1.47 1.78 1.4 1.83 1.34 1.89 1.26 1.94 1.19 2 1.11 2.04 1.03 2.08 0.96 2.13 0.87 2.17 0.79 2.22 0.7 2.25 0.62 2.29 0.53 2.32 0.43 2.35 0.34 2.38 0.25 2.42 0.15 2.44 0.05 2.46-0.05 2.46-0.15 2.44-0.25 2.41-0.34 2.39-0.43 2.35-0.53 2.32-0.62 2.29-0.7 2.25-0.79 2.21-0.87 2.18-0.96 2.13-1.03 2.08-1.11 2.04-1.19 1.99-1.26 1.95-1.34 1.89-1.4 1.83-1.47 1.78-1.53 1.72-1.6 1.66-1.67 1.6-1.72 1.54-1.78 1.47-1.83 1.4-1.89 1.34-1.95 1.26-1.99 1.19-2.04 1.11-2.08 1.03-2.13 0.96-2.18 0.87-2.21 0.79-2.25 0.7-2.29 0.62-2.32 0.53-2.35 0.43-2.38 0.34-2.42 0.25-2.44 0.15-2.46 0.05-2.46-0.05-2.44-0.15-2.41-0.25-2.39-0.34-2.35-0.43-2.32-0.53-2.29-0.62-2.25-0.7-2.21-0.79-2.18-0.87-2.13-0.96-2.08-1.03-2.04-1.11-1.99-1.19-1.95-1.26-1.89-1.34-1.83-1.4-1.78-1.47-1.72-1.54-1.67-1.6-1.6-1.66-1.53-1.72-1.47-1.78-1.4-1.83-1.34-1.89-1.26-1.95-1.19-1.99-1.11-2.04-1.03-2.08-0.96-2.13-0.87-2.18-0.79-2.21-0.7-2.25-0.62-2.29-0.53-2.32-0.43-2.35-0.34-2.39-0.25-2.41-0.15-2.44-0.05-2.46 0.05-2.46 0.15-2.44 0.25-2.42 0.34-2.38 0.43-2.35 0.53-2.32 0.62-2.29 0.7-2.25 0.79-2.22 0.87-2.17 0.96-2.13 1.03-2.08 1.11-2.04 1.19-2 1.26-1.94 1.34-1.89 1.4-1.83 1.47-1.78 1.53-1.72 1.6-1.67 1.67-1.6 1.72-1.53 1.78-1.47 1.83-1.41 1.89-1.33 1.95-1.26 1.99-1.19 2.04-1.11 2.08-1.03 2.13-0.96 2.18-0.87 2.21-0.79 2.25-0.7 2.29-0.62 2.32-0.53 2.35-0.43 2.39-0.34 2.41-0.25 2.44-0.15 2.46-0.05 2.46 0.05 2.44 0.15zm-8.17 18.93l-1.61 0.17-1.59 0.23-1.57 0.29-1.54 0.35-1.53 0.41-1.5 0.47-1.47 0.52-1.45 0.59-1.42 0.63-1.39 0.69-1.36 0.74-1.33 0.79-1.29 0.85-1.26 0.88-1.23 0.94-1.18 0.98-1.15 1.02-1.11 1.07-1.07 1.11-1.02 1.15-0.98 1.18-0.94 1.23-0.88 1.26-0.85 1.29-0.79 1.33-0.74 1.36-0.69 1.39-0.63 1.42-0.59 1.45-0.52 1.47-0.47 1.5-0.41 1.53-0.35 1.54-0.29 1.57-0.23 1.59-0.17 1.61-0.1 1.63-0.03 1.64 0.03 1.64 0.1 1.63 0.17 1.61 0.23 1.59 0.29 1.57 0.35 1.54 0.41 1.53 0.47 1.5 0.52 1.47 0.59 1.45 0.63 1.42 0.69 1.39 0.74 1.36 0.79 1.33 0.85 1.29 0.88 1.26 0.94 1.23 0.98 1.18 1.02 1.15 1.07 1.11 1.11 1.07 1.15 1.02 1.18 0.98 1.23 0.94 1.26 0.88 1.29 0.85 1.33 0.79 1.36 0.74 1.39 0.69 1.42 0.63 1.45 0.59 1.47 0.52 1.5 0.47 1.53 0.41 1.54 0.35 1.57 0.29 1.59 0.23 1.61 0.17 1.63 0.1 1.64 0.03 1.64-0.03 1.63-0.1 1.61-0.17 1.59-0.23 1.57-0.29 1.54-0.35 1.53-0.41 1.5-0.47 1.47-0.52 1.45-0.59 1.42-0.63 1.39-0.69 1.36-0.74 1.33-0.79 1.29-0.84 1.26-0.89 1.23-0.94 1.18-0.98 1.15-1.02 1.11-1.07 1.07-1.11 1.02-1.14 0.98-1.19 0.94-1.23 0.88-1.26 0.85-1.29 0.79-1.33 0.74-1.36 0.69-1.39 0.63-1.42 0.59-1.45 0.52-1.47 0.47-1.5 0.41-1.53 0.35-1.54 0.29-1.57 0.23-1.59 0.17-1.61 0.1-1.63 0.03-1.64-0.03-1.64-0.1-1.63-0.17-1.61-0.23-1.59-0.29-1.56-0.35-1.55-0.41-1.53-0.47-1.5-0.52-1.47-0.59-1.45-0.63-1.42-0.69-1.39-0.74-1.36-0.79-1.33-0.85-1.29-0.88-1.26-0.94-1.23-0.98-1.18-1.02-1.15-1.07-1.11-1.11-1.07-1.15-1.02-1.18-0.98-1.23-0.94-1.26-0.88-1.29-0.85-1.33-0.79-1.36-0.74-1.39-0.69-1.42-0.63-1.45-0.59-1.47-0.52-1.5-0.47-1.53-0.41-1.54-0.35-1.57-0.29-1.59-0.23-1.61-0.17-1.63-0.1-1.64-0.03-1.64 0.03-1.63 0.1z"/>
<path id="an" d="m520.33 515.9c-18.55 0-33.6 15.05-33.6 33.6 0 18.56 15.05 33.6 33.6 33.6 18.56 0 33.6-15.04 33.6-33.6 0-18.55-15.04-33.6-33.6-33.6z"/>
<path id="ax" d="m507.54 390.38c-9.22-7.67-14.35-11.93-15.37-12.79 7.67-9.22 11.93-14.35 12.78-15.37 9.23 7.67 14.35 11.93 15.38 12.78-7.67 9.23-11.93 14.35-12.79 15.38z"/>
<path id="e" d="m545.71 422.66c-9.23-7.68-14.35-11.94-15.38-12.79 7.68-9.23 11.94-14.35 12.8-15.38 9.22 7.68 14.34 11.94 15.37 12.8-7.68 9.22-11.94 14.34-12.79 15.37z"/>
<path id="k" d="m584.52 454.25c-9.22-7.68-14.35-11.94-15.37-12.79 7.67-9.23 11.93-14.35 12.79-15.38 9.22 7.68 14.35 11.94 15.37 12.79-7.67 9.23-11.94 14.35-12.79 15.38z"/>
<path id="j" d="m216.11 80.26c-6.47-10.1-10.07-15.72-10.79-16.84 10.11-6.47 15.73-10.07 16.85-10.79 6.47 10.11 10.06 15.73 10.78 16.85-10.1 6.47-15.72 10.07-16.84 10.78z"/>
<path id="al" d="m243.05 122.26c-6.47-10.11-10.06-15.72-10.78-16.85 10.1-6.46 15.72-10.06 16.84-10.78 6.47 10.11 10.06 15.72 10.78 16.85-10.1 6.46-15.72 10.06-16.84 10.78z"/>
<path id="ai" d="m270.01 164.24c-6.47-10.1-10.06-15.72-10.78-16.84 10.11-6.47 15.72-10.06 16.84-10.78 6.47 10.11 10.07 15.72 10.78 16.84-10.1 6.47-15.72 10.07-16.84 10.78z"/>
<path id="af" d="m166.92 390.39c-7.67-9.23-11.94-14.35-12.79-15.38 9.23-7.67 14.35-11.94 15.37-12.79 7.68 9.23 11.94 14.35 12.8 15.37-9.23 7.68-14.35 11.94-15.38 12.8z"/>
<path id="p" d="m128.04 422.72c-7.67-9.22-11.93-14.35-12.79-15.37 9.23-7.68 14.36-11.94 15.38-12.79 7.68 9.22 11.94 14.35 12.79 15.38-9.23 7.67-14.35 11.93-15.38 12.78z"/>
<path id="ab" d="m89.9 454.47c-7.67-9.22-11.93-14.35-12.78-15.38 9.22-7.67 14.35-11.93 15.37-12.78 7.67 9.22 11.94 14.35 12.79 15.37-9.23 7.68-14.35 11.94-15.38 12.79z"/>
<path id="ah" d="m388.68 264.64l-10.47-2.85-11.88-1.08-7.29 0.53-9.67 1.41-9.72 4.41-6.58 4.28-6.62 4.95-4.46 5.08-3.4 4.85-2.52 4.37-3.27 6.8c-0.26 1.23-0.41 1.92-0.44 2.06 5.17-12.08 17.16-20.54 31.13-20.54 7.07 0 13.63 2.17 19.07 5.88 0.58 0.48 1.19 0.93 1.83 1.34 0.13 0.11 0.27 0.21 0.41 0.32 0 0 0.02-0.03 0.02-0.04 2.43 1.51 5.19 2.53 8.15 2.93 0.9 0.12 1.82 0.18 2.76 0.18 6.36 0 12.05-2.87 15.84-7.39 2.61-3.11 4.33-7 4.74-11.28-0.13-0.18-0.78-1.07-1.93-2.68l-5.7-3.53z"/>
<path id="l" d="m361.03 239.57c-0.21-0.03-1.28-0.16-3.19-0.39l-12.23 0.39-5.5 2.34-11.26 4.47-8.61 7.24-4.98 4.52-4.18 6.43-4.18 6.73-3.24 9.32-1.28 6.7-0.47 4.13v7.76l0.47 5.32 1.88 8.52 2.68 6.82 2.05 4.13 2.64 3.75 2.26 3.07 2.42 2.55 0.75 0.61c0.09 0.04 0.14 0.06 0.15 0.06-4.73-5.81-7.57-13.23-7.57-21.3 0-0.92 0.04-1.82 0.11-2.72 0.3-3.73 1.2-7.28 2.61-10.57 6.65-18.84 23.01-33.1 43.09-36.75 3.29-0.6 6.69-0.91 10.16-0.91 7.29 0 14.25 1.38 20.64 3.89 3.54 1.39 6.91 3.13 10.06 5.17 0.06-0.65 0.1-1.32 0.1-1.99 0-6.56-2.99-12.52-7.76-16.31-11.64-7.04-20.85-11.37-27.62-12.98z"/>
<path id="at" d="m356.91 238.7c-4.35-0.78-8.82-1.19-13.38-1.19-17.74 0-34.05 6.14-46.91 16.4-3.7 2.95-7.11 6.23-10.19 9.81-0.03 0.04-0.16 0.23-0.39 0.57l-0.98 1.66-1.08 2-2.42 6.1-1.55 5.27-1.01 7.8v7.84l1.15 9.52 3.54 10.25 5.74 9.22 6.76 8.06 7.75 6.16 6.17 3.83 9.1 3.8 9.98 1.84 6.09 0.34 5.91-0.34 4.15-0.72c0.87-0.31 1.36-0.48 1.45-0.52-1.08 0.11-2.19 0.16-3.3 0.16-6.96 0-13.43-2.1-18.81-5.7-2.82-1.89-5.34-4.19-7.47-6.82-3.02-3.29-5.65-6.94-7.83-10.89-4.46-8.07-7-17.34-7-27.21 0-19.07 9.47-35.93 23.96-46.14 9.19-6.47 20.4-10.28 32.49-10.28 0.74 0 1.47 0.02 2.2 0.05-1.36-0.33-2.74-0.62-4.12-0.87"/>
<path id="ao" d="m363.71 340.11l-1.49 1.35c-0.21 0.55-0.33 0.85-0.35 0.91 0.63-0.74 1.25-1.49 1.84-2.26-0.5 0.29-1.01 0.56-1.51 0.83-4.77 2.53-9.95 4.39-15.41 5.46-3.55 0.7-7.21 1.07-10.97 1.07-7.28 0-14.25-1.38-20.64-3.89-20.97-8.24-35.81-28.65-35.81-52.53 0-9.91 2.57-19.23 7.06-27.33-11.33 13.17-18.18 30.29-18.18 49.02 0 8.83 1.53 17.31 4.33 25.18 0.01 0.01 0.02 0.04 0.05 0.1l0.11 0.22 0.36 0.62 1.96 3.19 6.29 6.52 7.12 5.25 7.82 4.3 11.63 3.72 10.73 1.1 7.12-0.44 6.77-1.32 5.39-1.57 8.72-3.86 8.56-5.9 4.72-3.89 3.5-4.03 0.94-1.33-0.66-0.49z"/>
<path id="o" d="m372.17 350.77c-3.97-7.05-6.18-10.97-6.62-11.75-0.61 0.37-1.22 0.74-1.84 1.09-3.47 4.51-7.61 8.48-12.27 11.76-6.55 4.62-14.13 7.88-22.33 9.37-3.29 0.6-6.69 0.92-10.16 0.92-19.21 0-36.17-9.59-46.37-24.24 10.37 29.16 38.22 50.04 70.94 50.04 15.69 0 30.22-4.78 42.27-12.98-0.13-0.23-0.76-1.35-1.9-3.38l-11.72-20.83z"/>
<path id="s" d="m407.69 341.98c0-17.51-14.21-31.7-31.73-31.7-2.65 0-5.23 0.32-7.69 0.94-8.88 2.2-16.27 8.15-20.43 16.06 0.01 0 0.01 0.01 0.01 0.01h5.12l27.53 3.3 3.8 8.78 4.27 16.67-8.01 15.83c-1.14 4.51-1.78 7.02-1.9 7.52 8.13-4.27 15.39-9.98 21.43-16.79l-0.01-0.01c4.74-5.55 7.61-12.74 7.61-20.61"/>
<path id="h" d="m362.46 323.54c-5.3 0-10.28 1.36-14.61 3.75 11.91 5.32 19.88 14.99 19.88 26.05 0 11.33-8.39 21.22-20.82 26.45-5.98 2.52-12.9 3.96-20.28 3.96-3.62 0-7.13-0.35-10.48-1 8.55 3.36 17.85 5.21 27.58 5.21 9.68 0 18.92-1.82 27.41-5.15 2.58-1 5.09-2.14 7.52-3.42 8.47-5.37 14.09-14.82 14.09-25.58 0-16.72-13.56-30.27-30.29-30.27"/>
<path id="az" d="m397.48 267.42c1.71 6.38-0.96 12.05-3.57 15.44-2.5 3.24-8.55 7.94-15.03 8.43-4.5 0.35-9.44-0.92-14.83-3.79-4.62-3.5-9.83-5.53-15.64-6.1-8.71-0.84-14.15 0.35-19.18 2.74-13.36 6.33-18.62 22.51-18.62 28.71 0 6.28 1.68 25.17 18.89 32.03 4.68 1.86 10.74 3.9 19.37 3.12 5.76-0.52 10.82-2.6 15.18-6.24-1.86-2.87-4.05-5.34-6.58-7.42-2.53-2.07-5.4-3.74-8.6-5.01 5.98-8.74 12.86-14.07 20.62-15.98 11.65-2.86 20.13 1.24 25.97 4.55 5.84 3.3 12 13.29 12.73 23.86 0.43 6.08-1.43 12.18-5.56 18.32-4.81 7.17-10.11 12.83-15.88 16.98-7.19 5.18-14.64 7.65-21.3 9.88-11.99 4.02-28.92 2.62-38.88 0.37-8.16-1.84-10.16-3.39-16.68-6.06-20.71-8.5-41.42-33.22-40.84-67.15 0.35-20.2 8.71-40.1 21.98-52.45 5.54-5.15 12.18-13.41 30.11-18.34 17.93-4.94 29.92-4.13 41.61-1.4 10.17 2.37 19.09 6.56 26.77 12.56 4.24 4.64 6.89 8.96 7.96 12.95z"/>
<path id="d" d="m225.84 520.9l0.15 0.03 0.15 0.03 0.15 0.04 0.14 0.03 0.15 0.03 0.15 0.04 0.15 0.03 0.14 0.03 0.15 0.04 0.15 0.03 0.14 0.03 0.15 0.04 0.15 0.03 0.15 0.04 0.14 0.03 0.15 0.03 0.15 0.04 0.14 0.03 0.15 0.04 0.15 0.03 0.14 0.04 0.15 0.03 0.15 0.04 0.14 0.03 0.15 0.03 0.15 0.04 0.14 0.03 0.15 0.04 0.15 0.03 0.14 0.04 0.15 0.03 0.14 0.04 0.15 0.03 0.14 0.04 0.15 0.03 0.14 0.04 0.15 0.04 0.14 0.03 0.15 0.04 0.14 0.03 2.92-11.69 7.32 1.82-3 12.01 0.69 0.24 0.67 0.25 0.67 0.25 0.66 0.27 0.64 0.26 0.64 0.28 0.62 0.28 0.61 0.29 0.59 0.3 0.58 0.3 0.57 0.32 0.55 0.32 0.53 0.33 0.52 0.34 0.5 0.35 0.49 0.36 0.47 0.37 0.45 0.38 0.43 0.39 0.41 0.4 0.39 0.41 0.37 0.42 0.35 0.43 0.33 0.44 0.31 0.46 0.28 0.46 0.26 0.48 0.24 0.5 0.22 0.5 0.19 0.52 0.16 0.53 0.14 0.54 0.11 0.55 0.09 0.57 0.06 0.59 0.03 0.6v0.61l-0.02 0.63-0.06 0.64-0.08 0.66h-0.01l-0.07 0.48-0.09 0.47-0.1 0.46-0.1 0.44-0.12 0.43-0.12 0.42-0.13 0.41-0.15 0.4-0.15 0.38-0.16 0.37-0.17 0.37-0.17 0.35-0.19 0.34-0.19 0.32-0.2 0.32-0.21 0.31-0.22 0.3-0.22 0.28-0.23 0.28-0.24 0.26-0.25 0.26-0.25 0.24-0.26 0.24-0.27 0.22-0.27 0.22-0.28 0.21-0.29 0.19-0.29 0.19-0.3 0.18-0.3 0.17-0.31 0.16-0.32 0.15-0.32 0.15-0.33 0.13-0.33 0.13-0.34 0.12-0.34 0.11-0.35 0.1-0.35 0.1-0.35 0.08 0.48 0.26 0.48 0.27 0.46 0.27 0.44 0.28 0.44 0.29 0.42 0.3 0.41 0.31 0.39 0.31 0.38 0.32 0.36 0.33 0.35 0.34 0.33 0.34 0.32 0.36 0.3 0.37 0.28 0.37 0.27 0.39 0.25 0.39 0.24 0.41 0.21 0.41 0.2 0.43 0.18 0.43 0.16 0.45 0.14 0.46 0.12 0.47 0.11 0.48 0.08 0.49 0.06 0.5 0.05 0.52 0.02 0.53v0.54l-0.02 0.55-0.04 0.57-0.07 0.57-0.08 0.6-0.11 0.6-0.13 0.62-0.16 0.63-0.18 0.65-0.2 0.65-0.23 0.68-0.3 0.82-0.33 0.79-0.34 0.75-0.37 0.72-0.38 0.68-0.41 0.64-0.42 0.61-0.44 0.57-0.47 0.54-0.47 0.51-0.5 0.47-0.52 0.45-0.53 0.41-0.55 0.38-0.57 0.35-0.59 0.33-0.6 0.3-0.62 0.26-0.63 0.25-0.65 0.21-0.67 0.19-0.68 0.17-0.7 0.14-0.72 0.12-0.73 0.09-0.74 0.07-0.76 0.05-0.77 0.03-0.79 0.01-0.8-0.01-0.82-0.03-0.82-0.05-0.85-0.06-0.85-0.08-0.87-0.1-0.88-0.12-0.89-0.13-0.91-0.14-0.92-0.16-0.93-0.17-3.02 12.13-7.32-1.82 2.99-11.97-0.14-0.03-0.14-0.04-0.15-0.03-0.14-0.04-0.14-0.03-0.15-0.04-0.14-0.04-0.14-0.03-0.14-0.04-0.15-0.04-0.14-0.03-0.15-0.04-0.14-0.04-0.14-0.03-0.15-0.04-0.14-0.04-0.15-0.03-0.14-0.04-0.15-0.04-0.14-0.04-0.15-0.03-0.15-0.04-0.14-0.04-0.15-0.04-0.14-0.04-0.15-0.03-0.15-0.04-0.14-0.04-0.15-0.04-0.15-0.04-0.15-0.04-0.14-0.04-0.15-0.04-0.15-0.04-0.15-0.04-0.15-0.04-0.15-0.04-0.15-0.04-0.15-0.04-0.15-0.04-3 12.02-7.3-1.82 3.03-12.15-14.73-3.72 3.63-8.38 0.09 0.02 0.06 0.02 0.08 0.02 0.1 0.02 0.11 0.03 0.12 0.04 0.13 0.03 0.15 0.04 0.16 0.04 0.16 0.05 0.18 0.04 0.18 0.05 0.18 0.05 0.19 0.05 0.2 0.05 0.19 0.05 0.2 0.05 0.21 0.05 0.2 0.06 0.2 0.05 0.19 0.05 0.2 0.05 0.19 0.05 0.18 0.04 0.18 0.05 0.17 0.04 0.16 0.04 0.16 0.04 0.14 0.03 0.13 0.03 0.12 0.03 0.11 0.02 0.09 0.02 0.07 0.02 0.06 0.01 0.05 0.01h0.02l0.01-0.01 0.15 0.04 0.15 0.02 0.14 0.03 0.14 0.01 0.14 0.01h0.13 0.13l0.12-0.01 0.12-0.01 0.12-0.02 0.11-0.02 0.11-0.03 0.11-0.03 0.1-0.03 0.1-0.04 0.09-0.05 0.1-0.04 0.08-0.06 0.09-0.05 0.08-0.06 0.08-0.05 0.08-0.07 0.07-0.06 0.07-0.07 0.06-0.06 0.07-0.07 0.06-0.07 0.05-0.07 0.06-0.08 0.05-0.07 0.05-0.07 0.05-0.08 0.04-0.07 0.04-0.08 0.04-0.07 0.04-0.07 0.04-0.07 0.03-0.07 0.03-0.07 0.03-0.07 8.2-32.91 0.01-0.12v-0.12-0.12-0.12l-0.01-0.12v-0.12l-0.02-0.13-0.01-0.12-0.02-0.12-0.02-0.13-0.03-0.12-0.03-0.13-0.04-0.12-0.04-0.12-0.04-0.12-0.05-0.13-0.06-0.12-0.06-0.12-0.07-0.12-0.07-0.11-0.07-0.12-0.09-0.11-0.09-0.11-0.09-0.12-0.1-0.1-0.11-0.11-0.11-0.1-0.13-0.1-0.12-0.1-0.14-0.1-0.14-0.09-0.15-0.09-0.16-0.08-0.17-0.08-0.17-0.08-0.19-0.08-0.19-0.07-0.2-0.06-0.21-0.07-0.22-0.05v-0.01l-0.02-0.01-0.04-0.02-0.06-0.02-0.07-0.02-0.09-0.03-0.11-0.03-0.11-0.03-0.13-0.04-0.15-0.03-0.15-0.04-0.16-0.04-0.17-0.05-0.18-0.04-0.19-0.05-0.19-0.04-0.19-0.05-0.2-0.05-0.2-0.05-0.2-0.04-0.2-0.05-0.2-0.05-0.2-0.05-0.19-0.04-0.2-0.05-0.18-0.04-0.18-0.04-0.18-0.04-0.16-0.04-0.16-0.04-0.15-0.03-0.13-0.04-0.13-0.02-0.11-0.03-0.09-0.02-0.08-0.02-0.07-0.02-0.05-0.01-0.04-0.01 1.95-7.81 14.75 3.66 2.99-12.01 7.31 1.82-2.94 11.78zm-10.15 47.04l1.62 0.42 1.86 0.46 2.04 0.45 2.14 0.38 2.2 0.27 2.17 0.11 2.1-0.1 1.96-0.35 1.74-0.65 1.48-1.01 1.14-1.41 0.75-1.85 0.23-2.07-0.33-1.83-0.83-1.61-1.23-1.41-1.56-1.22-1.81-1.06-1.98-0.9-2.08-0.76-2.08-0.64-2.01-0.54-1.86-0.44-1.63-0.37-1.33-0.31-4.01 16.1 1.31 0.34zm5.87-23.46l1.66 0.44 1.92 0.45 2.08 0.39 2.17 0.27 2.15 0.08 2.06-0.19 1.88-0.52 1.61-0.94 1.25-1.4 0.81-1.96 0.22-2.19-0.43-1.88-0.98-1.61-1.41-1.34-1.73-1.13-1.95-0.92-2.04-0.74-2.03-0.6-1.91-0.47-1.68-0.38-1.34-0.31-3.64 14.6 1.33 0.35z"/>
<path id="ar" d="m97.62 177.12v72.61l0.73 0.72 33.59-19.87-33.59-55.99-0.73 2.53z"/>
<path id="am" d="m64.75 230.58l33.6 19.87v-35.4-40.46l-33.6 55.99z"/>
<path id="c" d="m97.98 257.32v25.65l0.37 1.44 33.59-47.68-33.59 19.86-0.37 0.73z"/>
<path id="aw" d="m98.35 256.59l-33.6-19.86 33.6 47.68v-27.82z"/>
<path id="v" d="m131.94 230.58l-33.59-15.53v35.4l33.59-19.87z"/>
<path id="ag" d="m98.35 250.45v-35.4l-33.6 15.53 33.6 19.87z"/>
<path id="ay" d="m544.9 212.08l15.1-15.1 15.11 15.11 8.78-8.78-23.89-23.9-23.88 23.89 8.78 8.78z"/>
<path id="u" d="m521.13 218.28l8.78-8.78 8.79 8.78-8.79 8.79-8.78-8.79z"/>
<path id="b" d="m544.9 224.49l15.1 15.1 15.11-15.11 8.79 8.78-0.01 0.01-23.89 23.89-23.88-23.89-0.02-0.01 8.8-8.77z"/>
<path id="i" d="m581.3 218.29l8.79-8.79 8.78 8.79-8.78 8.78-8.79-8.78z"/>
<path id="q" d="m568.91 218.28l-8.91-8.91-6.59 6.58-0.76 0.76-1.56 1.56-0.01 0.02 0.01 0.01 8.91 8.91 8.91-8.92h0.01l-0.01-0.01z"/>
<path id="r" d="m410.17 82.91c0.43 0.65 3.81 5.81 4.23 6.46-3.7 1.96-7.67 2.96-11.9 2.96-12.65 0-22.07-8.42-22.07-21.81 0.21-13.43 9.9-21.85 22.28-21.85 4.45 0 7.68 1 11.17 2.75-0.4 0.67-3.57 6.04-3.97 6.71-1.96-0.74-4.23-1.22-6.45-1.22-7.46 0-13.39 4.71-13.39 13.66 0 8.37 5.71 13.56 13.65 13.56 2.22 0 4.45-0.48 6.45-1.22z"/>
<path id="aq" d="m530.07 530.57c5.22 2.56 9.38 7.2 11.35 12.67 0.87 2.42 1.33 4.98 1.33 7.54v9.53c0 0.39 0.01 0.78-0.08 1.16-0.21 0.97-0.9 1.81-1.8 2.22-0.63 0.29-1.35 0.33-2.02 0.22-1.45-0.27-2.59-1.63-2.6-3.1-0.01-2.96 0-5.91 0-8.87 0.02-0.84 0.03-1.74-0.42-2.48-0.74-1.37-2.52-2.01-3.96-1.43-1.22 0.43-2.1 1.66-2.11 2.95-0.01 3.01 0 6.01 0 9 0 0.56 0.03 1.13-0.14 1.67-0.3 1.06-1.18 1.92-2.24 2.21-1.39 0.38-2.99-0.24-3.69-1.52-0.47-0.77-0.44-1.7-0.43-2.57-0.01-2.98 0.01-5.96-0.01-8.94-0.03-1.51-1.27-2.88-2.77-3.07-0.98-0.14-2 0.18-2.71 0.87-0.64 0.61-1.01 1.47-1.01 2.35v8.68c-0.01 0.73 0.07 1.49-0.2 2.17-0.44 1.24-1.68 2.15-3.01 2.12-1.35 0.08-2.67-0.86-3.1-2.13-0.24-0.62-0.19-1.3-0.19-1.95 0-3 0.01-6 0-8.99-0.01-1.49-1.17-2.84-2.62-3.11-1.32-0.28-2.78 0.39-3.44 1.57-0.28 0.5-0.43 1.07-0.43 1.63v9.73c0.01 0.94-0.42 1.89-1.15 2.49-1.11 0.96-2.88 1.02-4.04 0.13-0.83-0.58-1.33-1.56-1.33-2.58v-9.85c0.01-3.73 0.95-7.45 2.73-10.73 1.45-2.68 3.45-5.06 5.84-6.96 3.6-2.91 8.12-4.65 12.75-4.93 3.94-0.25 7.95 0.54 11.5 2.3z"/>
</defs>
<use fill="#e35f9b" xlink:href="#z"/>
<use fill-opacity="0" stroke="#000000" stroke-opacity="0" xlink:href="#z"/>
<use fill="#000000" xlink:href="#aj"/>
<use fill-opacity="0" stroke="#000000" stroke-opacity="0" xlink:href="#aj"/>
<use fill="#000000" xlink:href="#a"/>
<use fill-opacity="0" stroke="#000000" stroke-opacity="0" xlink:href="#a"/>
<use fill="#000000" xlink:href="#ak"/>
<use fill-opacity="0" stroke="#000000" stroke-opacity="0" xlink:href="#ak"/>
<use fill="#ffffff" xlink:href="#g"/>
<use fill-opacity="0" stroke="#000000" stroke-opacity="0" xlink:href="#g"/>
<use fill="#000000" xlink:href="#f"/>
<use fill-opacity="0" stroke="#000000" stroke-opacity="0" xlink:href="#f"/>
<use fill="#5050b9" xlink:href="#av"/>
<use fill-opacity="0" stroke="#000000" stroke-opacity="0" xlink:href="#av"/>
<use fill="#000000" xlink:href="#ad"/>
<use fill-opacity="0" stroke="#000000" stroke-opacity="0" xlink:href="#ad"/>
<use fill="#ffffff" xlink:href="#as"/>
<use fill-opacity="0" stroke="#000000" stroke-opacity="0" xlink:href="#as"/>
<use fill="#a12696" xlink:href="#m"/>
<use fill-opacity="0" stroke="#000000" stroke-opacity="0" xlink:href="#m"/>
<use fill="#000000" xlink:href="#w"/>
<use fill-opacity="0" stroke="#000000" stroke-opacity="0" xlink:href="#w"/>
<use fill="#ffffff" xlink:href="#ac"/>
<use fill-opacity="0" stroke="#000000" stroke-opacity="0" xlink:href="#ac"/>
<use fill="#5050b9" xlink:href="#au"/>
<use fill-opacity="0" stroke="#000000" stroke-opacity="0" xlink:href="#au"/>
<use fill="#000000" xlink:href="#ap"/>
<use fill-opacity="0" stroke="#000000" stroke-opacity="0" xlink:href="#ap"/>
<use fill="#ffffff" xlink:href="#aa"/>
<use fill-opacity="0" stroke="#000000" stroke-opacity="0" xlink:href="#aa"/>
<use fill="#43437d" xlink:href="#ae"/>
<use fill-opacity="0" stroke="#000000" stroke-opacity="0" xlink:href="#ae"/>
<use fill="#000000" xlink:href="#n"/>
<use fill-opacity="0" stroke="#000000" stroke-opacity="0" xlink:href="#n"/>
<use fill="#ffffff" xlink:href="#t"/>
<use fill-opacity="0" stroke="#000000" stroke-opacity="0" xlink:href="#t"/>
<use fill="#43437d" xlink:href="#y"/>
<use fill-opacity="0" stroke="#000000" stroke-opacity="0" xlink:href="#y"/>
<use fill="#000000" xlink:href="#x"/>
<use fill-opacity="0" stroke="#000000" stroke-opacity="0" xlink:href="#x"/>
<use fill="#ffffff" xlink:href="#an"/>
<use fill-opacity="0" stroke="#000000" stroke-opacity="0" xlink:href="#an"/>
<use fill="#000000" xlink:href="#ax"/>
<use fill-opacity="0" stroke="#000000" stroke-opacity="0" xlink:href="#ax"/>
<use fill="#000000" xlink:href="#e"/>
<use fill-opacity="0" stroke="#000000" stroke-opacity="0" xlink:href="#e"/>
<use fill="#000000" xlink:href="#k"/>
<use fill-opacity="0" stroke="#000000" stroke-opacity="0" xlink:href="#k"/>
<use fill="#000000" xlink:href="#j"/>
<use fill-opacity="0" stroke="#000000" stroke-opacity="0" xlink:href="#j"/>
<use fill="#000000" xlink:href="#al"/>
<use fill-opacity="0" stroke="#000000" stroke-opacity="0" xlink:href="#al"/>
<use fill="#000000" xlink:href="#ai"/>
<use fill-opacity="0" stroke="#000000" stroke-opacity="0" xlink:href="#ai"/>
<use fill="#000000" xlink:href="#af"/>
<use fill-opacity="0" stroke="#000000" stroke-opacity="0" xlink:href="#af"/>
<use fill="#000000" xlink:href="#p"/>
<use fill-opacity="0" stroke="#000000" stroke-opacity="0" xlink:href="#p"/>
<use fill="#000000" xlink:href="#ab"/>
<use fill-opacity="0" stroke="#000000" stroke-opacity="0" xlink:href="#ab"/>
<use fill="#244d89" xlink:href="#ah"/>
<use fill-opacity="0" stroke="#000000" stroke-opacity="0" xlink:href="#ah"/>
<use fill="#3fc2f0" xlink:href="#l"/>
<use fill-opacity="0" stroke="#000000" stroke-opacity="0" xlink:href="#l"/>
<use fill="#2c84bd" xlink:href="#at"/>
<use fill-opacity="0" stroke="#000000" stroke-opacity="0" xlink:href="#at"/>
<use fill="#38589a" xlink:href="#ao"/>
<use fill-opacity="0" stroke="#000000" stroke-opacity="0" xlink:href="#ao"/>
<use fill="#244d89" xlink:href="#o"/>
<use fill-opacity="0" stroke="#000000" stroke-opacity="0" xlink:href="#o"/>
<use fill="#3fc2f0" xlink:href="#s"/>
<use fill-opacity="0" stroke="#000000" stroke-opacity="0" xlink:href="#s"/>
<use fill="#2c84bd" xlink:href="#h"/>
<use fill-opacity="0" stroke="#000000" stroke-opacity="0" xlink:href="#h"/>
<use fill-opacity="0" stroke="#000000" stroke-width="6" xlink:href="#az"/>
<use fill="#f7931a" xlink:href="#d"/>
<use fill-opacity="0" stroke="#000000" stroke-opacity="0" xlink:href="#d"/>
<use fill="#343434" xlink:href="#ar"/>
<use fill-opacity="0" stroke="#000000" stroke-opacity="0" xlink:href="#ar"/>
<use fill="#8c8c8c" xlink:href="#am"/>
<use fill-opacity="0" stroke="#000000" stroke-opacity="0" xlink:href="#am"/>
<use fill="#3c3c3b" xlink:href="#c"/>
<use fill-opacity="0" stroke="#000000" stroke-opacity="0" xlink:href="#c"/>
<use fill="#8c8c8c" xlink:href="#aw"/>
<use fill-opacity="0" stroke="#000000" stroke-opacity="0" xlink:href="#aw"/>
<use fill="#141414" xlink:href="#v"/>
<use fill-opacity="0" stroke="#000000" stroke-opacity="0" xlink:href="#v"/>
<use fill="#393939" xlink:href="#ag"/>
<use fill-opacity="0" stroke="#000000" stroke-opacity="0" xlink:href="#ag"/>
<use fill="#f3ba2f" xlink:href="#ay"/>
<use fill-opacity="0" stroke="#000000" stroke-opacity="0" xlink:href="#ay"/>
<use fill="#f3ba2f" xlink:href="#u"/>
<use fill-opacity="0" stroke="#000000" stroke-opacity="0" xlink:href="#u"/>
<use fill="#f3ba2f" xlink:href="#b"/>
<use fill-opacity="0" stroke="#000000" stroke-opacity="0" xlink:href="#b"/>
<use fill="#f3ba2f" xlink:href="#i"/>
<use fill-opacity="0" stroke="#000000" stroke-opacity="0" xlink:href="#i"/>
<use fill="#f3ba2f" xlink:href="#q"/>
<use fill-opacity="0" stroke="#000000" stroke-opacity="0" xlink:href="#q"/>
<use fill="#0667d0" xlink:href="#r"/>
<use fill-opacity="0" stroke="#000000" stroke-opacity="0" xlink:href="#r"/>
<use fill="#0da8ff" xlink:href="#aq"/>
<use fill-opacity="0" stroke="#000000" stroke-opacity="0" xlink:href="#aq"/>
</svg>
