<?xml version="1.0" encoding="UTF-8" standalone="no"?>
<!DOCTYPE svg PUBLIC "-//W3C//DTD SVG 1.1//EN" "http://www.w3.org/Graphics/SVG/1.1/DTD/svg11.dtd">
<svg version="1.1" xmlns="http://www.w3.org/2000/svg" xmlns:xlink="http://www.w3.org/1999/xlink" preserveAspectRatio="xMidYMid meet" viewBox="0 0 640 640" width="640" height="640"><defs><path d="M421.77 208.73L479.61 108.33L540.56 143.44L513.02 191.25L452.06 156.14" id="d2TXxIRNOV"></path><path d="M541.33 309.07C552.46 336.43 558.58 366.37 558.58 397.72C558.58 414.69 556.79 431.24 553.37 447.19C543.55 493.15 520.3 534.13 487.93 565.84C472.3 581.17 454.52 594.34 435.1 604.84C401.81 622.87 363.7 633.1 323.2 633.1C319.26 633.1 315.34 633.01 311.45 632.81C237.97 629.2 173.36 591.89 132.72 536.02C104.48 497.19 87.82 449.39 87.82 397.72C87.82 395.14 87.86 392.58 87.94 390.01C89.64 337.21 108.74 288.79 139.68 250.32C179.29 201.07 238.31 168.11 305.12 163.03C311.09 162.57 317.12 162.34 323.2 162.34C376.18 162.34 425.07 179.84 464.41 209.38C473.29 216.04 481.68 223.32 489.52 231.16C511.61 253.23 529.37 279.66 541.33 309.07Z" id="dZsvpQhFK"></path><path d="M268.89 577.24C218.42 534.07 186.43 469.92 186.43 398.31C186.43 334.8 211.59 277.15 252.48 234.82C275 211.49 302.3 192.8 332.8 180.33C345.52 175.14 358.79 171.04 372.51 168.12C356.61 164.72 340.12 162.92 323.2 162.92C291.7 162.92 261.65 169.12 234.19 180.33C203.69 192.8 176.39 211.49 153.87 234.82C112.98 277.15 87.82 334.8 87.82 398.31C87.82 469.92 119.81 534.07 170.28 577.24C192.02 595.85 217.21 610.57 244.74 620.29C269.28 628.97 295.7 633.69 323.2 633.69C340.11 633.69 356.59 631.89 372.49 628.51C362.53 626.38 352.8 623.63 343.35 620.29C315.82 610.57 290.63 595.85 268.89 577.24Z" id="eENPo0Gk"></path><path d="M445.11 303.03C447.79 301 450.83 299.57 454.17 298.87C469.79 295.67 485.9 309.95 490.19 330.79C494.46 351.62 485.3 371.1 469.68 374.31C464.69 375.35 459.62 374.57 454.93 372.37C444.96 367.69 436.6 356.57 433.68 342.41C430.31 326.03 435.26 310.49 445.11 303.03Z" id="apVVsJ1hJ"></path><path d="M445.11 303.03C455.08 307.71 463.47 318.84 466.36 332.99C469.73 349.37 464.78 364.91 454.93 372.37C444.96 367.69 436.6 356.57 433.68 342.41C430.31 326.03 435.26 310.49 445.11 303.03Z" id="ewGqhsf7Q"></path><path d="M452 378.62C448.55 377 447.07 372.89 448.69 369.44C450.31 365.99 454.42 364.51 457.86 366.13C461.33 367.76 464.93 368.25 468.28 367.56C473.66 366.45 478.23 362.43 481.15 356.22C484.39 349.34 485.2 340.8 483.43 332.18C479.98 315.4 467.21 303.24 455.56 305.63C453.32 306.1 451.19 307.07 449.26 308.53C441.24 314.61 437.69 327.67 440.43 341.02C441.2 344.75 438.8 348.4 435.06 349.16C431.32 349.93 427.69 347.53 426.92 343.8C423.07 325.07 428.57 306.91 440.94 297.53C444.53 294.82 448.51 293.01 452.77 292.12C472.09 288.16 491.9 304.88 496.94 329.4C499.31 340.93 498.13 352.54 493.63 362.1C488.81 372.33 480.8 379.07 471.07 381.07C469.15 381.46 467.2 381.66 465.25 381.66C460.8 381.66 456.3 380.64 452 378.62Z" id="a16KZm49Hn"></path><path d="M485.23 288.79C476.48 275.21 466.08 262.69 454.34 251.56C451.57 248.93 451.46 244.57 454.08 241.8C456.69 239.04 461.06 238.92 463.83 241.54C476.37 253.43 487.47 266.81 496.82 281.31C498.88 284.51 497.96 288.78 494.76 290.84C493.61 291.59 492.31 291.95 491.03 291.95C488.76 291.95 486.55 290.83 485.23 288.79Z" id="c1afsqtIOQ"></path><path d="M453.06 553.76C450.46 550.98 450.6 546.61 453.39 544.01C493.91 506.1 517.15 452.64 517.15 397.34C517.15 385.29 516.07 373.22 513.94 361.46C513.26 357.71 515.75 354.12 519.5 353.44C523.23 352.76 526.83 355.25 527.51 359C529.79 371.57 530.94 384.47 530.94 397.33C530.94 456.44 506.11 513.58 462.81 554.09C461.48 555.33 459.79 555.95 458.1 555.95C456.26 555.95 454.42 555.21 453.06 553.76Z" id="b6MX0Hc6jY"></path><path d="M423.3 575.51C421.22 572.32 422.13 568.04 425.33 565.97C428.85 563.68 432.34 561.26 435.71 558.76C438.77 556.49 443.09 557.13 445.36 560.19C447.63 563.25 446.99 567.57 443.93 569.84C440.33 572.51 436.6 575.1 432.84 577.54C431.68 578.29 430.38 578.65 429.09 578.65C426.83 578.65 424.62 577.55 423.3 575.51Z" id="aHnWTPkJq"></path><path d="M343.04 156.25L352.8 157.24L362.45 158.62L371.97 160.37L381.35 162.5L390.6 164.98L399.7 167.81L408.64 170.99L417.42 174.51L426.02 178.36L434.45 182.53L442.68 187.01L450.73 191.79L458.57 196.88L466.19 202.25L473.6 207.91L480.79 213.83L487.73 220.03L494.44 226.48L500.89 233.19L507.09 240.14L513.02 247.32L518.67 254.73L524.05 262.35L529.13 270.19L533.92 278.24L538.4 286.47L542.56 294.9L546.41 303.51L549.93 312.28L553.11 321.22L555.94 330.32L558.43 339.57L560.55 348.96L562.3 358.47L563.68 368.12L564.67 377.88L565.28 387.75L565.48 397.72L565.28 407.69L564.67 417.56L563.68 427.32L562.3 436.97L560.55 446.49L558.43 455.87L555.94 465.12L553.11 474.22L549.93 483.16L546.41 491.94L542.56 500.54L538.4 508.97L533.92 517.21L529.13 525.25L524.05 533.09L518.67 540.72L513.02 548.12L507.09 555.31L500.89 562.25L494.44 568.96L487.73 575.41L480.79 581.61L473.6 587.54L466.19 593.19L458.57 598.57L450.73 603.65L442.68 608.44L434.45 612.92L426.02 617.08L417.42 620.93L408.64 624.45L399.7 627.63L390.6 630.46L381.35 632.95L371.97 635.07L362.45 636.82L352.8 638.2L343.04 639.2L333.17 639.8L323.2 640L313.23 639.8L303.36 639.2L293.6 638.2L283.95 636.82L274.43 635.07L265.05 632.95L255.8 630.46L246.7 627.63L237.76 624.45L228.98 620.93L220.38 617.08L211.95 612.92L203.72 608.44L195.67 603.65L187.83 598.57L180.21 593.19L172.8 587.54L165.62 581.61L158.67 575.41L151.96 568.96L145.51 562.25L139.31 555.31L133.38 548.12L127.73 540.72L122.36 533.09L117.27 525.25L112.49 517.21L108 508.97L103.84 500.54L99.99 491.94L96.47 483.16L93.29 474.22L90.46 465.12L87.97 455.87L85.85 446.49L84.1 436.97L82.72 427.32L81.73 417.56L81.12 407.69L80.92 397.72L81.12 387.75L81.73 377.88L82.72 368.12L84.1 358.47L85.85 348.96L87.97 339.57L90.46 330.32L93.29 321.22L96.47 312.28L99.99 303.51L103.84 294.9L108 286.47L112.49 278.24L117.27 270.19L122.36 262.35L127.73 254.73L133.38 247.32L139.31 240.14L145.51 233.19L151.96 226.48L158.67 220.03L165.62 213.83L172.8 207.91L180.21 202.25L187.83 196.88L195.67 191.79L203.72 187.01L211.95 182.53L220.38 178.36L228.98 174.51L237.76 170.99L246.7 167.81L255.8 164.98L265.05 162.5L274.43 160.37L283.95 158.62L293.6 157.24L303.36 156.25L313.23 155.64L323.2 155.44L333.17 155.64L343.04 156.25ZM304.49 170L295.28 170.93L286.19 172.23L277.21 173.89L268.36 175.89L259.64 178.23L251.06 180.9L242.63 183.9L234.35 187.22L226.23 190.85L218.29 194.78L210.52 199L202.93 203.52L195.54 208.31L188.35 213.38L181.36 218.71L174.59 224.3L168.04 230.15L161.71 236.23L155.63 242.56L149.78 249.11L144.19 255.88L138.86 262.87L133.79 270.06L129 277.45L124.48 285.04L120.26 292.81L116.33 300.75L112.7 308.87L109.38 317.15L106.38 325.58L103.71 334.16L101.37 342.88L99.37 351.73L97.71 360.71L96.41 369.8L95.47 379.01L94.91 388.32L94.72 397.72L94.91 407.12L95.47 416.43L96.41 425.64L97.71 434.73L99.37 443.71L101.37 452.56L103.71 461.28L106.38 469.86L109.38 478.29L112.7 486.57L116.33 494.69L120.26 502.63L124.48 510.4L129 517.99L133.79 525.38L138.86 532.57L144.19 539.56L149.78 546.33L155.63 552.89L161.71 559.21L168.04 565.3L174.59 571.14L181.36 576.73L188.35 582.06L195.54 587.13L202.93 591.93L210.52 596.44L218.29 600.66L226.23 604.59L234.35 608.22L242.63 611.54L251.06 614.54L259.64 617.21L268.36 619.55L277.21 621.56L286.19 623.21L295.28 624.51L304.49 625.45L313.8 626.01L323.2 626.21L332.6 626.01L341.91 625.45L351.12 624.51L360.21 623.21L369.19 621.56L378.04 619.55L386.76 617.21L395.34 614.54L403.77 611.54L412.05 608.22L420.17 604.59L428.11 600.66L435.88 596.44L443.47 591.93L450.86 587.13L458.05 582.06L465.04 576.73L471.81 571.14L478.36 565.3L484.69 559.21L490.77 552.89L496.62 546.33L502.21 539.56L507.54 532.57L512.61 525.38L517.4 517.99L521.92 510.4L526.14 502.63L530.07 494.69L533.7 486.57L537.02 478.29L540.02 469.86L542.69 461.28L545.03 452.56L547.03 443.71L548.69 434.73L549.99 425.64L550.93 416.43L551.49 407.12L551.68 397.72L551.49 388.32L550.93 379.01L549.99 369.8L548.69 360.71L547.03 351.73L545.03 342.88L542.69 334.16L540.02 325.58L537.02 317.15L533.7 308.87L530.07 300.75L526.14 292.81L521.92 285.04L517.4 277.45L512.61 270.06L507.54 262.87L502.21 255.88L496.62 249.11L490.77 242.56L484.69 236.23L478.36 230.15L471.81 224.3L465.04 218.71L458.05 213.38L450.86 208.31L443.47 203.52L435.88 199L428.11 194.78L420.17 190.85L412.05 187.22L403.77 183.9L395.34 180.9L386.76 178.23L378.04 175.89L369.19 173.89L360.21 172.23L351.12 170.93L341.91 170L332.6 169.43L323.2 169.24L313.8 169.43L304.49 170Z" id="e2pAF7szQh"></path><path d="M317.84 451.41C313 451.41 308.33 450.64 303.96 449.2C321.84 443.37 334.76 426.55 334.76 406.72C334.76 386.88 321.84 370.07 303.96 364.23C308.33 362.8 313 362.02 317.84 362.02C342.52 362.02 362.53 382.04 362.53 406.72C362.53 431.39 342.52 451.41 317.84 451.41Z" id="c2sAsXuPJZ"></path><path d="M208.58 520.58C191.87 528.51 169.75 516.85 159.17 494.56C148.59 472.27 153.55 447.76 170.26 439.83C172.78 438.63 175.43 437.88 178.15 437.55C193.38 435.67 210.68 446.92 219.67 465.86C227.82 483.04 226.75 501.53 218.17 512.74C215.61 516.08 212.41 518.76 208.58 520.58Z" id="b10PAUWo5m"></path><path d="M176.65 484.45C168.49 467.26 169.57 448.76 178.15 437.55C193.38 435.67 210.68 446.92 219.67 465.86C227.82 483.04 226.75 501.53 218.17 512.74C202.92 514.63 185.63 503.38 176.65 484.45Z" id="cXzRO2B1q"></path><path d="M178.37 525.01C167.72 519.4 158.69 509.64 152.94 497.52C147.19 485.39 145.33 472.23 147.72 460.44C150.26 447.92 157.21 438.39 167.3 433.6C177.39 428.81 189.16 429.45 200.47 435.4C211.11 441.01 220.14 450.77 225.89 462.89C227.53 466.33 226.06 470.45 222.62 472.08C219.18 473.71 215.06 472.25 213.43 468.81C208.95 459.36 202.06 451.83 194.04 447.61C186.68 443.73 179.28 443.18 173.21 446.06C167.14 448.94 162.89 455.02 161.24 463.18C159.44 472.06 160.92 482.16 165.4 491.6C169.88 501.05 176.77 508.58 184.79 512.8C192.16 516.68 199.55 517.23 205.62 514.35C211.69 511.47 215.94 505.39 217.59 497.23C218.35 493.5 221.99 491.09 225.72 491.84C229.45 492.6 231.87 496.24 231.11 499.97C228.58 512.49 221.62 522.02 211.54 526.81C207.07 528.93 202.26 529.99 197.31 529.99C191.1 529.99 184.66 528.32 178.37 525.01Z" id="aN3Shg9jN"></path><path d="M266.26 406.71C266.26 402.91 269.35 399.82 273.15 399.82C276.96 399.82 280.05 402.91 280.05 406.71C280.05 427.55 297.01 444.51 317.84 444.51C338.68 444.51 355.63 427.55 355.63 406.71C355.63 385.88 338.68 368.92 317.84 368.92C310.98 368.92 304.26 370.78 298.42 374.29C295.15 376.25 290.91 375.2 288.95 371.93C286.99 368.67 288.05 364.43 291.31 362.47C299.3 357.67 308.48 355.13 317.84 355.13C346.29 355.13 369.43 378.27 369.43 406.71C369.43 435.16 346.29 458.3 317.84 458.3C289.4 458.3 266.26 435.16 266.26 406.71Z" id="d5aE4EBDn4"></path><path d="M297.87 286.5C295.18 283.81 295.18 279.44 297.87 276.75C300.57 274.05 304.93 274.05 307.63 276.75C311.74 280.86 318.43 280.86 322.55 276.75C326.66 272.63 326.66 265.94 322.55 261.82C318.44 257.71 311.74 257.71 307.63 261.82C304.93 264.52 300.57 264.52 297.87 261.82C295.18 259.13 295.18 254.76 297.87 252.07C307.36 242.58 322.81 242.58 332.3 252.07C341.79 261.56 341.79 277.01 332.3 286.5C327.56 291.25 321.32 293.62 315.09 293.62C308.85 293.62 302.62 291.25 297.87 286.5Z" id="cAu18t7PH"></path><path d="M383.93 535.31C381.24 532.61 381.24 528.25 383.93 525.55C386.62 522.86 390.99 522.86 393.68 525.55C397.8 529.67 404.5 529.67 408.61 525.55C412.72 521.44 412.72 514.74 408.61 510.63C404.49 506.51 397.8 506.52 393.68 510.63C390.99 513.32 386.62 513.32 383.93 510.63C381.24 507.94 381.24 503.57 383.93 500.88C393.42 491.38 408.87 491.39 418.36 500.88C427.85 510.37 427.85 525.81 418.36 535.31C413.61 540.05 407.38 542.42 401.14 542.42C394.91 542.42 388.68 540.05 383.93 535.31Z" id="bv1YFQ8H0"></path><path d="M207.47 245.78L166.2 204.51L191.74 200.48L222.27 230.99L207.47 245.78Z" id="a2BQGkm9no"></path><path d="M167.13 286.11L125.86 244.84C97.28 216.25 81.39 200.37 78.22 197.2C75.97 194.95 73.85 192.6 71.86 190.16C57.97 173.13 50.45 151.65 50.84 129.47C63.5 129.26 75.96 131.62 87.47 136.28C96.11 139.77 104.22 144.56 111.52 150.5C113.96 152.49 116.3 154.61 118.55 156.86C121.73 160.04 137.61 175.92 166.2 204.51L207.47 245.78L167.13 286.11Z" id="bg2qPve2o"></path><path d="M167.13 286.11L71.86 190.16L111.52 150.5L167.13 286.11Z" id="bNFmJWDJk"></path><path d="M152.35 300.91L121.82 270.39L125.86 244.84L167.13 286.11L152.35 300.91Z" id="aaobBTjga"></path><path d="M152.35 300.91L121.82 270.39L125.86 244.84L167.13 286.11L152.35 300.91Z" id="e1XgyKmTXG"></path><path d="M126.3 237.96L126.5 237.97L126.69 237.99L126.89 238.02L127.09 238.05L127.28 238.09L127.47 238.13L127.66 238.18L127.85 238.24L128.04 238.3L128.23 238.36L128.41 238.43L128.59 238.51L128.77 238.59L128.95 238.67L129.13 238.77L129.3 238.86L129.47 238.96L129.64 239.07L129.81 239.18L129.97 239.3L130.13 239.42L130.29 239.55L130.44 239.68L130.59 239.82L130.74 239.96L172.01 281.23L172.22 281.45L172.41 281.67L172.6 281.9L172.77 282.14L172.93 282.38L173.08 282.62L173.22 282.87L173.35 283.13L173.47 283.38L173.58 283.65L173.67 283.91L173.76 284.18L173.83 284.45L173.89 284.72L173.94 285L173.98 285.28L174.01 285.55L174.02 285.83L174.03 286.11L174.03 286.39L174.01 286.67L173.98 286.94L173.94 287.22L173.89 287.5L173.83 287.77L173.76 288.04L173.67 288.31L173.58 288.57L173.47 288.84L173.35 289.09L173.23 289.35L173.09 289.6L172.93 289.84L172.77 290.08L172.6 290.32L172.41 290.55L172.22 290.77L172.01 290.99L157.22 305.79L157.12 305.89L157.02 305.99L156.91 306.08L156.8 306.18L156.69 306.27L156.58 306.36L156.47 306.44L156.35 306.53L156.23 306.61L156.11 306.69L155.99 306.76L155.87 306.84L155.75 306.91L155.63 306.98L155.5 307.04L155.37 307.11L155.25 307.17L155.12 307.23L154.99 307.28L154.86 307.34L154.72 307.39L154.59 307.43L154.46 307.48L154.32 307.52L154.18 307.56L154.05 307.6L153.91 307.63L153.77 307.66L153.63 307.69L153.49 307.71L153.35 307.74L153.21 307.75L153.06 307.77L152.92 307.78L152.78 307.8L152.64 307.8L152.49 307.81L152.35 307.81L152.2 307.81L152.06 307.8L151.92 307.8L151.77 307.78L151.63 307.77L151.49 307.76L151.35 307.74L151.21 307.71L151.07 307.69L150.93 307.66L150.79 307.63L150.65 307.6L150.51 307.56L150.38 307.52L150.24 307.48L150.11 307.43L149.97 307.39L149.84 307.34L149.71 307.28L149.58 307.23L149.45 307.17L149.32 307.11L149.19 307.05L149.07 306.98L148.94 306.91L148.82 306.84L148.7 306.77L148.58 306.69L148.46 306.61L148.34 306.53L148.23 306.45L148.12 306.36L148 306.27L147.89 306.18L147.78 306.08L147.68 305.99L147.57 305.89L147.47 305.79L116.94 275.26L116.82 275.14L116.7 275.01L116.59 274.88L116.48 274.75L116.37 274.61L116.27 274.48L116.17 274.34L116.07 274.2L115.98 274.05L115.89 273.91L115.81 273.76L115.72 273.61L115.65 273.46L115.57 273.31L115.5 273.15L115.44 273L115.37 272.84L115.32 272.68L115.26 272.52L115.21 272.36L115.16 272.19L115.12 272.03L115.08 271.86L115.05 271.7L115.02 271.53L114.99 271.36L114.97 271.19L114.95 271.02L114.94 270.85L114.93 270.68L114.92 270.51L114.92 270.34L114.93 270.17L114.93 270L114.95 269.83L114.96 269.65L114.98 269.48L115.01 269.31L119.05 243.76L119.08 243.56L119.13 243.36L119.17 243.16L119.22 242.97L119.28 242.78L119.34 242.58L119.41 242.4L119.49 242.21L119.56 242.03L119.65 241.85L119.74 241.67L119.83 241.49L119.93 241.32L120.03 241.15L120.14 240.99L120.25 240.83L120.37 240.67L120.49 240.51L120.62 240.36L120.75 240.21L120.88 240.07L121.02 239.93L121.16 239.79L121.31 239.66L121.46 239.53L121.61 239.41L121.77 239.29L121.93 239.17L122.1 239.06L122.27 238.95L122.44 238.85L122.61 238.75L122.79 238.66L122.97 238.58L123.16 238.49L123.35 238.42L123.54 238.35L123.73 238.28L123.93 238.22L124.12 238.17L124.32 238.12L124.52 238.07L124.71 238.04L124.91 238.01L125.11 237.98L125.31 237.96L125.51 237.95L125.71 237.94L125.91 237.94L126.1 237.95L126.3 237.96ZM152.34 291.16L157.38 286.11L130.56 259.29L129.18 267.99L152.34 291.16Z" id="bm0DzST4K"></path><path d="M192.04 193.59L192.21 193.6L192.38 193.61L192.55 193.63L192.72 193.65L192.89 193.68L193.06 193.71L193.22 193.74L193.39 193.78L193.55 193.82L193.72 193.87L193.88 193.92L194.04 193.97L194.2 194.03L194.35 194.09L194.51 194.16L194.66 194.23L194.82 194.3L194.97 194.38L195.12 194.46L195.26 194.55L195.41 194.64L195.55 194.73L195.69 194.82L195.83 194.92L195.97 195.03L196.1 195.14L196.24 195.25L196.37 195.36L196.49 195.48L196.62 195.6L227.14 226.11L227.24 226.22L227.34 226.32L227.44 226.43L227.53 226.54L227.62 226.65L227.71 226.76L227.8 226.87L227.88 226.99L227.97 227.1L228.04 227.22L228.12 227.34L228.2 227.46L228.27 227.59L228.34 227.71L228.4 227.84L228.46 227.96L228.53 228.09L228.58 228.22L228.64 228.35L228.69 228.48L228.74 228.61L228.79 228.75L228.83 228.88L228.88 229.02L228.92 229.15L228.95 229.29L228.99 229.43L229.02 229.57L229.04 229.71L229.07 229.85L229.09 229.99L229.11 230.13L229.13 230.27L229.14 230.42L229.15 230.56L229.16 230.7L229.16 230.85L229.16 230.99L229.16 231.14L229.16 231.28L229.15 231.42L229.14 231.57L229.13 231.71L229.11 231.85L229.09 231.99L229.07 232.13L229.04 232.27L229.02 232.41L228.99 232.55L228.95 232.69L228.92 232.83L228.88 232.96L228.83 233.1L228.79 233.23L228.74 233.37L228.69 233.5L228.64 233.63L228.58 233.76L228.53 233.89L228.46 234.02L228.4 234.15L228.33 234.27L228.27 234.4L228.19 234.52L228.12 234.64L228.04 234.76L227.97 234.88L227.88 235L227.8 235.11L227.71 235.22L227.62 235.34L227.53 235.45L227.44 235.56L227.34 235.66L227.24 235.77L227.14 235.87L212.34 250.66L212.23 250.76L212.13 250.86L212.02 250.96L211.9 251.06L211.79 251.15L211.67 251.24L211.56 251.33L211.44 251.42L211.32 251.5L211.2 251.58L211.08 251.66L210.96 251.73L210.83 251.8L210.71 251.87L210.58 251.94L210.45 252L210.32 252.06L210.19 252.12L210.06 252.17L209.93 252.22L209.8 252.27L209.67 252.32L209.53 252.36L209.4 252.4L209.26 252.44L209.13 252.47L208.99 252.51L208.85 252.54L208.72 252.56L208.58 252.59L208.44 252.61L208.3 252.63L208.16 252.64L208.02 252.65L207.89 252.66L207.75 252.67L207.61 252.67L207.47 252.68L207.33 252.67L207.19 252.67L207.05 252.66L206.91 252.65L206.77 252.64L206.63 252.63L206.5 252.61L206.36 252.59L206.22 252.56L206.08 252.54L205.95 252.51L205.81 252.47L205.67 252.44L205.54 252.4L205.4 252.36L205.27 252.32L205.14 252.27L205 252.22L204.87 252.17L204.74 252.12L204.61 252.06L204.48 252L204.36 251.94L204.23 251.87L204.1 251.8L203.98 251.73L203.86 251.66L203.73 251.58L203.61 251.5L203.49 251.42L203.38 251.33L203.26 251.24L203.14 251.15L203.03 251.06L202.92 250.96L202.81 250.86L202.7 250.76L202.59 250.66L161.32 209.38L161.18 209.24L161.04 209.09L160.91 208.93L160.78 208.78L160.66 208.62L160.54 208.45L160.43 208.29L160.32 208.12L160.22 207.95L160.12 207.77L160.03 207.6L159.94 207.42L159.86 207.24L159.79 207.06L159.72 206.87L159.65 206.68L159.59 206.5L159.54 206.31L159.49 206.12L159.45 205.92L159.41 205.73L159.38 205.53L159.35 205.34L159.33 205.14L159.31 204.95L159.3 204.75L159.3 204.55L159.3 204.35L159.31 204.15L159.32 203.95L159.34 203.75L159.36 203.56L159.4 203.36L159.43 203.16L159.47 202.96L159.52 202.76L159.58 202.57L159.64 202.37L159.7 202.18L159.77 201.99L159.85 201.8L159.93 201.62L160.02 201.43L160.11 201.26L160.21 201.08L160.31 200.91L160.42 200.74L160.53 200.58L160.64 200.41L160.76 200.26L160.89 200.1L161.02 199.95L161.15 199.8L161.29 199.66L161.43 199.52L161.57 199.39L161.72 199.26L161.87 199.13L162.03 199.01L162.19 198.89L162.35 198.78L162.51 198.67L162.68 198.57L162.85 198.47L163.03 198.38L163.21 198.29L163.39 198.21L163.57 198.13L163.76 198.06L163.94 197.99L164.14 197.92L164.33 197.87L164.52 197.82L164.72 197.77L164.92 197.73L165.12 197.69L190.67 193.67L190.84 193.64L191.01 193.62L191.19 193.6L191.36 193.59L191.53 193.58L191.7 193.58L191.87 193.58L192.04 193.59ZM207.47 236.03L212.51 230.99L189.35 207.84L180.65 209.21L207.47 236.03Z" id="a1mUwTFlkp"></path><path d="M162.26 281.23C162.26 281.23 162.26 281.23 162.26 281.23C186.46 257.03 199.9 243.59 202.59 240.9C202.59 240.9 202.59 240.9 202.59 240.9C208.44 246.75 211.69 250 212.34 250.65C212.34 250.65 212.34 250.65 212.34 250.65C188.14 274.86 174.7 288.3 172.01 290.99C172.01 290.99 172.01 290.99 172.01 290.99C166.16 285.14 162.91 281.89 162.26 281.23Z" id="a1Ao81z76o"></path><path d="M71.86 190.16C57.97 173.13 50.45 151.65 50.84 129.47C63.5 129.26 75.96 131.62 87.47 136.28C96.11 139.77 104.22 144.56 111.52 150.5C103.59 158.43 75.82 186.19 71.86 190.16Z" id="mf8Ln7epq"></path><path d="M73.34 202.07C70.91 199.64 68.61 197.1 66.51 194.51C51.54 176.16 43.53 153.02 43.94 129.35C44 125.63 47 122.63 50.72 122.57C64.29 122.36 77.52 124.81 90.06 129.89C99.37 133.65 108.05 138.79 115.87 145.15C118.45 147.26 121 149.56 123.43 151.98C126.6 155.16 142.48 171.04 171.07 199.63L161.32 209.38C132.73 180.8 116.85 164.92 113.67 161.74C111.57 159.64 109.38 157.66 107.16 155.85C100.41 150.36 92.92 145.92 84.89 142.68C76.22 139.17 67.16 137.1 57.89 136.52C59.02 154.49 65.76 171.77 77.2 185.8C79.02 188.03 81 190.22 83.09 192.32C86.27 195.49 102.15 211.38 130.74 239.96L120.98 249.72C92.4 221.13 76.52 205.25 73.34 202.07Z" id="bqezGPwUa"></path><path d="M66.98 185.28C66.98 185.28 66.98 185.28 66.98 185.28C90.78 161.49 104 148.27 106.64 145.63C106.64 145.63 106.64 145.63 106.64 145.63C112.49 151.48 115.74 154.73 116.39 155.38C116.39 155.38 116.39 155.38 116.39 155.38C92.6 179.17 79.38 192.39 76.74 195.04C76.74 195.04 76.74 195.04 76.74 195.04C70.88 189.18 67.63 185.93 66.98 185.28Z" id="b1aQOsDhRi"></path><path d="M480.18 101.45L480.45 101.48L480.72 101.52L480.98 101.57L481.25 101.63L481.51 101.7L481.77 101.78L482.03 101.87L482.29 101.97L482.55 102.09L482.8 102.21L483.05 102.35L544.01 137.47L544.13 137.54L544.24 137.61L544.36 137.68L544.47 137.76L544.58 137.84L544.69 137.92L544.8 138L544.91 138.08L545.01 138.17L545.11 138.26L545.21 138.35L545.31 138.44L545.41 138.53L545.5 138.63L545.6 138.73L545.69 138.82L545.78 138.93L545.86 139.03L545.95 139.13L546.03 139.24L546.11 139.35L546.19 139.45L546.27 139.57L546.34 139.68L546.42 139.79L546.49 139.91L546.55 140.02L546.62 140.14L546.68 140.26L546.75 140.38L546.8 140.5L546.86 140.63L546.91 140.75L546.97 140.87L547.02 141L547.06 141.13L547.11 141.26L547.15 141.39L547.19 141.52L547.23 141.65L547.26 141.78L547.29 141.92L547.32 142.05L547.35 142.18L547.37 142.32L547.39 142.45L547.41 142.59L547.42 142.72L547.44 142.86L547.45 142.99L547.46 143.13L547.46 143.26L547.46 143.4L547.46 143.53L547.46 143.67L547.45 143.8L547.44 143.94L547.43 144.07L547.42 144.2L547.4 144.34L547.39 144.47L547.36 144.6L547.34 144.74L547.31 144.87L547.28 145L547.25 145.13L547.22 145.26L547.18 145.39L547.14 145.52L547.1 145.65L547.06 145.77L547.01 145.9L546.96 146.03L546.91 146.15L546.85 146.28L546.8 146.4L546.74 146.52L546.67 146.64L546.61 146.77L546.54 146.88L519 194.7L518.85 194.94L518.7 195.17L518.53 195.4L518.36 195.62L518.18 195.83L518 196.03L517.81 196.23L517.61 196.41L517.4 196.59L517.19 196.75L516.97 196.91L516.75 197.06L516.52 197.2L516.29 197.33L516.05 197.45L515.81 197.56L515.57 197.66L515.32 197.76L515.07 197.84L514.82 197.91L514.56 197.98L514.3 198.03L514.04 198.08L513.78 198.11L513.51 198.13L513.25 198.15L512.98 198.15L512.71 198.15L512.45 198.13L512.18 198.1L511.91 198.06L511.65 198.01L511.38 197.95L511.12 197.88L510.86 197.8L510.6 197.71L510.34 197.61L510.08 197.49L509.83 197.37L509.58 197.23L454.6 165.56L427.75 212.17L427.65 212.34L427.55 212.5L427.44 212.66L427.33 212.81L427.22 212.96L427.1 213.1L426.99 213.25L426.86 213.38L426.74 213.52L426.61 213.65L426.48 213.77L426.34 213.9L426.2 214.02L426.06 214.13L425.92 214.24L425.78 214.35L425.63 214.45L425.48 214.55L425.32 214.64L425.17 214.73L425.01 214.82L424.85 214.9L424.69 214.98L424.53 215.05L424.37 215.12L424.2 215.18L424.03 215.24L423.87 215.3L423.7 215.35L423.52 215.4L423.35 215.44L423.18 215.48L423 215.52L422.83 215.55L422.65 215.57L422.48 215.59L422.3 215.61L422.12 215.62L421.94 215.63L421.76 215.63L421.68 215.63L421.59 215.63L421.5 215.62L421.41 215.62L421.32 215.61L421.24 215.61L421.15 215.6L421.06 215.59L420.97 215.58L420.89 215.57L420.8 215.56L420.71 215.55L420.62 215.53L420.54 215.52L420.45 215.5L420.36 215.48L420.27 215.47L420.19 215.45L420.1 215.42L420.01 215.4L419.93 215.38L419.84 215.35L419.75 215.33L419.67 215.3L419.58 215.27L419.5 215.24L419.41 215.21L419.33 215.18L419.24 215.15L419.16 215.11L419.07 215.08L418.99 215.04L418.9 215.01L418.82 214.97L418.74 214.93L418.66 214.88L418.57 214.84L418.49 214.8L418.41 214.75L418.33 214.71L418.08 214.56L417.85 214.41L417.62 214.24L417.4 214.07L417.19 213.89L416.99 213.71L416.8 213.51L416.61 213.31L416.44 213.11L416.27 212.9L416.11 212.68L415.96 212.46L415.82 212.23L415.69 212L415.57 211.76L415.46 211.52L415.36 211.28L415.27 211.03L415.18 210.78L415.11 210.52L415.05 210.27L414.99 210.01L414.95 209.74L414.91 209.48L414.89 209.22L414.88 208.95L414.87 208.69L414.88 208.42L414.9 208.15L414.92 207.88L414.96 207.62L415.01 207.35L415.07 207.09L415.14 206.82L415.22 206.56L415.31 206.3L415.42 206.05L415.53 205.79L415.66 205.54L415.79 205.29L446.03 152.8L446.04 152.78L446.05 152.76L446.07 152.72L446.08 152.7L446.09 152.69L446.11 152.66L446.14 152.6L446.15 152.59L473.63 104.88L473.78 104.64L473.93 104.41L474.1 104.18L474.27 103.96L474.45 103.75L474.63 103.55L474.82 103.36L475.02 103.17L475.23 103L475.44 102.83L475.66 102.67L475.88 102.52L476.11 102.38L476.34 102.25L476.58 102.13L476.82 102.02L477.06 101.92L477.31 101.82L477.56 101.74L477.81 101.67L478.07 101.6L478.33 101.55L478.59 101.5L478.85 101.47L479.12 101.45L479.38 101.43L479.65 101.43L479.92 101.44L480.18 101.45ZM510.49 181.83L531.15 145.97L482.14 117.74L461.48 153.6L510.49 181.83Z" id="cAuWvDjv0"></path><path d="M330.25 55.25C324.78 62.25 316.26 66.75 306.69 66.75C297.11 66.75 288.59 62.25 283.13 55.25C283.13 55.24 283.16 55.22 283.17 55.22C281.15 52.65 279.54 49.73 278.45 46.58C282.51 34.89 293.61 26.48 306.69 26.48C319.76 26.48 330.88 34.89 334.91 46.6C333.82 49.74 332.22 52.64 330.2 55.2C330.21 55.21 330.24 55.24 330.25 55.25Z" id="b4GZKcIVDf"></path><path d="M334.91 46.6C330.88 34.89 319.76 26.48 306.69 26.48C293.61 26.48 282.51 34.89 278.45 46.58C277.39 43.52 276.81 40.22 276.81 36.77C276.81 20.28 290.17 6.9 306.69 6.9C323.18 6.9 336.56 20.28 336.56 36.77C336.56 40.21 335.98 43.52 334.91 46.6Z" id="a2WWlQoH27"></path><path d="M306.69 66.75C316.26 66.75 324.78 62.25 330.25 55.25C352.83 70.92 343.56 133.54 343.56 133.54C340.7 134.13 337.85 134.66 334.98 135.1C334.98 135.1 334.97 135.1 334.96 135.1C330.91 135.75 326.85 136.24 322.77 136.62C318 137.03 313.21 137.28 308.44 137.32C307.86 137.32 307.27 137.32 306.69 137.32C306.09 137.32 305.51 137.32 304.93 137.32C300.15 137.28 295.37 137.03 290.6 136.62C286.52 136.24 282.45 135.75 278.39 135.1C275.53 134.66 272.66 134.13 269.81 133.54C269.81 133.54 260.54 70.92 283.13 55.25C288.59 62.25 297.11 66.75 306.69 66.75Z" id="f6oW0dlka8"></path><path d="M309.7 0.12L311.18 0.27L312.64 0.48L314.09 0.75L315.51 1.07L316.92 1.45L318.3 1.88L319.66 2.36L320.99 2.89L322.29 3.48L323.57 4.11L324.82 4.79L326.04 5.52L327.23 6.29L328.39 7.1L329.52 7.96L330.61 8.86L331.66 9.8L332.68 10.78L333.66 11.8L334.6 12.86L335.5 13.95L336.36 15.07L337.17 16.23L337.95 17.42L338.67 18.64L339.35 19.89L339.98 21.17L340.57 22.47L341.1 23.81L341.58 25.16L342.01 26.54L342.39 27.95L342.71 29.37L342.98 30.82L343.19 32.28L343.34 33.76L343.43 35.26L343.46 36.77L343.46 37.09L343.46 37.4L343.45 37.71L343.44 38.02L343.43 38.33L343.42 38.64L343.4 38.95L343.38 39.26L343.36 39.57L343.33 39.87L343.31 40.18L343.28 40.49L343.25 40.8L343.21 41.1L343.17 41.41L343.13 41.71L343.09 42.02L343.05 42.32L343 42.63L342.95 42.93L342.9 43.23L342.84 43.54L342.78 43.84L342.72 44.14L342.66 44.44L342.6 44.74L342.53 45.04L342.46 45.34L342.39 45.64L342.31 45.93L342.23 46.23L342.15 46.53L342.07 46.82L341.99 47.12L341.9 47.41L341.81 47.71L341.71 48L341.62 48.29L341.52 48.58L341.42 48.87L341.32 49.16L341.22 49.44L341.12 49.72L341.01 50L340.9 50.28L340.79 50.56L340.68 50.83L340.56 51.11L340.44 51.39L340.32 51.66L340.2 51.93L340.08 52.21L339.95 52.48L339.82 52.75L339.69 53.02L339.56 53.29L339.42 53.55L339.28 53.82L339.14 54.08L339 54.35L338.85 54.61L338.71 54.87L338.56 55.13L338.41 55.39L338.25 55.65L338.1 55.91L337.94 56.17L337.78 56.42L337.62 56.67L337.45 56.93L337.29 57.18L337.12 57.43L336.95 57.68L336.78 57.92L336.6 58.17L336.42 58.41L336.25 58.66L336.06 58.9L335.88 59.14L335.69 59.38L335.68 59.4L335.67 59.42L335.66 59.43L335.64 59.45L335.63 59.47L335.62 59.48L335.61 59.5L335.59 59.52L335.58 59.53L335.57 59.55L335.55 59.56L335.54 59.58L335.53 59.6L335.51 59.61L335.5 59.63L335.49 59.65L335.47 59.66L335.46 59.68L335.45 59.69L335.43 59.71L335.42 59.73L335.41 59.74L335.39 59.76L335.38 59.77L335.37 59.79L335.35 59.8L335.34 59.82L335.33 59.83L335.31 59.85L335.3 59.87L335.29 59.88L335.27 59.9L335.26 59.91L335.24 59.93L335.23 59.94L335.22 59.96L335.2 59.97L335.19 59.99L335.17 60L335.16 60.02L335.15 60.01L335.14 60.02L335.13 60.03L335.13 60.03L335.12 60.04L335.11 60.05L335.09 60.08L335.08 60.08L332.17 57.17L330.16 55.26L324.4 51.47L324.81 50.97L324.78 50.95L324.9 50.79L325.01 50.64L325.13 50.49L325.24 50.34L325.35 50.18L325.46 50.03L325.57 49.87L325.68 49.72L325.79 49.56L325.89 49.4L326 49.24L326.1 49.09L326.2 48.93L326.3 48.76L326.4 48.6L326.49 48.44L326.59 48.28L326.68 48.11L326.78 47.95L326.87 47.78L326.96 47.62L327.04 47.45L327.13 47.28L327.22 47.12L327.3 46.95L327.38 46.78L327.47 46.61L327.55 46.44L327.62 46.27L327.7 46.09L327.78 45.92L327.85 45.75L327.92 45.57L327.99 45.4L328.06 45.22L328.13 45.05L328.2 44.87L328.27 44.69L328.33 44.52L328.39 44.34L328.46 44.16L328.52 43.97L328.58 43.79L328.63 43.61L328.69 43.42L328.75 43.24L328.8 43.05L328.85 42.87L328.9 42.68L328.95 42.5L329 42.31L329.04 42.13L329.09 41.94L329.13 41.75L329.17 41.56L329.21 41.38L329.25 41.19L329.28 41L329.32 40.81L329.35 40.62L329.38 40.43L329.41 40.24L329.44 40.05L329.46 39.86L329.49 39.67L329.51 39.48L329.53 39.29L329.55 39.1L329.57 38.9L329.59 38.71L329.6 38.52L329.62 38.33L329.63 38.13L329.64 37.94L329.65 37.75L329.66 37.55L329.66 37.36L329.67 37.16L329.67 36.97L329.67 36.77L329.65 35.83L329.59 34.89L329.5 33.97L329.37 33.05L329.2 32.15L329 31.26L328.76 30.38L328.49 29.52L328.19 28.67L327.86 27.84L327.49 27.02L327.1 26.22L326.67 25.44L326.22 24.68L325.74 23.94L325.23 23.21L324.69 22.51L324.13 21.83L323.54 21.17L322.93 20.53L322.29 19.92L321.63 19.33L320.95 18.77L320.25 18.23L319.53 17.72L318.78 17.24L318.02 16.79L317.24 16.36L316.44 15.97L315.62 15.6L314.79 15.27L313.94 14.97L313.08 14.7L312.2 14.46L311.31 14.26L310.41 14.1L309.5 13.96L308.57 13.87L307.63 13.81L306.69 13.79L305.74 13.81L304.81 13.87L303.88 13.96L302.96 14.1L302.06 14.26L301.17 14.46L300.29 14.7L299.43 14.97L298.58 15.27L297.75 15.6L296.93 15.97L296.14 16.36L295.35 16.79L294.59 17.24L293.85 17.72L293.12 18.23L292.42 18.77L291.74 19.33L291.08 19.92L290.45 20.53L289.83 21.17L289.25 21.83L288.68 22.51L288.15 23.21L287.64 23.94L287.15 24.68L286.7 25.44L286.28 26.22L285.88 27.02L285.52 27.84L285.18 28.67L284.88 29.52L284.61 30.38L284.38 31.26L284.17 32.15L284.01 33.05L283.88 33.97L283.78 34.89L283.73 35.83L283.71 36.77L283.71 36.97L283.71 37.16L283.71 37.36L283.72 37.55L283.73 37.75L283.74 37.94L283.75 38.13L283.76 38.33L283.77 38.52L283.79 38.71L283.8 38.9L283.82 39.09L283.84 39.29L283.86 39.48L283.88 39.67L283.91 39.86L283.94 40.05L283.96 40.24L283.99 40.43L284.02 40.62L284.06 40.81L284.09 41L284.13 41.18L284.16 41.37L284.2 41.56L284.24 41.75L284.28 41.93L284.33 42.12L284.37 42.31L284.42 42.49L284.47 42.68L284.52 42.86L284.57 43.05L284.62 43.23L284.67 43.41L284.73 43.6L284.79 43.78L284.84 43.96L284.91 44.14L284.97 44.32L285.03 44.5L285.09 44.68L285.16 44.86L285.23 45.04L285.3 45.21L285.37 45.39L285.44 45.57L285.51 45.74L285.59 45.91L285.66 46.09L285.74 46.26L285.82 46.43L285.9 46.61L285.98 46.78L286.06 46.95L286.15 47.12L286.23 47.28L286.32 47.45L286.41 47.62L286.5 47.79L286.59 47.95L286.69 48.12L286.78 48.28L286.88 48.45L286.97 48.61L287.07 48.77L287.17 48.93L287.27 49.09L287.37 49.25L287.48 49.41L287.58 49.57L287.69 49.73L287.8 49.88L287.91 50.04L288.02 50.2L288.13 50.35L288.24 50.5L288.36 50.66L288.48 50.81L288.59 50.96L277.74 59.48L277.56 59.24L277.37 58.99L277.19 58.75L277 58.5L276.82 58.26L276.65 58.01L276.47 57.76L276.3 57.51L276.13 57.25L275.96 57L275.79 56.75L275.63 56.49L275.47 56.23L275.31 55.97L275.15 55.71L274.99 55.45L274.84 55.19L274.69 54.93L274.54 54.66L274.39 54.4L274.25 54.13L274.11 53.86L273.97 53.59L273.83 53.32L273.69 53.05L273.56 52.78L273.43 52.5L273.3 52.23L273.17 51.95L273.05 51.67L272.93 51.39L272.81 51.12L272.69 50.83L272.58 50.55L272.46 50.27L272.35 49.99L272.24 49.7L272.14 49.42L272.04 49.13L271.93 48.84L271.84 48.55L271.74 48.26L271.64 47.97L271.55 47.68L271.46 47.38L271.38 47.09L271.29 46.79L271.21 46.5L271.13 46.2L271.05 45.91L270.98 45.61L270.91 45.31L270.84 45.01L270.77 44.72L270.7 44.42L270.64 44.12L270.58 43.82L270.53 43.51L270.47 43.21L270.42 42.91L270.37 42.61L270.32 42.3L270.28 42L270.24 41.7L270.2 41.39L270.16 41.09L270.13 40.78L270.1 40.48L270.07 40.17L270.04 39.86L270.02 39.56L269.99 39.25L269.97 38.94L269.96 38.63L269.94 38.32L269.93 38.01L269.92 37.7L269.92 37.4L269.91 37.09L269.91 36.77L269.94 35.26L270.03 33.76L270.19 32.28L270.39 30.82L270.66 29.37L270.98 27.95L271.36 26.54L271.79 25.16L272.27 23.81L272.81 22.47L273.39 21.17L274.02 19.89L274.7 18.64L275.43 17.42L276.2 16.23L277.02 15.07L277.88 13.95L278.78 12.86L279.72 11.8L280.7 10.78L281.71 9.8L282.77 8.86L283.86 7.96L284.98 7.1L286.14 6.29L287.33 5.52L288.55 4.79L289.8 4.11L291.08 3.48L292.39 2.89L293.72 2.36L295.08 1.88L296.46 1.45L297.86 1.07L299.28 0.75L300.73 0.48L302.19 0.27L303.68 0.12L305.17 0.03L306.69 0L308.2 0.03L309.7 0.12ZM329.65 54.77L330.16 55.26L330.16 55.26L329.65 54.77Z" id="b3i5lnCgwM"></path><path d="M271.93 44.32C277.06 29.53 291.03 19.59 306.69 19.59C322.37 19.59 336.34 29.54 341.43 44.35C340.13 44.8 329.69 48.39 328.39 48.84C325.21 39.59 316.49 33.38 306.69 33.38C296.9 33.38 288.17 39.59 284.97 48.84C282.36 47.94 273.24 44.78 271.93 44.32Z" id="mcwJeAcfW"></path><path d="M283.66 48.37L283.91 48.39L284.16 48.43L284.42 48.47L284.67 48.52L284.92 48.58L285.16 48.65L285.41 48.73L285.65 48.82L285.88 48.92L286.12 49.03L286.35 49.15L286.58 49.27L286.8 49.4L287.02 49.55L287.23 49.7L287.44 49.86L287.64 50.03L287.84 50.21L288.03 50.39L288.22 50.59L288.39 50.79L288.57 51L288.9 51.42L289.24 51.83L289.59 52.23L289.95 52.62L290.31 53L290.68 53.37L291.06 53.73L291.45 54.08L291.84 54.43L292.24 54.76L292.65 55.08L293.07 55.4L293.49 55.7L293.91 55.99L294.35 56.28L294.78 56.55L295.23 56.81L295.68 57.06L296.13 57.31L296.6 57.54L297.06 57.76L297.53 57.97L298.01 58.17L298.49 58.36L298.97 58.54L299.46 58.7L299.96 58.86L300.46 59.01L300.96 59.14L301.46 59.26L301.97 59.37L302.48 59.47L303 59.56L303.52 59.64L304.04 59.7L304.57 59.76L305.09 59.8L305.62 59.83L306.15 59.85L306.69 59.85L307.22 59.85L307.75 59.83L308.28 59.8L308.81 59.76L309.33 59.7L309.86 59.64L310.37 59.56L310.89 59.47L311.4 59.37L311.91 59.26L312.42 59.14L312.92 59.01L313.42 58.86L313.91 58.7L314.4 58.54L314.88 58.36L315.37 58.17L315.84 57.97L316.31 57.76L316.78 57.54L317.24 57.31L317.7 57.06L318.15 56.81L318.59 56.55L319.03 56.28L319.46 55.99L319.89 55.7L320.31 55.4L320.72 55.08L321.13 54.76L321.53 54.43L321.93 54.09L322.31 53.73L322.69 53.37L323.06 53L323.43 52.62L323.79 52.23L324.13 51.83L324.48 51.42L324.81 51.01L324.98 50.79L325.16 50.59L325.35 50.39L325.54 50.21L325.73 50.03L325.94 49.86L326.15 49.7L326.36 49.55L326.58 49.41L326.8 49.27L327.03 49.15L327.26 49.03L327.49 48.92L327.73 48.82L327.97 48.74L328.22 48.66L328.46 48.59L328.71 48.52L328.96 48.47L329.21 48.43L329.47 48.39L329.72 48.37L329.98 48.36L330.23 48.35L330.49 48.35L330.75 48.37L331 48.39L331.26 48.42L331.51 48.47L331.77 48.52L332.02 48.58L332.27 48.65L332.52 48.73L332.76 48.82L333.01 48.92L333.25 49.04L333.49 49.16L333.72 49.29L333.95 49.43L334.18 49.58L336.02 50.98L337.74 52.53L339.34 54.22L340.83 56.05L342.2 58L343.47 60.07L344.64 62.25L345.7 64.52L346.68 66.88L347.56 69.32L348.35 71.83L349.06 74.4L349.69 77.03L350.24 79.69L350.72 82.4L351.13 85.12L351.48 87.87L351.77 90.62L352 93.36L352.17 96.1L352.3 98.82L352.38 101.5L352.42 104.15L352.42 106.75L352.39 109.3L352.33 111.78L352.24 114.18L352.12 116.51L351.99 118.74L351.85 120.86L351.69 122.88L351.52 124.78L351.35 126.54L351.18 128.17L351.02 129.66L350.86 130.98L350.71 132.15L350.58 133.13L350.47 133.94L350.38 134.55L350.35 134.76L350.31 134.98L350.26 135.19L350.2 135.39L350.14 135.6L350.08 135.8L350.01 136L349.93 136.19L349.84 136.38L349.75 136.57L349.66 136.76L349.56 136.94L349.45 137.12L349.34 137.3L349.23 137.47L349.11 137.64L348.98 137.8L348.85 137.97L348.71 138.12L348.57 138.28L348.43 138.42L348.28 138.57L348.13 138.71L347.97 138.84L347.81 138.97L347.64 139.1L347.47 139.22L347.3 139.34L347.12 139.45L346.94 139.55L346.76 139.65L346.57 139.75L346.38 139.84L346.19 139.92L345.99 140L345.79 140.07L345.59 140.13L345.38 140.19L345.17 140.25L344.96 140.3L344.73 140.34L344.5 140.39L344.26 140.44L344.03 140.49L343.8 140.53L343.57 140.58L343.34 140.62L343.12 140.67L342.89 140.71L342.66 140.76L342.43 140.8L342.21 140.85L341.98 140.89L341.76 140.93L341.53 140.97L341.31 141.02L341.08 141.06L340.86 141.1L340.64 141.14L340.42 141.18L340.19 141.22L339.97 141.26L339.75 141.3L339.53 141.34L339.31 141.38L339.09 141.42L338.87 141.45L338.65 141.49L338.43 141.53L338.21 141.57L337.99 141.6L337.77 141.64L337.55 141.68L337.33 141.71L337.12 141.75L336.9 141.78L336.68 141.82L336.46 141.85L336.24 141.88L336.03 141.92L336.02 141.92L336 141.92L335.96 141.93L335.92 141.93L335.89 141.94L335.59 141.98L335.29 142.03L334.99 142.08L334.68 142.12L334.38 142.17L334.07 142.22L333.77 142.26L333.46 142.31L333.15 142.35L332.84 142.39L332.54 142.44L332.23 142.48L331.92 142.52L331.61 142.56L331.3 142.6L330.99 142.65L330.67 142.69L330.36 142.73L330.05 142.77L329.74 142.81L329.42 142.84L329.11 142.88L328.8 142.92L328.48 142.96L328.17 142.99L327.85 143.03L327.53 143.07L327.22 143.1L326.9 143.14L326.58 143.17L326.27 143.2L325.95 143.24L325.63 143.27L325.31 143.3L324.99 143.33L324.67 143.37L324.36 143.4L324.04 143.43L323.72 143.46L323.4 143.49L323.01 143.52L322.63 143.55L322.24 143.58L321.86 143.61L321.48 143.64L321.09 143.67L320.71 143.7L320.33 143.73L319.95 143.76L319.57 143.78L319.19 143.81L318.81 143.83L318.43 143.86L318.06 143.88L317.68 143.9L317.3 143.93L316.93 143.95L316.55 143.97L316.18 143.99L315.8 144L315.43 144.02L315.06 144.04L314.69 144.06L314.32 144.07L313.95 144.09L313.58 144.1L313.21 144.11L312.84 144.13L312.48 144.14L312.11 144.15L311.74 144.16L311.38 144.17L311.02 144.18L310.65 144.19L310.29 144.19L309.93 144.2L309.57 144.21L309.21 144.21L308.85 144.21L308.5 144.22L306.69 144.22L306.69 144.22L304.93 144.22L304.57 144.21L304.21 144.21L303.85 144.2L303.48 144.2L303.12 144.19L302.75 144.18L302.39 144.18L302.02 144.17L301.66 144.16L301.29 144.15L300.92 144.14L300.55 144.12L300.18 144.11L299.81 144.1L299.44 144.08L299.07 144.07L298.7 144.05L298.33 144.04L297.95 144.02L297.58 144L297.21 143.98L296.83 143.96L296.46 143.94L296.08 143.92L295.71 143.9L295.33 143.88L294.95 143.86L294.57 143.83L294.2 143.81L293.82 143.78L293.44 143.76L293.06 143.73L292.68 143.7L292.3 143.67L291.92 143.64L291.54 143.62L291.16 143.58L290.77 143.55L290.39 143.52L290.01 143.49L289.68 143.46L289.35 143.43L289.02 143.4L288.7 143.36L288.37 143.33L288.05 143.3L287.72 143.27L287.4 143.23L287.07 143.2L286.75 143.16L286.42 143.13L286.1 143.09L285.78 143.06L285.46 143.02L285.14 142.98L284.82 142.95L284.5 142.91L284.18 142.87L283.86 142.83L283.54 142.79L283.22 142.75L282.9 142.71L282.59 142.67L282.27 142.63L281.96 142.59L281.64 142.55L281.33 142.5L281.01 142.46L280.7 142.42L280.39 142.37L280.08 142.33L279.77 142.29L279.46 142.24L279.15 142.19L278.84 142.15L278.53 142.1L278.22 142.05L277.92 142.01L277.61 141.96L277.31 141.91L277.09 141.88L276.87 141.84L276.66 141.81L276.44 141.77L276.22 141.74L276 141.7L275.78 141.67L275.57 141.63L275.35 141.6L275.13 141.56L274.91 141.52L274.69 141.48L274.46 141.45L274.24 141.41L274.02 141.37L273.8 141.33L273.58 141.29L273.35 141.25L273.13 141.21L272.91 141.17L272.68 141.13L272.46 141.09L272.24 141.05L272.01 141.01L271.79 140.96L271.56 140.92L271.34 140.88L271.11 140.84L270.89 140.79L270.66 140.75L270.44 140.7L270.21 140.66L269.99 140.61L269.76 140.57L269.54 140.52L269.31 140.48L269.08 140.43L268.86 140.39L268.63 140.34L268.41 140.29L268.2 140.24L267.99 140.19L267.78 140.13L267.58 140.07L267.38 139.99L267.18 139.92L266.99 139.83L266.8 139.74L266.61 139.65L266.43 139.55L266.25 139.44L266.07 139.33L265.9 139.22L265.73 139.1L265.56 138.97L265.4 138.84L265.24 138.7L265.09 138.57L264.94 138.42L264.8 138.27L264.66 138.12L264.52 137.96L264.39 137.8L264.27 137.64L264.15 137.47L264.03 137.3L263.92 137.12L263.81 136.94L263.71 136.76L263.62 136.57L263.53 136.38L263.45 136.19L263.37 135.99L263.3 135.8L263.23 135.59L263.17 135.39L263.12 135.18L263.07 134.97L263.03 134.76L262.99 134.55L262.9 133.94L262.79 133.13L262.66 132.15L262.51 130.98L262.36 129.66L262.19 128.17L262.02 126.54L261.85 124.77L261.69 122.88L261.53 120.86L261.38 118.73L261.25 116.51L261.14 114.18L261.05 111.78L260.99 109.3L260.95 106.75L260.95 104.15L260.99 101.5L261.07 98.82L261.2 96.1L261.38 93.36L261.61 90.61L261.89 87.86L262.24 85.12L262.65 82.4L263.13 79.69L263.69 77.03L264.32 74.4L265.03 71.83L265.82 69.32L266.7 66.88L267.67 64.52L268.74 62.25L269.9 60.07L271.17 58L272.55 56.05L274.04 54.22L275.64 52.53L277.35 50.98L279.19 49.58L279.42 49.43L279.65 49.29L279.89 49.15L280.13 49.03L280.37 48.92L280.61 48.82L280.86 48.73L281.11 48.65L281.36 48.58L281.61 48.51L281.87 48.46L282.12 48.42L282.38 48.39L282.63 48.36L282.89 48.35L283.14 48.35L283.4 48.35L283.66 48.37ZM281.73 67.08L281.14 68.19L280.57 69.36L280.03 70.57L279.53 71.84L279.05 73.16L278.6 74.52L278.18 75.93L277.79 77.38L277.43 78.86L277.09 80.38L276.77 81.94L276.49 83.52L276.22 85.14L275.98 86.78L275.77 88.45L275.57 90.13L275.4 91.84L275.26 93.56L275.13 95.3L275.02 97.04L274.94 98.8L274.87 100.57L274.82 102.33L274.79 104.1L274.78 105.87L274.79 107.64L274.81 109.4L274.85 111.15L274.9 112.9L274.97 114.63L275.06 116.34L275.16 118.04L275.27 119.71L275.39 121.37L275.53 123L275.68 124.6L275.84 126.17L276.01 127.71L276.09 127.73L276.18 127.74L276.27 127.76L276.35 127.77L276.44 127.79L276.53 127.8L276.61 127.82L276.7 127.83L276.79 127.85L276.87 127.86L276.96 127.88L277.05 127.89L277.13 127.91L277.22 127.92L277.31 127.94L277.39 127.95L277.48 127.97L277.56 127.98L277.65 127.99L277.74 128.01L277.82 128.02L277.91 128.04L277.99 128.05L278.08 128.07L278.16 128.08L278.25 128.09L278.34 128.11L278.42 128.12L278.51 128.13L278.59 128.15L278.68 128.16L278.76 128.18L278.85 128.19L278.93 128.2L279.02 128.22L279.1 128.23L279.19 128.24L279.27 128.26L279.36 128.27L279.44 128.28L279.73 128.33L280.01 128.37L280.3 128.42L280.59 128.46L280.87 128.5L281.16 128.55L281.45 128.59L281.74 128.63L282.03 128.67L282.32 128.71L282.61 128.76L282.9 128.8L283.19 128.84L283.48 128.88L283.78 128.91L284.07 128.95L284.36 128.99L284.66 129.03L284.95 129.07L285.25 129.1L285.54 129.14L285.84 129.18L286.13 129.21L286.43 129.25L286.73 129.28L287.02 129.32L287.32 129.35L287.62 129.38L287.92 129.42L288.22 129.45L288.52 129.48L288.82 129.51L289.12 129.54L289.42 129.57L289.72 129.6L290.02 129.63L290.32 129.66L290.62 129.69L290.93 129.72L291.23 129.75L291.58 129.78L291.94 129.81L292.29 129.84L292.64 129.87L293 129.89L293.35 129.92L293.7 129.95L294.05 129.97L294.4 130L294.75 130.02L295.1 130.04L295.45 130.07L295.8 130.09L296.15 130.11L296.5 130.13L296.85 130.15L297.19 130.17L297.54 130.19L297.89 130.21L298.23 130.23L298.58 130.24L298.92 130.26L299.26 130.27L299.61 130.29L299.95 130.3L300.29 130.31L300.63 130.33L300.97 130.34L301.31 130.35L301.65 130.36L301.99 130.37L302.33 130.38L302.66 130.39L303 130.39L303.33 130.4L303.67 130.41L304 130.41L304.33 130.42L304.66 130.42L304.99 130.42L308.44 130.42L308.76 130.42L309.09 130.42L309.42 130.41L309.75 130.41L310.08 130.4L310.41 130.39L310.74 130.39L311.08 130.38L311.41 130.37L311.75 130.36L312.08 130.35L312.42 130.34L312.76 130.33L313.1 130.31L313.44 130.3L313.78 130.29L314.12 130.27L314.46 130.26L314.81 130.24L315.15 130.22L315.5 130.21L315.84 130.19L316.19 130.17L316.54 130.15L316.88 130.13L317.23 130.11L317.58 130.09L317.93 130.07L318.28 130.04L318.63 130.02L318.99 130L319.34 129.97L319.69 129.95L320.04 129.92L320.4 129.89L320.75 129.86L321.11 129.84L321.46 129.81L321.82 129.78L322.17 129.75L322.47 129.72L322.77 129.69L323.07 129.66L323.37 129.63L323.67 129.6L323.96 129.57L324.26 129.54L324.56 129.51L324.86 129.48L325.15 129.45L325.45 129.42L325.75 129.38L326.04 129.35L326.34 129.32L326.63 129.28L326.93 129.25L327.22 129.21L327.52 129.18L327.81 129.14L328.11 129.11L328.4 129.07L328.69 129.03L328.98 128.99L329.28 128.96L329.57 128.92L329.86 128.88L330.15 128.84L330.44 128.8L330.73 128.76L331.02 128.72L331.31 128.68L331.59 128.64L331.88 128.59L332.17 128.55L332.45 128.51L332.74 128.47L333.02 128.42L333.31 128.38L333.59 128.33L333.91 128.28L333.95 128.28L333.97 128.27L333.99 128.27L334.02 128.27L334.05 128.26L334.08 128.26L334.16 128.25L334.24 128.23L334.32 128.22L334.4 128.21L334.48 128.2L334.57 128.18L334.65 128.17L334.73 128.16L334.81 128.14L334.89 128.13L334.97 128.12L335.06 128.1L335.14 128.09L335.22 128.08L335.3 128.06L335.38 128.05L335.47 128.04L335.55 128.02L335.63 128.01L335.71 128L335.79 127.98L335.88 127.97L335.96 127.96L336.04 127.94L336.12 127.93L336.21 127.91L336.29 127.9L336.37 127.89L336.45 127.87L336.54 127.86L336.62 127.84L336.7 127.83L336.78 127.82L336.87 127.8L336.95 127.79L337.03 127.77L337.11 127.76L337.2 127.74L337.28 127.73L337.36 127.71L337.53 126.17L337.69 124.6L337.84 123L337.98 121.37L338.1 119.72L338.22 118.04L338.31 116.34L338.4 114.63L338.47 112.9L338.52 111.15L338.56 109.4L338.58 107.64L338.59 105.87L338.58 104.1L338.55 102.33L338.5 100.57L338.44 98.8L338.35 97.05L338.24 95.3L338.11 93.56L337.97 91.84L337.8 90.13L337.6 88.45L337.39 86.78L337.15 85.14L336.88 83.53L336.6 81.94L336.28 80.38L335.94 78.86L335.58 77.38L335.19 75.93L334.77 74.52L334.32 73.16L333.84 71.84L333.33 70.58L332.8 69.36L332.23 68.19L331.64 67.08L331.01 66.03L330.35 65.04L329.85 65.45L329.35 65.85L328.84 66.25L328.33 66.63L327.81 67L327.28 67.36L326.75 67.72L326.21 68.06L325.67 68.4L325.12 68.72L324.57 69.04L324.01 69.34L323.45 69.64L322.88 69.92L322.3 70.2L321.72 70.46L321.14 70.72L320.55 70.96L319.96 71.2L319.36 71.42L318.76 71.63L318.15 71.84L317.54 72.03L316.93 72.21L316.31 72.38L315.69 72.55L315.07 72.7L314.44 72.83L313.81 72.96L313.17 73.08L312.54 73.19L311.9 73.28L311.25 73.37L310.61 73.44L309.96 73.51L309.31 73.56L308.66 73.6L308 73.62L307.34 73.64L306.68 73.65L306.03 73.64L305.37 73.62L304.71 73.6L304.06 73.56L303.41 73.51L302.76 73.44L302.11 73.37L301.47 73.28L300.83 73.19L300.19 73.08L299.56 72.96L298.93 72.83L298.3 72.7L297.68 72.54L297.06 72.38L296.44 72.21L295.83 72.03L295.22 71.84L294.61 71.63L294.01 71.42L293.41 71.2L292.82 70.96L292.23 70.72L291.65 70.46L291.07 70.2L290.49 69.92L289.92 69.64L289.36 69.34L288.8 69.04L288.25 68.72L287.7 68.4L287.15 68.06L286.62 67.72L286.08 67.36L285.56 67L285.04 66.63L284.53 66.24L284.02 65.85L283.52 65.45L283.02 65.04L282.36 66.03L281.73 67.08Z" id="d1p4qw38vd"></path><path d="M277.67 181.25C268.03 159.01 271.42 135.09 271.57 134.09C272.13 130.32 275.64 127.71 279.41 128.28C283.17 128.83 285.77 132.34 285.22 136.1C285.16 136.51 282.33 157.31 290.32 175.77C291.84 179.26 290.23 183.32 286.74 184.84C285.84 185.22 284.91 185.41 284 185.41C281.33 185.41 278.79 183.85 277.67 181.25Z" id="akQR8XSS"></path><path d="M326.62 184.84C323.13 183.32 321.52 179.26 323.03 175.77C331.07 157.22 328.17 136.31 328.14 136.1C327.59 132.33 330.2 128.83 333.97 128.28C337.74 127.73 341.23 130.32 341.79 134.09C341.93 135.09 345.33 159.01 335.69 181.25C334.57 183.85 332.03 185.41 329.36 185.41C328.44 185.41 327.51 185.22 326.62 184.84Z" id="g2fRwQBsO"></path><path d="M241.1 109.58C237.36 108.82 234.95 105.17 235.72 101.44C245.38 54.08 277.41 51.96 278.77 51.89C282.6 51.71 285.81 54.63 286 58.44C286.19 62.22 283.29 65.44 279.53 65.66C278.42 65.75 256.63 67.95 249.23 104.2C248.57 107.47 245.69 109.72 242.48 109.72C242.02 109.72 241.56 109.67 241.1 109.58Z" id="b2cmZ7Nu4"></path><path d="M366.04 104.2C358.61 67.8 336.67 65.73 335.74 65.66C331.93 65.47 329.04 62.24 329.23 58.43C329.42 54.63 332.64 51.71 336.5 51.89C337.86 51.95 369.88 54.07 379.56 101.44C380.32 105.17 377.91 108.81 374.18 109.58C373.72 109.67 373.25 109.72 372.79 109.72C369.58 109.72 366.71 107.47 366.04 104.2Z" id="a3goPVPCce"></path><path d="M316.21 52.38C315.77 52.3 315.34 52.16 314.93 52C314.5 51.82 314.1 51.61 313.73 51.36C313.36 51.11 313 50.82 312.68 50.51C311.4 49.22 310.67 47.44 310.67 45.62C310.67 45.18 310.71 44.73 310.8 44.27C310.89 43.84 311.02 43.4 311.19 42.99C311.37 42.58 311.58 42.18 311.82 41.8C312.07 41.42 312.36 41.07 312.68 40.75C313 40.44 313.36 40.15 313.73 39.89C314.1 39.64 314.5 39.43 314.93 39.26C315.34 39.09 315.77 38.95 316.21 38.86C318.46 38.41 320.83 39.15 322.43 40.75C322.75 41.07 323.04 41.42 323.3 41.8C323.54 42.18 323.76 42.58 323.94 42.99C324.1 43.4 324.24 43.84 324.32 44.27C324.42 44.73 324.46 45.18 324.46 45.62C324.46 46.08 324.42 46.53 324.32 46.98C324.24 47.42 324.1 47.84 323.94 48.26C323.76 48.69 323.54 49.09 323.3 49.46C323.04 49.83 322.75 50.19 322.43 50.51C322.12 50.82 321.77 51.11 321.38 51.36C321.01 51.61 320.61 51.82 320.2 52C319.78 52.16 319.34 52.3 318.91 52.38C318.46 52.48 318 52.52 317.56 52.52C317.11 52.52 316.65 52.48 316.21 52.38Z" id="f5MrcGp0l3"></path><path d="M325.65 125.6C321.86 125.24 319.07 121.88 319.43 118.09C321.6 95.09 318.23 79.96 318.19 79.81C317.34 76.09 319.67 72.4 323.38 71.55C327.09 70.7 330.79 73.02 331.64 76.73C331.8 77.44 335.54 94.2 333.16 119.38C332.83 122.95 329.82 125.63 326.3 125.63C326.09 125.63 325.87 125.62 325.65 125.6Z" id="b8LyEZZpV"></path><path d="M581.4 94.05C581.4 91.09 581.4 67.44 581.4 64.48C581.4 60.68 584.48 57.59 588.29 57.59C592.1 57.59 595.19 60.68 595.19 64.48C595.19 67.44 595.19 91.09 595.19 94.05C595.19 97.86 592.1 100.95 588.29 100.95C584.48 100.95 581.4 97.86 581.4 94.05Z" id="bBNHGJ511"></path><path d="M573.51 86.16C569.7 86.16 566.61 83.08 566.61 79.27C566.61 75.46 569.7 72.37 573.51 72.37C576.47 72.37 600.12 72.37 603.08 72.37C606.89 72.37 609.97 75.46 609.97 79.27C609.97 83.08 606.89 86.16 603.08 86.16C597.16 86.16 576.47 86.16 573.51 86.16Z" id="aBFwKmvnm"></path><path d="M44.81 516.15C44.81 513.19 44.81 489.54 44.81 486.58C44.81 482.77 47.9 479.69 51.71 479.69C55.51 479.69 58.6 482.77 58.6 486.58C58.6 489.54 58.6 513.19 58.6 516.15C58.6 519.96 55.51 523.05 51.71 523.05C47.9 523.05 44.81 519.96 44.81 516.15Z" id="c9PWBqKcv0"></path><path d="M36.92 508.26C33.11 508.26 30.03 505.17 30.03 501.37C30.03 497.56 33.11 494.47 36.92 494.47C39.88 494.47 63.53 494.47 66.49 494.47C70.3 494.47 73.38 497.56 73.38 501.37C73.38 505.17 70.3 508.26 66.49 508.26C60.57 508.26 39.88 508.26 36.92 508.26Z" id="c4JJF2IlfV"></path><path d="" id="b586Ux6Yc"></path><path d="M508.86 139.25L506.97 138.56L504.38 137.82L501.43 137.83L499.29 138.17L497.07 138.66L495.37 139.44L493.97 140.27C493.29 140.76 492.92 141.03 492.84 141.09C491.89 141.89 491.36 142.34 491.25 142.43C491.05 142.71 490.93 142.87 490.91 142.9C493.57 140.44 497.55 139.67 501.06 141.25C502.84 142.05 504.24 143.33 505.19 144.88C505.29 145.07 505.39 145.25 505.5 145.42C505.52 145.47 505.55 145.51 505.57 145.55C505.57 145.55 505.58 145.55 505.58 145.54C506.02 146.2 506.6 146.77 507.3 147.2C507.51 147.33 507.74 147.45 507.98 147.56C509.57 148.28 511.33 148.2 512.79 147.49C513.8 147 514.68 146.22 515.26 145.18C515.25 145.13 515.19 144.83 515.08 144.29C515.01 144.19 514.66 143.68 514.04 142.76C513.89 142.63 513.12 142 511.73 140.86L508.86 139.25Z" id="a3vbs5yuAz"></path><path d="M508.86 139.25L506.97 138.56L504.38 137.82L501.43 137.83L499.29 138.17L497.07 138.66L495.37 139.44L493.97 140.27C493.29 140.76 492.92 141.03 492.84 141.09C491.89 141.89 491.36 142.34 491.25 142.43C491.05 142.71 490.93 142.87 490.91 142.9C493.57 140.44 497.55 139.67 501.06 141.25C502.84 142.05 504.24 143.33 505.19 144.88C505.29 145.07 505.39 145.25 505.5 145.42C505.52 145.47 505.55 145.51 505.57 145.55C505.57 145.55 505.58 145.55 505.58 145.54C506.02 146.2 506.6 146.77 507.3 147.2C507.51 147.33 507.74 147.45 507.98 147.56C509.57 148.28 511.33 148.2 512.79 147.49C513.8 147 514.68 146.22 515.26 145.18C515.25 145.13 515.19 144.83 515.08 144.29C515.01 144.19 514.66 143.68 514.04 142.76C513.89 142.63 513.12 142 511.73 140.86L508.86 139.25Z" id="d1fuxQMUz1"></path><path d="M508.86 139.25L506.97 138.56L504.38 137.82L501.43 137.83L499.29 138.17L497.07 138.66L495.37 139.44L493.97 140.27C493.29 140.76 492.92 141.03 492.84 141.09C491.89 141.89 491.36 142.34 491.25 142.43C491.05 142.71 490.93 142.87 490.91 142.9C493.57 140.44 497.55 139.67 501.06 141.25C502.84 142.05 504.24 143.33 505.19 144.88C505.29 145.07 505.39 145.25 505.5 145.42C505.52 145.47 505.55 145.51 505.57 145.55C505.57 145.55 505.58 145.55 505.58 145.54C506.02 146.2 506.6 146.77 507.3 147.2C507.51 147.33 507.74 147.45 507.98 147.56C509.57 148.28 511.33 148.2 512.79 147.49C513.8 147 514.68 146.22 515.26 145.18C515.25 145.13 515.19 144.83 515.08 144.29C515.01 144.19 514.66 143.68 514.04 142.76C513.89 142.63 513.12 142 511.73 140.86L508.86 139.25Z" id="aKmqIDHm"></path><path d="M508.86 139.25L506.97 138.56L504.38 137.82L501.43 137.83L499.29 138.17L497.07 138.66L495.37 139.44L493.97 140.27C493.29 140.76 492.92 141.03 492.84 141.09C491.89 141.89 491.36 142.34 491.25 142.43C491.05 142.71 490.93 142.87 490.91 142.9C493.57 140.44 497.55 139.67 501.06 141.25C502.84 142.05 504.24 143.33 505.19 144.88C505.29 145.07 505.39 145.25 505.5 145.42C505.52 145.47 505.55 145.51 505.57 145.55C505.57 145.55 505.58 145.55 505.58 145.54C506.02 146.2 506.6 146.77 507.3 147.2C507.51 147.33 507.74 147.45 507.98 147.56C509.57 148.28 511.33 148.2 512.79 147.49C513.8 147 514.68 146.22 515.26 145.18C515.25 145.13 515.19 144.83 515.08 144.29C515.01 144.19 514.66 143.68 514.04 142.76C513.89 142.63 513.12 142 511.73 140.86L508.86 139.25Z" id="b24Me7N5VF"></path><path d="M506.04 131.59C505.93 131.59 505.38 131.57 504.39 131.56L501.05 131.41L498.07 132.26L496.3 132.83L494.52 133.98L492.71 135.2L490.85 137.18L489.77 138.72L489.18 139.71L488.3 141.66L487.82 143.05L487.33 145.41L487.24 147.43L487.29 148.7L487.53 149.94L487.75 150.96C487.94 151.51 488.05 151.82 488.07 151.88C488.14 152.02 488.18 152.1 488.19 152.12C488.21 152.14 488.22 152.15 488.22 152.15C487.69 150.15 487.81 147.97 488.72 145.94C488.83 145.7 488.94 145.48 489.06 145.26C489.55 144.36 490.18 143.57 490.91 142.9C494.71 138.91 500.44 137.17 505.9 138.52C506.8 138.74 507.69 139.05 508.56 139.44C510.39 140.26 511.99 141.4 513.31 142.75C514.05 143.5 514.7 144.32 515.26 145.18C515.35 145.03 515.44 144.86 515.51 144.7C516.25 143.05 516.17 141.21 515.4 139.72C513.27 136.63 511.44 134.5 509.92 133.33C509.87 133.3 509.61 133.14 509.16 132.87C508.95 132.79 507.91 132.36 506.04 131.59Z" id="anlwiNRbx"></path><path d="M506.04 131.59C505.93 131.59 505.38 131.57 504.39 131.56L501.05 131.41L498.07 132.26L496.3 132.83L494.52 133.98L492.71 135.2L490.85 137.18L489.77 138.72L489.18 139.71L488.3 141.66L487.82 143.05L487.33 145.41L487.24 147.43L487.29 148.7L487.53 149.94L487.75 150.96C487.94 151.51 488.05 151.82 488.07 151.88C488.14 152.02 488.18 152.1 488.19 152.12C488.21 152.14 488.22 152.15 488.22 152.15C487.69 150.15 487.81 147.97 488.72 145.94C488.83 145.7 488.94 145.48 489.06 145.26C489.55 144.36 490.18 143.57 490.91 142.9C494.71 138.91 500.44 137.17 505.9 138.52C506.8 138.74 507.69 139.05 508.56 139.44C510.39 140.26 511.99 141.4 513.31 142.75C514.05 143.5 514.7 144.32 515.26 145.18C515.35 145.03 515.44 144.86 515.51 144.7C516.25 143.05 516.17 141.21 515.4 139.72C513.27 136.63 511.44 134.5 509.92 133.33C509.87 133.3 509.61 133.14 509.16 132.87C508.95 132.79 507.91 132.36 506.04 131.59Z" id="d77S1aJp9b"></path><path d="M506.04 131.59C505.93 131.59 505.38 131.57 504.39 131.56L501.05 131.41L498.07 132.26L496.3 132.83L494.52 133.98L492.71 135.2L490.85 137.18L489.77 138.72L489.18 139.71L488.3 141.66L487.82 143.05L487.33 145.41L487.24 147.43L487.29 148.7L487.53 149.94L487.75 150.96C487.94 151.51 488.05 151.82 488.07 151.88C488.14 152.02 488.18 152.1 488.19 152.12C488.21 152.14 488.22 152.15 488.22 152.15C487.69 150.15 487.81 147.97 488.72 145.94C488.83 145.7 488.94 145.48 489.06 145.26C489.55 144.36 490.18 143.57 490.91 142.9C494.71 138.91 500.44 137.17 505.9 138.52C506.8 138.74 507.69 139.05 508.56 139.44C510.39 140.26 511.99 141.4 513.31 142.75C514.05 143.5 514.7 144.32 515.26 145.18C515.35 145.03 515.44 144.86 515.51 144.7C516.25 143.05 516.17 141.21 515.4 139.72C513.27 136.63 511.44 134.5 509.92 133.33C509.87 133.3 509.61 133.14 509.16 132.87C508.95 132.79 507.91 132.36 506.04 131.59Z" id="aGcTW6eYt"></path><path d="M506.04 131.59C505.93 131.59 505.38 131.57 504.39 131.56L501.05 131.41L498.07 132.26L496.3 132.83L494.52 133.98L492.71 135.2L490.85 137.18L489.77 138.72L489.18 139.71L488.3 141.66L487.82 143.05L487.33 145.41L487.24 147.43L487.29 148.7L487.53 149.94L487.75 150.96C487.94 151.51 488.05 151.82 488.07 151.88C488.14 152.02 488.18 152.1 488.19 152.12C488.21 152.14 488.22 152.15 488.22 152.15C487.69 150.15 487.81 147.97 488.72 145.94C488.83 145.7 488.94 145.48 489.06 145.26C489.55 144.36 490.18 143.57 490.91 142.9C494.71 138.91 500.44 137.17 505.9 138.52C506.8 138.74 507.69 139.05 508.56 139.44C510.39 140.26 511.99 141.4 513.31 142.75C514.05 143.5 514.7 144.32 515.26 145.18C515.35 145.03 515.44 144.86 515.51 144.7C516.25 143.05 516.17 141.21 515.4 139.72C513.27 136.63 511.44 134.5 509.92 133.33C509.87 133.3 509.61 133.14 509.16 132.87C508.95 132.79 507.91 132.36 506.04 131.59Z" id="a1nEZGAqTU"></path><path d="M508.98 132.64C507.97 131.96 506.89 131.35 505.75 130.84C501.28 128.83 496.49 128.53 492.09 129.66C490.83 129.99 489.6 130.43 488.42 130.98C488.41 130.98 488.35 131.02 488.26 131.08C488.23 131.1 488.08 131.2 487.82 131.38C487.79 131.41 487.62 131.54 487.32 131.77L486.03 133.03L485.04 134.18L483.91 136.03L483.02 138L482.23 140.53L481.97 143.5L482.37 146.47L483.16 149.26L484.41 151.69L485.53 153.35L487.4 155.34L489.7 156.93L491.19 157.7C492.11 158.05 492.62 158.24 492.72 158.28C493.39 158.45 493.77 158.55 493.84 158.57C494.1 158.59 494.24 158.6 494.27 158.6C493.98 158.51 493.7 158.39 493.42 158.27C491.67 157.48 490.28 156.22 489.33 154.71C488.83 153.92 488.46 153.05 488.22 152.15C487.83 150.98 487.58 149.77 487.48 148.53C487.27 145.99 487.68 143.37 488.79 140.89C490.95 136.09 495.23 132.92 500.03 131.98C503.08 131.4 506.33 131.7 509.37 133.07C509.56 133.15 509.74 133.24 509.92 133.33C509.61 133.09 509.3 132.86 508.98 132.64" id="b5S7NuoUwH"></path><path d="M508.98 132.64C507.97 131.96 506.89 131.35 505.75 130.84C501.28 128.83 496.49 128.53 492.09 129.66C490.83 129.99 489.6 130.43 488.42 130.98C488.41 130.98 488.35 131.02 488.26 131.08C488.23 131.1 488.08 131.2 487.82 131.38C487.79 131.41 487.62 131.54 487.32 131.77L486.03 133.03L485.04 134.18L483.91 136.03L483.02 138L482.23 140.53L481.97 143.5L482.37 146.47L483.16 149.26L484.41 151.69L485.53 153.35L487.4 155.34L489.7 156.93L491.19 157.7C492.11 158.05 492.62 158.24 492.72 158.28C493.39 158.45 493.77 158.55 493.84 158.57C494.1 158.59 494.24 158.6 494.27 158.6C493.98 158.51 493.7 158.39 493.42 158.27C491.67 157.48 490.28 156.22 489.33 154.71C488.83 153.92 488.46 153.05 488.22 152.15C487.83 150.98 487.58 149.77 487.48 148.53C487.27 145.99 487.68 143.37 488.79 140.89C490.95 136.09 495.23 132.92 500.03 131.98C503.08 131.4 506.33 131.7 509.37 133.07C509.56 133.15 509.74 133.24 509.92 133.33C509.61 133.09 509.3 132.86 508.98 132.64" id="a1X1e4n8W4"></path><path d="M508.98 132.64C507.97 131.96 506.89 131.35 505.75 130.84C501.28 128.83 496.49 128.53 492.09 129.66C490.83 129.99 489.6 130.43 488.42 130.98C488.41 130.98 488.35 131.02 488.26 131.08C488.23 131.1 488.08 131.2 487.82 131.38C487.79 131.41 487.62 131.54 487.32 131.77L486.03 133.03L485.04 134.18L483.91 136.03L483.02 138L482.23 140.53L481.97 143.5L482.37 146.47L483.16 149.26L484.41 151.69L485.53 153.35L487.4 155.34L489.7 156.93L491.19 157.7C492.11 158.05 492.62 158.24 492.72 158.28C493.39 158.45 493.77 158.55 493.84 158.57C494.1 158.59 494.24 158.6 494.27 158.6C493.98 158.51 493.7 158.39 493.42 158.27C491.67 157.48 490.28 156.22 489.33 154.71C488.83 153.92 488.46 153.05 488.22 152.15C487.83 150.98 487.58 149.77 487.48 148.53C487.27 145.99 487.68 143.37 488.79 140.89C490.95 136.09 495.23 132.92 500.03 131.98C503.08 131.4 506.33 131.7 509.37 133.07C509.56 133.15 509.74 133.24 509.92 133.33C509.61 133.09 509.3 132.86 508.98 132.64" id="cjPeEE0PO"></path><path d="M508.98 132.64C507.97 131.96 506.89 131.35 505.75 130.84C501.28 128.83 496.49 128.53 492.09 129.66C490.83 129.99 489.6 130.43 488.42 130.98C488.41 130.98 488.35 131.02 488.26 131.08C488.23 131.1 488.08 131.2 487.82 131.38C487.79 131.41 487.62 131.54 487.32 131.77L486.03 133.03L485.04 134.18L483.91 136.03L483.02 138L482.23 140.53L481.97 143.5L482.37 146.47L483.16 149.26L484.41 151.69L485.53 153.35L487.4 155.34L489.7 156.93L491.19 157.7C492.11 158.05 492.62 158.24 492.72 158.28C493.39 158.45 493.77 158.55 493.84 158.57C494.1 158.59 494.24 158.6 494.27 158.6C493.98 158.51 493.7 158.39 493.42 158.27C491.67 157.48 490.28 156.22 489.33 154.71C488.83 153.92 488.46 153.05 488.22 152.15C487.83 150.98 487.58 149.77 487.48 148.53C487.27 145.99 487.68 143.37 488.79 140.89C490.95 136.09 495.23 132.92 500.03 131.98C503.08 131.4 506.33 131.7 509.37 133.07C509.56 133.15 509.74 133.24 509.92 133.33C509.61 133.09 509.3 132.86 508.98 132.64" id="d2VKcyBBe"></path><path d="M498.52 159.29C498.76 159.18 499 159.06 499.23 158.93C499.08 158.95 498.92 158.96 498.76 158.97C497.28 159.07 495.76 158.95 494.27 158.6C493.3 158.38 492.33 158.06 491.39 157.63C489.55 156.81 487.96 155.68 486.63 154.32C482.29 149.88 480.86 143.07 483.56 137.06C484.68 134.57 486.37 132.51 488.42 130.98C484.08 133.01 480.42 136.55 478.31 141.26C477.31 143.48 476.74 145.79 476.55 148.09C476.55 148.09 476.55 148.1 476.55 148.12C476.55 148.12 476.55 148.14 476.56 148.18L476.58 148.38L476.71 149.4L477.56 151.76L478.75 153.88L480.24 155.85L482.74 158.1L485.32 159.58L487.16 160.28L489.01 160.71L490.54 160.93L493.18 160.94L496 160.42L497.62 159.98L498.96 159.36L499.35 159.13C499.28 159.01 499.24 158.94 499.23 158.93C498.92 159.03 498.74 159.09 498.71 159.1C498.59 159.22 498.53 159.28 498.52 159.29Z" id="ab9EfyK24"></path><path d="M498.52 159.29C498.76 159.18 499 159.06 499.23 158.93C499.08 158.95 498.92 158.96 498.76 158.97C497.28 159.07 495.76 158.95 494.27 158.6C493.3 158.38 492.33 158.06 491.39 157.63C489.55 156.81 487.96 155.68 486.63 154.32C482.29 149.88 480.86 143.07 483.56 137.06C484.68 134.57 486.37 132.51 488.42 130.98C484.08 133.01 480.42 136.55 478.31 141.26C477.31 143.48 476.74 145.79 476.55 148.09C476.55 148.09 476.55 148.1 476.55 148.12C476.55 148.12 476.55 148.14 476.56 148.18L476.58 148.38L476.71 149.4L477.56 151.76L478.75 153.88L480.24 155.85L482.74 158.1L485.32 159.58L487.16 160.28L489.01 160.71L490.54 160.93L493.18 160.94L496 160.42L497.62 159.98L498.96 159.36L499.35 159.13C499.28 159.01 499.24 158.94 499.23 158.93C498.92 159.03 498.74 159.09 498.71 159.1C498.59 159.22 498.53 159.28 498.52 159.29Z" id="e1q87ePSik"></path><path d="M498.52 159.29C498.76 159.18 499 159.06 499.23 158.93C499.08 158.95 498.92 158.96 498.76 158.97C497.28 159.07 495.76 158.95 494.27 158.6C493.3 158.38 492.33 158.06 491.39 157.63C489.55 156.81 487.96 155.68 486.63 154.32C482.29 149.88 480.86 143.07 483.56 137.06C484.68 134.57 486.37 132.51 488.42 130.98C484.08 133.01 480.42 136.55 478.31 141.26C477.31 143.48 476.74 145.79 476.55 148.09C476.55 148.09 476.55 148.1 476.55 148.12C476.55 148.12 476.55 148.14 476.56 148.18L476.58 148.38L476.71 149.4L477.56 151.76L478.75 153.88L480.24 155.85L482.74 158.1L485.32 159.58L487.16 160.28L489.01 160.71L490.54 160.93L493.18 160.94L496 160.42L497.62 159.98L498.96 159.36L499.35 159.13C499.28 159.01 499.24 158.94 499.23 158.93C498.92 159.03 498.74 159.09 498.71 159.1C498.59 159.22 498.53 159.28 498.52 159.29Z" id="bTXLZjyqE"></path><path d="M498.52 159.29C498.76 159.18 499 159.06 499.23 158.93C499.08 158.95 498.92 158.96 498.76 158.97C497.28 159.07 495.76 158.95 494.27 158.6C493.3 158.38 492.33 158.06 491.39 157.63C489.55 156.81 487.96 155.68 486.63 154.32C482.29 149.88 480.86 143.07 483.56 137.06C484.68 134.57 486.37 132.51 488.42 130.98C484.08 133.01 480.42 136.55 478.31 141.26C477.31 143.48 476.74 145.79 476.55 148.09C476.55 148.09 476.55 148.1 476.55 148.12C476.55 148.12 476.55 148.14 476.56 148.18L476.58 148.38L476.71 149.4L477.56 151.76L478.75 153.88L480.24 155.85L482.74 158.1L485.32 159.58L487.16 160.28L489.01 160.71L490.54 160.93L493.18 160.94L496 160.42L497.62 159.98L498.96 159.36L499.35 159.13C499.28 159.01 499.24 158.94 499.23 158.93C498.92 159.03 498.74 159.09 498.71 159.1C498.59 159.22 498.53 159.28 498.52 159.29Z" id="a8tM7SEo9u"></path><path d="M499.23 158.93C497.85 159.67 496.36 160.21 494.82 160.5C492.65 160.93 490.37 160.89 488.14 160.34C487.25 160.12 486.35 159.81 485.48 159.42C480.65 157.25 477.46 152.92 476.55 148.09C475.87 156.59 480.52 164.99 488.75 168.69C492.7 170.46 496.89 170.9 500.85 170.2C500.84 170.13 500.81 169.77 500.76 169.13C500.71 168.7 500.52 166.51 500.16 162.57C499.95 160.26 499.84 159.03 499.82 158.86C499.63 158.89 499.43 158.91 499.23 158.93Z" id="a5D96wohsO"></path><path d="M499.23 158.93C497.85 159.67 496.36 160.21 494.82 160.5C492.65 160.93 490.37 160.89 488.14 160.34C487.25 160.12 486.35 159.81 485.48 159.42C480.65 157.25 477.46 152.92 476.55 148.09C475.87 156.59 480.52 164.99 488.75 168.69C492.7 170.46 496.89 170.9 500.85 170.2C500.84 170.13 500.81 169.77 500.76 169.13C500.71 168.7 500.52 166.51 500.16 162.57C499.95 160.26 499.84 159.03 499.82 158.86C499.63 158.89 499.43 158.91 499.23 158.93Z" id="bq7fEt6Wl"></path><path d="M499.23 158.93C497.85 159.67 496.36 160.21 494.82 160.5C492.65 160.93 490.37 160.89 488.14 160.34C487.25 160.12 486.35 159.81 485.48 159.42C480.65 157.25 477.46 152.92 476.55 148.09C475.87 156.59 480.52 164.99 488.75 168.69C492.7 170.46 496.89 170.9 500.85 170.2C500.84 170.13 500.81 169.77 500.76 169.13C500.71 168.7 500.52 166.51 500.16 162.57C499.95 160.26 499.84 159.03 499.82 158.86C499.63 158.89 499.43 158.91 499.23 158.93Z" id="c6D8jC5YMC"></path><path d="M499.23 158.93C497.85 159.67 496.36 160.21 494.82 160.5C492.65 160.93 490.37 160.89 488.14 160.34C487.25 160.12 486.35 159.81 485.48 159.42C480.65 157.25 477.46 152.92 476.55 148.09C475.87 156.59 480.52 164.99 488.75 168.69C492.7 170.46 496.89 170.9 500.85 170.2C500.84 170.13 500.81 169.77 500.76 169.13C500.71 168.7 500.52 166.51 500.16 162.57C499.95 160.26 499.84 159.03 499.82 158.86C499.63 158.89 499.43 158.91 499.23 158.93Z" id="a1TImPNeOa"></path><path d="M510.09 164.37C512.07 159.96 510.1 154.79 505.69 152.81C505.02 152.51 504.34 152.3 503.65 152.18C501.16 151.73 498.63 152.39 496.69 153.91C496.69 153.91 496.69 153.91 496.69 153.91C496.82 153.97 497.85 154.43 497.98 154.49C498.42 154.75 500.6 156.07 504.54 158.43C504.53 158.61 504.52 159.49 504.5 161.07C504.01 163.88 503.74 165.43 503.69 165.75C501.41 167.59 500.14 168.62 499.89 168.83C499.09 169.83 498.65 170.39 498.56 170.5C501.09 170.35 503.56 169.73 505.85 168.7C505.85 168.7 505.85 168.7 505.85 168.7C507.67 167.83 509.2 166.35 510.09 164.37" id="geSnlauxV"></path><path d="M510.09 164.37C512.07 159.96 510.1 154.79 505.69 152.81C505.02 152.51 504.34 152.3 503.65 152.18C501.16 151.73 498.63 152.39 496.69 153.91C496.69 153.91 496.69 153.91 496.69 153.91C496.82 153.97 497.85 154.43 497.98 154.49C498.42 154.75 500.6 156.07 504.54 158.43C504.53 158.61 504.52 159.49 504.5 161.07C504.01 163.88 503.74 165.43 503.69 165.75C501.41 167.59 500.14 168.62 499.89 168.83C499.09 169.83 498.65 170.39 498.56 170.5C501.09 170.35 503.56 169.73 505.85 168.7C505.85 168.7 505.85 168.7 505.85 168.7C507.67 167.83 509.2 166.35 510.09 164.37" id="bXZq8NaIs"></path><path d="M510.09 164.37C512.07 159.96 510.1 154.79 505.69 152.81C505.02 152.51 504.34 152.3 503.65 152.18C501.16 151.73 498.63 152.39 496.69 153.91C496.69 153.91 496.69 153.91 496.69 153.91C496.82 153.97 497.85 154.43 497.98 154.49C498.42 154.75 500.6 156.07 504.54 158.43C504.53 158.61 504.52 159.49 504.5 161.07C504.01 163.88 503.74 165.43 503.69 165.75C501.41 167.59 500.14 168.62 499.89 168.83C499.09 169.83 498.65 170.39 498.56 170.5C501.09 170.35 503.56 169.73 505.85 168.7C505.85 168.7 505.85 168.7 505.85 168.7C507.67 167.83 509.2 166.35 510.09 164.37" id="bnHHwzGVP"></path><path d="M510.09 164.37C512.07 159.96 510.1 154.79 505.69 152.81C505.02 152.51 504.34 152.3 503.65 152.18C501.16 151.73 498.63 152.39 496.69 153.91C496.69 153.91 496.69 153.91 496.69 153.91C496.82 153.97 497.85 154.43 497.98 154.49C498.42 154.75 500.6 156.07 504.54 158.43C504.53 158.61 504.52 159.49 504.5 161.07C504.01 163.88 503.74 165.43 503.69 165.75C501.41 167.59 500.14 168.62 499.89 168.83C499.09 169.83 498.65 170.39 498.56 170.5C501.09 170.35 503.56 169.73 505.85 168.7C505.85 168.7 505.85 168.7 505.85 168.7C507.67 167.83 509.2 166.35 510.09 164.37" id="bsKYQJoT7"></path><path d="M500.79 154.62C499.46 154.02 498.05 153.8 496.69 153.91C499.09 156.6 500 159.93 498.75 162.71C497.47 165.56 494.24 167.11 490.52 167.02C488.74 166.98 486.83 166.56 484.98 165.72C484.06 165.31 483.22 164.83 482.45 164.29C484.22 166.1 486.35 167.61 488.8 168.71C491.24 169.81 493.77 170.39 496.28 170.51C497.04 170.55 497.8 170.55 498.56 170.5C501.3 170.11 503.78 168.37 504.99 165.66C506.88 161.45 505 156.51 500.79 154.62" id="gJp61XUPg"></path><path d="M500.79 154.62C499.46 154.02 498.05 153.8 496.69 153.91C499.09 156.6 500 159.93 498.75 162.71C497.47 165.56 494.24 167.11 490.52 167.02C488.74 166.98 486.83 166.56 484.98 165.72C484.06 165.31 483.22 164.83 482.45 164.29C484.22 166.1 486.35 167.61 488.8 168.71C491.24 169.81 493.77 170.39 496.28 170.51C497.04 170.55 497.8 170.55 498.56 170.5C501.3 170.11 503.78 168.37 504.99 165.66C506.88 161.45 505 156.51 500.79 154.62" id="ackkdodhN"></path><path d="M500.79 154.62C499.46 154.02 498.05 153.8 496.69 153.91C499.09 156.6 500 159.93 498.75 162.71C497.47 165.56 494.24 167.11 490.52 167.02C488.74 166.98 486.83 166.56 484.98 165.72C484.06 165.31 483.22 164.83 482.45 164.29C484.22 166.1 486.35 167.61 488.8 168.71C491.24 169.81 493.77 170.39 496.28 170.51C497.04 170.55 497.8 170.55 498.56 170.5C501.3 170.11 503.78 168.37 504.99 165.66C506.88 161.45 505 156.51 500.79 154.62" id="a1gZlT8vGm"></path><path d="M500.79 154.62C499.46 154.02 498.05 153.8 496.69 153.91C499.09 156.6 500 159.93 498.75 162.71C497.47 165.56 494.24 167.11 490.52 167.02C488.74 166.98 486.83 166.56 484.98 165.72C484.06 165.31 483.22 164.83 482.45 164.29C484.22 166.1 486.35 167.61 488.8 168.71C491.24 169.81 493.77 170.39 496.28 170.51C497.04 170.55 497.8 170.55 498.56 170.5C501.3 170.11 503.78 168.37 504.99 165.66C506.88 161.45 505 156.51 500.79 154.62" id="a9cVWj5RS"></path><path d="M508.57 148.36C507.39 147.94 506.3 147.06 505.26 145.73C504.5 144.33 503.41 143.23 502.02 142.43C499.92 141.23 498.42 140.92 496.88 140.95C492.8 141.03 489.65 144.51 488.95 146.07C488.24 147.65 486.53 152.6 490.09 156.27C491.05 157.26 492.35 158.46 494.61 159.24C496.12 159.76 497.63 159.81 499.13 159.38C498.99 158.45 498.72 157.58 498.32 156.77C497.91 155.97 497.38 155.22 496.72 154.54C499.21 153.02 501.54 152.45 503.71 152.85C506.97 153.45 508.64 155.44 509.73 156.93C510.83 158.42 511.25 161.63 510.24 164.37C509.66 165.95 508.51 167.27 506.77 168.35C504.75 169.61 502.78 170.44 500.86 170.83C498.46 171.32 496.31 171.1 494.38 170.91C490.91 170.57 486.81 168.3 484.56 166.61C482.71 165.23 482.38 164.61 481.05 163.2C476.79 158.72 474.38 150.17 478.35 141.69C480.72 136.65 485.08 132.59 489.81 130.98C491.79 130.31 494.39 128.98 499.46 129.76C504.53 130.55 507.45 132.1 510.09 134.11C512.38 135.86 514.15 137.92 515.4 140.3C515.95 141.94 516.13 143.33 515.94 144.45C515.65 146.25 514.34 147.38 513.3 147.94C512.31 148.47 510.25 148.97 508.57 148.36Z" id="f2SS97jFqV"></path><path d="M508.57 148.36C507.39 147.94 506.3 147.06 505.26 145.73C504.5 144.33 503.41 143.23 502.02 142.43C499.92 141.23 498.42 140.92 496.88 140.95C492.8 141.03 489.65 144.51 488.95 146.07C488.24 147.65 486.53 152.6 490.09 156.27C491.05 157.26 492.35 158.46 494.61 159.24C496.12 159.76 497.63 159.81 499.13 159.38C498.99 158.45 498.72 157.58 498.32 156.77C497.91 155.97 497.38 155.22 496.72 154.54C499.21 153.02 501.54 152.45 503.71 152.85C506.97 153.45 508.64 155.44 509.73 156.93C510.83 158.42 511.25 161.63 510.24 164.37C509.66 165.95 508.51 167.27 506.77 168.35C504.75 169.61 502.78 170.44 500.86 170.83C498.46 171.32 496.31 171.1 494.38 170.91C490.91 170.57 486.81 168.3 484.56 166.61C482.71 165.23 482.38 164.61 481.05 163.2C476.79 158.72 474.38 150.17 478.35 141.69C480.72 136.65 485.08 132.59 489.81 130.98C491.79 130.31 494.39 128.98 499.46 129.76C504.53 130.55 507.45 132.1 510.09 134.11C512.38 135.86 514.15 137.92 515.4 140.3C515.95 141.94 516.13 143.33 515.94 144.45C515.65 146.25 514.34 147.38 513.3 147.94C512.31 148.47 510.25 148.97 508.57 148.36Z" id="bquIvd6zi"></path></defs><g><g><g><use xlink:href="#d2TXxIRNOV" opacity="1" fill="#f3a2c7" fill-opacity="1"></use><g><use xlink:href="#d2TXxIRNOV" opacity="1" fill-opacity="0" stroke="#000000" stroke-width="1" stroke-opacity="0"></use></g></g><g><use xlink:href="#dZsvpQhFK" opacity="1" fill="#e35f9b" fill-opacity="1"></use><g><use xlink:href="#dZsvpQhFK" opacity="1" fill-opacity="0" stroke="#000000" stroke-width="1" stroke-opacity="0"></use></g></g><g><use xlink:href="#eENPo0Gk" opacity="1" fill="#c93b7c" fill-opacity="1"></use><g><use xlink:href="#eENPo0Gk" opacity="1" fill-opacity="0" stroke="#000000" stroke-width="1" stroke-opacity="0"></use></g></g><g><use xlink:href="#apVVsJ1hJ" opacity="1" fill="#c93b7c" fill-opacity="1"></use><g><use xlink:href="#apVVsJ1hJ" opacity="1" fill-opacity="0" stroke="#000000" stroke-width="1" stroke-opacity="0"></use></g></g><g><use xlink:href="#ewGqhsf7Q" opacity="1" fill="#e35f9b" fill-opacity="1"></use><g><use xlink:href="#ewGqhsf7Q" opacity="1" fill-opacity="0" stroke="#000000" stroke-width="1" stroke-opacity="0"></use></g></g><g><use xlink:href="#a16KZm49Hn" opacity="1" fill="#000000" fill-opacity="1"></use><g><use xlink:href="#a16KZm49Hn" opacity="1" fill-opacity="0" stroke="#000000" stroke-width="1" stroke-opacity="0"></use></g></g><g><use xlink:href="#c1afsqtIOQ" opacity="1" fill="#ffffff" fill-opacity="1"></use><g><use xlink:href="#c1afsqtIOQ" opacity="1" fill-opacity="0" stroke="#000000" stroke-width="1" stroke-opacity="0"></use></g></g><g><use xlink:href="#b6MX0Hc6jY" opacity="1" fill="#ffffff" fill-opacity="1"></use><g><use xlink:href="#b6MX0Hc6jY" opacity="1" fill-opacity="0" stroke="#000000" stroke-width="1" stroke-opacity="0"></use></g></g><g><use xlink:href="#aHnWTPkJq" opacity="1" fill="#ffffff" fill-opacity="1"></use><g><use xlink:href="#aHnWTPkJq" opacity="1" fill-opacity="0" stroke="#000000" stroke-width="1" stroke-opacity="0"></use></g></g><g><use xlink:href="#e2pAF7szQh" opacity="1" fill="#000000" fill-opacity="1"></use><g><use xlink:href="#e2pAF7szQh" opacity="1" fill-opacity="0" stroke="#000000" stroke-width="1" stroke-opacity="0"></use></g></g><g><use xlink:href="#c2sAsXuPJZ" opacity="1" fill="#c93b7c" fill-opacity="1"></use><g><use xlink:href="#c2sAsXuPJZ" opacity="1" fill-opacity="0" stroke="#000000" stroke-width="1" stroke-opacity="0"></use></g></g><g><use xlink:href="#b10PAUWo5m" opacity="1" fill="#e35f9b" fill-opacity="1"></use><g><use xlink:href="#b10PAUWo5m" opacity="1" fill-opacity="0" stroke="#000000" stroke-width="1" stroke-opacity="0"></use></g></g><g><use xlink:href="#cXzRO2B1q" opacity="1" fill="#c93b7c" fill-opacity="1"></use><g><use xlink:href="#cXzRO2B1q" opacity="1" fill-opacity="0" stroke="#000000" stroke-width="1" stroke-opacity="0"></use></g></g><g><use xlink:href="#aN3Shg9jN" opacity="1" fill="#000000" fill-opacity="1"></use><g><use xlink:href="#aN3Shg9jN" opacity="1" fill-opacity="0" stroke="#000000" stroke-width="1" stroke-opacity="0"></use></g></g><g><use xlink:href="#d5aE4EBDn4" opacity="1" fill="#000000" fill-opacity="1"></use><g><use xlink:href="#d5aE4EBDn4" opacity="1" fill-opacity="0" stroke="#000000" stroke-width="1" stroke-opacity="0"></use></g></g><g><use xlink:href="#cAu18t7PH" opacity="1" fill="#000000" fill-opacity="1"></use><g><use xlink:href="#cAu18t7PH" opacity="1" fill-opacity="0" stroke="#000000" stroke-width="1" stroke-opacity="0"></use></g></g><g><use xlink:href="#bv1YFQ8H0" opacity="1" fill="#000000" fill-opacity="1"></use><g><use xlink:href="#bv1YFQ8H0" opacity="1" fill-opacity="0" stroke="#000000" stroke-width="1" stroke-opacity="0"></use></g></g><g><use xlink:href="#a2BQGkm9no" opacity="1" fill="#f2f2f2" fill-opacity="1"></use><g><use xlink:href="#a2BQGkm9no" opacity="1" fill-opacity="0" stroke="#000000" stroke-width="1" stroke-opacity="0"></use></g></g><g><use xlink:href="#bg2qPve2o" opacity="1" fill="#f2f2f2" fill-opacity="1"></use><g><use xlink:href="#bg2qPve2o" opacity="1" fill-opacity="0" stroke="#000000" stroke-width="1" stroke-opacity="0"></use></g></g><g><use xlink:href="#bNFmJWDJk" opacity="1" fill="#43437d" fill-opacity="1"></use><g><use xlink:href="#bNFmJWDJk" opacity="1" fill-opacity="0" stroke="#000000" stroke-width="1" stroke-opacity="0"></use></g></g><g><use xlink:href="#aaobBTjga" opacity="1" fill="#f2f2f2" fill-opacity="1"></use><g><use xlink:href="#aaobBTjga" opacity="1" fill-opacity="0" stroke="#000000" stroke-width="1" stroke-opacity="0"></use></g></g><g><use xlink:href="#e1XgyKmTXG" opacity="1" fill="#000000" fill-opacity="1"></use><g><use xlink:href="#e1XgyKmTXG" opacity="1" fill-opacity="0" stroke="#000000" stroke-width="1" stroke-opacity="0"></use></g></g><g><use xlink:href="#bm0DzST4K" opacity="1" fill="#000000" fill-opacity="1"></use><g><use xlink:href="#bm0DzST4K" opacity="1" fill-opacity="0" stroke="#000000" stroke-width="1" stroke-opacity="0"></use></g></g><g><use xlink:href="#a1mUwTFlkp" opacity="1" fill="#000000" fill-opacity="1"></use><g><use xlink:href="#a1mUwTFlkp" opacity="1" fill-opacity="0" stroke="#000000" stroke-width="1" stroke-opacity="0"></use></g></g><g><use xlink:href="#a1Ao81z76o" opacity="1" fill="#000000" fill-opacity="1"></use><g><use xlink:href="#a1Ao81z76o" opacity="1" fill-opacity="0" stroke="#000000" stroke-width="1" stroke-opacity="0"></use></g></g><g><use xlink:href="#mf8Ln7epq" opacity="1" fill="#6c7a9f" fill-opacity="1"></use><g><use xlink:href="#mf8Ln7epq" opacity="1" fill-opacity="0" stroke="#000000" stroke-width="1" stroke-opacity="0"></use></g></g><g><use xlink:href="#bqezGPwUa" opacity="1" fill="#000000" fill-opacity="1"></use><g><use xlink:href="#bqezGPwUa" opacity="1" fill-opacity="0" stroke="#000000" stroke-width="1" stroke-opacity="0"></use></g></g><g><use xlink:href="#b1aQOsDhRi" opacity="1" fill="#000000" fill-opacity="1"></use><g><use xlink:href="#b1aQOsDhRi" opacity="1" fill-opacity="0" stroke="#000000" stroke-width="1" stroke-opacity="0"></use></g></g><g><use xlink:href="#cAuWvDjv0" opacity="1" fill="#000000" fill-opacity="1"></use><g><use xlink:href="#cAuWvDjv0" opacity="1" fill-opacity="0" stroke="#000000" stroke-width="1" stroke-opacity="0"></use></g></g><g><use xlink:href="#b4GZKcIVDf" opacity="1" fill="#20505b" fill-opacity="1"></use><g><use xlink:href="#b4GZKcIVDf" opacity="1" fill-opacity="0" stroke="#000000" stroke-width="1" stroke-opacity="0"></use></g></g><g><use xlink:href="#a2WWlQoH27" opacity="1" fill="#6c7a9f" fill-opacity="1"></use><g><use xlink:href="#a2WWlQoH27" opacity="1" fill-opacity="0" stroke="#000000" stroke-width="1" stroke-opacity="0"></use></g></g><g><use xlink:href="#f6oW0dlka8" opacity="1" fill="#43437d" fill-opacity="1"></use><g><use xlink:href="#f6oW0dlka8" opacity="1" fill-opacity="0" stroke="#000000" stroke-width="1" stroke-opacity="0"></use></g></g><g><use xlink:href="#b3i5lnCgwM" opacity="1" fill="#000000" fill-opacity="1"></use><g><use xlink:href="#b3i5lnCgwM" opacity="1" fill-opacity="0" stroke="#000000" stroke-width="1" stroke-opacity="0"></use></g></g><g><use xlink:href="#mcwJeAcfW" opacity="1" fill="#000000" fill-opacity="1"></use><g><use xlink:href="#mcwJeAcfW" opacity="1" fill-opacity="0" stroke="#000000" stroke-width="1" stroke-opacity="0"></use></g></g><g><use xlink:href="#d1p4qw38vd" opacity="1" fill="#000000" fill-opacity="1"></use><g><use xlink:href="#d1p4qw38vd" opacity="1" fill-opacity="0" stroke="#000000" stroke-width="1" stroke-opacity="0"></use></g></g><g><use xlink:href="#akQR8XSS" opacity="1" fill="#000000" fill-opacity="1"></use><g><use xlink:href="#akQR8XSS" opacity="1" fill-opacity="0" stroke="#000000" stroke-width="1" stroke-opacity="0"></use></g></g><g><use xlink:href="#g2fRwQBsO" opacity="1" fill="#000000" fill-opacity="1"></use><g><use xlink:href="#g2fRwQBsO" opacity="1" fill-opacity="0" stroke="#000000" stroke-width="1" stroke-opacity="0"></use></g></g><g><use xlink:href="#b2cmZ7Nu4" opacity="1" fill="#000000" fill-opacity="1"></use><g><use xlink:href="#b2cmZ7Nu4" opacity="1" fill-opacity="0" stroke="#000000" stroke-width="1" stroke-opacity="0"></use></g></g><g><use xlink:href="#a3goPVPCce" opacity="1" fill="#000000" fill-opacity="1"></use><g><use xlink:href="#a3goPVPCce" opacity="1" fill-opacity="0" stroke="#000000" stroke-width="1" stroke-opacity="0"></use></g></g><g><use xlink:href="#f5MrcGp0l3" opacity="1" fill="#ffffff" fill-opacity="1"></use><g><use xlink:href="#f5MrcGp0l3" opacity="1" fill-opacity="0" stroke="#000000" stroke-width="1" stroke-opacity="0"></use></g></g><g><use xlink:href="#b8LyEZZpV" opacity="1" fill="#ffffff" fill-opacity="1"></use><g><use xlink:href="#b8LyEZZpV" opacity="1" fill-opacity="0" stroke="#000000" stroke-width="1" stroke-opacity="0"></use></g></g><g><use xlink:href="#bBNHGJ511" opacity="1" fill="#fcbc1d" fill-opacity="1"></use><g><use xlink:href="#bBNHGJ511" opacity="1" fill-opacity="0" stroke="#000000" stroke-width="1" stroke-opacity="0"></use></g></g><g><use xlink:href="#aBFwKmvnm" opacity="1" fill="#fcbc1d" fill-opacity="1"></use><g><use xlink:href="#aBFwKmvnm" opacity="1" fill-opacity="0" stroke="#000000" stroke-width="1" stroke-opacity="0"></use></g></g><g><use xlink:href="#c9PWBqKcv0" opacity="1" fill="#fcbc1d" fill-opacity="1"></use><g><use xlink:href="#c9PWBqKcv0" opacity="1" fill-opacity="0" stroke="#000000" stroke-width="1" stroke-opacity="0"></use></g></g><g><use xlink:href="#c4JJF2IlfV" opacity="1" fill="#fcbc1d" fill-opacity="1"></use><g><use xlink:href="#c4JJF2IlfV" opacity="1" fill-opacity="0" stroke="#000000" stroke-width="1" stroke-opacity="0"></use></g></g><g><g><use xlink:href="#b586Ux6Yc" opacity="1" fill="#000000" fill-opacity="0"></use><g><use xlink:href="#b586Ux6Yc" opacity="1" fill-opacity="0" stroke="#000000" stroke-width="1" stroke-opacity="0"></use></g></g><g><use xlink:href="#a3vbs5yuAz" opacity="1" fill="#244d89" fill-opacity="1"></use><g><use xlink:href="#a3vbs5yuAz" opacity="1" fill-opacity="0" stroke="#000000" stroke-width="1" stroke-opacity="0"></use></g></g><g><use xlink:href="#d1fuxQMUz1" opacity="1" fill="#000000" fill-opacity="0"></use><g><use xlink:href="#d1fuxQMUz1" opacity="1" fill-opacity="0" stroke="#000000" stroke-width="1" stroke-opacity="0"></use></g></g><g><use xlink:href="#aKmqIDHm" opacity="1" fill="#000000" fill-opacity="0"></use><g><use xlink:href="#aKmqIDHm" opacity="1" fill-opacity="0" stroke="#000000" stroke-width="1" stroke-opacity="0"></use></g></g><g><use xlink:href="#b24Me7N5VF" opacity="1" fill="#000000" fill-opacity="0"></use><g><use xlink:href="#b24Me7N5VF" opacity="1" fill-opacity="0" stroke="#000000" stroke-width="1" stroke-opacity="0"></use></g></g><g><use xlink:href="#anlwiNRbx" opacity="1" fill="#3fc2f0" fill-opacity="1"></use><g><use xlink:href="#anlwiNRbx" opacity="1" fill-opacity="0" stroke="#000000" stroke-width="1" stroke-opacity="0"></use></g></g><g><use xlink:href="#d77S1aJp9b" opacity="1" fill="#000000" fill-opacity="0"></use><g><use xlink:href="#d77S1aJp9b" opacity="1" fill-opacity="0" stroke="#000000" stroke-width="1" stroke-opacity="0"></use></g></g><g><use xlink:href="#aGcTW6eYt" opacity="1" fill="#000000" fill-opacity="0"></use><g><use xlink:href="#aGcTW6eYt" opacity="1" fill-opacity="0" stroke="#000000" stroke-width="1" stroke-opacity="0"></use></g></g><g><use xlink:href="#a1nEZGAqTU" opacity="1" fill="#000000" fill-opacity="0"></use><g><use xlink:href="#a1nEZGAqTU" opacity="1" fill-opacity="0" stroke="#000000" stroke-width="1" stroke-opacity="0"></use></g></g><g><use xlink:href="#b5S7NuoUwH" opacity="1" fill="#2c84bd" fill-opacity="1"></use><g><use xlink:href="#b5S7NuoUwH" opacity="1" fill-opacity="0" stroke="#000000" stroke-width="1" stroke-opacity="0"></use></g></g><g><use xlink:href="#a1X1e4n8W4" opacity="1" fill="#000000" fill-opacity="0"></use><g><use xlink:href="#a1X1e4n8W4" opacity="1" fill-opacity="0" stroke="#000000" stroke-width="1" stroke-opacity="0"></use></g></g><g><use xlink:href="#cjPeEE0PO" opacity="1" fill="#000000" fill-opacity="0"></use><g><use xlink:href="#cjPeEE0PO" opacity="1" fill-opacity="0" stroke="#000000" stroke-width="1" stroke-opacity="0"></use></g></g><g><use xlink:href="#d2VKcyBBe" opacity="1" fill="#000000" fill-opacity="0"></use><g><use xlink:href="#d2VKcyBBe" opacity="1" fill-opacity="0" stroke="#000000" stroke-width="1" stroke-opacity="0"></use></g></g><g><use xlink:href="#ab9EfyK24" opacity="1" fill="#38589a" fill-opacity="1"></use><g><use xlink:href="#ab9EfyK24" opacity="1" fill-opacity="0" stroke="#000000" stroke-width="1" stroke-opacity="0"></use></g></g><g><use xlink:href="#e1q87ePSik" opacity="1" fill="#000000" fill-opacity="0"></use><g><use xlink:href="#e1q87ePSik" opacity="1" fill-opacity="0" stroke="#000000" stroke-width="1" stroke-opacity="0"></use></g></g><g><use xlink:href="#bTXLZjyqE" opacity="1" fill="#000000" fill-opacity="0"></use><g><use xlink:href="#bTXLZjyqE" opacity="1" fill-opacity="0" stroke="#000000" stroke-width="1" stroke-opacity="0"></use></g></g><g><use xlink:href="#a8tM7SEo9u" opacity="1" fill="#000000" fill-opacity="0"></use><g><use xlink:href="#a8tM7SEo9u" opacity="1" fill-opacity="0" stroke="#000000" stroke-width="1" stroke-opacity="0"></use></g></g><g><use xlink:href="#a5D96wohsO" opacity="1" fill="#244d89" fill-opacity="1"></use><g><use xlink:href="#a5D96wohsO" opacity="1" fill-opacity="0" stroke="#000000" stroke-width="1" stroke-opacity="0"></use></g></g><g><use xlink:href="#bq7fEt6Wl" opacity="1" fill="#000000" fill-opacity="0"></use><g><use xlink:href="#bq7fEt6Wl" opacity="1" fill-opacity="0" stroke="#000000" stroke-width="1" stroke-opacity="0"></use></g></g><g><use xlink:href="#c6D8jC5YMC" opacity="1" fill="#000000" fill-opacity="0"></use><g><use xlink:href="#c6D8jC5YMC" opacity="1" fill-opacity="0" stroke="#000000" stroke-width="1" stroke-opacity="0"></use></g></g><g><use xlink:href="#a1TImPNeOa" opacity="1" fill="#000000" fill-opacity="0"></use><g><use xlink:href="#a1TImPNeOa" opacity="1" fill-opacity="0" stroke="#000000" stroke-width="1" stroke-opacity="0"></use></g></g><g><use xlink:href="#geSnlauxV" opacity="1" fill="#3fc2f0" fill-opacity="1"></use><g><use xlink:href="#geSnlauxV" opacity="1" fill-opacity="0" stroke="#000000" stroke-width="1" stroke-opacity="0"></use></g></g><g><use xlink:href="#bXZq8NaIs" opacity="1" fill="#000000" fill-opacity="0"></use><g><use xlink:href="#bXZq8NaIs" opacity="1" fill-opacity="0" stroke="#000000" stroke-width="1" stroke-opacity="0"></use></g></g><g><use xlink:href="#bnHHwzGVP" opacity="1" fill="#000000" fill-opacity="0"></use><g><use xlink:href="#bnHHwzGVP" opacity="1" fill-opacity="0" stroke="#000000" stroke-width="1" stroke-opacity="0"></use></g></g><g><use xlink:href="#bsKYQJoT7" opacity="1" fill="#000000" fill-opacity="0"></use><g><use xlink:href="#bsKYQJoT7" opacity="1" fill-opacity="0" stroke="#000000" stroke-width="1" stroke-opacity="0"></use></g></g><g><use xlink:href="#gJp61XUPg" opacity="1" fill="#2c84bd" fill-opacity="1"></use><g><use xlink:href="#gJp61XUPg" opacity="1" fill-opacity="0" stroke="#000000" stroke-width="1" stroke-opacity="0"></use></g></g><g><use xlink:href="#ackkdodhN" opacity="1" fill="#000000" fill-opacity="0"></use><g><use xlink:href="#ackkdodhN" opacity="1" fill-opacity="0" stroke="#000000" stroke-width="1" stroke-opacity="0"></use></g></g><g><use xlink:href="#a1gZlT8vGm" opacity="1" fill="#000000" fill-opacity="0"></use><g><use xlink:href="#a1gZlT8vGm" opacity="1" fill-opacity="0" stroke="#000000" stroke-width="1" stroke-opacity="0"></use></g></g><g><use xlink:href="#a9cVWj5RS" opacity="1" fill="#000000" fill-opacity="0"></use><g><use xlink:href="#a9cVWj5RS" opacity="1" fill-opacity="0" stroke="#000000" stroke-width="1" stroke-opacity="0"></use></g></g><g><use xlink:href="#f2SS97jFqV" opacity="1" fill="#000000" fill-opacity="0"></use><g><use xlink:href="#f2SS97jFqV" opacity="1" fill-opacity="0" stroke="#000000" stroke-width="1" stroke-opacity="0"></use></g></g><g><use xlink:href="#bquIvd6zi" opacity="1" fill="#000000" fill-opacity="0"></use><g><use xlink:href="#bquIvd6zi" opacity="1" fill-opacity="0" stroke="#000000" stroke-width="4" stroke-opacity="1"></use></g></g></g></g></g></svg>