<?xml version="1.0" encoding="UTF-8"?>
<!DOCTYPE svg  PUBLIC '-//W3C//DTD SVG 1.1//EN'  'http://www.w3.org/Graphics/SVG/1.1/DTD/svg11.dtd'>
<svg width="634.96" height="570.71" version="1.1" viewBox="0 0 634.961 570.709" xmlns="http://www.w3.org/2000/svg" xmlns:xlink="http://www.w3.org/1999/xlink">
<defs>
<path id="ae" d="m505.46 96.82h-260.8l-15.55-46.57h276.35v46.57z"/>
<path id="r" d="m244.66 96.82h260.8 83.83v428.45h-577.48v-512.28h204.91l12.39 37.26 15.55 46.57z"/>
<path id="bf" d="m77.01 12.99v512.27h-65.2v-512.27h65.2z"/>
<path id="x" d="m241.56 60.14h255.41v9.86h17.53v-27.4h-278.79l-12.39-37.26h-220v529.81h167.11v-17.53h-149.58v-494.74h189.82l22.11 66.29h-71.67v17.54h419.68v65.74h17.54v-83.28h-347.07l-9.7-29.03z"/>
<path id="j" d="m198.37 517.62v17.53h399.96v-334.76h-17.54v317.23h-382.42z"/>
<path id="ad" d="m142.48 89.17v17.53h-18.62v-17.53h18.62z"/>
<path id="f" d="m105.22 89.17v17.53h-18.62v-17.53h18.62z"/>
<path id="g" d="m584.25 387.44l-16.06-1.46-9.85 0.72-13.06 1.91-13.14 5.95-8.89 5.79-8.94 6.69-6.03 6.86-4.59 6.55-3.41 5.91c-2.65 5.51-4.12 8.57-4.41 9.18-0.36 1.67-0.56 2.6-0.6 2.79 6.99-16.32 23.19-27.75 42.06-27.75 9.56 0 18.42 2.93 25.77 7.94 0.78 0.65 1.61 1.26 2.47 1.81 0.18 0.15 0.37 0.28 0.56 0.43 0 0 0.02-0.04 0.02-0.05 3.29 2.04 7.02 3.42 11.02 3.96 1.21 0.16 2.45 0.24 3.73 0.24 8.59 0 16.28-3.88 21.4-9.98 3.52-4.21 5.85-9.46 6.4-15.25-0.17-0.24-1.05-1.44-2.61-3.62-0.51-0.31-3.08-1.9-7.7-4.77l-14.14-3.85z"/>
<path id="ba" d="m584.25 387.44l-16.06-1.46-9.85 0.72-13.06 1.91-13.14 5.95-8.89 5.79-8.94 6.69-6.03 6.86-4.59 6.55-3.41 5.91c-2.65 5.51-4.12 8.57-4.41 9.18-0.36 1.67-0.56 2.6-0.6 2.79 6.99-16.32 23.19-27.75 42.06-27.75 9.56 0 18.42 2.93 25.77 7.94 0.78 0.65 1.61 1.26 2.47 1.81 0.18 0.15 0.37 0.28 0.56 0.43 0 0 0.02-0.04 0.02-0.05 3.29 2.04 7.02 3.42 11.02 3.96 1.21 0.16 2.45 0.24 3.73 0.24 8.59 0 16.28-3.88 21.4-9.98 3.52-4.21 5.85-9.46 6.4-15.25-0.17-0.24-1.05-1.44-2.61-3.62-0.51-0.31-3.08-1.9-7.7-4.77l-14.14-3.85z"/>
<path id="aj" d="m556.72 356.89c-1.1 0.04-6.61 0.21-16.52 0.53l-7.43 3.16-15.22 6.04-11.63 9.78-6.73 6.11-5.65 8.69-5.65 9.09-4.37 12.6-1.73 9.05-0.64 5.58v10.48l0.64 7.19 2.54 11.51 3.62 9.22 2.77 5.58 3.56 5.07 3.06 4.14 3.27 3.45c0.61 0.49 0.94 0.77 1.01 0.82 0.12 0.06 0.19 0.09 0.2 0.09-6.39-7.85-10.22-17.88-10.22-28.78 0-1.25 0.05-2.46 0.14-3.68 0.41-5.04 1.63-9.84 3.53-14.28 8.99-25.46 31.09-44.73 58.22-49.66 4.45-0.81 9.04-1.23 13.73-1.23 9.85 0 19.26 1.87 27.89 5.26 4.78 1.88 9.34 4.23 13.59 6.98 0.08-0.87 0.14-1.78 0.14-2.68 0-8.87-4.04-16.92-10.49-22.04-15.73-9.51-28.17-15.36-37.32-17.54-0.28-0.04-1.73-0.22-4.31-0.53z"/>
<path id="a" d="m556.72 356.89c-1.1 0.04-6.61 0.21-16.52 0.53l-7.43 3.16-15.22 6.04-11.63 9.78-6.73 6.11-5.65 8.69-5.65 9.09-4.37 12.6-1.73 9.05-0.64 5.58v10.48l0.64 7.19 2.54 11.51 3.62 9.22 2.77 5.58 3.56 5.07 3.06 4.14 3.27 3.45c0.61 0.49 0.94 0.77 1.01 0.82 0.12 0.06 0.19 0.09 0.2 0.09-6.39-7.85-10.22-17.88-10.22-28.78 0-1.25 0.05-2.46 0.14-3.68 0.41-5.04 1.63-9.84 3.53-14.28 8.99-25.46 31.09-44.73 58.22-49.66 4.45-0.81 9.04-1.23 13.73-1.23 9.85 0 19.26 1.87 27.89 5.26 4.78 1.88 9.34 4.23 13.59 6.98 0.08-0.87 0.14-1.78 0.14-2.68 0-8.87-4.04-16.92-10.49-22.04-15.73-9.51-28.17-15.36-37.32-17.54-0.28-0.04-1.73-0.22-4.31-0.53z"/>
<path id="i" d="m555.47 356.24c-5.88-1.05-11.92-1.6-18.08-1.6-23.97 0-46.01 8.29-63.39 22.16-5 3.98-9.6 8.41-13.77 13.25-0.04 0.05-0.21 0.31-0.52 0.77-0.09 0.15-0.53 0.9-1.33 2.24l-1.46 2.71-3.27 8.24-2.09 7.12-1.36 10.54v10.59l1.55 12.86 4.78 13.85 7.76 12.46 9.13 10.89 10.47 8.33 8.34 5.17 12.3 5.14 13.48 2.48 8.23 0.46 7.99-0.46c3.36-0.58 5.23-0.91 5.6-0.97 1.18-0.42 1.84-0.65 1.96-0.7-1.46 0.14-2.96 0.21-4.46 0.21-9.4 0-18.14-2.84-25.41-7.7-3.81-2.55-7.22-5.66-10.1-9.21-4.08-4.45-7.63-9.38-10.58-14.72-6.02-10.9-9.45-23.43-9.45-36.76 0-25.77 12.79-48.55 32.37-62.35 12.42-8.74 27.56-13.89 43.9-13.89 1 0 1.99 0.03 2.97 0.07-1.83-0.45-3.7-0.84-5.56-1.18"/>
<path id="ax" d="m555.47 356.24c-5.88-1.05-11.92-1.6-18.08-1.6-23.97 0-46.01 8.29-63.39 22.16-5 3.98-9.6 8.41-13.77 13.25-0.04 0.05-0.21 0.31-0.52 0.77-0.09 0.15-0.53 0.9-1.33 2.24l-1.46 2.71-3.27 8.24-2.09 7.12-1.36 10.54v10.59l1.55 12.86 4.78 13.85 7.76 12.46 9.13 10.89 10.47 8.33 8.34 5.17 12.3 5.14 13.48 2.48 8.23 0.46 7.99-0.46c3.36-0.58 5.23-0.91 5.6-0.97 1.18-0.42 1.84-0.65 1.96-0.7-1.46 0.14-2.96 0.21-4.46 0.21-9.4 0-18.14-2.84-25.41-7.7-3.81-2.55-7.22-5.66-10.1-9.21-4.08-4.45-7.63-9.38-10.58-14.72-6.02-10.9-9.45-23.43-9.45-36.76 0-25.77 12.79-48.55 32.37-62.35 12.42-8.74 27.56-13.89 43.9-13.89 1 0 1.99 0.03 2.97 0.07-1.83-0.45-3.7-0.84-5.56-1.18"/>
<path id="at" d="m562.64 495.09c-0.28 0.74-0.45 1.15-0.47 1.23 0.85-1 1.69-2.01 2.48-3.05-0.67 0.39-1.36 0.75-2.04 1.12-6.44 3.42-13.44 5.93-20.82 7.38-4.79 0.94-9.74 1.44-14.82 1.44-9.84 0-19.25-1.86-27.89-5.25-28.33-11.14-48.38-38.72-48.38-70.98 0-13.39 3.47-25.98 9.53-36.93-15.3 17.8-24.56 40.93-24.56 66.24 0 11.93 2.07 23.38 5.85 34.02 0.01 0.01 0.03 0.05 0.07 0.13l0.15 0.3 0.48 0.84 2.65 4.31 8.5 8.81 9.62 7.09 10.57 5.81 15.71 5.03 14.5 1.48 9.62-0.59 9.15-1.78 7.28-2.12 11.78-5.22 11.57-7.97 6.38-5.26 4.73-5.44 1.27-1.8-0.9-0.66c-1.2 1.09-1.88 1.7-2.01 1.82z"/>
<path id="v" d="m562.64 495.09c-0.28 0.74-0.45 1.15-0.47 1.23 0.85-1 1.69-2.01 2.48-3.05-0.67 0.39-1.36 0.75-2.04 1.12-6.44 3.42-13.44 5.93-20.82 7.38-4.79 0.94-9.74 1.44-14.82 1.44-9.84 0-19.25-1.86-27.89-5.25-28.33-11.14-48.38-38.72-48.38-70.98 0-13.39 3.47-25.98 9.53-36.93-15.3 17.8-24.56 40.93-24.56 66.24 0 11.93 2.07 23.38 5.85 34.02 0.01 0.01 0.03 0.05 0.07 0.13l0.15 0.3 0.48 0.84 2.65 4.31 8.5 8.81 9.62 7.09 10.57 5.81 15.71 5.03 14.5 1.48 9.62-0.59 9.15-1.78 7.28-2.12 11.78-5.22 11.57-7.97 6.38-5.26 4.73-5.44 1.27-1.8-0.9-0.66c-1.2 1.09-1.88 1.7-2.01 1.82z"/>
<path id="an" d="m567.14 491.79c-0.82 0.5-1.65 1-2.49 1.48-4.68 6.09-10.28 11.46-16.58 15.89-8.85 6.24-19.09 10.64-30.17 12.66-4.44 0.81-9.04 1.24-13.72 1.24-25.96 0-48.88-12.96-62.66-32.75 14.01 39.4 51.64 67.61 95.85 67.61 21.2 0 40.84-6.46 57.12-17.54-0.18-0.31-1.03-1.82-2.57-4.56-1.06-1.88-6.33-11.26-15.84-28.15-5.56-9.88-8.54-15.17-8.94-15.88z"/>
<path id="e" d="m567.14 491.79c-0.82 0.5-1.65 1-2.49 1.48-4.68 6.09-10.28 11.46-16.58 15.89-8.85 6.24-19.09 10.64-30.17 12.66-4.44 0.81-9.04 1.24-13.72 1.24-25.96 0-48.88-12.96-62.66-32.75 14.01 39.4 51.64 67.61 95.85 67.61 21.2 0 40.84-6.46 57.12-17.54-0.18-0.31-1.03-1.82-2.57-4.56-1.06-1.88-6.33-11.26-15.84-28.15-5.56-9.88-8.54-15.17-8.94-15.88z"/>
<path id="m" d="m624.08 495.79c0-23.66-19.2-42.83-42.87-42.83-3.58 0-7.07 0.43-10.39 1.27-12 2.97-21.99 11.01-27.61 21.7 0.01 0 0.01 0.02 0.01 0.02h6.92c2.48 0.29 14.88 1.78 37.2 4.45l5.13 11.87 5.77 22.52c-6.49 12.84-10.1 19.96-10.82 21.39-1.54 6.09-2.4 9.49-2.57 10.16 10.99-5.77 20.8-13.48 28.96-22.68l-0.01-0.02c6.4-7.5 10.28-17.21 10.28-27.85"/>
<path id="q" d="m624.08 495.79c0-23.66-19.2-42.83-42.87-42.83-3.58 0-7.07 0.43-10.39 1.27-12 2.97-21.99 11.01-27.61 21.7 0.01 0 0.01 0.02 0.01 0.02h6.92c2.48 0.29 14.88 1.78 37.2 4.45l5.13 11.87 5.77 22.52c-6.49 12.84-10.1 19.96-10.82 21.39-1.54 6.09-2.4 9.49-2.57 10.16 10.99-5.77 20.8-13.48 28.96-22.68l-0.01-0.02c6.4-7.5 10.28-17.21 10.28-27.85"/>
<path id="u" d="m562.96 470.88c-7.16 0-13.89 1.84-19.74 5.07 16.1 7.18 26.87 20.25 26.87 35.19 0 15.31-11.34 28.68-28.14 35.74-8.08 3.41-17.43 5.35-27.4 5.35-4.89 0-9.63-0.47-14.16-1.35 11.55 4.54 24.12 7.04 37.27 7.04 13.08 0 25.56-2.46 37.03-6.96 3.49-1.35 6.88-2.89 10.16-4.62 11.45-7.25 19.04-20.02 19.04-34.56 0-22.59-18.32-40.9-40.93-40.9"/>
<path id="y" d="m562.96 470.88c-7.16 0-13.89 1.84-19.74 5.07 16.1 7.18 26.87 20.25 26.87 35.19 0 15.31-11.34 28.68-28.14 35.74-8.08 3.41-17.43 5.35-27.4 5.35-4.89 0-9.63-0.47-14.16-1.35 11.55 4.54 24.12 7.04 37.27 7.04 13.08 0 25.56-2.46 37.03-6.96 3.49-1.35 6.88-2.89 10.16-4.62 11.45-7.25 19.04-20.02 19.04-34.56 0-22.59-18.32-40.9-40.93-40.9"/>
<path id="ag" d="m605.46 415.91c-3.38 4.38-11.55 10.73-20.31 11.39-6.08 0.48-12.75-1.24-20.04-5.12-6.24-4.73-13.28-7.47-21.13-8.24-11.77-1.14-19.12 0.47-25.91 3.7-18.06 8.55-25.16 30.42-25.16 38.79 0 8.49 2.27 34.01 25.52 43.28 6.32 2.52 14.51 5.27 26.17 4.22 7.79-0.7 14.62-3.51 20.51-8.43-2.51-3.88-5.47-7.22-8.89-10.03-3.42-2.8-7.29-5.05-11.62-6.77 8.08-11.81 17.38-19.01 27.86-21.59 15.74-3.86 27.2 1.68 35.09 6.15 7.89 4.46 16.22 17.95 17.2 32.24 0.59 8.21-1.93 16.45-7.51 24.75-6.5 9.69-13.66 17.34-21.45 22.94-9.72 7-19.79 10.34-28.79 13.35-16.2 5.43-39.07 3.54-52.53 0.5-11.02-2.48-13.73-4.58-22.54-8.19-27.98-11.48-55.96-44.88-55.18-90.73 0.47-27.29 11.77-54.18 29.7-70.87 7.49-6.95 16.46-18.12 40.68-24.78 24.23-6.67 40.43-5.58 56.23-1.89 13.74 3.2 25.79 8.87 36.17 16.97 5.73 6.27 9.31 12.11 10.75 17.5 2.31 8.62-1.29 16.28-4.82 20.86z"/>
<path id="h" d="m59.74 204.71c0 35.41 28.7 64.12 64.12 64.12 35.41 0 64.12-28.71 64.12-64.12s-28.71-64.12-64.12-64.12c-35.42 0-64.12 28.71-64.12 64.12z"/>
<path id="t" d="m129.68 133.7l2.86 0.3 2.83 0.4 2.8 0.52 2.76 0.63 2.71 0.73 2.67 0.84 2.63 0.94 2.58 1.03 2.53 1.13 2.47 1.23 2.42 1.32 2.37 1.41 2.31 1.5 2.24 1.58 2.18 1.67 2.12 1.74 2.04 1.83 1.97 1.89 1.9 1.98 1.83 2.04 1.74 2.12 1.67 2.18 1.58 2.24 1.5 2.31 1.41 2.36 1.31 2.42 1.24 2.48 1.13 2.53 1.03 2.58 0.94 2.63 0.84 2.67 0.73 2.71 0.63 2.76 0.51 2.79 0.41 2.84 0.3 2.86 0.17 2.89 0.06 2.93-0.06 2.93-0.17 2.89-0.3 2.87-0.41 2.83-0.51 2.8-0.63 2.75-0.73 2.72-0.84 2.67-0.94 2.63-1.03 2.58-1.13 2.53-1.24 2.47-1.31 2.42-1.41 2.37-1.5 2.3-1.58 2.25-1.67 2.18-1.74 2.11-1.83 2.05-1.9 1.97-1.97 1.9-2.04 1.82-2.12 1.75-2.18 1.66-2.24 1.59-2.31 1.49-2.37 1.41-2.42 1.33-2.47 1.22-2.53 1.14-2.58 1.03-2.63 0.94-2.67 0.83-2.71 0.74-2.76 0.62-2.8 0.52-2.83 0.41-2.86 0.29-2.9 0.18-2.92 0.06-2.93-0.06-2.89-0.18-2.87-0.29-2.83-0.41-2.8-0.52-2.75-0.62-2.72-0.74-2.67-0.83-2.63-0.94-2.58-1.03-2.53-1.14-2.48-1.22-2.41-1.33-2.37-1.41-2.3-1.49-2.25-1.59-2.18-1.66-2.11-1.75-2.05-1.82-1.97-1.9-1.9-1.97-1.82-2.05-1.75-2.11-1.66-2.18-1.59-2.25-1.49-2.3-1.41-2.37-1.33-2.42-1.22-2.47-1.14-2.53-1.03-2.58-0.94-2.63-0.83-2.67-0.74-2.72-0.62-2.75-0.52-2.8-0.41-2.83-0.29-2.87-0.18-2.89-0.06-2.93 0.06-2.93 0.18-2.89 0.29-2.86 0.41-2.84 0.52-2.79 0.62-2.76 0.74-2.71 0.83-2.67 0.94-2.63 1.03-2.58 1.14-2.53 1.22-2.48 1.33-2.42 1.41-2.36 1.49-2.31 1.59-2.24 1.66-2.18 1.75-2.12 1.82-2.04 1.9-1.98 1.97-1.89 2.05-1.83 2.11-1.74 2.18-1.67 2.25-1.58 2.3-1.5 2.37-1.41 2.41-1.32 2.48-1.23 2.53-1.13 2.58-1.03 2.63-0.94 2.67-0.84 2.72-0.73 2.75-0.63 2.8-0.52 2.83-0.4 2.87-0.3 2.89-0.17 2.93-0.06 2.92 0.06 2.9 0.17zm-10.48 14.21l-2.29 0.24-2.27 0.32-2.23 0.41-2.21 0.5-2.17 0.59-2.14 0.67-2.1 0.75-2.06 0.82-2.03 0.92-1.98 0.97-1.93 1.06-1.9 1.13-1.84 1.2-1.8 1.26-1.74 1.34-1.69 1.39-1.63 1.46-1.59 1.52-1.51 1.58-1.46 1.63-1.4 1.69-1.33 1.75-1.27 1.79-1.2 1.85-1.12 1.89-1.07 1.94-0.97 1.98-0.91 2.02-0.83 2.06-0.75 2.11-0.67 2.13-0.58 2.18-0.51 2.2-0.41 2.24-0.32 2.27-0.24 2.28-0.14 2.33-0.05 2.33 0.05 2.34 0.14 2.32 0.24 2.29 0.32 2.26 0.41 2.24 0.51 2.2 0.58 2.18 0.67 2.14 0.75 2.1 0.83 2.06 0.91 2.02 0.97 1.99 1.07 1.93 1.12 1.9 1.2 1.84 1.27 1.8 1.33 1.74 1.4 1.69 1.46 1.63 1.51 1.59 1.59 1.51 1.63 1.46 1.69 1.4 1.74 1.33 1.8 1.27 1.84 1.2 1.9 1.12 1.93 1.06 1.98 0.98 2.03 0.91 2.06 0.83 2.1 0.75 2.14 0.67 2.17 0.58 2.21 0.51 2.23 0.41 2.27 0.32 2.29 0.24 2.32 0.14 2.34 0.05 2.33-0.05 2.33-0.14 2.28-0.24 2.27-0.32 2.24-0.41 2.2-0.51 2.17-0.58 2.14-0.67 2.11-0.75 2.06-0.83 2.02-0.91 1.98-0.98 1.94-1.06 1.89-1.12 1.85-1.2 1.79-1.27 1.74-1.33 1.7-1.4 1.63-1.46 1.58-1.51 1.52-1.59 1.46-1.63 1.39-1.69 1.34-1.74 1.26-1.8 1.2-1.84 1.13-1.9 1.06-1.93 0.97-1.99 0.92-2.02 0.82-2.06 0.75-2.1 0.67-2.14 0.58-2.18 0.51-2.2 0.41-2.24 0.32-2.26 0.24-2.29 0.14-2.32 0.05-2.34-0.05-2.33-0.14-2.33-0.24-2.28-0.32-2.27-0.41-2.24-0.51-2.2-0.58-2.18-0.67-2.13-0.75-2.11-0.82-2.06-0.92-2.02-0.97-1.98-1.06-1.94-1.13-1.89-1.2-1.85-1.26-1.79-1.34-1.75-1.39-1.69-1.46-1.63-1.52-1.58-1.58-1.52-1.63-1.46-1.69-1.39-1.75-1.34-1.79-1.26-1.85-1.2-1.89-1.13-1.94-1.06-1.98-0.97-2.02-0.92-2.06-0.82-2.11-0.75-2.14-0.67-2.17-0.59-2.2-0.5-2.24-0.41-2.27-0.32-2.28-0.24-2.33-0.14-2.33-0.05-2.34 0.05-2.32 0.14z"/>
<path id="n" d="m74.25 204.71c0 27.12 21.99 49.1 49.1 49.1 27.12 0 49.1-21.98 49.1-49.1 0-27.11-21.98-49.1-49.1-49.1-27.11 0-49.1 21.99-49.1 49.1z"/>
<path id="k" d="m74.25 204.71c0 27.12 21.99 49.1 49.1 49.1 27.12 0 49.1-21.98 49.1-49.1 0-27.11-21.98-49.1-49.1-49.1-27.11 0-49.1 21.99-49.1 49.1z"/>
<path id="az" d="m122.16 219.13l0.52 0.51 23.93-14.16-23.93-39.89-0.52 1.81v51.73z"/>
<path id="b" d="m122.16 219.13l0.52 0.51 23.93-14.16-23.93-39.89-0.52 1.81v51.73z"/>
<path id="au" d="m122.68 219.64v-25.22-28.83l-23.94 39.89 23.94 14.16z"/>
<path id="bg" d="m122.68 219.64v-25.22-28.83l-23.94 39.89 23.94 14.16z"/>
<path id="l" d="m122.42 242.81l0.26 1.02 23.93-33.97-23.93 14.15-0.26 0.52v18.28z"/>
<path id="av" d="m122.42 242.81l0.26 1.02 23.93-33.97-23.93 14.15-0.26 0.52v18.28z"/>
<path id="d" d="m98.74 209.86l23.94 33.97v-19.82l-23.94-14.15z"/>
<path id="o" d="m98.74 209.86l23.94 33.97v-19.82l-23.94-14.15z"/>
<path id="aa" d="m122.68 194.42v25.22l23.93-14.16-23.93-11.06z"/>
<path id="w" d="m122.68 194.42v25.22l23.93-14.16-23.93-11.06z"/>
<path id="as" d="m122.68 194.42l-23.94 11.06 23.94 14.16v-25.22z"/>
<path id="ah" d="m122.68 194.42l-23.94 11.06 23.94 14.16v-25.22z"/>
<path id="ay" d="m417.54 204.71c0 35.41 28.7 64.12 64.12 64.12 35.41 0 64.12-28.71 64.12-64.12s-28.71-64.12-64.12-64.12c-35.42 0-64.12 28.71-64.12 64.12z"/>
<path id="al" d="m487.48 133.7l2.86 0.3 2.83 0.4 2.8 0.52 2.76 0.63 2.71 0.73 2.67 0.84 2.63 0.94 2.58 1.03 2.53 1.13 2.47 1.23 2.43 1.32 2.36 1.41 2.31 1.5 2.24 1.58 2.18 1.67 2.12 1.74 2.04 1.83 1.97 1.89 1.9 1.98 1.83 2.04 1.74 2.12 1.67 2.18 1.58 2.24 1.5 2.31 1.41 2.36 1.32 2.42 1.23 2.48 1.13 2.53 1.03 2.58 0.94 2.63 0.84 2.67 0.73 2.71 0.63 2.76 0.51 2.79 0.41 2.84 0.3 2.86 0.17 2.89 0.06 2.93-0.06 2.93-0.17 2.89-0.3 2.87-0.41 2.83-0.51 2.8-0.63 2.75-0.73 2.72-0.84 2.67-0.94 2.63-1.03 2.58-1.13 2.53-1.23 2.47-1.32 2.42-1.41 2.37-1.5 2.3-1.58 2.25-1.67 2.18-1.74 2.11-1.83 2.05-1.9 1.97-1.97 1.9-2.04 1.82-2.12 1.75-2.18 1.66-2.24 1.59-2.31 1.49-2.36 1.41-2.43 1.33-2.47 1.22-2.53 1.14-2.58 1.03-2.63 0.94-2.67 0.83-2.71 0.74-2.76 0.62-2.8 0.52-2.83 0.41-2.86 0.29-2.89 0.18-2.93 0.06-2.93-0.06-2.89-0.18-2.87-0.29-2.83-0.41-2.8-0.52-2.75-0.62-2.72-0.74-2.67-0.83-2.63-0.94-2.58-1.03-2.53-1.14-2.47-1.22-2.42-1.33-2.37-1.41-2.3-1.49-2.25-1.59-2.18-1.66-2.11-1.75-2.05-1.82-1.97-1.9-1.9-1.97-1.82-2.05-1.75-2.11-1.66-2.18-1.58-2.25-1.5-2.3-1.41-2.37-1.33-2.42-1.22-2.47-1.14-2.53-1.03-2.58-0.94-2.63-0.83-2.67-0.74-2.72-0.62-2.75-0.52-2.8-0.41-2.83-0.29-2.87-0.18-2.89-0.06-2.93 0.06-2.93 0.18-2.89 0.29-2.86 0.41-2.84 0.52-2.79 0.62-2.76 0.74-2.71 0.83-2.67 0.94-2.63 1.03-2.58 1.14-2.53 1.22-2.48 1.33-2.42 1.41-2.36 1.5-2.31 1.58-2.24 1.66-2.18 1.75-2.12 1.82-2.04 1.9-1.98 1.97-1.89 2.05-1.83 2.11-1.74 2.18-1.67 2.25-1.58 2.3-1.5 2.37-1.41 2.42-1.32 2.47-1.23 2.53-1.13 2.58-1.03 2.63-0.94 2.67-0.84 2.72-0.73 2.75-0.63 2.8-0.52 2.83-0.4 2.87-0.3 2.89-0.17 2.93-0.06 2.93 0.06 2.89 0.17zm-10.48 14.21l-2.29 0.24-2.26 0.32-2.24 0.41-2.21 0.5-2.17 0.59-2.14 0.67-2.1 0.75-2.06 0.82-2.02 0.92-1.98 0.97-1.94 1.06-1.9 1.13-1.84 1.2-1.8 1.26-1.74 1.34-1.69 1.39-1.63 1.46-1.59 1.52-1.51 1.58-1.46 1.63-1.4 1.69-1.33 1.75-1.27 1.79-1.2 1.85-1.12 1.89-1.06 1.94-0.98 1.98-0.91 2.02-0.83 2.06-0.75 2.11-0.67 2.13-0.58 2.18-0.51 2.2-0.41 2.24-0.32 2.27-0.24 2.28-0.14 2.33-0.05 2.33 0.05 2.34 0.14 2.32 0.24 2.29 0.32 2.26 0.41 2.24 0.51 2.2 0.58 2.18 0.67 2.14 0.75 2.1 0.83 2.06 0.91 2.02 0.98 1.99 1.06 1.93 1.12 1.9 1.2 1.84 1.27 1.8 1.33 1.74 1.4 1.69 1.46 1.63 1.51 1.59 1.59 1.51 1.63 1.46 1.69 1.4 1.74 1.33 1.8 1.27 1.84 1.2 1.9 1.12 1.94 1.06 1.98 0.98 2.02 0.91 2.06 0.83 2.1 0.75 2.14 0.67 2.17 0.58 2.21 0.51 2.24 0.41 2.26 0.32 2.29 0.24 2.32 0.14 2.34 0.05 2.33-0.05 2.33-0.14 2.28-0.24 2.27-0.32 2.24-0.41 2.21-0.51 2.16-0.58 2.15-0.67 2.1-0.75 2.06-0.83 2.02-0.91 1.98-0.98 1.94-1.06 1.89-1.12 1.85-1.2 1.79-1.27 1.74-1.33 1.7-1.4 1.63-1.46 1.58-1.51 1.52-1.59 1.46-1.63 1.4-1.69 1.33-1.74 1.27-1.8 1.19-1.84 1.13-1.9 1.06-1.93 0.98-1.99 0.91-2.02 0.82-2.06 0.75-2.1 0.67-2.14 0.59-2.18 0.5-2.2 0.41-2.24 0.33-2.26 0.23-2.29 0.14-2.32 0.05-2.34-0.05-2.33-0.14-2.33-0.23-2.28-0.33-2.27-0.41-2.24-0.5-2.2-0.59-2.18-0.67-2.13-0.75-2.11-0.82-2.06-0.91-2.02-0.98-1.98-1.06-1.94-1.13-1.89-1.19-1.85-1.27-1.79-1.33-1.75-1.4-1.69-1.46-1.63-1.52-1.58-1.58-1.52-1.63-1.46-1.69-1.39-1.75-1.34-1.79-1.26-1.85-1.2-1.89-1.13-1.94-1.06-1.98-0.97-2.02-0.92-2.06-0.82-2.1-0.75-2.15-0.67-2.16-0.59-2.21-0.5-2.24-0.41-2.27-0.32-2.28-0.24-2.33-0.14-2.33-0.05-2.34 0.05-2.32 0.14z"/>
<path id="ac" d="m487.48 133.7l2.86 0.3 2.83 0.4 2.8 0.52 2.76 0.63 2.71 0.73 2.67 0.84 2.63 0.94 2.58 1.03 2.53 1.13 2.47 1.23 2.43 1.32 2.36 1.41 2.31 1.5 2.24 1.58 2.18 1.67 2.12 1.74 2.04 1.83 1.97 1.89 1.9 1.98 1.83 2.04 1.74 2.12 1.67 2.18 1.58 2.24 1.5 2.31 1.41 2.36 1.32 2.42 1.23 2.48 1.13 2.53 1.03 2.58 0.94 2.63 0.84 2.67 0.73 2.71 0.63 2.76 0.51 2.79 0.41 2.84 0.3 2.86 0.17 2.89 0.06 2.93-0.06 2.93-0.17 2.89-0.3 2.87-0.41 2.83-0.51 2.8-0.63 2.75-0.73 2.72-0.84 2.67-0.94 2.63-1.03 2.58-1.13 2.53-1.23 2.47-1.32 2.42-1.41 2.37-1.5 2.3-1.58 2.25-1.67 2.18-1.74 2.11-1.83 2.05-1.9 1.97-1.97 1.9-2.04 1.82-2.12 1.75-2.18 1.66-2.24 1.59-2.31 1.49-2.36 1.41-2.43 1.33-2.47 1.22-2.53 1.14-2.58 1.03-2.63 0.94-2.67 0.83-2.71 0.74-2.76 0.62-2.8 0.52-2.83 0.41-2.86 0.29-2.89 0.18-2.93 0.06-2.93-0.06-2.89-0.18-2.87-0.29-2.83-0.41-2.8-0.52-2.75-0.62-2.72-0.74-2.67-0.83-2.63-0.94-2.58-1.03-2.53-1.14-2.47-1.22-2.42-1.33-2.37-1.41-2.3-1.49-2.25-1.59-2.18-1.66-2.11-1.75-2.05-1.82-1.97-1.9-1.9-1.97-1.82-2.05-1.75-2.11-1.66-2.18-1.58-2.25-1.5-2.3-1.41-2.37-1.33-2.42-1.22-2.47-1.14-2.53-1.03-2.58-0.94-2.63-0.83-2.67-0.74-2.72-0.62-2.75-0.52-2.8-0.41-2.83-0.29-2.87-0.18-2.89-0.06-2.93 0.06-2.93 0.18-2.89 0.29-2.86 0.41-2.84 0.52-2.79 0.62-2.76 0.74-2.71 0.83-2.67 0.94-2.63 1.03-2.58 1.14-2.53 1.22-2.48 1.33-2.42 1.41-2.36 1.5-2.31 1.58-2.24 1.66-2.18 1.75-2.12 1.82-2.04 1.9-1.98 1.97-1.89 2.05-1.83 2.11-1.74 2.18-1.67 2.25-1.58 2.3-1.5 2.37-1.41 2.42-1.32 2.47-1.23 2.53-1.13 2.58-1.03 2.63-0.94 2.67-0.84 2.72-0.73 2.75-0.63 2.8-0.52 2.83-0.4 2.87-0.3 2.89-0.17 2.93-0.06 2.93 0.06 2.89 0.17zm-10.48 14.21l-2.29 0.24-2.26 0.32-2.24 0.41-2.21 0.5-2.17 0.59-2.14 0.67-2.1 0.75-2.06 0.82-2.02 0.92-1.98 0.97-1.94 1.06-1.9 1.13-1.84 1.2-1.8 1.26-1.74 1.34-1.69 1.39-1.63 1.46-1.59 1.52-1.51 1.58-1.46 1.63-1.4 1.69-1.33 1.75-1.27 1.79-1.2 1.85-1.12 1.89-1.06 1.94-0.98 1.98-0.91 2.02-0.83 2.06-0.75 2.11-0.67 2.13-0.58 2.18-0.51 2.2-0.41 2.24-0.32 2.27-0.24 2.28-0.14 2.33-0.05 2.33 0.05 2.34 0.14 2.32 0.24 2.29 0.32 2.26 0.41 2.24 0.51 2.2 0.58 2.18 0.67 2.14 0.75 2.1 0.83 2.06 0.91 2.02 0.98 1.99 1.06 1.93 1.12 1.9 1.2 1.84 1.27 1.8 1.33 1.74 1.4 1.69 1.46 1.63 1.51 1.59 1.59 1.51 1.63 1.46 1.69 1.4 1.74 1.33 1.8 1.27 1.84 1.2 1.9 1.12 1.94 1.06 1.98 0.98 2.02 0.91 2.06 0.83 2.1 0.75 2.14 0.67 2.17 0.58 2.21 0.51 2.24 0.41 2.26 0.32 2.29 0.24 2.32 0.14 2.34 0.05 2.33-0.05 2.33-0.14 2.28-0.24 2.27-0.32 2.24-0.41 2.21-0.51 2.16-0.58 2.15-0.67 2.1-0.75 2.06-0.83 2.02-0.91 1.98-0.98 1.94-1.06 1.89-1.12 1.85-1.2 1.79-1.27 1.74-1.33 1.7-1.4 1.63-1.46 1.58-1.51 1.52-1.59 1.46-1.63 1.4-1.69 1.33-1.74 1.27-1.8 1.19-1.84 1.13-1.9 1.06-1.93 0.98-1.99 0.91-2.02 0.82-2.06 0.75-2.1 0.67-2.14 0.59-2.18 0.5-2.2 0.41-2.24 0.33-2.26 0.23-2.29 0.14-2.32 0.05-2.34-0.05-2.33-0.14-2.33-0.23-2.28-0.33-2.27-0.41-2.24-0.5-2.2-0.59-2.18-0.67-2.13-0.75-2.11-0.82-2.06-0.91-2.02-0.98-1.98-1.06-1.94-1.13-1.89-1.19-1.85-1.27-1.79-1.33-1.75-1.4-1.69-1.46-1.63-1.52-1.58-1.58-1.52-1.63-1.46-1.69-1.39-1.75-1.34-1.79-1.26-1.85-1.2-1.89-1.13-1.94-1.06-1.98-0.97-2.02-0.92-2.06-0.82-2.1-0.75-2.15-0.67-2.16-0.59-2.21-0.5-2.24-0.41-2.27-0.32-2.28-0.24-2.33-0.14-2.33-0.05-2.34 0.05-2.32 0.14z"/>
<path id="s" d="m432.05 204.71c0 27.12 21.99 49.1 49.1 49.1 27.12 0 49.1-21.98 49.1-49.1 0-27.11-21.98-49.1-49.1-49.1-27.11 0-49.1 21.99-49.1 49.1z"/>
<path id="af" d="m432.05 204.71c0 27.12 21.99 49.1 49.1 49.1 27.12 0 49.1-21.98 49.1-49.1 0-27.11-21.98-49.1-49.1-49.1-27.11 0-49.1 21.99-49.1 49.1z"/>
<path id="bb" d="m236.43 204.71c0 35.41 28.7 64.12 64.12 64.12 35.41 0 64.12-28.71 64.12-64.12s-28.71-64.12-64.12-64.12c-35.42 0-64.12 28.71-64.12 64.12z"/>
<path id="ai" d="m306.37 133.7l2.86 0.3 2.83 0.4 2.8 0.52 2.76 0.63 2.71 0.73 2.67 0.84 2.63 0.94 2.58 1.03 2.53 1.13 2.47 1.23 2.43 1.32 2.36 1.41 2.31 1.5 2.24 1.58 2.18 1.67 2.12 1.74 2.04 1.83 1.97 1.89 1.9 1.98 1.83 2.04 1.74 2.12 1.67 2.18 1.58 2.24 1.5 2.31 1.41 2.36 1.32 2.42 1.23 2.48 1.13 2.53 1.03 2.58 0.95 2.63 0.83 2.67 0.73 2.71 0.63 2.76 0.51 2.79 0.41 2.84 0.3 2.86 0.18 2.89 0.05 2.93-0.05 2.93-0.18 2.89-0.3 2.87-0.41 2.83-0.51 2.8-0.63 2.75-0.73 2.72-0.83 2.67-0.95 2.63-1.03 2.58-1.13 2.53-1.23 2.47-1.32 2.42-1.41 2.37-1.5 2.3-1.58 2.25-1.67 2.18-1.74 2.11-1.83 2.05-1.9 1.97-1.97 1.9-2.04 1.82-2.12 1.75-2.18 1.66-2.24 1.59-2.31 1.49-2.36 1.41-2.43 1.33-2.47 1.22-2.53 1.14-2.58 1.03-2.63 0.94-2.67 0.83-2.71 0.74-2.76 0.62-2.8 0.52-2.83 0.41-2.86 0.29-2.89 0.18-2.93 0.06-2.93-0.06-2.89-0.18-2.87-0.29-2.83-0.41-2.79-0.52-2.76-0.62-2.72-0.74-2.67-0.83-2.63-0.94-2.58-1.03-2.52-1.14-2.48-1.22-2.42-1.33-2.36-1.41-2.31-1.49-2.25-1.59-2.18-1.66-2.11-1.75-2.05-1.82-1.97-1.9-1.9-1.97-1.82-2.05-1.75-2.11-1.66-2.18-1.58-2.25-1.5-2.3-1.41-2.37-1.33-2.42-1.22-2.47-1.13-2.53-1.04-2.58-0.94-2.63-0.83-2.67-0.73-2.72-0.63-2.75-0.52-2.8-0.41-2.83-0.29-2.87-0.18-2.89-0.06-2.93 0.06-2.93 0.18-2.89 0.29-2.86 0.41-2.84 0.52-2.79 0.63-2.76 0.73-2.71 0.83-2.67 0.94-2.63 1.04-2.58 1.13-2.53 1.22-2.48 1.33-2.42 1.41-2.36 1.5-2.31 1.58-2.24 1.66-2.18 1.75-2.12 1.82-2.04 1.9-1.98 1.97-1.89 2.05-1.83 2.11-1.74 2.18-1.67 2.25-1.58 2.31-1.5 2.36-1.41 2.42-1.32 2.48-1.23 2.52-1.13 2.58-1.03 2.63-0.94 2.67-0.84 2.72-0.73 2.76-0.63 2.79-0.52 2.83-0.4 2.87-0.3 2.89-0.17 2.93-0.06 2.93 0.06 2.89 0.17zm-10.48 14.21l-2.29 0.24-2.26 0.32-2.24 0.41-2.21 0.5-2.16 0.59-2.15 0.67-2.1 0.75-2.06 0.82-2.02 0.92-1.98 0.97-1.94 1.06-1.9 1.13-1.84 1.2-1.8 1.26-1.74 1.34-1.69 1.39-1.63 1.46-1.58 1.52-1.52 1.58-1.46 1.63-1.4 1.69-1.33 1.75-1.27 1.79-1.2 1.85-1.12 1.89-1.06 1.94-0.98 1.98-0.91 2.02-0.83 2.06-0.75 2.11-0.67 2.13-0.58 2.18-0.51 2.2-0.41 2.24-0.32 2.27-0.23 2.28-0.15 2.33-0.05 2.33 0.05 2.34 0.15 2.32 0.23 2.29 0.32 2.26 0.41 2.24 0.51 2.2 0.58 2.18 0.67 2.14 0.75 2.1 0.83 2.06 0.91 2.02 0.98 1.99 1.06 1.93 1.12 1.9 1.2 1.84 1.27 1.8 1.33 1.74 1.4 1.69 1.46 1.63 1.52 1.59 1.58 1.51 1.63 1.46 1.69 1.4 1.74 1.33 1.8 1.27 1.84 1.2 1.9 1.12 1.94 1.06 1.98 0.98 2.02 0.91 2.06 0.83 2.1 0.75 2.15 0.67 2.16 0.58 2.21 0.51 2.24 0.41 2.26 0.32 2.29 0.24 2.32 0.14 2.34 0.05 2.34-0.05 2.32-0.14 2.29-0.24 2.26-0.32 2.24-0.41 2.21-0.51 2.16-0.58 2.15-0.67 2.1-0.75 2.06-0.83 2.02-0.91 1.98-0.98 1.94-1.06 1.89-1.12 1.85-1.2 1.79-1.27 1.74-1.33 1.7-1.4 1.63-1.46 1.58-1.51 1.52-1.59 1.46-1.63 1.4-1.69 1.33-1.74 1.27-1.8 1.19-1.84 1.13-1.9 1.06-1.93 0.98-1.99 0.91-2.02 0.82-2.06 0.75-2.1 0.67-2.14 0.59-2.18 0.5-2.2 0.42-2.24 0.32-2.26 0.23-2.29 0.14-2.32 0.05-2.34-0.05-2.33-0.14-2.33-0.23-2.28-0.32-2.27-0.42-2.24-0.5-2.2-0.59-2.18-0.67-2.13-0.75-2.11-0.82-2.06-0.91-2.02-0.98-1.98-1.06-1.94-1.13-1.89-1.19-1.85-1.27-1.79-1.33-1.75-1.4-1.69-1.46-1.63-1.52-1.58-1.58-1.52-1.63-1.46-1.69-1.39-1.75-1.34-1.79-1.26-1.85-1.2-1.89-1.13-1.94-1.06-1.98-0.97-2.02-0.92-2.06-0.82-2.1-0.75-2.15-0.67-2.16-0.59-2.21-0.5-2.24-0.41-2.26-0.32-2.29-0.24-2.32-0.14-2.34-0.05-2.34 0.05-2.32 0.14z"/>
<path id="ao" d="m236.43 204.71c0 35.41 28.7 64.12 64.12 64.12 35.41 0 64.12-28.71 64.12-64.12s-28.71-64.12-64.12-64.12c-35.42 0-64.12 28.71-64.12 64.12z"/>
<path id="c" d="m306.37 133.7l2.86 0.3 2.83 0.4 2.8 0.52 2.76 0.63 2.71 0.73 2.67 0.84 2.63 0.94 2.58 1.03 2.53 1.13 2.47 1.23 2.43 1.32 2.36 1.41 2.31 1.5 2.24 1.58 2.18 1.67 2.12 1.74 2.04 1.83 1.97 1.89 1.9 1.98 1.83 2.04 1.74 2.12 1.67 2.18 1.58 2.24 1.5 2.31 1.41 2.36 1.32 2.42 1.23 2.48 1.13 2.53 1.03 2.58 0.95 2.63 0.83 2.67 0.73 2.71 0.63 2.76 0.51 2.79 0.41 2.84 0.3 2.86 0.18 2.89 0.05 2.93-0.05 2.93-0.18 2.89-0.3 2.87-0.41 2.83-0.51 2.8-0.63 2.75-0.73 2.72-0.83 2.67-0.95 2.63-1.03 2.58-1.13 2.53-1.23 2.47-1.32 2.42-1.41 2.37-1.5 2.3-1.58 2.25-1.67 2.18-1.74 2.11-1.83 2.05-1.9 1.97-1.97 1.9-2.04 1.82-2.12 1.75-2.18 1.66-2.24 1.59-2.31 1.49-2.36 1.41-2.43 1.33-2.47 1.22-2.53 1.14-2.58 1.03-2.63 0.94-2.67 0.83-2.71 0.74-2.76 0.62-2.8 0.52-2.83 0.41-2.86 0.29-2.89 0.18-2.93 0.06-2.93-0.06-2.89-0.18-2.87-0.29-2.83-0.41-2.79-0.52-2.76-0.62-2.72-0.74-2.67-0.83-2.63-0.94-2.58-1.03-2.52-1.14-2.48-1.22-2.42-1.33-2.36-1.41-2.31-1.49-2.25-1.59-2.18-1.66-2.11-1.75-2.05-1.82-1.97-1.9-1.9-1.97-1.82-2.05-1.75-2.11-1.66-2.18-1.58-2.25-1.5-2.3-1.41-2.37-1.33-2.42-1.22-2.47-1.13-2.53-1.04-2.58-0.94-2.63-0.83-2.67-0.73-2.72-0.63-2.75-0.52-2.8-0.41-2.83-0.29-2.87-0.18-2.89-0.06-2.93 0.06-2.93 0.18-2.89 0.29-2.86 0.41-2.84 0.52-2.79 0.63-2.76 0.73-2.71 0.83-2.67 0.94-2.63 1.04-2.58 1.13-2.53 1.22-2.48 1.33-2.42 1.41-2.36 1.5-2.31 1.58-2.24 1.66-2.18 1.75-2.12 1.82-2.04 1.9-1.98 1.97-1.89 2.05-1.83 2.11-1.74 2.18-1.67 2.25-1.58 2.31-1.5 2.36-1.41 2.42-1.32 2.48-1.23 2.52-1.13 2.58-1.03 2.63-0.94 2.67-0.84 2.72-0.73 2.76-0.63 2.79-0.52 2.83-0.4 2.87-0.3 2.89-0.17 2.93-0.06 2.93 0.06 2.89 0.17zm-10.48 14.21l-2.29 0.24-2.26 0.32-2.24 0.41-2.21 0.5-2.16 0.59-2.15 0.67-2.1 0.75-2.06 0.82-2.02 0.92-1.98 0.97-1.94 1.06-1.9 1.13-1.84 1.2-1.8 1.26-1.74 1.34-1.69 1.39-1.63 1.46-1.58 1.52-1.52 1.58-1.46 1.63-1.4 1.69-1.33 1.75-1.27 1.79-1.2 1.85-1.12 1.89-1.06 1.94-0.98 1.98-0.91 2.02-0.83 2.06-0.75 2.11-0.67 2.13-0.58 2.18-0.51 2.2-0.41 2.24-0.32 2.27-0.23 2.28-0.15 2.33-0.05 2.33 0.05 2.34 0.15 2.32 0.23 2.29 0.32 2.26 0.41 2.24 0.51 2.2 0.58 2.18 0.67 2.14 0.75 2.1 0.83 2.06 0.91 2.02 0.98 1.99 1.06 1.93 1.12 1.9 1.2 1.84 1.27 1.8 1.33 1.74 1.4 1.69 1.46 1.63 1.52 1.59 1.58 1.51 1.63 1.46 1.69 1.4 1.74 1.33 1.8 1.27 1.84 1.2 1.9 1.12 1.94 1.06 1.98 0.98 2.02 0.91 2.06 0.83 2.1 0.75 2.15 0.67 2.16 0.58 2.21 0.51 2.24 0.41 2.26 0.32 2.29 0.24 2.32 0.14 2.34 0.05 2.34-0.05 2.32-0.14 2.29-0.24 2.26-0.32 2.24-0.41 2.21-0.51 2.16-0.58 2.15-0.67 2.1-0.75 2.06-0.83 2.02-0.91 1.98-0.98 1.94-1.06 1.89-1.12 1.85-1.2 1.79-1.27 1.74-1.33 1.7-1.4 1.63-1.46 1.58-1.51 1.52-1.59 1.46-1.63 1.4-1.69 1.33-1.74 1.27-1.8 1.19-1.84 1.13-1.9 1.06-1.93 0.98-1.99 0.91-2.02 0.82-2.06 0.75-2.1 0.67-2.14 0.59-2.18 0.5-2.2 0.42-2.24 0.32-2.26 0.23-2.29 0.14-2.32 0.05-2.34-0.05-2.33-0.14-2.33-0.23-2.28-0.32-2.27-0.42-2.24-0.5-2.2-0.59-2.18-0.67-2.13-0.75-2.11-0.82-2.06-0.91-2.02-0.98-1.98-1.06-1.94-1.13-1.89-1.19-1.85-1.27-1.79-1.33-1.75-1.4-1.69-1.46-1.63-1.52-1.58-1.58-1.52-1.63-1.46-1.69-1.39-1.75-1.34-1.79-1.26-1.85-1.2-1.89-1.13-1.94-1.06-1.98-0.97-2.02-0.92-2.06-0.82-2.1-0.75-2.15-0.67-2.16-0.59-2.21-0.5-2.24-0.41-2.26-0.32-2.29-0.24-2.32-0.14-2.34-0.05-2.34 0.05-2.32 0.14z"/>
<path id="p" d="m250.94 204.71c0 27.12 21.99 49.1 49.1 49.1 27.13 0 49.1-21.98 49.1-49.1 0-27.11-21.97-49.1-49.1-49.1-27.11 0-49.1 21.99-49.1 49.1z"/>
<path id="aq" d="m250.94 204.71c0 27.12 21.99 49.1 49.1 49.1 27.13 0 49.1-21.98 49.1-49.1 0-27.11-21.97-49.1-49.1-49.1-27.11 0-49.1 21.99-49.1 49.1z"/>
<path id="z" d="m59.74 367.77c0 35.41 28.7 64.12 64.12 64.12 35.41 0 64.12-28.71 64.12-64.12s-28.71-64.12-64.12-64.12c-35.42 0-64.12 28.71-64.12 64.12z"/>
<path id="bc" d="m129.68 296.76l2.86 0.3 2.83 0.4 2.8 0.52 2.76 0.63 2.71 0.73 2.67 0.84 2.63 0.94 2.58 1.03 2.53 1.13 2.47 1.23 2.42 1.32 2.37 1.41 2.31 1.5 2.24 1.58 2.18 1.67 2.12 1.75 2.04 1.82 1.97 1.89 1.9 1.98 1.83 2.04 1.74 2.12 1.67 2.18 1.58 2.24 1.5 2.31 1.41 2.36 1.31 2.42 1.24 2.48 1.13 2.53 1.03 2.58 0.94 2.63 0.84 2.67 0.73 2.71 0.63 2.76 0.51 2.79 0.41 2.84 0.3 2.86 0.17 2.9 0.06 2.92-0.06 2.93-0.17 2.89-0.3 2.87-0.41 2.83-0.51 2.8-0.63 2.75-0.73 2.72-0.84 2.67-0.94 2.63-1.03 2.58-1.13 2.53-1.24 2.47-1.31 2.42-1.41 2.37-1.5 2.31-1.58 2.24-1.67 2.18-1.74 2.12-1.83 2.04-1.9 1.97-1.97 1.9-2.04 1.82-2.12 1.75-2.18 1.66-2.24 1.59-2.31 1.49-2.37 1.41-2.42 1.33-2.47 1.22-2.53 1.14-2.58 1.03-2.63 0.94-2.67 0.83-2.71 0.74-2.76 0.62-2.8 0.52-2.83 0.41-2.86 0.29-2.9 0.18-2.92 0.06-2.93-0.06-2.89-0.18-2.87-0.29-2.83-0.41-2.8-0.52-2.75-0.62-2.72-0.74-2.67-0.83-2.63-0.94-2.58-1.03-2.53-1.14-2.48-1.22-2.41-1.33-2.37-1.41-2.3-1.49-2.25-1.59-2.18-1.66-2.11-1.75-2.05-1.82-1.97-1.9-1.9-1.97-1.82-2.04-1.75-2.12-1.66-2.18-1.59-2.24-1.49-2.31-1.41-2.37-1.33-2.42-1.22-2.47-1.14-2.53-1.03-2.58-0.94-2.63-0.83-2.67-0.74-2.72-0.62-2.75-0.52-2.8-0.41-2.83-0.29-2.87-0.18-2.89-0.06-2.93 0.06-2.92 0.18-2.9 0.29-2.86 0.41-2.84 0.52-2.79 0.62-2.76 0.74-2.71 0.83-2.67 0.94-2.63 1.03-2.58 1.14-2.53 1.22-2.48 1.33-2.42 1.41-2.36 1.49-2.31 1.59-2.24 1.66-2.18 1.75-2.12 1.82-2.04 1.9-1.98 1.97-1.89 2.05-1.82 2.11-1.75 2.18-1.67 2.25-1.58 2.3-1.5 2.37-1.41 2.41-1.32 2.48-1.23 2.53-1.13 2.58-1.03 2.63-0.94 2.67-0.84 2.72-0.73 2.75-0.63 2.8-0.52 2.83-0.4 2.87-0.3 2.89-0.17 2.93-0.06 2.92 0.06 2.9 0.17zm-10.48 14.21l-2.29 0.24-2.27 0.32-2.23 0.41-2.21 0.51-2.17 0.58-2.14 0.67-2.1 0.75-2.06 0.82-2.03 0.92-1.98 0.97-1.93 1.06-1.9 1.13-1.84 1.2-1.8 1.26-1.74 1.34-1.69 1.39-1.63 1.46-1.59 1.52-1.51 1.58-1.46 1.63-1.4 1.69-1.33 1.75-1.27 1.79-1.2 1.85-1.12 1.89-1.07 1.94-0.97 1.98-0.91 2.03-0.83 2.05-0.75 2.11-0.67 2.13-0.58 2.18-0.51 2.2-0.41 2.24-0.32 2.27-0.24 2.28-0.14 2.33-0.05 2.33 0.05 2.34 0.14 2.32 0.24 2.29 0.32 2.27 0.41 2.23 0.51 2.2 0.58 2.18 0.67 2.14 0.75 2.1 0.83 2.06 0.91 2.03 0.97 1.98 1.07 1.93 1.12 1.9 1.2 1.84 1.27 1.8 1.33 1.74 1.4 1.69 1.46 1.63 1.51 1.59 1.59 1.51 1.63 1.46 1.69 1.4 1.74 1.33 1.8 1.27 1.84 1.2 1.9 1.12 1.93 1.07 1.98 0.97 2.03 0.91 2.06 0.83 2.1 0.75 2.14 0.67 2.17 0.58 2.21 0.51 2.23 0.41 2.27 0.32 2.29 0.24 2.32 0.14 2.34 0.05 2.33-0.05 2.33-0.14 2.28-0.24 2.27-0.32 2.24-0.41 2.2-0.51 2.17-0.58 2.14-0.67 2.11-0.75 2.06-0.83 2.02-0.91 1.98-0.97 1.94-1.07 1.89-1.12 1.85-1.2 1.79-1.27 1.74-1.33 1.7-1.4 1.63-1.46 1.58-1.51 1.52-1.59 1.46-1.63 1.39-1.69 1.34-1.74 1.26-1.8 1.2-1.84 1.13-1.9 1.06-1.93 0.97-1.98 0.92-2.03 0.82-2.06 0.75-2.1 0.67-2.14 0.58-2.18 0.51-2.2 0.41-2.23 0.32-2.27 0.24-2.29 0.14-2.32 0.05-2.34-0.05-2.33-0.14-2.33-0.24-2.28-0.32-2.27-0.41-2.24-0.51-2.2-0.58-2.18-0.67-2.13-0.75-2.11-0.82-2.05-0.92-2.03-0.97-1.98-1.06-1.94-1.13-1.89-1.2-1.85-1.26-1.79-1.34-1.75-1.39-1.69-1.46-1.63-1.52-1.58-1.58-1.52-1.63-1.46-1.69-1.39-1.75-1.34-1.79-1.26-1.85-1.2-1.89-1.13-1.94-1.06-1.98-0.97-2.02-0.92-2.06-0.82-2.11-0.75-2.14-0.67-2.17-0.58-2.2-0.51-2.24-0.41-2.27-0.32-2.28-0.24-2.33-0.14-2.33-0.05-2.34 0.05-2.32 0.14z"/>
<path id="be" d="m74.25 367.77c0 27.12 21.99 49.11 49.1 49.11 27.12 0 49.1-21.99 49.1-49.11 0-27.11-21.98-49.1-49.1-49.1-27.11 0-49.1 21.99-49.1 49.1z"/>
<path id="ak" d="m303.7 178.16l0.28 0.05 0.14 0.04 0.13 0.03 0.13 0.02 0.14 0.04 0.14 0.03 0.13 0.03 0.14 0.03 0.14 0.03 0.13 0.03 0.14 0.04 0.13 0.02 0.14 0.04 0.13 0.03 0.14 0.03 0.14 0.03 0.13 0.03 0.14 0.04 0.14 0.02 0.13 0.04 0.13 0.03 0.14 0.04 0.13 0.02 0.14 0.03 0.14 0.04 0.13 0.03 0.14 0.03 0.14 0.03 0.12 0.04 0.14 0.03 0.13 0.03 0.14 0.03 0.13 0.04 0.14 0.02 0.13 0.04 0.14 0.04 0.13 0.03 0.13 0.03 0.13 0.03 2.7-10.8 6.76 1.68-2.77 11.1 0.64 0.22 1.24 0.46 0.61 0.25 0.59 0.24 0.59 0.26 0.57 0.26 0.57 0.27 0.54 0.27 0.54 0.28 0.52 0.3 0.51 0.29 0.49 0.31 0.48 0.31 0.46 0.32 0.46 0.34 0.43 0.34 0.41 0.35 0.4 0.36 0.38 0.37 0.36 0.38 0.34 0.39 0.33 0.39 0.3 0.41 0.29 0.42 0.26 0.43 0.24 0.44 0.22 0.46 0.2 0.47 0.18 0.48 0.14 0.49 0.13 0.5 0.11 0.5 0.08 0.53 0.05 0.54 0.03 0.56v0.56l-0.02 0.58-0.05 0.6-0.08 0.61h-0.01l-0.06 0.44-0.08 0.43-0.1 0.43-0.09 0.4-0.11 0.4-0.11 0.39-0.12 0.38-0.14 0.37-0.14 0.35-0.14 0.34-0.16 0.34-0.16 0.33-0.17 0.31-0.18 0.3-0.18 0.29-0.2 0.29-0.2 0.27-0.2 0.26-0.22 0.26-0.22 0.24-0.23 0.24-0.23 0.22-0.24 0.23-0.5 0.4-0.26 0.2-0.53 0.35-0.28 0.16-0.28 0.16-0.28 0.15-0.6 0.27-0.61 0.25-0.31 0.11-0.31 0.1-0.65 0.18-0.32 0.08 0.44 0.24 0.44 0.25 0.43 0.25 0.4 0.25 0.41 0.27 0.39 0.28 0.38 0.29 0.36 0.28 0.35 0.3 0.33 0.3 0.32 0.32 0.31 0.31 0.3 0.33 0.27 0.34 0.26 0.35 0.25 0.36 0.23 0.36 0.22 0.38 0.2 0.37 0.18 0.4 0.17 0.4 0.15 0.41 0.12 0.43 0.12 0.43 0.1 0.45 0.07 0.45 0.06 0.46 0.04 0.48 0.02 0.49v0.5l-0.02 0.51-0.03 0.52-0.07 0.53-0.07 0.56-0.1 0.55-0.12 0.57-0.15 0.58-0.17 0.6-0.18 0.61-0.22 0.62-0.27 0.76-0.31 0.73-0.31 0.69-0.34 0.67-0.35 0.63-0.38 0.59-0.39 0.56-0.41 0.53-0.43 0.5-0.44 0.47-0.46 0.43-0.48 0.42-0.49 0.38-0.51 0.35-0.52 0.32-0.55 0.31-0.55 0.27-0.57 0.24-0.59 0.23-0.6 0.2-0.62 0.17-0.62 0.16-0.65 0.13-0.67 0.11-0.67 0.08-0.68 0.07-0.71 0.04-0.71 0.03-0.73 0.01-0.74-0.01-0.75-0.03-0.76-0.04-0.79-0.06-0.78-0.07-0.8-0.09-0.82-0.11-0.82-0.12-0.84-0.13-0.85-0.15-0.86-0.16-2.79 11.21-6.76-1.68 2.76-11.06-0.13-0.03-0.13-0.04-0.14-0.02-0.12-0.04-0.13-0.03-0.14-0.04-0.13-0.03-0.13-0.03-0.13-0.04-0.14-0.03-0.13-0.03-0.14-0.04-0.13-0.04-0.13-0.02-0.13-0.04-0.13-0.04-0.14-0.03-0.13-0.03-0.14-0.04-0.13-0.04-0.14-0.02-0.14-0.04-0.13-0.04-0.13-0.03-0.13-0.04-0.14-0.03-0.14-0.04-0.13-0.03-0.42-0.11-0.13-0.04-1.1-0.3-2.77 11.11-6.75-1.68 2.8-11.23-13.61-3.43 3.36-7.75 0.08 0.02 0.06 0.02 0.07 0.02 0.09 0.02 0.1 0.03 0.11 0.03 0.12 0.03 0.14 0.04 0.15 0.03 0.15 0.05 0.17 0.04 0.33 0.09 0.17 0.05 0.19 0.04 0.17 0.05 0.19 0.05 0.19 0.04 0.19 0.06 0.18 0.04 0.18 0.05 0.18 0.05 0.18 0.04 0.16 0.04 0.17 0.04 0.16 0.04 0.29 0.08 0.13 0.02 0.12 0.03 0.11 0.03 0.1 0.02 0.09 0.02 0.06 0.01 0.06 0.01 0.04 0.01h0.02l0.01-0.01 0.14 0.04 0.14 0.02 0.13 0.03 0.26 0.01h0.24l0.22-0.01 0.11-0.02 0.1-0.02 0.2-0.06 0.1-0.02 0.09-0.04 0.08-0.05 0.09-0.03 0.08-0.06 0.08-0.05 0.08-0.05 0.07-0.05 0.07-0.06 0.07-0.06 0.18-0.18 0.06-0.07 0.04-0.06 0.06-0.08 0.09-0.12 0.05-0.08 0.04-0.06 0.03-0.08 0.11-0.19 0.09-0.19 7.57-30.41 0.01-0.11v-0.33l-0.01-0.11v-0.11l-0.02-0.12-0.01-0.11-0.02-0.11-0.01-0.12-0.03-0.11-0.03-0.12-0.11-0.34-0.05-0.12-0.11-0.22-0.06-0.11-0.07-0.1-0.06-0.11-0.17-0.2-0.08-0.11-0.19-0.2-0.11-0.09-0.12-0.09-0.11-0.1-0.13-0.09-0.13-0.08-0.13-0.08-0.15-0.08-0.32-0.15-0.17-0.07-0.18-0.06-0.18-0.06-0.2-0.06-0.2-0.05v-0.01l-0.05-0.03-0.06-0.02-0.06-0.01-0.09-0.03-0.2-0.06-0.12-0.03-0.14-0.03-0.14-0.04-0.15-0.04-0.15-0.04-0.17-0.04-0.17-0.05-0.18-0.03-0.18-0.05-0.37-0.09-0.18-0.04-0.55-0.14-0.18-0.03-0.18-0.05-0.5-0.11-0.3-0.07-0.14-0.03-0.12-0.04-0.12-0.02-0.1-0.03-0.08-0.01-0.08-0.02-0.06-0.02-0.05-0.01-0.03-0.01 1.8-7.21 13.62 3.38 2.76-11.1 6.76 1.68-2.72 10.89zm-9.38 43.45l1.5 0.39 1.72 0.42 1.88 0.42 1.98 0.35 2.03 0.25 2.01 0.1 1.94-0.09 1.81-0.33 1.61-0.6 1.36-0.93 1.06-1.3 0.69-1.71 0.21-1.91-0.3-1.69-0.77-1.49-1.14-1.3-1.44-1.13-1.67-0.98-1.83-0.83-1.92-0.7-1.92-0.59-1.86-0.5-1.72-0.41-1.5-0.34-1.23-0.29-3.71 14.87 1.21 0.32zm5.43-21.67l1.53 0.4 1.77 0.42 1.93 0.36 2 0.25 1.99 0.07 1.9-0.17 1.74-0.48 1.48-0.87 1.16-1.29 0.75-1.81 0.2-2.03-0.4-1.73-0.9-1.49-1.31-1.24-1.59-1.04-1.81-0.85-1.88-0.69-1.87-0.55-1.77-0.44-1.55-0.35-1.24-0.28-3.36 13.48 1.23 0.33z"/>
<path id="aw" d="m502.09 236.02c-6.14 3.25-12.72 4.91-19.74 4.91-20.99 0-36.61-13.97-36.61-36.18 0.35-22.28 16.42-36.25 36.96-36.25 7.38 0 12.74 1.66 18.53 4.56-0.67 1.11-5.93 10.02-6.59 11.13-3.25-1.22-7.02-2.02-10.7-2.02-12.37 0-22.21 7.81-22.21 22.66 0 13.88 9.47 22.49 22.64 22.49 3.68 0 7.38-0.79 10.7-2.02 0.71 1.08 6.32 9.64 7.02 10.72z"/>
<path id="ar" d="m122.16 349.93l13.96 13.96 8.11-8.11-22.07-22.08-22.06 22.07 8.11 8.11 13.95-13.95z"/>
<path id="ab" d="m94.37 361.49l8.12 8.11-8.12 8.12-8.11-8.12 8.11-8.11z"/>
<path id="ap" d="m122.16 389.29l13.96-13.96 8.12 8.11-0.01 0.01-22.07 22.07-22.06-22.07-0.02-0.01 8.13-8.1 13.95 13.95z"/>
<path id="bd" d="m149.96 361.49l8.11 8.12-8.11 8.11-8.12-8.11 8.12-8.12z"/>
<path id="am" d="m130.39 369.6l-8.23-8.23-6.09 6.08-0.7 0.7-1.44 1.44-0.01 0.02 0.01 0.01 8.23 8.23 8.23-8.24h0.01l-0.01-0.01z"/>
</defs>
<use fill="#43437d" xlink:href="#ae"/>
<use fill-opacity="0" stroke="#000000" stroke-opacity="0" xlink:href="#ae"/>
<use fill="#5050b9" xlink:href="#r"/>
<use fill-opacity="0" stroke="#000000" stroke-opacity="0" xlink:href="#r"/>
<use fill="#43437d" xlink:href="#bf"/>
<use fill-opacity="0" stroke="#000000" stroke-opacity="0" xlink:href="#bf"/>
<use fill="#000000" xlink:href="#x"/>
<use fill-opacity="0" stroke="#000000" stroke-opacity="0" xlink:href="#x"/>
<use fill="#000000" xlink:href="#j"/>
<use fill-opacity="0" stroke="#000000" stroke-opacity="0" xlink:href="#j"/>
<use fill="#231f20" xlink:href="#ad"/>
<use fill-opacity="0" stroke="#000000" stroke-opacity="0" xlink:href="#ad"/>
<use fill="#ffffff" xlink:href="#f"/>
<use fill-opacity="0" stroke="#000000" stroke-opacity="0" xlink:href="#f"/>
<use fill="#244d89" xlink:href="#g"/>
<use fill-opacity="0" stroke="#000000" stroke-opacity="0" xlink:href="#g"/>
<use fill="#000000" fill-opacity="0" xlink:href="#ba"/>
<use fill-opacity="0" stroke="#000000" stroke-opacity="0" xlink:href="#ba"/>
<use fill="#3fc2f0" xlink:href="#aj"/>
<use fill-opacity="0" stroke="#000000" stroke-opacity="0" xlink:href="#aj"/>
<use fill="#000000" fill-opacity="0" xlink:href="#a"/>
<use fill-opacity="0" stroke="#000000" stroke-opacity="0" xlink:href="#a"/>
<use fill="#2c84bd" xlink:href="#i"/>
<use fill-opacity="0" stroke="#000000" stroke-opacity="0" xlink:href="#i"/>
<use fill="#000000" fill-opacity="0" xlink:href="#ax"/>
<use fill-opacity="0" stroke="#000000" stroke-opacity="0" xlink:href="#ax"/>
<use fill="#38589a" xlink:href="#at"/>
<use fill-opacity="0" stroke="#000000" stroke-opacity="0" xlink:href="#at"/>
<use fill="#000000" fill-opacity="0" xlink:href="#v"/>
<use fill-opacity="0" stroke="#000000" stroke-opacity="0" xlink:href="#v"/>
<use fill="#244d89" xlink:href="#an"/>
<use fill-opacity="0" stroke="#000000" stroke-opacity="0" xlink:href="#an"/>
<use fill="#000000" fill-opacity="0" xlink:href="#e"/>
<use fill-opacity="0" stroke="#000000" stroke-opacity="0" xlink:href="#e"/>
<use fill="#3fc2f0" xlink:href="#m"/>
<use fill-opacity="0" stroke="#000000" stroke-opacity="0" xlink:href="#m"/>
<use fill="#000000" fill-opacity="0" xlink:href="#q"/>
<use fill-opacity="0" stroke="#000000" stroke-opacity="0" xlink:href="#q"/>
<use fill="#2c84bd" xlink:href="#u"/>
<use fill-opacity="0" stroke="#000000" stroke-opacity="0" xlink:href="#u"/>
<use fill="#000000" fill-opacity="0" xlink:href="#y"/>
<use fill-opacity="0" stroke="#000000" stroke-opacity="0" xlink:href="#y"/>
<use fill="#000000" fill-opacity="0" xlink:href="#ag"/>
<use fill-opacity="0" stroke="#000000" stroke-width="15" xlink:href="#ag"/>
<use fill="#e35f9b" xlink:href="#h"/>
<use fill-opacity="0" stroke="#000000" stroke-opacity="0" xlink:href="#h"/>
<use fill="#000000" xlink:href="#t"/>
<use fill-opacity="0" stroke="#000000" stroke-opacity="0" xlink:href="#t"/>
<use fill="#000000" fill-opacity="0" xlink:href="#n"/>
<use fill-opacity="0" stroke="#000000" stroke-opacity="0" xlink:href="#n"/>
<use fill="#ffffff" xlink:href="#k"/>
<use fill-opacity="0" stroke="#000000" stroke-opacity="0" xlink:href="#k"/>
<use fill="#343434" xlink:href="#az"/>
<use fill-opacity="0" stroke="#000000" stroke-opacity="0" xlink:href="#az"/>
<use fill="#000000" fill-opacity="0" xlink:href="#b"/>
<use fill-opacity="0" stroke="#000000" stroke-opacity="0" xlink:href="#b"/>
<use fill="#8c8c8c" xlink:href="#au"/>
<use fill-opacity="0" stroke="#000000" stroke-opacity="0" xlink:href="#au"/>
<use fill="#000000" fill-opacity="0" xlink:href="#bg"/>
<use fill-opacity="0" stroke="#000000" stroke-opacity="0" xlink:href="#bg"/>
<use fill="#3c3c3b" xlink:href="#l"/>
<use fill-opacity="0" stroke="#000000" stroke-opacity="0" xlink:href="#l"/>
<use fill="#000000" fill-opacity="0" xlink:href="#av"/>
<use fill-opacity="0" stroke="#000000" stroke-opacity="0" xlink:href="#av"/>
<use fill="#8c8c8c" xlink:href="#d"/>
<use fill-opacity="0" stroke="#000000" stroke-opacity="0" xlink:href="#d"/>
<use fill="#000000" fill-opacity="0" xlink:href="#o"/>
<use fill-opacity="0" stroke="#000000" stroke-opacity="0" xlink:href="#o"/>
<use fill="#141414" xlink:href="#aa"/>
<use fill-opacity="0" stroke="#000000" stroke-opacity="0" xlink:href="#aa"/>
<use fill="#000000" fill-opacity="0" xlink:href="#w"/>
<use fill-opacity="0" stroke="#000000" stroke-opacity="0" xlink:href="#w"/>
<use fill="#393939" xlink:href="#as"/>
<use fill-opacity="0" stroke="#000000" stroke-opacity="0" xlink:href="#as"/>
<use fill="#000000" fill-opacity="0" xlink:href="#ah"/>
<use fill-opacity="0" stroke="#000000" stroke-opacity="0" xlink:href="#ah"/>
<use fill="#a115a1" xlink:href="#ay"/>
<use fill-opacity="0" stroke="#000000" stroke-opacity="0" xlink:href="#ay"/>
<use fill="#000000" xlink:href="#al"/>
<use fill-opacity="0" stroke="#000000" stroke-opacity="0" xlink:href="#al"/>
<use fill="#000000" fill-opacity="0" xlink:href="#ac"/>
<use fill-opacity="0" stroke="#000000" stroke-opacity="0" xlink:href="#ac"/>
<use fill="#000000" fill-opacity="0" xlink:href="#s"/>
<use fill-opacity="0" stroke="#000000" stroke-opacity="0" xlink:href="#s"/>
<use fill="#ffffff" xlink:href="#af"/>
<use fill-opacity="0" stroke="#000000" stroke-opacity="0" xlink:href="#af"/>
<use fill="#5050b9" xlink:href="#bb"/>
<use fill-opacity="0" stroke="#000000" stroke-opacity="0" xlink:href="#bb"/>
<use fill="#000000" xlink:href="#ai"/>
<use fill-opacity="0" stroke="#000000" stroke-opacity="0" xlink:href="#ai"/>
<use fill="#000000" fill-opacity="0" xlink:href="#ao"/>
<use fill-opacity="0" stroke="#000000" stroke-opacity="0" xlink:href="#ao"/>
<use fill="#000000" fill-opacity="0" xlink:href="#c"/>
<use fill-opacity="0" stroke="#000000" stroke-opacity="0" xlink:href="#c"/>
<use fill="#000000" fill-opacity="0" xlink:href="#p"/>
<use fill-opacity="0" stroke="#000000" stroke-opacity="0" xlink:href="#p"/>
<use fill="#ffffff" xlink:href="#aq"/>
<use fill-opacity="0" stroke="#000000" stroke-opacity="0" xlink:href="#aq"/>
<use fill="#45b2e0" xlink:href="#z"/>
<use fill-opacity="0" stroke="#000000" stroke-opacity="0" xlink:href="#z"/>
<use fill="#000000" xlink:href="#bc"/>
<use fill-opacity="0" stroke="#000000" stroke-opacity="0" xlink:href="#bc"/>
<use fill="#ffffff" xlink:href="#be"/>
<use fill-opacity="0" stroke="#000000" stroke-opacity="0" xlink:href="#be"/>
<use fill="#f7931a" xlink:href="#ak"/>
<use fill-opacity="0" stroke="#000000" stroke-opacity="0" xlink:href="#ak"/>
<use fill="#0667d0" xlink:href="#aw"/>
<use fill-opacity="0" stroke="#000000" stroke-opacity="0" xlink:href="#aw"/>
<use fill="#f3ba2f" xlink:href="#ar"/>
<use fill-opacity="0" stroke="#000000" stroke-opacity="0" xlink:href="#ar"/>
<use fill="#f3ba2f" xlink:href="#ab"/>
<use fill-opacity="0" stroke="#000000" stroke-opacity="0" xlink:href="#ab"/>
<use fill="#f3ba2f" xlink:href="#ap"/>
<use fill-opacity="0" stroke="#000000" stroke-opacity="0" xlink:href="#ap"/>
<use fill="#f3ba2f" xlink:href="#bd"/>
<use fill-opacity="0" stroke="#000000" stroke-opacity="0" xlink:href="#bd"/>
<use fill="#f3ba2f" xlink:href="#am"/>
<use fill-opacity="0" stroke="#000000" stroke-opacity="0" xlink:href="#am"/>
</svg>
