<?xml version="1.0" encoding="UTF-8" standalone="no"?>
<!DOCTYPE svg PUBLIC "-//W3C//DTD SVG 1.1//EN" "http://www.w3.org/Graphics/SVG/1.1/DTD/svg11.dtd">
<svg version="1.1" xmlns="http://www.w3.org/2000/svg" xmlns:xlink="http://www.w3.org/1999/xlink" preserveAspectRatio="xMidYMid meet" viewBox="0 0 640 640" width="640" height="640"><defs><path d="M335.62 83.28L628.04 33.35L428.34 140.34L357.02 225.92L335.62 83.28Z" id="bBbTs0EId"></path><path d="M357.02 225.92L628.04 33.35L371.28 118.94L357.02 225.92Z" id="c2c2oYmYcw"></path><path d="M513.93 197.39L628.04 33.35L371.28 118.94L513.93 197.39Z" id="b49zSodMX"></path><path d="M242.9 33.35L628.04 33.35L335.62 83.28L242.9 33.35Z" id="b86Yiuxq2S"></path><path d="M628.71 26.71L629.06 26.75L629.4 26.82L629.74 26.9L630.07 27L630.39 27.11L630.7 27.25L631 27.39L631.3 27.55L631.58 27.73L631.86 27.92L632.12 28.12L632.37 28.33L632.62 28.55L632.85 28.79L633.07 29.04L633.28 29.29L633.47 29.56L633.66 29.83L633.82 30.11L633.98 30.41L634.12 30.7L634.25 31.01L634.36 31.32L634.46 31.63L634.54 31.95L634.61 32.28L634.66 32.61L634.69 32.94L634.71 33.27L634.71 33.61L634.69 33.95L634.66 34.28L634.6 34.62L634.53 34.96L634.43 35.3L634.32 35.64L634.19 35.97L634.04 36.3L634.03 36.32L634.02 36.35L634 36.37L633.99 36.39L633.98 36.41L633.97 36.44L633.96 36.46L633.95 36.48L633.93 36.5L633.92 36.53L633.91 36.55L633.9 36.57L633.89 36.59L633.87 36.61L633.86 36.64L633.85 36.66L633.84 36.68L633.83 36.7L633.81 36.72L633.8 36.75L633.79 36.77L633.77 36.79L633.76 36.81L633.75 36.83L633.74 36.85L633.72 36.88L633.71 36.9L633.7 36.92L633.68 36.94L633.67 36.96L633.66 36.98L633.64 37L633.63 37.03L633.62 37.05L633.6 37.07L633.59 37.09L633.57 37.11L633.56 37.13L633.55 37.15L633.53 37.17L603.31 80.61L603.15 80.84L602.98 81.05L602.8 81.26L602.61 81.46L602.42 81.65L602.22 81.83L602.01 82.01L601.8 82.17L601.58 82.32L601.36 82.47L601.13 82.6L600.9 82.73L600.67 82.84L600.43 82.95L600.18 83.05L599.94 83.14L599.69 83.21L599.44 83.28L599.18 83.34L598.93 83.39L598.67 83.43L598.41 83.45L598.15 83.47L597.89 83.48L597.63 83.48L597.37 83.46L597.1 83.44L596.84 83.41L596.58 83.36L596.32 83.31L596.07 83.25L595.81 83.17L595.56 83.09L595.31 82.99L595.06 82.88L594.81 82.76L594.57 82.63L594.33 82.49L594.1 82.34L593.87 82.18L593.65 82.02L593.44 81.84L593.24 81.66L593.05 81.47L592.87 81.27L592.7 81.07L592.54 80.87L592.38 80.65L592.24 80.43L592.11 80.21L591.98 79.98L591.87 79.75L591.76 79.51L591.66 79.27L591.58 79.03L591.5 78.78L591.43 78.53L591.37 78.28L591.33 78.02L591.29 77.77L591.26 77.51L591.24 77.25L591.23 76.99L591.22 76.73L591.23 76.47L591.25 76.21L591.28 75.94L591.31 75.68L591.36 75.42L591.42 75.17L591.48 74.91L591.56 74.65L591.64 74.4L591.74 74.15L591.84 73.9L591.96 73.66L592.08 73.42L592.21 73.18L592.36 72.95L592.51 72.72L611 46.14L611 46.14L611 46.14L611 46.13L611 46.13L611 46.12L611 46.12L611 46.11L611 46.11L610.99 46.1L610.99 46.1L610.99 46.1L610.98 46.1L610.98 46.09L610.98 46.09L610.97 46.09L610.97 46.09L610.96 46.1L387.97 120.43L387.97 120.43L387.96 120.43L387.96 120.43L387.96 120.43L387.95 120.44L387.95 120.44L387.95 120.45L387.95 120.45L387.95 120.45L387.95 120.46L387.95 120.47L387.95 120.47L387.95 120.47L387.95 120.48L387.96 120.48L387.96 120.48L387.96 120.48L387.96 120.48L387.97 120.49L511.85 188.62L511.85 188.62L511.86 188.62L511.86 188.62L511.87 188.62L511.87 188.62L511.88 188.62L511.88 188.62L511.88 188.62L511.89 188.62L511.89 188.61L511.89 188.61L573.75 99.68L573.91 99.46L574.08 99.25L574.26 99.04L574.44 98.84L574.63 98.65L574.83 98.47L575.03 98.3L575.24 98.14L575.45 97.99L575.67 97.85L575.89 97.71L576.12 97.59L576.35 97.47L576.59 97.36L576.83 97.27L577.07 97.18L577.31 97.1L577.56 97.03L577.81 96.97L578.06 96.92L578.31 96.88L578.57 96.85L578.82 96.83L579.08 96.82L579.34 96.81L579.6 96.82L579.85 96.84L580.11 96.87L580.37 96.91L580.62 96.96L580.88 97.02L581.13 97.08L581.38 97.16L581.63 97.25L581.88 97.35L582.12 97.46L582.36 97.59L582.6 97.72L582.83 97.86L583.06 98.01L583.28 98.17L583.5 98.34L583.7 98.52L583.9 98.7L584.09 98.89L584.27 99.09L584.44 99.29L584.6 99.5L584.75 99.71L584.9 99.93L585.03 100.15L585.16 100.38L585.27 100.61L585.38 100.85L585.48 101.08L585.57 101.33L585.64 101.57L585.71 101.82L585.77 102.07L585.82 102.32L585.86 102.57L585.89 102.83L585.92 103.08L585.93 103.34L585.93 103.6L585.92 103.86L585.9 104.11L585.87 104.37L585.83 104.63L585.79 104.88L585.73 105.14L585.66 105.39L585.58 105.64L585.49 105.89L585.39 106.14L585.28 106.38L585.16 106.62L585.03 106.86L584.88 107.09L584.73 107.32L519.41 201.21L519.27 201.42L519.11 201.61L518.95 201.8L518.78 201.99L518.61 202.16L518.43 202.33L518.24 202.49L518.05 202.65L517.86 202.79L517.66 202.93L517.45 203.06L517.24 203.18L517.03 203.3L516.81 203.41L516.59 203.51L516.37 203.6L516.14 203.68L515.91 203.76L515.68 203.82L515.45 203.88L515.21 203.93L514.97 203.98L514.73 204.01L514.49 204.04L514.25 204.05L514.01 204.06L513.77 204.06L513.53 204.05L513.28 204.04L513.04 204.01L512.8 203.98L512.56 203.93L512.32 203.88L512.09 203.82L511.85 203.75L511.62 203.67L511.38 203.58L511.15 203.48L510.93 203.37L510.7 203.25L448.58 169.09L448.58 169.09L448.58 169.08L448.57 169.08L448.56 169.08L448.56 169.08L448.55 169.09L448.55 169.09L360.89 231.37L360.59 231.58L360.28 231.76L359.96 231.92L359.64 232.07L359.32 232.2L358.99 232.3L358.66 232.39L358.33 232.47L358 232.52L357.67 232.56L357.33 232.57L357 232.58L356.67 232.56L356.34 232.53L356.01 232.49L355.68 232.42L355.36 232.34L355.04 232.25L354.73 232.14L354.43 232.02L354.12 231.88L353.83 231.73L353.54 231.57L353.26 231.39L352.99 231.2L352.73 230.99L352.48 230.77L352.24 230.54L352.01 230.3L351.79 230.05L351.59 229.78L351.4 229.51L351.22 229.22L351.05 228.92L350.91 228.61L350.77 228.29L350.65 227.96L350.55 227.62L350.47 227.27L350.4 226.92L329.51 87.6L329.5 87.59L329.5 87.59L329.5 87.59L329.5 87.58L329.5 87.58L329.49 87.58L329.49 87.57L329.49 87.57L239.73 39.24L239.47 39.09L239.22 38.93L238.98 38.77L238.74 38.59L238.52 38.4L238.3 38.2L238.1 37.99L237.9 37.78L237.71 37.56L237.54 37.33L237.37 37.09L237.22 36.85L237.07 36.6L236.94 36.34L236.81 36.08L236.7 35.82L236.6 35.55L236.51 35.27L236.43 34.99L236.37 34.71L236.31 34.43L236.27 34.14L236.24 33.85L236.23 33.56L236.22 33.27L236.23 32.98L236.25 32.69L236.29 32.39L236.33 32.1L236.4 31.81L236.47 31.52L236.56 31.23L236.66 30.95L236.78 30.66L236.91 30.38L237.06 30.11L237.22 29.83L237.4 29.56L237.59 29.3L237.8 29.04L237.9 28.92L238 28.81L238.1 28.7L238.21 28.59L238.32 28.49L238.43 28.39L238.55 28.29L238.66 28.19L238.78 28.1L238.9 28.01L239.02 27.92L239.15 27.84L239.28 27.76L239.4 27.68L239.53 27.6L239.66 27.53L239.8 27.46L239.93 27.39L240.07 27.33L240.21 27.27L240.34 27.21L240.48 27.15L240.63 27.1L240.77 27.05L240.91 27.01L241.06 26.96L241.2 26.92L241.35 26.88L241.5 26.85L241.65 26.82L241.8 26.79L241.95 26.76L242.1 26.74L242.25 26.72L242.4 26.7L242.55 26.69L242.7 26.68L242.86 26.67L243.01 26.67L243.16 26.67L627.99 26.67L628.35 26.68L628.71 26.71ZM376.64 129.53L376.63 129.53L376.63 129.53L376.63 129.53L376.62 129.53L376.62 129.54L376.61 129.54L376.61 129.54L376.61 129.54L376.61 129.55L376.61 129.55L365.69 211.49L365.69 211.5L365.69 211.5L365.69 211.51L365.69 211.51L365.69 211.51L365.69 211.52L365.69 211.52L365.7 211.52L365.7 211.52L365.7 211.53L365.71 211.53L365.71 211.53L365.71 211.53L365.72 211.53L365.73 211.53L365.73 211.53L365.73 211.53L365.74 211.52L435.51 161.95L435.51 161.95L435.51 161.95L435.52 161.94L435.52 161.94L435.52 161.93L435.52 161.93L435.52 161.93L435.52 161.92L435.52 161.92L435.52 161.91L435.52 161.91L435.52 161.9L435.51 161.9L435.51 161.9L435.51 161.9L435.51 161.89L376.66 129.53L376.66 129.53L376.65 129.53L376.65 129.53L376.65 129.53L376.64 129.53L376.64 129.53ZM542.56 54.73L343.24 88.76L343.23 88.76L343.23 88.76L343.23 88.76L343.22 88.77L343.22 88.77L343.21 88.77L343.21 88.78L343.21 88.78L343.21 88.79L343.21 88.79L343.21 88.8L356.59 178.03L356.59 178.03L356.59 178.03L356.6 178.04L356.6 178.04L356.6 178.04L356.6 178.05L356.61 178.05L356.61 178.05L356.61 178.05L356.62 178.05L356.62 178.05L356.62 178.05L356.63 178.05L356.63 178.05L356.64 178.05L356.64 178.05L356.64 178.05L356.64 178.05L356.65 178.04L356.65 178.04L356.65 178.04L356.65 178.03L356.66 178.03L356.66 178.02L364.65 118.06L364.67 117.93L364.7 117.8L364.72 117.68L364.76 117.55L364.8 117.42L364.84 117.3L364.89 117.17L364.94 117.04L365 116.91L365.06 116.78L365.13 116.65L365.2 116.51L365.28 116.38L365.36 116.25L365.44 116.12L365.53 115.98L365.63 115.85L365.73 115.71L365.84 115.58L365.95 115.44L366.06 115.3L366.18 115.17L366.31 115.03L366.44 114.89L366.57 114.75L366.71 114.61L366.86 114.47L367 114.33L367.16 114.19L367.32 114.05L367.48 113.9L367.65 113.76L367.82 113.62L368 113.47L368.18 113.33L368.37 113.18L368.56 113.04L368.76 112.89L368.96 112.74L369.17 112.6L542.57 54.79L542.58 54.79L542.58 54.79L542.58 54.79L542.58 54.79L542.59 54.79L542.59 54.79L542.59 54.78L542.59 54.78L542.59 54.78L542.59 54.78L542.59 54.77L542.6 54.77L542.6 54.76L542.59 54.76L542.59 54.76L542.59 54.75L542.59 54.75L542.59 54.74L542.59 54.74L542.58 54.74L542.58 54.74L542.58 54.73L542.57 54.73L542.57 54.73L542.57 54.73L542.56 54.73L542.56 54.73ZM269.55 40.04L269.54 40.04L269.54 40.04L269.53 40.04L269.53 40.04L269.53 40.05L269.53 40.05L269.53 40.05L269.52 40.05L269.52 40.05L269.52 40.06L269.52 40.06L269.52 40.06L269.52 40.07L269.52 40.07L269.52 40.08L269.52 40.08L269.52 40.08L269.52 40.09L269.52 40.09L269.52 40.09L269.53 40.1L269.53 40.1L269.53 40.1L336.75 76.29L336.76 76.3L336.76 76.3L336.77 76.3L548.77 40.1L548.77 40.1L548.77 40.1L548.78 40.1L548.78 40.1L548.78 40.1L548.79 40.1L548.79 40.09L548.79 40.09L548.79 40.09L548.79 40.09L548.79 40.08L548.8 40.08L548.8 40.08L548.8 40.07L548.8 40.06L548.79 40.06L548.79 40.06L548.79 40.06L548.79 40.05L548.79 40.05L548.79 40.05L548.78 40.04L548.78 40.04L548.77 40.04L548.77 40.04L548.76 40.04L269.55 40.04L269.55 40.04Z" id="bqbp7hqWh"></path><path d="M301.03 294.5C297.35 294.74 294.56 297.92 294.79 301.6C295.02 305.14 297.96 307.86 301.46 307.86C301.6 307.86 301.75 307.85 301.9 307.84C303.57 307.73 305.26 307.67 306.91 307.64C310.6 307.59 313.55 304.55 313.5 300.86C313.44 297.16 310.39 294.19 306.71 294.27C304.84 294.3 302.93 294.37 301.03 294.5Z" id="c307RbdVCY"></path><path d="M328.75 296.19C325.13 295.48 321.61 297.84 320.9 301.47C320.19 305.09 322.55 308.6 326.18 309.31C329.36 309.94 332.48 310.74 335.44 311.7C338.91 312.83 342.74 310.87 343.87 307.41C345.01 303.9 343.08 300.12 339.57 298.98C336.1 297.86 332.46 296.92 328.75 296.19Z" id="ac5nOzB2K"></path><path d="M269.95 360.87C269.43 357.82 269.13 354.67 269.06 351.52C268.97 347.83 265.9 344.91 262.22 344.99C258.52 345.08 255.6 348.14 255.69 351.83C255.77 355.64 256.14 359.44 256.77 363.13C257.39 366.72 260.9 369.21 264.49 368.59C268.13 367.96 270.58 364.51 269.95 360.87Z" id="b1bSl5IBWB"></path><path d="M294.4 398.31C291.23 396.41 287.13 397.44 285.23 400.61C283.34 403.78 284.37 407.89 287.53 409.78C290.89 411.79 294.44 413.47 298.1 414.77C301.72 416.05 305.78 413.92 306.79 410.22C307.7 406.89 305.83 403.32 302.57 402.16C299.75 401.16 297 399.86 294.4 398.31Z" id="b3AGEkQ1CM"></path><path d="M310.17 277.83C313.07 275.53 313.55 271.32 311.25 268.43C308.96 265.54 304.75 265.05 301.86 267.35C299.02 269.6 296.24 271.99 293.59 274.46C290.89 276.98 290.74 281.21 293.26 283.91C295.74 286.58 300.04 286.73 302.71 284.25C305.1 282.02 307.61 279.86 310.17 277.83Z" id="aj4DA37ci"></path><path d="M266.84 375.67C263.58 377.4 262.33 381.45 264.06 384.71C265.87 388.13 267.97 391.38 270.29 394.39C272.69 397.5 277.41 397.83 280.23 395.1C282.65 392.76 282.92 388.87 280.87 386.21C279.01 383.81 277.33 381.2 275.88 378.45C274.15 375.19 270.11 373.95 266.84 375.67Z" id="a2Bu490PCe"></path><path d="M271.2 332.86C271.7 331.02 272.65 327.98 274.37 323.95C275.82 320.55 274.24 316.63 270.84 315.18C267.44 313.73 263.51 315.31 262.07 318.71C260.47 322.45 259.17 326.14 258.29 329.36C257.32 332.93 259.43 336.6 263 337.57C263.58 337.73 264.17 337.8 264.75 337.8C267.69 337.8 270.39 335.84 271.2 332.86Z" id="aqcWlXKSB"></path><path d="M278.87 290.54C276.63 293.41 274.49 296.39 272.5 299.41C270.47 302.5 271.33 306.64 274.42 308.67C277.46 310.68 281.67 309.8 283.68 306.76C285.47 304.04 287.39 301.35 289.41 298.76C291.68 295.85 291.16 291.65 288.25 289.38C285.34 287.1 281.14 287.62 278.87 290.54Z" id="bbSKWR80u"></path><path d="M352.25 319.91C354.8 321.71 357.13 323.69 359.17 325.8C361.69 328.42 366 328.5 368.62 325.98C371.28 323.41 371.36 319.18 368.8 316.52C366.17 313.8 363.19 311.26 359.93 308.97C356.91 306.85 352.74 307.57 350.62 310.6C348.5 313.62 349.23 317.79 352.25 319.91Z" id="i3UvnWoX5U"></path><path d="M320.94 404.69C320.89 404.69 320.47 404.72 320.42 404.72C316.73 404.9 313.89 408.04 314.07 411.73C314.25 415.3 317.2 418.08 320.74 418.08C320.86 418.08 320.97 418.08 321.08 418.07C321.15 418.07 321.7 418.04 321.76 418.04C325.4 417.81 328.99 417.33 332.43 416.59C336.04 415.82 338.34 412.26 337.56 408.65C336.79 405.04 333.24 402.74 329.62 403.51C326.84 404.11 323.92 404.51 320.94 404.69Z" id="a5FExwX5U"></path><path d="M372.58 332.41C369.06 333.51 367.09 337.26 368.19 340.78C369.04 343.51 369.59 346.44 369.83 349.49C370.11 353.13 373.38 355.92 377.01 355.64C380.65 355.36 383.44 352.09 383.16 348.45C382.84 344.4 382.1 340.48 380.96 336.81C379.86 333.28 376.11 331.31 372.58 332.41Z" id="bEBWqO3NH"></path><path d="M367.81 367.6C366.94 370.55 365.81 373.45 364.46 376.2C362.82 379.52 364.19 383.53 367.5 385.16C370.77 386.77 374.85 385.38 376.46 382.11C378.15 378.67 379.55 375.07 380.64 371.39C381.69 367.85 379.66 364.13 376.12 363.09C372.58 362.04 368.86 364.06 367.81 367.6Z" id="csG0EBKjt"></path><path d="M326.51 266.83C329.35 265.22 332.3 263.7 335.28 262.3C338.62 260.73 340.06 256.75 338.49 253.41C336.92 250.06 332.93 248.63 329.59 250.2C326.31 251.74 323.06 253.42 319.92 255.19C317.42 256.6 316.09 259.55 316.67 262.36C317.3 265.43 320.09 267.7 323.22 267.7C324.34 267.7 325.47 267.42 326.51 266.83Z" id="a1MxGm8vpp"></path><path d="M346.49 396.61C343.39 398.61 342.5 402.75 344.5 405.85C346.47 408.91 350.68 409.82 353.75 407.84C356.99 405.75 360.05 403.34 362.87 400.67C365.54 398.13 365.65 393.89 363.11 391.22C360.57 388.54 356.33 388.43 353.66 390.97C351.45 393.07 349.04 394.97 346.49 396.61Z" id="aaschAZKB"></path><path d="M349.92 242.39C346.57 243.41 344.55 246.98 345.38 250.38C346.28 254.06 350.2 256.29 353.82 255.19C355.43 254.69 357.09 254.22 358.74 253.78C362.31 252.83 364.43 249.16 363.48 245.59C362.52 242.03 358.86 239.91 355.29 240.86C353.49 241.34 351.68 241.86 349.92 242.39Z" id="j4GbB0s0O7"></path><path d="M223.91 329.52C222.1 331.32 220.32 333.23 218.6 335.2C216.17 337.97 216.45 342.2 219.23 344.63C221.98 347.03 226.27 346.74 228.67 344C230.19 342.26 231.77 340.57 233.36 338.97C233.96 338.37 234.57 337.78 235.18 337.2C237.85 334.65 237.95 330.42 235.4 327.75C232.85 325.08 228.62 324.98 225.94 327.53C225.26 328.18 224.58 328.84 223.91 329.52Z" id="b18HdDdjvq"></path><path d="M206.1 352.22C204.26 355.2 202.53 358.29 200.93 361.41C199.26 364.7 200.56 368.73 203.85 370.41C207.1 372.07 211.19 370.73 212.85 367.49C214.28 364.68 215.84 361.9 217.49 359.22C219.42 356.08 218.44 351.96 215.29 350.02C212.15 348.09 208.03 349.07 206.1 352.22Z" id="k2svtLDXq"></path><path d="M247.29 311.28C245.68 312.24 244.07 313.26 242.5 314.3C239.43 316.34 238.59 320.49 240.63 323.57C242.64 326.6 246.86 327.46 249.9 325.44C251.29 324.52 252.72 323.62 254.15 322.76C257.32 320.87 258.36 316.76 256.46 313.59C254.57 310.42 250.46 309.39 247.29 311.28Z" id="c4BfVzFC5q"></path><path d="M155.59 409.52L139.56 413.56L123.93 422.65L113.59 431L103.29 440.47L96.65 449.79C93.71 455.04 92.08 457.96 91.76 458.54C89.66 463.22 88.49 465.82 88.26 466.34C85.65 473.55 84.21 477.55 83.93 478.35C83.69 480.48 83.56 481.66 83.53 481.91C90.17 460.67 108.92 444.36 132.44 441.96C144.36 440.75 155.78 443.27 165.58 448.58C166.63 449.29 167.74 449.95 168.89 450.53C169.13 450.69 169.38 450.83 169.64 450.99C169.64 450.99 169.66 450.94 169.66 450.92C174.02 453.05 178.84 454.29 183.9 454.46C185.43 454.51 186.98 454.45 188.58 454.29C199.29 453.19 208.38 447.38 213.99 439.12C217.84 433.43 220.08 426.58 220.03 419.3C219.78 419.02 218.54 417.64 216.31 415.11C215.64 414.8 212.23 413.14 206.11 410.15C204.9 409.95 198.86 408.95 187.99 407.15C186.64 407.16 179.91 407.24 167.78 407.37L155.59 409.52Z" id="c1N7EIdQH"></path><path d="M155.59 409.52L139.56 413.56L123.93 422.65L113.59 431L103.29 440.47L96.65 449.79C93.71 455.04 92.08 457.96 91.76 458.54C89.66 463.22 88.49 465.82 88.26 466.34C85.65 473.55 84.21 477.55 83.93 478.35C83.69 480.48 83.56 481.66 83.53 481.91C90.17 460.67 108.92 444.36 132.44 441.96C144.36 440.75 155.78 443.27 165.58 448.58C166.63 449.29 167.74 449.95 168.89 450.53C169.13 450.69 169.38 450.83 169.64 450.99C169.64 450.99 169.66 450.94 169.66 450.92C174.02 453.05 178.84 454.29 183.9 454.46C185.43 454.51 186.98 454.45 188.58 454.29C199.29 453.19 208.38 447.38 213.99 439.12C217.84 433.43 220.08 426.58 220.03 419.3C219.78 419.02 218.54 417.64 216.31 415.11C215.64 414.8 212.23 413.14 206.11 410.15C204.9 409.95 198.86 408.95 187.99 407.15C186.64 407.16 179.91 407.24 167.78 407.37L155.59 409.52Z" id="bcLl7Xec"></path><path d="M155.59 409.52L139.56 413.56L123.93 422.65L113.59 431L103.29 440.47L96.65 449.79C93.71 455.04 92.08 457.96 91.76 458.54C89.66 463.22 88.49 465.82 88.26 466.34C85.65 473.55 84.21 477.55 83.93 478.35C83.69 480.48 83.56 481.66 83.53 481.91C90.17 460.67 108.92 444.36 132.44 441.96C144.36 440.75 155.78 443.27 165.58 448.58C166.63 449.29 167.74 449.95 168.89 450.53C169.13 450.69 169.38 450.83 169.64 450.99C169.64 450.99 169.66 450.94 169.66 450.92C174.02 453.05 178.84 454.29 183.9 454.46C185.43 454.51 186.98 454.45 188.58 454.29C199.29 453.19 208.38 447.38 213.99 439.12C217.84 433.43 220.08 426.58 220.03 419.3C219.78 419.02 218.54 417.64 216.31 415.11C215.64 414.8 212.23 413.14 206.11 410.15C204.9 409.95 198.86 408.95 187.99 407.15C186.64 407.16 179.91 407.24 167.78 407.37L155.59 409.52Z" id="b3FaNg5gvi"></path><path d="M155.59 409.52L139.56 413.56L123.93 422.65L113.59 431L103.29 440.47L96.65 449.79C93.71 455.04 92.08 457.96 91.76 458.54C89.66 463.22 88.49 465.82 88.26 466.34C85.65 473.55 84.21 477.55 83.93 478.35C83.69 480.48 83.56 481.66 83.53 481.91C90.17 460.67 108.92 444.36 132.44 441.96C144.36 440.75 155.78 443.27 165.58 448.58C166.63 449.29 167.74 449.95 168.89 450.53C169.13 450.69 169.38 450.83 169.64 450.99C169.64 450.99 169.66 450.94 169.66 450.92C174.02 453.05 178.84 454.29 183.9 454.46C185.43 454.51 186.98 454.45 188.58 454.29C199.29 453.19 208.38 447.38 213.99 439.12C217.84 433.43 220.08 426.58 220.03 419.3C219.78 419.02 218.54 417.64 216.31 415.11C215.64 414.8 212.23 413.14 206.11 410.15C204.9 409.95 198.86 408.95 187.99 407.15C186.64 407.16 179.91 407.24 167.78 407.37L155.59 409.52Z" id="ci9kQLWox"></path><path d="M155.59 409.52L139.56 413.56L123.93 422.65L113.59 431L103.29 440.47L96.65 449.79C93.71 455.04 92.08 457.96 91.76 458.54C89.66 463.22 88.49 465.82 88.26 466.34C85.65 473.55 84.21 477.55 83.93 478.35C83.69 480.48 83.56 481.66 83.53 481.91C90.17 460.67 108.92 444.36 132.44 441.96C144.36 440.75 155.78 443.27 165.58 448.58C166.63 449.29 167.74 449.95 168.89 450.53C169.13 450.69 169.38 450.83 169.64 450.99C169.64 450.99 169.66 450.94 169.66 450.92C174.02 453.05 178.84 454.29 183.9 454.46C185.43 454.51 186.98 454.45 188.58 454.29C199.29 453.19 208.38 447.38 213.99 439.12C217.84 433.43 220.08 426.58 220.03 419.3C219.78 419.02 218.54 417.64 216.31 415.11C215.64 414.8 212.23 413.14 206.11 410.15C204.9 409.95 198.86 408.95 187.99 407.15C186.64 407.16 179.91 407.24 167.78 407.37L155.59 409.52Z" id="d6n5ONvXO"></path><path d="M155.59 409.52L139.56 413.56L123.93 422.65L113.59 431L103.29 440.47L96.65 449.79C93.71 455.04 92.08 457.96 91.76 458.54C89.66 463.22 88.49 465.82 88.26 466.34C85.65 473.55 84.21 477.55 83.93 478.35C83.69 480.48 83.56 481.66 83.53 481.91C90.17 460.67 108.92 444.36 132.44 441.96C144.36 440.75 155.78 443.27 165.58 448.58C166.63 449.29 167.74 449.95 168.89 450.53C169.13 450.69 169.38 450.83 169.64 450.99C169.64 450.99 169.66 450.94 169.66 450.92C174.02 453.05 178.84 454.29 183.9 454.46C185.43 454.51 186.98 454.45 188.58 454.29C199.29 453.19 208.38 447.38 213.99 439.12C217.84 433.43 220.08 426.58 220.03 419.3C219.78 419.02 218.54 417.64 216.31 415.11C215.64 414.8 212.23 413.14 206.11 410.15C204.9 409.95 198.86 408.95 187.99 407.15C186.64 407.16 179.91 407.24 167.78 407.37L155.59 409.52Z" id="cnZEw4eBD"></path><path d="M155.59 409.52L139.56 413.56L123.93 422.65L113.59 431L103.29 440.47L96.65 449.79C93.71 455.04 92.08 457.96 91.76 458.54C89.66 463.22 88.49 465.82 88.26 466.34C85.65 473.55 84.21 477.55 83.93 478.35C83.69 480.48 83.56 481.66 83.53 481.91C90.17 460.67 108.92 444.36 132.44 441.96C144.36 440.75 155.78 443.27 165.58 448.58C166.63 449.29 167.74 449.95 168.89 450.53C169.13 450.69 169.38 450.83 169.64 450.99C169.64 450.99 169.66 450.94 169.66 450.92C174.02 453.05 178.84 454.29 183.9 454.46C185.43 454.51 186.98 454.45 188.58 454.29C199.29 453.19 208.38 447.38 213.99 439.12C217.84 433.43 220.08 426.58 220.03 419.3C219.78 419.02 218.54 417.64 216.31 415.11C215.64 414.8 212.23 413.14 206.11 410.15C204.9 409.95 198.86 408.95 187.99 407.15C186.64 407.16 179.91 407.24 167.78 407.37L155.59 409.52Z" id="a1jVgzugTc"></path><path d="M155.59 409.52L139.56 413.56L123.93 422.65L113.59 431L103.29 440.47L96.65 449.79C93.71 455.04 92.08 457.96 91.76 458.54C89.66 463.22 88.49 465.82 88.26 466.34C85.65 473.55 84.21 477.55 83.93 478.35C83.69 480.48 83.56 481.66 83.53 481.91C90.17 460.67 108.92 444.36 132.44 441.96C144.36 440.75 155.78 443.27 165.58 448.58C166.63 449.29 167.74 449.95 168.89 450.53C169.13 450.69 169.38 450.83 169.64 450.99C169.64 450.99 169.66 450.94 169.66 450.92C174.02 453.05 178.84 454.29 183.9 454.46C185.43 454.51 186.98 454.45 188.58 454.29C199.29 453.19 208.38 447.38 213.99 439.12C217.84 433.43 220.08 426.58 220.03 419.3C219.78 419.02 218.54 417.64 216.31 415.11C215.64 414.8 212.23 413.14 206.11 410.15C204.9 409.95 198.86 408.95 187.99 407.15C186.64 407.16 179.91 407.24 167.78 407.37L155.59 409.52Z" id="b1jzQ7FowC"></path><path d="M120.4 380.21C119.18 380.84 113.11 383.99 102.19 389.67L88.94 403.34L81.32 411.81L75.38 423.37L69.5 435.42L65.65 451.68L64.64 463.18L64.56 470.22L65.89 483.29L67.6 492.17L72.23 506.2L77.91 517.23L82.08 523.83L87.16 529.7C89.77 532.57 91.21 534.16 91.5 534.48C94.21 536.81 95.71 538.1 96.02 538.36C96.84 538.89 97.29 539.2 97.38 539.25C97.54 539.31 97.63 539.34 97.64 539.34C88.68 530.36 82.63 518.35 81.24 504.76C81.08 503.2 80.99 501.69 80.95 500.15C80.82 493.82 81.73 487.68 83.53 481.91C91.5 449.02 116.6 422.19 149.8 412.59C155.25 411.02 160.91 409.91 166.76 409.31C179.04 408.06 191.01 409.19 202.2 412.32C208.4 414.06 214.38 416.41 220.03 419.3C220.02 418.2 219.97 417.06 219.86 415.94C218.73 404.88 212.67 395.36 203.98 389.8C183.16 379.94 166.91 374.23 155.23 372.68C154.87 372.66 153.04 372.62 149.78 372.56C148.42 372.75 141.57 373.67 129.26 375.32C128.67 375.65 125.71 377.28 120.4 380.21Z" id="g27NgmhRPf"></path><path d="M120.4 380.21C119.18 380.84 113.11 383.99 102.19 389.67L88.94 403.34L81.32 411.81L75.38 423.37L69.5 435.42L65.65 451.68L64.64 463.18L64.56 470.22L65.89 483.29L67.6 492.17L72.23 506.2L77.91 517.23L82.08 523.83L87.16 529.7C89.77 532.57 91.21 534.16 91.5 534.48C94.21 536.81 95.71 538.1 96.02 538.36C96.84 538.89 97.29 539.2 97.38 539.25C97.54 539.31 97.63 539.34 97.64 539.34C88.68 530.36 82.63 518.35 81.24 504.76C81.08 503.2 80.99 501.69 80.95 500.15C80.82 493.82 81.73 487.68 83.53 481.91C91.5 449.02 116.6 422.19 149.8 412.59C155.25 411.02 160.91 409.91 166.76 409.31C179.04 408.06 191.01 409.19 202.2 412.32C208.4 414.06 214.38 416.41 220.03 419.3C220.02 418.2 219.97 417.06 219.86 415.94C218.73 404.88 212.67 395.36 203.98 389.8C183.16 379.94 166.91 374.23 155.23 372.68C154.87 372.66 153.04 372.62 149.78 372.56C148.42 372.75 141.57 373.67 129.26 375.32C128.67 375.65 125.71 377.28 120.4 380.21Z" id="buQ3d0de8"></path><path d="M120.4 380.21C119.18 380.84 113.11 383.99 102.19 389.67L88.94 403.34L81.32 411.81L75.38 423.37L69.5 435.42L65.65 451.68L64.64 463.18L64.56 470.22L65.89 483.29L67.6 492.17L72.23 506.2L77.91 517.23L82.08 523.83L87.16 529.7C89.77 532.57 91.21 534.16 91.5 534.48C94.21 536.81 95.71 538.1 96.02 538.36C96.84 538.89 97.29 539.2 97.38 539.25C97.54 539.31 97.63 539.34 97.64 539.34C88.68 530.36 82.63 518.35 81.24 504.76C81.08 503.2 80.99 501.69 80.95 500.15C80.82 493.82 81.73 487.68 83.53 481.91C91.5 449.02 116.6 422.19 149.8 412.59C155.25 411.02 160.91 409.91 166.76 409.31C179.04 408.06 191.01 409.19 202.2 412.32C208.4 414.06 214.38 416.41 220.03 419.3C220.02 418.2 219.97 417.06 219.86 415.94C218.73 404.88 212.67 395.36 203.98 389.8C183.16 379.94 166.91 374.23 155.23 372.68C154.87 372.66 153.04 372.62 149.78 372.56C148.42 372.75 141.57 373.67 129.26 375.32C128.67 375.65 125.71 377.28 120.4 380.21Z" id="fCN0CqDeE"></path><path d="M120.4 380.21C119.18 380.84 113.11 383.99 102.19 389.67L88.94 403.34L81.32 411.81L75.38 423.37L69.5 435.42L65.65 451.68L64.64 463.18L64.56 470.22L65.89 483.29L67.6 492.17L72.23 506.2L77.91 517.23L82.08 523.83L87.16 529.7C89.77 532.57 91.21 534.16 91.5 534.48C94.21 536.81 95.71 538.1 96.02 538.36C96.84 538.89 97.29 539.2 97.38 539.25C97.54 539.31 97.63 539.34 97.64 539.34C88.68 530.36 82.63 518.35 81.24 504.76C81.08 503.2 80.99 501.69 80.95 500.15C80.82 493.82 81.73 487.68 83.53 481.91C91.5 449.02 116.6 422.19 149.8 412.59C155.25 411.02 160.91 409.91 166.76 409.31C179.04 408.06 191.01 409.19 202.2 412.32C208.4 414.06 214.38 416.41 220.03 419.3C220.02 418.2 219.97 417.06 219.86 415.94C218.73 404.88 212.67 395.36 203.98 389.8C183.16 379.94 166.91 374.23 155.23 372.68C154.87 372.66 153.04 372.62 149.78 372.56C148.42 372.75 141.57 373.67 129.26 375.32C128.67 375.65 125.71 377.28 120.4 380.21Z" id="bCvXTUAHk"></path><path d="M120.4 380.21C119.18 380.84 113.11 383.99 102.19 389.67L88.94 403.34L81.32 411.81L75.38 423.37L69.5 435.42L65.65 451.68L64.64 463.18L64.56 470.22L65.89 483.29L67.6 492.17L72.23 506.2L77.91 517.23L82.08 523.83L87.16 529.7C89.77 532.57 91.21 534.16 91.5 534.48C94.21 536.81 95.71 538.1 96.02 538.36C96.84 538.89 97.29 539.2 97.38 539.25C97.54 539.31 97.63 539.34 97.64 539.34C88.68 530.36 82.63 518.35 81.24 504.76C81.08 503.2 80.99 501.69 80.95 500.15C80.82 493.82 81.73 487.68 83.53 481.91C91.5 449.02 116.6 422.19 149.8 412.59C155.25 411.02 160.91 409.91 166.76 409.31C179.04 408.06 191.01 409.19 202.2 412.32C208.4 414.06 214.38 416.41 220.03 419.3C220.02 418.2 219.97 417.06 219.86 415.94C218.73 404.88 212.67 395.36 203.98 389.8C183.16 379.94 166.91 374.23 155.23 372.68C154.87 372.66 153.04 372.62 149.78 372.56C148.42 372.75 141.57 373.67 129.26 375.32C128.67 375.65 125.71 377.28 120.4 380.21Z" id="b6jfbJUKMg"></path><path d="M120.4 380.21C119.18 380.84 113.11 383.99 102.19 389.67L88.94 403.34L81.32 411.81L75.38 423.37L69.5 435.42L65.65 451.68L64.64 463.18L64.56 470.22L65.89 483.29L67.6 492.17L72.23 506.2L77.91 517.23L82.08 523.83L87.16 529.7C89.77 532.57 91.21 534.16 91.5 534.48C94.21 536.81 95.71 538.1 96.02 538.36C96.84 538.89 97.29 539.2 97.38 539.25C97.54 539.31 97.63 539.34 97.64 539.34C88.68 530.36 82.63 518.35 81.24 504.76C81.08 503.2 80.99 501.69 80.95 500.15C80.82 493.82 81.73 487.68 83.53 481.91C91.5 449.02 116.6 422.19 149.8 412.59C155.25 411.02 160.91 409.91 166.76 409.31C179.04 408.06 191.01 409.19 202.2 412.32C208.4 414.06 214.38 416.41 220.03 419.3C220.02 418.2 219.97 417.06 219.86 415.94C218.73 404.88 212.67 395.36 203.98 389.8C183.16 379.94 166.91 374.23 155.23 372.68C154.87 372.66 153.04 372.62 149.78 372.56C148.42 372.75 141.57 373.67 129.26 375.32C128.67 375.65 125.71 377.28 120.4 380.21Z" id="b2wIj88NHY"></path><path d="M120.4 380.21C119.18 380.84 113.11 383.99 102.19 389.67L88.94 403.34L81.32 411.81L75.38 423.37L69.5 435.42L65.65 451.68L64.64 463.18L64.56 470.22L65.89 483.29L67.6 492.17L72.23 506.2L77.91 517.23L82.08 523.83L87.16 529.7C89.77 532.57 91.21 534.16 91.5 534.48C94.21 536.81 95.71 538.1 96.02 538.36C96.84 538.89 97.29 539.2 97.38 539.25C97.54 539.31 97.63 539.34 97.64 539.34C88.68 530.36 82.63 518.35 81.24 504.76C81.08 503.2 80.99 501.69 80.95 500.15C80.82 493.82 81.73 487.68 83.53 481.91C91.5 449.02 116.6 422.19 149.8 412.59C155.25 411.02 160.91 409.91 166.76 409.31C179.04 408.06 191.01 409.19 202.2 412.32C208.4 414.06 214.38 416.41 220.03 419.3C220.02 418.2 219.97 417.06 219.86 415.94C218.73 404.88 212.67 395.36 203.98 389.8C183.16 379.94 166.91 374.23 155.23 372.68C154.87 372.66 153.04 372.62 149.78 372.56C148.42 372.75 141.57 373.67 129.26 375.32C128.67 375.65 125.71 377.28 120.4 380.21Z" id="f1dQbQvcY9"></path><path d="M120.4 380.21C119.18 380.84 113.11 383.99 102.19 389.67L88.94 403.34L81.32 411.81L75.38 423.37L69.5 435.42L65.65 451.68L64.64 463.18L64.56 470.22L65.89 483.29L67.6 492.17L72.23 506.2L77.91 517.23L82.08 523.83L87.16 529.7C89.77 532.57 91.21 534.16 91.5 534.48C94.21 536.81 95.71 538.1 96.02 538.36C96.84 538.89 97.29 539.2 97.38 539.25C97.54 539.31 97.63 539.34 97.64 539.34C88.68 530.36 82.63 518.35 81.24 504.76C81.08 503.2 80.99 501.69 80.95 500.15C80.82 493.82 81.73 487.68 83.53 481.91C91.5 449.02 116.6 422.19 149.8 412.59C155.25 411.02 160.91 409.91 166.76 409.31C179.04 408.06 191.01 409.19 202.2 412.32C208.4 414.06 214.38 416.41 220.03 419.3C220.02 418.2 219.97 417.06 219.86 415.94C218.73 404.88 212.67 395.36 203.98 389.8C183.16 379.94 166.91 374.23 155.23 372.68C154.87 372.66 153.04 372.62 149.78 372.56C148.42 372.75 141.57 373.67 129.26 375.32C128.67 375.65 125.71 377.28 120.4 380.21Z" id="afbKSTFu2"></path><path d="M148.14 371.91C140.68 371.35 133.08 371.43 125.4 372.22C95.52 375.26 69.1 388.4 49.19 407.9C43.47 413.5 38.29 419.61 33.71 426.17C33.67 426.24 33.49 426.58 33.16 427.2C33.07 427.4 32.61 428.39 31.79 430.16C31.69 430.39 31.2 431.58 30.31 433.72C30.11 434.44 29.1 438 27.28 444.41L25.58 453.55L25.23 466.87L26.57 480.07L30.14 495.9L37.86 512.56L49.12 527.11L61.88 539.52L76 548.58L87.05 553.96L103.04 558.8L120.16 560.18C126.35 559.9 129.79 559.74 130.48 559.71C136.42 558.76 139.72 558.23 140.38 558.12C144.5 556.97 146.79 556.32 147.24 556.2C148.66 555.52 149.45 555.16 149.59 555.08C147.79 555.44 145.93 555.71 144.06 555.9C132.34 557.1 121.08 554.67 111.4 549.54C106.33 546.84 101.68 543.4 97.64 539.34C91.99 534.31 86.94 528.62 82.58 522.34C73.69 509.51 67.82 494.33 66.12 477.71C62.85 445.58 75.9 415.56 98.55 395.86C112.92 383.39 131.14 375.04 151.52 372.97C152.76 372.84 154 372.75 155.23 372.68C152.89 372.34 150.5 372.1 148.14 371.91" id="a47sSgYjui"></path><path d="M148.14 371.91C140.68 371.35 133.08 371.43 125.4 372.22C95.52 375.26 69.1 388.4 49.19 407.9C43.47 413.5 38.29 419.61 33.71 426.17C33.67 426.24 33.49 426.58 33.16 427.2C33.07 427.4 32.61 428.39 31.79 430.16C31.69 430.39 31.2 431.58 30.31 433.72C30.11 434.44 29.1 438 27.28 444.41L25.58 453.55L25.23 466.87L26.57 480.07L30.14 495.9L37.86 512.56L49.12 527.11L61.88 539.52L76 548.58L87.05 553.96L103.04 558.8L120.16 560.18C126.35 559.9 129.79 559.74 130.48 559.71C136.42 558.76 139.72 558.23 140.38 558.12C144.5 556.97 146.79 556.32 147.24 556.2C148.66 555.52 149.45 555.16 149.59 555.08C147.79 555.44 145.93 555.71 144.06 555.9C132.34 557.1 121.08 554.67 111.4 549.54C106.33 546.84 101.68 543.4 97.64 539.34C91.99 534.31 86.94 528.62 82.58 522.34C73.69 509.51 67.82 494.33 66.12 477.71C62.85 445.58 75.9 415.56 98.55 395.86C112.92 383.39 131.14 375.04 151.52 372.97C152.76 372.84 154 372.75 155.23 372.68C152.89 372.34 150.5 372.1 148.14 371.91" id="bZJVgSZ"></path><path d="M148.14 371.91C140.68 371.35 133.08 371.43 125.4 372.22C95.52 375.26 69.1 388.4 49.19 407.9C43.47 413.5 38.29 419.61 33.71 426.17C33.67 426.24 33.49 426.58 33.16 427.2C33.07 427.4 32.61 428.39 31.79 430.16C31.69 430.39 31.2 431.58 30.31 433.72C30.11 434.44 29.1 438 27.28 444.41L25.58 453.55L25.23 466.87L26.57 480.07L30.14 495.9L37.86 512.56L49.12 527.11L61.88 539.52L76 548.58L87.05 553.96L103.04 558.8L120.16 560.18C126.35 559.9 129.79 559.74 130.48 559.71C136.42 558.76 139.72 558.23 140.38 558.12C144.5 556.97 146.79 556.32 147.24 556.2C148.66 555.52 149.45 555.16 149.59 555.08C147.79 555.44 145.93 555.71 144.06 555.9C132.34 557.1 121.08 554.67 111.4 549.54C106.33 546.84 101.68 543.4 97.64 539.34C91.99 534.31 86.94 528.62 82.58 522.34C73.69 509.51 67.82 494.33 66.12 477.71C62.85 445.58 75.9 415.56 98.55 395.86C112.92 383.39 131.14 375.04 151.52 372.97C152.76 372.84 154 372.75 155.23 372.68C152.89 372.34 150.5 372.1 148.14 371.91" id="b3pJWzfV9S"></path><path d="M148.14 371.91C140.68 371.35 133.08 371.43 125.4 372.22C95.52 375.26 69.1 388.4 49.19 407.9C43.47 413.5 38.29 419.61 33.71 426.17C33.67 426.24 33.49 426.58 33.16 427.2C33.07 427.4 32.61 428.39 31.79 430.16C31.69 430.39 31.2 431.58 30.31 433.72C30.11 434.44 29.1 438 27.28 444.41L25.58 453.55L25.23 466.87L26.57 480.07L30.14 495.9L37.86 512.56L49.12 527.11L61.88 539.52L76 548.58L87.05 553.96L103.04 558.8L120.16 560.18C126.35 559.9 129.79 559.74 130.48 559.71C136.42 558.76 139.72 558.23 140.38 558.12C144.5 556.97 146.79 556.32 147.24 556.2C148.66 555.52 149.45 555.16 149.59 555.08C147.79 555.44 145.93 555.71 144.06 555.9C132.34 557.1 121.08 554.67 111.4 549.54C106.33 546.84 101.68 543.4 97.64 539.34C91.99 534.31 86.94 528.62 82.58 522.34C73.69 509.51 67.82 494.33 66.12 477.71C62.85 445.58 75.9 415.56 98.55 395.86C112.92 383.39 131.14 375.04 151.52 372.97C152.76 372.84 154 372.75 155.23 372.68C152.89 372.34 150.5 372.1 148.14 371.91" id="aR5JwmJcG"></path><path d="M148.14 371.91C140.68 371.35 133.08 371.43 125.4 372.22C95.52 375.26 69.1 388.4 49.19 407.9C43.47 413.5 38.29 419.61 33.71 426.17C33.67 426.24 33.49 426.58 33.16 427.2C33.07 427.4 32.61 428.39 31.79 430.16C31.69 430.39 31.2 431.58 30.31 433.72C30.11 434.44 29.1 438 27.28 444.41L25.58 453.55L25.23 466.87L26.57 480.07L30.14 495.9L37.86 512.56L49.12 527.11L61.88 539.52L76 548.58L87.05 553.96L103.04 558.8L120.16 560.18C126.35 559.9 129.79 559.74 130.48 559.71C136.42 558.76 139.72 558.23 140.38 558.12C144.5 556.97 146.79 556.32 147.24 556.2C148.66 555.52 149.45 555.16 149.59 555.08C147.79 555.44 145.93 555.71 144.06 555.9C132.34 557.1 121.08 554.67 111.4 549.54C106.33 546.84 101.68 543.4 97.64 539.34C91.99 534.31 86.94 528.62 82.58 522.34C73.69 509.51 67.82 494.33 66.12 477.71C62.85 445.58 75.9 415.56 98.55 395.86C112.92 383.39 131.14 375.04 151.52 372.97C152.76 372.84 154 372.75 155.23 372.68C152.89 372.34 150.5 372.1 148.14 371.91" id="a15vrhs4SN"></path><path d="M148.14 371.91C140.68 371.35 133.08 371.43 125.4 372.22C95.52 375.26 69.1 388.4 49.19 407.9C43.47 413.5 38.29 419.61 33.71 426.17C33.67 426.24 33.49 426.58 33.16 427.2C33.07 427.4 32.61 428.39 31.79 430.16C31.69 430.39 31.2 431.58 30.31 433.72C30.11 434.44 29.1 438 27.28 444.41L25.58 453.55L25.23 466.87L26.57 480.07L30.14 495.9L37.86 512.56L49.12 527.11L61.88 539.52L76 548.58L87.05 553.96L103.04 558.8L120.16 560.18C126.35 559.9 129.79 559.74 130.48 559.71C136.42 558.76 139.72 558.23 140.38 558.12C144.5 556.97 146.79 556.32 147.24 556.2C148.66 555.52 149.45 555.16 149.59 555.08C147.79 555.44 145.93 555.71 144.06 555.9C132.34 557.1 121.08 554.67 111.4 549.54C106.33 546.84 101.68 543.4 97.64 539.34C91.99 534.31 86.94 528.62 82.58 522.34C73.69 509.51 67.82 494.33 66.12 477.71C62.85 445.58 75.9 415.56 98.55 395.86C112.92 383.39 131.14 375.04 151.52 372.97C152.76 372.84 154 372.75 155.23 372.68C152.89 372.34 150.5 372.1 148.14 371.91" id="bO6x2jIAe"></path><path d="M148.14 371.91C140.68 371.35 133.08 371.43 125.4 372.22C95.52 375.26 69.1 388.4 49.19 407.9C43.47 413.5 38.29 419.61 33.71 426.17C33.67 426.24 33.49 426.58 33.16 427.2C33.07 427.4 32.61 428.39 31.79 430.16C31.69 430.39 31.2 431.58 30.31 433.72C30.11 434.44 29.1 438 27.28 444.41L25.58 453.55L25.23 466.87L26.57 480.07L30.14 495.9L37.86 512.56L49.12 527.11L61.88 539.52L76 548.58L87.05 553.96L103.04 558.8L120.16 560.18C126.35 559.9 129.79 559.74 130.48 559.71C136.42 558.76 139.72 558.23 140.38 558.12C144.5 556.97 146.79 556.32 147.24 556.2C148.66 555.52 149.45 555.16 149.59 555.08C147.79 555.44 145.93 555.71 144.06 555.9C132.34 557.1 121.08 554.67 111.4 549.54C106.33 546.84 101.68 543.4 97.64 539.34C91.99 534.31 86.94 528.62 82.58 522.34C73.69 509.51 67.82 494.33 66.12 477.71C62.85 445.58 75.9 415.56 98.55 395.86C112.92 383.39 131.14 375.04 151.52 372.97C152.76 372.84 154 372.75 155.23 372.68C152.89 372.34 150.5 372.1 148.14 371.91" id="a2hUJ68HdW"></path><path d="M148.14 371.91C140.68 371.35 133.08 371.43 125.4 372.22C95.52 375.26 69.1 388.4 49.19 407.9C43.47 413.5 38.29 419.61 33.71 426.17C33.67 426.24 33.49 426.58 33.16 427.2C33.07 427.4 32.61 428.39 31.79 430.16C31.69 430.39 31.2 431.58 30.31 433.72C30.11 434.44 29.1 438 27.28 444.41L25.58 453.55L25.23 466.87L26.57 480.07L30.14 495.9L37.86 512.56L49.12 527.11L61.88 539.52L76 548.58L87.05 553.96L103.04 558.8L120.16 560.18C126.35 559.9 129.79 559.74 130.48 559.71C136.42 558.76 139.72 558.23 140.38 558.12C144.5 556.97 146.79 556.32 147.24 556.2C148.66 555.52 149.45 555.16 149.59 555.08C147.79 555.44 145.93 555.71 144.06 555.9C132.34 557.1 121.08 554.67 111.4 549.54C106.33 546.84 101.68 543.4 97.64 539.34C91.99 534.31 86.94 528.62 82.58 522.34C73.69 509.51 67.82 494.33 66.12 477.71C62.85 445.58 75.9 415.56 98.55 395.86C112.92 383.39 131.14 375.04 151.52 372.97C152.76 372.84 154 372.75 155.23 372.68C152.89 372.34 150.5 372.1 148.14 371.91" id="a1bKvHyrd"></path><path d="M177.01 541.57C176.23 542.15 175.41 542.68 174.61 543.23C167.02 548.31 158.61 552.33 149.59 555.08C143.74 556.86 137.64 558.11 131.3 558.76C119.04 560.01 107.06 558.89 95.86 555.76C59.13 545.47 30.63 513.64 26.53 473.42C24.82 456.73 27.55 440.59 33.71 426.17C16.9 450.31 8.29 480.32 11.52 511.87C13.03 526.75 17.07 540.76 23.13 553.54C23.15 553.55 23.18 553.6 23.24 553.69C23.25 553.72 23.33 553.83 23.46 554.05C23.51 554.12 23.74 554.44 24.17 555.04L28.02 560.07L39.74 569.97L52.63 577.59L66.55 583.49L86.77 587.76L105.04 587.76L116.95 585.81L128.13 582.42L136.94 578.85L150.96 570.85L164.37 559.44L171.66 552.07L176.87 544.69C177.68 543.24 178.13 542.44 178.22 542.28C177.49 541.86 177.09 541.62 177.01 541.57C175.66 543.09 174.89 543.93 174.74 544.1C174.48 545.06 174.32 545.59 174.31 545.69C175.24 544.34 176.16 542.97 177.01 541.57Z" id="d18TOee7XE"></path><path d="M177.01 541.57C176.23 542.15 175.41 542.68 174.61 543.23C167.02 548.31 158.61 552.33 149.59 555.08C143.74 556.86 137.64 558.11 131.3 558.76C119.04 560.01 107.06 558.89 95.86 555.76C59.13 545.47 30.63 513.64 26.53 473.42C24.82 456.73 27.55 440.59 33.71 426.17C16.9 450.31 8.29 480.32 11.52 511.87C13.03 526.75 17.07 540.76 23.13 553.54C23.15 553.55 23.18 553.6 23.24 553.69C23.25 553.72 23.33 553.83 23.46 554.05C23.51 554.12 23.74 554.44 24.17 555.04L28.02 560.07L39.74 569.97L52.63 577.59L66.55 583.49L86.77 587.76L105.04 587.76L116.95 585.81L128.13 582.42L136.94 578.85L150.96 570.85L164.37 559.44L171.66 552.07L176.87 544.69C177.68 543.24 178.13 542.44 178.22 542.28C177.49 541.86 177.09 541.62 177.01 541.57C175.66 543.09 174.89 543.93 174.74 544.1C174.48 545.06 174.32 545.59 174.31 545.69C175.24 544.34 176.16 542.97 177.01 541.57Z" id="b1pYMVNAog"></path><path d="M177.01 541.57C176.23 542.15 175.41 542.68 174.61 543.23C167.02 548.31 158.61 552.33 149.59 555.08C143.74 556.86 137.64 558.11 131.3 558.76C119.04 560.01 107.06 558.89 95.86 555.76C59.13 545.47 30.63 513.64 26.53 473.42C24.82 456.73 27.55 440.59 33.71 426.17C16.9 450.31 8.29 480.32 11.52 511.87C13.03 526.75 17.07 540.76 23.13 553.54C23.15 553.55 23.18 553.6 23.24 553.69C23.25 553.72 23.33 553.83 23.46 554.05C23.51 554.12 23.74 554.44 24.17 555.04L28.02 560.07L39.74 569.97L52.63 577.59L66.55 583.49L86.77 587.76L105.04 587.76L116.95 585.81L128.13 582.42L136.94 578.85L150.96 570.85L164.37 559.44L171.66 552.07L176.87 544.69C177.68 543.24 178.13 542.44 178.22 542.28C177.49 541.86 177.09 541.62 177.01 541.57C175.66 543.09 174.89 543.93 174.74 544.1C174.48 545.06 174.32 545.59 174.31 545.69C175.24 544.34 176.16 542.97 177.01 541.57Z" id="i9XG9thGx"></path><path d="M177.01 541.57C176.23 542.15 175.41 542.68 174.61 543.23C167.02 548.31 158.61 552.33 149.59 555.08C143.74 556.86 137.64 558.11 131.3 558.76C119.04 560.01 107.06 558.89 95.86 555.76C59.13 545.47 30.63 513.64 26.53 473.42C24.82 456.73 27.55 440.59 33.71 426.17C16.9 450.31 8.29 480.32 11.52 511.87C13.03 526.75 17.07 540.76 23.13 553.54C23.15 553.55 23.18 553.6 23.24 553.69C23.25 553.72 23.33 553.83 23.46 554.05C23.51 554.12 23.74 554.44 24.17 555.04L28.02 560.07L39.74 569.97L52.63 577.59L66.55 583.49L86.77 587.76L105.04 587.76L116.95 585.81L128.13 582.42L136.94 578.85L150.96 570.85L164.37 559.44L171.66 552.07L176.87 544.69C177.68 543.24 178.13 542.44 178.22 542.28C177.49 541.86 177.09 541.62 177.01 541.57C175.66 543.09 174.89 543.93 174.74 544.1C174.48 545.06 174.32 545.59 174.31 545.69C175.24 544.34 176.16 542.97 177.01 541.57Z" id="a10XVqsaT"></path><path d="M177.01 541.57C176.23 542.15 175.41 542.68 174.61 543.23C167.02 548.31 158.61 552.33 149.59 555.08C143.74 556.86 137.64 558.11 131.3 558.76C119.04 560.01 107.06 558.89 95.86 555.76C59.13 545.47 30.63 513.64 26.53 473.42C24.82 456.73 27.55 440.59 33.71 426.17C16.9 450.31 8.29 480.32 11.52 511.87C13.03 526.75 17.07 540.76 23.13 553.54C23.15 553.55 23.18 553.6 23.24 553.69C23.25 553.72 23.33 553.83 23.46 554.05C23.51 554.12 23.74 554.44 24.17 555.04L28.02 560.07L39.74 569.97L52.63 577.59L66.55 583.49L86.77 587.76L105.04 587.76L116.95 585.81L128.13 582.42L136.94 578.85L150.96 570.85L164.37 559.44L171.66 552.07L176.87 544.69C177.68 543.24 178.13 542.44 178.22 542.28C177.49 541.86 177.09 541.62 177.01 541.57C175.66 543.09 174.89 543.93 174.74 544.1C174.48 545.06 174.32 545.59 174.31 545.69C175.24 544.34 176.16 542.97 177.01 541.57Z" id="a19csjzuvr"></path><path d="M177.01 541.57C176.23 542.15 175.41 542.68 174.61 543.23C167.02 548.31 158.61 552.33 149.59 555.08C143.74 556.86 137.64 558.11 131.3 558.76C119.04 560.01 107.06 558.89 95.86 555.76C59.13 545.47 30.63 513.64 26.53 473.42C24.82 456.73 27.55 440.59 33.71 426.17C16.9 450.31 8.29 480.32 11.52 511.87C13.03 526.75 17.07 540.76 23.13 553.54C23.15 553.55 23.18 553.6 23.24 553.69C23.25 553.72 23.33 553.83 23.46 554.05C23.51 554.12 23.74 554.44 24.17 555.04L28.02 560.07L39.74 569.97L52.63 577.59L66.55 583.49L86.77 587.76L105.04 587.76L116.95 585.81L128.13 582.42L136.94 578.85L150.96 570.85L164.37 559.44L171.66 552.07L176.87 544.69C177.68 543.24 178.13 542.44 178.22 542.28C177.49 541.86 177.09 541.62 177.01 541.57C175.66 543.09 174.89 543.93 174.74 544.1C174.48 545.06 174.32 545.59 174.31 545.69C175.24 544.34 176.16 542.97 177.01 541.57Z" id="b1n7OsjGp4"></path><path d="M177.01 541.57C176.23 542.15 175.41 542.68 174.61 543.23C167.02 548.31 158.61 552.33 149.59 555.08C143.74 556.86 137.64 558.11 131.3 558.76C119.04 560.01 107.06 558.89 95.86 555.76C59.13 545.47 30.63 513.64 26.53 473.42C24.82 456.73 27.55 440.59 33.71 426.17C16.9 450.31 8.29 480.32 11.52 511.87C13.03 526.75 17.07 540.76 23.13 553.54C23.15 553.55 23.18 553.6 23.24 553.69C23.25 553.72 23.33 553.83 23.46 554.05C23.51 554.12 23.74 554.44 24.17 555.04L28.02 560.07L39.74 569.97L52.63 577.59L66.55 583.49L86.77 587.76L105.04 587.76L116.95 585.81L128.13 582.42L136.94 578.85L150.96 570.85L164.37 559.44L171.66 552.07L176.87 544.69C177.68 543.24 178.13 542.44 178.22 542.28C177.49 541.86 177.09 541.62 177.01 541.57C175.66 543.09 174.89 543.93 174.74 544.1C174.48 545.06 174.32 545.59 174.31 545.69C175.24 544.34 176.16 542.97 177.01 541.57Z" id="p2ucpS4n9i"></path><path d="M177.01 541.57C176.23 542.15 175.41 542.68 174.61 543.23C167.02 548.31 158.61 552.33 149.59 555.08C143.74 556.86 137.64 558.11 131.3 558.76C119.04 560.01 107.06 558.89 95.86 555.76C59.13 545.47 30.63 513.64 26.53 473.42C24.82 456.73 27.55 440.59 33.71 426.17C16.9 450.31 8.29 480.32 11.52 511.87C13.03 526.75 17.07 540.76 23.13 553.54C23.15 553.55 23.18 553.6 23.24 553.69C23.25 553.72 23.33 553.83 23.46 554.05C23.51 554.12 23.74 554.44 24.17 555.04L28.02 560.07L39.74 569.97L52.63 577.59L66.55 583.49L86.77 587.76L105.04 587.76L116.95 585.81L128.13 582.42L136.94 578.85L150.96 570.85L164.37 559.44L171.66 552.07L176.87 544.69C177.68 543.24 178.13 542.44 178.22 542.28C177.49 541.86 177.09 541.62 177.01 541.57C175.66 543.09 174.89 543.93 174.74 544.1C174.48 545.06 174.32 545.59 174.31 545.69C175.24 544.34 176.16 542.97 177.01 541.57Z" id="aBNCjnzdT"></path><path d="M158.36 563.49C148.12 572.4 135.92 579.18 122.36 583.11C116.93 584.69 111.25 585.81 105.41 586.4C73.05 589.7 42.83 576.46 23.13 553.54C45.61 600.88 96.11 631.26 151.22 625.64C177.65 622.94 201.32 612.39 220.2 596.51C219.94 596.15 218.69 594.37 216.42 591.15C214.86 588.94 207.1 577.92 193.09 558.07C184.91 546.46 180.52 540.25 179.93 539.41C178.97 540.14 178 540.87 177.01 541.57C171.95 549.76 165.65 557.17 158.36 563.49Z" id="a1eEJba5Sk"></path><path d="M158.36 563.49C148.12 572.4 135.92 579.18 122.36 583.11C116.93 584.69 111.25 585.81 105.41 586.4C73.05 589.7 42.83 576.46 23.13 553.54C45.61 600.88 96.11 631.26 151.22 625.64C177.65 622.94 201.32 612.39 220.2 596.51C219.94 596.15 218.69 594.37 216.42 591.15C214.86 588.94 207.1 577.92 193.09 558.07C184.91 546.46 180.52 540.25 179.93 539.41C178.97 540.14 178 540.87 177.01 541.57C171.95 549.76 165.65 557.17 158.36 563.49Z" id="bqFGoZA5Z"></path><path d="M158.36 563.49C148.12 572.4 135.92 579.18 122.36 583.11C116.93 584.69 111.25 585.81 105.41 586.4C73.05 589.7 42.83 576.46 23.13 553.54C45.61 600.88 96.11 631.26 151.22 625.64C177.65 622.94 201.32 612.39 220.2 596.51C219.94 596.15 218.69 594.37 216.42 591.15C214.86 588.94 207.1 577.92 193.09 558.07C184.91 546.46 180.52 540.25 179.93 539.41C178.97 540.14 178 540.87 177.01 541.57C171.95 549.76 165.65 557.17 158.36 563.49Z" id="e1ebwuRZk"></path><path d="M158.36 563.49C148.12 572.4 135.92 579.18 122.36 583.11C116.93 584.69 111.25 585.81 105.41 586.4C73.05 589.7 42.83 576.46 23.13 553.54C45.61 600.88 96.11 631.26 151.22 625.64C177.65 622.94 201.32 612.39 220.2 596.51C219.94 596.15 218.69 594.37 216.42 591.15C214.86 588.94 207.1 577.92 193.09 558.07C184.91 546.46 180.52 540.25 179.93 539.41C178.97 540.14 178 540.87 177.01 541.57C171.95 549.76 165.65 557.17 158.36 563.49Z" id="a7MjRXeRTA"></path><path d="M158.36 563.49C148.12 572.4 135.92 579.18 122.36 583.11C116.93 584.69 111.25 585.81 105.41 586.4C73.05 589.7 42.83 576.46 23.13 553.54C45.61 600.88 96.11 631.26 151.22 625.64C177.65 622.94 201.32 612.39 220.2 596.51C219.94 596.15 218.69 594.37 216.42 591.15C214.86 588.94 207.1 577.92 193.09 558.07C184.91 546.46 180.52 540.25 179.93 539.41C178.97 540.14 178 540.87 177.01 541.57C171.95 549.76 165.65 557.17 158.36 563.49Z" id="a75os2gcKO"></path><path d="M158.36 563.49C148.12 572.4 135.92 579.18 122.36 583.11C116.93 584.69 111.25 585.81 105.41 586.4C73.05 589.7 42.83 576.46 23.13 553.54C45.61 600.88 96.11 631.26 151.22 625.64C177.65 622.94 201.32 612.39 220.2 596.51C219.94 596.15 218.69 594.37 216.42 591.15C214.86 588.94 207.1 577.92 193.09 558.07C184.91 546.46 180.52 540.25 179.93 539.41C178.97 540.14 178 540.87 177.01 541.57C171.95 549.76 165.65 557.17 158.36 563.49Z" id="j1zAESVaHx"></path><path d="M158.36 563.49C148.12 572.4 135.92 579.18 122.36 583.11C116.93 584.69 111.25 585.81 105.41 586.4C73.05 589.7 42.83 576.46 23.13 553.54C45.61 600.88 96.11 631.26 151.22 625.64C177.65 622.94 201.32 612.39 220.2 596.51C219.94 596.15 218.69 594.37 216.42 591.15C214.86 588.94 207.1 577.92 193.09 558.07C184.91 546.46 180.52 540.25 179.93 539.41C178.97 540.14 178 540.87 177.01 541.57C171.95 549.76 165.65 557.17 158.36 563.49Z" id="cqJiHMGQk"></path><path d="M158.36 563.49C148.12 572.4 135.92 579.18 122.36 583.11C116.93 584.69 111.25 585.81 105.41 586.4C73.05 589.7 42.83 576.46 23.13 553.54C45.61 600.88 96.11 631.26 151.22 625.64C177.65 622.94 201.32 612.39 220.2 596.51C219.94 596.15 218.69 594.37 216.42 591.15C214.86 588.94 207.1 577.92 193.09 558.07C184.91 546.46 180.52 540.25 179.93 539.41C178.97 540.14 178 540.87 177.01 541.57C171.95 549.76 165.65 557.17 158.36 563.49Z" id="a1m8nT2Fyd"></path><path d="M251.42 537.16C248.41 507.67 222.04 486.21 192.53 489.21C188.07 489.67 183.77 490.65 179.74 492.12C165.16 497.35 153.73 508.64 148.08 522.68C148.09 522.68 148.1 522.71 148.1 522.71C148.96 522.62 155.86 521.91 156.72 521.83C159.85 521.87 175.5 522.15 203.66 522.65C204.19 523.59 206.82 528.3 211.57 536.79C217.6 553.2 220.95 562.31 221.62 564.13C215.17 580.96 211.57 590.3 210.85 592.17C209.71 599.96 209.07 604.31 208.94 605.17C221.91 596.58 233.16 585.72 242.16 573.21C242.16 573.21 242.15 573.19 242.15 573.19C249.17 563.02 252.77 550.42 251.42 537.16" id="a2kFQsmzIZ"></path><path d="M251.42 537.16C248.41 507.67 222.04 486.21 192.53 489.21C188.07 489.67 183.77 490.65 179.74 492.12C165.16 497.35 153.73 508.64 148.08 522.68C148.09 522.68 148.1 522.71 148.1 522.71C148.96 522.62 155.86 521.91 156.72 521.83C159.85 521.87 175.5 522.15 203.66 522.65C204.19 523.59 206.82 528.3 211.57 536.79C217.6 553.2 220.95 562.31 221.62 564.13C215.17 580.96 211.57 590.3 210.85 592.17C209.71 599.96 209.07 604.31 208.94 605.17C221.91 596.58 233.16 585.72 242.16 573.21C242.16 573.21 242.15 573.19 242.15 573.19C249.17 563.02 252.77 550.42 251.42 537.16" id="a11exSchNU"></path><path d="M251.42 537.16C248.41 507.67 222.04 486.21 192.53 489.21C188.07 489.67 183.77 490.65 179.74 492.12C165.16 497.35 153.73 508.64 148.08 522.68C148.09 522.68 148.1 522.71 148.1 522.71C148.96 522.62 155.86 521.91 156.72 521.83C159.85 521.87 175.5 522.15 203.66 522.65C204.19 523.59 206.82 528.3 211.57 536.79C217.6 553.2 220.95 562.31 221.62 564.13C215.17 580.96 211.57 590.3 210.85 592.17C209.71 599.96 209.07 604.31 208.94 605.17C221.91 596.58 233.16 585.72 242.16 573.21C242.16 573.21 242.15 573.19 242.15 573.19C249.17 563.02 252.77 550.42 251.42 537.16" id="bxKR7FsZy"></path><path d="M251.42 537.16C248.41 507.67 222.04 486.21 192.53 489.21C188.07 489.67 183.77 490.65 179.74 492.12C165.16 497.35 153.73 508.64 148.08 522.68C148.09 522.68 148.1 522.71 148.1 522.71C148.96 522.62 155.86 521.91 156.72 521.83C159.85 521.87 175.5 522.15 203.66 522.65C204.19 523.59 206.82 528.3 211.57 536.79C217.6 553.2 220.95 562.31 221.62 564.13C215.17 580.96 211.57 590.3 210.85 592.17C209.71 599.96 209.07 604.31 208.94 605.17C221.91 596.58 233.16 585.72 242.16 573.21C242.16 573.21 242.15 573.19 242.15 573.19C249.17 563.02 252.77 550.42 251.42 537.16" id="m2NscrbIhc"></path><path d="M251.42 537.16C248.41 507.67 222.04 486.21 192.53 489.21C188.07 489.67 183.77 490.65 179.74 492.12C165.16 497.35 153.73 508.64 148.08 522.68C148.09 522.68 148.1 522.71 148.1 522.71C148.96 522.62 155.86 521.91 156.72 521.83C159.85 521.87 175.5 522.15 203.66 522.65C204.19 523.59 206.82 528.3 211.57 536.79C217.6 553.2 220.95 562.31 221.62 564.13C215.17 580.96 211.57 590.3 210.85 592.17C209.71 599.96 209.07 604.31 208.94 605.17C221.91 596.58 233.16 585.72 242.16 573.21C242.16 573.21 242.15 573.19 242.15 573.19C249.17 563.02 252.77 550.42 251.42 537.16" id="a6UDBWhb5"></path><path d="M251.42 537.16C248.41 507.67 222.04 486.21 192.53 489.21C188.07 489.67 183.77 490.65 179.74 492.12C165.16 497.35 153.73 508.64 148.08 522.68C148.09 522.68 148.1 522.71 148.1 522.71C148.96 522.62 155.86 521.91 156.72 521.83C159.85 521.87 175.5 522.15 203.66 522.65C204.19 523.59 206.82 528.3 211.57 536.79C217.6 553.2 220.95 562.31 221.62 564.13C215.17 580.96 211.57 590.3 210.85 592.17C209.71 599.96 209.07 604.31 208.94 605.17C221.91 596.58 233.16 585.72 242.16 573.21C242.16 573.21 242.15 573.19 242.15 573.19C249.17 563.02 252.77 550.42 251.42 537.16" id="aHErme3Dz"></path><path d="M251.42 537.16C248.41 507.67 222.04 486.21 192.53 489.21C188.07 489.67 183.77 490.65 179.74 492.12C165.16 497.35 153.73 508.64 148.08 522.68C148.09 522.68 148.1 522.71 148.1 522.71C148.96 522.62 155.86 521.91 156.72 521.83C159.85 521.87 175.5 522.15 203.66 522.65C204.19 523.59 206.82 528.3 211.57 536.79C217.6 553.2 220.95 562.31 221.62 564.13C215.17 580.96 211.57 590.3 210.85 592.17C209.71 599.96 209.07 604.31 208.94 605.17C221.91 596.58 233.16 585.72 242.16 573.21C242.16 573.21 242.15 573.19 242.15 573.19C249.17 563.02 252.77 550.42 251.42 537.16" id="l9FcPc9c5"></path><path d="M251.42 537.16C248.41 507.67 222.04 486.21 192.53 489.21C188.07 489.67 183.77 490.65 179.74 492.12C165.16 497.35 153.73 508.64 148.08 522.68C148.09 522.68 148.1 522.71 148.1 522.71C148.96 522.62 155.86 521.91 156.72 521.83C159.85 521.87 175.5 522.15 203.66 522.65C204.19 523.59 206.82 528.3 211.57 536.79C217.6 553.2 220.95 562.31 221.62 564.13C215.17 580.96 211.57 590.3 210.85 592.17C209.71 599.96 209.07 604.31 208.94 605.17C221.91 596.58 233.16 585.72 242.16 573.21C242.16 573.21 242.15 573.19 242.15 573.19C249.17 563.02 252.77 550.42 251.42 537.16" id="g1UAr9ZpPS"></path><path d="M172.06 513.88C163.13 514.79 154.98 517.94 148.1 522.71C169.08 529.61 184.17 544.53 186.07 563.16C188.01 582.25 175.57 600.36 155.53 611.3C145.89 616.57 134.48 620.18 122.05 621.45C115.95 622.07 109.98 622.09 104.23 621.56C119.2 625.76 135.19 627.28 151.59 625.6C167.89 623.94 183.14 619.29 196.86 612.22C201.04 610.09 205.07 607.74 208.94 605.17C222.29 594.67 230.13 577.79 228.29 559.66C225.41 531.5 200.24 511 172.06 513.88" id="adteQgSV4"></path><path d="M172.06 513.88C163.13 514.79 154.98 517.94 148.1 522.71C169.08 529.61 184.17 544.53 186.07 563.16C188.01 582.25 175.57 600.36 155.53 611.3C145.89 616.57 134.48 620.18 122.05 621.45C115.95 622.07 109.98 622.09 104.23 621.56C119.2 625.76 135.19 627.28 151.59 625.6C167.89 623.94 183.14 619.29 196.86 612.22C201.04 610.09 205.07 607.74 208.94 605.17C222.29 594.67 230.13 577.79 228.29 559.66C225.41 531.5 200.24 511 172.06 513.88" id="daALQuqOa"></path><path d="M172.06 513.88C163.13 514.79 154.98 517.94 148.1 522.71C169.08 529.61 184.17 544.53 186.07 563.16C188.01 582.25 175.57 600.36 155.53 611.3C145.89 616.57 134.48 620.18 122.05 621.45C115.95 622.07 109.98 622.09 104.23 621.56C119.2 625.76 135.19 627.28 151.59 625.6C167.89 623.94 183.14 619.29 196.86 612.22C201.04 610.09 205.07 607.74 208.94 605.17C222.29 594.67 230.13 577.79 228.29 559.66C225.41 531.5 200.24 511 172.06 513.88" id="a1cSbUsLph"></path><path d="M172.06 513.88C163.13 514.79 154.98 517.94 148.1 522.71C169.08 529.61 184.17 544.53 186.07 563.16C188.01 582.25 175.57 600.36 155.53 611.3C145.89 616.57 134.48 620.18 122.05 621.45C115.95 622.07 109.98 622.09 104.23 621.56C119.2 625.76 135.19 627.28 151.59 625.6C167.89 623.94 183.14 619.29 196.86 612.22C201.04 610.09 205.07 607.74 208.94 605.17C222.29 594.67 230.13 577.79 228.29 559.66C225.41 531.5 200.24 511 172.06 513.88" id="aQVByRQws"></path><path d="M172.06 513.88C163.13 514.79 154.98 517.94 148.1 522.71C169.08 529.61 184.17 544.53 186.07 563.16C188.01 582.25 175.57 600.36 155.53 611.3C145.89 616.57 134.48 620.18 122.05 621.45C115.95 622.07 109.98 622.09 104.23 621.56C119.2 625.76 135.19 627.28 151.59 625.6C167.89 623.94 183.14 619.29 196.86 612.22C201.04 610.09 205.07 607.74 208.94 605.17C222.29 594.67 230.13 577.79 228.29 559.66C225.41 531.5 200.24 511 172.06 513.88" id="a2k9goJtro"></path><path d="M172.06 513.88C163.13 514.79 154.98 517.94 148.1 522.71C169.08 529.61 184.17 544.53 186.07 563.16C188.01 582.25 175.57 600.36 155.53 611.3C145.89 616.57 134.48 620.18 122.05 621.45C115.95 622.07 109.98 622.09 104.23 621.56C119.2 625.76 135.19 627.28 151.59 625.6C167.89 623.94 183.14 619.29 196.86 612.22C201.04 610.09 205.07 607.74 208.94 605.17C222.29 594.67 230.13 577.79 228.29 559.66C225.41 531.5 200.24 511 172.06 513.88" id="a60dzok9Zt"></path><path d="M172.06 513.88C163.13 514.79 154.98 517.94 148.1 522.71C169.08 529.61 184.17 544.53 186.07 563.16C188.01 582.25 175.57 600.36 155.53 611.3C145.89 616.57 134.48 620.18 122.05 621.45C115.95 622.07 109.98 622.09 104.23 621.56C119.2 625.76 135.19 627.28 151.59 625.6C167.89 623.94 183.14 619.29 196.86 612.22C201.04 610.09 205.07 607.74 208.94 605.17C222.29 594.67 230.13 577.79 228.29 559.66C225.41 531.5 200.24 511 172.06 513.88" id="bwCJ5vqDN"></path><path d="M172.06 513.88C163.13 514.79 154.98 517.94 148.1 522.71C169.08 529.61 184.17 544.53 186.07 563.16C188.01 582.25 175.57 600.36 155.53 611.3C145.89 616.57 134.48 620.18 122.05 621.45C115.95 622.07 109.98 622.09 104.23 621.56C119.2 625.76 135.19 627.28 151.59 625.6C167.89 623.94 183.14 619.29 196.86 612.22C201.04 610.09 205.07 607.74 208.94 605.17C222.29 594.67 230.13 577.79 228.29 559.66C225.41 531.5 200.24 511 172.06 513.88" id="afMwZ7fpP"></path><path d="M168.55 452.89C160.17 447.79 151.04 445.27 141.16 445.31C126.34 445.38 117.38 448.32 109.33 453.21C87.9 466.17 81.83 494.34 82.89 504.77C83.97 515.35 90.05 546.88 120.21 555.48C128.41 557.82 138.97 560.2 153.37 557.41C162.99 555.55 171.15 551.18 177.87 544.29C174.25 539.78 170.13 535.99 165.51 532.92C160.89 529.87 155.78 527.55 150.17 525.96C158.74 510.21 169.41 500.05 182.15 495.5C201.28 488.69 216.27 494.14 226.68 498.71C237.08 503.26 249.18 519.02 252.22 536.71C254 546.87 251.9 557.47 246 568.52C239.13 581.43 231.18 591.88 222.18 599.85C210.95 609.81 198.82 615.25 187.99 620.15C168.48 628.98 139.73 629.53 122.56 627.45C108.51 625.76 104.86 623.49 93.42 620.11C57.08 609.36 17.95 571.28 13.09 514.02C10.21 479.93 20.88 444.97 41.11 421.89C49.56 412.27 59.33 397.21 88.67 385.82C118.03 374.43 138.36 373.73 158.53 376.32C176.07 378.56 191.81 384.1 205.78 392.87C213.72 399.96 218.93 406.79 221.41 413.33C225.39 423.78 221.87 433.79 218.05 439.94C214.4 445.84 205.02 454.79 194.18 456.73C186.66 458.1 178.13 456.8 168.55 452.89Z" id="a2qUb0FlVA"></path><path d="M168.55 452.89C160.17 447.79 151.04 445.27 141.16 445.31C126.34 445.38 117.38 448.32 109.33 453.21C87.9 466.17 81.83 494.34 82.89 504.77C83.97 515.35 90.05 546.88 120.21 555.48C128.41 557.82 138.97 560.2 153.37 557.41C162.99 555.55 171.15 551.18 177.87 544.29C174.25 539.78 170.13 535.99 165.51 532.92C160.89 529.87 155.78 527.55 150.17 525.96C158.74 510.21 169.41 500.05 182.15 495.5C201.28 488.69 216.27 494.14 226.68 498.71C237.08 503.26 249.18 519.02 252.22 536.71C254 546.87 251.9 557.47 246 568.52C239.13 581.43 231.18 591.88 222.18 599.85C210.95 609.81 198.82 615.25 187.99 620.15C168.48 628.98 139.73 629.53 122.56 627.45C108.51 625.76 104.86 623.49 93.42 620.11C57.08 609.36 17.95 571.28 13.09 514.02C10.21 479.93 20.88 444.97 41.11 421.89C49.56 412.27 59.33 397.21 88.67 385.82C118.03 374.43 138.36 373.73 158.53 376.32C176.07 378.56 191.81 384.1 205.78 392.87C213.72 399.96 218.93 406.79 221.41 413.33C225.39 423.78 221.87 433.79 218.05 439.94C214.4 445.84 205.02 454.79 194.18 456.73C186.66 458.1 178.13 456.8 168.55 452.89Z" id="b34dKchwE"></path><path d="M168.55 452.89C160.17 447.79 151.04 445.27 141.16 445.31C126.34 445.38 117.38 448.32 109.33 453.21C87.9 466.17 81.83 494.34 82.89 504.77C83.97 515.35 90.05 546.88 120.21 555.48C128.41 557.82 138.97 560.2 153.37 557.41C162.99 555.55 171.15 551.18 177.87 544.29C174.25 539.78 170.13 535.99 165.51 532.92C160.89 529.87 155.78 527.55 150.17 525.96C158.74 510.21 169.41 500.05 182.15 495.5C201.28 488.69 216.27 494.14 226.68 498.71C237.08 503.26 249.18 519.02 252.22 536.71C254 546.87 251.9 557.47 246 568.52C239.13 581.43 231.18 591.88 222.18 599.85C210.95 609.81 198.82 615.25 187.99 620.15C168.48 628.98 139.73 629.53 122.56 627.45C108.51 625.76 104.86 623.49 93.42 620.11C57.08 609.36 17.95 571.28 13.09 514.02C10.21 479.93 20.88 444.97 41.11 421.89C49.56 412.27 59.33 397.21 88.67 385.82C118.03 374.43 138.36 373.73 158.53 376.32C176.07 378.56 191.81 384.1 205.78 392.87C213.72 399.96 218.93 406.79 221.41 413.33C225.39 423.78 221.87 433.79 218.05 439.94C214.4 445.84 205.02 454.79 194.18 456.73C186.66 458.1 178.13 456.8 168.55 452.89Z" id="a21V0y5lnv"></path><path d="M168.55 452.89C160.17 447.79 151.04 445.27 141.16 445.31C126.34 445.38 117.38 448.32 109.33 453.21C87.9 466.17 81.83 494.34 82.89 504.77C83.97 515.35 90.05 546.88 120.21 555.48C128.41 557.82 138.97 560.2 153.37 557.41C162.99 555.55 171.15 551.18 177.87 544.29C174.25 539.78 170.13 535.99 165.51 532.92C160.89 529.87 155.78 527.55 150.17 525.96C158.74 510.21 169.41 500.05 182.15 495.5C201.28 488.69 216.27 494.14 226.68 498.71C237.08 503.26 249.18 519.02 252.22 536.71C254 546.87 251.9 557.47 246 568.52C239.13 581.43 231.18 591.88 222.18 599.85C210.95 609.81 198.82 615.25 187.99 620.15C168.48 628.98 139.73 629.53 122.56 627.45C108.51 625.76 104.86 623.49 93.42 620.11C57.08 609.36 17.95 571.28 13.09 514.02C10.21 479.93 20.88 444.97 41.11 421.89C49.56 412.27 59.33 397.21 88.67 385.82C118.03 374.43 138.36 373.73 158.53 376.32C176.07 378.56 191.81 384.1 205.78 392.87C213.72 399.96 218.93 406.79 221.41 413.33C225.39 423.78 221.87 433.79 218.05 439.94C214.4 445.84 205.02 454.79 194.18 456.73C186.66 458.1 178.13 456.8 168.55 452.89Z" id="a1UoRlJT9M"></path></defs><g><g><g><g><use xlink:href="#bBbTs0EId" opacity="1" fill="#30304c" fill-opacity="1"></use><g><use xlink:href="#bBbTs0EId" opacity="1" fill-opacity="0" stroke="#000000" stroke-width="1" stroke-opacity="0"></use></g></g><g><use xlink:href="#c2c2oYmYcw" opacity="1" fill="#2f3e78" fill-opacity="1"></use><g><use xlink:href="#c2c2oYmYcw" opacity="1" fill-opacity="0" stroke="#000000" stroke-width="1" stroke-opacity="0"></use></g></g><g><use xlink:href="#b49zSodMX" opacity="1" fill="#2f3e78" fill-opacity="1"></use><g><use xlink:href="#b49zSodMX" opacity="1" fill-opacity="0" stroke="#000000" stroke-width="1" stroke-opacity="0"></use></g></g><g><use xlink:href="#b86Yiuxq2S" opacity="1" fill="#2f3e78" fill-opacity="1"></use><g><use xlink:href="#b86Yiuxq2S" opacity="1" fill-opacity="0" stroke="#2f3e78" stroke-width="1" stroke-opacity="0"></use></g></g><g><use xlink:href="#bqbp7hqWh" opacity="1" fill="#000000" fill-opacity="1"></use><g><use xlink:href="#bqbp7hqWh" opacity="1" fill-opacity="0" stroke="#000000" stroke-width="1" stroke-opacity="0"></use></g></g><g><use xlink:href="#c307RbdVCY" opacity="1" fill="#000000" fill-opacity="1"></use><g><use xlink:href="#c307RbdVCY" opacity="1" fill-opacity="0" stroke="#000000" stroke-width="1" stroke-opacity="0"></use></g></g><g><use xlink:href="#ac5nOzB2K" opacity="1" fill="#000000" fill-opacity="1"></use><g><use xlink:href="#ac5nOzB2K" opacity="1" fill-opacity="0" stroke="#000000" stroke-width="1" stroke-opacity="0"></use></g></g><g><use xlink:href="#b1bSl5IBWB" opacity="1" fill="#000000" fill-opacity="1"></use><g><use xlink:href="#b1bSl5IBWB" opacity="1" fill-opacity="0" stroke="#000000" stroke-width="1" stroke-opacity="0"></use></g></g><g><use xlink:href="#b3AGEkQ1CM" opacity="1" fill="#000000" fill-opacity="1"></use><g><use xlink:href="#b3AGEkQ1CM" opacity="1" fill-opacity="0" stroke="#000000" stroke-width="1" stroke-opacity="0"></use></g></g><g><use xlink:href="#aj4DA37ci" opacity="1" fill="#000000" fill-opacity="1"></use><g><use xlink:href="#aj4DA37ci" opacity="1" fill-opacity="0" stroke="#000000" stroke-width="1" stroke-opacity="0"></use></g></g><g><use xlink:href="#a2Bu490PCe" opacity="1" fill="#000000" fill-opacity="1"></use><g><use xlink:href="#a2Bu490PCe" opacity="1" fill-opacity="0" stroke="#000000" stroke-width="1" stroke-opacity="0"></use></g></g><g><use xlink:href="#aqcWlXKSB" opacity="1" fill="#000000" fill-opacity="1"></use><g><use xlink:href="#aqcWlXKSB" opacity="1" fill-opacity="0" stroke="#000000" stroke-width="1" stroke-opacity="0"></use></g></g><g><use xlink:href="#bbSKWR80u" opacity="1" fill="#000000" fill-opacity="1"></use><g><use xlink:href="#bbSKWR80u" opacity="1" fill-opacity="0" stroke="#000000" stroke-width="1" stroke-opacity="0"></use></g></g><g><use xlink:href="#i3UvnWoX5U" opacity="1" fill="#000000" fill-opacity="1"></use><g><use xlink:href="#i3UvnWoX5U" opacity="1" fill-opacity="0" stroke="#000000" stroke-width="1" stroke-opacity="0"></use></g></g><g><use xlink:href="#a5FExwX5U" opacity="1" fill="#000000" fill-opacity="1"></use><g><use xlink:href="#a5FExwX5U" opacity="1" fill-opacity="0" stroke="#000000" stroke-width="1" stroke-opacity="0"></use></g></g><g><use xlink:href="#bEBWqO3NH" opacity="1" fill="#000000" fill-opacity="1"></use><g><use xlink:href="#bEBWqO3NH" opacity="1" fill-opacity="0" stroke="#000000" stroke-width="1" stroke-opacity="0"></use></g></g><g><use xlink:href="#csG0EBKjt" opacity="1" fill="#000000" fill-opacity="1"></use><g><use xlink:href="#csG0EBKjt" opacity="1" fill-opacity="0" stroke="#000000" stroke-width="1" stroke-opacity="0"></use></g></g><g><use xlink:href="#a1MxGm8vpp" opacity="1" fill="#000000" fill-opacity="1"></use><g><use xlink:href="#a1MxGm8vpp" opacity="1" fill-opacity="0" stroke="#000000" stroke-width="1" stroke-opacity="0"></use></g></g><g><use xlink:href="#aaschAZKB" opacity="1" fill="#000000" fill-opacity="1"></use><g><use xlink:href="#aaschAZKB" opacity="1" fill-opacity="0" stroke="#000000" stroke-width="1" stroke-opacity="0"></use></g></g><g><use xlink:href="#j4GbB0s0O7" opacity="1" fill="#000000" fill-opacity="1"></use><g><use xlink:href="#j4GbB0s0O7" opacity="1" fill-opacity="0" stroke="#000000" stroke-width="1" stroke-opacity="0"></use></g></g><g><use xlink:href="#b18HdDdjvq" opacity="1" fill="#000000" fill-opacity="1"></use><g><use xlink:href="#b18HdDdjvq" opacity="1" fill-opacity="0" stroke="#000000" stroke-width="1" stroke-opacity="0"></use></g></g><g><use xlink:href="#k2svtLDXq" opacity="1" fill="#000000" fill-opacity="1"></use><g><use xlink:href="#k2svtLDXq" opacity="1" fill-opacity="0" stroke="#000000" stroke-width="1" stroke-opacity="0"></use></g></g><g><use xlink:href="#c4BfVzFC5q" opacity="1" fill="#000000" fill-opacity="1"></use><g><use xlink:href="#c4BfVzFC5q" opacity="1" fill-opacity="0" stroke="#000000" stroke-width="1" stroke-opacity="0"></use></g></g></g><g><g><use xlink:href="#c1N7EIdQH" opacity="1" fill="#244d89" fill-opacity="1"></use><g><use xlink:href="#c1N7EIdQH" opacity="1" fill-opacity="0" stroke="#000000" stroke-width="1" stroke-opacity="0"></use></g></g><g><use xlink:href="#bcLl7Xec" opacity="1" fill="#000000" fill-opacity="0"></use><g><use xlink:href="#bcLl7Xec" opacity="1" fill-opacity="0" stroke="#000000" stroke-width="1" stroke-opacity="0"></use></g></g><g><use xlink:href="#b3FaNg5gvi" opacity="1" fill="#000000" fill-opacity="0"></use><g><use xlink:href="#b3FaNg5gvi" opacity="1" fill-opacity="0" stroke="#000000" stroke-width="1" stroke-opacity="0"></use></g></g><g><use xlink:href="#ci9kQLWox" opacity="1" fill="#000000" fill-opacity="0"></use><g><use xlink:href="#ci9kQLWox" opacity="1" fill-opacity="0" stroke="#000000" stroke-width="1" stroke-opacity="0"></use></g></g><g><use xlink:href="#d6n5ONvXO" opacity="1" fill="#000000" fill-opacity="0"></use><g><use xlink:href="#d6n5ONvXO" opacity="1" fill-opacity="0" stroke="#000000" stroke-width="1" stroke-opacity="0"></use></g></g><g><use xlink:href="#cnZEw4eBD" opacity="1" fill="#000000" fill-opacity="0"></use><g><use xlink:href="#cnZEw4eBD" opacity="1" fill-opacity="0" stroke="#000000" stroke-width="1" stroke-opacity="0"></use></g></g><g><use xlink:href="#a1jVgzugTc" opacity="1" fill="#000000" fill-opacity="0"></use><g><use xlink:href="#a1jVgzugTc" opacity="1" fill-opacity="0" stroke="#000000" stroke-width="1" stroke-opacity="0"></use></g></g><g><use xlink:href="#b1jzQ7FowC" opacity="1" fill="#000000" fill-opacity="0"></use><g><use xlink:href="#b1jzQ7FowC" opacity="1" fill-opacity="0" stroke="#000000" stroke-width="1" stroke-opacity="0"></use></g></g><g><use xlink:href="#g27NgmhRPf" opacity="1" fill="#3fc2f0" fill-opacity="1"></use><g><use xlink:href="#g27NgmhRPf" opacity="1" fill-opacity="0" stroke="#000000" stroke-width="1" stroke-opacity="0"></use></g></g><g><use xlink:href="#buQ3d0de8" opacity="1" fill="#000000" fill-opacity="0"></use><g><use xlink:href="#buQ3d0de8" opacity="1" fill-opacity="0" stroke="#000000" stroke-width="1" stroke-opacity="0"></use></g></g><g><use xlink:href="#fCN0CqDeE" opacity="1" fill="#000000" fill-opacity="0"></use><g><use xlink:href="#fCN0CqDeE" opacity="1" fill-opacity="0" stroke="#000000" stroke-width="1" stroke-opacity="0"></use></g></g><g><use xlink:href="#bCvXTUAHk" opacity="1" fill="#000000" fill-opacity="0"></use><g><use xlink:href="#bCvXTUAHk" opacity="1" fill-opacity="0" stroke="#000000" stroke-width="1" stroke-opacity="0"></use></g></g><g><use xlink:href="#b6jfbJUKMg" opacity="1" fill="#000000" fill-opacity="0"></use><g><use xlink:href="#b6jfbJUKMg" opacity="1" fill-opacity="0" stroke="#000000" stroke-width="1" stroke-opacity="0"></use></g></g><g><use xlink:href="#b2wIj88NHY" opacity="1" fill="#000000" fill-opacity="0"></use><g><use xlink:href="#b2wIj88NHY" opacity="1" fill-opacity="0" stroke="#000000" stroke-width="1" stroke-opacity="0"></use></g></g><g><use xlink:href="#f1dQbQvcY9" opacity="1" fill="#000000" fill-opacity="0"></use><g><use xlink:href="#f1dQbQvcY9" opacity="1" fill-opacity="0" stroke="#000000" stroke-width="1" stroke-opacity="0"></use></g></g><g><use xlink:href="#afbKSTFu2" opacity="1" fill="#000000" fill-opacity="0"></use><g><use xlink:href="#afbKSTFu2" opacity="1" fill-opacity="0" stroke="#000000" stroke-width="1" stroke-opacity="0"></use></g></g><g><use xlink:href="#a47sSgYjui" opacity="1" fill="#2c84bd" fill-opacity="1"></use><g><use xlink:href="#a47sSgYjui" opacity="1" fill-opacity="0" stroke="#000000" stroke-width="1" stroke-opacity="0"></use></g></g><g><use xlink:href="#bZJVgSZ" opacity="1" fill="#000000" fill-opacity="0"></use><g><use xlink:href="#bZJVgSZ" opacity="1" fill-opacity="0" stroke="#000000" stroke-width="1" stroke-opacity="0"></use></g></g><g><use xlink:href="#b3pJWzfV9S" opacity="1" fill="#000000" fill-opacity="0"></use><g><use xlink:href="#b3pJWzfV9S" opacity="1" fill-opacity="0" stroke="#000000" stroke-width="1" stroke-opacity="0"></use></g></g><g><use xlink:href="#aR5JwmJcG" opacity="1" fill="#000000" fill-opacity="0"></use><g><use xlink:href="#aR5JwmJcG" opacity="1" fill-opacity="0" stroke="#000000" stroke-width="1" stroke-opacity="0"></use></g></g><g><use xlink:href="#a15vrhs4SN" opacity="1" fill="#000000" fill-opacity="0"></use><g><use xlink:href="#a15vrhs4SN" opacity="1" fill-opacity="0" stroke="#000000" stroke-width="1" stroke-opacity="0"></use></g></g><g><use xlink:href="#bO6x2jIAe" opacity="1" fill="#000000" fill-opacity="0"></use><g><use xlink:href="#bO6x2jIAe" opacity="1" fill-opacity="0" stroke="#000000" stroke-width="1" stroke-opacity="0"></use></g></g><g><use xlink:href="#a2hUJ68HdW" opacity="1" fill="#000000" fill-opacity="0"></use><g><use xlink:href="#a2hUJ68HdW" opacity="1" fill-opacity="0" stroke="#000000" stroke-width="1" stroke-opacity="0"></use></g></g><g><use xlink:href="#a1bKvHyrd" opacity="1" fill="#000000" fill-opacity="0"></use><g><use xlink:href="#a1bKvHyrd" opacity="1" fill-opacity="0" stroke="#000000" stroke-width="1" stroke-opacity="0"></use></g></g><g><use xlink:href="#d18TOee7XE" opacity="1" fill="#38589a" fill-opacity="1"></use><g><use xlink:href="#d18TOee7XE" opacity="1" fill-opacity="0" stroke="#000000" stroke-width="1" stroke-opacity="0"></use></g></g><g><use xlink:href="#b1pYMVNAog" opacity="1" fill="#000000" fill-opacity="0"></use><g><use xlink:href="#b1pYMVNAog" opacity="1" fill-opacity="0" stroke="#000000" stroke-width="1" stroke-opacity="0"></use></g></g><g><use xlink:href="#i9XG9thGx" opacity="1" fill="#000000" fill-opacity="0"></use><g><use xlink:href="#i9XG9thGx" opacity="1" fill-opacity="0" stroke="#000000" stroke-width="1" stroke-opacity="0"></use></g></g><g><use xlink:href="#a10XVqsaT" opacity="1" fill="#000000" fill-opacity="0"></use><g><use xlink:href="#a10XVqsaT" opacity="1" fill-opacity="0" stroke="#000000" stroke-width="1" stroke-opacity="0"></use></g></g><g><use xlink:href="#a19csjzuvr" opacity="1" fill="#000000" fill-opacity="0"></use><g><use xlink:href="#a19csjzuvr" opacity="1" fill-opacity="0" stroke="#000000" stroke-width="1" stroke-opacity="0"></use></g></g><g><use xlink:href="#b1n7OsjGp4" opacity="1" fill="#000000" fill-opacity="0"></use><g><use xlink:href="#b1n7OsjGp4" opacity="1" fill-opacity="0" stroke="#000000" stroke-width="1" stroke-opacity="0"></use></g></g><g><use xlink:href="#p2ucpS4n9i" opacity="1" fill="#000000" fill-opacity="0"></use><g><use xlink:href="#p2ucpS4n9i" opacity="1" fill-opacity="0" stroke="#000000" stroke-width="1" stroke-opacity="0"></use></g></g><g><use xlink:href="#aBNCjnzdT" opacity="1" fill="#000000" fill-opacity="0"></use><g><use xlink:href="#aBNCjnzdT" opacity="1" fill-opacity="0" stroke="#000000" stroke-width="1" stroke-opacity="0"></use></g></g><g><use xlink:href="#a1eEJba5Sk" opacity="1" fill="#244d89" fill-opacity="1"></use><g><use xlink:href="#a1eEJba5Sk" opacity="1" fill-opacity="0" stroke="#000000" stroke-width="1" stroke-opacity="0"></use></g></g><g><use xlink:href="#bqFGoZA5Z" opacity="1" fill="#000000" fill-opacity="0"></use><g><use xlink:href="#bqFGoZA5Z" opacity="1" fill-opacity="0" stroke="#000000" stroke-width="1" stroke-opacity="0"></use></g></g><g><use xlink:href="#e1ebwuRZk" opacity="1" fill="#000000" fill-opacity="0"></use><g><use xlink:href="#e1ebwuRZk" opacity="1" fill-opacity="0" stroke="#000000" stroke-width="1" stroke-opacity="0"></use></g></g><g><use xlink:href="#a7MjRXeRTA" opacity="1" fill="#000000" fill-opacity="0"></use><g><use xlink:href="#a7MjRXeRTA" opacity="1" fill-opacity="0" stroke="#000000" stroke-width="1" stroke-opacity="0"></use></g></g><g><use xlink:href="#a75os2gcKO" opacity="1" fill="#000000" fill-opacity="0"></use><g><use xlink:href="#a75os2gcKO" opacity="1" fill-opacity="0" stroke="#000000" stroke-width="1" stroke-opacity="0"></use></g></g><g><use xlink:href="#j1zAESVaHx" opacity="1" fill="#000000" fill-opacity="0"></use><g><use xlink:href="#j1zAESVaHx" opacity="1" fill-opacity="0" stroke="#000000" stroke-width="1" stroke-opacity="0"></use></g></g><g><use xlink:href="#cqJiHMGQk" opacity="1" fill="#000000" fill-opacity="0"></use><g><use xlink:href="#cqJiHMGQk" opacity="1" fill-opacity="0" stroke="#000000" stroke-width="1" stroke-opacity="0"></use></g></g><g><use xlink:href="#a1m8nT2Fyd" opacity="1" fill="#000000" fill-opacity="0"></use><g><use xlink:href="#a1m8nT2Fyd" opacity="1" fill-opacity="0" stroke="#000000" stroke-width="1" stroke-opacity="0"></use></g></g><g><use xlink:href="#a2kFQsmzIZ" opacity="1" fill="#3fc2f0" fill-opacity="1"></use><g><use xlink:href="#a2kFQsmzIZ" opacity="1" fill-opacity="0" stroke="#000000" stroke-width="1" stroke-opacity="0"></use></g></g><g><use xlink:href="#a11exSchNU" opacity="1" fill="#000000" fill-opacity="0"></use><g><use xlink:href="#a11exSchNU" opacity="1" fill-opacity="0" stroke="#000000" stroke-width="1" stroke-opacity="0"></use></g></g><g><use xlink:href="#bxKR7FsZy" opacity="1" fill="#000000" fill-opacity="0"></use><g><use xlink:href="#bxKR7FsZy" opacity="1" fill-opacity="0" stroke="#000000" stroke-width="1" stroke-opacity="0"></use></g></g><g><use xlink:href="#m2NscrbIhc" opacity="1" fill="#000000" fill-opacity="0"></use><g><use xlink:href="#m2NscrbIhc" opacity="1" fill-opacity="0" stroke="#000000" stroke-width="1" stroke-opacity="0"></use></g></g><g><use xlink:href="#a6UDBWhb5" opacity="1" fill="#000000" fill-opacity="0"></use><g><use xlink:href="#a6UDBWhb5" opacity="1" fill-opacity="0" stroke="#000000" stroke-width="1" stroke-opacity="0"></use></g></g><g><use xlink:href="#aHErme3Dz" opacity="1" fill="#000000" fill-opacity="0"></use><g><use xlink:href="#aHErme3Dz" opacity="1" fill-opacity="0" stroke="#000000" stroke-width="1" stroke-opacity="0"></use></g></g><g><use xlink:href="#l9FcPc9c5" opacity="1" fill="#000000" fill-opacity="0"></use><g><use xlink:href="#l9FcPc9c5" opacity="1" fill-opacity="0" stroke="#000000" stroke-width="1" stroke-opacity="0"></use></g></g><g><use xlink:href="#g1UAr9ZpPS" opacity="1" fill="#000000" fill-opacity="0"></use><g><use xlink:href="#g1UAr9ZpPS" opacity="1" fill-opacity="0" stroke="#000000" stroke-width="1" stroke-opacity="0"></use></g></g><g><use xlink:href="#adteQgSV4" opacity="1" fill="#2c84bd" fill-opacity="1"></use><g><use xlink:href="#adteQgSV4" opacity="1" fill-opacity="0" stroke="#000000" stroke-width="1" stroke-opacity="0"></use></g></g><g><use xlink:href="#daALQuqOa" opacity="1" fill="#000000" fill-opacity="0"></use><g><use xlink:href="#daALQuqOa" opacity="1" fill-opacity="0" stroke="#000000" stroke-width="1" stroke-opacity="0"></use></g></g><g><use xlink:href="#a1cSbUsLph" opacity="1" fill="#000000" fill-opacity="0"></use><g><use xlink:href="#a1cSbUsLph" opacity="1" fill-opacity="0" stroke="#000000" stroke-width="1" stroke-opacity="0"></use></g></g><g><use xlink:href="#aQVByRQws" opacity="1" fill="#000000" fill-opacity="0"></use><g><use xlink:href="#aQVByRQws" opacity="1" fill-opacity="0" stroke="#000000" stroke-width="1" stroke-opacity="0"></use></g></g><g><use xlink:href="#a2k9goJtro" opacity="1" fill="#000000" fill-opacity="0"></use><g><use xlink:href="#a2k9goJtro" opacity="1" fill-opacity="0" stroke="#000000" stroke-width="1" stroke-opacity="0"></use></g></g><g><use xlink:href="#a60dzok9Zt" opacity="1" fill="#000000" fill-opacity="0"></use><g><use xlink:href="#a60dzok9Zt" opacity="1" fill-opacity="0" stroke="#000000" stroke-width="1" stroke-opacity="0"></use></g></g><g><use xlink:href="#bwCJ5vqDN" opacity="1" fill="#000000" fill-opacity="0"></use><g><use xlink:href="#bwCJ5vqDN" opacity="1" fill-opacity="0" stroke="#000000" stroke-width="1" stroke-opacity="0"></use></g></g><g><use xlink:href="#afMwZ7fpP" opacity="1" fill="#000000" fill-opacity="0"></use><g><use xlink:href="#afMwZ7fpP" opacity="1" fill-opacity="0" stroke="#000000" stroke-width="1" stroke-opacity="0"></use></g></g><g><use xlink:href="#a2qUb0FlVA" opacity="1" fill="#000000" fill-opacity="0"></use><g><use xlink:href="#a2qUb0FlVA" opacity="1" fill-opacity="0" stroke="#000000" stroke-width="1" stroke-opacity="0"></use></g></g><g><use xlink:href="#b34dKchwE" opacity="1" fill="#000000" fill-opacity="0"></use><g><use xlink:href="#b34dKchwE" opacity="1" fill-opacity="0" stroke="#000000" stroke-width="1" stroke-opacity="0"></use></g></g><g><use xlink:href="#a21V0y5lnv" opacity="1" fill="#000000" fill-opacity="0"></use><g><use xlink:href="#a21V0y5lnv" opacity="1" fill-opacity="0" stroke="#000000" stroke-width="14" stroke-opacity="1"></use></g></g><g><use xlink:href="#a1UoRlJT9M" opacity="1" fill="#000000" fill-opacity="0"></use><g><use xlink:href="#a1UoRlJT9M" opacity="1" fill-opacity="0" stroke="#000000" stroke-width="1" stroke-opacity="0"></use></g></g></g></g></g></svg>