<svg id="svg" version="1.1" width="515" height="511" xmlns="http://www.w3.org/2000/svg" xmlns:xlink="http://www.w3.org/1999/xlink" style="display: block;"><g id="svgg"><path id="path0" d="M189.247 100.253 C 144.655 144.849,121.000 169.195,121.000 170.495 C 121.000 173.157,167.755 220.000,170.412 220.000 C 171.618 220.000,188.211 204.166,214.688 177.750 C 237.979 154.512,257.944 135.354,259.055 135.176 C 260.575 134.931,271.614 145.381,303.734 177.471 L 346.394 220.091 370.197 196.303 C 385.487 181.023,394.000 171.797,394.000 170.505 C 394.000 169.177,370.823 145.319,325.747 100.247 L 257.495 32.000 189.247 100.253 M59.250 229.773 C 42.855 246.336,36.000 253.920,36.000 255.496 C 36.000 258.396,82.398 305.000,85.285 305.000 C 86.487 305.000,96.316 295.919,111.059 281.188 L 134.891 257.377 109.188 231.688 C 95.052 217.560,83.264 206.064,82.993 206.143 C 82.722 206.221,72.037 216.855,59.250 229.773 M231.705 231.693 L 205.969 257.278 231.737 283.042 L 257.506 308.806 283.270 283.038 L 309.034 257.270 283.458 231.885 C 269.391 217.923,257.783 206.412,257.662 206.304 C 257.540 206.196,245.860 217.621,231.705 231.693 M407.742 229.758 C 392.585 244.925,384.000 254.239,384.000 255.515 C 384.000 258.274,430.794 305.013,433.508 304.964 C 434.748 304.942,444.493 295.950,459.312 281.154 L 483.125 257.378 457.388 231.689 C 443.233 217.560,431.614 206.000,431.568 206.000 C 431.522 206.000,420.800 216.691,407.742 229.758 M144.173 318.797 L 120.846 342.340 189.170 410.670 C 229.583 451.087,258.239 479.000,259.316 479.000 C 261.930 479.000,394.000 346.827,394.000 344.211 C 394.000 341.267,347.487 295.000,344.527 295.000 C 342.933 295.000,330.322 306.972,299.904 337.361 L 257.503 379.722 215.098 337.361 C 179.936 302.236,172.249 295.022,170.096 295.127 C 168.110 295.224,162.017 300.788,144.173 318.797 " stroke="none" fill="#000000" fill-rule="evenodd"></path></g></svg>