<svg id="svg" version="1.1" width="515" height="515" xmlns="http://www.w3.org/2000/svg" xmlns:xlink="http://www.w3.org/1999/xlink" style="display: block;"><g id="svgg"><path id="path0" d="M245.000 14.878 C 245.000 15.910,244.325 17.315,243.500 18.000 C 242.630 18.722,242.000 20.904,242.000 23.194 C 242.000 25.371,241.327 27.816,240.500 28.643 C 239.675 29.468,239.000 31.884,239.000 34.012 C 239.000 36.141,238.550 38.160,238.000 38.500 C 237.450 38.840,237.000 41.061,237.000 43.437 C 237.000 46.055,236.410 48.245,235.500 49.000 C 234.590 49.755,234.000 51.945,234.000 54.563 C 234.000 56.939,233.550 59.160,233.000 59.500 C 232.450 59.840,232.000 62.068,232.000 64.452 C 232.000 67.306,231.507 68.975,230.557 69.340 C 229.644 69.690,229.001 71.658,228.807 74.697 L 228.500 79.500 222.910 79.795 C 218.814 80.011,216.977 79.677,216.037 78.545 C 215.238 77.582,213.106 77.000,210.378 77.000 C 207.970 77.000,206.000 76.550,206.000 76.000 C 206.000 75.450,204.411 75.000,202.469 75.000 C 200.252 75.000,198.723 74.441,198.362 73.500 C 197.958 72.449,196.320 72.000,192.893 72.000 C 190.202 72.000,188.000 71.550,188.000 71.000 C 188.000 70.444,185.323 70.000,181.969 70.000 C 177.530 70.000,175.785 69.604,175.362 68.500 C 175.012 67.590,173.500 67.000,171.515 67.000 C 169.717 67.000,167.685 66.325,167.000 65.500 C 166.240 64.585,164.049 64.000,161.378 64.000 C 158.970 64.000,157.000 63.550,157.000 63.000 C 157.000 62.450,155.030 62.000,152.622 62.000 C 149.919 62.000,147.761 61.417,146.979 60.475 C 145.206 58.338,142.000 61.273,142.000 65.033 C 142.000 66.530,141.325 68.315,140.500 69.000 C 139.597 69.750,139.000 71.938,139.000 74.500 C 139.000 77.062,138.403 79.250,137.500 80.000 C 136.590 80.755,136.000 82.945,136.000 85.563 C 136.000 87.939,135.550 90.160,135.000 90.500 C 134.450 90.840,134.000 93.068,134.000 95.452 C 134.000 98.382,133.514 99.972,132.500 100.362 C 127.989 102.093,132.931 108.000,138.889 108.000 C 141.106 108.000,143.286 108.640,144.000 109.500 C 144.755 110.410,146.945 111.000,149.563 111.000 C 151.939 111.000,154.160 111.450,154.500 112.000 C 154.840 112.550,157.061 113.000,159.437 113.000 C 162.055 113.000,164.245 113.590,165.000 114.500 C 165.685 115.325,167.090 116.000,168.122 116.000 C 169.155 116.000,170.000 116.450,170.000 117.000 C 170.000 117.550,170.822 118.000,171.826 118.000 C 174.043 118.000,178.000 122.009,178.000 124.255 C 178.000 125.150,178.450 126.160,179.000 126.500 C 179.550 126.840,180.000 128.294,180.000 129.730 C 180.000 131.167,180.736 133.156,181.636 134.150 C 183.151 135.824,183.151 136.005,181.636 136.586 C 180.470 137.034,180.000 138.458,180.000 141.548 C 180.000 143.932,179.550 146.160,179.000 146.500 C 178.450 146.840,178.000 149.806,178.000 153.090 C 178.000 157.477,177.602 159.216,176.500 159.638 C 175.486 160.028,175.000 161.618,175.000 164.548 C 175.000 166.932,174.550 169.160,174.000 169.500 C 173.450 169.840,173.000 171.409,173.000 172.988 C 173.000 174.566,172.325 176.532,171.500 177.357 C 170.534 178.323,170.000 180.796,170.000 184.306 C 170.000 187.930,169.498 190.172,168.500 191.000 C 167.585 191.760,167.000 193.951,167.000 196.622 C 167.000 199.030,166.550 201.000,166.000 201.000 C 165.450 201.000,165.000 202.970,165.000 205.378 C 165.000 208.049,164.415 210.240,163.500 211.000 C 162.590 211.755,162.000 213.945,162.000 216.563 C 162.000 218.939,161.550 221.160,161.000 221.500 C 160.450 221.840,160.000 224.131,160.000 226.590 C 160.000 229.643,159.524 231.245,158.500 231.638 C 157.449 232.042,157.000 233.680,157.000 237.107 C 157.000 239.798,156.550 242.000,156.000 242.000 C 155.450 242.000,155.000 243.970,155.000 246.378 C 155.000 249.049,154.415 251.240,153.500 252.000 C 152.597 252.750,152.000 254.938,152.000 257.500 C 152.000 260.062,151.403 262.250,150.500 263.000 C 149.585 263.760,149.000 265.951,149.000 268.622 C 149.000 271.030,148.550 273.000,148.000 273.000 C 147.450 273.000,147.000 274.970,147.000 277.378 C 147.000 280.049,146.415 282.240,145.500 283.000 C 144.590 283.755,144.000 285.945,144.000 288.563 C 144.000 290.939,143.550 293.160,143.000 293.500 C 142.450 293.840,142.000 296.131,142.000 298.590 C 142.000 301.643,141.524 303.245,140.500 303.638 C 139.456 304.039,139.000 305.668,139.000 309.000 C 139.000 312.332,138.544 313.961,137.500 314.362 C 136.476 314.755,136.000 316.357,136.000 319.410 C 136.000 321.869,135.550 324.160,135.000 324.500 C 134.450 324.840,134.000 326.353,134.000 327.863 C 134.000 334.030,128.702 337.000,117.702 337.000 C 111.901 337.000,108.000 336.598,108.000 336.000 C 108.000 335.450,106.030 335.000,103.622 335.000 C 100.951 335.000,98.760 334.415,98.000 333.500 C 97.257 332.605,95.071 332.000,92.578 332.000 C 90.280 332.000,87.911 331.511,87.313 330.913 C 85.929 329.529,82.000 332.672,82.000 335.163 C 82.000 336.109,81.550 337.160,81.000 337.500 C 80.450 337.840,80.000 339.006,80.000 340.090 C 80.000 341.175,79.325 342.322,78.500 342.638 C 77.574 342.994,77.000 344.513,77.000 346.607 C 77.000 348.473,76.550 350.000,76.000 350.000 C 75.450 350.000,75.000 350.845,75.000 351.878 C 75.000 352.910,74.325 354.315,73.500 355.000 C 72.675 355.685,72.000 357.063,72.000 358.063 C 72.000 359.064,71.550 360.160,71.000 360.500 C 70.450 360.840,70.000 362.386,70.000 363.937 C 70.000 365.487,69.325 367.315,68.500 368.000 C 67.675 368.685,67.000 370.042,67.000 371.015 C 67.000 371.989,66.296 373.056,65.436 373.386 C 61.364 374.949,64.148 380.477,69.170 380.802 C 71.739 380.967,74.382 381.755,75.043 382.552 C 75.757 383.412,78.020 384.000,80.622 384.000 C 83.030 384.000,85.000 384.450,85.000 385.000 C 85.000 385.550,86.970 386.000,89.378 386.000 C 92.049 386.000,94.240 386.585,95.000 387.500 C 95.755 388.410,97.945 389.000,100.563 389.000 C 102.939 389.000,105.160 389.450,105.500 390.000 C 105.840 390.550,108.131 391.000,110.590 391.000 C 113.643 391.000,115.245 391.476,115.638 392.500 C 116.039 393.544,117.668 394.000,121.000 394.000 C 124.332 394.000,125.961 394.456,126.362 395.500 C 126.751 396.514,128.341 397.000,131.269 397.000 C 133.651 397.000,136.028 397.422,136.550 397.937 C 137.073 398.452,139.525 399.015,142.000 399.187 L 146.500 399.500 146.795 405.090 C 147.011 409.186,146.677 411.023,145.545 411.963 C 144.588 412.757,144.000 414.889,144.000 417.563 C 144.000 419.939,143.550 422.160,143.000 422.500 C 142.450 422.840,142.000 425.131,142.000 427.590 C 142.000 430.643,141.524 432.245,140.500 432.638 C 139.491 433.026,139.000 434.611,139.000 437.485 C 139.000 440.061,138.405 442.249,137.500 443.000 C 136.590 443.755,136.000 445.945,136.000 448.563 C 136.000 450.939,135.550 453.160,135.000 453.500 C 134.450 453.840,134.000 456.094,134.000 458.509 C 134.000 461.474,133.486 463.188,132.418 463.786 C 130.106 465.080,130.917 470.375,133.500 470.853 C 134.600 471.056,135.860 471.848,136.300 472.611 C 136.791 473.464,138.795 474.000,141.491 474.000 C 143.906 474.000,146.160 474.450,146.500 475.000 C 146.840 475.550,149.061 476.000,151.437 476.000 C 154.055 476.000,156.245 476.590,157.000 477.500 C 157.750 478.403,159.938 479.000,162.500 479.000 C 165.124 479.000,167.248 479.594,168.042 480.551 C 170.854 483.939,174.471 481.948,174.802 476.830 C 174.967 474.261,175.755 471.618,176.552 470.957 C 177.412 470.243,178.000 467.980,178.000 465.378 C 178.000 462.970,178.450 461.000,179.000 461.000 C 179.550 461.000,180.000 458.798,180.000 456.107 C 180.000 452.680,180.449 451.042,181.500 450.638 C 182.524 450.245,183.000 448.643,183.000 445.590 C 183.000 443.131,183.450 440.840,184.000 440.500 C 184.550 440.160,185.000 437.939,185.000 435.563 C 185.000 432.945,185.590 430.755,186.500 430.000 C 187.405 429.249,188.000 427.061,188.000 424.485 C 188.000 421.611,188.491 420.026,189.500 419.638 C 190.441 419.277,191.000 417.748,191.000 415.531 C 191.000 411.930,192.323 410.792,193.362 413.500 C 193.755 414.524,195.357 415.000,198.410 415.000 C 200.869 415.000,203.160 415.450,203.500 416.000 C 203.840 416.550,206.061 417.000,208.437 417.000 C 211.055 417.000,213.245 417.590,214.000 418.500 C 214.760 419.415,216.951 420.000,219.622 420.000 C 224.339 420.000,225.692 422.351,222.500 425.000 C 221.590 425.755,221.000 427.945,221.000 430.563 C 221.000 432.939,220.550 435.160,220.000 435.500 C 219.450 435.840,219.000 438.131,219.000 440.590 C 219.000 443.643,218.524 445.245,217.500 445.638 C 216.486 446.028,216.000 447.618,216.000 450.548 C 216.000 452.932,215.550 455.160,215.000 455.500 C 214.450 455.840,214.000 458.061,214.000 460.437 C 214.000 463.055,213.410 465.245,212.500 466.000 C 211.590 466.755,211.000 468.945,211.000 471.563 C 211.000 473.939,210.550 476.160,210.000 476.500 C 209.450 476.840,209.000 479.094,209.000 481.509 C 209.000 484.534,208.491 486.185,207.365 486.816 C 204.544 488.395,209.117 492.000,213.941 492.000 C 216.109 492.000,218.160 492.450,218.500 493.000 C 218.840 493.550,221.061 494.000,223.437 494.000 C 226.055 494.000,228.245 494.590,229.000 495.500 C 229.750 496.403,231.938 497.000,234.500 497.000 C 237.062 497.000,239.250 497.597,240.000 498.500 C 241.815 500.687,248.907 500.502,249.604 498.250 C 249.902 497.288,250.563 495.719,251.073 494.764 C 251.583 493.809,252.000 491.951,252.000 490.636 C 252.000 489.321,252.675 487.685,253.500 487.000 C 254.522 486.152,255.000 483.882,255.000 479.878 C 255.000 476.626,255.447 474.000,256.000 474.000 C 256.550 474.000,257.000 472.030,257.000 469.622 C 257.000 466.951,257.585 464.760,258.500 464.000 C 259.325 463.315,260.000 461.283,260.000 459.485 C 260.000 457.500,260.590 455.988,261.500 455.638 C 262.524 455.245,263.000 453.643,263.000 450.590 C 263.000 448.131,263.450 445.840,264.000 445.500 C 264.550 445.160,265.000 442.434,265.000 439.441 C 265.000 433.206,268.320 428.034,270.184 431.365 C 270.904 432.650,272.694 433.000,278.550 433.000 C 282.850 433.000,286.000 433.423,286.000 434.000 C 286.000 434.605,290.293 435.000,296.878 435.000 C 305.327 435.000,308.033 435.335,309.000 436.500 C 310.811 438.682,333.189 438.682,335.000 436.500 C 335.912 435.401,338.334 435.000,344.063 435.000 C 348.364 435.000,352.160 434.550,352.500 434.000 C 352.840 433.450,354.386 433.000,355.937 433.000 C 357.487 433.000,359.315 432.325,360.000 431.500 C 360.685 430.675,362.717 430.000,364.515 430.000 C 366.500 430.000,368.012 429.410,368.362 428.500 C 368.678 427.675,369.825 427.000,370.910 427.000 C 371.994 427.000,373.160 426.550,373.500 426.000 C 373.840 425.450,375.006 425.000,376.090 425.000 C 377.175 425.000,378.322 424.325,378.638 423.500 C 378.955 422.675,379.962 422.000,380.876 422.000 C 382.938 422.000,402.000 403.023,402.000 400.969 C 402.000 400.147,403.125 398.630,404.500 397.597 C 405.875 396.565,407.000 394.909,407.000 393.919 C 407.000 392.928,407.450 391.840,408.000 391.500 C 408.550 391.160,409.000 389.994,409.000 388.910 C 409.000 387.825,409.675 386.678,410.500 386.362 C 411.325 386.045,412.000 384.989,412.000 384.015 C 412.000 383.042,412.675 381.685,413.500 381.000 C 414.325 380.315,415.000 378.910,415.000 377.878 C 415.000 376.845,415.450 376.000,416.000 376.000 C 416.550 376.000,417.000 374.480,417.000 372.622 C 417.000 370.765,417.675 368.685,418.500 368.000 C 419.415 367.240,420.000 365.049,420.000 362.378 C 420.000 359.970,420.450 358.000,421.000 358.000 C 421.634 358.000,422.000 350.520,422.000 337.559 C 422.000 325.010,421.614 316.879,421.000 316.500 C 420.450 316.160,420.000 314.614,420.000 313.063 C 420.000 311.513,419.325 309.685,418.500 309.000 C 417.675 308.315,417.000 307.074,417.000 306.242 C 417.000 305.410,415.875 303.687,414.500 302.412 C 413.125 301.138,412.000 299.502,412.000 298.776 C 412.000 296.899,395.783 281.000,393.869 281.000 C 392.995 281.000,391.435 279.875,390.403 278.500 C 389.370 277.125,387.811 276.000,386.937 276.000 C 386.063 276.000,384.363 274.951,383.159 273.669 C 380.422 270.756,382.640 268.000,387.722 268.000 C 389.523 268.000,391.023 267.382,391.362 266.500 C 391.678 265.675,392.825 265.000,393.910 265.000 C 394.994 265.000,396.160 264.550,396.500 264.000 C 396.840 263.450,397.836 263.000,398.714 263.000 C 399.592 263.000,401.980 261.245,404.020 259.099 C 406.061 256.954,408.574 255.036,409.604 254.838 C 410.634 254.639,411.639 253.634,411.838 252.604 C 412.036 251.574,413.954 249.061,416.099 247.020 C 418.245 244.980,420.000 242.592,420.000 241.714 C 420.000 240.836,420.450 239.840,421.000 239.500 C 421.550 239.160,422.000 237.994,422.000 236.910 C 422.000 235.825,422.675 234.678,423.500 234.362 C 424.325 234.045,425.000 232.961,425.000 231.952 C 425.000 230.943,425.450 229.840,426.000 229.500 C 426.550 229.160,427.000 227.614,427.000 226.063 C 427.000 224.513,427.675 222.685,428.500 222.000 C 429.403 221.250,430.000 219.062,430.000 216.500 C 430.000 213.938,430.597 211.750,431.500 211.000 C 433.690 209.182,433.690 184.818,431.500 183.000 C 430.590 182.245,430.000 180.055,430.000 177.437 C 430.000 175.061,429.578 172.858,429.063 172.539 C 427.877 171.806,425.000 166.092,425.000 164.469 C 425.000 163.796,424.325 162.685,423.500 162.000 C 422.675 161.315,422.000 160.146,422.000 159.402 C 422.000 157.695,400.315 136.000,398.609 136.000 C 397.916 136.000,396.292 134.875,395.000 133.500 C 393.708 132.125,391.900 131.000,390.981 131.000 C 390.062 131.000,388.492 130.097,387.493 128.993 C 385.522 126.814,380.435 124.000,378.469 124.000 C 377.796 124.000,376.685 123.325,376.000 122.500 C 375.315 121.675,373.958 121.000,372.985 121.000 C 372.011 121.000,370.955 120.325,370.638 119.500 C 370.277 118.559,368.748 118.000,366.531 118.000 C 364.589 118.000,363.000 117.550,363.000 117.000 C 363.000 116.450,362.155 116.000,361.122 116.000 C 360.090 116.000,358.685 115.325,358.000 114.500 C 357.315 113.675,355.397 113.000,353.738 113.000 C 352.037 113.000,350.141 112.236,349.392 111.250 C 347.837 109.201,347.542 103.000,349.000 103.000 C 349.550 103.000,350.000 100.798,350.000 98.107 C 350.000 94.680,350.449 93.042,351.500 92.638 C 352.524 92.245,353.000 90.643,353.000 87.590 C 353.000 85.131,353.450 82.840,354.000 82.500 C 354.550 82.160,355.000 79.939,355.000 77.563 C 355.000 74.945,355.590 72.755,356.500 72.000 C 357.415 71.240,358.000 69.049,358.000 66.378 C 358.000 63.970,358.450 62.000,359.000 62.000 C 359.550 62.000,360.000 60.030,360.000 57.622 C 360.000 54.891,360.582 52.762,361.548 51.960 C 364.123 49.823,363.132 41.590,360.250 41.180 C 359.012 41.005,358.000 40.442,358.000 39.930 C 358.000 39.419,356.411 39.000,354.469 39.000 C 352.252 39.000,350.723 38.441,350.362 37.500 C 349.961 36.456,348.332 36.000,345.000 36.000 C 341.668 36.000,340.039 35.544,339.638 34.500 C 339.215 33.396,337.470 33.000,333.031 33.000 C 329.448 33.000,327.000 32.570,327.000 31.940 C 327.000 31.326,325.421 31.010,323.250 31.190 C 319.572 31.494,319.494 31.587,319.187 36.000 C 319.015 38.475,318.452 40.928,317.937 41.450 C 317.422 41.973,317.000 44.287,317.000 46.593 C 317.000 49.398,316.503 50.977,315.500 51.362 C 314.476 51.755,314.000 53.357,314.000 56.410 C 314.000 58.869,313.550 61.160,313.000 61.500 C 312.450 61.840,312.000 64.061,312.000 66.437 C 312.000 69.055,311.410 71.245,310.500 72.000 C 309.597 72.750,309.000 74.938,309.000 77.500 C 309.000 80.062,308.403 82.250,307.500 83.000 C 306.675 83.685,306.000 85.771,306.000 87.636 C 306.000 89.501,305.583 91.809,305.073 92.764 C 304.563 93.719,303.902 95.287,303.604 96.250 C 302.942 98.390,299.431 98.567,298.638 96.500 C 298.215 95.396,296.470 95.000,292.031 95.000 C 288.677 95.000,286.000 94.556,286.000 94.000 C 286.000 93.450,283.975 93.000,281.500 93.000 C 274.390 93.000,268.580 81.910,274.500 79.638 C 275.524 79.245,276.000 77.643,276.000 74.590 C 276.000 72.131,276.450 69.840,277.000 69.500 C 277.550 69.160,278.000 66.939,278.000 64.563 C 278.000 61.945,278.590 59.755,279.500 59.000 C 280.415 58.240,281.000 56.049,281.000 53.378 C 281.000 50.970,281.450 49.000,282.000 49.000 C 282.550 49.000,283.000 46.798,283.000 44.107 C 283.000 40.680,283.449 39.042,284.500 38.638 C 285.524 38.245,286.000 36.643,286.000 33.590 C 286.000 31.131,286.450 28.840,287.000 28.500 C 290.678 26.227,286.631 21.000,281.194 21.000 C 278.904 21.000,276.722 20.370,276.000 19.500 C 275.250 18.597,273.062 18.000,270.500 18.000 C 267.938 18.000,265.750 17.403,265.000 16.500 C 264.245 15.590,262.055 15.000,259.437 15.000 C 257.061 15.000,254.840 14.550,254.500 14.000 C 253.279 12.025,245.000 12.790,245.000 14.878 M265.500 143.000 C 265.840 143.550,268.511 144.000,271.437 144.000 C 274.944 144.000,277.179 144.511,278.000 145.500 C 278.755 146.410,280.945 147.000,283.563 147.000 C 285.939 147.000,288.160 147.450,288.500 148.000 C 288.840 148.550,290.386 149.000,291.937 149.000 C 293.487 149.000,295.315 149.675,296.000 150.500 C 296.685 151.325,298.513 152.000,300.063 152.000 C 301.614 152.000,303.160 152.450,303.500 153.000 C 303.840 153.550,305.386 154.000,306.937 154.000 C 308.487 154.000,310.315 154.675,311.000 155.500 C 311.685 156.325,313.035 157.000,314.000 157.000 C 314.965 157.000,316.315 157.675,317.000 158.500 C 317.685 159.325,319.090 160.000,320.122 160.000 C 321.155 160.000,322.000 160.450,322.000 161.000 C 322.000 161.550,322.822 162.000,323.826 162.000 C 324.830 162.000,326.708 163.125,328.000 164.500 C 329.292 165.875,330.990 167.000,331.774 167.000 C 333.626 167.000,340.000 173.374,340.000 175.226 C 340.000 176.010,341.125 177.708,342.500 179.000 C 343.875 180.292,345.000 182.122,345.000 183.067 C 345.000 184.013,345.675 185.045,346.500 185.362 C 347.717 185.829,348.000 188.183,348.000 197.846 C 348.000 207.212,347.680 210.021,346.500 211.000 C 345.675 211.685,345.000 213.090,345.000 214.122 C 345.000 215.155,344.580 216.000,344.067 216.000 C 343.554 216.000,342.831 217.012,342.460 218.250 C 341.543 221.307,333.986 229.000,331.899 229.000 C 330.972 229.000,329.955 229.675,329.638 230.500 C 329.322 231.325,328.175 232.000,327.090 232.000 C 326.006 232.000,324.840 232.450,324.500 233.000 C 324.160 233.550,321.489 234.000,318.563 234.000 C 315.056 234.000,312.821 234.511,312.000 235.500 C 311.058 236.636,308.507 237.000,301.500 237.000 C 294.493 237.000,291.942 236.636,291.000 235.500 C 290.075 234.385,287.604 234.000,281.378 234.000 C 276.459 234.000,273.000 233.587,273.000 233.000 C 273.000 232.447,270.374 232.000,267.122 232.000 C 263.118 232.000,260.848 231.522,260.000 230.500 C 259.240 229.585,257.049 229.000,254.378 229.000 C 251.970 229.000,250.000 228.550,250.000 228.000 C 250.000 227.450,248.065 227.000,245.700 227.000 C 239.511 227.000,236.480 222.336,240.500 219.000 C 241.418 218.238,242.000 216.045,242.000 213.346 C 242.000 210.350,242.481 208.753,243.500 208.362 C 244.514 207.972,245.000 206.382,245.000 203.452 C 245.000 201.068,245.450 198.840,246.000 198.500 C 246.550 198.160,247.000 195.939,247.000 193.563 C 247.000 190.945,247.590 188.755,248.500 188.000 C 249.410 187.245,250.000 185.055,250.000 182.437 C 250.000 180.061,250.450 177.840,251.000 177.500 C 251.550 177.160,252.000 174.869,252.000 172.410 C 252.000 169.357,252.476 167.755,253.500 167.362 C 254.596 166.941,255.000 165.215,255.000 160.952 C 255.000 157.743,255.450 154.840,256.000 154.500 C 256.550 154.160,257.000 152.034,257.000 149.775 C 257.000 143.976,263.099 139.115,265.500 143.000 M236.578 270.000 C 239.071 270.000,241.257 270.605,242.000 271.500 C 242.722 272.370,244.904 273.000,247.194 273.000 C 249.371 273.000,251.816 273.673,252.643 274.500 C 253.468 275.325,255.884 276.000,258.012 276.000 C 260.141 276.000,262.160 276.450,262.500 277.000 C 262.840 277.550,265.061 278.000,267.437 278.000 C 270.055 278.000,272.245 278.590,273.000 279.500 C 273.685 280.325,275.513 281.000,277.063 281.000 C 278.614 281.000,280.160 281.450,280.500 282.000 C 280.840 282.550,281.936 283.000,282.937 283.000 C 283.937 283.000,285.315 283.675,286.000 284.500 C 286.685 285.325,288.513 286.000,290.063 286.000 C 291.614 286.000,293.160 286.450,293.500 287.000 C 293.840 287.550,295.006 288.000,296.090 288.000 C 297.175 288.000,298.322 288.675,298.638 289.500 C 298.955 290.325,300.011 291.000,300.985 291.000 C 301.958 291.000,303.315 291.675,304.000 292.500 C 304.685 293.325,305.884 294.000,306.666 294.000 C 307.448 294.000,309.301 295.125,310.783 296.500 C 312.266 297.875,313.945 299.000,314.515 299.000 C 317.220 299.000,332.000 316.213,332.000 319.364 C 332.000 320.129,332.675 321.315,333.500 322.000 C 334.655 322.958,335.000 325.604,335.000 333.500 C 335.000 341.396,334.655 344.042,333.500 345.000 C 332.675 345.685,332.000 347.513,332.000 349.063 C 332.000 350.614,331.550 352.160,331.000 352.500 C 330.450 352.840,330.000 353.864,330.000 354.775 C 330.000 356.982,321.040 366.000,318.847 366.000 C 317.896 366.000,316.840 366.450,316.500 367.000 C 316.160 367.550,315.057 368.000,314.048 368.000 C 313.039 368.000,311.955 368.675,311.638 369.500 C 311.277 370.441,309.748 371.000,307.531 371.000 C 305.589 371.000,304.000 371.450,304.000 372.000 C 304.000 372.639,295.167 373.000,279.500 373.000 C 263.833 373.000,255.000 372.639,255.000 372.000 C 255.000 371.422,251.823 371.000,247.469 371.000 C 241.697 371.000,239.803 370.650,239.362 369.500 C 238.972 368.486,237.382 368.000,234.452 368.000 C 232.068 368.000,229.840 367.550,229.500 367.000 C 229.160 366.450,226.939 366.000,224.563 366.000 C 221.945 366.000,219.755 365.410,219.000 364.500 C 218.269 363.619,216.085 363.000,213.706 363.000 C 207.333 363.000,202.317 354.627,207.500 352.638 C 208.524 352.245,209.000 350.643,209.000 347.590 C 209.000 345.131,209.450 342.840,210.000 342.500 C 210.550 342.160,211.000 339.939,211.000 337.563 C 211.000 334.945,211.590 332.755,212.500 332.000 C 213.415 331.240,214.000 329.049,214.000 326.378 C 214.000 323.970,214.450 322.000,215.000 322.000 C 215.550 322.000,216.000 320.030,216.000 317.622 C 216.000 314.951,216.585 312.760,217.500 312.000 C 218.410 311.245,219.000 309.055,219.000 306.437 C 219.000 304.061,219.450 301.840,220.000 301.500 C 220.550 301.160,221.000 298.939,221.000 296.563 C 221.000 293.945,221.590 291.755,222.500 291.000 C 223.405 290.249,224.000 288.061,224.000 285.485 C 224.000 282.611,224.491 281.026,225.500 280.638 C 226.504 280.253,227.000 278.673,227.000 275.860 C 227.000 271.250,229.585 267.185,231.376 268.976 C 231.939 269.539,234.280 270.000,236.578 270.000 " stroke="none" fill="#000000" fill-rule="evenodd"></path></g></svg>