<svg id="svg" version="1.1" width="515" height="515" xmlns="http://www.w3.org/2000/svg" xmlns:xlink="http://www.w3.org/1999/xlink" style="display: block;"><g id="svgg"><path id="path0" d="M22.200 22.200 C 20.453 23.947,20.453 491.053,22.200 492.800 C 23.947 494.547,491.053 494.547,492.800 492.800 C 494.547 491.053,494.547 23.947,492.800 22.200 C 491.053 20.453,23.947 20.453,22.200 22.200 M484.694 30.250 C 485.839 31.775,485.806 482.912,484.661 484.750 C 483.544 486.542,31.992 486.592,30.200 484.800 C 28.453 483.053,28.453 31.947,30.200 30.200 C 31.992 28.408,483.348 28.458,484.694 30.250 M153.667 115.667 C 153.300 116.033,153.000 181.283,153.000 260.667 L 153.000 405.000 243.893 405.000 C 323.764 405.000,334.856 404.818,335.362 403.500 C 335.784 402.398,337.523 402.000,341.910 402.000 C 345.194 402.000,348.160 401.550,348.500 401.000 C 348.840 400.450,349.936 400.000,350.937 400.000 C 351.937 400.000,353.315 399.325,354.000 398.500 C 354.685 397.675,356.042 397.000,357.015 397.000 C 357.989 397.000,359.045 396.325,359.362 395.500 C 359.678 394.675,360.773 394.000,361.794 394.000 C 362.816 394.000,364.686 392.899,365.950 391.553 C 367.214 390.208,369.205 388.970,370.374 388.803 C 371.642 388.622,372.621 387.654,372.799 386.405 C 372.964 385.253,374.876 382.574,377.049 380.452 C 379.222 378.330,381.000 375.834,381.000 374.904 C 381.000 373.975,381.675 372.955,382.500 372.638 C 383.435 372.280,384.000 370.754,384.000 368.590 C 384.000 366.681,384.450 364.840,385.000 364.500 C 385.550 364.160,386.000 361.939,386.000 359.563 C 386.000 356.945,386.590 354.755,387.500 354.000 C 388.769 352.947,389.000 348.396,389.000 324.500 C 389.000 300.604,388.769 296.053,387.500 295.000 C 386.675 294.315,386.000 292.235,386.000 290.378 C 386.000 288.520,385.550 287.000,385.000 287.000 C 384.450 287.000,384.000 286.155,384.000 285.122 C 384.000 284.090,383.325 282.685,382.500 282.000 C 381.675 281.315,381.000 280.033,381.000 279.151 C 381.000 277.027,367.015 263.000,364.897 263.000 C 363.989 263.000,362.685 262.325,362.000 261.500 C 361.315 260.675,359.235 260.000,357.378 260.000 C 355.520 260.000,354.000 259.550,354.000 259.000 C 354.000 258.450,352.002 258.000,349.559 258.000 C 347.116 258.000,344.822 257.522,344.461 256.937 C 343.313 255.079,347.109 252.000,350.548 252.000 C 352.504 252.000,354.014 251.406,354.362 250.500 C 354.678 249.675,355.825 249.000,356.910 249.000 C 357.994 249.000,359.160 248.550,359.500 248.000 C 359.840 247.450,360.896 247.000,361.847 247.000 C 364.005 247.000,373.000 237.998,373.000 235.838 C 373.000 234.962,373.675 233.685,374.500 233.000 C 375.325 232.315,376.000 230.910,376.000 229.878 C 376.000 228.845,376.450 228.000,377.000 228.000 C 377.550 228.000,378.000 226.480,378.000 224.622 C 378.000 222.765,378.675 220.685,379.500 220.000 C 380.612 219.077,381.000 216.618,381.000 210.500 C 381.000 204.382,381.388 201.923,382.500 201.000 C 383.636 200.058,384.000 197.507,384.000 190.500 C 384.000 183.493,383.636 180.942,382.500 180.000 C 381.388 179.077,381.000 176.618,381.000 170.500 C 381.000 164.382,380.612 161.923,379.500 161.000 C 378.590 160.245,378.000 158.055,378.000 155.437 C 378.000 153.061,377.550 150.840,377.000 150.500 C 376.450 150.160,376.000 149.064,376.000 148.063 C 376.000 147.063,375.325 145.685,374.500 145.000 C 373.675 144.315,373.000 143.098,373.000 142.294 C 373.000 140.392,355.497 123.000,353.583 123.000 C 352.777 123.000,351.840 122.550,351.500 122.000 C 351.160 121.450,349.319 121.000,347.410 121.000 C 345.246 121.000,343.720 120.435,343.362 119.500 C 342.961 118.456,341.332 118.000,338.000 118.000 C 334.668 118.000,333.039 117.544,332.638 116.500 C 332.033 114.922,155.235 114.099,153.667 115.667 M311.000 165.000 C 311.000 165.550,311.910 166.000,313.022 166.000 C 316.985 166.000,325.000 175.849,325.000 180.719 C 325.000 183.073,325.450 185.000,326.000 185.000 C 326.611 185.000,327.000 189.667,327.000 197.000 C 327.000 204.333,326.611 209.000,326.000 209.000 C 325.450 209.000,325.000 211.264,325.000 214.031 C 325.000 217.581,324.558 219.232,323.500 219.638 C 322.675 219.955,322.000 221.045,322.000 222.060 C 322.000 224.122,313.488 233.000,311.511 233.000 C 310.814 233.000,309.685 233.675,309.000 234.500 C 307.924 235.797,300.938 236.000,257.378 236.000 L 207.000 236.000 207.000 200.000 L 207.000 164.000 259.000 164.000 C 293.000 164.000,311.000 164.346,311.000 165.000 M309.000 280.500 C 309.755 281.410,311.945 282.000,314.563 282.000 C 316.939 282.000,319.160 282.450,319.500 283.000 C 319.840 283.550,320.751 284.000,321.526 284.000 C 324.134 284.000,330.000 290.861,330.000 293.911 C 330.000 295.475,330.675 297.315,331.500 298.000 C 332.744 299.032,333.000 302.733,333.000 319.654 C 333.000 336.873,332.766 340.153,331.500 340.638 C 330.675 340.955,330.000 341.938,330.000 342.823 C 330.000 345.044,320.990 354.000,318.756 354.000 C 317.756 354.000,316.678 354.675,316.362 355.500 C 315.910 356.677,313.882 357.000,306.952 357.000 C 302.093 357.000,297.840 357.450,297.500 358.000 C 296.422 359.744,210.186 359.329,208.429 357.571 C 206.115 355.258,206.327 283.401,208.655 280.829 C 210.967 278.274,306.891 277.959,309.000 280.500 " stroke="none" fill="#000000" fill-rule="evenodd"></path></g></svg>