<?xml version="1.0" encoding="UTF-8" standalone="no"?>
<!DOCTYPE svg PUBLIC "-//W3C//DTD SVG 1.1//EN" "http://www.w3.org/Graphics/SVG/1.1/DTD/svg11.dtd">
<svg version="1.1" xmlns="http://www.w3.org/2000/svg" xmlns:xlink="http://www.w3.org/1999/xlink" preserveAspectRatio="xMidYMid meet" viewBox="0 0 640 640" width="640" height="640"><defs><path d="M320 627.5C476.6 579.27 583.45 434.56 583.45 270.7C583.45 258.91 583.45 200 583.45 93.96L320 12.5L56.55 93.96C56.55 200 56.55 258.91 56.55 270.7C56.55 434.56 163.4 579.27 320 627.5C320 627.5 320 627.5 320 627.5C320 627.5 320 627.5 320 627.5Z" id="i1aTF1Z9yV"></path><path d="M116.55 270.7C116.55 402.83 197.55 518.51 320 564.15C442.45 518.51 523.45 402.83 523.45 270.7C523.45 261.44 523.45 215.18 523.45 131.9L320 78.92L116.55 131.9C116.55 215.18 116.55 261.44 116.55 270.7Z" id="acxpwdFtj"></path><path d="M221.91 218.33C207.81 218.33 196.39 229.76 196.39 243.85C196.39 247.93 196.39 268.33 196.39 305.05L444.94 305.05C444.94 268.33 444.94 247.93 444.94 243.85C444.94 229.76 433.51 218.33 419.42 218.33C379.91 218.33 241.66 218.33 221.91 218.33Z" id="f16zvfvL50"></path><path d="M196.39 363.64C196.39 403.08 228.36 435.05 267.8 435.05C278.38 435.05 362.95 435.05 373.52 435.05C412.96 435.05 444.94 403.08 444.94 363.64C444.94 359.73 444.94 340.2 444.94 305.05L196.39 305.05L196.39 305.05C196.39 340.2 196.39 359.73 196.39 363.64Z" id="btKoNwAMW"></path><path d="M276.03 303.32L195.06 303.52L278.49 220.1L358.83 220.51L276.03 303.32Z" id="a2yFRfuTr0"></path><path d="M435.44 224C430.14 229.3 403.63 255.81 355.92 303.52L436.88 303.32L444.94 295.26L444.94 243.85C442.47 233.73 439.3 227.12 435.44 224Z" id="e23FcVTwB"></path><path d="M229.73 169.85C229.73 173.08 229.73 189.24 229.73 218.33L275.19 218.33C275.19 189.24 275.19 173.08 275.19 169.85C275.19 144.78 295.59 124.38 320.66 124.38C345.73 124.38 366.13 144.78 366.13 169.85C366.13 173.08 366.13 189.24 366.13 218.33L411.59 218.33C411.59 189.24 411.59 173.08 411.59 169.85C411.59 119.71 370.8 78.92 320.66 78.92C270.52 78.92 229.73 119.71 229.73 169.85Z" id="ihYok9rTE"></path><path d="M323.69 0.56C321.29 -0.19 318.71 -0.19 316.31 0.56C307.54 3.27 237.44 24.94 228.68 27.65C222.09 29.69 218.39 36.69 220.43 43.29C222.47 49.88 229.47 53.58 236.07 51.54C241.66 49.81 269.64 41.16 320 25.58L570.95 103.18C570.95 203.69 570.95 259.53 570.95 270.7C570.95 325.38 558.94 378.04 535.26 427.2C532.27 433.42 534.88 440.89 541.1 443.88C542.85 444.73 544.69 445.12 546.51 445.12C551.17 445.12 555.63 442.52 557.78 438.05C583.11 385.48 595.95 329.17 595.95 270.7C595.95 253.02 595.95 111.63 595.95 93.96C595.95 88.48 592.38 83.64 587.14 82.02C534.45 65.73 350.04 8.7 323.69 0.56Z" id="d33U6xNSuk"></path><path d="M508.27 473.94C508.26 473.95 508.26 473.96 508.25 473.96C504.37 479.67 505.79 487.54 511.5 491.42C513.62 492.86 516.05 493.55 518.45 493.55C522.5 493.55 526.49 491.6 528.92 488.02C532.81 482.32 531.4 474.45 525.7 470.56C520 466.68 512.16 468.24 508.27 473.94Z" id="bGMnLsOwC"></path><path d="M320 614.4C169.73 566.41 69.05 428.77 69.05 270.7C69.05 259.53 69.05 203.69 69.05 103.18C99.77 93.68 116.83 88.41 120.24 87.35C126.84 85.31 130.53 78.31 128.49 71.72C126.45 65.12 119.46 61.43 112.86 63.47C106.86 65.32 58.86 80.16 52.86 82.02C47.62 83.64 44.05 88.48 44.05 93.96C44.05 111.63 44.05 253.02 44.05 270.7C44.05 353.79 70.14 433.04 119.49 499.88C168.85 566.73 236.91 614.99 316.32 639.45C317.52 639.82 318.76 640 320 640C321.24 640 322.48 639.82 323.68 639.45C386.08 620.23 442.95 585.23 488.15 538.23C492.93 533.25 492.78 525.34 487.8 520.55C482.83 515.77 474.92 515.92 470.13 520.9C428.75 563.92 376.91 596.2 320 614.4Z" id="c4AC1GChtE"></path><path d="M190.2 64.21C192.52 61.89 193.86 58.66 193.86 55.36C193.86 52.08 192.52 48.85 190.2 46.53C187.87 44.2 184.65 42.86 181.36 42.86C178.07 42.86 174.85 44.2 172.52 46.53C170.2 48.85 168.86 52.08 168.86 55.36C168.86 58.66 170.2 61.88 172.52 64.21C174.85 66.54 178.07 67.86 181.36 67.86C184.65 67.86 187.87 66.54 190.2 64.21Z" id="f1XpNWmO5W"></path><path d="M113.4 119.8C107.89 121.23 104.05 126.21 104.05 131.9C104.05 145.78 104.05 256.82 104.05 270.7C104.05 337.96 124.12 402.38 162.1 457C199.94 511.43 253.03 552.53 315.64 575.87C317.04 576.39 318.52 576.65 320 576.65C321.48 576.65 322.96 576.39 324.37 575.87C386.97 552.53 440.06 511.43 477.91 457C515.88 402.38 535.95 337.96 535.95 270.7C535.95 256.82 535.95 145.78 535.95 131.9C535.95 126.21 532.11 121.23 526.6 119.8C518.73 117.75 455.73 101.34 447.85 99.29C441.17 97.56 434.34 101.56 432.6 108.24C430.86 114.92 434.87 121.75 441.55 123.49C446.18 124.69 469.31 130.71 510.95 141.56C510.95 219.04 510.95 262.09 510.95 270.7C510.95 396.06 436.16 505.49 320 550.78C203.84 505.49 129.05 396.06 129.05 270.7C129.05 262.09 129.05 219.04 129.05 141.56C164.04 132.45 183.48 127.39 187.36 126.37C194.04 124.63 198.05 117.81 196.31 111.13C194.57 104.45 187.75 100.44 181.06 102.18C167.53 105.7 120.17 118.04 113.4 119.8Z" id="c3BOvPGAAz"></path><path d="M328.5 66.76L332.68 67.19L336.8 67.78L340.88 68.53L344.9 69.44L348.86 70.5L352.75 71.71L356.58 73.08L360.34 74.58L364.03 76.23L367.63 78.01L371.16 79.93L374.6 81.98L377.96 84.16L381.23 86.46L384.4 88.88L387.47 91.42L390.45 94.07L393.32 96.83L396.08 99.71L398.74 102.68L401.27 105.76L403.7 108.93L406 112.19L408.17 115.55L410.22 118.99L412.14 122.52L413.93 126.13L415.57 129.81L417.08 133.57L418.44 137.4L419.65 141.3L420.72 145.26L421.63 149.27L422.38 153.35L422.97 157.48L423.39 161.66L423.65 165.89L423.74 170.16L423.74 206.61L425.14 206.81L426.53 207.06L427.9 207.37L429.25 207.72L430.58 208.11L431.89 208.56L433.18 209.05L434.45 209.59L435.69 210.17L436.91 210.79L438.1 211.45L439.27 212.16L440.41 212.9L441.52 213.69L442.6 214.51L443.65 215.37L444.67 216.26L445.66 217.19L446.61 218.15L447.53 219.15L448.41 220.18L449.26 221.24L450.07 222.33L450.84 223.45L451.57 224.59L452.27 225.77L452.92 226.97L453.53 228.2L454.09 229.45L454.61 230.72L455.09 232.01L455.52 233.33L455.91 234.67L456.24 236.03L456.53 237.4L456.76 238.79L456.95 240.2L457.08 241.63L457.17 243.07L457.19 244.52L457.19 363.9L457.12 367.4L456.91 370.85L456.56 374.27L456.08 377.65L455.47 380.98L454.72 384.27L453.85 387.51L452.86 390.69L451.75 393.83L450.51 396.9L449.17 399.91L447.71 402.86L446.14 405.75L444.46 408.56L442.68 411.31L440.8 413.98L438.82 416.58L436.74 419.09L434.57 421.52L432.31 423.87L429.97 426.13L427.53 428.3L425.02 430.38L422.42 432.36L419.75 434.24L417.01 436.02L414.19 437.7L411.31 439.27L408.35 440.73L405.34 442.07L402.27 443.3L399.14 444.42L395.95 445.41L392.71 446.28L389.42 447.02L386.09 447.64L382.71 448.12L379.3 448.47L375.84 448.68L372.35 448.75L267.65 448.75L264.16 448.68L260.7 448.47L257.29 448.12L253.91 447.64L250.58 447.02L247.29 446.28L244.05 445.41L240.86 444.42L237.73 443.3L234.66 442.07L231.65 440.73L228.69 439.27L225.81 437.7L222.99 436.02L220.25 434.24L217.58 432.36L214.98 430.38L212.47 428.3L210.03 426.13L207.69 423.87L205.43 421.52L203.26 419.09L201.18 416.58L199.2 413.98L197.32 411.31L195.54 408.56L193.86 405.75L192.29 402.86L190.83 399.91L189.49 396.9L188.25 393.83L187.14 390.69L186.15 387.51L185.28 384.27L184.53 380.98L183.92 377.65L183.44 374.27L183.09 370.85L182.88 367.4L182.81 363.9L182.81 244.52L182.83 243.07L182.92 241.63L183.05 240.2L183.24 238.79L183.47 237.4L183.76 236.03L184.09 234.67L184.48 233.33L184.91 232.02L185.39 230.72L185.91 229.45L186.47 228.2L187.08 226.97L187.73 225.77L188.43 224.6L189.16 223.45L189.93 222.33L190.74 221.24L191.59 220.18L192.47 219.15L193.39 218.15L194.35 217.19L195.33 216.26L196.35 215.37L197.4 214.51L198.48 213.69L199.59 212.9L200.73 212.16L201.9 211.45L203.09 210.79L204.31 210.17L205.55 209.59L206.82 209.05L208.11 208.56L209.42 208.12L210.75 207.72L212.1 207.37L213.47 207.06L214.86 206.81L216.26 206.61L216.26 170.16L216.35 165.89L216.61 161.66L217.03 157.48L217.62 153.35L218.37 149.27L219.28 145.26L220.35 141.3L221.56 137.4L222.92 133.57L224.43 129.81L226.07 126.13L227.86 122.52L229.78 118.99L231.83 115.55L234 112.19L236.3 108.93L238.73 105.76L241.26 102.68L243.92 99.71L246.68 96.83L249.55 94.07L252.53 91.42L255.6 88.88L258.77 86.46L262.04 84.16L265.4 81.98L268.84 79.93L272.37 78.01L275.97 76.23L279.66 74.58L283.42 73.08L287.25 71.71L291.14 70.5L295.1 69.44L299.12 68.53L303.2 67.78L307.32 67.19L311.5 66.76L315.73 66.5L320 66.42L324.27 66.5L328.5 66.76ZM207.81 363.9L207.86 366.37L208.01 368.81L208.25 371.22L208.59 373.6L209.03 375.95L209.55 378.27L210.16 380.55L210.86 382.8L211.65 385.01L212.52 387.18L213.47 389.3L214.5 391.38L215.6 393.42L216.79 395.41L218.04 397.34L219.37 399.23L220.77 401.06L222.23 402.83L223.76 404.55L225.36 406.2L227.01 407.8L228.73 409.33L230.5 410.79L232.33 412.19L234.22 413.52L236.15 414.77L238.14 415.95L240.17 417.06L242.26 418.09L244.38 419.04L246.55 419.91L248.76 420.69L251.01 421.4L253.29 422.01L255.61 422.53L257.96 422.97L260.34 423.31L262.75 423.55L265.19 423.7L267.65 423.75L372.35 423.75L374.81 423.7L377.25 423.55L379.66 423.31L382.04 422.97L384.39 422.53L386.71 422.01L388.99 421.4L391.24 420.69L393.45 419.91L395.62 419.04L397.74 418.09L399.83 417.06L401.86 415.95L403.85 414.77L405.78 413.52L407.67 412.19L409.5 410.79L411.27 409.33L412.99 407.8L414.64 406.2L416.24 404.55L417.77 402.83L419.23 401.06L420.63 399.23L421.96 397.34L423.21 395.41L424.4 393.42L425.5 391.38L426.53 389.3L427.48 387.18L428.35 385.01L429.14 382.8L429.84 380.55L430.45 378.27L430.97 375.95L431.41 373.6L431.75 371.22L431.99 368.81L432.14 366.37L432.19 363.9L432.19 318.31L207.81 318.31L207.81 363.9ZM303.65 293.31L349.24 293.31L349.28 293.27L349.31 293.22L349.34 293.17L349.37 293.12L349.41 293.08L349.44 293.03L349.48 292.98L349.51 292.94L349.54 292.89L349.58 292.84L349.61 292.8L349.65 292.75L349.68 292.7L349.72 292.66L349.75 292.61L349.79 292.57L349.83 292.52L349.86 292.48L349.9 292.43L349.94 292.39L349.97 292.34L350.01 292.3L350.05 292.25L350.09 292.21L350.12 292.16L350.16 292.12L350.2 292.07L350.24 292.03L350.28 291.99L350.32 291.94L350.36 291.9L350.4 291.85L350.44 291.81L350.48 291.77L350.52 291.72L350.56 291.68L350.6 291.64L350.64 291.6L350.69 291.55L350.73 291.51L410.94 231.3L365.67 231.3L303.65 293.31ZM432.19 293.31L432.19 245.4L384.28 293.31L432.19 293.31ZM284.57 231.32L284.53 231.36L284.48 231.42L284.43 231.47L284.39 231.52L284.33 231.59L284.28 231.64L284.23 231.7L284.19 231.74L222.62 293.31L268.3 293.31L330.31 231.3L284.59 231.3L284.57 231.32ZM220.23 231.32L219.43 231.39L218.66 231.51L217.89 231.67L217.15 231.88L216.42 232.13L215.71 232.42L215.03 232.74L214.36 233.11L213.72 233.51L213.1 233.94L212.52 234.41L211.95 234.91L211.42 235.45L210.92 236.01L210.45 236.6L210.02 237.21L209.62 237.85L209.25 238.52L208.92 239.2L208.64 239.91L208.39 240.64L208.18 241.38L208.02 242.15L207.9 242.92L207.83 243.72L207.81 244.52L207.81 272.77L249.28 231.3L221.03 231.3L220.23 231.32ZM317.2 91.47L315.75 91.53L314.27 91.62L312.76 91.74L311.22 91.89L309.67 92.07L308.09 92.27L306.49 92.51L304.87 92.78L303.24 93.08L301.59 93.41L299.93 93.78L298.27 94.18L296.59 94.61L294.91 95.09L293.22 95.59L291.53 96.14L289.85 96.72L288.16 97.34L286.48 98L284.8 98.7L283.14 99.44L281.48 100.22L279.83 101.04L278.2 101.91L276.58 102.81L274.99 103.77L273.41 104.76L271.85 105.81L270.32 106.9L268.81 108.03L267.33 109.21L265.89 110.45L264.47 111.73L263.09 113.06L261.74 114.44L260.43 115.87L259.16 117.35L257.93 118.89L257.23 119.82L256.54 120.76L255.87 121.72L255.21 122.7L254.57 123.7L253.94 124.72L253.32 125.76L252.73 126.81L252.14 127.88L251.57 128.98L251.02 130.08L250.47 131.21L249.95 132.36L249.44 133.52L248.94 134.7L248.46 135.9L247.99 137.12L247.54 138.35L247.1 139.61L246.67 140.88L246.26 142.17L245.87 143.48L245.49 144.81L245.12 146.15L244.77 147.52L244.44 148.9L244.12 150.3L243.81 151.72L243.52 153.15L243.24 154.61L242.97 156.08L242.73 157.57L242.49 159.08L242.27 160.61L242.07 162.15L241.88 163.72L241.7 165.3L241.54 166.9L241.39 168.52L241.26 170.15L241.26 206.3L261.88 206.3L261.88 170.15L261.93 167.76L262.07 165.39L262.31 163.05L262.64 160.74L263.06 158.46L263.57 156.2L264.17 153.99L264.85 151.8L265.61 149.66L266.46 147.55L267.38 145.49L268.38 143.47L269.45 141.49L270.6 139.56L271.82 137.68L273.11 135.85L274.47 134.07L275.89 132.35L277.37 130.68L278.92 129.08L280.53 127.53L282.2 126.04L283.92 124.62L285.7 123.26L287.53 121.97L289.41 120.75L291.34 119.61L293.31 118.53L295.33 117.53L297.4 116.61L299.5 115.76L301.65 115L303.83 114.32L306.05 113.73L308.3 113.22L310.59 112.8L312.9 112.47L315.24 112.23L317.61 112.08L320 112.03L322.39 112.08L324.76 112.23L327.1 112.47L329.41 112.8L331.7 113.22L333.95 113.73L336.17 114.32L338.35 115L340.5 115.76L342.6 116.61L344.67 117.53L346.69 118.53L348.66 119.61L350.59 120.75L352.47 121.97L354.3 123.26L356.08 124.62L357.8 126.04L359.47 127.53L361.08 129.08L362.63 130.68L364.11 132.35L365.53 134.07L366.89 135.85L368.18 137.68L369.4 139.56L370.55 141.49L371.62 143.47L372.62 145.49L373.54 147.55L374.39 149.66L375.15 151.8L375.83 153.99L376.43 156.2L376.94 158.46L377.36 160.74L377.69 163.05L377.93 165.39L378.07 167.76L378.12 170.15L378.12 206.3L398.74 206.3L398.74 170.15L398.67 166.91L398.48 163.71L398.15 160.53L397.71 157.4L397.14 154.31L396.45 151.25L395.64 148.25L394.72 145.29L393.68 142.39L392.54 139.53L391.29 136.74L389.94 134L388.48 131.32L386.92 128.71L385.27 126.16L383.53 123.68L381.69 121.27L379.76 118.94L377.75 116.68L375.65 114.5L373.47 112.41L371.21 110.39L368.88 108.46L366.47 106.63L363.99 104.88L361.44 103.23L358.83 101.67L356.15 100.22L353.42 98.86L350.62 97.61L347.77 96.47L344.86 95.44L341.9 94.51L338.9 93.71L335.85 93.02L332.75 92.45L329.62 92L326.45 91.68L323.24 91.48L320 91.42L318.61 91.43L317.2 91.47ZM317.29 137.14L315.95 137.28L314.64 137.47L313.33 137.71L312.05 138L310.79 138.34L309.54 138.73L308.32 139.16L307.12 139.64L305.94 140.17L304.79 140.74L303.67 141.35L302.57 142L301.5 142.7L300.45 143.43L299.44 144.21L298.46 145.02L297.51 145.86L296.59 146.75L295.71 147.66L294.86 148.61L294.05 149.59L293.28 150.61L292.55 151.65L291.85 152.72L291.2 153.82L290.58 154.95L290.01 156.1L289.49 157.27L289.01 158.47L288.57 159.7L288.18 160.94L287.85 162.2L287.56 163.49L287.32 164.79L287.13 166.11L286.99 167.44L286.91 168.79L286.88 170.15L286.88 206.3L353.12 206.3L353.12 170.15L353.09 168.79L353.01 167.44L352.87 166.11L352.68 164.79L352.44 163.49L352.15 162.2L351.82 160.94L351.43 159.7L350.99 158.47L350.51 157.27L349.99 156.1L349.42 154.95L348.8 153.82L348.15 152.72L347.45 151.65L346.72 150.61L345.95 149.59L345.14 148.61L344.29 147.66L343.41 146.75L342.49 145.86L341.54 145.02L340.56 144.21L339.55 143.43L338.5 142.7L337.43 142L336.33 141.35L335.21 140.74L334.06 140.17L332.88 139.64L331.68 139.16L330.46 138.73L329.21 138.34L327.95 138L326.67 137.71L325.36 137.47L324.05 137.28L322.71 137.14L321.36 137.06L320 137.03L318.64 137.06L317.29 137.14Z" id="a4Bj5prSwT"></path><path d="M307.5 353.86C307.5 356.37 307.5 376.46 307.5 378.97C307.5 385.87 313.1 391.47 320 391.47C326.9 391.47 332.5 385.87 332.5 378.97C332.5 376.46 332.5 356.37 332.5 353.86C332.5 346.96 326.9 341.36 320 341.36C313.1 341.36 307.5 346.96 307.5 353.86Z" id="aGmbVTWEY"></path><path d="M307.5 480C307.5 483.29 308.84 486.51 311.16 488.84C313.49 491.16 316.71 492.5 320 492.5C323.29 492.5 326.51 491.16 328.84 488.84C331.16 486.51 332.5 483.29 332.5 480C332.5 476.71 331.16 473.49 328.84 471.16C326.51 468.84 323.29 467.5 320 467.5C316.71 467.5 313.49 468.84 311.16 471.16C308.84 473.49 307.5 476.71 307.5 480Z" id="g3xcxtIuDK"></path><path d="M354.06 480C354.06 483.29 355.4 486.51 357.73 488.84C360.05 491.16 363.28 492.5 366.56 492.5C369.85 492.5 373.08 491.16 375.4 488.84C377.72 486.51 379.06 483.29 379.06 480C379.06 476.71 377.73 473.49 375.4 471.16C373.08 468.84 369.85 467.5 366.56 467.5C363.28 467.5 360.05 468.84 357.73 471.16C355.4 473.49 354.06 476.71 354.06 480Z" id="jmmmLN4oa"></path><path d="M260.94 480C260.94 483.29 262.27 486.51 264.6 488.84C266.92 491.16 270.15 492.5 273.44 492.5C276.72 492.5 279.95 491.16 282.27 488.84C284.6 486.51 285.94 483.29 285.94 480C285.94 476.71 284.6 473.49 282.27 471.16C279.95 468.84 276.72 467.5 273.44 467.5C270.15 467.5 266.92 468.84 264.6 471.16C262.27 473.49 260.94 476.71 260.94 480Z" id="d1oowpuJAP"></path><path d="M577.34 482.17L569.11 482.77L558.2 484.36L547.23 489.33L539.8 494.17L532.34 499.76L527.3 505.48L523.47 510.96C521.76 513.92 520.81 515.56 520.62 515.89C518.4 520.49 517.18 523.05 516.93 523.56C516.63 524.95 516.47 525.73 516.43 525.89C522.27 512.26 535.8 502.71 551.56 502.71C559.55 502.71 566.95 505.16 573.09 509.34C573.74 509.89 574.43 510.4 575.15 510.86C575.3 510.98 575.46 511.09 575.62 511.21C575.62 511.21 575.63 511.18 575.63 511.17C578.38 512.88 581.5 514.03 584.84 514.48C585.85 514.61 586.88 514.68 587.95 514.68C595.13 514.68 601.55 511.44 605.83 506.35C608.77 502.83 610.71 498.44 611.17 493.61C611.03 493.41 610.3 492.41 608.99 490.58C608.57 490.33 606.42 489 602.56 486.6C601.77 486.39 597.84 485.31 590.75 483.38L577.34 482.17Z" id="bKGyxpb23"></path><path d="M577.34 482.17L569.11 482.77L558.2 484.36L547.23 489.33L539.8 494.17L532.34 499.76L527.3 505.48L523.47 510.96C521.76 513.92 520.81 515.56 520.62 515.89C518.4 520.49 517.18 523.05 516.93 523.56C516.63 524.95 516.47 525.73 516.43 525.89C522.27 512.26 535.8 502.71 551.56 502.71C559.55 502.71 566.95 505.16 573.09 509.34C573.74 509.89 574.43 510.4 575.15 510.86C575.3 510.98 575.46 511.09 575.62 511.21C575.62 511.21 575.63 511.18 575.63 511.17C578.38 512.88 581.5 514.03 584.84 514.48C585.85 514.61 586.88 514.68 587.95 514.68C595.13 514.68 601.55 511.44 605.83 506.35C608.77 502.83 610.71 498.44 611.17 493.61C611.03 493.41 610.3 492.41 608.99 490.58C608.57 490.33 606.42 489 602.56 486.6C601.77 486.39 597.84 485.31 590.75 483.38L577.34 482.17Z" id="b2h1oD21lA"></path><path d="M577.34 482.17L569.11 482.77L558.2 484.36L547.23 489.33L539.8 494.17L532.34 499.76L527.3 505.48L523.47 510.96C521.76 513.92 520.81 515.56 520.62 515.89C518.4 520.49 517.18 523.05 516.93 523.56C516.63 524.95 516.47 525.73 516.43 525.89C522.27 512.26 535.8 502.71 551.56 502.71C559.55 502.71 566.95 505.16 573.09 509.34C573.74 509.89 574.43 510.4 575.15 510.86C575.3 510.98 575.46 511.09 575.62 511.21C575.62 511.21 575.63 511.18 575.63 511.17C578.38 512.88 581.5 514.03 584.84 514.48C585.85 514.61 586.88 514.68 587.95 514.68C595.13 514.68 601.55 511.44 605.83 506.35C608.77 502.83 610.71 498.44 611.17 493.61C611.03 493.41 610.3 492.41 608.99 490.58C608.57 490.33 606.42 489 602.56 486.6C601.77 486.39 597.84 485.31 590.75 483.38L577.34 482.17Z" id="blpfmllSP"></path><path d="M577.34 482.17L569.11 482.77L558.2 484.36L547.23 489.33L539.8 494.17L532.34 499.76L527.3 505.48L523.47 510.96C521.76 513.92 520.81 515.56 520.62 515.89C518.4 520.49 517.18 523.05 516.93 523.56C516.63 524.95 516.47 525.73 516.43 525.89C522.27 512.26 535.8 502.71 551.56 502.71C559.55 502.71 566.95 505.16 573.09 509.34C573.74 509.89 574.43 510.4 575.15 510.86C575.3 510.98 575.46 511.09 575.62 511.21C575.62 511.21 575.63 511.18 575.63 511.17C578.38 512.88 581.5 514.03 584.84 514.48C585.85 514.61 586.88 514.68 587.95 514.68C595.13 514.68 601.55 511.44 605.83 506.35C608.77 502.83 610.71 498.44 611.17 493.61C611.03 493.41 610.3 492.41 608.99 490.58C608.57 490.33 606.42 489 602.56 486.6C601.77 486.39 597.84 485.31 590.75 483.38L577.34 482.17Z" id="avNZcNV6Q"></path><path d="M553.96 458.31C553.55 458.49 551.48 459.37 547.75 460.95L535.04 466L525.33 474.16L519.71 479.27L514.99 486.53L510.27 494.12L506.62 504.64L505.17 512.2L504.64 516.86L504.64 525.61L505.17 531.62L507.3 541.23L510.32 548.93L512.63 553.59L515.61 557.83L518.16 561.29C519.8 563.02 520.71 563.98 520.89 564.17C521.4 564.58 521.68 564.81 521.74 564.85C521.84 564.9 521.9 564.93 521.9 564.93C516.57 558.37 513.37 549.99 513.37 540.89C513.37 539.85 513.41 538.84 513.48 537.82C513.83 533.61 514.85 529.6 516.43 525.89C523.94 504.62 542.4 488.53 565.06 484.41C568.78 483.74 572.61 483.38 576.53 483.38C584.75 483.38 592.61 484.95 599.82 487.78C603.81 489.35 607.62 491.31 611.17 493.61C611.24 492.88 611.29 492.12 611.29 491.37C611.29 483.96 607.92 477.24 602.53 472.96C589.39 465.02 579 460.13 571.36 458.31C571.12 458.28 569.91 458.13 567.76 457.87C566.84 457.9 562.24 458.04 553.96 458.31Z" id="a66o7UKnHn"></path><path d="M553.96 458.31C553.55 458.49 551.48 459.37 547.75 460.95L535.04 466L525.33 474.16L519.71 479.27L514.99 486.53L510.27 494.12L506.62 504.64L505.17 512.2L504.64 516.86L504.64 525.61L505.17 531.62L507.3 541.23L510.32 548.93L512.63 553.59L515.61 557.83L518.16 561.29C519.8 563.02 520.71 563.98 520.89 564.17C521.4 564.58 521.68 564.81 521.74 564.85C521.84 564.9 521.9 564.93 521.9 564.93C516.57 558.37 513.37 549.99 513.37 540.89C513.37 539.85 513.41 538.84 513.48 537.82C513.83 533.61 514.85 529.6 516.43 525.89C523.94 504.62 542.4 488.53 565.06 484.41C568.78 483.74 572.61 483.38 576.53 483.38C584.75 483.38 592.61 484.95 599.82 487.78C603.81 489.35 607.62 491.31 611.17 493.61C611.24 492.88 611.29 492.12 611.29 491.37C611.29 483.96 607.92 477.24 602.53 472.96C589.39 465.02 579 460.13 571.36 458.31C571.12 458.28 569.91 458.13 567.76 457.87C566.84 457.9 562.24 458.04 553.96 458.31Z" id="aTgan28V3"></path><path d="M553.96 458.31C553.55 458.49 551.48 459.37 547.75 460.95L535.04 466L525.33 474.16L519.71 479.27L514.99 486.53L510.27 494.12L506.62 504.64L505.17 512.2L504.64 516.86L504.64 525.61L505.17 531.62L507.3 541.23L510.32 548.93L512.63 553.59L515.61 557.83L518.16 561.29C519.8 563.02 520.71 563.98 520.89 564.17C521.4 564.58 521.68 564.81 521.74 564.85C521.84 564.9 521.9 564.93 521.9 564.93C516.57 558.37 513.37 549.99 513.37 540.89C513.37 539.85 513.41 538.84 513.48 537.82C513.83 533.61 514.85 529.6 516.43 525.89C523.94 504.62 542.4 488.53 565.06 484.41C568.78 483.74 572.61 483.38 576.53 483.38C584.75 483.38 592.61 484.95 599.82 487.78C603.81 489.35 607.62 491.31 611.17 493.61C611.24 492.88 611.29 492.12 611.29 491.37C611.29 483.96 607.92 477.24 602.53 472.96C589.39 465.02 579 460.13 571.36 458.31C571.12 458.28 569.91 458.13 567.76 457.87C566.84 457.9 562.24 458.04 553.96 458.31Z" id="g3IvWOOJ2r"></path><path d="M553.96 458.31C553.55 458.49 551.48 459.37 547.75 460.95L535.04 466L525.33 474.16L519.71 479.27L514.99 486.53L510.27 494.12L506.62 504.64L505.17 512.2L504.64 516.86L504.64 525.61L505.17 531.62L507.3 541.23L510.32 548.93L512.63 553.59L515.61 557.83L518.16 561.29C519.8 563.02 520.71 563.98 520.89 564.17C521.4 564.58 521.68 564.81 521.74 564.85C521.84 564.9 521.9 564.93 521.9 564.93C516.57 558.37 513.37 549.99 513.37 540.89C513.37 539.85 513.41 538.84 513.48 537.82C513.83 533.61 514.85 529.6 516.43 525.89C523.94 504.62 542.4 488.53 565.06 484.41C568.78 483.74 572.61 483.38 576.53 483.38C584.75 483.38 592.61 484.95 599.82 487.78C603.81 489.35 607.62 491.31 611.17 493.61C611.24 492.88 611.29 492.12 611.29 491.37C611.29 483.96 607.92 477.24 602.53 472.96C589.39 465.02 579 460.13 571.36 458.31C571.12 458.28 569.91 458.13 567.76 457.87C566.84 457.9 562.24 458.04 553.96 458.31Z" id="d4lJSkVhG"></path><path d="M566.71 457.33C561.8 456.45 556.76 455.99 551.61 455.99C531.59 455.99 513.18 462.91 498.67 474.5C494.49 477.82 490.65 481.52 487.17 485.56C487.13 485.61 486.99 485.82 486.73 486.21C486.66 486.33 486.29 486.96 485.62 488.08C485.54 488.23 485.13 488.98 484.4 490.34L481.67 497.22L479.92 503.17L478.79 511.97L478.79 520.82L480.08 531.56L484.08 543.13L490.56 553.54L498.18 562.63L506.93 569.59L513.89 573.91L524.17 578.2L535.43 580.27L542.3 580.66C546.3 580.42 548.53 580.3 548.97 580.27C551.78 579.79 553.34 579.51 553.65 579.46C554.64 579.11 555.19 578.92 555.29 578.88C554.07 578.99 552.82 579.05 551.56 579.05C543.71 579.05 536.41 576.68 530.34 572.62C527.16 570.49 524.31 567.89 521.9 564.93C518.5 561.21 515.53 557.09 513.07 552.63C508.04 543.53 505.17 533.06 505.17 521.93C505.17 500.41 515.86 481.38 532.21 469.85C542.58 462.55 555.23 458.25 568.88 458.25C569.71 458.25 570.54 458.28 571.36 458.31C569.83 457.94 568.27 457.61 566.71 457.33" id="i1vS487Fwv"></path><path d="M566.71 457.33C561.8 456.45 556.76 455.99 551.61 455.99C531.59 455.99 513.18 462.91 498.67 474.5C494.49 477.82 490.65 481.52 487.17 485.56C487.13 485.61 486.99 485.82 486.73 486.21C486.66 486.33 486.29 486.96 485.62 488.08C485.54 488.23 485.13 488.98 484.4 490.34L481.67 497.22L479.92 503.17L478.79 511.97L478.79 520.82L480.08 531.56L484.08 543.13L490.56 553.54L498.18 562.63L506.93 569.59L513.89 573.91L524.17 578.2L535.43 580.27L542.3 580.66C546.3 580.42 548.53 580.3 548.97 580.27C551.78 579.79 553.34 579.51 553.65 579.46C554.64 579.11 555.19 578.92 555.29 578.88C554.07 578.99 552.82 579.05 551.56 579.05C543.71 579.05 536.41 576.68 530.34 572.62C527.16 570.49 524.31 567.89 521.9 564.93C518.5 561.21 515.53 557.09 513.07 552.63C508.04 543.53 505.17 533.06 505.17 521.93C505.17 500.41 515.86 481.38 532.21 469.85C542.58 462.55 555.23 458.25 568.88 458.25C569.71 458.25 570.54 458.28 571.36 458.31C569.83 457.94 568.27 457.61 566.71 457.33" id="a27Wr1CDrb"></path><path d="M566.71 457.33C561.8 456.45 556.76 455.99 551.61 455.99C531.59 455.99 513.18 462.91 498.67 474.5C494.49 477.82 490.65 481.52 487.17 485.56C487.13 485.61 486.99 485.82 486.73 486.21C486.66 486.33 486.29 486.96 485.62 488.08C485.54 488.23 485.13 488.98 484.4 490.34L481.67 497.22L479.92 503.17L478.79 511.97L478.79 520.82L480.08 531.56L484.08 543.13L490.56 553.54L498.18 562.63L506.93 569.59L513.89 573.91L524.17 578.2L535.43 580.27L542.3 580.66C546.3 580.42 548.53 580.3 548.97 580.27C551.78 579.79 553.34 579.51 553.65 579.46C554.64 579.11 555.19 578.92 555.29 578.88C554.07 578.99 552.82 579.05 551.56 579.05C543.71 579.05 536.41 576.68 530.34 572.62C527.16 570.49 524.31 567.89 521.9 564.93C518.5 561.21 515.53 557.09 513.07 552.63C508.04 543.53 505.17 533.06 505.17 521.93C505.17 500.41 515.86 481.38 532.21 469.85C542.58 462.55 555.23 458.25 568.88 458.25C569.71 458.25 570.54 458.28 571.36 458.31C569.83 457.94 568.27 457.61 566.71 457.33" id="b11dNmwtT5"></path><path d="M566.71 457.33C561.8 456.45 556.76 455.99 551.61 455.99C531.59 455.99 513.18 462.91 498.67 474.5C494.49 477.82 490.65 481.52 487.17 485.56C487.13 485.61 486.99 485.82 486.73 486.21C486.66 486.33 486.29 486.96 485.62 488.08C485.54 488.23 485.13 488.98 484.4 490.34L481.67 497.22L479.92 503.17L478.79 511.97L478.79 520.82L480.08 531.56L484.08 543.13L490.56 553.54L498.18 562.63L506.93 569.59L513.89 573.91L524.17 578.2L535.43 580.27L542.3 580.66C546.3 580.42 548.53 580.3 548.97 580.27C551.78 579.79 553.34 579.51 553.65 579.46C554.64 579.11 555.19 578.92 555.29 578.88C554.07 578.99 552.82 579.05 551.56 579.05C543.71 579.05 536.41 576.68 530.34 572.62C527.16 570.49 524.31 567.89 521.9 564.93C518.5 561.21 515.53 557.09 513.07 552.63C508.04 543.53 505.17 533.06 505.17 521.93C505.17 500.41 515.86 481.38 532.21 469.85C542.58 462.55 555.23 458.25 568.88 458.25C569.71 458.25 570.54 458.28 571.36 458.31C569.83 457.94 568.27 457.61 566.71 457.33" id="ar4p78ZSB"></path><path d="M572.31 574.32C573.02 573.49 573.72 572.65 574.38 571.78C573.82 572.1 573.25 572.4 572.68 572.71C567.3 575.57 561.45 577.67 555.29 578.88C551.29 579.66 547.15 580.08 542.91 580.08C534.69 580.08 526.83 578.53 519.61 575.69C495.95 566.39 479.21 543.35 479.21 516.41C479.21 505.23 482.1 494.71 487.17 485.56C474.39 500.43 466.65 519.75 466.65 540.89C466.65 550.85 468.38 560.42 471.54 569.3C471.55 569.31 471.56 569.35 471.6 569.41C471.61 569.43 471.65 569.51 471.72 569.66L472.12 570.37L474.34 573.97L481.44 581.32L489.47 587.25L498.3 592.1L511.42 596.3L523.53 597.54L531.57 597.04L539.21 595.56L545.29 593.79L555.13 589.43L564.79 582.77L570.12 578.38L574.07 573.83L575.13 572.33C574.68 572 574.43 571.81 574.38 571.78C573.38 572.69 572.81 573.2 572.7 573.3C572.47 573.92 572.33 574.26 572.31 574.32Z" id="gc9eENi7"></path><path d="M572.31 574.32C573.02 573.49 573.72 572.65 574.38 571.78C573.82 572.1 573.25 572.4 572.68 572.71C567.3 575.57 561.45 577.67 555.29 578.88C551.29 579.66 547.15 580.08 542.91 580.08C534.69 580.08 526.83 578.53 519.61 575.69C495.95 566.39 479.21 543.35 479.21 516.41C479.21 505.23 482.1 494.71 487.17 485.56C474.39 500.43 466.65 519.75 466.65 540.89C466.65 550.85 468.38 560.42 471.54 569.3C471.55 569.31 471.56 569.35 471.6 569.41C471.61 569.43 471.65 569.51 471.72 569.66L472.12 570.37L474.34 573.97L481.44 581.32L489.47 587.25L498.3 592.1L511.42 596.3L523.53 597.54L531.57 597.04L539.21 595.56L545.29 593.79L555.13 589.43L564.79 582.77L570.12 578.38L574.07 573.83L575.13 572.33C574.68 572 574.43 571.81 574.38 571.78C573.38 572.69 572.81 573.2 572.7 573.3C572.47 573.92 572.33 574.26 572.31 574.32Z" id="b2KqEgVxga"></path><path d="M572.31 574.32C573.02 573.49 573.72 572.65 574.38 571.78C573.82 572.1 573.25 572.4 572.68 572.71C567.3 575.57 561.45 577.67 555.29 578.88C551.29 579.66 547.15 580.08 542.91 580.08C534.69 580.08 526.83 578.53 519.61 575.69C495.95 566.39 479.21 543.35 479.21 516.41C479.21 505.23 482.1 494.71 487.17 485.56C474.39 500.43 466.65 519.75 466.65 540.89C466.65 550.85 468.38 560.42 471.54 569.3C471.55 569.31 471.56 569.35 471.6 569.41C471.61 569.43 471.65 569.51 471.72 569.66L472.12 570.37L474.34 573.97L481.44 581.32L489.47 587.25L498.3 592.1L511.42 596.3L523.53 597.54L531.57 597.04L539.21 595.56L545.29 593.79L555.13 589.43L564.79 582.77L570.12 578.38L574.07 573.83L575.13 572.33C574.68 572 574.43 571.81 574.38 571.78C573.38 572.69 572.81 573.2 572.7 573.3C572.47 573.92 572.33 574.26 572.31 574.32Z" id="c2nhAlULRL"></path><path d="M572.31 574.32C573.02 573.49 573.72 572.65 574.38 571.78C573.82 572.1 573.25 572.4 572.68 572.71C567.3 575.57 561.45 577.67 555.29 578.88C551.29 579.66 547.15 580.08 542.91 580.08C534.69 580.08 526.83 578.53 519.61 575.69C495.95 566.39 479.21 543.35 479.21 516.41C479.21 505.23 482.1 494.71 487.17 485.56C474.39 500.43 466.65 519.75 466.65 540.89C466.65 550.85 468.38 560.42 471.54 569.3C471.55 569.31 471.56 569.35 471.6 569.41C471.61 569.43 471.65 569.51 471.72 569.66L472.12 570.37L474.34 573.97L481.44 581.32L489.47 587.25L498.3 592.1L511.42 596.3L523.53 597.54L531.57 597.04L539.21 595.56L545.29 593.79L555.13 589.43L564.79 582.77L570.12 578.38L574.07 573.83L575.13 572.33C574.68 572 574.43 571.81 574.38 571.78C573.38 572.69 572.81 573.2 572.7 573.3C572.47 573.92 572.33 574.26 572.31 574.32Z" id="d1l06lJUyi"></path><path d="M574.38 571.78C570.47 576.86 565.79 581.35 560.53 585.05C553.14 590.26 544.59 593.94 535.33 595.62C531.63 596.3 527.78 596.66 523.87 596.66C502.19 596.66 483.05 585.83 471.54 569.3C483.24 602.21 514.67 625.77 551.6 625.77C569.3 625.77 585.71 620.38 599.3 611.12C599.15 610.87 598.44 609.6 597.16 607.32C596.27 605.75 591.87 597.91 583.93 583.8C579.28 575.55 576.79 571.13 576.46 570.54C575.78 570.96 575.08 571.38 574.38 571.78Z" id="avXnIDc1H"></path><path d="M574.38 571.78C570.47 576.86 565.79 581.35 560.53 585.05C553.14 590.26 544.59 593.94 535.33 595.62C531.63 596.3 527.78 596.66 523.87 596.66C502.19 596.66 483.05 585.83 471.54 569.3C483.24 602.21 514.67 625.77 551.6 625.77C569.3 625.77 585.71 620.38 599.3 611.12C599.15 610.87 598.44 609.6 597.16 607.32C596.27 605.75 591.87 597.91 583.93 583.8C579.28 575.55 576.79 571.13 576.46 570.54C575.78 570.96 575.08 571.38 574.38 571.78Z" id="akXyNhG7s"></path><path d="M574.38 571.78C570.47 576.86 565.79 581.35 560.53 585.05C553.14 590.26 544.59 593.94 535.33 595.62C531.63 596.3 527.78 596.66 523.87 596.66C502.19 596.66 483.05 585.83 471.54 569.3C483.24 602.21 514.67 625.77 551.6 625.77C569.3 625.77 585.71 620.38 599.3 611.12C599.15 610.87 598.44 609.6 597.16 607.32C596.27 605.75 591.87 597.91 583.93 583.8C579.28 575.55 576.79 571.13 576.46 570.54C575.78 570.96 575.08 571.38 574.38 571.78Z" id="c3aja8wjbG"></path><path d="M574.38 571.78C570.47 576.86 565.79 581.35 560.53 585.05C553.14 590.26 544.59 593.94 535.33 595.62C531.63 596.3 527.78 596.66 523.87 596.66C502.19 596.66 483.05 585.83 471.54 569.3C483.24 602.21 514.67 625.77 551.6 625.77C569.3 625.77 585.71 620.38 599.3 611.12C599.15 610.87 598.44 609.6 597.16 607.32C596.27 605.75 591.87 597.91 583.93 583.8C579.28 575.55 576.79 571.13 576.46 570.54C575.78 570.96 575.08 571.38 574.38 571.78Z" id="c2UlYCtocn"></path><path d="M624.02 573.88C624.02 554.12 607.98 538.11 588.21 538.11C585.22 538.11 582.31 538.47 579.53 539.17C569.51 541.65 561.17 548.37 556.47 557.29C556.48 557.29 556.48 557.31 556.48 557.31C557.06 557.31 561.68 557.31 562.26 557.31C564.33 557.55 574.69 558.8 593.33 561.03C593.62 561.69 595.05 564.99 597.62 570.94C600.51 582.23 602.12 588.5 602.44 589.75C597.02 600.48 594 606.42 593.4 607.62C592.11 612.7 591.39 615.54 591.25 616.1C600.43 611.28 608.63 604.84 615.44 597.16C615.44 597.16 615.43 597.14 615.43 597.14C620.78 590.88 624.02 582.77 624.02 573.88" id="bgw7BBgJN"></path><path d="M624.02 573.88C624.02 554.12 607.98 538.11 588.21 538.11C585.22 538.11 582.31 538.47 579.53 539.17C569.51 541.65 561.17 548.37 556.47 557.29C556.48 557.29 556.48 557.31 556.48 557.31C557.06 557.31 561.68 557.31 562.26 557.31C564.33 557.55 574.69 558.8 593.33 561.03C593.62 561.69 595.05 564.99 597.62 570.94C600.51 582.23 602.12 588.5 602.44 589.75C597.02 600.48 594 606.42 593.4 607.62C592.11 612.7 591.39 615.54 591.25 616.1C600.43 611.28 608.63 604.84 615.44 597.16C615.44 597.16 615.43 597.14 615.43 597.14C620.78 590.88 624.02 582.77 624.02 573.88" id="dD9uD9ukb"></path><path d="M624.02 573.88C624.02 554.12 607.98 538.11 588.21 538.11C585.22 538.11 582.31 538.47 579.53 539.17C569.51 541.65 561.17 548.37 556.47 557.29C556.48 557.29 556.48 557.31 556.48 557.31C557.06 557.31 561.68 557.31 562.26 557.31C564.33 557.55 574.69 558.8 593.33 561.03C593.62 561.69 595.05 564.99 597.62 570.94C600.51 582.23 602.12 588.5 602.44 589.75C597.02 600.48 594 606.42 593.4 607.62C592.11 612.7 591.39 615.54 591.25 616.1C600.43 611.28 608.63 604.84 615.44 597.16C615.44 597.16 615.43 597.14 615.43 597.14C620.78 590.88 624.02 582.77 624.02 573.88" id="c1LXoDd0DZ"></path><path d="M624.02 573.88C624.02 554.12 607.98 538.11 588.21 538.11C585.22 538.11 582.31 538.47 579.53 539.17C569.51 541.65 561.17 548.37 556.47 557.29C556.48 557.29 556.48 557.31 556.48 557.31C557.06 557.31 561.68 557.31 562.26 557.31C564.33 557.55 574.69 558.8 593.33 561.03C593.62 561.69 595.05 564.99 597.62 570.94C600.51 582.23 602.12 588.5 602.44 589.75C597.02 600.48 594 606.42 593.4 607.62C592.11 612.7 591.39 615.54 591.25 616.1C600.43 611.28 608.63 604.84 615.44 597.16C615.44 597.16 615.43 597.14 615.43 597.14C620.78 590.88 624.02 582.77 624.02 573.88" id="aPrfSMBGq"></path><path d="M572.97 553.08C566.99 553.08 561.37 554.61 556.48 557.31C569.93 563.31 578.92 574.22 578.92 586.7C578.92 599.49 569.45 610.66 555.42 616.55C548.67 619.4 540.86 621.02 532.54 621.02C528.45 621.02 524.49 620.63 520.71 619.89C530.36 623.69 540.85 625.77 551.84 625.77C562.76 625.77 573.19 623.72 582.77 619.96C585.68 618.83 588.51 617.55 591.25 616.1C600.82 610.05 607.16 599.38 607.16 587.24C607.16 568.37 591.85 553.08 572.97 553.08" id="a2oBWllVIM"></path><path d="M572.97 553.08C566.99 553.08 561.37 554.61 556.48 557.31C569.93 563.31 578.92 574.22 578.92 586.7C578.92 599.49 569.45 610.66 555.42 616.55C548.67 619.4 540.86 621.02 532.54 621.02C528.45 621.02 524.49 620.63 520.71 619.89C530.36 623.69 540.85 625.77 551.84 625.77C562.76 625.77 573.19 623.72 582.77 619.96C585.68 618.83 588.51 617.55 591.25 616.1C600.82 610.05 607.16 599.38 607.16 587.24C607.16 568.37 591.85 553.08 572.97 553.08" id="a3tsd1nCr"></path><path d="M572.97 553.08C566.99 553.08 561.37 554.61 556.48 557.31C569.93 563.31 578.92 574.22 578.92 586.7C578.92 599.49 569.45 610.66 555.42 616.55C548.67 619.4 540.86 621.02 532.54 621.02C528.45 621.02 524.49 620.63 520.71 619.89C530.36 623.69 540.85 625.77 551.84 625.77C562.76 625.77 573.19 623.72 582.77 619.96C585.68 618.83 588.51 617.55 591.25 616.1C600.82 610.05 607.16 599.38 607.16 587.24C607.16 568.37 591.85 553.08 572.97 553.08" id="c14HwFHwkM"></path><path d="M572.97 553.08C566.99 553.08 561.37 554.61 556.48 557.31C569.93 563.31 578.92 574.22 578.92 586.7C578.92 599.49 569.45 610.66 555.42 616.55C548.67 619.4 540.86 621.02 532.54 621.02C528.45 621.02 524.49 620.63 520.71 619.89C530.36 623.69 540.85 625.77 551.84 625.77C562.76 625.77 573.19 623.72 582.77 619.96C585.68 618.83 588.51 617.55 591.25 616.1C600.82 610.05 607.16 599.38 607.16 587.24C607.16 568.37 591.85 553.08 572.97 553.08" id="hdHQ6zGc"></path><path d="M591.5 516.68C586.42 517.08 580.85 515.64 574.77 512.4C569.55 508.45 563.67 506.16 557.12 505.52C547.29 504.57 541.15 505.91 535.48 508.61C520.39 515.75 514.46 534.02 514.46 541.01C514.46 548.1 516.36 569.41 535.78 577.16C541.06 579.26 547.9 581.56 557.63 580.68C564.14 580.1 569.85 577.75 574.77 573.64C572.67 570.4 570.2 567.61 567.34 565.26C564.48 562.92 561.25 561.04 557.63 559.61C564.38 549.74 572.15 543.73 580.9 541.58C594.05 538.35 603.62 542.98 610.21 546.71C616.8 550.44 623.76 561.7 624.58 573.64C625.07 580.5 622.97 587.38 618.31 594.31C612.88 602.4 606.9 608.79 600.39 613.47C592.27 619.32 583.86 622.11 576.34 624.62C562.81 629.16 543.71 627.58 532.47 625.04C523.26 622.97 521 621.21 513.64 618.2C490.27 608.61 466.9 580.71 467.56 542.42C467.95 519.63 477.39 497.17 492.36 483.23C498.62 477.42 506.11 468.09 526.34 462.53C546.58 456.96 560.11 457.87 573.3 460.95C584.78 463.62 594.84 468.36 603.51 475.12C608.3 480.36 611.29 485.24 612.49 489.74C614.42 496.94 611.42 503.34 608.47 507.16C605.64 510.82 598.82 516.13 591.5 516.68Z" id="a1nx93YEoi"></path><path d="M591.5 516.68C586.42 517.08 580.85 515.64 574.77 512.4C569.55 508.45 563.67 506.16 557.12 505.52C547.29 504.57 541.15 505.91 535.48 508.61C520.39 515.75 514.46 534.02 514.46 541.01C514.46 548.1 516.36 569.41 535.78 577.16C541.06 579.26 547.9 581.56 557.63 580.68C564.14 580.1 569.85 577.75 574.77 573.64C572.67 570.4 570.2 567.61 567.34 565.26C564.48 562.92 561.25 561.04 557.63 559.61C564.38 549.74 572.15 543.73 580.9 541.58C594.05 538.35 603.62 542.98 610.21 546.71C616.8 550.44 623.76 561.7 624.58 573.64C625.07 580.5 622.97 587.38 618.31 594.31C612.88 602.4 606.9 608.79 600.39 613.47C592.27 619.32 583.86 622.11 576.34 624.62C562.81 629.16 543.71 627.58 532.47 625.04C523.26 622.97 521 621.21 513.64 618.2C490.27 608.61 466.9 580.71 467.56 542.42C467.95 519.63 477.39 497.17 492.36 483.23C498.62 477.42 506.11 468.09 526.34 462.53C546.58 456.96 560.11 457.87 573.3 460.95C584.78 463.62 594.84 468.36 603.51 475.12C608.3 480.36 611.29 485.24 612.49 489.74C614.42 496.94 611.42 503.34 608.47 507.16C605.64 510.82 598.82 516.13 591.5 516.68Z" id="i1EbDLIKBk"></path></defs><g><g><g><use xlink:href="#i1aTF1Z9yV" opacity="1" fill="#f37eb3" fill-opacity="1"></use><g><use xlink:href="#i1aTF1Z9yV" opacity="1" fill-opacity="0" stroke="#000000" stroke-width="1" stroke-opacity="0"></use></g></g><g><use xlink:href="#acxpwdFtj" opacity="1" fill="#ffffff" fill-opacity="1"></use><g><use xlink:href="#acxpwdFtj" opacity="1" fill-opacity="0" stroke="#000000" stroke-width="1" stroke-opacity="0"></use></g></g><g><use xlink:href="#f16zvfvL50" opacity="1" fill="#385a7e" fill-opacity="1"></use><g><use xlink:href="#f16zvfvL50" opacity="1" fill-opacity="0" stroke="#000000" stroke-width="1" stroke-opacity="0"></use></g></g><g><use xlink:href="#btKoNwAMW" opacity="1" fill="#30304c" fill-opacity="1"></use><g><use xlink:href="#btKoNwAMW" opacity="1" fill-opacity="0" stroke="#000000" stroke-width="1" stroke-opacity="0"></use></g></g><g><use xlink:href="#a2yFRfuTr0" opacity="1" fill="#4d4d72" fill-opacity="1"></use><g><use xlink:href="#a2yFRfuTr0" opacity="1" fill-opacity="0" stroke="#000000" stroke-width="1" stroke-opacity="0"></use></g></g><g><use xlink:href="#e23FcVTwB" opacity="1" fill="#4d4d72" fill-opacity="1"></use><g><use xlink:href="#e23FcVTwB" opacity="1" fill-opacity="0" stroke="#000000" stroke-width="1" stroke-opacity="0"></use></g></g><g><use xlink:href="#ihYok9rTE" opacity="1" fill="#d8d8e4" fill-opacity="1"></use><g><use xlink:href="#ihYok9rTE" opacity="1" fill-opacity="0" stroke="#000000" stroke-width="1" stroke-opacity="0"></use></g></g><g><use xlink:href="#d33U6xNSuk" opacity="1" fill="#000000" fill-opacity="1"></use><g><use xlink:href="#d33U6xNSuk" opacity="1" fill-opacity="0" stroke="#000000" stroke-width="1" stroke-opacity="0"></use></g></g><g><use xlink:href="#bGMnLsOwC" opacity="1" fill="#000000" fill-opacity="1"></use><g><use xlink:href="#bGMnLsOwC" opacity="1" fill-opacity="0" stroke="#000000" stroke-width="1" stroke-opacity="0"></use></g></g><g><use xlink:href="#c4AC1GChtE" opacity="1" fill="#000000" fill-opacity="1"></use><g><use xlink:href="#c4AC1GChtE" opacity="1" fill-opacity="0" stroke="#000000" stroke-width="1" stroke-opacity="0"></use></g></g><g><use xlink:href="#f1XpNWmO5W" opacity="1" fill="#000000" fill-opacity="1"></use><g><use xlink:href="#f1XpNWmO5W" opacity="1" fill-opacity="0" stroke="#000000" stroke-width="1" stroke-opacity="0"></use></g></g><g><use xlink:href="#c3BOvPGAAz" opacity="1" fill="#000000" fill-opacity="1"></use><g><use xlink:href="#c3BOvPGAAz" opacity="1" fill-opacity="0" stroke="#000000" stroke-width="1" stroke-opacity="0"></use></g></g><g><use xlink:href="#a4Bj5prSwT" opacity="1" fill="#000000" fill-opacity="1"></use><g><use xlink:href="#a4Bj5prSwT" opacity="1" fill-opacity="0" stroke="#000000" stroke-width="1" stroke-opacity="0"></use></g></g><g><use xlink:href="#aGmbVTWEY" opacity="1" fill="#000000" fill-opacity="1"></use><g><use xlink:href="#aGmbVTWEY" opacity="1" fill-opacity="0" stroke="#000000" stroke-width="1" stroke-opacity="0"></use></g></g><g><use xlink:href="#g3xcxtIuDK" opacity="1" fill="#000000" fill-opacity="1"></use><g><use xlink:href="#g3xcxtIuDK" opacity="1" fill-opacity="0" stroke="#000000" stroke-width="1" stroke-opacity="0"></use></g></g><g><use xlink:href="#jmmmLN4oa" opacity="1" fill="#000000" fill-opacity="1"></use><g><use xlink:href="#jmmmLN4oa" opacity="1" fill-opacity="0" stroke="#000000" stroke-width="1" stroke-opacity="0"></use></g></g><g><use xlink:href="#d1oowpuJAP" opacity="1" fill="#000000" fill-opacity="1"></use><g><use xlink:href="#d1oowpuJAP" opacity="1" fill-opacity="0" stroke="#000000" stroke-width="1" stroke-opacity="0"></use></g></g><g><g><use xlink:href="#bKGyxpb23" opacity="1" fill="#244d89" fill-opacity="1"></use><g><use xlink:href="#bKGyxpb23" opacity="1" fill-opacity="0" stroke="#000000" stroke-width="1" stroke-opacity="0"></use></g></g><g><use xlink:href="#b2h1oD21lA" opacity="1" fill="#000000" fill-opacity="0"></use><g><use xlink:href="#b2h1oD21lA" opacity="1" fill-opacity="0" stroke="#000000" stroke-width="1" stroke-opacity="0"></use></g></g><g><use xlink:href="#blpfmllSP" opacity="1" fill="#000000" fill-opacity="0"></use><g><use xlink:href="#blpfmllSP" opacity="1" fill-opacity="0" stroke="#000000" stroke-width="1" stroke-opacity="0"></use></g></g><g><use xlink:href="#avNZcNV6Q" opacity="1" fill="#000000" fill-opacity="0"></use><g><use xlink:href="#avNZcNV6Q" opacity="1" fill-opacity="0" stroke="#000000" stroke-width="1" stroke-opacity="0"></use></g></g><g><use xlink:href="#a66o7UKnHn" opacity="1" fill="#3fc2f0" fill-opacity="1"></use><g><use xlink:href="#a66o7UKnHn" opacity="1" fill-opacity="0" stroke="#000000" stroke-width="1" stroke-opacity="0"></use></g></g><g><use xlink:href="#aTgan28V3" opacity="1" fill="#000000" fill-opacity="0"></use><g><use xlink:href="#aTgan28V3" opacity="1" fill-opacity="0" stroke="#000000" stroke-width="1" stroke-opacity="0"></use></g></g><g><use xlink:href="#g3IvWOOJ2r" opacity="1" fill="#000000" fill-opacity="0"></use><g><use xlink:href="#g3IvWOOJ2r" opacity="1" fill-opacity="0" stroke="#000000" stroke-width="1" stroke-opacity="0"></use></g></g><g><use xlink:href="#d4lJSkVhG" opacity="1" fill="#000000" fill-opacity="0"></use><g><use xlink:href="#d4lJSkVhG" opacity="1" fill-opacity="0" stroke="#000000" stroke-width="1" stroke-opacity="0"></use></g></g><g><use xlink:href="#i1vS487Fwv" opacity="1" fill="#2c84bd" fill-opacity="1"></use><g><use xlink:href="#i1vS487Fwv" opacity="1" fill-opacity="0" stroke="#000000" stroke-width="1" stroke-opacity="0"></use></g></g><g><use xlink:href="#a27Wr1CDrb" opacity="1" fill="#000000" fill-opacity="0"></use><g><use xlink:href="#a27Wr1CDrb" opacity="1" fill-opacity="0" stroke="#000000" stroke-width="1" stroke-opacity="0"></use></g></g><g><use xlink:href="#b11dNmwtT5" opacity="1" fill="#000000" fill-opacity="0"></use><g><use xlink:href="#b11dNmwtT5" opacity="1" fill-opacity="0" stroke="#000000" stroke-width="1" stroke-opacity="0"></use></g></g><g><use xlink:href="#ar4p78ZSB" opacity="1" fill="#000000" fill-opacity="0"></use><g><use xlink:href="#ar4p78ZSB" opacity="1" fill-opacity="0" stroke="#000000" stroke-width="1" stroke-opacity="0"></use></g></g><g><use xlink:href="#gc9eENi7" opacity="1" fill="#38589a" fill-opacity="1"></use><g><use xlink:href="#gc9eENi7" opacity="1" fill-opacity="0" stroke="#000000" stroke-width="1" stroke-opacity="0"></use></g></g><g><use xlink:href="#b2KqEgVxga" opacity="1" fill="#000000" fill-opacity="0"></use><g><use xlink:href="#b2KqEgVxga" opacity="1" fill-opacity="0" stroke="#000000" stroke-width="1" stroke-opacity="0"></use></g></g><g><use xlink:href="#c2nhAlULRL" opacity="1" fill="#000000" fill-opacity="0"></use><g><use xlink:href="#c2nhAlULRL" opacity="1" fill-opacity="0" stroke="#000000" stroke-width="1" stroke-opacity="0"></use></g></g><g><use xlink:href="#d1l06lJUyi" opacity="1" fill="#000000" fill-opacity="0"></use><g><use xlink:href="#d1l06lJUyi" opacity="1" fill-opacity="0" stroke="#000000" stroke-width="1" stroke-opacity="0"></use></g></g><g><use xlink:href="#avXnIDc1H" opacity="1" fill="#244d89" fill-opacity="1"></use><g><use xlink:href="#avXnIDc1H" opacity="1" fill-opacity="0" stroke="#000000" stroke-width="1" stroke-opacity="0"></use></g></g><g><use xlink:href="#akXyNhG7s" opacity="1" fill="#000000" fill-opacity="0"></use><g><use xlink:href="#akXyNhG7s" opacity="1" fill-opacity="0" stroke="#000000" stroke-width="1" stroke-opacity="0"></use></g></g><g><use xlink:href="#c3aja8wjbG" opacity="1" fill="#000000" fill-opacity="0"></use><g><use xlink:href="#c3aja8wjbG" opacity="1" fill-opacity="0" stroke="#000000" stroke-width="1" stroke-opacity="0"></use></g></g><g><use xlink:href="#c2UlYCtocn" opacity="1" fill="#000000" fill-opacity="0"></use><g><use xlink:href="#c2UlYCtocn" opacity="1" fill-opacity="0" stroke="#000000" stroke-width="1" stroke-opacity="0"></use></g></g><g><use xlink:href="#bgw7BBgJN" opacity="1" fill="#3fc2f0" fill-opacity="1"></use><g><use xlink:href="#bgw7BBgJN" opacity="1" fill-opacity="0" stroke="#000000" stroke-width="1" stroke-opacity="0"></use></g></g><g><use xlink:href="#dD9uD9ukb" opacity="1" fill="#000000" fill-opacity="0"></use><g><use xlink:href="#dD9uD9ukb" opacity="1" fill-opacity="0" stroke="#000000" stroke-width="1" stroke-opacity="0"></use></g></g><g><use xlink:href="#c1LXoDd0DZ" opacity="1" fill="#000000" fill-opacity="0"></use><g><use xlink:href="#c1LXoDd0DZ" opacity="1" fill-opacity="0" stroke="#000000" stroke-width="1" stroke-opacity="0"></use></g></g><g><use xlink:href="#aPrfSMBGq" opacity="1" fill="#000000" fill-opacity="0"></use><g><use xlink:href="#aPrfSMBGq" opacity="1" fill-opacity="0" stroke="#000000" stroke-width="1" stroke-opacity="0"></use></g></g><g><use xlink:href="#a2oBWllVIM" opacity="1" fill="#2c84bd" fill-opacity="1"></use><g><use xlink:href="#a2oBWllVIM" opacity="1" fill-opacity="0" stroke="#000000" stroke-width="1" stroke-opacity="0"></use></g></g><g><use xlink:href="#a3tsd1nCr" opacity="1" fill="#000000" fill-opacity="0"></use><g><use xlink:href="#a3tsd1nCr" opacity="1" fill-opacity="0" stroke="#000000" stroke-width="1" stroke-opacity="0"></use></g></g><g><use xlink:href="#c14HwFHwkM" opacity="1" fill="#000000" fill-opacity="0"></use><g><use xlink:href="#c14HwFHwkM" opacity="1" fill-opacity="0" stroke="#000000" stroke-width="1" stroke-opacity="0"></use></g></g><g><use xlink:href="#hdHQ6zGc" opacity="1" fill="#000000" fill-opacity="0"></use><g><use xlink:href="#hdHQ6zGc" opacity="1" fill-opacity="0" stroke="#000000" stroke-width="1" stroke-opacity="0"></use></g></g><g><use xlink:href="#a1nx93YEoi" opacity="1" fill="#000000" fill-opacity="0"></use><g><use xlink:href="#a1nx93YEoi" opacity="1" fill-opacity="0" stroke="#000000" stroke-width="1" stroke-opacity="0"></use></g></g><g><use xlink:href="#i1EbDLIKBk" opacity="1" fill="#000000" fill-opacity="0"></use><g><use xlink:href="#i1EbDLIKBk" opacity="1" fill-opacity="0" stroke="#000000" stroke-width="16" stroke-opacity="1"></use></g></g></g></g></g></svg>