<svg id="svg" version="1.1" width="515" height="515" xmlns="http://www.w3.org/2000/svg" xmlns:xlink="http://www.w3.org/1999/xlink" style="display: block;"><g id="svgg"><path id="path0" d="M111.662 106.750 C 111.076 107.712,107.991 117.050,99.022 145.000 C 95.052 157.375,90.947 169.879,89.901 172.788 C 88.856 175.696,88.000 178.733,88.000 179.538 C 88.000 180.815,107.901 181.000,245.000 181.000 C 365.365 181.000,402.000 181.277,402.000 182.185 C 402.000 182.837,400.243 188.575,398.094 194.935 C 395.946 201.296,387.795 226.075,379.980 250.000 C 372.165 273.925,362.762 302.500,359.084 313.500 L 352.396 333.500 194.779 333.753 L 37.163 334.006 35.626 338.253 C 34.781 340.589,32.051 348.800,29.560 356.500 C 27.068 364.200,22.323 378.816,19.015 388.979 C 15.707 399.142,13.000 407.805,13.000 408.229 C 13.000 409.896,369.276 409.139,376.531 407.457 C 409.634 399.779,444.380 371.710,458.794 341.000 C 460.877 336.562,467.407 317.076,492.472 240.500 C 499.493 219.050,506.966 196.257,509.078 189.849 C 522.485 149.181,509.591 117.241,476.008 107.935 C 468.731 105.918,112.872 104.761,111.662 106.750 M24.523 222.962 C 24.196 223.492,21.450 231.254,18.420 240.212 C 15.391 249.171,12.644 257.175,12.317 258.000 C 11.989 258.825,9.141 267.040,5.986 276.255 L 0.251 293.010 93.791 292.755 L 187.332 292.500 193.158 275.500 C 196.362 266.150,201.512 251.075,204.603 242.000 C 207.693 232.925,210.638 224.713,211.146 223.750 C 212.212 221.731,25.771 220.944,24.523 222.962 " stroke="none" fill="#000000" fill-rule="evenodd"></path></g></svg>