<?xml version="1.0" encoding="UTF-8" standalone="no"?>
<!DOCTYPE svg PUBLIC "-//W3C//DTD SVG 1.1//EN" "http://www.w3.org/Graphics/SVG/1.1/DTD/svg11.dtd">
<svg version="1.1" xmlns="http://www.w3.org/2000/svg" xmlns:xlink="http://www.w3.org/1999/xlink" preserveAspectRatio="xMidYMid meet" viewBox="0 0 640 640" width="640" height="640"><defs><path d="M613.7 547.07C632.1 565.47 632.1 595.3 613.7 613.7C613.7 613.7 613.7 613.7 613.7 613.7C595.3 632.09 565.47 632.09 547.07 613.7C534.82 601.44 473.54 540.17 363.25 429.88L429.88 363.25C540.17 473.54 601.44 534.81 613.7 547.07Z" id="ffcBhfySX"></path><path d="M429.88 363.24C429.88 363.24 429.88 363.24 429.88 363.24C461.38 394.74 478.88 412.24 482.38 415.74C482.38 415.74 482.38 415.74 482.38 415.74C442.4 455.72 420.19 477.93 415.75 482.37C415.75 482.37 415.75 482.37 415.75 482.37C384.25 450.87 366.75 433.37 363.25 429.87C363.25 429.87 363.25 429.87 363.25 429.87C403.23 389.89 425.43 367.68 429.88 363.24Z" id="b1w1nX8gqB"></path><path d="M237.5 12.5C113.23 12.5 12.5 113.23 12.5 237.5C12.5 361.76 113.23 462.49 237.5 462.49C361.76 462.49 462.49 361.76 462.49 237.5C462.49 113.23 361.76 12.5 237.5 12.5Z" id="d2r0IiwyQ2"></path><path d="M237.5 67.49C143.6 67.49 67.49 143.6 67.49 237.5C67.49 331.39 143.6 407.51 237.5 407.51C331.39 407.51 407.5 331.39 407.5 237.5C407.5 143.6 331.39 67.49 237.5 67.49Z" id="a4KJwnUg5c"></path><path d="M237.79 419.97C246.13 419.97 254.49 419.4 262.78 418.24C302.34 412.74 338.22 394.86 366.54 366.54C437.7 295.39 437.7 179.61 366.54 108.45C332.07 73.98 286.25 55 237.5 55C188.76 55 142.92 73.99 108.45 108.45C80.14 136.77 62.26 172.65 56.75 212.22C51.43 250.48 58.54 290.19 76.77 324.03C80.05 330.1 87.63 332.37 93.7 329.1C99.78 325.83 102.05 318.25 98.78 312.17C66.06 251.45 77.31 174.95 126.14 126.13C155.88 96.38 195.43 80 237.5 80C279.57 80 319.12 96.38 348.87 126.13C410.28 187.54 410.28 287.46 348.87 348.86C300.05 397.69 223.54 408.93 162.83 376.22C156.75 372.95 149.17 375.22 145.9 381.29C142.62 387.37 144.89 394.95 150.97 398.22C177.48 412.51 207.59 419.97 237.79 419.97Z" id="f4wbzIa4TV"></path><path d="M108.35 348.96C103.47 353.84 103.47 361.75 108.35 366.64C110.79 369.08 113.99 370.3 117.19 370.3C120.39 370.3 123.59 369.08 126.03 366.64C126.04 366.63 126.13 366.54 126.14 366.53C131.02 361.65 131.02 353.73 126.14 348.85C121.25 343.97 113.34 343.97 108.46 348.85C108.44 348.87 108.36 348.95 108.35 348.96Z" id="a28f8Ec2MI"></path><path d="M397.41 91.72C400.58 91.72 403.75 90.52 406.18 88.12C411.1 83.27 411.15 75.36 406.3 70.44C406.22 70.35 405.52 69.65 405.43 69.56C400.55 64.68 392.64 64.68 387.75 69.56C382.87 74.44 382.87 82.36 387.75 87.24C387.8 87.29 388.05 87.55 388.51 88C392.29 90.48 395.25 91.72 397.41 91.72Z" id="b1eKVgq7Ba"></path><path d="M46.01 0.15L47.72 0.32L49.41 0.56L51.08 0.87L52.73 1.24L54.35 1.68L55.94 2.18L57.51 2.74L59.05 3.35L60.56 4.03L62.04 4.76L63.49 5.54L64.9 6.38L66.27 7.28L67.61 8.22L68.91 9.21L70.17 10.25L71.39 11.34L72.56 12.47L73.7 13.64L74.78 14.86L75.82 16.12L76.81 17.42L77.76 18.76L78.65 20.14L79.49 21.55L80.27 22.99L81 24.47L81.68 25.98L82.3 27.52L82.85 29.09L83.35 30.68L83.79 32.31L84.16 33.95L84.47 35.62L84.71 37.31L84.88 39.03L84.99 40.76L85.02 42.51L85.02 55.42L87.78 53.15L90.57 50.93L93.38 48.74L96.23 46.6L99.11 44.51L102.02 42.46L104.95 40.45L107.92 38.49L110.91 36.58L113.93 34.71L116.98 32.88L120.05 31.1L123.15 29.37L126.27 27.68L129.42 26.05L132.59 24.45L135.78 22.91L139 21.41L142.24 19.97L145.5 18.57L148.78 17.21L152.08 15.91L155.4 14.66L158.74 13.45L162.09 12.3L165.47 11.2L168.86 10.14L172.27 9.14L175.69 8.18L179.13 7.28L182.59 6.43L186.06 5.63L189.54 4.89L193.04 4.19L196.54 3.55L200.06 2.96L203.6 2.42L207.14 1.94L210.69 1.51L214.25 1.13L218.28 0.77L222.32 0.48L226.35 0.26L230.39 0.11L234.42 0.03L238.45 0.01L242.48 0.06L246.5 0.19L250.52 0.37L254.53 0.63L258.53 0.95L262.53 1.34L266.52 1.8L270.49 2.33L274.46 2.92L278.41 3.57L282.36 4.3L286.28 5.08L290.2 5.94L294.09 6.86L297.98 7.84L301.84 8.89L305.68 10L309.51 11.18L313.32 12.42L317.1 13.73L320.86 15.1L324.6 16.53L328.32 18.02L332.01 19.58L335.67 21.2L339.31 22.89L342.92 24.63L346.5 26.44L350.05 28.31L353.57 30.24L357.06 32.23L360.52 34.29L363.94 36.4L367.33 38.58L367.76 38.87L368.17 39.17L368.56 39.49L368.94 39.82L369.3 40.17L369.65 40.53L369.98 40.89L370.29 41.27L370.59 41.66L370.87 42.06L371.13 42.47L371.38 42.89L371.61 43.32L371.82 43.75L372.01 44.19L372.19 44.64L372.35 45.09L372.49 45.55L372.62 46.01L372.73 46.48L372.82 46.95L372.89 47.43L372.94 47.9L372.97 48.38L372.99 48.86L372.99 49.35L372.97 49.83L372.93 50.31L372.87 50.79L372.79 51.27L372.7 51.75L372.58 52.23L372.45 52.7L372.29 53.17L372.12 53.63L371.92 54.09L371.71 54.55L371.48 55L371.23 55.44L370.95 55.88L370.66 56.31L370.36 56.72L370.04 57.11L369.71 57.49L369.36 57.85L369 58.2L368.64 58.53L368.26 58.84L367.87 59.14L367.47 59.42L367.06 59.68L366.64 59.92L366.21 60.15L365.78 60.37L365.34 60.56L364.89 60.74L364.44 60.9L363.98 61.04L363.52 61.17L363.05 61.27L362.58 61.36L362.1 61.43L361.63 61.49L361.15 61.52L360.67 61.54L360.18 61.54L359.7 61.52L359.22 61.48L358.74 61.42L358.26 61.34L357.78 61.24L357.3 61.13L356.83 60.99L356.36 60.84L355.9 60.67L355.44 60.47L354.98 60.26L354.53 60.03L354.09 59.77L353.65 59.5L347.33 55.52L340.9 51.79L334.39 48.31L327.78 45.08L321.1 42.09L314.34 39.35L307.51 36.85L300.63 34.59L293.69 32.58L286.7 30.81L279.67 29.29L272.6 28L265.51 26.96L258.4 26.15L251.27 25.59L244.13 25.26L236.99 25.17L229.86 25.32L222.73 25.71L215.62 26.33L208.54 27.18L201.49 28.27L194.47 29.6L187.5 31.16L180.58 32.95L173.72 34.97L166.92 37.22L160.19 39.71L153.53 42.42L146.96 45.36L140.48 48.53L134.09 51.93L127.81 55.56L121.63 59.41L115.57 63.49L109.64 67.79L103.83 72.32L98.16 77.07L92.62 82.04L87.24 87.24L84.26 90.28L81.36 93.36L78.52 96.49L75.75 99.67L73.04 102.89L70.41 106.16L67.85 109.47L65.36 112.83L62.93 116.23L60.58 119.67L58.3 123.15L56.1 126.67L53.96 130.23L51.9 133.82L49.91 137.46L47.99 141.12L46.15 144.83L44.38 148.56L42.69 152.33L41.07 156.14L39.53 159.97L38.06 163.83L36.67 167.73L35.35 171.65L34.11 175.6L32.95 179.57L31.86 183.57L30.86 187.6L29.93 191.65L29.08 195.72L28.31 199.81L27.62 203.93L27.01 208.06L26.48 212.22L26.03 216.39L25.66 220.58L25.37 224.79L25.17 229.01L25.04 233.25L25 237.5L25.04 241.75L25.17 245.98L25.37 250.21L25.66 254.41L26.03 258.6L26.48 262.78L27.01 266.93L27.62 271.07L28.31 275.18L29.08 279.28L29.93 283.35L30.86 287.4L31.86 291.42L32.95 295.42L34.11 299.4L35.35 303.35L36.66 307.27L38.06 311.16L39.52 315.03L41.07 318.86L42.69 322.66L44.38 326.43L46.15 330.17L47.99 333.87L49.91 337.54L51.9 341.17L53.96 344.77L56.1 348.33L58.3 351.85L60.58 355.33L62.93 358.77L65.35 362.16L67.85 365.52L70.41 368.83L73.04 372.1L75.74 375.33L78.52 378.51L81.35 381.64L84.26 384.72L87.24 387.75L90.27 390.73L93.36 393.64L96.49 396.48L99.67 399.25L102.89 401.95L106.16 404.59L109.47 407.15L112.83 409.64L116.23 412.06L119.67 414.41L123.15 416.69L126.67 418.9L130.23 421.03L133.82 423.1L137.45 425.09L141.12 427L144.83 428.84L148.56 430.61L152.33 432.31L156.13 433.93L159.97 435.47L163.83 436.94L167.72 438.33L171.65 439.65L175.59 440.89L179.57 442.05L183.57 443.13L187.6 444.14L191.65 445.07L195.72 445.91L199.81 446.68L203.93 447.38L208.06 447.99L212.22 448.52L216.39 448.97L220.58 449.34L224.79 449.62L229.01 449.83L233.25 449.95L237.5 450L241.75 449.95L245.98 449.83L250.21 449.62L254.41 449.34L258.6 448.97L262.78 448.52L266.93 447.99L271.07 447.38L275.18 446.68L279.27 445.91L283.35 445.07L287.4 444.14L291.42 443.13L295.42 442.05L299.4 440.89L303.35 439.65L307.27 438.33L311.16 436.94L315.02 435.47L318.86 433.93L322.66 432.31L326.43 430.61L330.17 428.84L333.87 427L337.54 425.09L341.17 423.1L344.77 421.03L348.32 418.9L351.84 416.69L355.32 414.41L358.76 412.06L362.16 409.64L365.52 407.15L368.83 404.59L372.1 401.95L375.32 399.25L378.5 396.48L381.63 393.64L384.72 390.73L387.75 387.75L392.97 382.35L397.96 376.8L402.72 371.11L407.26 365.28L411.58 359.33L415.67 353.25L419.53 347.05L423.16 340.75L426.57 334.35L429.74 327.85L432.69 321.26L435.4 314.58L437.88 307.83L440.14 301.02L442.16 294.13L443.94 287.19L445.49 280.21L446.81 273.17L447.89 266.11L448.74 259.01L449.35 251.88L449.72 244.74L449.86 237.59L449.75 230.44L449.41 223.28L448.83 216.14L448 209.01L446.94 201.91L445.63 194.83L444.08 187.78L442.29 180.78L440.25 173.83L437.97 166.93L435.44 160.1L432.67 153.33L429.65 146.63L426.38 140.02L422.87 133.5L419.1 127.06L415.09 120.73L414.81 120.3L414.56 119.85L414.33 119.41L414.11 118.95L413.92 118.49L413.74 118.02L413.58 117.56L413.45 117.08L413.33 116.61L413.23 116.13L413.15 115.65L413.09 115.17L413.05 114.69L413.03 114.2L413.03 113.72L413.04 113.24L413.07 112.76L413.13 112.28L413.2 111.81L413.28 111.34L413.39 110.87L413.51 110.41L413.65 109.95L413.81 109.49L413.99 109.05L414.18 108.6L414.39 108.17L414.62 107.74L414.86 107.32L415.13 106.91L415.41 106.51L415.7 106.12L416.01 105.74L416.34 105.37L416.68 105.02L417.05 104.67L417.42 104.34L417.82 104.02L418.22 103.71L418.65 103.42L419.08 103.14L419.53 102.89L419.98 102.65L420.43 102.44L420.89 102.24L421.36 102.07L421.82 101.91L422.3 101.77L422.77 101.66L423.25 101.56L423.73 101.48L424.21 101.42L424.69 101.38L425.18 101.36L425.66 101.35L426.14 101.37L426.62 101.4L427.1 101.45L427.57 101.52L428.04 101.61L428.51 101.72L428.97 101.84L429.43 101.98L429.89 102.14L430.34 102.31L430.78 102.51L431.21 102.72L431.64 102.95L432.06 103.19L432.47 103.45L432.87 103.73L433.26 104.03L433.64 104.34L434.01 104.67L434.37 105.01L434.71 105.37L435.05 105.75L435.37 106.14L435.67 106.55L435.96 106.98L436.9 108.41L437.83 109.86L438.75 111.3L439.66 112.76L440.55 114.22L441.43 115.69L442.31 117.16L443.17 118.64L444.02 120.13L444.86 121.62L445.69 123.12L446.51 124.62L447.31 126.13L448.11 127.64L448.89 129.16L449.66 130.68L450.42 132.21L451.17 133.75L451.91 135.29L452.64 136.83L453.36 138.38L454.06 139.94L454.75 141.5L455.44 143.06L456.11 144.63L456.77 146.21L457.41 147.78L458.05 149.37L458.68 150.95L459.29 152.55L459.89 154.14L460.48 155.74L461.06 157.35L461.63 158.95L462.18 160.57L462.73 162.18L463.26 163.8L463.78 165.43L464.29 167.05L464.79 168.68L465.47 168.03L466.15 167.4L466.85 166.78L467.56 166.17L468.28 165.57L469.01 164.98L469.76 164.42L470.51 163.86L471.27 163.32L472.05 162.79L472.84 162.28L473.63 161.78L474.44 161.3L475.26 160.83L476.08 160.37L476.92 159.94L477.76 159.51L478.62 159.11L479.48 158.72L480.35 158.34L481.23 157.98L482.12 157.64L483.01 157.32L483.92 157.01L484.83 156.72L485.75 156.45L486.67 156.19L487.61 155.95L488.55 155.73L489.5 155.53L490.45 155.35L491.41 155.18L492.38 155.03L493.35 154.91L494.33 154.8L495.31 154.71L496.3 154.64L497.3 154.59L498.3 154.56L499.3 154.55L501.33 154.59L503.34 154.71L505.32 154.92L507.29 155.2L509.22 155.55L511.13 155.98L513.02 156.49L514.87 157.07L516.69 157.71L518.47 158.43L520.22 159.21L521.94 160.06L523.62 160.97L525.25 161.95L526.85 162.98L528.4 164.08L529.91 165.23L531.37 166.43L532.78 167.69L534.15 169.01L535.46 170.37L536.72 171.79L537.93 173.25L539.08 174.75L540.17 176.31L541.21 177.9L542.18 179.54L543.09 181.22L543.94 182.93L544.72 184.68L545.44 186.47L546.09 188.29L546.66 190.14L547.17 192.02L547.6 193.93L547.96 195.87L548.24 197.83L548.44 199.82L548.56 201.83L548.61 203.86L548.61 228.18L548.56 230.21L548.44 232.22L548.24 234.2L547.96 236.17L547.6 238.1L547.17 240.01L546.66 241.89L546.09 243.75L545.44 245.57L544.72 247.35L543.94 249.1L543.09 250.82L542.18 252.49L541.21 254.13L540.17 255.73L539.08 257.28L537.93 258.79L536.72 260.25L535.46 261.66L534.15 263.03L532.78 264.34L531.37 265.6L529.91 266.81L528.4 267.96L526.85 269.05L525.25 270.09L523.62 271.06L521.94 271.97L520.23 272.82L518.47 273.6L516.69 274.32L514.87 274.97L513.02 275.54L511.14 276.05L509.22 276.48L507.29 276.84L505.32 277.12L503.34 277.32L501.33 277.44L499.3 277.48L498.57 277.48L497.84 277.46L497.12 277.44L496.4 277.4L495.68 277.35L494.96 277.29L494.25 277.23L493.54 277.15L492.83 277.06L492.12 276.96L491.42 276.85L490.72 276.73L490.03 276.61L489.34 276.47L488.65 276.32L487.97 276.16L487.29 276L486.61 275.82L485.94 275.64L485.27 275.44L484.6 275.24L483.94 275.03L483.28 274.8L482.63 274.57L481.98 274.33L481.33 274.09L480.69 273.83L480.06 273.56L479.43 273.29L478.8 273.01L478.18 272.71L477.56 272.41L476.95 272.11L476.34 271.79L475.74 271.47L475.14 271.13L474.55 270.79L473.96 270.44L473.38 270.09L472.8 269.72L472.47 272.06L472.11 274.4L471.73 276.72L471.33 279.05L470.91 281.36L470.46 283.68L469.99 285.98L469.5 288.29L468.98 290.58L468.44 292.87L467.88 295.15L467.3 297.43L466.69 299.7L466.07 301.96L465.42 304.22L464.74 306.47L464.05 308.71L463.33 310.94L462.6 313.17L461.84 315.39L461.06 317.6L460.25 319.8L459.43 322L458.58 324.18L457.71 326.36L456.83 328.53L455.92 330.69L454.98 332.84L454.03 334.98L453.06 337.11L452.06 339.24L451.05 341.35L450.01 343.45L448.96 345.54L447.88 347.63L446.78 349.7L445.66 351.76L444.53 353.81L443.37 355.85L442.19 357.88L469.28 384.97L469.97 384.01L470.69 383.07L471.43 382.15L472.18 381.24L472.96 380.36L473.75 379.5L474.57 378.66L475.4 377.84L476.26 377.04L477.13 376.26L478.02 375.5L478.92 374.77L479.84 374.05L480.78 373.36L481.74 372.69L482.71 372.05L483.69 371.42L484.69 370.82L485.7 370.25L486.73 369.7L487.77 369.17L488.83 368.66L489.89 368.19L490.97 367.73L492.06 367.3L493.17 366.9L494.28 366.53L495.4 366.18L496.54 365.85L497.68 365.55L498.83 365.28L499.99 365.04L501.16 364.83L502.34 364.64L503.52 364.48L504.72 364.35L505.92 364.25L507.12 364.17L508.33 364.13L509.55 364.11L511.58 364.15L513.59 364.28L515.58 364.48L517.54 364.76L519.48 365.12L521.39 365.55L523.27 366.05L525.12 366.63L526.94 367.28L528.72 367.99L530.48 368.78L532.19 369.62L533.87 370.54L535.5 371.51L537.1 372.54L538.65 373.64L540.16 374.79L541.62 376L543.03 377.26L544.4 378.57L545.71 379.93L546.97 381.35L548.18 382.81L549.33 384.32L550.42 385.87L551.46 387.46L552.43 389.1L553.34 390.78L554.19 392.49L554.98 394.24L555.69 396.03L556.34 397.85L556.92 399.7L557.42 401.58L557.85 403.49L558.21 405.43L558.49 407.39L558.69 409.38L558.82 411.39L558.86 413.42L558.86 425L558.85 425.51L558.82 426.02L558.76 426.53L558.69 427.03L558.6 427.52L558.49 428L558.37 428.48L558.22 428.95L558.06 429.41L557.87 429.86L557.68 430.31L557.46 430.74L557.23 431.17L556.98 431.58L556.72 431.99L556.44 432.38L556.15 432.76L555.85 433.13L555.53 433.49L555.2 433.84L554.85 434.17L554.49 434.49L554.12 434.79L553.74 435.09L553.34 435.36L552.94 435.63L552.53 435.87L552.1 436.1L551.67 436.32L551.22 436.52L550.77 436.7L550.31 436.86L549.84 437.01L549.36 437.13L548.88 437.24L548.38 437.33L547.89 437.41L547.38 437.46L546.87 437.49L546.36 437.5L545.84 437.49L545.33 437.46L544.83 437.41L544.33 437.33L543.84 437.24L543.35 437.13L542.88 437.01L542.41 436.86L541.94 436.7L541.49 436.52L541.05 436.32L540.61 436.1L540.19 435.87L539.77 435.63L539.37 435.36L538.97 435.09L538.59 434.79L538.22 434.49L537.86 434.17L537.52 433.84L537.19 433.49L536.87 433.13L536.56 432.76L536.27 432.38L535.99 431.99L535.73 431.58L535.48 431.17L535.25 430.74L535.04 430.31L534.84 429.86L534.66 429.41L534.49 428.95L534.35 428.48L534.22 428L534.11 427.52L534.02 427.03L533.95 426.53L533.9 426.02L533.87 425.51L533.86 425L533.86 413.42L533.84 412.42L533.78 411.43L533.68 410.45L533.54 409.48L533.36 408.52L533.15 407.58L532.9 406.66L532.62 405.74L532.3 404.85L531.94 403.97L531.56 403.1L531.14 402.26L530.69 401.43L530.21 400.62L529.7 399.84L529.16 399.07L528.59 398.33L528 397.61L527.38 396.91L526.73 396.24L526.06 395.59L525.36 394.97L524.64 394.37L523.9 393.81L523.13 393.27L522.34 392.76L521.54 392.28L520.71 391.83L519.87 391.41L519 391.02L518.12 390.67L517.23 390.35L516.31 390.07L515.38 389.82L514.44 389.61L513.49 389.43L512.52 389.29L511.54 389.19L510.55 389.13L509.55 389.11L509.07 389.12L508.59 389.15L508.11 389.19L507.62 389.25L507.13 389.33L506.63 389.43L506.13 389.54L505.63 389.67L505.12 389.82L504.61 389.99L504.09 390.18L503.57 390.38L503.05 390.6L502.52 390.84L501.99 391.09L501.46 391.36L500.92 391.65L500.38 391.96L499.83 392.29L499.28 392.63L498.73 392.99L498.17 393.37L497.61 393.77L497.05 394.18L496.48 394.61L495.91 395.06L495.33 395.53L494.75 396.01L494.17 396.51L493.58 397.03L492.99 397.57L492.4 398.12L491.8 398.7L491.2 399.29L490.59 399.89L489.98 400.52L489.37 401.16L488.75 401.82L488.13 402.5L487.51 403.19L622.53 538.23L624.23 540L625.85 541.82L627.37 543.69L628.81 545.61L630.16 547.57L631.42 549.57L632.6 551.61L633.69 553.69L634.69 555.8L635.61 557.94L636.44 560.1L637.18 562.29L637.83 564.51L638.4 566.74L638.88 568.99L639.27 571.25L639.57 573.52L639.79 575.8L639.92 578.09L639.97 580.38L639.92 582.67L639.79 584.95L639.57 587.24L639.27 589.51L638.88 591.77L638.4 594.02L637.83 596.25L637.18 598.46L636.44 600.65L635.61 602.82L634.69 604.96L633.69 607.07L632.6 609.15L631.42 611.19L630.16 613.19L628.81 615.15L627.37 617.07L625.85 618.94L624.23 620.76L622.53 622.53L621.68 623.37L620.82 624.18L619.94 624.98L619.05 625.76L618.14 626.51L617.23 627.25L616.3 627.97L615.36 628.67L614.4 629.35L613.44 630.01L612.46 630.65L611.47 631.27L610.48 631.87L609.47 632.45L608.45 633L607.42 633.54L606.38 634.06L605.33 634.55L604.27 635.03L603.21 635.48L602.13 635.92L601.05 636.33L599.96 636.72L598.86 637.09L597.75 637.44L596.63 637.76L595.51 638.07L594.38 638.35L593.24 638.61L592.1 638.85L590.95 639.06L589.8 639.26L588.64 639.43L587.47 639.58L586.3 639.7L585.13 639.81L583.95 639.89L582.76 639.95L581.57 639.98L580.38 639.99L579.19 639.98L578 639.95L576.81 639.89L575.63 639.81L574.46 639.7L573.29 639.58L572.12 639.43L570.96 639.26L569.81 639.06L568.66 638.85L567.52 638.61L566.38 638.35L565.25 638.07L564.13 637.76L563.01 637.44L561.91 637.09L560.81 636.72L559.71 636.33L558.63 635.92L557.55 635.48L556.49 635.03L555.43 634.55L554.38 634.06L553.34 633.54L552.31 633L551.29 632.45L550.29 631.87L549.29 631.27L548.3 630.65L547.32 630.01L546.36 629.35L545.41 628.67L544.46 627.97L543.53 627.25L542.62 626.51L541.71 625.76L540.82 624.98L539.94 624.18L539.08 623.37L538.23 622.53L357.96 442.27L355.24 443.85L352.51 445.39L349.75 446.9L346.97 448.37L344.18 449.8L341.37 451.19L338.54 452.55L335.7 453.86L332.83 455.14L329.95 456.38L327.06 457.58L324.15 458.74L321.22 459.87L318.28 460.95L315.32 462L312.35 463L309.37 463.97L306.37 464.9L303.35 465.78L300.33 466.63L297.29 467.44L294.23 468.2L291.17 468.93L288.09 469.62L285.01 470.26L281.91 470.87L278.79 471.43L275.67 471.96L272.54 472.44L269.4 472.88L266.25 473.28L263.09 473.64L259.92 473.95L256.74 474.23L253.55 474.46L250.35 474.65L247.15 474.8L243.94 474.91L240.72 474.97L237.49 474.99L233.78 474.96L230.08 474.88L226.39 474.74L222.71 474.54L219.04 474.29L215.38 473.98L211.74 473.62L208.1 473.2L204.48 472.73L200.87 472.2L197.27 471.62L193.69 470.99L190.12 470.3L186.57 469.55L183.04 468.76L179.51 467.91L176.01 467L172.52 466.04L169.05 465.03L165.6 463.97L162.17 462.86L158.75 461.69L155.36 460.47L151.99 459.2L148.63 457.88L145.3 456.51L141.99 455.08L138.69 453.6L135.43 452.08L132.18 450.5L128.96 448.87L125.76 447.2L122.59 445.47L119.44 443.69L116.32 441.86L113.22 439.99L110.15 438.06L107.11 436.09L104.09 434.06L101.1 431.99L101.1 439.66L101.06 441.69L100.94 443.7L100.73 445.68L100.45 447.65L100.1 449.58L99.66 451.49L99.16 453.38L98.58 455.23L97.93 457.05L97.22 458.83L96.44 460.58L95.59 462.3L94.68 463.97L93.7 465.61L92.67 467.21L91.57 468.76L90.42 470.27L89.22 471.73L87.96 473.14L86.64 474.51L85.28 475.82L83.86 477.08L82.4 478.29L80.89 479.44L79.34 480.53L77.75 481.57L76.11 482.54L74.43 483.45L72.72 484.3L70.97 485.08L69.18 485.8L67.36 486.45L65.51 487.02L63.63 487.53L61.72 487.96L59.78 488.32L57.82 488.6L55.83 488.8L53.82 488.92L51.79 488.96L49.77 488.92L47.76 488.8L45.77 488.6L43.81 488.32L41.87 487.96L39.96 487.53L38.08 487.02L36.23 486.45L34.41 485.8L32.62 485.08L30.87 484.3L29.16 483.45L27.48 482.54L25.84 481.57L24.25 480.53L22.7 479.44L21.19 478.29L19.73 477.08L18.31 475.82L16.95 474.51L15.63 473.14L14.37 471.73L13.17 470.27L12.02 468.76L10.92 467.21L9.89 465.61L8.91 463.98L8 462.3L7.15 460.58L6.37 458.83L5.66 457.05L5.01 455.23L4.43 453.38L3.93 451.49L3.49 449.58L3.14 447.65L2.86 445.68L2.65 443.7L2.53 441.69L2.49 439.66L2.49 415.34L2.5 414.82L2.53 414.31L2.58 413.81L2.65 413.31L2.74 412.82L2.85 412.33L2.98 411.85L3.13 411.39L3.29 410.92L3.47 410.47L3.67 410.03L3.89 409.59L4.12 409.17L4.36 408.75L4.63 408.35L4.9 407.95L5.19 407.57L5.5 407.2L5.82 406.84L6.15 406.5L6.5 406.16L6.86 405.85L7.23 405.54L7.61 405.25L8 404.97L8.41 404.71L8.82 404.46L9.25 404.23L9.68 404.02L10.12 403.82L10.58 403.64L11.04 403.47L11.51 403.33L11.99 403.2L12.47 403.09L12.96 403L13.46 402.93L13.96 402.88L14.47 402.85L14.99 402.84L15.51 402.85L16.01 402.88L16.52 402.93L17.02 403L17.51 403.09L17.99 403.2L18.47 403.33L18.94 403.47L19.4 403.64L19.86 403.82L20.3 404.02L20.73 404.23L21.16 404.46L21.57 404.71L21.98 404.97L22.37 405.25L22.75 405.54L23.12 405.85L23.48 406.16L23.83 406.5L24.16 406.84L24.48 407.2L24.79 407.57L25.08 407.95L25.35 408.35L25.62 408.75L25.86 409.17L26.09 409.59L26.31 410.03L26.51 410.47L26.69 410.92L26.85 411.39L27 411.85L27.13 412.33L27.24 412.82L27.33 413.31L27.4 413.81L27.45 414.31L27.48 414.82L27.49 415.34L27.49 439.66L27.51 440.66L27.57 441.65L27.67 442.63L27.81 443.6L27.98 444.55L28.2 445.49L28.45 446.42L28.73 447.34L29.05 448.23L29.4 449.11L29.79 449.98L30.21 450.82L30.66 451.65L31.14 452.45L31.65 453.24L32.19 454.01L32.75 454.75L33.35 455.47L33.97 456.17L34.62 456.84L35.29 457.49L35.99 458.11L36.71 458.7L37.45 459.27L38.22 459.81L39 460.32L39.81 460.8L40.64 461.25L41.48 461.67L42.34 462.05L43.22 462.41L44.12 462.73L45.03 463.01L45.96 463.26L46.9 463.47L47.86 463.65L48.83 463.79L49.81 463.89L50.8 463.95L51.8 463.97L52.8 463.95L53.79 463.89L54.77 463.79L55.73 463.65L56.69 463.47L57.63 463.26L58.56 463.01L59.47 462.73L60.37 462.41L61.25 462.05L62.11 461.67L62.96 461.25L63.78 460.8L64.59 460.32L65.38 459.81L66.14 459.27L66.88 458.7L67.61 458.11L68.3 457.49L68.98 456.84L69.62 456.17L70.24 455.47L70.84 454.75L71.41 454.01L71.95 453.24L72.46 452.46L72.94 451.65L73.39 450.82L73.8 449.98L74.19 449.11L74.54 448.23L74.86 447.34L75.15 446.42L75.39 445.5L75.61 444.55L75.78 443.6L75.92 442.63L76.02 441.65L76.08 440.66L76.1 439.66L76.1 411.71L75.94 411.55L75.77 411.4L75.61 411.25L75.44 411.09L75.27 410.94L75.11 410.78L74.94 410.63L74.78 410.47L74.61 410.32L74.45 410.16L74.29 410.01L74.12 409.85L73.96 409.7L73.79 409.54L73.63 409.39L73.46 409.23L73.3 409.07L73.14 408.92L72.97 408.76L72.81 408.61L72.64 408.45L72.48 408.29L72.32 408.13L72.15 407.98L71.99 407.82L71.83 407.66L71.67 407.5L71.5 407.35L71.34 407.19L71.18 407.03L71.02 406.87L70.85 406.71L70.69 406.55L70.53 406.39L70.37 406.23L70.21 406.07L70.05 405.91L69.88 405.75L69.72 405.59L69.56 405.43L66.24 402.04L62.99 398.59L59.81 395.09L56.71 391.54L53.69 387.94L50.75 384.29L47.89 380.58L45.1 376.83L42.4 373.03L39.77 369.19L37.22 365.3L34.76 361.37L32.37 357.39L30.06 353.37L27.84 349.31L25.7 345.21L23.64 341.07L21.66 336.89L19.77 332.68L17.96 328.43L16.23 324.15L14.59 319.83L13.04 315.48L11.57 311.1L10.18 306.68L8.88 302.24L7.67 297.77L6.55 293.27L5.51 288.74L4.56 284.19L3.7 279.62L2.93 275.02L2.25 270.39L1.65 265.75L1.15 261.09L0.74 256.4L0.41 251.7L0.18 246.98L0.05 242.25L0 237.5L0.02 234.57L0.07 231.64L0.16 228.73L0.28 225.81L0.44 222.91L0.63 220.01L0.86 217.12L1.12 214.23L1.42 211.35L1.75 208.48L2.11 205.62L2.51 202.77L2.94 199.92L3.41 197.08L3.91 194.25L4.44 191.43L5.01 188.62L5.61 185.82L6.25 183.03L6.91 180.25L7.61 177.48L8.35 174.72L9.12 171.97L9.92 169.23L10.75 166.5L11.61 163.79L12.51 161.08L13.44 158.39L14.41 155.71L15.4 153.04L16.43 150.39L17.49 147.74L18.58 145.11L19.7 142.5L20.86 139.9L22.05 137.31L23.26 134.73L24.51 132.17L25.79 129.63L27.11 127.1L25.93 126.61L24.77 126.1L23.63 125.55L22.5 124.97L21.4 124.36L20.31 123.71L19.25 123.04L18.21 122.33L17.19 121.59L16.2 120.83L15.22 120.04L14.28 119.22L13.35 118.37L12.45 117.5L11.58 116.6L10.74 115.67L9.92 114.72L9.13 113.75L8.36 112.75L7.63 111.73L6.93 110.69L6.25 109.62L5.61 108.54L5 107.43L4.42 106.31L3.87 105.17L3.36 104L2.88 102.82L2.44 101.63L2.03 100.41L1.66 99.18L1.32 97.94L1.02 96.68L0.76 95.41L0.54 94.12L0.36 92.82L0.21 91.51L0.11 90.18L0.05 88.85L0.03 87.5L0.03 42.51L0.06 40.76L0.17 39.03L0.34 37.31L0.58 35.62L0.89 33.95L1.26 32.31L1.7 30.68L2.2 29.09L2.75 27.52L3.37 25.98L4.05 24.47L4.78 22.99L5.56 21.55L6.4 20.14L7.29 18.76L8.24 17.42L9.23 16.12L10.27 14.86L11.36 13.65L12.49 12.47L13.66 11.34L14.88 10.25L16.14 9.21L17.44 8.22L18.78 7.28L20.16 6.38L21.57 5.54L23.01 4.76L24.49 4.03L26 3.35L27.54 2.74L29.11 2.18L30.7 1.68L32.33 1.24L33.97 0.87L35.64 0.56L37.33 0.32L39.05 0.15L40.78 0.04L42.53 0.01L44.28 0.04L46.01 0.15ZM555.91 604.86L556.94 605.84L557.99 606.78L559.08 607.66L560.19 608.5L561.33 609.28L562.5 610.02L563.68 610.7L564.89 611.33L566.11 611.92L567.35 612.45L568.61 612.93L569.88 613.36L571.17 613.74L572.46 614.07L573.77 614.34L575.08 614.57L576.4 614.75L577.73 614.88L579.05 614.95L580.38 614.98L581.71 614.95L583.04 614.88L584.37 614.75L585.69 614.57L587 614.34L588.3 614.07L589.6 613.74L590.89 613.36L592.16 612.93L593.42 612.45L594.66 611.92L595.88 611.33L597.09 610.7L598.27 610.02L599.44 609.28L600.57 608.5L601.69 607.66L602.77 606.78L603.83 605.84L604.86 604.86L605.85 603.83L606.78 602.77L607.67 601.68L608.5 600.57L609.29 599.43L610.02 598.27L610.71 597.08L611.34 595.88L611.92 594.65L612.45 593.41L612.93 592.15L613.36 590.88L613.74 589.6L614.07 588.3L614.35 587L614.58 585.68L614.75 584.36L614.88 583.04L614.96 581.71L614.98 580.38L614.96 579.05L614.88 577.72L614.75 576.4L614.58 575.08L614.35 573.77L614.07 572.46L613.74 571.16L613.36 569.88L612.93 568.61L612.45 567.35L611.92 566.11L611.34 564.88L610.71 563.68L610.02 562.49L609.29 561.33L608.5 560.19L607.67 559.08L606.78 557.99L605.85 556.93L604.86 555.91L482.38 433.42L433.43 482.37L555.91 604.86ZM427.06 380.53L426.54 381.22L426.02 381.91L425.49 382.6L424.96 383.28L424.43 383.97L423.89 384.65L423.35 385.33L422.81 386L422.27 386.68L421.73 387.35L421.18 388.03L420.63 388.7L420.07 389.36L419.52 390.03L418.96 390.7L418.4 391.36L417.84 392.02L417.27 392.68L416.7 393.33L416.13 393.99L415.56 394.64L414.98 395.29L414.41 395.94L413.82 396.59L413.24 397.23L412.66 397.88L412.07 398.52L411.48 399.16L410.88 399.79L410.29 400.43L409.69 401.06L409.09 401.69L408.48 402.32L407.88 402.95L407.27 403.57L406.66 404.19L406.05 404.81L405.43 405.43L404.81 406.05L404.19 406.67L403.56 407.28L402.94 407.89L402.31 408.5L401.68 409.1L401.05 409.71L400.41 410.31L399.78 410.9L399.14 411.5L398.5 412.09L397.86 412.68L397.21 413.27L396.57 413.86L395.92 414.44L395.27 415.02L394.62 415.59L393.97 416.17L393.32 416.74L392.66 417.31L392.01 417.88L391.35 418.44L390.69 419L390.02 419.56L389.36 420.12L388.69 420.67L388.03 421.22L387.36 421.77L386.69 422.31L386.01 422.86L385.34 423.4L384.66 423.93L383.99 424.47L383.31 425L382.63 425.53L381.94 426.06L381.26 426.58L380.57 427.1L379.89 427.62L379.2 428.14L415.75 464.69L464.7 415.74L428.1 379.14L427.58 379.84L427.06 380.53ZM497.93 179.61L497.25 179.69L496.58 179.8L495.9 179.95L495.23 180.12L494.57 180.33L493.9 180.57L493.25 180.84L492.59 181.15L491.94 181.48L491.29 181.85L490.64 182.25L490 182.68L489.36 183.14L488.72 183.64L488.09 184.17L487.46 184.73L486.83 185.32L486.21 185.94L485.59 186.6L484.97 187.28L484.36 188L483.75 188.75L483.14 189.54L482.54 190.35L481.94 191.2L481.34 192.08L480.75 192.99L480.16 193.93L479.57 194.91L478.99 195.91L478.41 196.95L477.83 198.02L477.25 199.13L476.68 200.26L476.12 201.43L475.55 202.62L474.99 203.86L474.99 228.18L475.01 229.2L475.08 230.22L475.18 231.22L475.33 232.22L475.51 233.19L475.73 234.16L476 235.11L476.29 236.04L476.63 236.96L477 237.85L477.4 238.73L477.84 239.6L478.31 240.44L478.82 241.26L479.35 242.06L479.92 242.83L480.51 243.58L481.13 244.31L481.78 245.02L482.46 245.69L483.16 246.34L483.89 246.97L484.64 247.56L485.42 248.12L486.22 248.66L487.04 249.16L487.88 249.63L488.74 250.07L489.62 250.48L490.52 250.85L491.44 251.18L492.37 251.48L493.32 251.74L494.28 251.97L495.26 252.15L496.25 252.3L497.26 252.4L498.27 252.46L499.3 252.49L500.32 252.46L501.34 252.4L502.34 252.3L503.33 252.15L504.31 251.97L505.28 251.74L506.22 251.48L507.16 251.18L508.07 250.85L508.97 250.48L509.85 250.07L510.71 249.63L511.56 249.16L512.38 248.66L513.17 248.12L513.95 247.56L514.7 246.97L515.43 246.34L516.13 245.69L516.81 245.02L517.46 244.31L518.08 243.58L518.68 242.83L519.24 242.06L519.78 241.26L520.28 240.44L520.75 239.6L521.19 238.73L521.6 237.85L521.97 236.96L522.3 236.04L522.6 235.11L522.86 234.16L523.08 233.19L523.27 232.22L523.41 231.22L523.52 230.22L523.58 229.2L523.6 228.18L523.6 203.86L523.58 202.83L523.52 201.81L523.41 200.81L523.27 199.82L523.08 198.84L522.86 197.88L522.6 196.93L522.3 196L521.97 195.08L521.6 194.18L521.19 193.3L520.75 192.44L520.28 191.6L519.78 190.78L519.24 189.98L518.68 189.2L518.09 188.45L517.46 187.72L516.81 187.02L516.14 186.34L515.43 185.69L514.7 185.07L513.95 184.47L513.18 183.91L512.38 183.37L511.56 182.87L510.71 182.4L509.85 181.96L508.97 181.56L508.07 181.19L507.16 180.85L506.22 180.55L505.28 180.29L504.31 180.07L503.33 179.88L502.34 179.74L501.34 179.63L500.32 179.57L499.3 179.55L498.61 179.56L497.93 179.61ZM41.02 25.07L40.28 25.15L39.55 25.26L38.82 25.4L38.11 25.57L37.41 25.77L36.73 25.99L36.05 26.25L35.39 26.53L34.75 26.83L34.11 27.16L33.5 27.52L32.9 27.9L32.31 28.3L31.75 28.73L31.2 29.18L30.67 29.65L30.16 30.14L29.67 30.65L29.2 31.18L28.75 31.73L28.32 32.29L27.92 32.88L27.54 33.48L27.18 34.09L26.85 34.73L26.55 35.37L26.27 36.03L26.01 36.71L25.79 37.39L25.59 38.09L25.42 38.8L25.28 39.53L25.17 40.26L25.09 41L25.04 41.75L25.03 42.51L25.03 87.51L25.04 88.21L25.08 88.9L25.15 89.59L25.24 90.27L25.36 90.94L25.51 91.6L25.68 92.25L25.88 92.9L26.1 93.53L26.34 94.15L26.6 94.76L26.89 95.35L27.2 95.94L27.53 96.51L27.88 97.06L28.25 97.61L28.64 98.13L29.05 98.65L29.48 99.14L29.92 99.62L30.38 100.09L30.86 100.53L31.36 100.96L31.87 101.37L32.4 101.76L32.94 102.13L33.5 102.48L34.07 102.81L34.65 103.12L35.25 103.41L35.86 103.67L36.48 103.91L37.11 104.13L37.75 104.33L38.41 104.5L39.07 104.65L39.74 104.77L40.42 104.87L40.9 104.16L41.38 103.46L41.86 102.75L42.35 102.05L42.84 101.35L43.33 100.66L43.82 99.96L44.32 99.27L44.82 98.57L45.32 97.88L45.83 97.19L46.34 96.5L46.85 95.82L47.36 95.13L47.88 94.45L48.4 93.77L48.92 93.09L49.44 92.41L49.97 91.73L50.5 91.06L51.03 90.38L51.56 89.71L52.1 89.04L52.64 88.37L53.18 87.7L53.73 87.04L54.27 86.38L54.82 85.71L55.38 85.05L55.93 84.39L56.49 83.74L57.05 83.08L57.61 82.43L58.18 81.78L58.75 81.13L59.32 80.48L59.89 79.83L60.47 79.19L60.45 79.11L60.42 79.02L60.4 78.94L60.38 78.86L60.36 78.78L60.34 78.69L60.33 78.61L60.31 78.53L60.29 78.44L60.27 78.36L60.26 78.28L60.24 78.19L60.22 78.11L60.21 78.02L60.19 77.94L60.18 77.85L60.17 77.77L60.15 77.68L60.14 77.6L60.13 77.51L60.12 77.43L60.11 77.34L60.1 77.26L60.09 77.17L60.08 77.08L60.07 77L60.07 76.91L60.06 76.82L60.05 76.74L60.05 76.65L60.04 76.56L60.04 76.47L60.03 76.39L60.03 76.3L60.03 76.21L60.03 76.12L60.03 76.03L60.03 75.94L60.03 42.51L60.01 41.75L59.96 41L59.88 40.26L59.77 39.53L59.63 38.8L59.46 38.09L59.26 37.39L59.04 36.71L58.79 36.03L58.51 35.37L58.2 34.73L57.87 34.09L57.51 33.48L57.13 32.88L56.73 32.29L56.3 31.73L55.85 31.18L55.38 30.65L54.89 30.14L54.38 29.65L53.85 29.18L53.31 28.73L52.74 28.3L52.16 27.9L51.56 27.52L50.94 27.16L50.31 26.83L49.66 26.53L49 26.25L48.33 25.99L47.64 25.77L46.94 25.57L46.23 25.4L45.51 25.26L44.77 25.15L44.03 25.07L43.28 25.02L42.53 25.01L41.77 25.02L41.02 25.07Z" id="b9TMf69DaN"></path><path d="M48.55 614.99C48.55 563.73 48.55 535.25 48.55 529.56C48.55 524.5 45.5 519.94 40.83 518.01C36.16 516.08 30.78 517.14 27.21 520.72C24.85 523.07 6.03 541.9 3.67 544.25C-1.21 549.13 -1.21 557.05 3.67 561.93C8.56 566.81 16.47 566.81 21.35 561.93C21.5 561.78 22.23 561.05 23.55 559.74L23.55 614.99C17.59 614.99 14.28 614.99 13.62 614.99C6.71 614.99 1.12 620.59 1.12 627.49C1.12 634.4 6.71 639.99 13.62 639.99C18.1 639.99 53.99 639.99 58.48 639.99C65.38 639.99 70.98 634.4 70.98 627.49C70.98 620.59 65.38 614.99 58.48 614.99C57.15 614.99 53.84 614.99 48.55 614.99Z" id="e30C0mjwan"></path><path d="M159.59 614.99C159.59 563.73 159.59 535.25 159.59 529.56C159.59 524.5 156.54 519.94 151.87 518.01C147.2 516.08 141.82 517.14 138.25 520.72C135.89 523.07 117.07 541.9 114.71 544.25C109.83 549.13 109.83 557.05 114.71 561.93C119.6 566.81 127.51 566.81 132.39 561.93C132.54 561.78 133.27 561.05 134.59 559.74L134.59 614.99C128.63 614.99 125.32 614.99 124.66 614.99C117.75 614.99 112.16 620.59 112.16 627.49C112.16 634.4 117.75 639.99 124.66 639.99C129.14 639.99 165.03 639.99 169.52 639.99C176.42 639.99 182.02 634.4 182.02 627.49C182.02 620.59 176.42 614.99 169.52 614.99C168.19 614.99 164.88 614.99 159.59 614.99Z" id="a1FIpoyw3"></path><path d="M381.66 614.99C381.66 563.73 381.66 535.25 381.66 529.56C381.66 524.5 378.62 519.94 373.95 518.01C369.28 516.08 363.9 517.14 360.33 520.72C357.97 523.07 339.15 541.9 336.79 544.25C331.91 549.13 331.91 557.05 336.79 561.93C341.68 566.81 349.59 566.81 354.47 561.93C354.62 561.78 355.35 561.05 356.67 559.74L356.67 614.99C350.71 614.99 347.4 614.99 346.74 614.99C339.83 614.99 334.24 620.59 334.24 627.49C334.24 634.4 339.83 639.99 346.74 639.99C351.22 639.99 387.11 639.99 391.6 639.99C398.5 639.99 404.1 634.4 404.1 627.49C404.1 620.59 398.5 614.99 391.59 614.99C390.27 614.99 386.96 614.99 381.66 614.99Z" id="cvUBl5aK0"></path><path d="M261.61 517.22L263.6 517.42L265.56 517.7L267.5 518.06L269.41 518.49L271.29 519L273.14 519.58L274.96 520.22L276.75 520.94L278.5 521.72L280.21 522.57L281.89 523.48L283.53 524.46L285.12 525.49L286.67 526.58L288.18 527.73L289.64 528.94L291.06 530.2L292.42 531.52L293.73 532.88L295 534.29L296.2 535.76L297.35 537.26L298.45 538.82L299.48 540.41L300.46 542.05L301.37 543.72L302.22 545.44L303 547.19L303.71 548.98L304.36 550.8L304.94 552.65L305.44 554.53L305.87 556.44L306.23 558.38L306.51 560.34L306.71 562.33L306.84 564.33L306.88 566.36L306.88 590.69L306.84 592.72L306.71 594.73L306.51 596.71L306.23 598.67L305.87 600.61L305.44 602.52L304.94 604.4L304.36 606.25L303.71 608.07L303 609.86L302.21 611.61L301.37 613.33L300.45 615L299.48 616.64L298.45 618.24L297.35 619.79L296.2 621.3L294.99 622.76L293.73 624.17L292.42 625.53L291.06 626.85L289.64 628.11L288.18 629.32L286.67 630.47L285.12 631.56L283.52 632.59L281.89 633.57L280.21 634.48L278.5 635.33L276.75 636.11L274.96 636.83L273.14 637.47L271.29 638.05L269.41 638.56L267.5 638.99L265.56 639.35L263.6 639.63L261.61 639.83L259.6 639.95L257.57 639.99L255.54 639.95L253.53 639.83L251.55 639.63L249.59 639.35L247.65 638.99L245.74 638.56L243.86 638.05L242.01 637.47L240.19 636.83L238.4 636.11L236.65 635.33L234.93 634.48L233.26 633.57L231.62 632.6L230.03 631.56L228.47 630.47L226.97 629.32L225.5 628.11L224.09 626.85L222.73 625.54L221.41 624.17L220.15 622.76L218.94 621.3L217.79 619.79L216.7 618.24L215.67 616.64L214.69 615L213.78 613.33L212.93 611.61L212.15 609.86L211.43 608.07L210.79 606.26L210.21 604.4L209.7 602.52L209.27 600.61L208.91 598.67L208.63 596.71L208.43 594.73L208.31 592.72L208.27 590.69L208.27 566.36L208.31 564.33L208.43 562.33L208.63 560.34L208.91 558.38L209.27 556.44L209.7 554.53L210.21 552.65L210.79 550.8L211.43 548.98L212.15 547.19L212.93 545.44L213.78 543.72L214.69 542.05L215.67 540.41L216.7 538.82L217.79 537.26L218.94 535.76L220.15 534.29L221.41 532.88L222.73 531.52L224.09 530.2L225.5 528.94L226.96 527.73L228.47 526.58L230.02 525.49L231.62 524.46L233.26 523.48L234.93 522.57L236.65 521.72L238.4 520.94L240.19 520.22L242.01 519.58L243.86 519L245.74 518.49L247.65 518.06L249.59 517.7L251.55 517.42L253.53 517.22L255.54 517.1L257.57 517.06L259.6 517.1L261.61 517.22ZM255.53 542.14L254.53 542.25L253.54 542.39L252.56 542.58L251.6 542.8L250.65 543.06L249.71 543.36L248.8 543.7L247.9 544.07L247.02 544.47L246.16 544.91L245.32 545.38L244.5 545.88L243.7 546.42L242.92 546.98L242.17 547.58L241.44 548.2L240.74 548.85L240.06 549.53L239.41 550.23L238.79 550.96L238.19 551.71L237.63 552.49L237.09 553.28L236.59 554.11L236.12 554.95L235.68 555.81L235.28 556.69L234.91 557.59L234.57 558.5L234.27 559.44L234.01 560.39L233.79 561.35L233.6 562.33L233.46 563.32L233.35 564.32L233.29 565.34L233.27 566.36L233.27 590.69L233.29 591.71L233.35 592.73L233.46 593.73L233.6 594.72L233.79 595.7L234.01 596.67L234.27 597.62L234.57 598.55L234.91 599.47L235.28 600.36L235.68 601.24L236.12 602.11L236.59 602.95L237.09 603.77L237.63 604.57L238.19 605.34L238.79 606.09L239.41 606.82L240.06 607.53L240.74 608.2L241.44 608.85L242.17 609.48L242.92 610.07L243.7 610.63L244.5 611.17L245.32 611.67L246.16 612.14L247.02 612.58L247.9 612.99L248.8 613.36L249.71 613.69L250.65 613.99L251.6 614.25L252.56 614.48L253.54 614.66L254.53 614.81L255.53 614.91L256.55 614.97L257.57 615L258.26 614.98L258.94 614.93L259.62 614.85L260.3 614.74L260.97 614.6L261.64 614.42L262.3 614.21L262.97 613.97L263.63 613.7L264.28 613.4L264.94 613.06L265.59 612.69L266.23 612.29L266.87 611.86L267.51 611.4L268.15 610.9L268.78 610.38L269.41 609.82L270.04 609.23L270.66 608.6L271.28 607.95L271.9 607.26L272.51 606.54L273.12 605.79L273.73 605.01L274.33 604.19L274.93 603.35L275.53 602.47L276.12 601.56L276.71 600.61L277.3 599.64L277.89 598.63L278.47 597.59L279.04 596.52L279.62 595.42L280.19 594.28L280.76 593.12L281.32 591.92L281.88 590.69L281.88 566.36L281.86 565.34L281.8 564.32L281.69 563.32L281.55 562.33L281.36 561.35L281.14 560.39L280.87 559.44L280.58 558.5L280.24 557.59L279.87 556.69L279.47 555.81L279.03 554.95L278.56 554.11L278.05 553.29L277.52 552.49L276.95 551.71L276.36 550.96L275.74 550.23L275.09 549.53L274.41 548.85L273.71 548.2L272.98 547.58L272.23 546.98L271.45 546.42L270.65 545.88L269.83 545.38L268.99 544.91L268.13 544.47L267.25 544.07L266.35 543.7L265.43 543.36L264.5 543.06L263.55 542.8L262.59 542.58L261.61 542.39L260.62 542.25L259.62 542.14L258.6 542.08L257.57 542.06L256.55 542.08L255.53 542.14Z" id="bjOEBh3Tl"></path><path d="M617.57 463.97C617.57 412.7 617.57 384.23 617.57 378.53C617.57 373.47 614.52 368.92 609.85 366.98C605.18 365.05 599.8 366.12 596.23 369.69C593.88 372.04 575.05 390.87 572.7 393.22C567.82 398.1 567.82 406.02 572.7 410.9C577.58 415.78 585.49 415.78 590.38 410.9C590.52 410.76 591.25 410.02 592.57 408.71L592.57 463.97C586.61 463.97 583.3 463.97 582.64 463.97C575.74 463.97 570.14 469.56 570.14 476.47C570.14 483.37 575.74 488.97 582.64 488.97C587.13 488.97 623.01 488.97 627.5 488.97C634.4 488.97 640 483.37 640 476.47C640 469.56 634.4 463.97 627.5 463.97C626.17 463.97 622.86 463.97 617.57 463.97Z" id="b1zmEJoktk"></path><path d="M467.7 42.68L467.7 97.94C461.75 97.94 458.44 97.94 457.77 97.94C450.87 97.94 445.27 103.54 445.27 110.44C445.27 117.35 450.87 122.94 457.77 122.94C462.26 122.94 498.15 122.94 502.63 122.94C509.54 122.94 515.13 117.35 515.13 110.44C515.13 103.54 509.54 97.94 502.63 97.94C501.97 97.94 498.66 97.94 492.7 97.94C492.7 46.68 492.7 18.2 492.7 12.51C492.7 7.45 489.66 2.89 484.99 0.96C480.31 -0.98 474.94 0.09 471.36 3.67C469.01 6.02 450.19 24.85 447.83 27.2C442.95 32.08 442.95 40 447.83 44.88C452.72 49.76 460.63 49.76 465.51 44.88C465.8 44.58 466.53 43.85 467.7 42.68Z" id="g639v373uN"></path><path d="M594.73 0.17L596.72 0.37L598.68 0.65L600.62 1.01L602.53 1.44L604.41 1.95L606.26 2.53L608.08 3.17L609.86 3.89L611.62 4.67L613.33 5.52L615.01 6.43L616.64 7.41L618.24 8.44L619.79 9.53L621.3 10.68L622.76 11.89L624.17 13.15L625.54 14.47L626.85 15.83L628.11 17.24L629.32 18.7L630.47 20.21L631.56 21.76L632.6 23.36L633.57 25L634.49 26.67L635.33 28.39L636.12 30.14L636.83 31.93L637.48 33.75L638.06 35.6L638.56 37.48L638.99 39.39L639.35 41.33L639.63 43.29L639.83 45.27L639.96 47.28L640 49.31L640 73.64L639.96 75.67L639.83 77.67L639.63 79.66L639.35 81.62L638.99 83.56L638.56 85.47L638.06 87.35L637.48 89.2L636.83 91.02L636.12 92.81L635.33 94.56L634.48 96.28L633.57 97.95L632.6 99.59L631.56 101.18L630.47 102.74L629.32 104.24L628.11 105.71L626.85 107.12L625.54 108.48L624.17 109.8L622.76 111.06L621.3 112.27L619.79 113.42L618.24 114.51L616.64 115.54L615.01 116.52L613.33 117.43L611.62 118.28L609.87 119.06L608.08 119.78L606.26 120.42L604.41 121L602.53 121.51L600.62 121.94L598.68 122.3L596.72 122.58L594.73 122.78L592.72 122.9L590.69 122.94L588.66 122.9L586.65 122.78L584.67 122.58L582.7 122.3L580.77 121.94L578.86 121.51L576.98 121L575.12 120.42L573.3 119.78L571.52 119.06L569.77 118.28L568.05 117.43L566.38 116.52L564.74 115.54L563.14 114.51L561.59 113.42L560.08 112.27L558.62 111.06L557.21 109.8L555.84 108.48L554.53 107.12L553.27 105.71L552.06 104.25L550.91 102.74L549.82 101.19L548.78 99.59L547.81 97.95L546.9 96.28L546.05 94.56L545.27 92.81L544.55 91.02L543.9 89.2L543.33 87.35L542.82 85.47L542.39 83.56L542.03 81.62L541.75 79.66L541.55 77.68L541.43 75.67L541.39 73.64L541.39 49.31L541.43 47.28L541.55 45.28L541.75 43.29L542.03 41.33L542.39 39.39L542.82 37.48L543.33 35.6L543.9 33.75L544.55 31.93L545.27 30.14L546.05 28.39L546.9 26.67L547.81 25L548.78 23.36L549.82 21.77L550.91 20.21L552.06 18.71L553.27 17.24L554.53 15.83L555.84 14.47L557.21 13.15L558.62 11.89L560.08 10.68L561.59 9.53L563.14 8.44L564.74 7.41L566.38 6.43L568.05 5.52L569.77 4.67L571.52 3.89L573.3 3.17L575.12 2.53L576.98 1.95L578.86 1.44L580.77 1.01L582.7 0.65L584.67 0.37L586.65 0.17L588.66 0.05L590.69 0.01L592.72 0.05L594.73 0.17ZM588.65 25.09L587.65 25.19L586.66 25.34L585.68 25.52L584.71 25.75L583.76 26.01L582.83 26.31L581.92 26.64L581.02 27.01L580.14 27.42L579.27 27.86L578.43 28.33L577.61 28.83L576.81 29.37L576.04 29.93L575.29 30.52L574.56 31.15L573.85 31.8L573.18 32.47L572.53 33.18L571.9 33.91L571.31 34.66L570.75 35.43L570.21 36.23L569.71 37.05L569.24 37.89L568.8 38.76L568.39 39.64L568.02 40.54L567.69 41.45L567.39 42.39L567.13 43.33L566.91 44.3L566.72 45.28L566.58 46.27L566.47 47.27L566.41 48.29L566.39 49.31L566.39 73.64L566.41 74.66L566.47 75.68L566.58 76.68L566.72 77.67L566.91 78.65L567.13 79.61L567.39 80.56L567.69 81.5L568.02 82.41L568.39 83.31L568.8 84.19L569.24 85.05L569.71 85.9L570.21 86.72L570.75 87.51L571.31 88.29L571.9 89.04L572.53 89.77L573.18 90.47L573.85 91.15L574.56 91.8L575.29 92.42L576.04 93.02L576.81 93.58L577.61 94.12L578.43 94.62L579.27 95.09L580.14 95.53L581.02 95.93L581.92 96.3L582.83 96.64L583.76 96.94L584.71 97.2L585.68 97.42L586.66 97.61L587.65 97.75L588.65 97.86L589.67 97.92L590.69 97.94L591.38 97.93L592.06 97.88L592.74 97.8L593.41 97.69L594.09 97.54L594.76 97.37L595.42 97.16L596.08 96.92L596.74 96.65L597.4 96.35L598.05 96.01L598.7 95.64L599.35 95.24L599.99 94.81L600.63 94.35L601.27 93.85L601.9 93.33L602.53 92.77L603.16 92.17L603.78 91.55L604.4 90.9L605.02 90.21L605.63 89.49L606.24 88.74L606.85 87.96L607.45 87.14L608.05 86.29L608.65 85.41L609.24 84.5L609.83 83.56L610.42 82.59L611 81.58L611.58 80.54L612.16 79.47L612.73 78.37L613.31 77.23L613.87 76.07L614.44 74.87L615 73.64L615 49.31L614.98 48.29L614.91 47.27L614.81 46.27L614.66 45.28L614.48 44.3L614.25 43.33L613.99 42.39L613.69 41.45L613.36 40.54L612.99 39.64L612.58 38.76L612.15 37.89L611.67 37.05L611.17 36.23L610.64 35.43L610.07 34.66L609.48 33.91L608.86 33.18L608.21 32.47L607.53 31.8L606.83 31.15L606.1 30.52L605.34 29.93L604.57 29.37L603.77 28.83L602.95 28.33L602.11 27.86L601.25 27.42L600.37 27.01L599.47 26.64L598.55 26.31L597.62 26.01L596.67 25.75L595.71 25.52L594.73 25.34L593.74 25.19L592.73 25.09L591.72 25.03L590.69 25L589.67 25.03L588.65 25.09Z" id="ceSC2p1Xb"></path><path d="M617.57 252.48C617.57 201.22 617.57 172.74 617.57 167.05C617.57 161.99 614.52 157.43 609.85 155.5C605.18 153.56 599.8 154.63 596.23 158.21C593.88 160.56 575.05 179.39 572.7 181.74C567.82 186.62 567.82 194.54 572.7 199.42C577.58 204.3 585.49 204.3 590.38 199.42C590.52 199.27 591.25 198.54 592.57 197.22L592.57 252.48C586.61 252.48 583.3 252.48 582.64 252.48C575.74 252.48 570.14 258.08 570.14 264.98C570.14 271.89 575.74 277.48 582.64 277.48C587.12 277.48 623.01 277.48 627.5 277.48C634.4 277.48 640 271.89 640 264.98C640 258.08 634.4 252.48 627.5 252.48C626.17 252.48 622.86 252.48 617.57 252.48Z" id="d19r4jnpHc"></path><path d="M304.23 169.9C301.41 172.73 278.82 195.32 276 198.14C271.12 203.02 271.12 210.94 276 215.82C280.88 220.7 288.79 220.7 293.68 215.82C294.13 215.36 296.43 213.06 300.57 208.92L300.57 283.76C291.92 283.76 287.12 283.76 286.16 283.76C279.26 283.76 273.66 289.35 273.66 296.26C273.66 303.16 279.26 308.76 286.16 308.76C291.54 308.76 334.6 308.76 339.99 308.76C346.89 308.76 352.49 303.16 352.49 296.26C352.49 289.35 346.89 283.76 339.99 283.76C339.03 283.76 334.22 283.76 325.57 283.76C325.57 220.75 325.57 185.74 325.57 178.74C325.57 173.68 322.52 169.13 317.86 167.19C313.18 165.26 307.81 166.33 304.23 169.9Z" id="b1LQbl8vzB"></path><path d="M183.81 166.43L186.1 166.66L188.35 166.98L190.58 167.39L192.77 167.89L194.93 168.47L197.06 169.13L199.15 169.88L201.21 170.7L203.22 171.6L205.19 172.57L207.12 173.62L209 174.74L210.83 175.93L212.61 177.19L214.35 178.51L216.03 179.9L217.65 181.34L219.22 182.85L220.73 184.42L222.18 186.05L223.57 187.73L224.89 189.46L226.14 191.24L227.33 193.08L228.45 194.96L229.5 196.88L230.48 198.86L231.38 200.87L232.2 202.92L232.94 205.01L233.6 207.14L234.19 209.3L234.68 211.5L235.09 213.72L235.41 215.98L235.65 218.26L235.79 220.57L235.84 222.9L235.84 252.09L235.79 254.42L235.65 256.73L235.41 259.01L235.09 261.27L234.68 263.5L234.19 265.69L233.6 267.85L232.94 269.98L232.2 272.07L231.38 274.12L230.48 276.14L229.5 278.11L228.45 280.03L227.33 281.92L226.15 283.75L224.89 285.53L223.57 287.27L222.18 288.95L220.73 290.57L219.22 292.14L217.65 293.65L216.03 295.1L214.35 296.48L212.62 297.81L210.83 299.06L209 300.25L207.12 301.37L205.19 302.42L203.22 303.39L201.21 304.29L199.15 305.12L197.06 305.86L194.94 306.52L192.77 307.1L190.58 307.6L188.35 308.01L186.1 308.33L183.81 308.57L181.5 308.71L179.17 308.75L176.84 308.71L174.53 308.57L172.25 308.33L169.99 308.01L167.77 307.6L165.57 307.1L163.41 306.52L161.28 305.86L159.19 305.12L157.14 304.29L155.12 303.39L153.15 302.42L151.23 301.37L149.35 300.25L147.51 299.06L145.73 297.81L144 296.48L142.32 295.1L140.69 293.65L139.12 292.14L137.61 290.57L136.17 288.95L134.78 287.27L133.46 285.53L132.2 283.75L131.01 281.92L129.89 280.04L128.84 278.11L127.87 276.14L126.97 274.13L126.15 272.07L125.4 269.98L124.74 267.85L124.16 265.69L123.66 263.5L123.25 261.27L122.93 259.01L122.7 256.73L122.56 254.42L122.51 252.09L122.51 222.9L122.56 220.57L122.7 218.26L122.93 215.98L123.25 213.72L123.66 211.5L124.16 209.3L124.74 207.14L125.4 205.01L126.15 202.92L126.97 200.87L127.87 198.86L128.84 196.89L129.89 194.96L131.01 193.08L132.2 191.24L133.46 189.46L134.78 187.73L136.17 186.05L137.61 184.42L139.12 182.85L140.69 181.35L142.32 179.9L144 178.51L145.73 177.19L147.51 175.93L149.35 174.74L151.23 173.62L153.15 172.57L155.12 171.6L157.14 170.7L159.19 169.88L161.28 169.13L163.41 168.47L165.57 167.89L167.77 167.39L169.99 166.98L172.25 166.66L174.53 166.43L176.84 166.29L179.17 166.24L181.5 166.29L183.81 166.43ZM177.44 191.32L176.57 191.42L175.71 191.56L174.86 191.73L174.01 191.95L173.16 192.21L172.32 192.51L171.48 192.84L170.65 193.22L169.82 193.63L168.99 194.09L168.17 194.58L167.35 195.12L166.54 195.69L165.73 196.31L164.92 196.96L164.12 197.65L163.32 198.38L162.53 199.16L161.74 199.97L160.95 200.82L160.17 201.71L159.39 202.64L158.62 203.61L157.85 204.62L157.09 205.67L156.32 206.76L155.57 207.88L154.81 209.05L154.07 210.26L153.32 211.5L152.58 212.79L151.84 214.12L151.11 215.48L150.38 216.89L149.66 218.33L148.94 219.82L148.22 221.34L147.51 222.9L147.51 252.09L147.53 253.39L147.61 254.68L147.74 255.96L147.92 257.22L148.15 258.47L148.43 259.69L148.75 260.9L149.13 262.09L149.54 263.26L150 264.41L150.5 265.53L151.05 266.63L151.63 267.71L152.26 268.76L152.92 269.78L153.63 270.78L154.36 271.75L155.14 272.69L155.95 273.6L156.79 274.47L157.67 275.31L158.58 276.12L159.52 276.9L160.48 277.64L161.48 278.34L162.51 279.01L163.56 279.63L164.63 280.22L165.73 280.76L166.86 281.26L168.01 281.72L169.18 282.14L170.36 282.51L171.57 282.83L172.8 283.11L174.04 283.34L175.3 283.52L176.58 283.65L177.87 283.73L179.17 283.76L180.48 283.73L181.77 283.65L183.04 283.52L184.3 283.34L185.55 283.11L186.77 282.83L187.98 282.51L189.17 282.14L190.34 281.72L191.49 281.26L192.61 280.76L193.71 280.22L194.79 279.63L195.84 279.01L196.86 278.34L197.86 277.64L198.83 276.9L199.77 276.12L200.68 275.31L201.55 274.47L202.4 273.6L203.21 272.69L203.98 271.75L204.72 270.78L205.42 269.78L206.09 268.76L206.71 267.71L207.3 266.63L207.84 265.53L208.35 264.41L208.81 263.26L209.22 262.09L209.59 260.9L209.92 259.69L210.19 258.47L210.42 257.22L210.6 255.96L210.73 254.68L210.81 253.39L210.84 252.09L210.84 222.9L210.81 221.6L210.73 220.31L210.6 219.04L210.42 217.77L210.19 216.53L209.92 215.3L209.59 214.1L209.22 212.91L208.81 211.74L208.35 210.59L207.84 209.47L207.3 208.36L206.71 207.29L206.09 206.24L205.42 205.21L204.72 204.22L203.98 203.25L203.21 202.31L202.4 201.4L201.55 200.52L200.68 199.68L199.77 198.87L198.83 198.1L197.86 197.36L196.86 196.65L195.84 195.99L194.79 195.36L193.71 194.78L192.61 194.23L191.49 193.73L190.34 193.27L189.17 192.86L187.98 192.49L186.77 192.16L185.55 191.88L184.3 191.65L183.04 191.47L181.77 191.34L180.48 191.27L179.17 191.24L178.3 191.26L177.44 191.32Z" id="i7iwXWsAA"></path></defs><g><g><g><use xlink:href="#ffcBhfySX" opacity="1" fill="#2f376e" fill-opacity="1"></use><g><use xlink:href="#ffcBhfySX" opacity="1" fill-opacity="0" stroke="#000000" stroke-width="1" stroke-opacity="0"></use></g></g><g><use xlink:href="#b1w1nX8gqB" opacity="1" fill="#ffffff" fill-opacity="1"></use><g><use xlink:href="#b1w1nX8gqB" opacity="1" fill-opacity="0" stroke="#000000" stroke-width="1" stroke-opacity="0"></use></g></g><g><use xlink:href="#d2r0IiwyQ2" opacity="1" fill="#bd457c" fill-opacity="1"></use><g><use xlink:href="#d2r0IiwyQ2" opacity="1" fill-opacity="0" stroke="#000000" stroke-width="1" stroke-opacity="0"></use></g></g><g><use xlink:href="#a4KJwnUg5c" opacity="1" fill="#f37eb3" fill-opacity="1"></use><g><use xlink:href="#a4KJwnUg5c" opacity="1" fill-opacity="0" stroke="#000000" stroke-width="1" stroke-opacity="0"></use></g></g><g><use xlink:href="#f4wbzIa4TV" opacity="1" fill="#000000" fill-opacity="1"></use><g><use xlink:href="#f4wbzIa4TV" opacity="1" fill-opacity="0" stroke="#000000" stroke-width="1" stroke-opacity="0"></use></g></g><g><use xlink:href="#a28f8Ec2MI" opacity="1" fill="#000000" fill-opacity="1"></use><g><use xlink:href="#a28f8Ec2MI" opacity="1" fill-opacity="0" stroke="#000000" stroke-width="1" stroke-opacity="0"></use></g></g><g><use xlink:href="#b1eKVgq7Ba" opacity="1" fill="#000000" fill-opacity="1"></use><g><use xlink:href="#b1eKVgq7Ba" opacity="1" fill-opacity="0" stroke="#000000" stroke-width="1" stroke-opacity="0"></use></g></g><g><use xlink:href="#b9TMf69DaN" opacity="1" fill="#000000" fill-opacity="1"></use><g><use xlink:href="#b9TMf69DaN" opacity="1" fill-opacity="0" stroke="#000000" stroke-width="1" stroke-opacity="0"></use></g></g><g><use xlink:href="#e30C0mjwan" opacity="1" fill="#000000" fill-opacity="1"></use><g><use xlink:href="#e30C0mjwan" opacity="1" fill-opacity="0" stroke="#000000" stroke-width="1" stroke-opacity="0"></use></g></g><g><use xlink:href="#a1FIpoyw3" opacity="1" fill="#000000" fill-opacity="1"></use><g><use xlink:href="#a1FIpoyw3" opacity="1" fill-opacity="0" stroke="#000000" stroke-width="1" stroke-opacity="0"></use></g></g><g><use xlink:href="#cvUBl5aK0" opacity="1" fill="#000000" fill-opacity="1"></use><g><use xlink:href="#cvUBl5aK0" opacity="1" fill-opacity="0" stroke="#000000" stroke-width="1" stroke-opacity="0"></use></g></g><g><use xlink:href="#bjOEBh3Tl" opacity="1" fill="#000000" fill-opacity="1"></use><g><use xlink:href="#bjOEBh3Tl" opacity="1" fill-opacity="0" stroke="#000000" stroke-width="1" stroke-opacity="0"></use></g></g><g><use xlink:href="#b1zmEJoktk" opacity="1" fill="#000000" fill-opacity="1"></use><g><use xlink:href="#b1zmEJoktk" opacity="1" fill-opacity="0" stroke="#000000" stroke-width="1" stroke-opacity="0"></use></g></g><g><use xlink:href="#g639v373uN" opacity="1" fill="#000000" fill-opacity="1"></use><g><use xlink:href="#g639v373uN" opacity="1" fill-opacity="0" stroke="#000000" stroke-width="1" stroke-opacity="0"></use></g></g><g><use xlink:href="#ceSC2p1Xb" opacity="1" fill="#000000" fill-opacity="1"></use><g><use xlink:href="#ceSC2p1Xb" opacity="1" fill-opacity="0" stroke="#000000" stroke-width="1" stroke-opacity="0"></use></g></g><g><use xlink:href="#d19r4jnpHc" opacity="1" fill="#000000" fill-opacity="1"></use><g><use xlink:href="#d19r4jnpHc" opacity="1" fill-opacity="0" stroke="#000000" stroke-width="1" stroke-opacity="0"></use></g></g><g><use xlink:href="#b1LQbl8vzB" opacity="1" fill="#000000" fill-opacity="1"></use><g><use xlink:href="#b1LQbl8vzB" opacity="1" fill-opacity="0" stroke="#000000" stroke-width="1" stroke-opacity="0"></use></g></g><g><use xlink:href="#i7iwXWsAA" opacity="1" fill="#000000" fill-opacity="1"></use><g><use xlink:href="#i7iwXWsAA" opacity="1" fill-opacity="0" stroke="#000000" stroke-width="1" stroke-opacity="0"></use></g></g></g></g></svg>