<?xml version="1.0" encoding="UTF-8" standalone="no"?>
<!DOCTYPE svg PUBLIC "-//W3C//DTD SVG 1.1//EN" "http://www.w3.org/Graphics/SVG/1.1/DTD/svg11.dtd">
<svg version="1.1" xmlns="http://www.w3.org/2000/svg" xmlns:xlink="http://www.w3.org/1999/xlink" preserveAspectRatio="xMidYMid meet" viewBox="0 0 640 640" width="640" height="640"><defs><path d="M504.79 496.07C504.79 496.82 504.78 497.58 504.74 498.33C503.56 524.19 482.21 544.82 456.03 544.82C428.62 544.82 209.33 544.82 181.92 544.82C154.98 544.82 133.15 522.99 133.15 496.07C133.15 452.34 133.15 102.54 133.15 58.82C133.15 35.67 149.28 16.29 170.91 11.3C174.45 10.48 178.13 10.06 181.92 10.06C203.69 10.06 377.88 10.06 399.66 10.06C407.06 10.06 414.28 11.74 420.83 14.91C434 21.25 437.71 29.26 461.39 53.46C488.62 83.03 495.12 86.07 500.67 98.87C503.37 104.97 504.79 111.61 504.79 118.41C504.79 193.94 504.79 458.3 504.79 496.07Z" id="b1fNyBVDmu"></path><path d="M504.79 496.07C504.79 496.82 504.78 497.58 504.74 498.33C501.2 499.15 497.52 499.57 493.73 499.57C466.32 499.57 247.03 499.57 219.62 499.57C192.69 499.57 170.86 477.75 170.86 450.83C170.86 407.1 170.86 57.3 170.86 13.57C170.86 12.81 170.87 12.05 170.91 11.3C174.45 10.48 178.13 10.05 181.91 10.05C203.69 10.05 377.88 10.05 399.66 10.05C407.06 10.05 414.28 11.74 420.83 14.91C426.21 17.49 431.12 21.09 435.28 25.54C437.02 27.4 445.72 36.71 461.39 53.46C479.32 72.22 489.28 82.65 491.27 84.73C495.26 88.89 498.42 93.68 500.67 98.87C503.37 104.97 504.79 111.61 504.79 118.41C504.79 193.94 504.79 458.3 504.79 496.07Z" id="aBvnNQGuJ"></path><path d="M629.89 561.67C629.89 576.91 624.94 591.01 616.54 602.42C604.01 619.49 583.79 630.57 560.98 630.57C543.08 630.57 399.83 630.57 381.92 630.57C343.87 630.57 313.02 599.72 313.02 561.67C313.02 534.25 313.02 314.94 313.02 287.53C313.02 259.09 330.26 234.67 354.85 224.15C363.16 220.59 372.31 218.62 381.92 218.62C399.83 218.62 543.08 218.62 560.98 218.62C599.05 218.62 629.89 249.47 629.89 287.53C629.89 342.35 629.89 534.25 629.89 561.67Z" id="b1fRe9H0ua"></path><path d="M629.89 562.68C629.89 577.97 624.82 592.11 616.22 603.56C607.72 607.12 598.35 609.1 588.5 609.1C570.17 609.1 423.5 609.1 405.17 609.1C385.29 609.1 361.1 607.72 348.28 594.77C335.96 582.33 334.61 558.69 334.61 539.99C334.61 512.5 334.61 292.54 334.61 265.04C334.61 249.75 339.68 235.61 348.28 224.17C356.78 220.6 366.15 218.62 375.99 218.62C394.33 218.62 541 218.62 559.33 218.62C598.31 218.62 629.89 249.56 629.89 287.73C629.89 342.72 629.89 535.19 629.89 562.68Z" id="a2llBYKF3c"></path><path d="M582.54 315.56C582.54 327.83 572.59 337.78 560.32 337.78C542.54 337.78 400.36 337.78 382.59 337.78C370.32 337.78 360.37 327.83 360.37 315.56C360.37 312.11 360.37 284.52 360.37 281.07C360.37 268.8 370.33 258.85 382.59 258.85C400.36 258.85 542.54 258.85 560.32 258.85C572.59 258.85 582.54 268.8 582.54 281.07C582.54 287.97 582.54 312.11 582.54 315.56Z" id="fN3b8H2Om"></path><path d="M582.54 315.56C582.54 327.83 572.59 337.78 560.32 337.78C546.31 337.78 434.29 337.78 420.29 337.78C408.03 337.78 398.07 327.83 398.07 315.56C398.07 312.11 398.07 284.52 398.07 281.07C398.07 268.8 408.03 258.85 420.29 258.85C434.29 258.85 546.31 258.85 560.32 258.85C572.59 258.85 582.54 268.8 582.54 281.07C582.54 287.97 582.54 312.11 582.54 315.56Z" id="bZn4q4ig0"></path><path d="M497.86 415.76C497.86 421.45 493.24 426.07 487.56 426.07C484.34 426.07 458.57 426.07 455.35 426.07C449.66 426.07 445.05 421.45 445.05 415.76C445.05 412.54 445.05 386.78 445.05 383.56C445.05 377.87 449.66 373.26 455.35 373.26C458.57 373.26 484.34 373.26 487.56 373.26C493.24 373.26 497.86 377.87 497.86 383.56C497.86 390 497.86 412.54 497.86 415.76Z" id="cdjtB44iv"></path><path d="M583.55 415.76C583.55 421.45 578.94 426.07 573.25 426.07C570.03 426.07 544.27 426.07 541.05 426.07C535.36 426.07 530.75 421.45 530.75 415.76C530.75 412.54 530.75 386.78 530.75 383.56C530.75 377.87 535.36 373.26 541.05 373.26C544.27 373.26 570.03 373.26 573.25 373.26C578.94 373.26 583.55 377.87 583.55 383.56C583.55 390 583.55 412.54 583.55 415.76Z" id="d3PNd8qql9"></path><path d="M413.19 415.76C413.19 421.45 408.58 426.07 402.89 426.07C399.67 426.07 373.9 426.07 370.68 426.07C365 426.07 360.37 421.45 360.37 415.76C360.37 412.54 360.37 386.78 360.37 383.56C360.37 377.87 365 373.26 370.68 373.26C373.9 373.26 399.67 373.26 402.89 373.26C408.58 373.26 413.19 377.87 413.19 383.56C413.19 390 413.19 412.54 413.19 415.76Z" id="b16aslL9Dw"></path><path d="M583.55 572.77C583.55 582.48 575.68 590.35 565.98 590.35C564.22 590.35 550.08 590.35 548.31 590.35C538.61 590.35 530.74 582.48 530.74 572.77C530.74 562.77 530.74 482.77 530.74 472.77C530.74 464.31 537.61 457.46 546.05 457.46C548.27 457.46 566.03 457.46 568.25 457.46C576.7 457.46 583.55 464.31 583.55 472.77C583.55 492.77 583.55 562.77 583.55 572.77Z" id="b1Be0uGddS"></path><path d="M497.86 393.14C497.86 398.83 493.24 403.45 487.56 403.45C484.34 403.45 458.57 403.45 455.35 403.45C449.66 403.45 445.05 398.83 445.05 393.14C445.05 392.18 445.05 384.52 445.05 383.56C445.05 377.87 449.66 373.26 455.35 373.26C458.57 373.26 484.34 373.26 487.56 373.26C493.24 373.26 497.86 377.87 497.86 383.56C497.86 385.48 497.86 392.18 497.86 393.14Z" id="i2BM9QiBDA"></path><path d="M583.55 393.14C583.55 398.83 578.94 403.45 573.25 403.45C570.03 403.45 544.27 403.45 541.05 403.45C535.36 403.45 530.75 398.83 530.75 393.14C530.75 392.18 530.75 384.52 530.75 383.56C530.75 377.87 535.36 373.26 541.05 373.26C544.27 373.26 570.03 373.26 573.25 373.26C578.94 373.26 583.55 377.87 583.55 383.56C583.55 385.48 583.55 392.18 583.55 393.14Z" id="aKmshB7Se"></path><path d="M413.19 393.14C413.19 398.83 408.58 403.45 402.89 403.45C399.67 403.45 373.9 403.45 370.68 403.45C365 403.45 360.37 398.83 360.37 393.14C360.37 392.18 360.37 384.52 360.37 383.56C360.37 377.87 365 373.26 370.68 373.26C373.9 373.26 399.67 373.26 402.89 373.26C408.58 373.26 413.19 377.87 413.19 383.56C413.19 385.48 413.19 392.18 413.19 393.14Z" id="a4r08ekpa8"></path><path d="M583.55 550.14C583.55 559.86 575.68 567.73 565.98 567.73C564.22 567.73 550.08 567.73 548.31 567.73C538.61 567.73 530.74 559.86 530.74 550.14C530.74 542.41 530.74 480.51 530.74 472.77C530.74 464.31 537.61 457.46 546.05 457.46C548.27 457.46 566.03 457.46 568.25 457.46C576.7 457.46 583.55 464.31 583.55 472.77C583.55 488.24 583.55 542.41 583.55 550.14Z" id="acFASQ5sS"></path><path d="M440.07 99.56C429.71 99.56 421.32 91.17 421.32 80.82C421.32 74.3 421.32 22.13 421.32 15.6C426.7 18.19 431.62 21.78 435.77 26.23C437.52 28.09 446.22 37.4 461.89 54.16C479.81 72.92 489.77 83.34 491.77 85.43C495.75 89.59 498.91 94.38 501.17 99.56C488.95 99.56 446.18 99.56 440.07 99.56Z" id="b1fWNpds9p"></path><path d="M273.84 617.81C269.51 622.13 263.55 624.82 256.98 624.82C242.35 624.82 125.33 624.82 110.7 624.82C97.57 624.82 86.82 614.07 86.82 600.94C86.82 594.37 89.51 588.41 93.83 584.08C98.17 579.75 104.13 577.06 110.7 577.06C125.33 577.06 242.35 577.06 256.98 577.06C270.11 577.06 280.86 587.81 280.86 600.94C280.86 607.51 278.17 613.47 273.84 617.81Z" id="j1MkIRrDXE"></path><path d="M273.84 570.05C269.51 574.37 263.55 577.06 256.98 577.06C242.35 577.06 125.33 577.06 110.7 577.06C97.57 577.06 86.82 566.32 86.82 553.19C86.82 546.61 89.51 540.66 93.83 536.32C98.17 532 104.13 529.31 110.7 529.31C125.33 529.31 242.35 529.31 256.98 529.31C270.11 529.31 280.86 540.05 280.86 553.18C280.86 559.76 278.17 565.72 273.84 570.05Z" id="dd5HSDSLe"></path><path d="M273.84 522.3C269.51 526.62 263.55 529.31 256.98 529.31C242.35 529.31 125.33 529.31 110.7 529.31C97.57 529.31 86.82 518.56 86.82 505.43C86.82 498.86 89.51 492.9 93.83 488.57C98.17 484.24 104.13 481.55 110.7 481.55C125.33 481.55 242.35 481.55 256.98 481.55C270.11 481.55 280.86 492.3 280.86 505.43C280.86 512 278.17 517.96 273.84 522.3Z" id="k2cgkb32K"></path><path d="M273.84 474.54C269.51 478.86 263.55 481.55 256.98 481.55C242.35 481.55 125.33 481.55 110.7 481.55C97.57 481.55 86.82 470.81 86.82 457.67C86.82 453 88.19 448.63 90.54 444.93C91.48 443.44 92.59 442.05 93.83 440.81C98.17 436.48 104.13 433.8 110.7 433.8C125.33 433.8 242.35 433.8 256.98 433.8C270.11 433.8 280.86 444.54 280.86 457.67C280.86 464.25 278.17 470.2 273.84 474.54Z" id="a23RcVGcOE"></path><path d="M110.7 433.8C97.57 433.8 86.82 423.05 86.82 409.92C86.82 409.92 86.82 409.92 86.82 409.92C86.82 396.79 97.57 386.04 110.7 386.04C125.33 386.04 242.35 386.04 256.98 386.04C270.11 386.04 280.85 396.79 280.85 409.92C280.85 409.92 280.85 409.92 280.85 409.92C280.85 423.05 270.11 433.8 256.98 433.8C227.72 433.8 125.33 433.8 110.7 433.8Z" id="c44qIxlAXW"></path><path d="M136.95 474.07C130.21 472.49 123.15 471.79 115.89 472.09C115.89 472.09 115.89 472.09 115.89 472.09C97.62 472.09 87.47 472.09 85.44 472.09C16.42 475.08 -15.75 561.05 37.1 607.96C51.66 620.91 71.09 628.44 92.09 627.54C93.68 627.54 101.61 627.54 115.88 627.54C115.88 627.52 115.88 627.52 115.88 627.51C118.05 627.6 120.24 627.62 122.45 627.53C127.42 627.31 132.24 626.64 136.9 625.56C170.66 617.68 195.63 587.95 196.86 552.63C196.86 552.62 196.86 552.55 196.86 552.54C196.94 550.54 196.94 548.53 196.85 546.49C195.33 510.85 170.06 481.84 136.95 474.07Z" id="g2gdPIYE7"></path><path d="M196.86 552.63C195.63 587.95 170.66 617.67 136.91 625.55C103.82 617.78 78.54 588.77 77.02 553.14C77.01 552.96 77 552.8 77 552.63C77 552.62 77 552.55 77 552.54C75.68 514.84 101.44 482.36 136.95 474.07C170.06 481.84 195.33 510.85 196.85 546.49C196.94 548.53 196.94 550.54 196.86 552.54C196.86 552.56 196.86 552.62 196.86 552.63Z" id="d7rvxX4vjF"></path><path d="M401.05 0.02L401.75 0.04L402.44 0.07L403.14 0.11L403.83 0.15L404.52 0.21L405.21 0.27L405.9 0.34L406.58 0.42L407.27 0.51L407.95 0.6L408.63 0.7L409.3 0.81L409.97 0.93L410.64 1.05L411.31 1.18L411.97 1.32L412.63 1.46L413.28 1.61L413.93 1.77L414.57 1.93L415.21 2.1L415.85 2.28L416.48 2.46L417.1 2.65L417.72 2.84L418.34 3.04L418.95 3.25L419.55 3.46L420.14 3.67L420.73 3.89L421.31 4.12L421.89 4.35L422.45 4.59L423.02 4.83L423.57 5.08L424.11 5.33L424.65 5.58L425.18 5.84L426.29 6.39L427.36 6.94L428.38 7.5L429.38 8.06L430.34 8.63L431.27 9.2L432.18 9.79L433.07 10.39L433.93 11L434.79 11.63L435.62 12.28L436.45 12.94L437.27 13.63L438.09 14.34L438.91 15.08L439.74 15.84L440.56 16.63L441.4 17.45L442.25 18.3L443.12 19.18L444.01 20.1L444.92 21.06L445.85 22.06L446.82 23.09L447.81 24.17L448.84 25.29L449.91 26.46L451.02 27.67L452.18 28.94L453.38 30.25L454.63 31.62L455.94 33.04L457.31 34.52L458.73 36.06L460.22 37.65L461.78 39.31L463.4 41.03L465.1 42.81L466.88 44.67L468.74 46.59L498.55 77.78L499.3 78.58L500.03 79.4L500.76 80.23L501.46 81.07L502.15 81.93L502.83 82.8L503.48 83.68L504.13 84.58L504.75 85.49L505.36 86.41L505.95 87.34L506.53 88.29L507.09 89.24L507.63 90.21L508.15 91.19L508.65 92.18L509.14 93.18L509.61 94.19L510.06 95.21L510.49 96.24L510.9 97.27L511.3 98.32L511.67 99.38L512.02 100.44L512.36 101.51L512.67 102.6L512.96 103.68L513.24 104.78L513.49 105.88L513.72 106.99L513.93 108.11L514.12 109.23L514.29 110.36L514.44 111.49L514.56 112.63L514.66 113.78L514.74 114.93L514.8 116.09L514.83 117.24L514.85 118.41L514.85 209.2L560.98 209.2L564.21 209.26L567.4 209.46L570.55 209.78L573.67 210.22L576.75 210.79L579.78 211.48L582.77 212.28L585.71 213.19L588.61 214.22L591.44 215.36L594.23 216.6L596.95 217.95L599.61 219.4L602.21 220.95L604.75 222.59L607.21 224.33L609.61 226.16L611.93 228.07L614.18 230.08L616.34 232.16L618.43 234.33L620.43 236.58L622.35 238.9L624.18 241.29L625.92 243.76L627.56 246.29L629.11 248.89L630.56 251.56L631.9 254.28L633.15 257.06L634.28 259.9L635.31 262.79L636.23 265.73L637.03 268.72L637.72 271.76L638.29 274.84L638.73 277.96L639.05 281.11L639.25 284.3L639.31 287.53L639.31 561.67L639.25 564.89L639.05 568.08L638.73 571.24L638.29 574.36L637.72 577.44L637.03 580.47L636.23 583.46L635.31 586.4L634.28 589.29L633.15 592.13L631.9 594.91L630.56 597.64L629.11 600.3L627.56 602.9L625.92 605.43L624.18 607.9L622.35 610.3L620.43 612.62L618.43 614.86L616.34 617.03L614.18 619.12L611.93 621.12L609.61 623.04L607.21 624.87L604.75 626.6L602.21 628.25L599.61 629.8L596.95 631.24L594.23 632.59L591.44 633.83L588.61 634.97L585.71 636L582.77 636.92L579.78 637.72L576.75 638.41L573.67 638.97L570.55 639.42L567.4 639.74L564.21 639.93L560.98 640L381.92 640L378.7 639.93L375.51 639.74L372.35 639.42L369.23 638.97L366.16 638.41L363.12 637.72L360.13 636.92L357.19 636L354.3 634.97L351.46 633.83L348.68 632.59L345.95 631.24L343.29 629.8L340.69 628.25L338.16 626.6L335.69 624.87L333.29 623.04L330.97 621.12L328.73 619.12L326.56 617.03L324.47 614.86L322.47 612.62L320.55 610.3L318.72 607.9L316.99 605.43L315.34 602.9L313.8 600.3L312.35 597.64L311 594.91L309.76 592.13L308.62 589.29L307.59 586.4L306.67 583.46L305.87 580.47L305.19 577.44L304.62 574.36L304.17 571.24L303.85 568.08L303.66 564.89L303.59 561.67L303.59 554.87L290.86 554.87L290.82 555.52L290.77 556.16L290.71 556.8L290.64 557.44L290.55 558.07L290.46 558.7L290.35 559.32L290.23 559.94L290.1 560.56L289.96 561.17L289.8 561.78L289.64 562.39L289.47 562.99L289.28 563.58L289.08 564.17L288.88 564.76L288.66 565.34L288.43 565.91L288.19 566.48L287.95 567.05L287.69 567.61L287.42 568.16L287.15 568.71L286.86 569.25L286.56 569.79L286.26 570.32L285.94 570.84L285.62 571.36L285.28 571.87L284.94 572.38L284.59 572.88L284.23 573.37L283.86 573.86L283.49 574.34L283.1 574.81L282.71 575.27L282.31 575.73L281.9 576.18L281.48 576.63L281.06 577.06L281.51 577.53L281.95 578L282.39 578.48L282.81 578.97L283.23 579.47L283.63 579.97L284.03 580.49L284.42 581.01L284.8 581.54L285.16 582.07L285.52 582.62L285.87 583.17L286.21 583.72L286.53 584.29L286.85 584.86L287.15 585.44L287.45 586.02L287.73 586.61L288 587.21L288.26 587.81L288.51 588.42L288.75 589.03L288.98 589.65L289.19 590.28L289.4 590.91L289.59 591.55L289.77 592.19L289.93 592.84L290.08 593.49L290.23 594.14L290.35 594.81L290.47 595.47L290.57 596.14L290.66 596.81L290.74 597.49L290.8 598.18L290.85 598.86L290.88 599.55L290.9 600.24L290.91 600.94L290.88 602.34L290.8 603.72L290.66 605.09L290.46 606.44L290.22 607.77L289.92 609.09L289.57 610.38L289.18 611.66L288.73 612.91L288.24 614.14L287.7 615.34L287.12 616.52L286.49 617.68L285.82 618.8L285.1 619.9L284.35 620.97L283.56 622.01L282.73 623.01L281.86 623.99L280.96 624.92L280.02 625.83L279.04 626.7L278.04 627.53L277 628.32L275.93 629.07L274.83 629.78L273.71 630.45L272.55 631.08L271.37 631.66L270.17 632.2L268.94 632.69L267.69 633.14L266.41 633.54L265.12 633.88L263.81 634.18L262.47 634.43L261.12 634.62L259.76 634.76L258.37 634.84L256.98 634.87L256.67 634.87L255.79 634.87L254.38 634.87L252.45 634.87L247.19 634.88L243.91 634.88L240.24 634.88L236.21 634.88L231.84 634.88L227.16 634.88L222.21 634.89L217.01 634.89L211.6 634.89L205.99 634.89L200.22 634.89L194.33 634.9L188.33 634.9L182.26 634.9L176.15 634.9L170.02 634.91L163.91 634.91L157.84 634.91L151.84 634.91L145.95 634.92L140.19 634.92L134.59 634.92L129.18 634.92L123.98 634.92L119.04 634.93L114.37 634.93L110.01 634.93L105.99 634.93L102.33 634.93L99.06 634.93L96.22 634.93L93.83 634.93L91.92 634.93L90.52 634.93L89.66 634.94L87.91 634.99L86.16 635.01L84.42 634.99L82.69 634.94L80.97 634.86L79.25 634.74L77.55 634.59L75.85 634.4L74.16 634.18L72.49 633.93L70.82 633.65L69.16 633.33L67.52 632.98L65.88 632.6L64.26 632.19L62.65 631.75L61.05 631.27L59.46 630.77L57.89 630.23L56.33 629.67L54.78 629.07L53.24 628.45L51.72 627.8L50.22 627.11L48.73 626.4L47.25 625.66L45.79 624.89L44.35 624.1L42.92 623.28L41.51 622.42L40.11 621.55L38.73 620.64L37.37 619.71L36.03 618.75L34.7 617.77L33.4 616.76L32.11 615.73L30.84 614.67L29.59 613.59L28.36 612.48L24.47 608.69L20.89 604.76L17.62 600.7L14.65 596.51L11.97 592.22L9.59 587.83L7.5 583.35L5.7 578.8L4.18 574.19L2.94 569.52L1.97 564.82L1.28 560.09L0.85 555.35L0.69 550.6L0.79 545.86L1.14 541.14L1.76 536.45L2.62 531.8L3.72 527.21L5.07 522.69L6.66 518.25L8.49 513.89L10.54 509.64L12.83 505.5L15.34 501.49L18.07 497.62L21.01 493.89L24.18 490.33L27.55 486.94L31.12 483.73L34.9 480.72L38.88 477.91L43.05 475.33L47.42 472.98L51.97 470.87L56.71 469.02L61.63 467.43L66.72 466.12L71.99 465.1L77.43 464.38L77.42 464.3L77.4 464.21L77.39 464.11L77.37 464.01L77.35 463.91L77.33 463.81L77.32 463.7L77.3 463.58L77.28 463.47L77.25 463.35L77.23 463.22L77.21 463.09L77.19 462.96L77.17 462.82L77.14 462.68L77.12 462.53L77.1 462.39L77.08 462.23L77.06 462.07L77.03 461.91L77.01 461.74L76.99 461.57L76.97 461.4L76.95 461.22L76.93 461.03L76.91 460.84L76.89 460.65L76.88 460.45L76.86 460.24L76.85 460.04L76.83 459.82L76.82 459.6L76.81 459.38L76.8 459.15L76.79 458.92L76.78 458.68L76.77 458.44L76.77 458.19L76.77 457.93L76.77 457.67L76.77 456.98L76.79 456.28L76.83 455.59L76.88 454.91L76.94 454.23L77.02 453.55L77.1 452.87L77.21 452.2L77.32 451.54L77.45 450.88L77.59 450.22L77.74 449.57L77.91 448.92L78.09 448.28L78.28 447.64L78.48 447.01L78.7 446.39L78.92 445.77L79.16 445.15L79.41 444.54L79.67 443.94L79.95 443.34L80.23 442.75L80.52 442.17L80.83 441.59L81.14 441.02L81.47 440.46L81.81 439.9L82.16 439.35L82.51 438.8L82.88 438.27L83.26 437.74L83.65 437.22L84.04 436.71L84.45 436.2L84.86 435.7L85.29 435.21L85.72 434.73L86.17 434.26L86.62 433.8L86.17 433.33L85.72 432.86L85.29 432.38L84.86 431.89L84.45 431.39L84.04 430.89L83.65 430.37L83.26 429.85L82.88 429.32L82.51 428.79L82.16 428.24L81.81 427.69L81.47 427.14L81.14 426.57L80.83 426L80.52 425.42L80.23 424.84L79.95 424.25L79.67 423.65L79.41 423.05L79.16 422.44L78.92 421.83L78.7 421.21L78.48 420.58L78.28 419.95L78.09 419.31L77.91 418.67L77.74 418.02L77.59 417.37L77.45 416.72L77.32 416.05L77.21 415.39L77.1 414.72L77.02 414.05L76.94 413.37L76.88 412.68L76.83 412L76.79 411.31L76.77 410.62L76.77 409.92L76.79 408.52L76.88 407.14L77.02 405.77L77.21 404.42L77.46 403.09L77.75 401.77L78.1 400.48L78.5 399.2L78.94 397.95L79.44 396.72L79.98 395.52L80.56 394.34L81.19 393.18L81.86 392.06L82.57 390.96L83.32 389.89L84.11 388.85L84.94 387.85L85.81 386.87L86.71 385.94L87.65 385.03L88.63 384.16L89.63 383.33L90.67 382.54L91.74 381.79L92.84 381.08L93.96 380.41L95.12 379.78L96.3 379.2L97.5 378.66L98.73 378.17L99.98 377.72L101.26 377.32L102.55 376.98L103.87 376.68L105.2 376.43L106.55 376.24L107.92 376.1L109.3 376.02L110.7 375.99L123.1 375.99L123.1 58.82L123.15 56.39L123.3 54L123.54 51.63L123.87 49.29L124.3 46.98L124.81 44.7L125.42 42.46L126.1 40.25L126.88 38.08L127.73 35.95L128.66 33.86L129.67 31.81L130.76 29.81L131.92 27.86L133.16 25.96L134.46 24.11L135.84 22.31L137.27 20.56L138.78 18.88L140.35 17.25L141.97 15.68L143.66 14.18L145.4 12.74L147.2 11.36L149.05 10.06L150.96 8.83L152.91 7.66L154.91 6.58L156.95 5.56L159.04 4.63L161.17 3.78L163.34 3L165.55 2.32L167.8 1.71L170.08 1.2L172.39 0.77L174.73 0.44L177.1 0.2L179.5 0.05L181.92 0L399.66 0L400.35 0L401.05 0.02ZM379.48 228.09L377.05 228.24L374.66 228.49L372.29 228.82L369.95 229.26L367.65 229.78L365.38 230.39L363.15 231.08L360.95 231.86L358.8 232.73L356.68 233.67L354.62 234.69L352.59 235.79L350.62 236.97L348.69 238.22L346.82 239.54L345 240.92L343.24 242.38L341.53 243.9L339.89 245.49L338.3 247.13L336.78 248.84L335.33 250.6L333.94 252.42L332.62 254.29L331.37 256.22L330.19 258.19L329.09 260.21L328.07 262.28L327.13 264.39L326.26 266.55L325.48 268.75L324.78 270.98L324.17 273.25L323.65 275.55L323.22 277.89L322.88 280.26L322.64 282.65L322.49 285.08L322.44 287.53L322.44 561.67L322.49 564.12L322.64 566.54L322.88 568.94L323.22 571.3L323.65 573.64L324.17 575.95L324.78 578.22L325.48 580.45L326.26 582.65L327.13 584.8L328.07 586.91L329.09 588.98L330.19 591L331.37 592.98L332.62 594.9L333.94 596.78L335.33 598.6L336.78 600.36L338.3 602.06L339.89 603.71L341.53 605.29L343.24 606.82L345 608.27L346.82 609.66L348.69 610.98L350.62 612.23L352.59 613.4L354.62 614.5L356.68 615.52L358.8 616.47L360.95 617.33L363.15 618.11L365.38 618.81L367.65 619.42L369.95 619.94L372.29 620.37L374.66 620.71L377.05 620.95L379.48 621.1L381.92 621.15L560.98 621.15L562.62 621.11L564.25 621L565.87 620.82L567.48 620.56L569.09 620.22L570.68 619.81L572.27 619.33L573.86 618.77L575.43 618.14L577 617.43L578.56 616.65L580.11 615.8L581.66 614.87L583.19 613.86L584.72 612.79L586.24 611.63L587.76 610.41L589.26 609.11L590.76 607.73L592.25 606.28L593.74 604.76L595.21 603.16L596.68 601.48L598.14 599.74L599.59 597.92L601.04 596.02L602.47 594.05L603.9 592L605.33 589.89L606.74 587.69L608.15 585.42L609.55 583.08L610.94 580.67L612.32 578.17L613.7 575.61L615.07 572.97L616.43 570.26L617.78 567.47L619.13 564.61L620.46 561.67L620.46 287.53L620.41 285.08L620.27 282.65L620.02 280.26L619.68 277.89L619.25 275.55L618.73 273.25L618.12 270.98L617.43 268.74L616.65 266.55L615.78 264.39L614.84 262.28L613.81 260.21L612.72 258.19L611.54 256.22L610.29 254.29L608.97 252.42L607.58 250.6L606.13 248.84L604.61 247.13L603.02 245.49L601.38 243.9L599.67 242.38L597.91 240.92L596.09 239.54L594.22 238.22L592.29 236.97L590.32 235.79L588.3 234.69L586.23 233.67L584.11 232.73L581.96 231.86L579.76 231.08L577.53 230.39L575.26 229.78L572.96 229.26L570.62 228.82L568.25 228.49L565.85 228.24L563.43 228.09L560.98 228.05L381.92 228.05L379.48 228.09ZM114.07 482.98L110.32 483.5L106.61 484.22L102.95 485.15L99.35 486.28L95.82 487.6L92.37 489.12L89.01 490.82L85.74 492.7L82.58 494.76L79.53 496.99L76.61 499.39L73.82 501.95L71.18 504.67L68.68 507.54L66.35 510.57L64.19 513.73L62.21 517.04L60.42 520.48L58.83 524.05L57.44 527.75L56.27 531.57L55.33 535.5L54.62 539.55L54.16 543.71L53.95 547.96L54.01 552.32L54.18 555.07L54.46 557.78L54.85 560.46L55.34 563.11L55.93 565.71L56.62 568.27L57.41 570.79L58.3 573.26L59.28 575.69L60.35 578.06L61.51 580.39L62.75 582.66L64.08 584.87L65.49 587.02L66.98 589.12L68.54 591.15L70.19 593.12L71.9 595.03L73.68 596.86L75.54 598.63L77.46 600.32L79.44 601.94L81.49 603.49L83.59 604.95L85.75 606.34L87.97 607.64L90.24 608.86L92.55 609.99L94.92 611.03L97.33 611.99L99.79 612.85L102.29 613.61L104.83 614.28L107.4 614.85L110.01 615.32L112.65 615.69L115.32 615.96L118.02 616.11L120.74 616.16L123.49 616.1L127.87 615.78L132.13 615.21L136.26 614.4L140.25 613.34L144.11 612.06L147.83 610.56L151.4 608.86L154.83 606.96L158.1 604.87L161.22 602.6L164.18 600.16L166.98 597.57L169.62 594.83L172.09 591.94L174.38 588.93L176.51 585.8L178.45 582.56L180.21 579.22L181.78 575.8L183.17 572.29L184.36 568.71L185.35 565.07L186.15 561.38L186.74 557.64L187.13 553.88L187.3 550.1L187.27 546.3L187.01 542.5L186.54 538.71L185.84 534.94L184.91 531.19L183.75 527.49L182.36 523.83L180.73 520.22L178.85 516.68L176.73 513.22L174.37 509.85L171.75 506.57L168.87 503.4L165.74 500.34L162.38 497.44L158.94 494.81L155.41 492.45L151.82 490.36L148.16 488.53L144.45 486.95L140.71 485.63L136.93 484.55L133.12 483.71L129.3 483.11L125.48 482.74L121.66 482.6L117.85 482.68L114.07 482.98ZM197.04 587.91L196.63 588.7L196.22 589.49L195.8 590.27L195.37 591.05L194.94 591.82L194.49 592.58L194.04 593.35L193.58 594.1L193.11 594.85L192.64 595.6L192.16 596.34L191.67 597.08L191.17 597.81L190.67 598.53L190.16 599.25L189.64 599.97L189.11 600.68L188.58 601.38L188.04 602.08L187.49 602.77L186.94 603.45L186.38 604.14L185.81 604.81L185.24 605.48L184.65 606.14L184.07 606.8L183.47 607.45L182.87 608.09L182.26 608.73L181.65 609.36L181.03 609.99L180.4 610.61L179.77 611.22L179.13 611.83L178.48 612.43L177.83 613.02L177.17 613.61L176.5 614.19L175.83 614.77L256.98 614.77L257.55 614.75L258.11 614.72L258.67 614.66L259.22 614.58L259.76 614.48L260.3 614.36L260.82 614.22L261.34 614.06L261.85 613.88L262.35 613.68L262.84 613.46L263.32 613.22L263.79 612.97L264.25 612.69L264.7 612.4L265.14 612.1L265.56 611.77L265.97 611.43L266.36 611.08L266.75 610.71L267.12 610.33L267.47 609.93L267.81 609.52L268.13 609.1L268.44 608.67L268.73 608.22L269 607.76L269.26 607.29L269.5 606.81L269.71 606.32L269.92 605.82L270.1 605.31L270.26 604.79L270.4 604.26L270.52 603.73L270.62 603.18L270.7 602.63L270.76 602.07L270.79 601.51L270.8 600.94L270.79 600.37L270.76 599.81L270.7 599.25L270.62 598.7L270.52 598.16L270.4 597.63L270.26 597.1L270.1 596.58L269.92 596.07L269.71 595.57L269.5 595.08L269.26 594.6L269 594.13L268.73 593.67L268.44 593.22L268.13 592.79L267.81 592.36L267.47 591.95L267.12 591.56L266.75 591.17L266.37 590.81L265.97 590.45L265.56 590.11L265.14 589.79L264.7 589.48L264.25 589.19L263.79 588.92L263.32 588.66L262.84 588.43L262.35 588.21L261.85 588.01L261.34 587.82L260.82 587.66L260.3 587.52L259.76 587.4L259.22 587.3L258.67 587.22L258.11 587.16L257.55 587.13L256.98 587.12L197.44 587.12L197.04 587.91ZM47.65 595.22L47.16 595.22L46.55 595.22L45.83 595.22L45 595.22L44.06 595.22L43.01 595.22L41.85 595.22L40.57 595.22L39.19 595.22L37.71 595.22L39.46 597.01L41.26 598.72L43.1 600.35L45 601.9L46.94 603.38L48.94 604.78L50.97 606.11L53.05 607.35L55.18 608.52L57.35 609.61L59.57 610.63L61.82 611.56L60.53 610.31L59.26 609.05L58.03 607.75L56.82 606.44L55.65 605.11L54.5 603.75L53.39 602.37L52.31 600.98L51.26 599.56L50.24 598.13L49.26 596.67L48.3 595.2L48.03 595.21L47.65 595.22ZM20.61 561.42L20.82 562.44L21.07 563.53L21.37 564.68L21.7 565.91L22.07 567.2L22.49 568.56L22.94 569.99L23.44 571.48L23.97 573.04L24.55 574.67L25.16 576.37L39.39 576.37L39.23 575.73L39.07 575.24L38.92 574.82L38.76 574.39L38.58 573.86L38.37 573.15L38.11 572.18L37.8 570.86L37.42 569.11L36.97 566.85L36.43 564L35.8 560.46L20.44 560.46L20.61 561.42ZM205.68 540.18L205.77 540.99L205.84 541.81L205.91 542.62L205.97 543.44L206.03 544.25L206.07 545.06L206.11 545.87L206.14 546.68L206.16 547.48L206.17 548.29L206.18 549.09L206.18 549.9L206.17 550.7L206.16 551.5L206.13 552.29L206.1 553.09L206.07 553.88L206.02 554.68L205.97 555.47L205.91 556.25L205.85 557.04L205.77 557.82L205.69 558.6L205.61 559.38L205.51 560.16L205.41 560.93L205.31 561.7L205.19 562.47L205.07 563.23L204.95 563.99L204.81 564.75L204.67 565.51L204.53 566.26L204.37 567.01L256.98 567.01L257.58 567L258.18 566.96L258.76 566.9L259.34 566.81L259.92 566.7L260.48 566.56L261.03 566.4L261.58 566.22L262.11 566.02L262.64 565.8L263.15 565.56L263.65 565.29L264.14 565.01L264.61 564.71L265.07 564.38L265.52 564.05L265.96 563.69L266.38 563.31L266.78 562.92L267.17 562.52L267.54 562.1L267.89 561.66L268.23 561.21L268.54 560.74L268.84 560.27L269.12 559.78L269.38 559.27L269.62 558.76L269.84 558.23L270.04 557.7L270.22 557.15L270.37 556.59L270.5 556.03L270.61 555.45L270.69 554.87L270.77 554.19L270.8 553.52L270.81 552.84L270.78 552.18L270.72 551.51L270.62 550.86L270.49 550.21L270.33 549.57L270.15 548.95L269.93 548.33L269.68 547.72L269.4 547.13L269.1 546.55L268.77 545.99L268.42 545.44L268.03 544.91L267.63 544.39L267.2 543.9L266.75 543.42L266.27 542.97L265.78 542.54L265.26 542.13L264.72 541.74L264.17 541.38L263.59 541.05L263 540.74L262.39 540.46L261.76 540.21L261.12 539.99L260.46 539.8L259.79 539.65L259.11 539.52L258.41 539.44L257.7 539.38L256.98 539.36L205.59 539.36L205.68 540.18ZM23.11 527.76L22.71 528.98L22.32 530.21L21.96 531.45L21.63 532.7L21.32 533.95L21.03 535.21L20.77 536.48L20.54 537.75L20.32 539.03L20.14 540.32L19.97 541.61L35.44 541.61L35.65 539.61L35.89 537.73L36.14 535.98L36.42 534.35L36.7 532.86L36.97 531.51L37.24 530.3L37.5 529.24L37.72 528.33L37.92 527.57L38.08 526.98L38.18 526.54L23.54 526.54L23.11 527.76ZM180.32 20.14L178.75 20.24L177.19 20.39L175.65 20.62L174.12 20.9L172.63 21.23L171.15 21.63L169.69 22.08L168.27 22.59L166.86 23.15L165.49 23.77L164.14 24.44L162.83 25.15L161.54 25.92L160.29 26.73L159.07 27.59L157.89 28.49L156.74 29.44L155.63 30.43L154.56 31.46L153.53 32.53L152.54 33.64L151.59 34.79L150.69 35.97L149.83 37.19L149.02 38.44L148.25 39.73L147.54 41.04L146.87 42.39L146.25 43.76L145.69 45.17L145.18 46.6L144.73 48.05L144.33 49.53L144 51.03L143.72 52.55L143.49 54.09L143.34 55.65L143.24 57.22L143.21 58.82L143.21 375.99L256.98 375.99L259.21 376.06L261.38 376.26L263.49 376.58L265.54 377.03L267.53 377.6L269.44 378.28L271.29 379.06L273.07 379.95L274.78 380.94L276.42 382.02L277.97 383.19L279.45 384.45L280.85 385.78L282.17 387.19L283.4 388.66L284.55 390.2L285.61 391.8L286.58 393.45L287.45 395.15L288.24 396.9L288.92 398.69L289.51 400.51L290 402.36L290.39 404.24L290.67 406.14L290.84 408.05L290.91 409.98L290.87 411.91L290.72 413.84L290.45 415.77L290.06 417.69L289.56 419.6L288.94 421.49L288.19 423.36L287.33 425.19L286.33 427L285.21 428.77L283.96 430.49L282.58 432.17L281.06 433.8L281.51 434.26L281.95 434.73L282.39 435.22L282.81 435.7L283.23 436.2L283.63 436.71L284.03 437.22L284.42 437.74L284.8 438.27L285.16 438.81L285.52 439.35L285.87 439.9L286.21 440.46L286.53 441.02L286.85 441.59L287.15 442.17L287.45 442.75L287.73 443.34L288 443.94L288.26 444.54L288.51 445.15L288.75 445.77L288.98 446.39L289.19 447.01L289.4 447.64L289.59 448.28L289.77 448.92L289.93 449.57L290.08 450.22L290.23 450.88L290.35 451.54L290.47 452.2L290.57 452.87L290.66 453.55L290.74 454.23L290.8 454.91L290.85 455.6L290.88 456.28L290.9 456.98L290.91 457.68L290.9 458.37L290.88 459.07L290.85 459.75L290.8 460.44L290.74 461.12L290.66 461.8L290.57 462.48L290.47 463.15L290.35 463.81L290.23 464.47L290.08 465.13L289.93 465.78L289.77 466.43L289.59 467.07L289.4 467.71L289.19 468.34L288.98 468.96L288.75 469.58L288.51 470.2L288.26 470.81L288 471.41L287.73 472.01L287.45 472.6L287.15 473.18L286.85 473.76L286.53 474.33L286.21 474.89L285.87 475.45L285.52 476L285.16 476.54L284.8 477.08L284.42 477.61L284.03 478.13L283.63 478.64L283.23 479.15L282.81 479.65L282.39 480.13L281.95 480.62L281.51 481.09L281.06 481.55L282.02 482.56L282.93 483.6L283.79 484.66L284.61 485.75L285.37 486.86L286.08 488L286.75 489.16L287.37 490.33L287.93 491.53L288.45 492.74L288.92 493.97L289.34 495.21L289.71 496.46L290.03 497.72L290.3 498.99L290.52 500.27L290.69 501.55L290.81 502.84L290.89 504.14L290.91 505.43L290.89 506.72L290.81 508.02L290.69 509.31L290.52 510.59L290.29 511.87L290.02 513.14L289.7 514.4L289.33 515.65L288.91 516.89L288.45 518.12L287.93 519.33L287.36 520.53L286.75 521.7L286.08 522.86L285.37 524L284.6 525.11L283.79 526.2L282.93 527.26L282.02 528.3L281.06 529.31L281.18 529.43L281.3 529.56L281.42 529.68L281.55 529.81L281.67 529.94L281.79 530.06L281.91 530.19L282.02 530.32L282.14 530.45L282.26 530.58L282.38 530.71L282.49 530.84L282.61 530.98L282.72 531.11L282.83 531.24L282.95 531.38L283.06 531.51L283.17 531.65L283.28 531.78L283.39 531.92L283.5 532.05L283.61 532.19L283.72 532.33L283.83 532.47L283.93 532.61L284.04 532.75L284.14 532.89L284.25 533.03L284.35 533.17L284.45 533.31L284.56 533.45L284.66 533.6L284.76 533.74L284.86 533.88L284.96 534.03L285.06 534.17L285.15 534.32L285.25 534.47L285.35 534.61L285.44 534.76L303.59 534.76L303.59 287.53L303.66 284.3L303.85 281.11L304.17 277.95L304.62 274.84L305.19 271.76L305.87 268.72L306.67 265.73L307.59 262.79L308.62 259.9L309.76 257.06L311 254.28L312.35 251.56L313.8 248.89L315.34 246.29L316.99 243.76L318.72 241.29L320.55 238.9L322.47 236.58L324.47 234.33L326.56 232.16L328.73 230.08L330.97 228.07L333.29 226.15L335.69 224.33L338.16 222.59L340.69 220.95L343.29 219.4L345.95 217.95L348.68 216.6L351.46 215.36L354.3 214.22L357.19 213.19L360.13 212.28L363.12 211.47L366.16 210.79L369.23 210.22L372.35 209.78L375.51 209.45L378.7 209.26L381.92 209.19L494.74 209.19L494.71 202.26L494.69 195.69L494.68 189.46L494.67 183.56L494.66 178L494.66 172.74L494.66 167.79L494.67 163.14L494.67 158.77L494.68 154.67L494.69 150.84L494.71 147.26L494.72 143.92L494.73 140.82L494.74 137.94L494.75 135.28L494.76 132.82L494.77 130.55L494.78 128.47L494.78 126.55L494.78 124.8L494.78 123.21L494.77 121.75L494.76 120.43L494.74 119.22L494.72 118.13L494.69 117.15L494.65 116.25L494.61 115.43L494.56 114.69L494.5 114.01L494.44 113.37L494.36 112.78L494.28 112.22L494.18 111.68L494.08 111.15L493.96 110.62L493.83 110.07L493.7 109.51L493.55 108.92L420.83 108.92L420.42 108.91L420.01 108.89L419.6 108.85L419.2 108.79L418.8 108.72L418.41 108.63L418.03 108.53L417.65 108.41L417.28 108.28L416.92 108.13L416.56 107.97L416.21 107.8L415.87 107.61L415.53 107.41L415.21 107.2L414.89 106.98L414.59 106.75L414.29 106.5L414 106.24L413.72 105.98L413.45 105.7L413.2 105.41L412.95 105.11L412.72 104.8L412.49 104.49L412.28 104.16L412.08 103.83L411.9 103.49L411.73 103.14L411.57 102.78L411.42 102.42L411.29 102.04L411.17 101.67L411.07 101.28L410.98 100.89L410.91 100.5L410.85 100.1L410.81 99.69L410.79 99.28L410.78 98.87L410.78 20.11L181.92 20.11L180.32 20.14ZM184.21 492.22L184.76 492.83L185.31 493.45L185.84 494.08L186.38 494.71L186.9 495.34L187.42 495.98L187.93 496.62L188.44 497.27L188.94 497.92L189.43 498.58L189.92 499.24L190.4 499.9L190.87 500.57L191.33 501.24L191.79 501.92L192.24 502.6L192.69 503.28L193.13 503.97L193.56 504.66L193.98 505.36L194.4 506.06L194.81 506.76L195.22 507.47L195.61 508.18L196 508.89L196.39 509.61L196.76 510.33L197.13 511.06L197.49 511.79L197.85 512.52L198.19 513.25L198.53 513.99L198.87 514.73L199.19 515.48L199.51 516.23L199.82 516.98L200.13 517.73L200.43 518.49L200.72 519.25L256.98 519.25L257.55 519.24L258.11 519.21L258.67 519.15L259.22 519.07L259.76 518.97L260.3 518.85L260.82 518.71L261.34 518.55L261.85 518.37L262.35 518.17L262.84 517.95L263.32 517.71L263.79 517.45L264.25 517.18L264.7 516.89L265.14 516.58L265.56 516.26L265.97 515.92L266.36 515.57L266.75 515.2L267.12 514.82L267.47 514.42L267.81 514.01L268.13 513.59L268.44 513.16L268.73 512.71L269 512.25L269.26 511.78L269.5 511.3L269.71 510.81L269.92 510.31L270.1 509.8L270.26 509.28L270.4 508.75L270.52 508.21L270.62 507.67L270.7 507.12L270.76 506.56L270.79 506L270.8 505.43L270.79 504.86L270.76 504.3L270.7 503.74L270.62 503.19L270.52 502.65L270.4 502.11L270.26 501.59L270.1 501.07L269.92 500.56L269.71 500.06L269.5 499.57L269.26 499.09L269 498.62L268.73 498.16L268.44 497.71L268.13 497.27L267.81 496.85L267.47 496.44L267.12 496.04L266.75 495.66L266.36 495.29L265.97 494.94L265.56 494.6L265.14 494.28L264.7 493.97L264.25 493.68L263.79 493.41L263.32 493.15L262.84 492.91L262.35 492.7L261.85 492.49L261.34 492.31L260.82 492.15L260.3 492.01L259.76 491.89L259.22 491.79L258.67 491.71L258.11 491.65L257.55 491.62L256.98 491.61L183.65 491.61L184.21 492.22ZM57.39 489.29L55.24 490.37L53.12 491.53L51.04 492.77L48.99 494.1L46.99 495.51L45.02 497L43.1 498.57L41.23 500.23L39.4 501.97L37.63 503.79L35.91 505.7L34.24 507.69L45.95 507.69L46.88 506.07L47.85 504.48L48.85 502.91L49.89 501.36L50.95 499.83L52.05 498.34L53.17 496.86L54.33 495.42L55.51 494.01L56.72 492.62L57.95 491.26L59.21 489.94L60.48 488.64L61.79 487.38L59.57 488.3L57.39 489.29ZM110.13 443.86L109.57 443.9L109.01 443.95L108.46 444.03L107.92 444.13L107.38 444.25L106.85 444.39L106.34 444.56L105.82 444.74L105.32 444.94L104.83 445.16L104.35 445.4L103.88 445.65L103.42 445.93L102.98 446.22L102.54 446.52L102.12 446.85L101.71 447.18L101.31 447.54L100.93 447.91L100.56 448.29L100.21 448.69L99.87 449.1L99.55 449.52L99.24 449.95L98.95 450.4L98.68 450.86L98.42 451.33L98.18 451.81L97.96 452.3L97.76 452.8L97.58 453.31L97.42 453.83L97.28 454.36L97.15 454.89L97.05 455.44L96.98 455.99L96.92 456.54L96.88 457.1L96.87 457.67L96.87 457.84L96.88 458.01L96.88 458.18L96.89 458.35L96.9 458.52L96.91 458.69L96.92 458.85L96.94 459.02L96.96 459.19L96.97 459.35L97 459.52L97.02 459.68L97.04 459.85L97.07 460.01L97.1 460.17L97.13 460.33L97.16 460.5L97.2 460.66L97.23 460.82L97.27 460.97L97.31 461.13L97.36 461.29L97.4 461.45L97.45 461.6L97.49 461.76L97.54 461.91L97.59 462.07L97.65 462.22L97.7 462.37L97.76 462.53L97.82 462.68L97.88 462.83L97.94 462.98L98 463.12L98.07 463.27L98.13 463.42L98.2 463.56L98.27 463.71L98.35 463.85L98.42 463.99L117.18 463.99L117.33 463.99L117.48 463.98L117.63 463.98L117.77 463.97L117.92 463.96L118.07 463.96L118.22 463.95L118.36 463.95L118.51 463.95L118.66 463.94L118.81 463.94L118.96 463.93L119.1 463.93L119.25 463.93L119.4 463.93L119.55 463.92L119.7 463.92L119.84 463.92L119.99 463.92L120.14 463.92L120.29 463.92L120.44 463.92L120.58 463.91L120.73 463.91L120.88 463.91L121.03 463.91L121.18 463.92L121.32 463.92L121.47 463.92L121.62 463.92L121.77 463.92L121.92 463.92L122.06 463.92L122.21 463.93L122.36 463.93L122.51 463.93L122.66 463.93L122.8 463.94L122.95 463.94L123.1 463.94L123.61 463.96L124.13 463.98L124.64 464L125.15 464.02L125.67 464.05L126.18 464.08L126.69 464.11L127.2 464.15L127.71 464.19L128.22 464.23L128.73 464.28L129.24 464.32L129.75 464.38L130.25 464.43L130.76 464.49L131.27 464.55L131.77 464.61L132.28 464.68L132.78 464.75L133.29 464.82L133.79 464.9L134.29 464.98L134.79 465.06L135.29 465.14L135.79 465.23L136.29 465.32L136.79 465.41L137.29 465.51L137.79 465.61L138.28 465.71L138.78 465.82L139.28 465.93L139.77 466.04L140.26 466.15L140.76 466.27L141.25 466.39L141.74 466.51L142.23 466.64L142.72 466.77L143.21 466.9L143.53 466.99L143.86 467.08L144.19 467.17L144.51 467.26L144.84 467.36L145.16 467.45L145.49 467.55L145.81 467.65L146.14 467.75L146.46 467.85L146.78 467.95L147.1 468.06L147.43 468.16L147.75 468.27L148.07 468.38L148.39 468.48L148.71 468.59L149.03 468.71L149.35 468.82L149.67 468.93L149.99 469.05L150.3 469.17L150.62 469.28L150.94 469.4L151.25 469.53L151.57 469.65L151.89 469.77L152.2 469.9L152.51 470.02L152.83 470.15L153.14 470.28L153.46 470.41L153.77 470.54L154.08 470.67L154.39 470.81L154.7 470.94L155.01 471.08L155.32 471.22L155.63 471.36L155.94 471.5L256.98 471.5L257.55 471.49L258.11 471.45L258.67 471.39L259.22 471.32L259.76 471.22L260.3 471.1L260.82 470.95L261.34 470.79L261.85 470.61L262.35 470.41L262.84 470.19L263.32 469.95L263.79 469.7L264.25 469.42L264.7 469.14L265.14 468.83L265.56 468.51L265.97 468.17L266.36 467.81L266.75 467.45L267.12 467.06L267.47 466.67L267.81 466.26L268.13 465.84L268.44 465.4L268.73 464.95L269 464.49L269.26 464.02L269.5 463.54L269.71 463.05L269.92 462.55L270.1 462.04L270.26 461.52L270.4 460.99L270.52 460.46L270.62 459.91L270.7 459.36L270.76 458.81L270.79 458.24L270.8 457.67L270.79 457.11L270.76 456.54L270.7 455.99L270.62 455.44L270.52 454.89L270.4 454.36L270.26 453.83L270.1 453.31L269.92 452.8L269.71 452.3L269.5 451.81L269.26 451.33L269 450.86L268.73 450.4L268.44 449.95L268.13 449.52L267.81 449.1L267.47 448.69L267.12 448.29L266.75 447.91L266.37 447.54L265.97 447.18L265.56 446.85L265.14 446.52L264.7 446.22L264.25 445.93L263.79 445.65L263.32 445.4L262.84 445.16L262.35 444.94L261.85 444.74L261.34 444.56L260.82 444.39L260.3 444.25L259.76 444.13L259.22 444.03L258.67 443.95L258.11 443.9L257.55 443.86L256.98 443.85L110.7 443.85L110.13 443.86ZM110.13 396.11L109.57 396.14L109.01 396.2L108.46 396.28L107.92 396.38L107.38 396.5L106.85 396.64L106.34 396.8L105.82 396.98L105.32 397.18L104.83 397.4L104.35 397.64L103.88 397.9L103.42 398.17L102.98 398.46L102.54 398.77L102.12 399.09L101.71 399.43L101.31 399.78L100.93 400.15L100.56 400.53L100.21 400.93L99.87 401.34L99.55 401.76L99.24 402.2L98.95 402.65L98.68 403.1L98.42 403.57L98.18 404.05L97.96 404.55L97.76 405.05L97.58 405.56L97.42 406.08L97.28 406.6L97.15 407.14L97.05 407.68L96.98 408.23L96.92 408.79L96.89 409.35L96.87 409.92L96.89 410.49L96.92 411.05L96.98 411.61L97.06 412.16L97.16 412.7L97.28 413.24L97.42 413.77L97.58 414.29L97.76 414.8L97.96 415.3L98.18 415.79L98.42 416.27L98.68 416.74L98.95 417.2L99.24 417.64L99.55 418.08L99.87 418.5L100.21 418.91L100.56 419.31L100.93 419.69L101.31 420.06L101.71 420.41L102.12 420.75L102.54 421.07L102.98 421.38L103.42 421.67L103.88 421.94L104.35 422.2L104.83 422.44L105.32 422.66L105.83 422.86L106.34 423.04L106.85 423.2L107.38 423.34L107.92 423.46L108.46 423.56L109.01 423.64L109.57 423.7L110.13 423.73L110.7 423.74L256.98 423.74L257.55 423.73L258.11 423.7L258.67 423.64L259.22 423.56L259.76 423.46L260.3 423.34L260.82 423.2L261.34 423.04L261.85 422.86L262.35 422.66L262.84 422.44L263.32 422.2L263.79 421.94L264.25 421.67L264.7 421.38L265.14 421.07L265.56 420.75L265.97 420.41L266.36 420.06L266.75 419.69L267.12 419.31L267.47 418.91L267.81 418.5L268.13 418.08L268.44 417.65L268.73 417.2L269 416.74L269.26 416.27L269.5 415.79L269.71 415.3L269.92 414.8L270.1 414.29L270.26 413.77L270.4 413.24L270.52 412.7L270.62 412.16L270.7 411.61L270.76 411.05L270.79 410.49L270.8 409.92L270.79 409.35L270.76 408.79L270.7 408.23L270.62 407.68L270.52 407.14L270.4 406.6L270.26 406.08L270.1 405.56L269.92 405.05L269.71 404.55L269.5 404.06L269.26 403.57L269 403.1L268.73 402.65L268.44 402.2L268.13 401.76L267.81 401.34L267.47 400.93L267.12 400.53L266.75 400.15L266.37 399.78L265.97 399.43L265.56 399.09L265.14 398.77L264.7 398.46L264.25 398.17L263.79 397.9L263.32 397.64L262.84 397.4L262.35 397.18L261.85 396.98L261.34 396.8L260.82 396.64L260.3 396.5L259.76 396.38L259.22 396.28L258.67 396.2L258.11 396.14L257.55 396.11L256.98 396.1L110.7 396.1L110.13 396.11ZM481.26 88.81L481.26 88.81L481.26 88.8L481.25 88.79L481.24 88.79L481.24 88.78L481.23 88.77L481.23 88.77L481.23 88.77L481.22 88.77L481.22 88.76L481.22 88.76L481.21 88.76L481.21 88.75L481.2 88.75L481.2 88.74L481.2 88.74L481.19 88.73L481.18 88.73L481.18 88.72L481.18 88.72L481.18 88.72L481.17 88.72L481.17 88.71L481.17 88.71L481.16 88.7L481.15 88.7L481.15 88.7L481.15 88.7L481.15 88.69L481.14 88.68L481.14 88.67L481.13 88.67L481.13 88.66L481.12 88.66L481.12 88.65L481.11 88.65L481.1 88.64L481.1 88.64L481.09 88.63L481.09 88.63L481.08 88.62L481.08 88.62L481.07 88.61L481.07 88.61L481.06 88.6L481.06 88.59L481.05 88.58L481.04 88.57L481.02 88.55L481.01 88.54L481 88.53L481 88.53L480.99 88.52L480.99 88.51L480.98 88.51L480.98 88.5L480.98 88.5L480.97 88.5L480.96 88.49L480.96 88.49L480.96 88.49L480.95 88.48L480.95 88.48L480.95 88.48L480.94 88.47L480.94 88.47L480.81 88.33L480.6 88.11L480.31 87.81L479.95 87.42L479.51 86.96L478.99 86.41L478.4 85.79L477.74 85.08L476.99 84.3L476.17 83.43L475.28 82.48L474.3 81.45L473.25 80.35L472.13 79.16L470.93 77.89L469.65 76.53L468.3 75.1L466.87 73.59L465.36 72L463.78 70.33L462.12 68.57L460.38 66.74L458.57 64.82L456.68 62.83L454.72 60.75L452.68 58.59L450.56 56.36L448.37 54.04L446.1 51.64L443.76 49.16L441.33 46.6L438.84 43.96L436.26 41.24L433.61 38.43L430.89 35.55L430.88 88.81L481.26 88.81Z" id="e2z1TXoGlH"></path><path d="M382.59 328.36C375.55 328.36 369.8 322.6 369.8 315.56C369.8 312.11 369.8 284.52 369.8 281.07C369.8 274.03 375.55 268.27 382.59 268.27C400.36 268.27 542.54 268.27 560.32 268.27C567.38 268.27 573.11 274.02 573.11 281.07C573.11 284.52 573.11 312.11 573.11 315.56C573.11 322.61 567.38 328.36 560.32 328.36C550.03 328.36 467.72 328.36 457.43 328.36C452.22 328.36 448 332.58 448 337.78C448 342.99 452.22 347.21 457.43 347.21C467.72 347.21 550.03 347.21 560.32 347.21C577.77 347.21 591.96 333.01 591.96 315.56C591.96 312.11 591.96 284.52 591.96 281.07C591.96 263.62 577.77 249.42 560.32 249.42C542.54 249.42 400.36 249.42 382.59 249.42C365.11 249.42 350.95 263.59 350.95 281.07C350.95 284.52 350.95 312.11 350.95 315.56C350.95 333.04 365.11 347.21 382.59 347.21C386.01 347.21 413.37 347.21 416.79 347.21C421.99 347.21 426.21 342.99 426.21 337.78C426.21 332.58 421.99 328.36 416.79 328.36C409.95 328.36 386.01 328.36 382.59 328.36Z" id="brHHJl97U"></path><path d="M574.86 363.9L575.66 363.98L576.44 364.09L577.22 364.24L577.98 364.41L578.74 364.61L579.48 364.84L580.21 365.1L580.92 365.39L581.62 365.7L582.31 366.04L582.98 366.4L583.63 366.79L584.27 367.21L584.89 367.65L585.5 368.11L586.08 368.59L586.65 369.09L587.19 369.62L587.72 370.16L588.22 370.73L588.71 371.32L589.17 371.92L589.6 372.54L590.02 373.18L590.41 373.83L590.77 374.5L591.11 375.19L591.43 375.89L591.71 376.61L591.97 377.33L592.2 378.08L592.4 378.83L592.58 379.59L592.72 380.37L592.83 381.15L592.91 381.95L592.96 382.75L592.98 383.56L592.98 415.76L592.96 416.57L592.91 417.38L592.83 418.17L592.72 418.96L592.58 419.73L592.4 420.5L592.2 421.25L591.97 421.99L591.71 422.72L591.43 423.44L591.11 424.14L590.77 424.82L590.41 425.49L590.02 426.15L589.6 426.79L589.17 427.41L588.71 428.01L588.22 428.6L587.72 429.16L587.19 429.71L586.65 430.23L586.08 430.74L585.5 431.22L584.89 431.68L584.27 432.12L583.63 432.53L582.98 432.92L582.31 433.29L581.62 433.63L580.92 433.94L580.21 434.23L579.48 434.49L578.74 434.72L577.98 434.92L577.22 435.09L576.44 435.23L575.66 435.35L574.86 435.43L574.06 435.48L573.25 435.49L541.05 435.49L540.24 435.48L539.43 435.43L538.64 435.35L537.85 435.23L537.08 435.09L536.31 434.92L535.56 434.72L534.82 434.49L534.09 434.23L533.38 433.94L532.68 433.63L531.99 433.29L531.32 432.92L530.66 432.53L530.02 432.12L529.4 431.68L528.8 431.22L528.22 430.74L527.65 430.23L527.1 429.71L526.58 429.16L526.07 428.6L525.59 428.01L525.13 427.41L524.69 426.79L524.28 426.15L523.89 425.49L523.52 424.82L523.19 424.14L522.87 423.44L522.59 422.72L522.33 421.99L522.1 421.25L521.89 420.5L521.72 419.74L521.58 418.96L521.47 418.17L521.39 417.38L521.34 416.57L521.32 415.76L521.32 383.56L521.34 382.75L521.39 381.95L521.47 381.15L521.58 380.37L521.72 379.59L521.89 378.83L522.1 378.08L522.33 377.33L522.59 376.61L522.87 375.89L523.19 375.19L523.52 374.5L523.89 373.83L524.28 373.18L524.69 372.54L525.13 371.92L525.59 371.32L526.07 370.73L526.58 370.16L527.1 369.62L527.65 369.09L528.22 368.59L528.8 368.11L529.4 367.65L530.02 367.21L530.66 366.79L531.32 366.4L531.99 366.04L532.67 365.7L533.38 365.39L534.09 365.1L534.82 364.84L535.56 364.61L536.31 364.41L537.08 364.24L537.85 364.09L538.64 363.98L539.43 363.9L540.24 363.85L541.05 363.84L573.25 363.84L574.06 363.85L574.86 363.9ZM540.87 382.69L540.71 382.72L540.57 382.78L540.46 382.88L540.36 383.03L540.28 383.24L540.22 383.52L540.18 383.89L540.14 384.34L540.12 384.9L540.11 385.57L540.11 386.36L540.12 387.28L540.13 388.34L540.15 389.55L540.17 390.93L540.19 392.47L540.21 394.2L540.23 396.12L540.24 398.24L540.25 400.57L540.25 403.13L540.25 405.91L540.23 408.94L540.21 412.22L540.17 415.76L540.17 415.82L540.18 415.87L540.19 415.93L540.2 415.98L540.21 416.03L540.23 416.08L540.25 416.13L540.27 416.18L540.3 416.22L540.33 416.27L540.36 416.31L540.4 416.35L540.43 416.39L540.47 416.42L540.51 416.46L540.55 416.49L540.59 416.51L540.64 416.54L540.69 416.56L540.74 416.58L540.79 416.6L540.84 416.62L540.89 416.63L540.94 416.64L541 416.64L541.05 416.64L573.25 416.64L573.29 416.64L573.32 416.64L573.36 416.63L573.4 416.62L573.43 416.61L573.47 416.6L573.5 416.58L573.54 416.56L573.57 416.54L573.61 416.51L573.64 416.48L573.68 416.46L573.71 416.42L573.75 416.39L573.78 416.35L573.81 416.31L573.85 416.27L573.88 416.22L573.91 416.17L573.94 416.12L573.97 416.07L574.01 416.01L574.04 415.95L574.07 415.89L574.1 415.83L574.13 415.76L574.13 383.57L574.13 383.51L574.12 383.45L574.11 383.4L574.1 383.35L574.09 383.3L574.07 383.25L574.05 383.2L574.03 383.15L574 383.1L573.97 383.06L573.94 383.02L573.91 382.98L573.87 382.94L573.83 382.91L573.79 382.87L573.75 382.84L573.71 382.81L573.66 382.79L573.62 382.76L573.57 382.74L573.52 382.73L573.47 382.71L573.41 382.7L573.36 382.69L573.3 382.69L573.25 382.69L541.05 382.69L540.87 382.69Z" id="a1xEYqeRZI"></path><path d="M404.5 363.9L405.3 363.98L406.08 364.09L406.86 364.24L407.62 364.41L408.38 364.61L409.12 364.84L409.85 365.1L410.56 365.39L411.26 365.7L411.95 366.04L412.62 366.4L413.27 366.79L413.91 367.21L414.53 367.65L415.14 368.11L415.72 368.59L416.29 369.09L416.83 369.62L417.36 370.16L417.86 370.73L418.34 371.31L418.81 371.92L419.24 372.54L419.66 373.18L420.05 373.83L420.41 374.5L420.75 375.19L421.06 375.89L421.35 376.61L421.61 377.33L421.84 378.07L422.04 378.83L422.21 379.59L422.36 380.37L422.47 381.15L422.55 381.95L422.6 382.75L422.62 383.57L422.62 415.76L422.6 416.57L422.55 417.38L422.47 418.17L422.36 418.96L422.21 419.73L422.04 420.5L421.84 421.25L421.61 421.99L421.35 422.72L421.06 423.44L420.75 424.14L420.41 424.82L420.05 425.49L419.66 426.15L419.24 426.79L418.81 427.41L418.35 428.01L417.86 428.6L417.36 429.16L416.83 429.71L416.29 430.23L415.72 430.74L415.14 431.22L414.53 431.68L413.91 432.12L413.27 432.53L412.62 432.92L411.95 433.29L411.26 433.63L410.56 433.94L409.85 434.23L409.12 434.49L408.38 434.72L407.62 434.92L406.86 435.09L406.08 435.23L405.3 435.35L404.5 435.43L403.7 435.48L402.89 435.49L370.68 435.49L369.86 435.48L369.06 435.43L368.27 435.35L367.48 435.23L366.71 435.09L365.94 434.92L365.19 434.72L364.45 434.49L363.72 434.23L363.01 433.94L362.31 433.63L361.62 433.29L360.95 432.92L360.29 432.53L359.66 432.12L359.03 431.68L358.43 431.22L357.85 430.74L357.28 430.23L356.73 429.71L356.21 429.16L355.7 428.6L355.22 428.01L354.76 427.41L354.32 426.79L353.91 426.15L353.52 425.49L353.15 424.82L352.81 424.14L352.5 423.44L352.21 422.72L351.95 421.99L351.72 421.25L351.52 420.5L351.35 419.74L351.2 418.96L351.09 418.17L351.01 417.38L350.96 416.57L350.95 415.76L350.95 383.57L350.96 382.75L351.01 381.95L351.09 381.15L351.21 380.37L351.35 379.59L351.52 378.83L351.72 378.08L351.95 377.33L352.21 376.61L352.5 375.89L352.81 375.19L353.15 374.5L353.52 373.83L353.91 373.18L354.32 372.54L354.76 371.92L355.22 371.32L355.7 370.73L356.21 370.16L356.73 369.62L357.28 369.09L357.85 368.59L358.43 368.11L359.03 367.65L359.66 367.21L360.29 366.79L360.95 366.4L361.62 366.04L362.31 365.7L363.01 365.39L363.72 365.1L364.45 364.84L365.19 364.61L365.94 364.41L366.71 364.24L367.48 364.09L368.27 363.98L369.06 363.9L369.86 363.85L370.68 363.84L402.89 363.84L403.7 363.85L404.5 363.9ZM370.64 382.69L370.6 382.69L370.57 382.7L370.53 382.71L370.5 382.72L370.46 382.73L370.42 382.75L370.39 382.77L370.35 382.79L370.32 382.82L370.29 382.84L370.25 382.87L370.22 382.91L370.18 382.94L370.15 382.98L370.12 383.02L370.08 383.06L370.05 383.11L370.02 383.15L369.99 383.21L369.95 383.26L369.92 383.32L369.89 383.37L369.86 383.43L369.83 383.5L369.8 383.56L369.8 415.76L369.8 415.82L369.8 415.87L369.81 415.93L369.82 415.98L369.84 416.03L369.86 416.08L369.88 416.13L369.9 416.18L369.93 416.22L369.96 416.27L369.99 416.31L370.02 416.35L370.06 416.39L370.1 416.42L370.14 416.46L370.18 416.49L370.22 416.51L370.27 416.54L370.31 416.56L370.36 416.58L370.41 416.6L370.46 416.62L370.51 416.63L370.57 416.64L370.62 416.64L370.68 416.64L402.89 416.64L402.94 416.64L402.99 416.64L403.05 416.63L403.1 416.62L403.15 416.6L403.2 416.58L403.25 416.56L403.3 416.54L403.34 416.51L403.39 416.49L403.43 416.46L403.47 416.42L403.51 416.39L403.54 416.35L403.57 416.31L403.61 416.27L403.64 416.22L403.66 416.18L403.69 416.13L403.71 416.08L403.72 416.03L403.74 415.98L403.75 415.93L403.76 415.87L403.76 415.82L403.77 415.76L403.77 383.56L403.76 383.51L403.76 383.45L403.75 383.4L403.74 383.35L403.72 383.3L403.71 383.25L403.69 383.2L403.66 383.15L403.64 383.1L403.61 383.06L403.57 383.02L403.54 382.98L403.51 382.94L403.47 382.91L403.43 382.87L403.39 382.84L403.34 382.81L403.3 382.79L403.25 382.76L403.2 382.74L403.15 382.73L403.1 382.71L403.05 382.7L402.99 382.69L402.94 382.69L402.89 382.68L370.68 382.68L370.64 382.69Z" id="f2uSftaX3k"></path><path d="M570.27 448.12L571.27 448.22L572.25 448.36L573.23 448.54L574.19 448.76L575.13 449.01L576.06 449.3L576.97 449.62L577.87 449.98L578.75 450.37L579.61 450.8L580.45 451.26L581.27 451.75L582.07 452.27L582.85 452.81L583.6 453.39L584.34 454L585.05 454.63L585.73 455.29L586.39 455.97L587.02 456.68L587.63 457.41L588.2 458.17L588.75 458.95L589.27 459.75L589.76 460.57L590.22 461.41L590.64 462.27L591.03 463.15L591.39 464.05L591.72 464.96L592.01 465.89L592.26 466.83L592.48 467.79L592.65 468.76L592.8 469.75L592.9 470.74L592.96 471.75L592.98 472.77L592.98 572.77L592.96 573.88L592.89 574.98L592.78 576.07L592.62 577.14L592.43 578.2L592.19 579.25L591.92 580.28L591.6 581.29L591.25 582.29L590.86 583.27L590.43 584.23L589.96 585.17L589.46 586.08L588.93 586.98L588.36 587.85L587.77 588.71L587.14 589.53L586.48 590.33L585.78 591.11L585.07 591.85L584.32 592.57L583.55 593.26L582.74 593.92L581.92 594.55L581.07 595.15L580.2 595.72L579.3 596.25L578.38 596.75L577.44 597.22L576.48 597.65L575.51 598.04L574.51 598.39L573.5 598.71L572.47 598.99L571.42 599.22L570.36 599.42L569.28 599.57L568.2 599.68L567.1 599.75L565.98 599.77L548.31 599.77L547.2 599.75L546.1 599.68L545.02 599.57L543.94 599.42L542.88 599.22L541.84 598.99L540.81 598.71L539.79 598.39L538.8 598.04L537.82 597.65L536.86 597.22L535.92 596.75L535 596.25L534.11 595.72L533.23 595.15L532.38 594.55L531.56 593.92L530.76 593.26L529.98 592.57L529.24 591.85L528.52 591.11L527.83 590.33L527.17 589.53L526.54 588.71L525.94 587.85L525.37 586.98L524.84 586.08L524.34 585.17L523.87 584.23L523.44 583.27L523.05 582.29L522.7 581.29L522.38 580.28L522.1 579.25L521.87 578.2L521.67 577.14L521.52 576.07L521.41 574.98L521.34 573.88L521.32 572.77L521.32 472.77L521.34 471.75L521.4 470.74L521.5 469.75L521.64 468.76L521.82 467.79L522.04 466.83L522.29 465.89L522.58 464.96L522.91 464.05L523.27 463.15L523.66 462.27L524.08 461.41L524.54 460.57L525.03 459.75L525.55 458.95L526.1 458.17L526.68 457.41L527.28 456.68L527.91 455.97L528.57 455.29L529.26 454.63L529.97 454L530.7 453.39L531.46 452.81L532.23 452.27L533.03 451.75L533.86 451.26L534.7 450.8L535.56 450.37L536.43 449.98L537.33 449.62L538.24 449.3L539.17 449.01L540.12 448.76L541.07 448.54L542.05 448.36L543.03 448.22L544.03 448.12L545.03 448.06L546.05 448.04L568.25 448.04L569.26 448.06L570.27 448.12ZM545.81 466.89L545.57 466.91L545.33 466.93L545.1 466.96L544.87 467.01L544.64 467.06L544.42 467.12L544.19 467.19L543.98 467.26L543.76 467.35L543.56 467.44L543.35 467.54L543.15 467.65L542.96 467.77L542.77 467.89L542.58 468.02L542.4 468.16L542.23 468.3L542.06 468.45L541.89 468.61L541.74 468.77L541.59 468.94L541.44 469.12L541.31 469.3L541.18 469.48L541.05 469.67L540.94 469.87L540.83 470.07L540.73 470.27L540.63 470.48L540.55 470.69L540.47 470.91L540.4 471.13L540.34 471.36L540.29 471.58L540.25 471.81L540.21 472.05L540.19 472.29L540.17 472.53L540.17 472.77L540.17 572.77L540.18 573.1L540.2 573.43L540.23 573.76L540.28 574.09L540.34 574.41L540.41 574.72L540.49 575.03L540.59 575.34L540.69 575.64L540.81 575.94L540.94 576.23L541.08 576.51L541.23 576.79L541.39 577.06L541.56 577.32L541.74 577.58L541.93 577.83L542.13 578.07L542.34 578.3L542.56 578.53L542.78 578.75L543.02 578.96L543.26 579.16L543.51 579.35L543.77 579.53L544.03 579.7L544.3 579.86L544.58 580.01L544.86 580.15L545.15 580.28L545.44 580.4L545.74 580.5L546.05 580.6L546.36 580.68L546.68 580.76L547 580.81L547.32 580.86L547.65 580.89L547.98 580.91L548.31 580.92L565.98 580.92L566.21 580.92L566.43 580.9L566.65 580.88L566.87 580.84L567.1 580.79L567.31 580.74L567.53 580.67L567.75 580.6L567.96 580.51L568.18 580.41L568.39 580.3L568.61 580.19L568.82 580.06L569.03 579.92L569.24 579.77L569.45 579.62L569.65 579.45L569.86 579.27L570.06 579.08L570.27 578.88L570.47 578.67L570.67 578.45L570.88 578.22L571.07 577.98L571.27 577.74L571.47 577.48L571.67 577.21L571.86 576.92L572.06 576.63L572.25 576.33L572.44 576.02L572.64 575.7L572.83 575.37L573.01 575.03L573.2 574.68L573.39 574.31L573.58 573.94L573.76 573.56L573.94 573.17L574.13 572.77L574.13 472.77L574.12 472.53L574.11 472.29L574.08 472.05L574.05 471.81L574.01 471.58L573.96 471.36L573.89 471.13L573.83 470.91L573.75 470.69L573.66 470.48L573.57 470.27L573.47 470.07L573.36 469.87L573.24 469.67L573.12 469.48L572.99 469.3L572.85 469.12L572.71 468.94L572.56 468.77L572.4 468.61L572.24 468.45L572.07 468.3L571.9 468.16L571.72 468.02L571.53 467.89L571.34 467.77L571.15 467.65L570.95 467.54L570.74 467.44L570.53 467.35L570.32 467.26L570.1 467.19L569.88 467.12L569.66 467.06L569.43 467.01L569.2 466.96L568.96 466.93L568.73 466.91L568.49 466.89L568.25 466.89L546.05 466.89L545.81 466.89Z" id="c7n2NWHN1B"></path><path d="M243.31 273.78C231.82 269.56 223.51 266.51 223.51 255.86C223.51 246.16 229.96 241.24 242.67 241.24C256.16 241.24 259.79 247.18 264.54 247.18C269.72 247.18 272.58 241.69 272.58 237.9C272.58 230.04 259.77 226.15 248.32 225.12C248.32 224.41 248.32 218.75 248.32 218.04C248.32 213.12 244.31 209.11 239.39 209.11C234.46 209.11 230.46 213.12 230.46 218.04C230.46 218.86 230.46 225.43 230.46 226.25C214.8 229.97 206.2 240.78 206.2 256.8C206.2 278.74 222.35 284.81 235.33 289.69C248.03 294.46 258.07 298.24 258.07 312.75C258.07 324.73 251.42 330.81 238.29 330.81C219.08 330.81 218.9 317.83 211.58 317.83C207.04 317.83 203.38 322.91 203.38 327.12C203.38 334.55 214.44 344.31 230.46 346.84C230.46 347.53 230.46 353 230.46 353.69C230.46 358.61 234.46 362.62 239.39 362.62C244.31 362.62 248.32 358.61 248.32 353.69C248.32 352.98 248.32 347.36 248.32 346.66C265.54 343.42 275.39 330.77 275.39 311.81C275.39 285.57 257.6 279.04 243.31 273.78C243.31 273.78 243.31 273.78 243.31 273.78Z" id="bvfN0jx5K"></path><path d="M489.17 363.9L489.96 363.98L490.75 364.09L491.52 364.23L492.28 364.41L493.03 364.61L493.77 364.84L494.5 365.1L495.21 365.38L495.91 365.69L496.59 366.03L497.26 366.4L497.92 366.79L498.56 367.2L499.18 367.63L499.78 368.09L500.37 368.58L500.93 369.08L501.48 369.6L502.01 370.15L502.51 370.71L503 371.3L503.46 371.9L503.9 372.52L504.31 373.16L504.7 373.82L505.07 374.49L505.41 375.17L505.72 375.87L506.01 376.59L506.27 377.32L506.5 378.06L506.7 378.81L506.88 379.58L507.02 380.36L507.14 381.15L507.22 381.94L507.27 382.75L507.28 383.56L507.28 415.76L507.27 416.38L507.24 417L507.2 417.62L507.13 418.23L507.04 418.83L506.94 419.43L506.82 420.02L506.68 420.6L506.53 421.18L506.35 421.75L506.17 422.31L505.96 422.87L505.74 423.41L505.5 423.95L505.25 424.48L504.98 425.01L504.7 425.52L504.4 426.02L504.09 426.51L503.76 427L503.42 427.47L503.07 427.93L502.7 428.39L502.33 428.83L501.93 429.26L501.53 429.68L501.11 430.08L500.69 430.47L500.25 430.86L499.8 431.22L499.33 431.58L498.86 431.92L498.38 432.25L497.89 432.56L497.39 432.86L496.87 433.15L496.35 433.42L495.82 433.67L495.29 433.91L494.74 434.13L494.57 434.2L494.4 434.26L494.24 434.33L494.07 434.39L493.9 434.45L493.73 434.5L493.55 434.56L493.38 434.61L493.21 434.67L493.04 434.72L492.86 434.77L492.69 434.82L492.51 434.86L492.34 434.91L492.16 434.95L491.98 434.99L491.81 435.03L491.63 435.07L491.45 435.11L491.27 435.14L491.09 435.18L490.91 435.21L490.73 435.24L490.55 435.27L490.36 435.3L490.18 435.32L490 435.34L489.81 435.37L489.63 435.39L489.44 435.4L489.26 435.42L489.07 435.44L488.88 435.45L488.7 435.46L488.51 435.47L488.32 435.48L488.13 435.48L487.94 435.49L487.75 435.49L487.56 435.49L455.35 435.49L454.54 435.48L453.74 435.43L452.94 435.35L452.16 435.23L451.38 435.09L450.62 434.92L449.86 434.72L449.12 434.49L448.39 434.23L447.68 433.94L446.98 433.63L446.29 433.29L445.62 432.92L444.97 432.53L444.33 432.12L443.71 431.68L443.1 431.22L442.52 430.74L441.95 430.23L441.41 429.71L440.88 429.16L440.38 428.6L439.9 428.01L439.43 427.41L439 426.79L438.58 426.15L438.19 425.49L437.83 424.82L437.49 424.14L437.18 423.44L436.89 422.72L436.63 421.99L436.4 421.25L436.2 420.5L436.03 419.74L435.88 418.96L435.77 418.17L435.69 417.38L435.64 416.57L435.62 415.76L435.62 383.56L435.64 382.75L435.69 381.95L435.77 381.15L435.88 380.37L436.03 379.59L436.2 378.83L436.4 378.08L436.63 377.33L436.89 376.61L437.18 375.89L437.49 375.19L437.83 374.5L438.19 373.83L438.58 373.18L439 372.54L439.43 371.92L439.89 371.32L440.38 370.73L440.88 370.16L441.41 369.62L441.95 369.09L442.52 368.59L443.1 368.11L443.71 367.65L444.33 367.21L444.97 366.79L445.62 366.4L446.29 366.04L446.98 365.7L447.68 365.39L448.39 365.1L449.12 364.84L449.86 364.61L450.62 364.41L451.38 364.24L452.16 364.09L452.94 363.98L453.74 363.9L454.54 363.85L455.35 363.84L487.56 363.84L488.37 363.85L489.17 363.9ZM456.68 382.64L456.12 382.66L455.67 382.69L455.31 382.74L455.02 382.8L454.81 382.88L454.66 382.97L454.57 383.09L454.51 383.22L454.48 383.38L454.47 383.57L454.47 415.76L454.48 415.82L454.48 415.87L454.49 415.93L454.5 415.98L454.52 416.03L454.53 416.08L454.55 416.13L454.58 416.18L454.6 416.22L454.63 416.27L454.67 416.31L454.7 416.35L454.73 416.39L454.77 416.42L454.81 416.46L454.85 416.49L454.9 416.51L454.94 416.54L454.99 416.56L455.04 416.58L455.09 416.6L455.14 416.62L455.19 416.63L455.25 416.64L455.3 416.64L455.35 416.64L487.56 416.64L487.6 416.64L487.64 416.64L487.67 416.63L487.71 416.62L487.74 416.61L487.78 416.6L487.81 416.58L487.85 416.56L487.88 416.54L487.92 416.51L487.95 416.48L487.99 416.46L488.02 416.42L488.05 416.39L488.09 416.35L488.12 416.31L488.15 416.27L488.18 416.22L488.21 416.17L488.25 416.12L488.28 416.07L488.31 416.01L488.34 415.95L488.37 415.89L488.4 415.83L488.43 415.76L488.43 383.57L488.43 383.51L488.42 383.45L488.42 383.4L488.4 383.35L488.39 383.3L488.37 383.25L488.35 383.2L488.33 383.15L488.3 383.1L488.28 383.06L488.24 383.02L488.21 382.98L488.18 382.94L488.14 382.91L488.1 382.87L488.06 382.84L488.02 382.81L487.97 382.79L487.92 382.76L487.88 382.74L487.83 382.73L487.78 382.71L487.73 382.7L487.67 382.69L487.62 382.69L487.56 382.69L484.02 382.72L480.73 382.75L477.7 382.76L474.91 382.76L472.35 382.76L470.01 382.75L467.89 382.74L465.97 382.72L464.24 382.7L462.7 382.68L461.32 382.66L460.11 382.64L459.05 382.63L458.13 382.62L457.34 382.63L456.68 382.64Z" id="c13yADXsc"></path><path d="M433.16 147.65C438.36 147.65 442.59 143.44 442.59 138.23C442.59 133.02 438.36 128.8 433.16 128.8C430.79 128.8 411.85 128.8 409.48 128.8C404.28 128.8 400.06 133.02 400.06 138.23C400.06 143.44 404.28 147.65 409.48 147.65C414.22 147.65 430.79 147.65 433.16 147.65Z" id="bltQEOhiw"></path><path d="M371.78 147.65C376.99 147.65 381.21 143.44 381.21 138.23C381.21 133.02 376.99 128.8 371.78 128.8C355.07 128.8 221.35 128.8 204.64 128.8C199.44 128.8 195.21 133.02 195.21 138.23C195.21 143.44 199.44 147.65 204.64 147.65C238.07 147.65 355.07 147.65 371.78 147.65Z" id="b1zNkI0gQM"></path><path d="M244.02 185.02C244.02 179.81 239.8 175.59 234.6 175.59C231.6 175.59 207.63 175.59 204.64 175.59C199.44 175.59 195.21 179.81 195.21 185.02C195.21 190.22 199.44 194.44 204.64 194.44C206.63 194.44 216.62 194.44 234.6 194.44C240.88 191.62 244.02 188.48 244.02 185.02Z" id="a6ctt3wVe"></path><path d="M433.16 175.59C417.08 175.59 288.39 175.59 272.3 175.59C267.1 175.59 262.87 179.81 262.87 185.02C262.87 190.22 267.1 194.44 272.3 194.44C288.38 194.44 417.07 194.44 433.16 194.44C438.36 194.44 442.59 190.22 442.59 185.02C442.59 179.81 438.36 175.59 433.16 175.59Z" id="cK9EtQzA1"></path><path d="M118.87 526.69C121.4 525.29 127.21 524.88 132.53 527.62C133.94 528.34 135.55 529.17 137.63 529.17C146.93 529.17 154.28 511.89 132.07 508.07C132.07 508.01 132.07 507.54 132.07 507.48C132.07 502.21 127.79 497.93 122.52 497.93C117.26 497.93 112.97 502.21 112.97 507.48C112.97 507.66 112.97 509.11 112.97 509.29C103.67 512.67 98.4 520.34 98.4 530.76C98.4 546.83 110.08 551.22 118.61 554.42C126.75 557.48 129.56 558.82 129.56 564.35C129.56 567.81 128.63 571.01 121.87 571.01C112.01 571.01 113.19 563.22 105.82 563.22C100.61 563.22 96.71 568.38 96.71 572.98C96.71 579.51 103.5 585.71 112.97 588.22C112.97 588.3 112.97 588.87 112.97 588.94C112.97 594.21 117.26 598.49 122.52 598.49C127.79 598.49 132.07 594.21 132.07 588.94C132.07 588.84 132.07 588.07 132.07 587.97C142.32 584.68 148.33 575.86 148.33 563.79C148.34 535.15 117.18 539.45 117.18 530.19C117.18 527.82 118.05 527.14 118.87 526.69Z" id="b35S9dzjMM"></path><path d="M454.16 472.21L446.56 472.77L436.48 474.24L426.35 478.83L419.49 483.3L412.59 488.46L407.94 493.75L404.4 498.8C402.82 501.54 401.94 503.06 401.77 503.36C399.72 507.62 398.59 509.98 398.37 510.45C398.09 511.73 397.93 512.45 397.9 512.6C403.29 500.01 415.79 491.19 430.35 491.19C437.73 491.19 444.56 493.45 450.23 497.32C450.83 497.82 451.47 498.29 452.14 498.71C452.28 498.83 452.42 498.93 452.57 499.04C452.57 499.04 452.58 499.01 452.58 499.01C455.12 500.58 458 501.64 461.09 502.06C462.02 502.18 462.98 502.25 463.96 502.25C470.59 502.25 476.52 499.25 480.47 494.55C483.19 491.3 484.99 487.25 485.41 482.78C485.28 482.6 484.6 481.67 483.4 479.99C483 479.75 481.02 478.52 477.46 476.31C476.73 476.11 473.09 475.12 466.55 473.34L454.16 472.21Z" id="ayu5eCbIH"></path><path d="M454.16 472.21L446.56 472.77L436.48 474.24L426.35 478.83L419.49 483.3L412.59 488.46L407.94 493.75L404.4 498.8C402.82 501.54 401.94 503.06 401.77 503.36C399.72 507.62 398.59 509.98 398.37 510.45C398.09 511.73 397.93 512.45 397.9 512.6C403.29 500.01 415.79 491.19 430.35 491.19C437.73 491.19 444.56 493.45 450.23 497.32C450.83 497.82 451.47 498.29 452.14 498.71C452.28 498.83 452.42 498.93 452.57 499.04C452.57 499.04 452.58 499.01 452.58 499.01C455.12 500.58 458 501.64 461.09 502.06C462.02 502.18 462.98 502.25 463.96 502.25C470.59 502.25 476.52 499.25 480.47 494.55C483.19 491.3 484.99 487.25 485.41 482.78C485.28 482.6 484.6 481.67 483.4 479.99C483 479.75 481.02 478.52 477.46 476.31C476.73 476.11 473.09 475.12 466.55 473.34L454.16 472.21Z" id="apQqJ6yfA"></path><path d="M454.16 472.21L446.56 472.77L436.48 474.24L426.35 478.83L419.49 483.3L412.59 488.46L407.94 493.75L404.4 498.8C402.82 501.54 401.94 503.06 401.77 503.36C399.72 507.62 398.59 509.98 398.37 510.45C398.09 511.73 397.93 512.45 397.9 512.6C403.29 500.01 415.79 491.19 430.35 491.19C437.73 491.19 444.56 493.45 450.23 497.32C450.83 497.82 451.47 498.29 452.14 498.71C452.28 498.83 452.42 498.93 452.57 499.04C452.57 499.04 452.58 499.01 452.58 499.01C455.12 500.58 458 501.64 461.09 502.06C462.02 502.18 462.98 502.25 463.96 502.25C470.59 502.25 476.52 499.25 480.47 494.55C483.19 491.3 484.99 487.25 485.41 482.78C485.28 482.6 484.6 481.67 483.4 479.99C483 479.75 481.02 478.52 477.46 476.31C476.73 476.11 473.09 475.12 466.55 473.34L454.16 472.21Z" id="c1G8hFHPZy"></path><path d="M454.16 472.21L446.56 472.77L436.48 474.24L426.35 478.83L419.49 483.3L412.59 488.46L407.94 493.75L404.4 498.8C402.82 501.54 401.94 503.06 401.77 503.36C399.72 507.62 398.59 509.98 398.37 510.45C398.09 511.73 397.93 512.45 397.9 512.6C403.29 500.01 415.79 491.19 430.35 491.19C437.73 491.19 444.56 493.45 450.23 497.32C450.83 497.82 451.47 498.29 452.14 498.71C452.28 498.83 452.42 498.93 452.57 499.04C452.57 499.04 452.58 499.01 452.58 499.01C455.12 500.58 458 501.64 461.09 502.06C462.02 502.18 462.98 502.25 463.96 502.25C470.59 502.25 476.52 499.25 480.47 494.55C483.19 491.3 484.99 487.25 485.41 482.78C485.28 482.6 484.6 481.67 483.4 479.99C483 479.75 481.02 478.52 477.46 476.31C476.73 476.11 473.09 475.12 466.55 473.34L454.16 472.21Z" id="ap1oaAFWI"></path><path d="M432.56 450.18C432.18 450.34 430.27 451.15 426.83 452.62L415.09 457.28L406.12 464.82L400.93 469.54L396.57 476.24L392.21 483.25L388.84 492.97L387.5 499.95L387.01 504.26L387.01 512.34L387.5 517.89L389.46 526.77L392.26 533.88L394.39 538.19L397.14 542.1L399.5 545.29C401.01 546.89 401.85 547.78 402.02 547.95C402.49 548.33 402.75 548.55 402.8 548.59C402.89 548.63 402.95 548.66 402.96 548.66C398.03 542.6 395.07 534.86 395.07 526.45C395.07 525.49 395.11 524.56 395.18 523.62C395.5 519.73 396.44 516.02 397.9 512.6C404.84 492.96 421.89 478.09 442.82 474.29C446.25 473.66 449.79 473.34 453.41 473.34C461.01 473.34 468.27 474.78 474.93 477.4C478.61 478.85 482.13 480.66 485.41 482.78C485.47 482.11 485.52 481.41 485.52 480.71C485.52 473.87 482.4 467.66 477.42 463.71C465.29 456.37 455.69 451.86 448.63 450.18C448.42 450.15 447.3 450.01 445.31 449.77C444.46 449.8 440.21 449.93 432.56 450.18Z" id="b5yt1TGIMC"></path><path d="M432.56 450.18C432.18 450.34 430.27 451.15 426.83 452.62L415.09 457.28L406.12 464.82L400.93 469.54L396.57 476.24L392.21 483.25L388.84 492.97L387.5 499.95L387.01 504.26L387.01 512.34L387.5 517.89L389.46 526.77L392.26 533.88L394.39 538.19L397.14 542.1L399.5 545.29C401.01 546.89 401.85 547.78 402.02 547.95C402.49 548.33 402.75 548.55 402.8 548.59C402.89 548.63 402.95 548.66 402.96 548.66C398.03 542.6 395.07 534.86 395.07 526.45C395.07 525.49 395.11 524.56 395.18 523.62C395.5 519.73 396.44 516.02 397.9 512.6C404.84 492.96 421.89 478.09 442.82 474.29C446.25 473.66 449.79 473.34 453.41 473.34C461.01 473.34 468.27 474.78 474.93 477.4C478.61 478.85 482.13 480.66 485.41 482.78C485.47 482.11 485.52 481.41 485.52 480.71C485.52 473.87 482.4 467.66 477.42 463.71C465.29 456.37 455.69 451.86 448.63 450.18C448.42 450.15 447.3 450.01 445.31 449.77C444.46 449.8 440.21 449.93 432.56 450.18Z" id="b602ESq2nA"></path><path d="M432.56 450.18C432.18 450.34 430.27 451.15 426.83 452.62L415.09 457.28L406.12 464.82L400.93 469.54L396.57 476.24L392.21 483.25L388.84 492.97L387.5 499.95L387.01 504.26L387.01 512.34L387.5 517.89L389.46 526.77L392.26 533.88L394.39 538.19L397.14 542.1L399.5 545.29C401.01 546.89 401.85 547.78 402.02 547.95C402.49 548.33 402.75 548.55 402.8 548.59C402.89 548.63 402.95 548.66 402.96 548.66C398.03 542.6 395.07 534.86 395.07 526.45C395.07 525.49 395.11 524.56 395.18 523.62C395.5 519.73 396.44 516.02 397.9 512.6C404.84 492.96 421.89 478.09 442.82 474.29C446.25 473.66 449.79 473.34 453.41 473.34C461.01 473.34 468.27 474.78 474.93 477.4C478.61 478.85 482.13 480.66 485.41 482.78C485.47 482.11 485.52 481.41 485.52 480.71C485.52 473.87 482.4 467.66 477.42 463.71C465.29 456.37 455.69 451.86 448.63 450.18C448.42 450.15 447.3 450.01 445.31 449.77C444.46 449.8 440.21 449.93 432.56 450.18Z" id="aQk0IjxFI"></path><path d="M432.56 450.18C432.18 450.34 430.27 451.15 426.83 452.62L415.09 457.28L406.12 464.82L400.93 469.54L396.57 476.24L392.21 483.25L388.84 492.97L387.5 499.95L387.01 504.26L387.01 512.34L387.5 517.89L389.46 526.77L392.26 533.88L394.39 538.19L397.14 542.1L399.5 545.29C401.01 546.89 401.85 547.78 402.02 547.95C402.49 548.33 402.75 548.55 402.8 548.59C402.89 548.63 402.95 548.66 402.96 548.66C398.03 542.6 395.07 534.86 395.07 526.45C395.07 525.49 395.11 524.56 395.18 523.62C395.5 519.73 396.44 516.02 397.9 512.6C404.84 492.96 421.89 478.09 442.82 474.29C446.25 473.66 449.79 473.34 453.41 473.34C461.01 473.34 468.27 474.78 474.93 477.4C478.61 478.85 482.13 480.66 485.41 482.78C485.47 482.11 485.52 481.41 485.52 480.71C485.52 473.87 482.4 467.66 477.42 463.71C465.29 456.37 455.69 451.86 448.63 450.18C448.42 450.15 447.3 450.01 445.31 449.77C444.46 449.8 440.21 449.93 432.56 450.18Z" id="c5GgHcMRLS"></path><path d="M444.34 449.27C439.81 448.46 435.15 448.03 430.4 448.03C411.9 448.03 394.9 454.43 381.49 465.13C377.64 468.2 374.09 471.62 370.87 475.35C370.84 475.39 370.71 475.59 370.47 475.95C370.4 476.06 370.06 476.64 369.44 477.67C369.37 477.81 368.99 478.51 368.32 479.77L365.79 486.12L364.18 491.61L363.13 499.75L363.13 507.92L364.33 517.84L368.02 528.52L374 538.13L381.05 546.54L389.12 552.96L395.56 556.95L405.05 560.92L415.45 562.83L421.79 563.18C425.49 562.97 427.55 562.85 427.96 562.83C430.55 562.38 431.99 562.13 432.28 562.08C433.19 561.76 433.7 561.58 433.79 561.54C432.66 561.65 431.51 561.7 430.35 561.7C423.1 561.7 416.36 559.51 410.75 555.76C407.81 553.79 405.18 551.4 402.96 548.66C399.81 545.22 397.07 541.42 394.79 537.3C390.15 528.89 387.5 519.23 387.5 508.94C387.5 489.06 397.37 471.49 412.48 460.84C422.06 454.1 433.74 450.13 446.34 450.13C447.11 450.13 447.88 450.15 448.63 450.18C447.22 449.83 445.78 449.53 444.34 449.27" id="b9J2cZN4m"></path><path d="M444.34 449.27C439.81 448.46 435.15 448.03 430.4 448.03C411.9 448.03 394.9 454.43 381.49 465.13C377.64 468.2 374.09 471.62 370.87 475.35C370.84 475.39 370.71 475.59 370.47 475.95C370.4 476.06 370.06 476.64 369.44 477.67C369.37 477.81 368.99 478.51 368.32 479.77L365.79 486.12L364.18 491.61L363.13 499.75L363.13 507.92L364.33 517.84L368.02 528.52L374 538.13L381.05 546.54L389.12 552.96L395.56 556.95L405.05 560.92L415.45 562.83L421.79 563.18C425.49 562.97 427.55 562.85 427.96 562.83C430.55 562.38 431.99 562.13 432.28 562.08C433.19 561.76 433.7 561.58 433.79 561.54C432.66 561.65 431.51 561.7 430.35 561.7C423.1 561.7 416.36 559.51 410.75 555.76C407.81 553.79 405.18 551.4 402.96 548.66C399.81 545.22 397.07 541.42 394.79 537.3C390.15 528.89 387.5 519.23 387.5 508.94C387.5 489.06 397.37 471.49 412.48 460.84C422.06 454.1 433.74 450.13 446.34 450.13C447.11 450.13 447.88 450.15 448.63 450.18C447.22 449.83 445.78 449.53 444.34 449.27" id="b4DRx9pcd2"></path><path d="M444.34 449.27C439.81 448.46 435.15 448.03 430.4 448.03C411.9 448.03 394.9 454.43 381.49 465.13C377.64 468.2 374.09 471.62 370.87 475.35C370.84 475.39 370.71 475.59 370.47 475.95C370.4 476.06 370.06 476.64 369.44 477.67C369.37 477.81 368.99 478.51 368.32 479.77L365.79 486.12L364.18 491.61L363.13 499.75L363.13 507.92L364.33 517.84L368.02 528.52L374 538.13L381.05 546.54L389.12 552.96L395.56 556.95L405.05 560.92L415.45 562.83L421.79 563.18C425.49 562.97 427.55 562.85 427.96 562.83C430.55 562.38 431.99 562.13 432.28 562.08C433.19 561.76 433.7 561.58 433.79 561.54C432.66 561.65 431.51 561.7 430.35 561.7C423.1 561.7 416.36 559.51 410.75 555.76C407.81 553.79 405.18 551.4 402.96 548.66C399.81 545.22 397.07 541.42 394.79 537.3C390.15 528.89 387.5 519.23 387.5 508.94C387.5 489.06 397.37 471.49 412.48 460.84C422.06 454.1 433.74 450.13 446.34 450.13C447.11 450.13 447.88 450.15 448.63 450.18C447.22 449.83 445.78 449.53 444.34 449.27" id="a3ONkoTU9V"></path><path d="M444.34 449.27C439.81 448.46 435.15 448.03 430.4 448.03C411.9 448.03 394.9 454.43 381.49 465.13C377.64 468.2 374.09 471.62 370.87 475.35C370.84 475.39 370.71 475.59 370.47 475.95C370.4 476.06 370.06 476.64 369.44 477.67C369.37 477.81 368.99 478.51 368.32 479.77L365.79 486.12L364.18 491.61L363.13 499.75L363.13 507.92L364.33 517.84L368.02 528.52L374 538.13L381.05 546.54L389.12 552.96L395.56 556.95L405.05 560.92L415.45 562.83L421.79 563.18C425.49 562.97 427.55 562.85 427.96 562.83C430.55 562.38 431.99 562.13 432.28 562.08C433.19 561.76 433.7 561.58 433.79 561.54C432.66 561.65 431.51 561.7 430.35 561.7C423.1 561.7 416.36 559.51 410.75 555.76C407.81 553.79 405.18 551.4 402.96 548.66C399.81 545.22 397.07 541.42 394.79 537.3C390.15 528.89 387.5 519.23 387.5 508.94C387.5 489.06 397.37 471.49 412.48 460.84C422.06 454.1 433.74 450.13 446.34 450.13C447.11 450.13 447.88 450.15 448.63 450.18C447.22 449.83 445.78 449.53 444.34 449.27" id="cczG4vwnc"></path><path d="M449.51 557.34C450.17 556.56 450.82 555.79 451.43 554.98C450.91 555.28 450.38 555.56 449.85 555.85C444.88 558.49 439.48 560.42 433.79 561.54C430.1 562.27 426.28 562.65 422.36 562.65C414.77 562.65 407.51 561.22 400.84 558.6C378.99 550.01 363.52 528.73 363.52 503.84C363.52 493.51 366.2 483.8 370.87 475.35C359.07 489.08 351.92 506.93 351.92 526.45C351.92 535.66 353.52 544.49 356.44 552.7C356.44 552.71 356.46 552.74 356.49 552.8C356.5 552.82 356.54 552.89 356.61 553.03L356.98 553.68L359.02 557L365.58 563.8L373 569.27L381.15 573.75L393.27 577.63L404.46 578.77L411.88 578.32L418.94 576.95L424.56 575.31L433.64 571.28L442.57 565.14L447.49 561.08L451.14 556.88L452.12 555.49C451.7 555.19 451.47 555.02 451.43 554.98C450.5 555.82 449.98 556.29 449.88 556.39C449.66 556.96 449.53 557.27 449.51 557.34Z" id="b1nNOlhAQw"></path><path d="M449.51 557.34C450.17 556.56 450.82 555.79 451.43 554.98C450.91 555.28 450.38 555.56 449.85 555.85C444.88 558.49 439.48 560.42 433.79 561.54C430.1 562.27 426.28 562.65 422.36 562.65C414.77 562.65 407.51 561.22 400.84 558.6C378.99 550.01 363.52 528.73 363.52 503.84C363.52 493.51 366.2 483.8 370.87 475.35C359.07 489.08 351.92 506.93 351.92 526.45C351.92 535.66 353.52 544.49 356.44 552.7C356.44 552.71 356.46 552.74 356.49 552.8C356.5 552.82 356.54 552.89 356.61 553.03L356.98 553.68L359.02 557L365.58 563.8L373 569.27L381.15 573.75L393.27 577.63L404.46 578.77L411.88 578.32L418.94 576.95L424.56 575.31L433.64 571.28L442.57 565.14L447.49 561.08L451.14 556.88L452.12 555.49C451.7 555.19 451.47 555.02 451.43 554.98C450.5 555.82 449.98 556.29 449.88 556.39C449.66 556.96 449.53 557.27 449.51 557.34Z" id="aFyJ4sJb"></path><path d="M449.51 557.34C450.17 556.56 450.82 555.79 451.43 554.98C450.91 555.28 450.38 555.56 449.85 555.85C444.88 558.49 439.48 560.42 433.79 561.54C430.1 562.27 426.28 562.65 422.36 562.65C414.77 562.65 407.51 561.22 400.84 558.6C378.99 550.01 363.52 528.73 363.52 503.84C363.52 493.51 366.2 483.8 370.87 475.35C359.07 489.08 351.92 506.93 351.92 526.45C351.92 535.66 353.52 544.49 356.44 552.7C356.44 552.71 356.46 552.74 356.49 552.8C356.5 552.82 356.54 552.89 356.61 553.03L356.98 553.68L359.02 557L365.58 563.8L373 569.27L381.15 573.75L393.27 577.63L404.46 578.77L411.88 578.32L418.94 576.95L424.56 575.31L433.64 571.28L442.57 565.14L447.49 561.08L451.14 556.88L452.12 555.49C451.7 555.19 451.47 555.02 451.43 554.98C450.5 555.82 449.98 556.29 449.88 556.39C449.66 556.96 449.53 557.27 449.51 557.34Z" id="bghebPQhR"></path><path d="M449.51 557.34C450.17 556.56 450.82 555.79 451.43 554.98C450.91 555.28 450.38 555.56 449.85 555.85C444.88 558.49 439.48 560.42 433.79 561.54C430.1 562.27 426.28 562.65 422.36 562.65C414.77 562.65 407.51 561.22 400.84 558.6C378.99 550.01 363.52 528.73 363.52 503.84C363.52 493.51 366.2 483.8 370.87 475.35C359.07 489.08 351.92 506.93 351.92 526.45C351.92 535.66 353.52 544.49 356.44 552.7C356.44 552.71 356.46 552.74 356.49 552.8C356.5 552.82 356.54 552.89 356.61 553.03L356.98 553.68L359.02 557L365.58 563.8L373 569.27L381.15 573.75L393.27 577.63L404.46 578.77L411.88 578.32L418.94 576.95L424.56 575.31L433.64 571.28L442.57 565.14L447.49 561.08L451.14 556.88L452.12 555.49C451.7 555.19 451.47 555.02 451.43 554.98C450.5 555.82 449.98 556.29 449.88 556.39C449.66 556.96 449.53 557.27 449.51 557.34Z" id="a1F0pLaU1W"></path><path d="M451.43 554.98C447.82 559.68 443.5 563.82 438.64 567.24C431.81 572.06 423.91 575.45 415.36 577.01C411.94 577.63 408.39 577.96 404.78 577.96C384.75 577.96 367.07 567.97 356.44 552.7C367.24 583.09 396.27 604.86 430.38 604.86C446.74 604.86 461.89 599.87 474.45 591.33C474.31 591.09 473.65 589.92 472.46 587.81C471.65 586.36 467.58 579.12 460.24 566.09C455.96 558.47 453.66 554.39 453.35 553.84C452.71 554.23 452.07 554.61 451.43 554.98Z" id="aiXcuhQeJ"></path><path d="M451.43 554.98C447.82 559.68 443.5 563.82 438.64 567.24C431.81 572.06 423.91 575.45 415.36 577.01C411.94 577.63 408.39 577.96 404.78 577.96C384.75 577.96 367.07 567.97 356.44 552.7C367.24 583.09 396.27 604.86 430.38 604.86C446.74 604.86 461.89 599.87 474.45 591.33C474.31 591.09 473.65 589.92 472.46 587.81C471.65 586.36 467.58 579.12 460.24 566.09C455.96 558.47 453.66 554.39 453.35 553.84C452.71 554.23 452.07 554.61 451.43 554.98Z" id="f3v0jyBmcm"></path><path d="M451.43 554.98C447.82 559.68 443.5 563.82 438.64 567.24C431.81 572.06 423.91 575.45 415.36 577.01C411.94 577.63 408.39 577.96 404.78 577.96C384.75 577.96 367.07 567.97 356.44 552.7C367.24 583.09 396.27 604.86 430.38 604.86C446.74 604.86 461.89 599.87 474.45 591.33C474.31 591.09 473.65 589.92 472.46 587.81C471.65 586.36 467.58 579.12 460.24 566.09C455.96 558.47 453.66 554.39 453.35 553.84C452.71 554.23 452.07 554.61 451.43 554.98Z" id="b2zX3cmqrm"></path><path d="M451.43 554.98C447.82 559.68 443.5 563.82 438.64 567.24C431.81 572.06 423.91 575.45 415.36 577.01C411.94 577.63 408.39 577.96 404.78 577.96C384.75 577.96 367.07 567.97 356.44 552.7C367.24 583.09 396.27 604.86 430.38 604.86C446.74 604.86 461.89 599.87 474.45 591.33C474.31 591.09 473.65 589.92 472.46 587.81C471.65 586.36 467.58 579.12 460.24 566.09C455.96 558.47 453.66 554.39 453.35 553.84C452.71 554.23 452.07 554.61 451.43 554.98Z" id="aHH7SssJ"></path><path d="M497.27 556.93C497.27 538.67 482.46 523.89 464.2 523.89C461.44 523.89 458.75 524.22 456.19 524.86C446.93 527.16 439.22 533.36 434.89 541.61C434.89 541.61 434.89 541.62 434.89 541.62C435.43 541.62 439.7 541.62 440.23 541.62C442.15 541.84 451.71 542.99 468.93 545.05C469.19 545.66 470.51 548.72 472.89 554.21C475.56 564.64 477.04 570.43 477.34 571.58C472.33 581.49 469.55 586.98 468.99 588.09C467.8 592.78 467.14 595.41 467.01 595.92C475.49 591.47 483.06 585.53 489.35 578.43C489.35 578.43 489.34 578.41 489.34 578.41C494.28 572.63 497.27 565.14 497.27 556.93" id="a1gteGGYu3"></path><path d="M497.27 556.93C497.27 538.67 482.46 523.89 464.2 523.89C461.44 523.89 458.75 524.22 456.19 524.86C446.93 527.16 439.22 533.36 434.89 541.61C434.89 541.61 434.89 541.62 434.89 541.62C435.43 541.62 439.7 541.62 440.23 541.62C442.15 541.84 451.71 542.99 468.93 545.05C469.19 545.66 470.51 548.72 472.89 554.21C475.56 564.64 477.04 570.43 477.34 571.58C472.33 581.49 469.55 586.98 468.99 588.09C467.8 592.78 467.14 595.41 467.01 595.92C475.49 591.47 483.06 585.53 489.35 578.43C489.35 578.43 489.34 578.41 489.34 578.41C494.28 572.63 497.27 565.14 497.27 556.93" id="e6EN7E6iTg"></path><path d="M497.27 556.93C497.27 538.67 482.46 523.89 464.2 523.89C461.44 523.89 458.75 524.22 456.19 524.86C446.93 527.16 439.22 533.36 434.89 541.61C434.89 541.61 434.89 541.62 434.89 541.62C435.43 541.62 439.7 541.62 440.23 541.62C442.15 541.84 451.71 542.99 468.93 545.05C469.19 545.66 470.51 548.72 472.89 554.21C475.56 564.64 477.04 570.43 477.34 571.58C472.33 581.49 469.55 586.98 468.99 588.09C467.8 592.78 467.14 595.41 467.01 595.92C475.49 591.47 483.06 585.53 489.35 578.43C489.35 578.43 489.34 578.41 489.34 578.41C494.28 572.63 497.27 565.14 497.27 556.93" id="iL56cR4Y2"></path><path d="M497.27 556.93C497.27 538.67 482.46 523.89 464.2 523.89C461.44 523.89 458.75 524.22 456.19 524.86C446.93 527.16 439.22 533.36 434.89 541.61C434.89 541.61 434.89 541.62 434.89 541.62C435.43 541.62 439.7 541.62 440.23 541.62C442.15 541.84 451.71 542.99 468.93 545.05C469.19 545.66 470.51 548.72 472.89 554.21C475.56 564.64 477.04 570.43 477.34 571.58C472.33 581.49 469.55 586.98 468.99 588.09C467.8 592.78 467.14 595.41 467.01 595.92C475.49 591.47 483.06 585.53 489.35 578.43C489.35 578.43 489.34 578.41 489.34 578.41C494.28 572.63 497.27 565.14 497.27 556.93" id="a8K4M4PDn"></path><path d="M450.12 537.71C444.6 537.71 439.41 539.13 434.89 541.62C447.31 547.16 455.62 557.24 455.62 568.77C455.62 580.58 446.87 590.89 433.91 596.34C427.68 598.97 420.47 600.47 412.78 600.47C409 600.47 405.35 600.11 401.85 599.43C410.76 602.93 420.46 604.86 430.6 604.86C440.7 604.86 450.32 602.96 459.17 599.49C461.86 598.45 464.48 597.26 467.01 595.92C475.84 590.33 481.7 580.48 481.7 569.26C481.7 551.84 467.57 537.71 450.12 537.71" id="iKNzPsqs3"></path><path d="M450.12 537.71C444.6 537.71 439.41 539.13 434.89 541.62C447.31 547.16 455.62 557.24 455.62 568.77C455.62 580.58 446.87 590.89 433.91 596.34C427.68 598.97 420.47 600.47 412.78 600.47C409 600.47 405.35 600.11 401.85 599.43C410.76 602.93 420.46 604.86 430.6 604.86C440.7 604.86 450.32 602.96 459.17 599.49C461.86 598.45 464.48 597.26 467.01 595.92C475.84 590.33 481.7 580.48 481.7 569.26C481.7 551.84 467.57 537.71 450.12 537.71" id="h1SvUxUt37"></path><path d="M450.12 537.71C444.6 537.71 439.41 539.13 434.89 541.62C447.31 547.16 455.62 557.24 455.62 568.77C455.62 580.58 446.87 590.89 433.91 596.34C427.68 598.97 420.47 600.47 412.78 600.47C409 600.47 405.35 600.11 401.85 599.43C410.76 602.93 420.46 604.86 430.6 604.86C440.7 604.86 450.32 602.96 459.17 599.49C461.86 598.45 464.48 597.26 467.01 595.92C475.84 590.33 481.7 580.48 481.7 569.26C481.7 551.84 467.57 537.71 450.12 537.71" id="e2uvc1Ipz8"></path><path d="M450.12 537.71C444.6 537.71 439.41 539.13 434.89 541.62C447.31 547.16 455.62 557.24 455.62 568.77C455.62 580.58 446.87 590.89 433.91 596.34C427.68 598.97 420.47 600.47 412.78 600.47C409 600.47 405.35 600.11 401.85 599.43C410.76 602.93 420.46 604.86 430.6 604.86C440.7 604.86 450.32 602.96 459.17 599.49C461.86 598.45 464.48 597.26 467.01 595.92C475.84 590.33 481.7 580.48 481.7 569.26C481.7 551.84 467.57 537.71 450.12 537.71" id="a1vkk6kG3u"></path><path d="M467.24 504.09C462.55 504.46 457.41 503.13 451.78 500.14C446.97 496.49 441.54 494.38 435.48 493.78C426.4 492.9 420.73 494.15 415.49 496.64C401.56 503.23 396.08 520.11 396.08 526.56C396.08 533.11 397.83 552.8 415.77 559.95C420.65 561.9 426.96 564.02 435.96 563.21C441.97 562.67 447.24 560.5 451.78 556.7C449.85 553.71 447.56 551.13 444.92 548.97C442.28 546.81 439.3 545.07 435.96 543.74C442.19 534.63 449.37 529.08 457.45 527.09C469.59 524.11 478.44 528.38 484.52 531.83C490.61 535.27 497.04 545.68 497.79 556.7C498.25 563.04 496.3 569.39 492 575.8C486.98 583.27 481.46 589.17 475.45 593.49C467.95 598.89 460.18 601.47 453.24 603.79C440.74 607.98 423.1 606.52 412.71 604.18C404.21 602.27 402.12 600.65 395.33 597.86C373.74 589 352.15 563.24 352.76 527.87C353.12 506.81 361.84 486.07 375.67 473.19C381.45 467.83 388.37 459.21 407.05 454.08C425.74 448.93 438.24 449.77 450.43 452.62C461.03 455.09 470.33 459.46 478.34 465.71C482.76 470.55 485.52 475.05 486.63 479.21C488.41 485.86 485.63 491.77 482.91 495.3C480.3 498.68 474 503.58 467.24 504.09Z" id="a8F5biNnb"></path><path d="M467.24 504.09C462.55 504.46 457.41 503.13 451.78 500.14C446.97 496.49 441.54 494.38 435.48 493.78C426.4 492.9 420.73 494.15 415.49 496.64C401.56 503.23 396.08 520.11 396.08 526.56C396.08 533.11 397.83 552.8 415.77 559.95C420.65 561.9 426.96 564.02 435.96 563.21C441.97 562.67 447.24 560.5 451.78 556.7C449.85 553.71 447.56 551.13 444.92 548.97C442.28 546.81 439.3 545.07 435.96 543.74C442.19 534.63 449.37 529.08 457.45 527.09C469.59 524.11 478.44 528.38 484.52 531.83C490.61 535.27 497.04 545.68 497.79 556.7C498.25 563.04 496.3 569.39 492 575.8C486.98 583.27 481.46 589.17 475.45 593.49C467.95 598.89 460.18 601.47 453.24 603.79C440.74 607.98 423.1 606.52 412.71 604.18C404.21 602.27 402.12 600.65 395.33 597.86C373.74 589 352.15 563.24 352.76 527.87C353.12 506.81 361.84 486.07 375.67 473.19C381.45 467.83 388.37 459.21 407.05 454.08C425.74 448.93 438.24 449.77 450.43 452.62C461.03 455.09 470.33 459.46 478.34 465.71C482.76 470.55 485.52 475.05 486.63 479.21C488.41 485.86 485.63 491.77 482.91 495.3C480.3 498.68 474 503.58 467.24 504.09Z" id="g1LNzpv1wN"></path></defs><g><g><g><use xlink:href="#b1fNyBVDmu" opacity="1" fill="#d14484" fill-opacity="1"></use><g><use xlink:href="#b1fNyBVDmu" opacity="1" fill-opacity="0" stroke="#000000" stroke-width="1" stroke-opacity="0"></use></g></g><g><use xlink:href="#aBvnNQGuJ" opacity="1" fill="#e35f9b" fill-opacity="1"></use><g><use xlink:href="#aBvnNQGuJ" opacity="1" fill-opacity="0" stroke="#000000" stroke-width="1" stroke-opacity="0"></use></g></g><g><use xlink:href="#b1fRe9H0ua" opacity="1" fill="#27273c" fill-opacity="1"></use><g><use xlink:href="#b1fRe9H0ua" opacity="1" fill-opacity="0" stroke="#000000" stroke-width="1" stroke-opacity="0"></use></g></g><g><use xlink:href="#a2llBYKF3c" opacity="1" fill="#30304c" fill-opacity="1"></use><g><use xlink:href="#a2llBYKF3c" opacity="1" fill-opacity="0" stroke="#000000" stroke-width="1" stroke-opacity="0"></use></g></g><g><use xlink:href="#fN3b8H2Om" opacity="1" fill="#40609c" fill-opacity="1"></use><g><use xlink:href="#fN3b8H2Om" opacity="1" fill-opacity="0" stroke="#000000" stroke-width="1" stroke-opacity="0"></use></g></g><g><use xlink:href="#bZn4q4ig0" opacity="1" fill="#4d72b6" fill-opacity="1"></use><g><use xlink:href="#bZn4q4ig0" opacity="1" fill-opacity="0" stroke="#000000" stroke-width="1" stroke-opacity="0"></use></g></g><g><use xlink:href="#cdjtB44iv" opacity="1" fill="#40609c" fill-opacity="1"></use><g><use xlink:href="#cdjtB44iv" opacity="1" fill-opacity="0" stroke="#000000" stroke-width="1" stroke-opacity="0"></use></g></g><g><use xlink:href="#d3PNd8qql9" opacity="1" fill="#d14484" fill-opacity="1"></use><g><use xlink:href="#d3PNd8qql9" opacity="1" fill-opacity="0" stroke="#000000" stroke-width="1" stroke-opacity="0"></use></g></g><g><use xlink:href="#b16aslL9Dw" opacity="1" fill="#40609c" fill-opacity="1"></use><g><use xlink:href="#b16aslL9Dw" opacity="1" fill-opacity="0" stroke="#000000" stroke-width="1" stroke-opacity="0"></use></g></g><g><use xlink:href="#b1Be0uGddS" opacity="1" fill="#d14484" fill-opacity="1"></use><g><use xlink:href="#b1Be0uGddS" opacity="1" fill-opacity="0" stroke="#000000" stroke-width="1" stroke-opacity="0"></use></g></g><g><use xlink:href="#i2BM9QiBDA" opacity="1" fill="#4d72b6" fill-opacity="1"></use><g><use xlink:href="#i2BM9QiBDA" opacity="1" fill-opacity="0" stroke="#000000" stroke-width="1" stroke-opacity="0"></use></g></g><g><use xlink:href="#aKmshB7Se" opacity="1" fill="#e35f9b" fill-opacity="1"></use><g><use xlink:href="#aKmshB7Se" opacity="1" fill-opacity="0" stroke="#000000" stroke-width="1" stroke-opacity="0"></use></g></g><g><use xlink:href="#a4r08ekpa8" opacity="1" fill="#4d72b6" fill-opacity="1"></use><g><use xlink:href="#a4r08ekpa8" opacity="1" fill-opacity="0" stroke="#000000" stroke-width="1" stroke-opacity="0"></use></g></g><g><use xlink:href="#acFASQ5sS" opacity="1" fill="#e35f9b" fill-opacity="1"></use><g><use xlink:href="#acFASQ5sS" opacity="1" fill-opacity="0" stroke="#000000" stroke-width="1" stroke-opacity="0"></use></g></g><g><use xlink:href="#b1fWNpds9p" opacity="1" fill="#d14484" fill-opacity="1"></use><g><use xlink:href="#b1fWNpds9p" opacity="1" fill-opacity="0" stroke="#000000" stroke-width="1" stroke-opacity="0"></use></g></g><g><use xlink:href="#j1MkIRrDXE" opacity="1" fill="#aa6100" fill-opacity="1"></use><g><use xlink:href="#j1MkIRrDXE" opacity="1" fill-opacity="0" stroke="#000000" stroke-width="1" stroke-opacity="0"></use></g></g><g><use xlink:href="#dd5HSDSLe" opacity="1" fill="#cc7400" fill-opacity="1"></use><g><use xlink:href="#dd5HSDSLe" opacity="1" fill-opacity="0" stroke="#000000" stroke-width="1" stroke-opacity="0"></use></g></g><g><use xlink:href="#k2cgkb32K" opacity="1" fill="#ee8700" fill-opacity="1"></use><g><use xlink:href="#k2cgkb32K" opacity="1" fill-opacity="0" stroke="#000000" stroke-width="1" stroke-opacity="0"></use></g></g><g><use xlink:href="#a23RcVGcOE" opacity="1" fill="#ff9811" fill-opacity="1"></use><g><use xlink:href="#a23RcVGcOE" opacity="1" fill-opacity="0" stroke="#000000" stroke-width="1" stroke-opacity="0"></use></g></g><g><use xlink:href="#c44qIxlAXW" opacity="1" fill="#ffa733" fill-opacity="1"></use><g><use xlink:href="#c44qIxlAXW" opacity="1" fill-opacity="0" stroke="#000000" stroke-width="1" stroke-opacity="0"></use></g></g><g><use xlink:href="#g2gdPIYE7" opacity="1" fill="#cc7400" fill-opacity="1"></use><g><use xlink:href="#g2gdPIYE7" opacity="1" fill-opacity="0" stroke="#000000" stroke-width="1" stroke-opacity="0"></use></g></g><g><use xlink:href="#d7rvxX4vjF" opacity="1" fill="#ee8700" fill-opacity="1"></use><g><use xlink:href="#d7rvxX4vjF" opacity="1" fill-opacity="0" stroke="#000000" stroke-width="1" stroke-opacity="0"></use></g></g><g><use xlink:href="#e2z1TXoGlH" opacity="1" fill="#000000" fill-opacity="1"></use><g><use xlink:href="#e2z1TXoGlH" opacity="1" fill-opacity="0" stroke="#000000" stroke-width="1" stroke-opacity="0"></use></g></g><g><use xlink:href="#brHHJl97U" opacity="1" fill="#000000" fill-opacity="1"></use><g><use xlink:href="#brHHJl97U" opacity="1" fill-opacity="0" stroke="#000000" stroke-width="1" stroke-opacity="0"></use></g></g><g><use xlink:href="#a1xEYqeRZI" opacity="1" fill="#000000" fill-opacity="1"></use><g><use xlink:href="#a1xEYqeRZI" opacity="1" fill-opacity="0" stroke="#000000" stroke-width="1" stroke-opacity="0"></use></g></g><g><use xlink:href="#f2uSftaX3k" opacity="1" fill="#000000" fill-opacity="1"></use><g><use xlink:href="#f2uSftaX3k" opacity="1" fill-opacity="0" stroke="#000000" stroke-width="1" stroke-opacity="0"></use></g></g><g><use xlink:href="#c7n2NWHN1B" opacity="1" fill="#000000" fill-opacity="1"></use><g><use xlink:href="#c7n2NWHN1B" opacity="1" fill-opacity="0" stroke="#000000" stroke-width="1" stroke-opacity="0"></use></g></g><g><use xlink:href="#bvfN0jx5K" opacity="1" fill="#000000" fill-opacity="1"></use><g><use xlink:href="#bvfN0jx5K" opacity="1" fill-opacity="0" stroke="#000000" stroke-width="1" stroke-opacity="0"></use></g></g><g><use xlink:href="#c13yADXsc" opacity="1" fill="#000000" fill-opacity="1"></use><g><use xlink:href="#c13yADXsc" opacity="1" fill-opacity="0" stroke="#000000" stroke-width="1" stroke-opacity="0"></use></g></g><g><use xlink:href="#bltQEOhiw" opacity="1" fill="#000000" fill-opacity="1"></use><g><use xlink:href="#bltQEOhiw" opacity="1" fill-opacity="0" stroke="#000000" stroke-width="1" stroke-opacity="0"></use></g></g><g><use xlink:href="#b1zNkI0gQM" opacity="1" fill="#000000" fill-opacity="1"></use><g><use xlink:href="#b1zNkI0gQM" opacity="1" fill-opacity="0" stroke="#000000" stroke-width="1" stroke-opacity="0"></use></g></g><g><use xlink:href="#a6ctt3wVe" opacity="1" fill="#000000" fill-opacity="1"></use><g><use xlink:href="#a6ctt3wVe" opacity="1" fill-opacity="0" stroke="#000000" stroke-width="1" stroke-opacity="0"></use></g></g><g><use xlink:href="#cK9EtQzA1" opacity="1" fill="#000000" fill-opacity="1"></use><g><use xlink:href="#cK9EtQzA1" opacity="1" fill-opacity="0" stroke="#000000" stroke-width="1" stroke-opacity="0"></use></g></g><g><use xlink:href="#b35S9dzjMM" opacity="1" fill="#000000" fill-opacity="1"></use><g><use xlink:href="#b35S9dzjMM" opacity="1" fill-opacity="0" stroke="#000000" stroke-width="1" stroke-opacity="0"></use></g></g><g><g><use xlink:href="#ayu5eCbIH" opacity="1" fill="#244d89" fill-opacity="1"></use><g><use xlink:href="#ayu5eCbIH" opacity="1" fill-opacity="0" stroke="#000000" stroke-width="1" stroke-opacity="0"></use></g></g><g><use xlink:href="#apQqJ6yfA" opacity="1" fill="#000000" fill-opacity="0"></use><g><use xlink:href="#apQqJ6yfA" opacity="1" fill-opacity="0" stroke="#000000" stroke-width="1" stroke-opacity="0"></use></g></g><g><use xlink:href="#c1G8hFHPZy" opacity="1" fill="#000000" fill-opacity="0"></use><g><use xlink:href="#c1G8hFHPZy" opacity="1" fill-opacity="0" stroke="#000000" stroke-width="1" stroke-opacity="0"></use></g></g><g><use xlink:href="#ap1oaAFWI" opacity="1" fill="#000000" fill-opacity="0"></use><g><use xlink:href="#ap1oaAFWI" opacity="1" fill-opacity="0" stroke="#000000" stroke-width="1" stroke-opacity="0"></use></g></g><g><use xlink:href="#b5yt1TGIMC" opacity="1" fill="#3fc2f0" fill-opacity="1"></use><g><use xlink:href="#b5yt1TGIMC" opacity="1" fill-opacity="0" stroke="#000000" stroke-width="1" stroke-opacity="0"></use></g></g><g><use xlink:href="#b602ESq2nA" opacity="1" fill="#000000" fill-opacity="0"></use><g><use xlink:href="#b602ESq2nA" opacity="1" fill-opacity="0" stroke="#000000" stroke-width="1" stroke-opacity="0"></use></g></g><g><use xlink:href="#aQk0IjxFI" opacity="1" fill="#000000" fill-opacity="0"></use><g><use xlink:href="#aQk0IjxFI" opacity="1" fill-opacity="0" stroke="#000000" stroke-width="1" stroke-opacity="0"></use></g></g><g><use xlink:href="#c5GgHcMRLS" opacity="1" fill="#000000" fill-opacity="0"></use><g><use xlink:href="#c5GgHcMRLS" opacity="1" fill-opacity="0" stroke="#000000" stroke-width="1" stroke-opacity="0"></use></g></g><g><use xlink:href="#b9J2cZN4m" opacity="1" fill="#2c84bd" fill-opacity="1"></use><g><use xlink:href="#b9J2cZN4m" opacity="1" fill-opacity="0" stroke="#000000" stroke-width="1" stroke-opacity="0"></use></g></g><g><use xlink:href="#b4DRx9pcd2" opacity="1" fill="#000000" fill-opacity="0"></use><g><use xlink:href="#b4DRx9pcd2" opacity="1" fill-opacity="0" stroke="#000000" stroke-width="1" stroke-opacity="0"></use></g></g><g><use xlink:href="#a3ONkoTU9V" opacity="1" fill="#000000" fill-opacity="0"></use><g><use xlink:href="#a3ONkoTU9V" opacity="1" fill-opacity="0" stroke="#000000" stroke-width="1" stroke-opacity="0"></use></g></g><g><use xlink:href="#cczG4vwnc" opacity="1" fill="#000000" fill-opacity="0"></use><g><use xlink:href="#cczG4vwnc" opacity="1" fill-opacity="0" stroke="#000000" stroke-width="1" stroke-opacity="0"></use></g></g><g><use xlink:href="#b1nNOlhAQw" opacity="1" fill="#38589a" fill-opacity="1"></use><g><use xlink:href="#b1nNOlhAQw" opacity="1" fill-opacity="0" stroke="#000000" stroke-width="1" stroke-opacity="0"></use></g></g><g><use xlink:href="#aFyJ4sJb" opacity="1" fill="#000000" fill-opacity="0"></use><g><use xlink:href="#aFyJ4sJb" opacity="1" fill-opacity="0" stroke="#000000" stroke-width="1" stroke-opacity="0"></use></g></g><g><use xlink:href="#bghebPQhR" opacity="1" fill="#000000" fill-opacity="0"></use><g><use xlink:href="#bghebPQhR" opacity="1" fill-opacity="0" stroke="#000000" stroke-width="1" stroke-opacity="0"></use></g></g><g><use xlink:href="#a1F0pLaU1W" opacity="1" fill="#000000" fill-opacity="0"></use><g><use xlink:href="#a1F0pLaU1W" opacity="1" fill-opacity="0" stroke="#000000" stroke-width="1" stroke-opacity="0"></use></g></g><g><use xlink:href="#aiXcuhQeJ" opacity="1" fill="#244d89" fill-opacity="1"></use><g><use xlink:href="#aiXcuhQeJ" opacity="1" fill-opacity="0" stroke="#000000" stroke-width="1" stroke-opacity="0"></use></g></g><g><use xlink:href="#f3v0jyBmcm" opacity="1" fill="#000000" fill-opacity="0"></use><g><use xlink:href="#f3v0jyBmcm" opacity="1" fill-opacity="0" stroke="#000000" stroke-width="1" stroke-opacity="0"></use></g></g><g><use xlink:href="#b2zX3cmqrm" opacity="1" fill="#000000" fill-opacity="0"></use><g><use xlink:href="#b2zX3cmqrm" opacity="1" fill-opacity="0" stroke="#000000" stroke-width="1" stroke-opacity="0"></use></g></g><g><use xlink:href="#aHH7SssJ" opacity="1" fill="#000000" fill-opacity="0"></use><g><use xlink:href="#aHH7SssJ" opacity="1" fill-opacity="0" stroke="#000000" stroke-width="1" stroke-opacity="0"></use></g></g><g><use xlink:href="#a1gteGGYu3" opacity="1" fill="#3fc2f0" fill-opacity="1"></use><g><use xlink:href="#a1gteGGYu3" opacity="1" fill-opacity="0" stroke="#000000" stroke-width="1" stroke-opacity="0"></use></g></g><g><use xlink:href="#e6EN7E6iTg" opacity="1" fill="#000000" fill-opacity="0"></use><g><use xlink:href="#e6EN7E6iTg" opacity="1" fill-opacity="0" stroke="#000000" stroke-width="1" stroke-opacity="0"></use></g></g><g><use xlink:href="#iL56cR4Y2" opacity="1" fill="#000000" fill-opacity="0"></use><g><use xlink:href="#iL56cR4Y2" opacity="1" fill-opacity="0" stroke="#000000" stroke-width="1" stroke-opacity="0"></use></g></g><g><use xlink:href="#a8K4M4PDn" opacity="1" fill="#000000" fill-opacity="0"></use><g><use xlink:href="#a8K4M4PDn" opacity="1" fill-opacity="0" stroke="#000000" stroke-width="1" stroke-opacity="0"></use></g></g><g><use xlink:href="#iKNzPsqs3" opacity="1" fill="#2c84bd" fill-opacity="1"></use><g><use xlink:href="#iKNzPsqs3" opacity="1" fill-opacity="0" stroke="#000000" stroke-width="1" stroke-opacity="0"></use></g></g><g><use xlink:href="#h1SvUxUt37" opacity="1" fill="#000000" fill-opacity="0"></use><g><use xlink:href="#h1SvUxUt37" opacity="1" fill-opacity="0" stroke="#000000" stroke-width="1" stroke-opacity="0"></use></g></g><g><use xlink:href="#e2uvc1Ipz8" opacity="1" fill="#000000" fill-opacity="0"></use><g><use xlink:href="#e2uvc1Ipz8" opacity="1" fill-opacity="0" stroke="#000000" stroke-width="1" stroke-opacity="0"></use></g></g><g><use xlink:href="#a1vkk6kG3u" opacity="1" fill="#000000" fill-opacity="0"></use><g><use xlink:href="#a1vkk6kG3u" opacity="1" fill-opacity="0" stroke="#000000" stroke-width="1" stroke-opacity="0"></use></g></g><g><use xlink:href="#a8F5biNnb" opacity="1" fill="#000000" fill-opacity="0"></use><g><use xlink:href="#a8F5biNnb" opacity="1" fill-opacity="0" stroke="#000000" stroke-width="1" stroke-opacity="0"></use></g></g><g><use xlink:href="#g1LNzpv1wN" opacity="1" fill="#000000" fill-opacity="0"></use><g><use xlink:href="#g1LNzpv1wN" opacity="1" fill-opacity="0" stroke="#000000" stroke-width="17" stroke-opacity="1"></use></g></g></g></g></g></svg>