<svg id="svg" version="1.1" width="515" height="515" xmlns="http://www.w3.org/2000/svg" xmlns:xlink="http://www.w3.org/1999/xlink" style="display: block;"><g id="svgg"><path id="path0" d="M258.000 13.171 C 258.000 13.985,256.875 15.708,255.500 17.000 C 254.125 18.292,253.000 20.170,253.000 21.174 C 253.000 22.178,252.550 23.000,252.000 23.000 C 251.450 23.000,251.000 23.801,251.000 24.779 C 251.000 25.758,250.100 27.207,249.000 28.000 C 247.900 28.793,247.000 30.242,247.000 31.221 C 247.000 32.199,246.550 33.000,246.000 33.000 C 245.450 33.000,245.000 33.845,245.000 34.878 C 245.000 35.910,244.303 37.334,243.450 38.041 C 242.598 38.748,241.046 41.205,240.000 43.500 C 238.954 45.795,237.402 48.252,236.550 48.959 C 235.697 49.666,235.000 50.810,235.000 51.500 C 235.000 52.190,234.303 53.334,233.450 54.041 C 232.598 54.748,231.024 57.251,229.953 59.603 C 228.882 61.955,227.526 64.175,226.941 64.536 C 226.356 64.898,225.435 66.163,224.895 67.347 C 223.408 70.610,221.489 73.790,219.829 75.743 C 219.007 76.709,217.573 79.168,216.641 81.208 C 215.709 83.247,214.537 85.168,214.037 85.477 C 212.908 86.175,210.000 91.906,210.000 93.433 C 210.000 94.052,209.100 95.207,208.000 96.000 C 206.900 96.793,206.000 98.242,206.000 99.221 C 206.000 100.199,205.550 101.000,205.000 101.000 C 204.450 101.000,204.000 101.801,204.000 102.779 C 204.000 103.758,203.100 105.207,202.000 106.000 C 200.900 106.793,200.000 108.242,200.000 109.221 C 200.000 110.199,199.550 111.000,199.000 111.000 C 198.450 111.000,198.000 111.900,198.000 113.000 C 198.000 114.100,197.603 115.000,197.117 115.000 C 196.632 115.000,195.047 117.428,193.594 120.397 C 192.142 123.365,190.267 126.363,189.428 127.060 C 188.588 127.757,187.046 130.205,186.000 132.500 C 184.954 134.795,183.402 137.252,182.550 137.959 C 181.697 138.666,181.000 139.810,181.000 140.500 C 181.000 141.190,180.303 142.334,179.450 143.041 C 178.598 143.748,177.024 146.251,175.953 148.603 C 174.882 150.955,173.553 153.158,173.000 153.500 C 172.447 153.842,171.097 156.092,170.000 158.500 C 168.903 160.908,167.553 163.158,167.000 163.500 C 166.447 163.842,165.097 166.092,164.000 168.500 C 162.903 170.908,161.553 173.158,161.000 173.500 C 160.447 173.842,159.118 176.045,158.047 178.397 C 156.976 180.749,155.411 183.244,154.570 183.942 C 152.870 185.352,150.000 190.685,150.000 192.433 C 150.000 193.052,149.100 194.207,148.000 195.000 C 146.900 195.793,146.000 197.242,146.000 198.221 C 146.000 199.199,145.550 200.000,145.000 200.000 C 144.450 200.000,144.000 200.801,144.000 201.779 C 144.000 202.758,143.100 204.207,142.000 205.000 C 140.900 205.793,140.000 207.242,140.000 208.221 C 140.000 209.199,139.550 210.000,139.000 210.000 C 138.450 210.000,138.000 210.845,138.000 211.878 C 138.000 212.910,137.303 214.334,136.450 215.041 C 135.598 215.748,134.046 218.205,133.000 220.500 C 131.954 222.795,130.402 225.252,129.550 225.959 C 128.697 226.666,128.000 227.810,128.000 228.500 C 128.000 229.190,127.303 230.334,126.450 231.041 C 125.598 231.748,124.046 234.205,123.000 236.500 C 121.954 238.795,120.379 241.270,119.500 242.000 C 118.621 242.730,117.024 245.251,115.953 247.603 C 114.882 249.955,113.566 252.150,113.029 252.482 C 109.681 254.551,108.434 262.000,111.437 262.000 C 112.162 262.000,113.320 262.680,114.010 263.512 C 114.700 264.344,118.071 266.363,121.500 268.000 C 124.929 269.637,128.300 271.656,128.990 272.488 C 129.680 273.320,131.090 274.000,132.122 274.000 C 133.155 274.000,134.000 274.450,134.000 275.000 C 134.000 275.550,134.801 276.000,135.779 276.000 C 136.758 276.000,138.207 276.900,139.000 278.000 C 139.793 279.100,141.242 280.000,142.221 280.000 C 143.199 280.000,144.000 280.450,144.000 281.000 C 144.000 281.550,144.801 282.000,145.779 282.000 C 146.758 282.000,148.207 282.900,149.000 284.000 C 149.793 285.100,150.941 286.000,151.551 286.000 C 153.238 286.000,161.894 290.565,164.338 292.744 C 165.527 293.804,168.168 295.432,170.208 296.362 C 172.247 297.292,174.186 298.493,174.518 299.029 C 174.850 299.566,177.092 300.903,179.500 302.000 C 181.908 303.097,184.149 304.431,184.478 304.965 C 184.808 305.498,187.968 307.314,191.500 309.000 C 195.032 310.686,198.192 312.502,198.522 313.035 C 198.851 313.569,201.092 314.903,203.500 316.000 C 205.908 317.097,208.158 318.447,208.500 319.000 C 208.842 319.553,211.018 320.869,213.335 321.925 C 215.653 322.981,218.396 324.780,219.430 325.922 C 220.464 327.065,222.140 328.000,223.155 328.000 C 224.170 328.000,225.000 328.450,225.000 329.000 C 225.000 329.550,225.801 330.000,226.779 330.000 C 227.758 330.000,229.207 330.900,230.000 332.000 C 230.793 333.100,232.242 334.000,233.221 334.000 C 234.199 334.000,235.000 334.450,235.000 335.000 C 235.000 335.550,235.900 336.000,237.000 336.000 C 238.100 336.000,239.000 336.450,239.000 337.000 C 239.000 337.550,239.845 338.000,240.878 338.000 C 241.910 338.000,243.334 338.697,244.041 339.550 C 244.748 340.402,247.205 341.954,249.500 343.000 C 251.795 344.046,254.252 345.598,254.959 346.450 C 256.588 348.414,260.380 348.452,261.983 346.521 C 263.439 344.766,268.745 342.000,270.654 342.000 C 271.394 342.000,272.000 341.550,272.000 341.000 C 272.000 340.450,272.801 340.000,273.779 340.000 C 274.758 340.000,276.207 339.100,277.000 338.000 C 277.793 336.900,279.242 336.000,280.221 336.000 C 281.199 336.000,282.000 335.550,282.000 335.000 C 282.000 334.450,282.801 334.000,283.779 334.000 C 284.758 334.000,286.207 333.100,287.000 332.000 C 287.793 330.900,288.948 330.000,289.567 330.000 C 291.297 330.000,296.642 327.137,298.027 325.467 C 298.708 324.647,302.113 322.616,305.594 320.955 C 309.074 319.294,312.192 317.498,312.522 316.965 C 312.851 316.431,315.092 315.097,317.500 314.000 C 319.908 312.903,322.158 311.553,322.500 311.000 C 322.842 310.447,325.092 309.097,327.500 308.000 C 329.908 306.903,332.158 305.553,332.500 305.000 C 332.842 304.447,335.092 303.097,337.500 302.000 C 339.908 300.903,342.149 299.569,342.478 299.035 C 342.808 298.502,345.926 296.706,349.406 295.045 C 352.887 293.384,356.292 291.353,356.973 290.533 C 358.358 288.863,363.703 286.000,365.433 286.000 C 366.052 286.000,367.207 285.100,368.000 284.000 C 368.793 282.900,370.242 282.000,371.221 282.000 C 372.199 282.000,373.000 281.550,373.000 281.000 C 373.000 280.450,373.900 280.000,375.000 280.000 C 376.100 280.000,377.000 279.550,377.000 279.000 C 377.000 278.450,377.801 278.000,378.779 278.000 C 379.758 278.000,381.207 277.100,382.000 276.000 C 382.793 274.900,383.948 274.000,384.567 274.000 C 386.114 274.000,391.829 271.086,392.541 269.934 C 392.860 269.417,395.092 268.097,397.500 267.000 C 399.908 265.903,402.175 264.526,402.536 263.941 C 402.898 263.356,404.276 262.466,405.597 261.963 C 408.400 260.897,408.878 256.974,406.450 254.959 C 405.598 254.252,404.046 251.795,403.000 249.500 C 401.954 247.205,400.402 244.748,399.550 244.041 C 398.697 243.334,398.000 242.205,398.000 241.533 C 398.000 240.860,397.065 239.464,395.922 238.430 C 394.780 237.396,392.981 234.653,391.925 232.335 C 390.869 230.018,389.553 227.842,389.000 227.500 C 388.447 227.158,387.118 224.955,386.047 222.603 C 384.976 220.251,383.402 217.748,382.550 217.041 C 381.697 216.334,381.000 214.910,381.000 213.878 C 381.000 212.845,380.550 212.000,380.000 212.000 C 379.450 212.000,379.000 211.199,379.000 210.221 C 379.000 209.242,378.100 207.793,377.000 207.000 C 375.900 206.207,375.000 204.758,375.000 203.779 C 375.000 202.801,374.550 202.000,374.000 202.000 C 373.450 202.000,373.000 201.199,373.000 200.221 C 373.000 199.242,372.100 197.793,371.000 197.000 C 369.900 196.207,369.000 194.977,369.000 194.266 C 369.000 192.818,367.222 189.399,365.089 186.743 C 363.459 184.714,361.511 181.433,360.105 178.347 C 359.565 177.163,358.644 175.898,358.059 175.536 C 357.474 175.175,356.097 172.908,355.000 170.500 C 353.903 168.092,352.553 165.842,352.000 165.500 C 351.447 165.158,350.118 162.955,349.047 160.603 C 347.976 158.251,346.402 155.748,345.550 155.041 C 344.697 154.334,344.000 153.190,344.000 152.500 C 344.000 151.810,343.303 150.666,342.450 149.959 C 341.598 149.252,340.024 146.749,338.953 144.397 C 337.882 142.045,336.566 139.850,336.029 139.518 C 335.493 139.186,334.291 137.247,333.359 135.208 C 332.427 133.168,330.993 130.709,330.171 129.743 C 328.617 127.915,327.311 125.744,324.459 120.250 C 323.531 118.463,322.373 117.000,321.886 117.000 C 321.399 117.000,321.000 116.100,321.000 115.000 C 321.000 113.900,320.550 113.000,320.000 113.000 C 319.450 113.000,319.000 112.199,319.000 111.221 C 319.000 110.242,318.100 108.793,317.000 108.000 C 315.900 107.207,315.000 105.758,315.000 104.779 C 315.000 103.801,314.550 103.000,314.000 103.000 C 313.450 103.000,313.000 102.155,313.000 101.122 C 313.000 100.090,312.303 98.666,311.450 97.959 C 310.598 97.252,309.024 94.749,307.953 92.397 C 306.882 90.045,305.553 87.842,305.000 87.500 C 304.447 87.158,303.097 84.908,302.000 82.500 C 300.903 80.092,299.553 77.842,299.000 77.500 C 298.447 77.158,297.131 74.982,296.075 72.665 C 295.019 70.347,293.220 67.604,292.078 66.570 C 290.935 65.536,290.000 64.140,290.000 63.467 C 290.000 62.795,289.303 61.666,288.450 60.959 C 287.598 60.252,286.024 57.749,284.953 55.397 C 283.882 53.045,282.583 50.860,282.066 50.541 C 280.914 49.829,278.000 44.114,278.000 42.567 C 278.000 41.948,277.100 40.793,276.000 40.000 C 274.900 39.207,274.000 37.758,274.000 36.779 C 274.000 35.801,273.550 35.000,273.000 35.000 C 272.450 35.000,272.000 34.199,272.000 33.221 C 272.000 32.242,271.100 30.793,270.000 30.000 C 268.900 29.207,268.000 27.758,268.000 26.779 C 268.000 25.801,267.550 25.000,267.000 25.000 C 266.450 25.000,266.000 24.170,266.000 23.155 C 266.000 22.140,265.100 20.495,264.000 19.500 C 262.900 18.505,262.000 17.155,262.000 16.500 C 262.000 15.845,261.100 14.495,260.000 13.500 C 258.382 12.036,258.000 11.973,258.000 13.171 M406.000 292.000 C 406.000 292.550,405.394 293.000,404.654 293.000 C 402.978 293.000,397.229 295.820,396.500 297.000 C 395.820 298.100,390.069 301.000,388.567 301.000 C 387.948 301.000,386.793 301.900,386.000 303.000 C 385.207 304.100,383.758 305.000,382.779 305.000 C 381.801 305.000,381.000 305.450,381.000 306.000 C 381.000 306.550,380.199 307.000,379.221 307.000 C 378.242 307.000,376.793 307.900,376.000 309.000 C 375.207 310.100,373.758 311.000,372.779 311.000 C 371.801 311.000,371.000 311.450,371.000 312.000 C 371.000 312.550,370.394 313.000,369.654 313.000 C 367.953 313.000,362.224 315.828,361.477 317.037 C 361.168 317.537,359.247 318.709,357.208 319.641 C 355.168 320.573,352.709 322.007,351.743 322.829 C 349.696 324.569,347.118 326.078,341.311 328.934 C 339.006 330.067,336.842 331.447,336.500 332.000 C 336.158 332.553,333.908 333.903,331.500 335.000 C 329.092 336.097,326.842 337.447,326.500 338.000 C 326.158 338.553,323.955 339.882,321.603 340.953 C 319.251 342.024,316.748 343.598,316.041 344.450 C 315.334 345.303,313.910 346.000,312.878 346.000 C 311.845 346.000,311.000 346.450,311.000 347.000 C 311.000 347.550,310.199 348.000,309.221 348.000 C 308.242 348.000,306.793 348.900,306.000 350.000 C 305.207 351.100,303.758 352.000,302.779 352.000 C 301.801 352.000,301.000 352.450,301.000 353.000 C 301.000 353.550,300.100 354.000,299.000 354.000 C 297.900 354.000,297.000 354.450,297.000 355.000 C 297.000 355.550,296.170 356.000,295.155 356.000 C 294.140 356.000,292.464 356.935,291.430 358.078 C 290.396 359.220,287.653 361.019,285.335 362.075 C 283.018 363.131,280.850 364.434,280.518 364.971 C 280.186 365.507,278.247 366.709,276.208 367.641 C 274.168 368.573,271.734 369.985,270.798 370.780 C 264.774 375.890,255.384 378.373,252.990 375.488 C 252.300 374.656,248.887 372.616,245.406 370.955 C 241.926 369.294,238.808 367.498,238.478 366.965 C 238.149 366.431,235.955 365.118,233.603 364.047 C 231.251 362.976,228.756 361.411,228.058 360.570 C 226.648 358.870,221.315 356.000,219.567 356.000 C 218.948 356.000,217.793 355.100,217.000 354.000 C 216.207 352.900,214.758 352.000,213.779 352.000 C 212.801 352.000,212.000 351.550,212.000 351.000 C 212.000 350.450,211.199 350.000,210.221 350.000 C 209.242 350.000,207.793 349.100,207.000 348.000 C 206.207 346.900,204.758 346.000,203.779 346.000 C 202.801 346.000,202.000 345.550,202.000 345.000 C 202.000 344.450,201.394 344.000,200.654 344.000 C 198.932 344.000,193.221 341.166,192.459 339.934 C 192.140 339.417,189.908 338.097,187.500 337.000 C 185.092 335.903,182.842 334.553,182.500 334.000 C 182.158 333.447,179.955 332.118,177.603 331.047 C 175.251 329.976,172.744 328.396,172.031 327.537 C 171.318 326.678,167.887 324.616,164.406 322.955 C 160.926 321.294,157.808 319.498,157.478 318.965 C 157.149 318.431,154.955 317.118,152.603 316.047 C 150.251 314.976,147.748 313.402,147.041 312.550 C 146.334 311.697,144.910 311.000,143.878 311.000 C 142.845 311.000,142.000 310.550,142.000 310.000 C 142.000 309.450,141.199 309.000,140.221 309.000 C 139.242 309.000,137.793 308.100,137.000 307.000 C 136.207 305.900,134.758 305.000,133.779 305.000 C 132.801 305.000,132.000 304.550,132.000 304.000 C 132.000 303.450,131.100 303.000,130.000 303.000 C 128.900 303.000,128.000 302.550,128.000 302.000 C 128.000 301.450,127.155 301.000,126.122 301.000 C 125.090 301.000,123.692 300.334,123.017 299.521 C 121.561 297.766,116.255 295.000,114.346 295.000 C 113.606 295.000,113.000 294.550,113.000 294.000 C 113.000 293.450,112.462 293.000,111.804 293.000 C 111.146 293.000,112.046 294.484,113.804 296.298 C 115.562 298.111,117.000 300.058,117.000 300.623 C 117.000 301.189,118.125 302.708,119.500 304.000 C 120.875 305.292,122.000 306.861,122.000 307.487 C 122.000 308.113,123.350 309.919,125.000 311.500 C 126.650 313.081,128.000 314.895,128.000 315.532 C 128.000 316.169,128.900 317.505,130.000 318.500 C 131.100 319.495,132.000 320.831,132.000 321.468 C 132.000 322.105,133.350 323.919,135.000 325.500 C 136.650 327.081,138.000 328.895,138.000 329.532 C 138.000 330.169,138.900 331.505,140.000 332.500 C 141.100 333.495,142.000 334.831,142.000 335.468 C 142.000 336.105,143.350 337.919,145.000 339.500 C 146.650 341.081,148.000 342.895,148.000 343.532 C 148.000 344.169,148.900 345.505,150.000 346.500 C 151.100 347.495,152.000 348.827,152.000 349.459 C 152.000 350.091,153.575 352.134,155.500 354.000 C 157.425 355.866,159.000 357.909,159.000 358.541 C 159.000 359.173,159.900 360.505,161.000 361.500 C 162.100 362.495,163.000 363.960,163.000 364.754 C 163.000 365.548,164.350 367.459,166.000 369.000 C 167.650 370.541,169.000 372.423,169.000 373.180 C 169.000 373.938,169.900 375.207,171.000 376.000 C 172.100 376.793,173.000 378.062,173.000 378.820 C 173.000 379.577,174.350 381.459,176.000 383.000 C 177.650 384.541,179.000 386.522,179.000 387.401 C 179.000 388.281,179.399 389.000,179.886 389.000 C 180.373 389.000,181.467 390.462,182.317 392.250 C 183.166 394.038,185.242 396.822,186.931 398.437 C 188.619 400.052,190.000 401.895,190.000 402.532 C 190.000 403.169,190.900 404.505,192.000 405.500 C 193.100 406.495,194.000 407.845,194.000 408.500 C 194.000 409.155,194.900 410.505,196.000 411.500 C 197.100 412.495,198.000 413.831,198.000 414.468 C 198.000 415.105,199.350 416.919,201.000 418.500 C 202.650 420.081,204.000 421.895,204.000 422.532 C 204.000 423.169,204.900 424.505,206.000 425.500 C 207.100 426.495,208.000 427.831,208.000 428.468 C 208.000 429.105,209.350 430.919,211.000 432.500 C 212.650 434.081,214.000 435.895,214.000 436.532 C 214.000 437.169,214.900 438.505,216.000 439.500 C 217.100 440.495,218.000 441.827,218.000 442.459 C 218.000 443.091,219.575 445.134,221.500 447.000 C 223.425 448.866,225.000 450.909,225.000 451.541 C 225.000 452.173,225.900 453.505,227.000 454.500 C 228.100 455.495,229.000 456.831,229.000 457.468 C 229.000 458.105,230.350 459.919,232.000 461.500 C 233.650 463.081,235.000 464.895,235.000 465.532 C 235.000 466.169,235.900 467.505,237.000 468.500 C 238.100 469.495,239.000 470.831,239.000 471.468 C 239.000 472.105,240.350 473.919,242.000 475.500 C 243.650 477.081,245.000 479.091,245.000 479.966 C 245.000 480.842,245.900 482.207,247.000 483.000 C 248.100 483.793,249.000 485.062,249.000 485.820 C 249.000 486.577,250.350 488.459,252.000 490.000 C 253.650 491.541,255.000 493.414,255.000 494.161 C 255.000 494.908,255.961 496.119,257.136 496.853 C 259.346 498.233,264.000 494.905,264.000 491.945 C 264.000 491.317,265.350 489.541,267.000 488.000 C 268.650 486.459,270.000 484.577,270.000 483.820 C 270.000 483.062,270.900 481.793,272.000 481.000 C 273.100 480.207,274.000 478.938,274.000 478.180 C 274.000 477.423,275.350 475.541,277.000 474.000 C 278.650 472.459,280.000 470.548,280.000 469.754 C 280.000 468.960,280.900 467.495,282.000 466.500 C 283.100 465.505,284.000 464.169,284.000 463.532 C 284.000 462.895,285.350 461.081,287.000 459.500 C 288.650 457.919,290.000 456.113,290.000 455.487 C 290.000 454.861,291.125 453.292,292.500 452.000 C 293.875 450.708,295.000 449.139,295.000 448.513 C 295.000 447.887,296.350 446.081,298.000 444.500 C 299.650 442.919,301.000 441.105,301.000 440.468 C 301.000 439.831,301.900 438.495,303.000 437.500 C 304.100 436.505,305.000 435.169,305.000 434.532 C 305.000 433.895,306.350 432.081,308.000 430.500 C 309.650 428.919,311.000 427.105,311.000 426.468 C 311.000 425.831,311.900 424.495,313.000 423.500 C 314.100 422.505,315.000 421.169,315.000 420.532 C 315.000 419.895,316.350 418.081,318.000 416.500 C 319.650 414.919,321.000 413.105,321.000 412.468 C 321.000 411.831,321.900 410.495,323.000 409.500 C 324.100 408.505,325.000 407.173,325.000 406.541 C 325.000 405.909,326.575 403.866,328.500 402.000 C 330.425 400.134,332.000 398.091,332.000 397.459 C 332.000 396.827,332.900 395.495,334.000 394.500 C 335.100 393.505,336.002 392.197,336.005 391.595 C 336.007 390.993,337.357 389.062,339.005 387.304 C 340.652 385.547,342.000 383.508,342.000 382.775 C 342.000 382.042,342.900 380.793,344.000 380.000 C 345.100 379.207,346.000 377.938,346.000 377.180 C 346.000 376.423,347.350 374.541,349.000 373.000 C 350.650 371.459,352.000 369.577,352.000 368.820 C 352.000 368.062,352.900 366.793,354.000 366.000 C 355.100 365.207,356.000 363.846,356.000 362.975 C 356.000 362.105,357.575 359.866,359.500 358.000 C 361.425 356.134,363.000 354.091,363.000 353.459 C 363.000 352.827,363.900 351.495,365.000 350.500 C 366.100 349.505,367.000 348.155,367.000 347.500 C 367.000 346.845,367.900 345.495,369.000 344.500 C 370.100 343.505,371.000 342.169,371.000 341.532 C 371.000 340.895,372.350 339.081,374.000 337.500 C 375.650 335.919,377.000 334.105,377.000 333.468 C 377.000 332.831,377.900 331.495,379.000 330.500 C 380.100 329.505,381.000 328.169,381.000 327.532 C 381.000 326.895,382.350 325.081,384.000 323.500 C 385.650 321.919,387.000 320.105,387.000 319.468 C 387.000 318.831,387.900 317.495,389.000 316.500 C 390.100 315.505,391.000 314.173,391.000 313.541 C 391.000 312.909,392.575 310.866,394.500 309.000 C 396.425 307.134,398.000 305.091,398.000 304.459 C 398.000 303.827,398.900 302.495,400.000 301.500 C 401.100 300.505,402.000 299.219,402.000 298.643 C 402.000 298.067,403.438 296.111,405.196 294.298 C 406.954 292.484,407.854 291.000,407.196 291.000 C 406.538 291.000,406.000 291.450,406.000 292.000 " stroke="none" fill="#000000" fill-rule="evenodd"></path></g></svg>