<?xml version="1.0" encoding="UTF-8" standalone="no"?>
<!DOCTYPE svg PUBLIC "-//W3C//DTD SVG 1.1//EN" "http://www.w3.org/Graphics/SVG/1.1/DTD/svg11.dtd">
<svg version="1.1" xmlns="http://www.w3.org/2000/svg" xmlns:xlink="http://www.w3.org/1999/xlink" preserveAspectRatio="xMidYMid meet" viewBox="0 0 640 640" width="640" height="640"><defs><path d="M320 9.37C148.44 9.37 9.37 148.44 9.37 320C9.37 491.56 148.44 630.64 320 630.64C491.56 630.64 630.64 491.56 630.64 320C630.64 148.44 491.56 9.37 320 9.37Z" id="a21RXdwBof"></path><path d="M320 630.64C208.27 630.64 110.31 571.64 55.58 483.09C106.51 519.62 168.96 541.13 236.41 541.13C407.98 541.13 547.04 402.05 547.04 230.49C547.04 170.68 530.14 114.81 500.84 67.42C579.43 123.78 630.63 215.91 630.63 320C630.63 491.56 491.56 630.64 320 630.64Z" id="bF1Fnvlpp"></path><path d="M320 80.54C187.75 80.54 80.54 187.75 80.54 320C80.54 452.25 187.75 559.46 320 559.46C452.25 559.46 559.46 452.25 559.46 320C559.46 187.75 452.25 80.54 320 80.54Z" id="d1eY63VdGL"></path><path d="M320 559.46C228.6 559.46 149.16 508.25 108.81 432.95C148.98 463.46 199.1 481.56 253.44 481.56C385.68 481.56 492.89 374.34 492.89 242.1C492.89 201.25 482.66 162.79 464.63 129.14C522.25 172.87 559.46 242.08 559.46 320.01C559.46 452.25 452.25 559.46 320 559.46Z" id="aBxqRFycT"></path><path d="M93.73 546.27C33.29 485.83 0 405.47 0 320C0 234.53 33.28 154.17 93.73 93.73C154.17 33.29 234.53 0 320 0C405.48 0 485.84 33.28 546.27 93.73C606.71 154.17 640 234.53 640 320C640 446.42 565.33 561.27 449.76 612.6C445.04 614.7 439.5 612.57 437.4 607.84C435.3 603.11 437.43 597.57 442.16 595.47C550.96 547.15 621.26 439.02 621.26 320C621.26 153.88 486.12 18.74 320 18.74C153.88 18.74 18.74 153.88 18.74 320C18.74 486.12 153.88 621.26 320 621.26C340.45 621.26 360.89 619.2 380.74 615.14C385.82 614.1 390.76 617.37 391.8 622.44C392.83 627.51 389.57 632.46 384.5 633.5C363.41 637.81 341.71 640 320 640C234.53 640 154.17 606.72 93.73 546.27Z" id="bK243RCIA"></path><path d="M71.17 320C71.17 237.61 111.88 160.68 180.06 114.22C184.34 111.31 190.16 112.42 193.08 116.69C195.99 120.97 194.88 126.8 190.61 129.71C127.55 172.67 89.91 243.81 89.91 320C89.91 446.87 193.13 550.09 320 550.09C446.87 550.09 550.09 446.88 550.09 320C550.09 193.13 446.87 89.91 320 89.91C295.32 89.91 271.03 93.8 247.82 101.46C242.91 103.07 237.61 100.41 235.99 95.5C234.37 90.58 237.03 85.29 241.95 83.67C267.06 75.38 293.32 71.17 320 71.17C457.21 71.17 568.83 182.8 568.83 320C568.83 457.21 457.21 568.83 320 568.83C182.8 568.83 71.17 457.21 71.17 320Z" id="a1B5LJsk4F"></path><path d="M354.3 322.75C365.04 329.84 370.81 343.19 370.81 354.95C370.81 355.3 370.81 358.09 370.81 358.43C370.81 387.77 352.48 398.76 329.75 398.76C303.16 398.76 288.5 383.36 288.5 366.32C288.5 359.35 292.17 357.33 298.03 357.33C306.1 357.33 307.93 360.63 307.93 365.03C307.93 375.48 317.46 381.53 329.38 381.53C343.13 381.53 351.38 374.2 351.38 358.43C351.38 358.09 351.38 355.3 351.38 354.95C351.38 339.37 343.13 331.85 329.56 331.85C326.9 331.85 305.64 331.85 302.98 331.85C296.56 331.85 294.73 328.92 294.73 324.34C294.73 323.05 294.92 321.22 295.1 319.94C295.52 314.95 298.89 275.06 299.31 270.08C299.68 266.04 300.96 263.66 303.71 263.66C309.16 263.66 352.71 263.66 358.16 263.66C362.19 263.66 364.21 268.06 364.21 272.28C364.21 276.68 362.19 280.89 358.16 280.89C355.34 280.89 341.22 280.89 315.81 280.89L313.25 316.45L329.56 316.46L329.56 316.46C339.61 316.4 347.86 318.5 354.3 322.75Z" id="a79IQkyGfo"></path><path d="M429.58 263.75L431.27 263.85L432.93 264L434.56 264.2L436.17 264.44L437.76 264.73L439.32 265.06L440.85 265.44L442.35 265.87L443.82 266.35L445.25 266.88L446.66 267.46L448.03 268.08L449.36 268.77L450.66 269.5L451.91 270.28L453.13 271.12L454.31 272.02L455.44 272.96L456.53 273.97L457.58 275.03L458.58 276.15L459.54 277.32L460.44 278.56L461.3 279.85L462.11 281.2L462.86 282.61L463.56 284.09L464.21 285.62L464.8 287.22L465.33 288.89L465.81 290.61L466.22 292.4L466.58 294.26L466.87 296.18L467.1 298.17L467.27 300.22L467.37 302.35L467.4 304.54L467.4 357.88L467.37 360.08L467.27 362.2L467.1 364.26L466.87 366.25L466.58 368.17L466.22 370.02L465.81 371.81L465.33 373.54L464.8 375.2L464.21 376.8L463.56 378.34L462.86 379.81L462.11 381.22L461.3 382.58L460.44 383.87L459.54 385.1L458.58 386.28L457.58 387.4L456.53 388.46L455.44 389.46L454.31 390.41L453.13 391.3L451.91 392.14L450.66 392.93L449.36 393.66L448.03 394.34L446.66 394.97L445.25 395.55L443.82 396.07L442.35 396.55L440.85 396.98L439.32 397.36L437.76 397.7L436.17 397.98L434.56 398.23L432.93 398.42L431.27 398.57L429.58 398.68L427.88 398.74L426.16 398.76L424.42 398.74L422.71 398.68L421.02 398.57L419.35 398.42L417.71 398.23L416.09 397.98L414.51 397.7L412.95 397.36L411.42 396.98L409.92 396.55L408.46 396.07L407.02 395.55L405.62 394.97L404.26 394.34L402.94 393.66L401.65 392.93L400.4 392.14L399.19 391.3L398.02 390.41L396.9 389.46L395.82 388.46L394.78 387.4L393.79 386.28L392.85 385.1L391.95 383.87L391.1 382.58L390.31 381.22L389.57 379.81L388.88 378.34L388.24 376.8L387.66 375.2L387.13 373.54L386.66 371.81L386.26 370.02L385.91 368.17L385.62 366.25L385.39 364.26L385.23 362.2L385.13 360.08L385.1 357.88L385.1 304.54L385.13 302.35L385.23 300.22L385.39 298.17L385.62 296.18L385.91 294.26L386.26 292.4L386.66 290.61L387.13 288.89L387.66 287.22L388.24 285.62L388.88 284.09L389.57 282.61L390.31 281.2L391.1 279.85L391.95 278.56L392.85 277.32L393.79 276.15L394.78 275.03L395.82 273.97L396.9 272.96L398.02 272.02L399.19 271.12L400.4 270.28L401.65 269.5L402.94 268.77L404.26 268.08L405.62 267.46L407.02 266.88L408.46 266.35L409.92 265.87L411.42 265.44L412.95 265.06L414.51 264.73L416.09 264.44L417.71 264.2L419.35 264L421.02 263.85L422.71 263.75L424.42 263.68L426.16 263.66L427.88 263.68L429.58 263.75ZM424.14 280.95L423.16 281.02L422.21 281.12L421.28 281.25L420.37 281.4L419.49 281.59L418.63 281.8L417.79 282.05L416.98 282.32L416.19 282.62L415.42 282.95L414.68 283.31L413.96 283.7L413.27 284.12L412.6 284.57L411.96 285.05L411.34 285.56L410.75 286.1L410.19 286.67L409.65 287.27L409.13 287.9L408.64 288.56L408.18 289.25L407.75 289.97L407.34 290.72L406.96 291.5L406.6 292.32L406.27 293.16L405.97 294.04L405.7 294.95L405.46 295.89L405.24 296.86L405.05 297.86L404.89 298.89L404.76 299.96L404.66 301.06L404.59 302.19L404.54 303.35L404.53 304.54L404.53 357.88L404.54 359.08L404.59 360.24L404.66 361.37L404.76 362.47L404.89 363.53L405.05 364.57L405.24 365.57L405.46 366.54L405.7 367.48L405.97 368.39L406.27 369.26L406.6 370.11L406.96 370.92L407.34 371.7L407.75 372.46L408.18 373.18L408.64 373.87L409.13 374.53L409.65 375.16L410.19 375.76L410.75 376.33L411.34 376.87L411.96 377.38L412.6 377.85L413.27 378.3L413.96 378.72L414.68 379.11L415.42 379.47L416.19 379.8L416.98 380.11L417.79 380.38L418.63 380.62L419.49 380.84L420.37 381.02L421.28 381.18L422.21 381.31L423.16 381.41L424.14 381.48L425.14 381.52L426.16 381.53L427.16 381.52L428.15 381.48L429.12 381.41L430.06 381.31L430.99 381.18L431.89 381.02L432.78 380.84L433.64 380.62L434.47 380.38L435.29 380.11L436.08 379.8L436.85 379.47L437.6 379.11L438.32 378.72L439.02 378.3L439.7 377.85L440.35 377.38L440.97 376.87L441.58 376.33L442.15 375.76L442.7 375.16L443.23 374.53L443.73 373.87L444.2 373.18L444.65 372.46L445.07 371.7L445.46 370.92L445.82 370.11L446.16 369.26L446.47 368.39L446.75 367.48L447.01 366.54L447.23 365.57L447.43 364.57L447.59 363.53L447.73 362.47L447.83 361.37L447.91 360.24L447.96 359.08L447.97 357.88L447.97 304.54L447.95 303.92L447.92 303.32L447.88 302.72L447.84 302.12L447.79 301.54L447.74 300.97L447.69 300.4L447.62 299.84L447.56 299.29L447.49 298.75L447.41 298.21L447.33 297.69L447.24 297.17L447.15 296.66L447.05 296.16L446.95 295.67L446.84 295.19L446.73 294.71L446.61 294.24L446.49 293.78L446.36 293.33L446.23 292.89L446.09 292.46L445.95 292.03L445.8 291.61L445.65 291.2L445.49 290.8L445.33 290.41L445.16 290.02L444.99 289.65L444.81 289.28L444.63 288.92L444.44 288.57L444.24 288.22L444.05 287.89L443.84 287.56L443.63 287.24L443.42 286.93L443.2 286.63L442.98 286.33L442.67 285.96L442.35 285.6L442.02 285.26L441.67 284.94L441.32 284.63L440.95 284.34L440.57 284.06L440.19 283.8L439.79 283.56L439.38 283.32L438.97 283.1L438.55 282.9L438.13 282.71L437.69 282.53L437.25 282.36L436.81 282.21L436.36 282.06L435.91 281.93L435.46 281.81L435 281.69L434.54 281.59L434.08 281.5L433.61 281.41L433.15 281.33L432.69 281.26L432.23 281.2L431.77 281.15L431.31 281.1L430.85 281.06L430.4 281.02L429.95 280.99L429.5 280.97L429.06 280.95L428.63 280.93L428.2 280.92L427.77 280.91L427.36 280.9L426.95 280.9L426.55 280.89L426.16 280.89L425.14 280.91L424.14 280.95Z" id="fPYwxdy2t"></path><path d="M212.18 239.66L210.95 243.83L210.95 364.9L212.18 366.13L268.38 332.91L212.18 239.66Z" id="b2OLM5CW6m"></path><path d="M155.98 332.91L212.18 366.13L212.18 239.66L155.98 332.91Z" id="a1fIgi2GRM"></path><path d="M212.18 376.77L211.49 377.62L211.49 420.75L212.18 422.76L268.41 343.57L212.18 376.77Z" id="lnhQAzzx6"></path><path d="M212.18 422.76L212.18 376.77L155.98 343.57L212.18 422.76Z" id="a695bJNycT"></path><path d="M212.18 366.13L268.38 332.91L212.18 307.37L212.18 366.13" id="c6kdLEwnc"></path><path d="M155.98 332.91L212.18 366.13L212.18 307.37" id="hbup2Aq4T"></path></defs><g><g><g><use xlink:href="#a21RXdwBof" opacity="1" fill="#f37eb3" fill-opacity="1"></use><g><use xlink:href="#a21RXdwBof" opacity="1" fill-opacity="0" stroke="#000000" stroke-width="1" stroke-opacity="0"></use></g></g><g><use xlink:href="#bF1Fnvlpp" opacity="1" fill="#da5a94" fill-opacity="1"></use><g><use xlink:href="#bF1Fnvlpp" opacity="1" fill-opacity="0" stroke="#000000" stroke-width="1" stroke-opacity="0"></use></g></g><g><use xlink:href="#d1eY63VdGL" opacity="1" fill="#efefef" fill-opacity="1"></use><g><use xlink:href="#d1eY63VdGL" opacity="1" fill-opacity="0" stroke="#000000" stroke-width="1" stroke-opacity="0"></use></g></g><g><use xlink:href="#aBxqRFycT" opacity="1" fill="#e0e0e0" fill-opacity="1"></use><g><use xlink:href="#aBxqRFycT" opacity="1" fill-opacity="0" stroke="#000000" stroke-width="1" stroke-opacity="0"></use></g></g><g><use xlink:href="#bK243RCIA" opacity="1" fill="#000000" fill-opacity="1"></use><g><use xlink:href="#bK243RCIA" opacity="1" fill-opacity="0" stroke="#000000" stroke-width="1" stroke-opacity="0"></use></g></g><g><use xlink:href="#a1B5LJsk4F" opacity="1" fill="#000000" fill-opacity="1"></use><g><use xlink:href="#a1B5LJsk4F" opacity="1" fill-opacity="0" stroke="#000000" stroke-width="1" stroke-opacity="0"></use></g></g><g><g><use xlink:href="#a79IQkyGfo" opacity="1" fill="#000000" fill-opacity="1"></use><g><use xlink:href="#a79IQkyGfo" opacity="1" fill-opacity="0" stroke="#000000" stroke-width="1" stroke-opacity="0"></use></g></g><g><use xlink:href="#fPYwxdy2t" opacity="1" fill="#000000" fill-opacity="1"></use><g><use xlink:href="#fPYwxdy2t" opacity="1" fill-opacity="0" stroke="#000000" stroke-width="1" stroke-opacity="0"></use></g></g></g><g><g><use xlink:href="#b2OLM5CW6m" opacity="1" fill="#343434" fill-opacity="1"></use><g><use xlink:href="#b2OLM5CW6m" opacity="1" fill-opacity="0" stroke="#000000" stroke-width="1" stroke-opacity="0"></use></g></g><g><use xlink:href="#a1fIgi2GRM" opacity="1" fill="#8c8c8c" fill-opacity="1"></use><g><use xlink:href="#a1fIgi2GRM" opacity="1" fill-opacity="0" stroke="#000000" stroke-width="1" stroke-opacity="0"></use></g></g><g><use xlink:href="#lnhQAzzx6" opacity="1" fill="#3c3c3b" fill-opacity="1"></use><g><use xlink:href="#lnhQAzzx6" opacity="1" fill-opacity="0" stroke="#000000" stroke-width="1" stroke-opacity="0"></use></g></g><g><use xlink:href="#a695bJNycT" opacity="1" fill="#8c8c8c" fill-opacity="1"></use><g><use xlink:href="#a695bJNycT" opacity="1" fill-opacity="0" stroke="#000000" stroke-width="1" stroke-opacity="0"></use></g></g><g><use xlink:href="#c6kdLEwnc" opacity="1" fill="#141414" fill-opacity="1"></use><g><use xlink:href="#c6kdLEwnc" opacity="1" fill-opacity="0" stroke="#000000" stroke-width="1" stroke-opacity="0"></use></g></g><g><use xlink:href="#hbup2Aq4T" opacity="1" fill="#393939" fill-opacity="1"></use><g><use xlink:href="#hbup2Aq4T" opacity="1" fill-opacity="0" stroke="#000000" stroke-width="1" stroke-opacity="0"></use></g></g></g></g></g></svg>