<?xml version="1.0" encoding="UTF-8" standalone="no"?>
<!DOCTYPE svg PUBLIC "-//W3C//DTD SVG 1.1//EN" "http://www.w3.org/Graphics/SVG/1.1/DTD/svg11.dtd">
<svg version="1.1" xmlns="http://www.w3.org/2000/svg" xmlns:xlink="http://www.w3.org/1999/xlink" preserveAspectRatio="xMidYMid meet" viewBox="0 0 640 640" width="640" height="640"><defs><path d="M454.31 9.56L455.85 9.72L457.37 9.93L458.86 10.21L460.34 10.54L461.79 10.93L463.22 11.38L464.63 11.88L466.01 12.43L467.36 13.03L468.69 13.69L469.98 14.39L471.24 15.14L472.48 15.94L473.67 16.78L474.84 17.67L475.96 18.6L477.06 19.57L478.11 20.59L479.12 21.64L480.09 22.73L481.03 23.86L481.91 25.02L482.76 26.22L483.55 27.45L484.31 28.71L485.01 30.01L485.66 31.33L486.27 32.68L486.82 34.06L487.32 35.47L487.76 36.9L488.15 38.35L488.48 39.83L488.76 41.33L488.98 42.84L489.13 44.38L489.23 45.93L489.26 47.5L489.26 630.56L125.69 630.56L125.69 47.5L125.72 45.93L125.82 44.38L125.97 42.84L126.19 41.33L126.47 39.83L126.8 38.35L127.19 36.9L127.63 35.47L128.13 34.06L128.68 32.68L129.29 31.33L129.94 30.01L130.64 28.71L131.39 27.45L132.19 26.22L133.04 25.02L133.92 23.86L134.85 22.73L135.83 21.64L136.84 20.59L137.89 19.57L138.98 18.6L140.11 17.67L141.28 16.78L142.47 15.94L143.71 15.14L144.97 14.39L146.26 13.69L147.59 13.03L148.94 12.43L150.32 11.88L151.72 11.38L153.15 10.93L154.61 10.54L156.08 10.21L157.58 9.93L159.1 9.72L160.63 9.56L162.19 9.47L163.76 9.44L451.19 9.44L452.76 9.47L454.31 9.56ZM166.25 44.32L166.05 44.33L165.85 44.35L165.65 44.38L165.45 44.41L165.26 44.46L165.07 44.51L164.89 44.56L164.7 44.63L164.52 44.7L164.34 44.78L164.17 44.87L164 44.96L163.84 45.06L163.68 45.16L163.52 45.27L163.37 45.39L163.22 45.51L163.08 45.64L162.94 45.77L162.81 45.91L162.68 46.05L162.56 46.19L162.44 46.35L162.33 46.5L162.23 46.66L162.13 46.83L162.04 47L161.95 47.17L161.88 47.35L161.8 47.53L161.74 47.71L161.68 47.9L161.63 48.09L161.59 48.28L161.55 48.48L161.52 48.68L161.5 48.88L161.49 49.08L161.48 49.28L161.48 320L453.46 320L453.46 49.28L453.46 49.08L453.45 48.88L453.43 48.68L453.4 48.48L453.36 48.28L453.32 48.09L453.27 47.9L453.21 47.71L453.15 47.53L453.07 47.35L452.99 47.17L452.91 47L452.82 46.83L452.72 46.66L452.61 46.5L452.5 46.35L452.39 46.19L452.27 46.05L452.14 45.91L452.01 45.77L451.87 45.64L451.73 45.51L451.58 45.39L451.43 45.27L451.27 45.16L451.11 45.06L450.95 44.96L450.78 44.87L450.6 44.78L450.43 44.7L450.25 44.63L450.06 44.56L449.88 44.51L449.69 44.46L449.49 44.41L449.3 44.38L449.1 44.35L448.9 44.33L448.7 44.32L448.49 44.31L166.46 44.31L166.25 44.32Z" id="f4Hxe8Lm3"></path><path d="M422.11 9.44L422.11 44.31C437.94 44.31 446.73 44.31 448.49 44.31C451.24 44.31 453.47 46.54 453.47 49.28C453.47 67.33 453.47 157.57 453.47 320L422.11 320C422.11 336.03 422.11 344.94 422.11 346.72C422.11 477.2 316.33 582.97 185.85 582.97C181.84 582.97 161.79 582.97 125.69 582.97L125.69 630.56L489.26 630.56C489.26 280.73 489.26 86.37 489.26 47.5C489.26 26.48 472.22 9.44 451.19 9.44C447.32 9.44 437.62 9.44 422.11 9.44Z" id="dT1n3hQC"></path><path d="M453.47 175.96C453.47 175.96 453.47 175.96 453.47 175.96C453.47 262.38 453.47 310.4 453.47 320C453.47 320 453.47 320 453.47 320C278.28 320 180.95 320 161.49 320C161.49 320 161.49 320 161.49 320C161.49 233.58 161.49 185.56 161.49 175.96C161.49 175.96 161.49 175.96 161.49 175.96C336.68 175.96 434.01 175.96 453.47 175.96Z" id="c1Fp7TNA8"></path><path d="M199.66 292.33C195.86 292.33 192.77 289.24 192.77 285.44C192.77 278.36 192.77 221.7 192.77 214.62C192.77 210.82 195.86 207.74 199.66 207.74C221.22 207.74 393.73 207.74 415.29 207.74C419.09 207.74 422.18 210.82 422.18 214.62C422.18 221.7 422.18 278.36 422.18 285.44C422.18 289.24 419.09 292.33 415.29 292.33C372.16 292.33 221.22 292.33 199.66 292.33Z" id="asOi05s3n"></path><path d="M125.69 392.32C125.69 408.2 125.69 487.61 125.69 630.56L489.26 630.56C489.26 571.72 489.26 539.03 489.26 532.5C472.2 534.66 454.82 535.78 437.17 535.78C312.51 535.78 200.87 480.12 125.69 392.32Z" id="auNGoH18a"></path><path d="M185.85 582.97C181.84 582.97 161.79 582.97 125.69 582.97L125.69 630.56L489.26 630.56C489.26 571.72 489.26 539.03 489.26 532.5C472.2 534.66 454.81 535.78 437.17 535.78C404.19 535.78 372.13 531.88 341.41 524.52C299.85 560.91 245.43 582.97 185.85 582.97Z" id="c91Q7RwS6"></path><path d="M489.26 404.5L489.26 342.43L525.12 342.43C525.12 371.93 525.12 388.32 525.12 391.6C525.12 398.72 519.34 404.5 512.21 404.5C509.15 404.5 501.5 404.5 489.26 404.5Z" id="amrdbIR0L"></path><path d="M512.95 365.29C512.95 378.37 502.34 388.98 489.26 388.98C489.26 388.98 489.26 388.98 489.26 388.98L489.26 404.5C502.98 404.5 510.6 404.5 512.13 404.5C519.3 404.5 525.12 398.68 525.12 391.51C525.12 388.24 525.12 371.88 525.12 342.43L512.95 342.43C512.95 356.14 512.95 363.76 512.95 365.29Z" id="c19lB07XOB"></path><path d="M449.67 34.92L450.25 34.98L450.83 35.06L451.39 35.17L451.95 35.29L452.5 35.44L453.04 35.61L453.57 35.8L454.1 36.01L454.61 36.24L455.11 36.48L455.6 36.75L456.08 37.04L456.54 37.34L457 37.66L457.44 37.99L457.86 38.35L458.28 38.72L458.68 39.1L459.06 39.5L459.43 39.91L459.78 40.34L460.12 40.78L460.44 41.23L460.74 41.7L461.02 42.18L461.29 42.67L461.54 43.17L461.77 43.68L461.98 44.2L462.17 44.73L462.33 45.28L462.48 45.83L462.61 46.38L462.71 46.95L462.79 47.52L462.85 48.1L462.89 48.69L462.9 49.28L462.9 61.42L462.89 61.81L462.87 62.2L462.83 62.58L462.78 62.95L462.71 63.33L462.63 63.69L462.53 64.05L462.42 64.41L462.3 64.75L462.16 65.1L462.01 65.43L461.85 65.76L461.67 66.08L461.49 66.39L461.29 66.7L461.08 67L460.86 67.28L460.63 67.56L460.39 67.83L460.14 68.1L459.88 68.35L459.61 68.59L459.33 68.82L459.04 69.04L458.74 69.25L458.44 69.45L458.12 69.63L457.8 69.81L457.47 69.97L457.14 70.12L456.8 70.26L456.45 70.38L456.09 70.49L455.73 70.59L455.37 70.67L455 70.74L454.62 70.79L454.24 70.83L453.85 70.85L453.47 70.86L453.08 70.85L452.69 70.83L452.31 70.79L451.93 70.74L451.56 70.67L451.2 70.59L450.84 70.49L450.48 70.38L450.13 70.26L449.79 70.12L449.46 69.97L449.13 69.81L448.81 69.63L448.49 69.45L448.19 69.25L447.89 69.04L447.6 68.82L447.32 68.59L447.05 68.35L446.79 68.1L446.54 67.84L446.3 67.57L446.07 67.29L445.85 67L445.64 66.7L445.44 66.39L445.26 66.08L445.08 65.76L444.92 65.43L444.77 65.1L444.63 64.76L444.51 64.41L444.4 64.05L444.3 63.69L444.22 63.33L444.15 62.95L444.1 62.58L444.06 62.2L444.04 61.81L444.03 61.42L444.03 53.75L170.92 53.75L170.92 166.53L444.03 166.53L444.03 99.17L444.04 98.78L444.06 98.4L444.1 98.02L444.15 97.64L444.22 97.27L444.3 96.9L444.4 96.54L444.51 96.19L444.63 95.84L444.77 95.5L444.92 95.16L445.08 94.83L445.26 94.51L445.44 94.2L445.64 93.89L445.85 93.6L446.07 93.31L446.3 93.03L446.54 92.76L446.79 92.5L447.06 92.25L447.33 92.01L447.61 91.77L447.89 91.55L448.19 91.35L448.5 91.15L448.81 90.96L449.13 90.79L449.46 90.62L449.79 90.48L450.14 90.34L450.48 90.21L450.84 90.1L451.2 90.01L451.56 89.93L451.94 89.86L452.31 89.8L452.69 89.76L453.08 89.74L453.47 89.73L453.86 89.74L454.24 89.76L454.62 89.8L455 89.86L455.37 89.93L455.73 90.01L456.09 90.1L456.45 90.21L456.8 90.34L457.14 90.47L457.47 90.62L457.8 90.79L458.12 90.96L458.44 91.15L458.74 91.34L459.04 91.55L459.33 91.77L459.61 92L459.88 92.25L460.14 92.5L460.39 92.76L460.63 93.03L460.86 93.31L461.08 93.6L461.29 93.89L461.49 94.2L461.68 94.51L461.85 94.83L462.01 95.16L462.16 95.5L462.3 95.84L462.42 96.19L462.53 96.54L462.63 96.9L462.71 97.27L462.78 97.64L462.83 98.02L462.87 98.4L462.89 98.78L462.9 99.17L462.9 320L462.89 320.39L462.87 320.77L462.83 321.15L462.78 321.53L462.71 321.9L462.63 322.27L462.53 322.63L462.42 322.98L462.3 323.33L462.16 323.67L462.01 324.01L461.85 324.34L461.67 324.66L461.49 324.97L461.29 325.28L461.08 325.57L460.86 325.86L460.63 326.14L460.39 326.41L460.14 326.67L459.88 326.92L459.61 327.16L459.33 327.4L459.04 327.62L458.74 327.82L458.44 328.02L458.12 328.21L457.8 328.38L457.47 328.54L457.14 328.69L456.8 328.83L456.45 328.95L456.09 329.06L455.73 329.16L455.37 329.24L455 329.31L454.62 329.37L454.24 329.4L453.85 329.43L453.47 329.44L161.48 329.44L161.1 329.43L160.71 329.4L160.33 329.37L159.95 329.31L159.58 329.24L159.22 329.16L158.86 329.06L158.5 328.95L158.15 328.83L157.81 328.69L157.48 328.54L157.15 328.38L156.83 328.21L156.51 328.02L156.21 327.82L155.91 327.62L155.62 327.4L155.34 327.16L155.07 326.92L154.81 326.67L154.56 326.41L154.32 326.14L154.09 325.86L153.87 325.57L153.66 325.28L153.46 324.97L153.28 324.66L153.1 324.34L152.94 324.01L152.79 323.67L152.65 323.33L152.53 322.98L152.42 322.63L152.32 322.27L152.24 321.9L152.17 321.53L152.12 321.15L152.08 320.77L152.06 320.39L152.05 320L152.05 49.28L152.06 48.69L152.1 48.1L152.16 47.52L152.24 46.95L152.34 46.38L152.47 45.83L152.62 45.28L152.78 44.73L152.97 44.2L153.18 43.68L153.41 43.17L153.66 42.67L153.93 42.18L154.21 41.7L154.51 41.23L154.83 40.78L155.17 40.34L155.52 39.91L155.89 39.5L156.27 39.1L156.67 38.72L157.09 38.35L157.51 37.99L157.95 37.66L158.41 37.34L158.87 37.04L159.35 36.75L159.84 36.48L160.34 36.24L160.85 36.01L161.38 35.8L161.91 35.61L162.45 35.44L163 35.29L163.56 35.17L164.12 35.06L164.7 34.98L165.28 34.92L165.87 34.89L166.46 34.87L448.49 34.87L449.08 34.89L449.67 34.92ZM170.92 310.56L444.03 310.56L444.03 185.4L170.92 185.4L170.92 310.56Z" id="aE6dAlu9"></path><path d="M224.74 301.76C229.95 301.76 234.17 297.54 234.17 292.33C234.17 287.11 229.95 282.89 224.74 282.89C223.24 282.89 215.73 282.89 202.21 282.89L202.21 217.17L412.74 217.17L412.74 282.89C324.02 282.89 274.73 282.89 264.87 282.89C259.66 282.89 255.44 287.12 255.44 292.33C255.44 297.54 259.66 301.76 264.87 301.76C280.6 301.76 406.45 301.76 422.18 301.76C427.39 301.76 431.61 297.54 431.61 292.33C431.61 283.87 431.61 216.19 431.61 207.74C431.61 202.52 427.39 198.3 422.18 198.3C399.24 198.3 215.71 198.3 192.77 198.3C187.56 198.3 183.34 202.52 183.34 207.74C183.34 216.19 183.34 283.87 183.34 292.33C183.34 297.54 187.56 301.76 192.77 301.76C199.17 301.76 221.54 301.76 224.74 301.76Z" id="abruQbquW"></path><path d="M455.09 0.16L457 0.35L458.89 0.62L460.76 0.97L462.6 1.38L464.41 1.87L466.19 2.43L467.95 3.05L469.67 3.74L471.35 4.49L473.01 5.31L474.62 6.19L476.2 7.13L477.73 8.12L479.23 9.18L480.68 10.29L482.09 11.45L483.45 12.66L484.77 13.93L486.03 15.24L487.25 16.6L488.41 18.01L489.52 19.47L490.57 20.96L491.57 22.5L492.51 24.07L493.39 25.69L494.2 27.34L494.96 29.03L495.65 30.75L496.27 32.5L496.83 34.29L497.31 36.1L497.73 37.94L498.07 39.81L498.34 41.7L498.54 43.61L498.66 45.55L498.7 47.5L498.7 264.78L519.36 286.05L520.09 286.82L520.8 287.59L521.49 288.38L522.17 289.17L522.83 289.98L523.47 290.8L524.09 291.63L524.7 292.47L525.29 293.32L525.87 294.18L526.42 295.05L526.96 295.93L527.48 296.82L527.99 297.72L528.47 298.62L528.94 299.54L529.39 300.46L529.82 301.39L530.24 302.33L530.63 303.28L531.01 304.24L531.37 305.2L531.71 306.17L532.03 307.14L532.33 308.13L532.61 309.12L532.88 310.11L533.12 311.11L533.35 312.12L533.56 313.13L533.74 314.15L533.91 315.17L534.06 316.19L534.19 317.22L534.3 318.26L534.39 319.3L534.46 320.34L534.51 321.39L534.54 322.44L534.55 323.49L534.55 391.51L534.54 392.15L534.52 392.78L534.47 393.41L534.41 394.04L534.33 394.66L534.24 395.27L534.12 395.88L534 396.49L533.85 397.08L533.69 397.67L533.51 398.26L533.32 398.83L533.12 399.41L532.89 399.97L532.66 400.52L532.41 401.07L532.14 401.61L531.86 402.14L531.57 402.67L531.27 403.18L530.95 403.69L530.61 404.18L530.27 404.67L529.91 405.15L529.54 405.62L529.16 406.07L528.77 406.52L528.36 406.96L527.95 407.38L527.52 407.8L527.08 408.2L526.63 408.59L526.17 408.97L525.7 409.34L525.23 409.7L524.74 410.04L524.24 410.37L523.73 410.69L523.22 410.99L522.69 411.28L537.43 508.99L537.63 510.19L537.87 511.37L538.16 512.54L538.48 513.69L538.85 514.82L539.25 515.92L539.68 517.01L540.16 518.08L540.67 519.12L541.21 520.14L541.79 521.14L542.4 522.11L543.05 523.06L543.72 523.99L544.43 524.88L545.17 525.75L545.93 526.6L546.73 527.41L547.55 528.2L548.4 528.95L549.27 529.68L550.17 530.38L551.09 531.04L552.04 531.67L553.01 532.27L554.01 532.83L555.02 533.36L556.05 533.86L557.11 534.32L558.18 534.74L559.27 535.13L560.38 535.48L561.51 535.79L562.65 536.06L563.8 536.29L564.97 536.48L566.15 536.63L567.35 536.74L568.56 536.8L569.77 536.82L582.78 536.82L584.91 536.87L587.01 537L589.09 537.21L591.14 537.5L593.17 537.87L595.17 538.33L597.14 538.85L599.07 539.46L600.98 540.14L602.85 540.88L604.68 541.7L606.47 542.59L608.23 543.54L609.94 544.56L611.61 545.65L613.23 546.79L614.81 547.99L616.34 549.26L617.82 550.58L619.25 551.95L620.62 553.38L621.94 554.86L623.2 556.39L624.41 557.96L625.55 559.59L626.63 561.26L627.65 562.97L628.61 564.72L629.49 566.52L630.31 568.35L631.06 570.22L631.74 572.12L632.34 574.06L632.87 576.03L633.32 578.03L633.69 580.06L633.99 582.11L634.2 584.19L634.33 586.29L634.37 588.41L634.33 590.54L634.2 592.64L633.99 594.72L633.69 596.77L633.32 598.8L632.87 600.79L632.34 602.76L631.74 604.7L631.06 606.6L630.31 608.47L629.49 610.31L628.6 612.1L627.65 613.85L626.63 615.57L625.55 617.24L624.4 618.86L623.2 620.44L621.94 621.97L620.62 623.45L619.24 624.87L617.82 626.25L616.34 627.57L614.81 628.83L613.23 630.03L611.61 631.18L609.94 632.26L608.22 633.28L606.47 634.23L604.68 635.12L602.84 635.94L600.98 636.69L599.07 637.37L597.13 637.97L595.17 638.5L593.17 638.95L591.14 639.32L589.09 639.62L587.01 639.83L584.91 639.96L582.78 640L125.69 640L125.3 639.99L124.92 639.97L124.54 639.93L124.16 639.88L123.79 639.81L123.42 639.73L123.06 639.63L122.71 639.52L122.36 639.4L122.02 639.26L121.68 639.11L121.36 638.95L121.03 638.77L120.72 638.59L120.42 638.39L120.12 638.18L119.83 637.96L119.55 637.73L119.28 637.49L119.02 637.24L118.77 636.98L118.53 636.71L118.3 636.43L118.08 636.14L117.87 635.84L117.67 635.53L117.48 635.22L117.31 634.9L117.15 634.57L117 634.24L116.86 633.9L116.74 633.55L116.63 633.19L116.53 632.83L116.45 632.47L116.38 632.09L116.33 631.72L116.29 631.34L116.26 630.95L116.26 630.56L116.26 47.5L116.3 45.55L116.41 43.61L116.61 41.7L116.88 39.81L117.22 37.94L117.64 36.1L118.13 34.29L118.68 32.5L119.3 30.75L119.99 29.03L120.75 27.34L121.57 25.69L122.44 24.07L123.38 22.5L124.38 20.96L125.43 19.47L126.54 18.01L127.7 16.6L128.92 15.24L130.18 13.93L131.5 12.66L132.86 11.45L134.27 10.29L135.72 9.18L137.22 8.12L138.75 7.13L140.33 6.19L141.95 5.31L143.6 4.49L145.28 3.74L147.01 3.05L148.76 2.43L150.54 1.87L152.36 1.38L154.2 0.97L156.06 0.62L157.95 0.35L159.87 0.16L161.8 0.04L163.76 0L451.2 0L453.15 0.04L455.09 0.16ZM162.58 18.9L161.41 18.97L160.26 19.09L159.12 19.25L157.99 19.46L156.88 19.71L155.79 20L154.72 20.34L153.66 20.71L152.62 21.13L151.61 21.58L150.61 22.07L149.64 22.6L148.69 23.17L147.76 23.77L146.86 24.4L145.98 25.07L145.14 25.77L144.31 26.51L143.52 27.27L142.76 28.06L142.03 28.88L141.33 29.73L140.66 30.6L140.02 31.51L139.42 32.43L138.86 33.38L138.33 34.36L137.84 35.35L137.38 36.37L136.97 37.41L136.59 38.46L136.26 39.54L135.96 40.63L135.71 41.74L135.5 42.86L135.34 44L135.22 45.16L135.15 46.32L135.13 47.5L135.13 388.78L138.62 392.74L142.15 396.64L145.74 400.49L149.37 404.3L153.05 408.05L156.78 411.75L160.55 415.4L164.36 419L168.22 422.55L172.13 426.05L176.07 429.49L180.06 432.88L184.1 436.22L188.17 439.5L192.28 442.73L196.44 445.9L200.63 449.02L204.86 452.08L209.14 455.09L213.45 458.04L217.79 460.93L222.18 463.77L226.6 466.55L231.05 469.27L235.54 471.93L240.07 474.54L244.63 477.08L249.22 479.57L253.85 481.99L258.51 484.36L263.2 486.67L267.92 488.91L272.67 491.09L277.45 493.21L282.26 495.27L287.1 497.27L291.97 499.2L296.86 501.07L301.78 502.87L306.73 504.61L307.1 504.75L307.45 504.9L307.8 505.06L308.14 505.23L308.47 505.41L308.79 505.61L309.1 505.82L309.39 506.04L309.68 506.27L309.96 506.51L310.23 506.76L310.49 507.02L310.74 507.29L310.97 507.57L311.19 507.86L311.41 508.15L311.61 508.45L311.8 508.76L311.98 509.08L312.14 509.4L312.29 509.73L312.43 510.06L312.56 510.4L312.67 510.75L312.77 511.1L312.86 511.45L312.94 511.81L313 512.17L313.04 512.53L313.08 512.89L313.09 513.26L313.1 513.63L313.09 514L313.06 514.38L313.02 514.75L312.96 515.12L312.89 515.49L312.8 515.87L312.7 516.24L312.58 516.61L312.45 516.97L312.3 517.33L312.14 517.68L311.97 518.02L311.78 518.34L311.58 518.66L311.37 518.97L311.15 519.27L310.92 519.56L310.68 519.84L310.43 520.11L310.17 520.37L309.9 520.61L309.63 520.85L309.34 521.07L309.04 521.29L308.74 521.49L308.43 521.68L308.12 521.85L307.79 522.02L307.47 522.17L307.13 522.31L306.79 522.44L306.45 522.55L306.1 522.65L305.75 522.74L305.39 522.82L305.03 522.88L304.67 522.92L304.3 522.95L303.93 522.97L303.56 522.98L303.19 522.96L302.82 522.94L302.45 522.9L302.07 522.84L301.7 522.77L301.33 522.68L300.96 522.58L300.59 522.46L297.43 521.34L294.22 520.14L290.96 518.87L287.65 517.52L284.3 516.09L280.89 514.58L277.43 512.99L273.92 511.32L270.36 509.58L266.75 507.76L263.09 505.86L259.38 503.88L255.62 501.82L251.81 499.69L247.95 497.48L244.04 495.18L240.08 492.81L236.07 490.37L232.01 487.84L227.9 485.24L223.73 482.56L219.52 479.79L215.26 476.96L210.95 474.04L206.59 471.04L202.17 467.97L197.71 464.82L193.2 461.59L188.64 458.28L184.02 454.9L179.36 451.43L174.65 447.89L169.88 444.27L165.07 440.57L160.2 436.79L155.29 432.94L150.32 429L145.31 424.99L140.24 420.9L135.13 416.73L135.13 621.13L479.82 621.13L479.82 543.07L478.76 543.17L477.7 543.28L476.64 543.38L475.58 543.47L474.52 543.57L473.45 543.66L472.39 543.75L471.33 543.84L470.26 543.92L469.2 544L468.13 544.08L467.07 544.16L466 544.23L464.93 544.3L463.87 544.37L462.8 544.44L461.73 544.5L460.67 544.56L459.6 544.62L458.53 544.67L457.46 544.73L456.4 544.78L455.33 544.82L454.26 544.87L453.19 544.91L452.12 544.95L451.05 544.99L449.98 545.02L448.92 545.05L447.85 545.08L446.78 545.1L445.71 545.13L444.64 545.15L443.57 545.16L442.51 545.18L441.44 545.19L440.37 545.2L439.3 545.21L438.23 545.21L437.17 545.21L434.69 545.21L432.2 545.18L429.72 545.15L427.24 545.1L424.76 545.03L422.29 544.95L419.81 544.86L417.33 544.75L414.86 544.63L412.38 544.49L409.91 544.34L407.44 544.17L404.97 543.99L402.5 543.79L400.04 543.58L397.57 543.36L395.11 543.12L392.65 542.87L390.19 542.6L387.74 542.32L385.28 542.03L382.83 541.72L380.38 541.39L377.94 541.05L375.49 540.7L373.05 540.33L370.62 539.95L368.18 539.56L365.75 539.15L363.32 538.72L360.89 538.29L358.47 537.83L356.05 537.37L353.63 536.89L351.22 536.39L348.81 535.88L346.4 535.36L344 534.82L341.6 534.27L339.21 533.7L338.83 533.61L338.46 533.49L338.1 533.37L337.75 533.23L337.4 533.07L337.07 532.91L336.74 532.73L336.42 532.54L336.11 532.34L335.81 532.13L335.52 531.9L335.24 531.67L334.97 531.42L334.7 531.17L334.45 530.91L334.21 530.63L333.98 530.35L333.77 530.06L333.56 529.77L333.36 529.46L333.18 529.15L333.01 528.83L332.85 528.5L332.7 528.17L332.57 527.84L332.45 527.49L332.34 527.14L332.24 526.79L332.16 526.43L332.1 526.07L332.04 525.71L332 525.34L331.98 524.97L331.97 524.6L331.97 524.22L331.99 523.85L332.03 523.47L332.08 523.09L332.15 522.71L332.23 522.33L332.33 521.95L332.44 521.58L332.57 521.22L332.71 520.87L332.86 520.52L333.02 520.19L333.2 519.86L333.39 519.54L333.59 519.23L333.81 518.93L334.03 518.64L334.26 518.36L334.51 518.09L334.76 517.82L335.03 517.57L335.3 517.33L335.58 517.1L335.87 516.89L336.17 516.68L336.47 516.48L336.78 516.3L337.1 516.13L337.43 515.97L337.76 515.82L338.1 515.69L338.44 515.57L338.79 515.46L339.14 515.36L339.5 515.28L339.86 515.22L340.22 515.16L340.59 515.12L340.96 515.1L341.34 515.09L341.71 515.09L342.09 515.11L342.47 515.15L342.84 515.2L343.22 515.27L343.6 515.35L345.89 515.89L348.18 516.42L350.47 516.93L352.77 517.43L355.07 517.91L357.38 518.39L359.69 518.85L362 519.29L364.31 519.72L366.63 520.14L368.95 520.55L371.27 520.94L373.6 521.32L375.93 521.68L378.26 522.03L380.59 522.37L382.93 522.69L385.27 523L387.61 523.3L389.95 523.58L392.3 523.85L394.64 524.1L396.99 524.34L399.35 524.57L401.7 524.78L404.06 524.98L406.41 525.17L408.77 525.34L411.13 525.5L413.49 525.65L415.86 525.78L418.22 525.9L420.58 526L422.95 526.09L425.32 526.17L427.69 526.23L430.06 526.28L432.43 526.31L434.8 526.33L437.17 526.34L438.24 526.34L439.3 526.33L440.37 526.33L441.44 526.32L442.51 526.3L443.58 526.29L444.65 526.27L445.71 526.25L446.78 526.22L447.85 526.2L448.92 526.17L449.99 526.13L451.06 526.1L452.13 526.06L453.2 526.02L454.27 525.97L455.34 525.93L456.4 525.88L457.47 525.83L458.54 525.77L459.61 525.71L460.68 525.65L461.74 525.59L462.81 525.52L463.88 525.45L464.94 525.38L466.01 525.31L467.08 525.23L468.14 525.15L469.21 525.06L470.27 524.98L471.33 524.89L472.4 524.8L473.46 524.7L474.52 524.61L475.58 524.51L476.64 524.41L477.7 524.3L478.76 524.19L479.82 524.08L479.82 47.5L479.8 46.32L479.73 45.16L479.61 44L479.45 42.86L479.24 41.74L478.99 40.63L478.69 39.54L478.36 38.46L477.98 37.41L477.57 36.37L477.11 35.35L476.62 34.36L476.09 33.38L475.53 32.43L474.93 31.51L474.29 30.6L473.62 29.73L472.92 28.88L472.19 28.06L471.43 27.27L470.63 26.51L469.81 25.77L468.97 25.07L468.09 24.4L467.19 23.77L466.26 23.17L465.31 22.6L464.34 22.07L463.34 21.58L462.33 21.13L461.29 20.71L460.23 20.34L459.16 20L458.07 19.71L456.96 19.46L455.83 19.25L454.69 19.09L453.54 18.97L452.37 18.9L451.19 18.87L163.76 18.87L162.58 18.9ZM498.7 621.13L582.78 621.13L584.13 621.1L585.46 621.02L586.78 620.88L588.08 620.7L589.37 620.46L590.64 620.17L591.89 619.84L593.11 619.45L594.32 619.03L595.51 618.55L596.67 618.03L597.81 617.47L598.92 616.86L600 616.22L601.06 615.53L602.09 614.8L603.09 614.04L604.06 613.24L605 612.4L605.91 611.53L606.78 610.63L607.61 609.69L608.41 608.72L609.18 607.72L609.9 606.69L610.59 605.63L611.24 604.54L611.84 603.43L612.4 602.29L612.92 601.13L613.4 599.95L613.83 598.74L614.21 597.51L614.55 596.26L614.83 595L615.07 593.71L615.26 592.41L615.39 591.09L615.47 589.76L615.5 588.41L615.47 587.06L615.39 585.73L615.26 584.41L615.07 583.11L614.83 581.83L614.55 580.56L614.21 579.31L613.83 578.08L613.4 576.87L612.92 575.69L612.4 574.53L611.84 573.39L611.24 572.28L610.59 571.19L609.9 570.13L609.18 569.1L608.41 568.1L607.61 567.13L606.78 566.19L605.91 565.29L605 564.42L604.06 563.58L603.09 562.78L602.09 562.02L601.06 561.29L600 560.6L598.92 559.96L597.81 559.35L596.67 558.79L595.51 558.27L594.32 557.8L593.11 557.37L591.89 556.98L590.64 556.65L589.37 556.36L588.08 556.13L586.78 555.94L585.46 555.81L584.13 555.72L582.78 555.7L569.77 555.7L567.85 555.66L565.95 555.56L564.07 555.39L562.2 555.15L560.36 554.85L558.53 554.49L556.74 554.06L554.96 553.57L553.21 553.02L551.49 552.41L549.8 551.75L548.14 551.02L546.51 550.24L544.91 549.41L543.34 548.51L541.81 547.57L540.32 546.58L538.86 545.53L537.44 544.43L536.06 543.29L534.73 542.09L533.43 540.86L532.18 539.57L530.97 538.24L529.81 536.87L528.69 535.45L527.63 534L526.61 532.5L525.65 530.97L524.74 529.39L523.88 527.78L523.07 526.13L522.33 524.45L521.64 522.74L521 520.99L520.43 519.21L519.92 517.4L519.47 515.56L519.09 513.7L518.77 511.8L504.01 413.94L498.7 413.94L498.7 621.13ZM498.69 395.06L512.13 395.06L512.38 395.06L512.63 395.03L512.87 394.99L513.11 394.93L513.34 394.85L513.56 394.76L513.78 394.66L513.99 394.54L514.18 394.41L514.37 394.26L514.55 394.1L514.72 393.94L514.88 393.76L515.02 393.57L515.15 393.37L515.27 393.16L515.38 392.95L515.47 392.72L515.54 392.49L515.6 392.26L515.64 392.01L515.67 391.76L515.68 391.51L515.68 351.86L498.7 351.86L498.69 395.06ZM515.68 332.99L515.68 323.49L515.66 322.56L515.58 321.61L515.46 320.62L515.29 319.6L515.06 318.55L514.79 317.48L514.47 316.37L514.1 315.23L513.68 314.06L513.22 312.86L512.7 311.63L512.13 310.37L511.52 309.08L510.85 307.76L510.14 306.41L509.37 305.03L508.56 303.62L507.7 302.18L506.79 300.71L505.83 299.21L498.7 291.87L498.7 332.99L515.68 332.99Z" id="aMXeg25xo"></path><path d="M224.74 229.11C219.53 229.11 215.3 233.34 215.3 238.55C215.3 243.76 219.53 247.99 224.74 247.99C229.95 247.99 234.18 243.76 234.18 238.55C234.18 233.34 229.95 229.11 224.74 229.11Z" id="b3a8JuLsEc"></path><path d="M224.74 253.54C219.53 253.54 215.3 257.76 215.3 262.97C215.3 268.19 219.53 272.41 224.74 272.41C229.95 272.41 234.18 268.19 234.18 262.97C234.18 257.76 229.95 253.54 224.74 253.54Z" id="b1B2NwGG6d"></path><path d="M250.4 229.11C245.19 229.11 240.97 233.34 240.97 238.55C240.97 243.76 245.19 247.99 250.4 247.99C255.61 247.99 259.84 243.76 259.84 238.55C259.84 233.34 255.61 229.11 250.4 229.11Z" id="a25I2F05Nl"></path><path d="M250.4 253.54C245.19 253.54 240.97 257.76 240.97 262.97C240.97 268.19 245.19 272.41 250.4 272.41C255.61 272.41 259.84 268.19 259.84 262.97C259.84 257.76 255.61 253.54 250.4 253.54Z" id="dgh8QUdIB"></path><path d="M361.71 229.11C356.5 229.11 352.28 233.34 352.28 238.55C352.28 243.76 356.5 247.99 361.71 247.99C366.93 247.99 371.15 243.76 371.15 238.55C371.15 233.34 366.93 229.11 361.71 229.11Z" id="g1ZJ7ikn4I"></path><path d="M361.71 253.54C356.5 253.54 352.28 257.76 352.28 262.97C352.28 268.19 356.5 272.41 361.71 272.41C366.93 272.41 371.15 268.19 371.15 262.97C371.15 257.76 366.93 253.54 361.71 253.54Z" id="dyzW7m0b"></path><path d="M387.38 229.11C382.17 229.11 377.94 233.34 377.94 238.55C377.94 243.76 382.17 247.99 387.38 247.99C392.59 247.99 396.81 243.76 396.81 238.55C396.81 233.34 392.59 229.11 387.38 229.11Z" id="b1DH3ntVp"></path><path d="M387.38 253.54C382.17 253.54 377.94 257.76 377.94 262.97C377.94 268.19 382.17 272.41 387.38 272.41C392.59 272.41 396.81 268.19 396.81 262.97C396.81 257.76 392.59 253.54 387.38 253.54Z" id="ayeKxILKY"></path><path d="M237 69.86L236.46 71.69L236.46 124.89L237 125.42L261.69 110.83L237 69.86Z" id="bLyhu9Rw2"></path><path d="M212.31 110.83L237 125.43L237 69.86L212.31 110.83Z" id="c3wLCMSecN"></path><path d="M237 130.1L236.69 130.47L236.69 149.42L237 150.31L261.7 115.51L237 130.1Z" id="b2lLSGwFqx"></path><path d="M237 150.31L237 130.1L212.31 115.51L237 150.31Z" id="b1deG6W3rd"></path><path d="M237 125.43L261.69 110.83L237 99.61L237 125.43" id="b23OPYq1yV"></path><path d="M212.31 110.83L237 125.43L237 99.61" id="b1wC1NMtEq"></path><path d="M303.52 69.86L302.98 71.69L302.98 124.89L303.52 125.42L328.21 110.83L303.52 69.86Z" id="b10WIM4JBi"></path><path d="M278.83 110.83L303.52 125.43L303.52 69.86L278.83 110.83Z" id="d5RnibHDW7"></path><path d="M303.52 130.1L303.21 130.47L303.21 149.42L303.52 150.31L328.22 115.51L303.52 130.1Z" id="f6mrvGebjL"></path><path d="M303.52 150.31L303.52 130.1L278.83 115.51L303.52 150.31Z" id="g921w0qzgM"></path><path d="M303.52 125.43L328.21 110.83L303.52 99.61L303.52 125.43" id="a2D8nsvJtT"></path><path d="M278.83 110.83L303.52 125.43L303.52 99.61" id="a4PvSEVzf"></path><path d="M369.42 69.86L368.88 71.69L368.88 124.89L369.42 125.42L394.11 110.83L369.42 69.86Z" id="i1TCSoRvTD"></path><path d="M344.73 110.83L369.42 125.43L369.42 69.86L344.73 110.83Z" id="a6i75Pilqr"></path><path d="M369.42 130.1L369.11 130.47L369.11 149.42L369.42 150.31L394.12 115.51L369.42 130.1Z" id="dsOwjZ6T4"></path><path d="M369.42 150.31L369.42 130.1L344.73 115.51L369.42 150.31Z" id="gYxscAe9i"></path><path d="M369.42 125.43L394.11 110.83L369.42 99.61L369.42 125.43" id="b2qbAP6blN"></path><path d="M344.73 110.83L369.42 125.43L369.42 99.61" id="a5EyaSzFMP"></path></defs><g><g><g><use xlink:href="#f4Hxe8Lm3" opacity="1" fill="#e6e9ed" fill-opacity="1"></use><g><use xlink:href="#f4Hxe8Lm3" opacity="1" fill-opacity="0" stroke="#000000" stroke-width="1" stroke-opacity="0"></use></g></g><g><use xlink:href="#dT1n3hQC" opacity="1" fill="#cfd2dc" fill-opacity="1"></use><g><use xlink:href="#dT1n3hQC" opacity="1" fill-opacity="0" stroke="#000000" stroke-width="1" stroke-opacity="0"></use></g></g><g><use xlink:href="#c1Fp7TNA8" opacity="1" fill="#3b4f66" fill-opacity="1"></use><g><use xlink:href="#c1Fp7TNA8" opacity="1" fill-opacity="0" stroke="#000000" stroke-width="1" stroke-opacity="0"></use></g></g><g><use xlink:href="#asOi05s3n" opacity="1" fill="#fdc74f" fill-opacity="1"></use><g><use xlink:href="#asOi05s3n" opacity="1" fill-opacity="0" stroke="#000000" stroke-width="1" stroke-opacity="0"></use></g></g><g><use xlink:href="#auNGoH18a" opacity="1" fill="#ea5d55" fill-opacity="1"></use><g><use xlink:href="#auNGoH18a" opacity="1" fill-opacity="0" stroke="#000000" stroke-width="1" stroke-opacity="0"></use></g></g><g><use xlink:href="#c91Q7RwS6" opacity="1" fill="#d82a36" fill-opacity="1"></use><g><use xlink:href="#c91Q7RwS6" opacity="1" fill-opacity="0" stroke="#000000" stroke-width="1" stroke-opacity="0"></use></g></g><g><use xlink:href="#amrdbIR0L" opacity="1" fill="#ea5d55" fill-opacity="1"></use><g><use xlink:href="#amrdbIR0L" opacity="1" fill-opacity="0" stroke="#000000" stroke-width="1" stroke-opacity="0"></use></g></g><g><use xlink:href="#c19lB07XOB" opacity="1" fill="#d82a36" fill-opacity="1"></use><g><use xlink:href="#c19lB07XOB" opacity="1" fill-opacity="0" stroke="#000000" stroke-width="1" stroke-opacity="0"></use></g></g><g><use xlink:href="#aE6dAlu9" opacity="1" fill="#000000" fill-opacity="1"></use><g><use xlink:href="#aE6dAlu9" opacity="1" fill-opacity="0" stroke="#000000" stroke-width="1" stroke-opacity="0"></use></g></g><g><use xlink:href="#abruQbquW" opacity="1" fill="#000000" fill-opacity="1"></use><g><use xlink:href="#abruQbquW" opacity="1" fill-opacity="0" stroke="#000000" stroke-width="1" stroke-opacity="0"></use></g></g><g><use xlink:href="#aMXeg25xo" opacity="1" fill="#000000" fill-opacity="1"></use><g><use xlink:href="#aMXeg25xo" opacity="1" fill-opacity="0" stroke="#000000" stroke-width="1" stroke-opacity="0"></use></g></g><g><use xlink:href="#b3a8JuLsEc" opacity="1" fill="#000000" fill-opacity="1"></use><g><use xlink:href="#b3a8JuLsEc" opacity="1" fill-opacity="0" stroke="#000000" stroke-width="1" stroke-opacity="0"></use></g></g><g><use xlink:href="#b1B2NwGG6d" opacity="1" fill="#000000" fill-opacity="1"></use><g><use xlink:href="#b1B2NwGG6d" opacity="1" fill-opacity="0" stroke="#000000" stroke-width="1" stroke-opacity="0"></use></g></g><g><use xlink:href="#a25I2F05Nl" opacity="1" fill="#000000" fill-opacity="1"></use><g><use xlink:href="#a25I2F05Nl" opacity="1" fill-opacity="0" stroke="#000000" stroke-width="1" stroke-opacity="0"></use></g></g><g><use xlink:href="#dgh8QUdIB" opacity="1" fill="#000000" fill-opacity="1"></use><g><use xlink:href="#dgh8QUdIB" opacity="1" fill-opacity="0" stroke="#000000" stroke-width="1" stroke-opacity="0"></use></g></g><g><use xlink:href="#g1ZJ7ikn4I" opacity="1" fill="#000000" fill-opacity="1"></use><g><use xlink:href="#g1ZJ7ikn4I" opacity="1" fill-opacity="0" stroke="#000000" stroke-width="1" stroke-opacity="0"></use></g></g><g><use xlink:href="#dyzW7m0b" opacity="1" fill="#000000" fill-opacity="1"></use><g><use xlink:href="#dyzW7m0b" opacity="1" fill-opacity="0" stroke="#000000" stroke-width="1" stroke-opacity="0"></use></g></g><g><use xlink:href="#b1DH3ntVp" opacity="1" fill="#000000" fill-opacity="1"></use><g><use xlink:href="#b1DH3ntVp" opacity="1" fill-opacity="0" stroke="#000000" stroke-width="1" stroke-opacity="0"></use></g></g><g><use xlink:href="#ayeKxILKY" opacity="1" fill="#000000" fill-opacity="1"></use><g><use xlink:href="#ayeKxILKY" opacity="1" fill-opacity="0" stroke="#000000" stroke-width="1" stroke-opacity="0"></use></g></g><g><g><g><use xlink:href="#bLyhu9Rw2" opacity="1" fill="#343434" fill-opacity="1"></use><g><use xlink:href="#bLyhu9Rw2" opacity="1" fill-opacity="0" stroke="#000000" stroke-width="1" stroke-opacity="0"></use></g></g><g><use xlink:href="#c3wLCMSecN" opacity="1" fill="#8c8c8c" fill-opacity="1"></use><g><use xlink:href="#c3wLCMSecN" opacity="1" fill-opacity="0" stroke="#000000" stroke-width="1" stroke-opacity="0"></use></g></g><g><use xlink:href="#b2lLSGwFqx" opacity="1" fill="#3c3c3b" fill-opacity="1"></use><g><use xlink:href="#b2lLSGwFqx" opacity="1" fill-opacity="0" stroke="#000000" stroke-width="1" stroke-opacity="0"></use></g></g><g><use xlink:href="#b1deG6W3rd" opacity="1" fill="#8c8c8c" fill-opacity="1"></use><g><use xlink:href="#b1deG6W3rd" opacity="1" fill-opacity="0" stroke="#000000" stroke-width="1" stroke-opacity="0"></use></g></g><g><use xlink:href="#b23OPYq1yV" opacity="1" fill="#141414" fill-opacity="1"></use><g><use xlink:href="#b23OPYq1yV" opacity="1" fill-opacity="0" stroke="#000000" stroke-width="1" stroke-opacity="0"></use></g></g><g><use xlink:href="#b1wC1NMtEq" opacity="1" fill="#393939" fill-opacity="1"></use><g><use xlink:href="#b1wC1NMtEq" opacity="1" fill-opacity="0" stroke="#000000" stroke-width="1" stroke-opacity="0"></use></g></g></g><g><g><use xlink:href="#b10WIM4JBi" opacity="1" fill="#343434" fill-opacity="1"></use><g><use xlink:href="#b10WIM4JBi" opacity="1" fill-opacity="0" stroke="#000000" stroke-width="1" stroke-opacity="0"></use></g></g><g><use xlink:href="#d5RnibHDW7" opacity="1" fill="#8c8c8c" fill-opacity="1"></use><g><use xlink:href="#d5RnibHDW7" opacity="1" fill-opacity="0" stroke="#000000" stroke-width="1" stroke-opacity="0"></use></g></g><g><use xlink:href="#f6mrvGebjL" opacity="1" fill="#3c3c3b" fill-opacity="1"></use><g><use xlink:href="#f6mrvGebjL" opacity="1" fill-opacity="0" stroke="#000000" stroke-width="1" stroke-opacity="0"></use></g></g><g><use xlink:href="#g921w0qzgM" opacity="1" fill="#8c8c8c" fill-opacity="1"></use><g><use xlink:href="#g921w0qzgM" opacity="1" fill-opacity="0" stroke="#000000" stroke-width="1" stroke-opacity="0"></use></g></g><g><use xlink:href="#a2D8nsvJtT" opacity="1" fill="#141414" fill-opacity="1"></use><g><use xlink:href="#a2D8nsvJtT" opacity="1" fill-opacity="0" stroke="#000000" stroke-width="1" stroke-opacity="0"></use></g></g><g><use xlink:href="#a4PvSEVzf" opacity="1" fill="#393939" fill-opacity="1"></use><g><use xlink:href="#a4PvSEVzf" opacity="1" fill-opacity="0" stroke="#000000" stroke-width="1" stroke-opacity="0"></use></g></g></g><g><g><use xlink:href="#i1TCSoRvTD" opacity="1" fill="#343434" fill-opacity="1"></use><g><use xlink:href="#i1TCSoRvTD" opacity="1" fill-opacity="0" stroke="#000000" stroke-width="1" stroke-opacity="0"></use></g></g><g><use xlink:href="#a6i75Pilqr" opacity="1" fill="#8c8c8c" fill-opacity="1"></use><g><use xlink:href="#a6i75Pilqr" opacity="1" fill-opacity="0" stroke="#000000" stroke-width="1" stroke-opacity="0"></use></g></g><g><use xlink:href="#dsOwjZ6T4" opacity="1" fill="#3c3c3b" fill-opacity="1"></use><g><use xlink:href="#dsOwjZ6T4" opacity="1" fill-opacity="0" stroke="#000000" stroke-width="1" stroke-opacity="0"></use></g></g><g><use xlink:href="#gYxscAe9i" opacity="1" fill="#8c8c8c" fill-opacity="1"></use><g><use xlink:href="#gYxscAe9i" opacity="1" fill-opacity="0" stroke="#000000" stroke-width="1" stroke-opacity="0"></use></g></g><g><use xlink:href="#b2qbAP6blN" opacity="1" fill="#141414" fill-opacity="1"></use><g><use xlink:href="#b2qbAP6blN" opacity="1" fill-opacity="0" stroke="#000000" stroke-width="1" stroke-opacity="0"></use></g></g><g><use xlink:href="#a5EyaSzFMP" opacity="1" fill="#393939" fill-opacity="1"></use><g><use xlink:href="#a5EyaSzFMP" opacity="1" fill-opacity="0" stroke="#000000" stroke-width="1" stroke-opacity="0"></use></g></g></g></g></g></g></svg>