<?xml version="1.0" encoding="UTF-8" standalone="no"?>
<!DOCTYPE svg PUBLIC "-//W3C//DTD SVG 1.1//EN" "http://www.w3.org/Graphics/SVG/1.1/DTD/svg11.dtd">
<svg version="1.1" xmlns="http://www.w3.org/2000/svg" xmlns:xlink="http://www.w3.org/1999/xlink" preserveAspectRatio="xMidYMid meet" viewBox="0 0 640 640" width="640" height="640"><defs><path d="M563.98 290.75C542.37 297.55 508.92 291.55 484.09 291.55C462.71 291.55 442.61 255.53 418.86 255.53C266.72 255.53 80.4 255.53 43.3 255.53C21.84 255.53 4.39 272.98 4.39 294.44C4.39 306.3 4.39 401.17 4.39 413.02C4.39 434.48 21.84 451.94 43.3 451.94C77.88 451.94 354.59 451.94 389.18 451.94C394.29 451.94 398.44 447.79 398.44 442.67C398.44 437.55 394.29 433.41 389.18 433.41C354.59 433.41 77.88 433.41 43.3 433.41C32.06 433.41 22.91 424.26 22.91 413.02C22.91 401.17 22.91 306.3 22.91 294.44C22.91 283.2 32.06 274.06 43.3 274.06C79.75 274.06 284.31 274.06 435.5 274.06C462.18 274.06 482.7 294.44 504.84 294.44C547.68 294.44 584.25 274.06 596.7 274.06C598.79 274.06 600.8 274.37 602.7 274.96C604.64 275.55 606.45 276.43 608.09 277.54C613.51 281.21 617.09 287.41 617.09 294.44C617.09 303.33 617.09 374.48 617.09 383.38C617.09 388.49 621.23 392.64 626.35 392.64C631.47 392.64 635.61 388.49 635.61 383.38C635.61 374.48 635.61 303.33 635.61 294.44C635.61 280.38 628.13 268.05 616.93 261.21C611.03 257.6 608.72 266.22 601.32 266.22C589.86 266.22 582.39 284.97 563.98 290.75Z" id="a2toj1qfPL"></path><path d="M524.07 315.08L527.23 315.4L530.35 315.85L533.43 316.42L536.47 317.1L539.47 317.91L542.41 318.82L545.31 319.85L548.15 320.99L550.93 322.24L553.66 323.59L556.33 325.04L558.93 326.59L561.47 328.23L563.94 329.97L566.34 331.8L568.67 333.72L570.91 335.73L573.08 337.82L575.17 339.99L577.18 342.24L579.1 344.57L580.93 346.96L582.67 349.43L584.32 351.97L585.87 354.58L587.32 357.24L588.67 359.97L589.91 362.76L591.05 365.6L592.08 368.49L593 371.44L593.8 374.43L594.49 377.47L595.06 380.55L595.5 383.68L595.83 386.84L596.02 390.03L596.09 393.26L596.09 405.28L596.94 405.59L597.78 405.92L598.61 406.27L599.43 406.65L600.23 407.06L601.02 407.48L601.79 407.93L602.55 408.41L603.29 408.9L604.02 409.42L604.72 409.96L605.42 410.52L606.09 411.1L606.75 411.7L607.38 412.32L608 412.96L608.6 413.62L609.18 414.3L609.73 414.99L610.27 415.7L610.79 416.43L611.28 417.17L611.75 417.93L612.2 418.71L612.62 419.5L613.02 420.3L613.4 421.12L613.75 421.95L614.08 422.79L614.38 423.65L614.65 424.52L614.9 425.4L615.12 426.29L615.31 427.19L615.47 428.1L615.61 429.02L615.71 429.95L615.79 430.89L615.83 431.83L615.85 432.79L615.85 531.61L615.83 532.81L615.75 533.99L615.63 535.16L615.47 536.31L615.26 537.45L615.01 538.58L614.71 539.69L614.37 540.78L613.99 541.85L613.57 542.9L613.1 543.93L612.61 544.94L612.07 545.93L611.49 546.89L610.89 547.83L610.24 548.74L609.56 549.63L608.85 550.49L608.11 551.33L607.34 552.13L606.53 552.9L605.7 553.64L604.84 554.35L603.95 555.03L603.04 555.68L602.1 556.29L601.14 556.86L600.15 557.4L599.14 557.89L598.11 558.36L597.06 558.78L595.99 559.16L594.9 559.5L593.79 559.8L592.66 560.05L591.52 560.26L590.37 560.43L589.2 560.54L588.02 560.62L586.82 560.64L448.47 560.64L447.27 560.62L446.09 560.54L444.92 560.43L443.77 560.26L442.63 560.05L441.5 559.8L440.39 559.5L439.3 559.16L438.23 558.78L437.18 558.36L436.15 557.89L435.14 557.4L434.15 556.86L433.19 556.29L432.25 555.68L431.34 555.03L430.45 554.35L429.59 553.64L428.76 552.9L427.95 552.13L427.18 551.33L426.44 550.49L425.73 549.63L425.05 548.74L424.4 547.83L423.8 546.89L423.22 545.93L422.69 544.94L422.19 543.93L421.73 542.9L421.3 541.85L420.92 540.78L420.58 539.69L420.29 538.58L420.03 537.45L419.82 536.31L419.66 535.16L419.54 533.99L419.46 532.81L419.44 531.61L419.44 432.79L419.46 431.83L419.5 430.89L419.58 429.95L419.68 429.02L419.82 428.1L419.98 427.19L420.17 426.29L420.39 425.4L420.64 424.52L420.91 423.65L421.21 422.79L421.54 421.95L421.89 421.12L422.27 420.3L422.67 419.5L423.09 418.71L423.54 417.93L424.01 417.17L424.5 416.43L425.02 415.7L425.56 414.99L426.11 414.3L426.69 413.62L427.29 412.96L427.91 412.32L428.55 411.7L429.2 411.1L429.87 410.52L430.57 409.96L431.28 409.42L432 408.9L432.74 408.41L433.5 407.93L434.27 407.48L435.06 407.06L435.86 406.65L436.68 406.27L437.51 405.92L438.35 405.59L439.2 405.28L439.2 393.26L439.27 390.03L439.47 386.84L439.79 383.68L440.23 380.55L440.8 377.47L441.49 374.43L442.29 371.44L443.21 368.49L444.24 365.6L445.38 362.76L446.62 359.97L447.97 357.24L449.42 354.58L450.97 351.97L452.62 349.43L454.36 346.96L456.19 344.57L458.11 342.24L460.12 339.99L462.21 337.82L464.38 335.73L466.63 333.72L468.95 331.8L471.35 329.97L473.82 328.23L476.36 326.59L478.96 325.04L481.63 323.59L484.36 322.24L487.14 320.99L489.98 319.85L492.88 318.82L495.82 317.91L498.82 317.1L501.86 316.42L504.94 315.85L508.06 315.4L511.22 315.08L514.42 314.88L517.65 314.82L520.87 314.88L524.07 315.08ZM448.04 422.3L447.61 422.32L447.19 422.37L446.77 422.43L446.36 422.5L445.95 422.59L445.55 422.7L445.15 422.83L444.77 422.96L444.39 423.12L444.01 423.28L443.65 423.46L443.29 423.66L442.94 423.86L442.6 424.08L442.27 424.32L441.95 424.56L441.64 424.82L441.34 425.09L441.05 425.37L440.77 425.66L440.5 425.96L440.24 426.27L440 426.59L439.77 426.92L439.54 427.26L439.34 427.61L439.14 427.97L438.96 428.33L438.8 428.71L438.64 429.09L438.51 429.47L438.38 429.87L438.28 430.27L438.18 430.68L438.11 431.09L438.05 431.51L438 431.93L437.98 432.36L437.97 432.79L437.97 531.61L437.98 532.04L438 532.47L438.05 532.89L438.11 533.31L438.18 533.72L438.28 534.13L438.38 534.53L438.51 534.93L438.64 535.31L438.8 535.69L438.96 536.07L439.14 536.43L439.34 536.79L439.54 537.14L439.77 537.48L440 537.81L440.24 538.13L440.5 538.44L440.77 538.74L441.05 539.03L441.34 539.31L441.64 539.58L441.95 539.84L442.27 540.08L442.6 540.32L442.94 540.54L443.29 540.74L443.65 540.94L444.01 541.12L444.39 541.28L444.77 541.44L445.15 541.58L445.55 541.7L445.95 541.81L446.36 541.9L446.77 541.97L447.19 542.03L447.61 542.08L448.04 542.1L448.47 542.11L586.82 542.11L587.11 542.1L587.4 542.09L587.68 542.05L587.97 542.01L588.25 541.95L588.53 541.88L588.81 541.79L589.09 541.69L589.37 541.58L589.65 541.46L589.92 541.32L590.2 541.17L590.47 541L590.74 540.83L591.01 540.63L591.28 540.43L591.55 540.21L591.81 539.99L592.08 539.74L592.34 539.49L592.6 539.22L592.86 538.94L593.12 538.64L593.38 538.33L593.64 538.01L593.89 537.68L594.15 537.33L594.4 536.97L594.65 536.59L594.9 536.21L595.15 535.8L595.39 535.39L595.64 534.96L595.88 534.53L596.13 534.07L596.37 533.61L596.61 533.13L596.85 532.64L597.08 532.13L597.32 531.61L597.32 432.79L597.31 432.36L597.29 431.93L597.24 431.51L597.18 431.09L597.11 430.68L597.02 430.27L596.91 429.87L596.78 429.47L596.65 429.09L596.49 428.71L596.33 428.33L596.15 427.97L595.95 427.61L595.75 427.26L595.53 426.92L595.29 426.59L595.05 426.27L594.79 425.96L594.52 425.66L594.24 425.37L593.95 425.09L593.65 424.82L593.34 424.56L593.02 424.32L592.69 424.08L592.35 423.86L592 423.66L591.64 423.46L591.28 423.28L590.9 423.12L590.52 422.96L590.14 422.83L589.74 422.7L589.34 422.59L588.93 422.5L588.52 422.43L588.1 422.37L587.68 422.32L587.25 422.3L586.82 422.29L448.47 422.29L448.04 422.3ZM512.74 333.55L510.32 333.79L507.94 334.13L505.59 334.57L503.27 335.09L500.98 335.71L498.73 336.41L496.52 337.19L494.35 338.06L492.22 339.02L490.14 340.05L488.1 341.15L486.11 342.34L484.17 343.59L482.29 344.92L480.45 346.32L478.68 347.79L476.96 349.32L475.3 350.92L473.71 352.57L472.17 354.29L470.71 356.07L469.31 357.9L467.98 359.79L466.72 361.72L465.54 363.71L464.43 365.75L463.4 367.83L462.45 369.96L461.58 372.13L460.79 374.34L460.09 376.59L459.48 378.88L458.95 381.2L458.52 383.55L458.18 385.94L457.93 388.35L457.78 390.79L457.73 393.26L457.73 403.76L577.56 403.76L577.56 393.26L577.51 390.79L577.36 388.35L577.11 385.94L576.77 383.55L576.34 381.2L575.81 378.88L575.2 376.59L574.5 374.34L573.71 372.13L572.84 369.96L571.89 367.83L570.86 365.75L569.75 363.71L568.57 361.72L567.31 359.79L565.98 357.9L564.58 356.07L563.12 354.29L561.58 352.57L559.99 350.92L558.33 349.32L556.61 347.79L554.84 346.32L553.01 344.92L551.12 343.59L549.18 342.34L547.19 341.15L545.15 340.05L543.07 339.02L540.94 338.06L538.77 337.19L536.56 336.41L534.31 335.71L532.03 335.09L529.7 334.57L527.35 334.13L524.97 333.79L522.55 333.55L520.11 333.4L517.65 333.35L515.18 333.4L512.74 333.55Z" id="ck6zSsUXd"></path><path d="M142.07 325.94C140.72 326.73 133.94 330.64 121.74 337.68C121.74 323.59 121.74 315.77 121.74 314.2C121.74 309.09 117.59 304.94 112.47 304.94C107.36 304.94 103.21 309.09 103.21 314.2C103.21 315.77 103.21 323.59 103.21 337.68C91.01 330.64 84.23 326.73 82.87 325.94C78.44 323.38 72.77 324.9 70.22 329.33C67.66 333.76 69.18 339.43 73.61 341.99C74.96 342.77 81.74 346.69 93.94 353.73C81.74 360.78 74.96 364.69 73.61 365.47C69.18 368.03 67.66 373.7 70.22 378.13C71.93 381.1 75.05 382.76 78.25 382.76C79.82 382.76 81.41 382.36 82.87 381.52C84.23 380.74 91.01 376.82 103.21 369.78C103.21 383.87 103.21 391.69 103.21 393.26C103.21 398.38 107.36 402.52 112.47 402.52C117.59 402.52 121.74 398.38 121.74 393.26C121.74 391.69 121.74 383.87 121.74 369.78C133.94 376.82 140.72 380.74 142.07 381.52C143.53 382.36 145.13 382.76 146.7 382.76C149.9 382.76 153.01 381.1 154.73 378.13C157.29 373.7 155.77 368.03 151.34 365.47C149.98 364.69 143.2 360.78 131 353.73C143.2 346.69 149.98 342.77 151.34 341.99C155.77 339.43 157.29 333.76 154.73 329.33C152.17 324.9 146.5 323.38 142.07 325.94Z" id="bFkJ4o7NP"></path><path d="M260.66 325.94C259.3 326.73 252.53 330.64 240.32 337.68C240.32 323.59 240.32 315.77 240.32 314.2C240.32 309.09 236.18 304.94 231.06 304.94C225.94 304.94 221.8 309.09 221.8 314.2C221.8 315.77 221.8 323.59 221.8 337.68C209.59 330.64 202.81 326.73 201.46 325.94C197.03 323.38 191.36 324.9 188.8 329.33C186.24 333.76 187.76 339.43 192.19 341.99C193.55 342.77 200.33 346.69 212.53 353.73C200.33 360.78 193.55 364.69 192.19 365.47C187.76 368.03 186.24 373.7 188.8 378.13C190.52 381.1 193.63 382.76 196.83 382.76C198.41 382.76 200 382.36 201.46 381.52C202.81 380.74 209.59 376.82 221.8 369.78C221.8 383.87 221.8 391.69 221.8 393.26C221.8 398.38 225.94 402.52 231.06 402.52C236.18 402.52 240.32 398.38 240.32 393.26C240.32 391.69 240.32 383.87 240.32 369.78C252.53 376.82 259.3 380.74 260.66 381.52C262.12 382.36 263.71 382.76 265.28 382.76C268.49 382.76 271.6 381.1 273.32 378.13C275.87 373.7 274.36 368.03 269.93 365.47C268.57 364.69 261.79 360.78 249.59 353.73C261.79 346.69 268.57 342.77 269.93 341.99C274.36 339.43 275.87 333.76 273.32 329.33C270.76 324.9 265.09 323.38 260.66 325.94Z" id="e1HIiA9CHF"></path><path d="M379.25 325.94C377.89 326.73 371.11 330.64 358.91 337.68C358.91 323.59 358.91 315.77 358.91 314.2C358.91 309.09 354.76 304.94 349.65 304.94C344.53 304.94 340.38 309.09 340.38 314.2C340.38 315.77 340.38 323.59 340.38 337.68C328.18 330.64 321.4 326.73 320.05 325.94C315.61 323.38 309.95 324.9 307.39 329.33C304.83 333.76 306.35 339.43 310.78 341.99C312.14 342.77 318.92 346.69 331.12 353.73C318.92 360.78 312.14 364.69 310.78 365.47C306.35 368.03 304.83 373.7 307.39 378.13C309.11 381.1 312.22 382.76 315.42 382.76C316.99 382.76 318.59 382.36 320.05 381.52C321.4 380.74 328.18 376.82 340.38 369.78C340.38 383.87 340.38 391.69 340.38 393.26C340.38 398.38 344.53 402.52 349.65 402.52C354.76 402.52 358.91 398.38 358.91 393.26C358.91 391.69 358.91 383.87 358.91 369.78C371.11 376.82 377.89 380.74 379.25 381.52C380.71 382.36 382.3 382.76 383.87 382.76C387.07 382.76 390.19 381.1 391.9 378.13C394.46 373.7 392.94 368.03 388.51 365.47C387.16 364.69 380.38 360.78 368.18 353.73C380.38 346.69 387.16 342.77 388.51 341.99C392.94 339.43 394.46 333.76 391.9 329.33C389.35 324.9 383.68 323.38 379.25 325.94Z" id="b4bC0hqdB"></path><path d="M520.02 443.39L521.19 443.5L522.35 443.67L523.49 443.88L524.61 444.13L525.72 444.43L526.81 444.77L527.88 445.15L528.93 445.57L529.96 446.03L530.97 446.53L531.96 447.07L532.93 447.64L533.86 448.25L534.78 448.9L535.67 449.57L536.53 450.29L537.36 451.03L538.16 451.8L538.94 452.6L539.68 453.44L540.39 454.3L541.07 455.18L541.71 456.1L542.32 457.04L542.89 458L543.43 458.99L543.93 460L544.39 461.03L544.81 462.08L545.19 463.15L545.53 464.24L545.83 465.35L546.08 466.47L546.29 467.62L546.46 468.77L546.58 469.94L546.65 471.12L546.67 472.32L546.66 473.27L546.61 474.22L546.54 475.16L546.43 476.09L546.3 477.01L546.13 477.92L545.94 478.82L545.72 479.71L545.47 480.59L545.2 481.46L544.9 482.31L544.57 483.16L544.22 483.99L543.85 484.81L543.45 485.61L543.02 486.4L542.57 487.17L542.1 487.93L541.61 488.68L541.1 489.4L540.56 490.12L540 490.81L539.42 491.49L538.82 492.14L538.21 492.78L537.57 493.4L536.91 494L536.24 494.59L535.55 495.15L534.84 495.69L534.11 496.2L533.37 496.7L532.61 497.17L531.84 497.62L531.05 498.05L530.25 498.46L529.44 498.83L528.61 499.19L527.76 499.52L526.91 499.82L526.91 511.85L526.9 512.23L526.88 512.61L526.84 512.98L526.79 513.35L526.72 513.71L526.64 514.07L526.55 514.43L526.44 514.78L526.32 515.12L526.18 515.45L526.03 515.78L525.88 516.1L525.7 516.42L525.52 516.73L525.33 517.03L525.12 517.32L524.91 517.6L524.68 517.88L524.44 518.14L524.2 518.4L523.94 518.64L523.67 518.88L523.4 519.11L523.12 519.32L522.83 519.53L522.53 519.72L522.22 519.91L521.9 520.08L521.58 520.24L521.25 520.38L520.92 520.52L520.57 520.64L520.23 520.75L519.87 520.84L519.51 520.92L519.15 520.99L518.78 521.04L518.41 521.08L518.03 521.1L517.65 521.11L517.26 521.1L516.89 521.08L516.51 521.04L516.14 520.99L515.78 520.92L515.42 520.84L515.07 520.75L514.72 520.64L514.37 520.52L514.04 520.38L513.71 520.24L513.39 520.08L513.07 519.91L512.77 519.72L512.47 519.53L512.17 519.32L511.89 519.11L511.62 518.88L511.35 518.64L511.09 518.4L510.85 518.14L510.61 517.88L510.38 517.6L510.17 517.32L509.96 517.03L509.77 516.73L509.59 516.42L509.41 516.1L509.26 515.78L509.11 515.45L508.97 515.12L508.85 514.78L508.74 514.43L508.65 514.07L508.57 513.71L508.5 513.35L508.45 512.98L508.41 512.61L508.39 512.23L508.38 511.85L508.38 499.82L507.53 499.52L506.68 499.19L505.85 498.83L505.04 498.46L504.24 498.05L503.45 497.62L502.68 497.17L501.92 496.7L501.18 496.2L500.45 495.69L499.74 495.15L499.05 494.59L498.38 494L497.72 493.4L497.08 492.78L496.47 492.14L495.87 491.49L495.29 490.81L494.73 490.12L494.19 489.4L493.68 488.68L493.19 487.93L492.72 487.17L492.27 486.4L491.84 485.61L491.44 484.81L491.07 483.99L490.72 483.16L490.39 482.31L490.09 481.46L489.82 480.59L489.57 479.71L489.35 478.82L489.16 477.92L488.99 477.01L488.86 476.09L488.75 475.16L488.68 474.22L488.63 473.27L488.62 472.32L488.64 471.12L488.71 469.94L488.83 468.77L489 467.62L489.21 466.47L489.46 465.35L489.76 464.24L490.1 463.15L490.48 462.08L490.9 461.03L491.36 460L491.86 458.99L492.4 458L492.97 457.04L493.58 456.1L494.22 455.18L494.9 454.3L495.61 453.44L496.35 452.6L497.13 451.8L497.93 451.03L498.76 450.29L499.62 449.57L500.51 448.9L501.43 448.25L502.37 447.64L503.33 447.07L504.32 446.53L505.33 446.03L506.36 445.57L507.41 445.15L508.48 444.77L509.57 444.43L510.68 444.13L511.8 443.88L512.94 443.67L514.1 443.5L515.27 443.39L516.45 443.31L517.65 443.29L518.84 443.31L520.02 443.39ZM515.06 462.14L513.85 462.53L512.71 463.05L511.65 463.7L510.68 464.47L509.8 465.35L509.03 466.32L508.38 467.39L507.85 468.53L507.47 469.74L507.23 471L507.15 472.32L507.23 473.63L507.47 474.9L507.85 476.11L508.38 477.25L509.03 478.31L509.8 479.29L510.68 480.16L511.65 480.93L512.71 481.59L513.85 482.11L515.06 482.5L516.33 482.74L517.65 482.82L518.96 482.74L520.23 482.5L521.44 482.11L522.58 481.59L523.64 480.93L524.61 480.16L525.49 479.29L526.26 478.31L526.91 477.25L527.44 476.11L527.82 474.9L528.06 473.63L528.15 472.32L528.06 471L527.82 469.74L527.44 468.53L526.91 467.39L526.26 466.32L525.49 465.35L524.61 464.47L523.64 463.7L522.58 463.05L521.44 462.53L520.23 462.14L518.96 461.9L517.65 461.82L516.33 461.9L515.06 462.14Z" id="a6rPRwH1eh"></path><path d="M577.5 134.82C570.01 135.41 561.8 133.29 552.83 128.52C545.15 122.7 536.48 119.32 526.82 118.37C512.33 116.97 503.28 118.95 494.92 122.93C472.69 133.45 463.95 160.38 463.95 170.68C463.95 181.13 466.75 212.55 495.37 223.96C503.15 227.06 513.23 230.45 527.58 229.15C537.17 228.29 545.58 224.83 552.83 218.78C549.74 214 546.1 209.89 541.89 206.43C537.68 202.98 532.91 200.21 527.58 198.09C537.53 183.56 548.98 174.69 561.88 171.52C581.25 166.77 595.36 173.58 605.07 179.09C614.79 184.58 625.04 201.18 626.25 218.78C626.97 228.88 623.87 239.03 617 249.24C609 261.17 600.19 270.59 590.6 277.48C578.63 286.1 566.24 290.21 555.16 293.92C535.21 300.6 507.06 298.27 490.49 294.53C476.93 291.48 473.59 288.89 462.74 284.45C428.3 270.32 393.86 229.2 394.82 172.76C395.4 139.17 409.31 106.06 431.38 85.52C440.6 76.96 451.64 63.21 481.46 55.01C511.28 46.8 531.23 48.15 550.68 52.69C567.59 56.63 582.42 63.61 595.2 73.58C602.25 81.3 606.66 88.49 608.43 95.12C611.28 105.73 606.85 115.16 602.5 120.8C598.34 126.19 588.28 134.01 577.5 134.82Z" id="dabbLa4MB"></path></defs><g><g><g><use xlink:href="#a2toj1qfPL" opacity="1" fill="#e35f9b" fill-opacity="1"></use><g><use xlink:href="#a2toj1qfPL" opacity="1" fill-opacity="0" stroke="#000000" stroke-width="1" stroke-opacity="0"></use></g></g><g><use xlink:href="#ck6zSsUXd" opacity="1" fill="#e35f9b" fill-opacity="1"></use><g><use xlink:href="#ck6zSsUXd" opacity="1" fill-opacity="0" stroke="#000000" stroke-width="1" stroke-opacity="0"></use></g></g><g><use xlink:href="#bFkJ4o7NP" opacity="1" fill="#e35f9b" fill-opacity="1"></use><g><use xlink:href="#bFkJ4o7NP" opacity="1" fill-opacity="0" stroke="#000000" stroke-width="1" stroke-opacity="0"></use></g></g><g><use xlink:href="#e1HIiA9CHF" opacity="1" fill="#e35f9b" fill-opacity="1"></use><g><use xlink:href="#e1HIiA9CHF" opacity="1" fill-opacity="0" stroke="#000000" stroke-width="1" stroke-opacity="0"></use></g></g><g><use xlink:href="#b4bC0hqdB" opacity="1" fill="#e35f9b" fill-opacity="1"></use><g><use xlink:href="#b4bC0hqdB" opacity="1" fill-opacity="0" stroke="#000000" stroke-width="1" stroke-opacity="0"></use></g></g><g><use xlink:href="#a6rPRwH1eh" opacity="1" fill="#e35f9b" fill-opacity="1"></use><g><use xlink:href="#a6rPRwH1eh" opacity="1" fill-opacity="0" stroke="#000000" stroke-width="1" stroke-opacity="0"></use></g></g><g><use xlink:href="#dabbLa4MB" opacity="1" fill="#000000" fill-opacity="0"></use><g><use xlink:href="#dabbLa4MB" opacity="1" fill-opacity="0" stroke="#e35f9b" stroke-width="17" stroke-opacity="1"></use></g></g></g></g></svg>