<svg id="svg" version="1.1" width="515" height="515" xmlns="http://www.w3.org/2000/svg" xmlns:xlink="http://www.w3.org/1999/xlink" style="display: block;"><g id="svgg"><path id="path0" d="M224.250 47.687 C 221.363 47.917,219.000 48.531,219.000 49.052 C 219.000 49.574,217.227 50.000,215.059 50.000 C 212.891 50.000,210.867 50.406,210.561 50.902 C 210.254 51.397,207.190 52.123,203.752 52.513 C 200.313 52.903,197.050 53.571,196.500 53.996 C 195.950 54.421,193.925 55.072,192.000 55.443 C 188.644 56.089,185.492 57.220,181.764 59.117 C 180.809 59.603,178.996 60.000,177.736 60.000 C 176.476 60.000,174.557 60.614,173.473 61.365 C 172.388 62.116,170.375 63.053,169.000 63.447 C 163.389 65.055,135.946 79.329,130.447 83.500 C 126.111 86.789,123.291 88.645,121.022 89.701 C 120.209 90.079,118.583 91.426,117.407 92.694 C 116.232 93.963,114.851 95.000,114.338 95.000 C 113.825 95.000,111.648 96.800,109.500 99.000 C 107.352 101.200,105.130 103.000,104.562 103.000 C 103.184 103.000,80.000 126.170,80.000 127.547 C 80.000 128.140,78.650 129.919,77.000 131.500 C 75.350 133.081,74.000 134.761,74.000 135.235 C 74.000 135.708,72.875 137.138,71.500 138.412 C 70.125 139.687,69.000 141.099,69.000 141.550 C 69.000 142.002,68.037 143.396,66.861 144.648 C 64.558 147.099,62.905 149.716,60.585 154.580 C 59.777 156.273,58.415 158.241,57.558 158.952 C 56.701 159.663,56.000 160.804,56.000 161.488 C 56.000 162.171,55.100 163.874,54.000 165.273 C 52.900 166.671,52.000 168.447,52.000 169.219 C 52.000 169.991,51.118 171.569,50.040 172.726 C 48.963 173.883,47.775 176.050,47.400 177.542 C 47.026 179.033,45.208 183.154,43.360 186.699 C 41.512 190.244,39.718 194.912,39.372 197.072 C 39.027 199.232,38.352 201.000,37.872 201.000 C 37.392 201.000,37.000 202.098,37.000 203.441 C 37.000 204.784,36.589 206.136,36.087 206.446 C 35.585 206.757,34.871 208.806,34.500 211.000 C 34.129 213.194,33.450 215.222,32.991 215.505 C 32.532 215.789,31.844 218.948,31.460 222.524 C 31.077 226.101,30.367 229.273,29.882 229.573 C 29.397 229.873,29.000 231.801,29.000 233.859 C 29.000 235.917,28.576 238.028,28.059 238.550 C 27.541 239.072,26.801 244.126,26.414 249.781 C 26.027 255.435,25.325 260.299,24.855 260.590 C 23.609 261.360,23.752 383.729,25.000 384.500 C 25.550 384.840,26.000 385.834,26.000 386.709 C 26.000 405.939,60.504 417.534,76.785 403.776 C 78.591 402.249,80.451 401.000,80.918 401.000 C 81.385 401.000,82.031 400.213,82.354 399.250 C 82.940 397.506,83.708 396.200,87.500 390.504 C 89.435 387.598,89.509 385.586,89.779 329.000 L 90.057 270.500 92.742 265.000 C 95.908 258.513,104.287 249.396,107.920 248.484 C 109.328 248.131,110.805 247.315,111.202 246.671 C 112.639 244.340,132.124 244.527,136.577 246.914 C 138.719 248.061,140.815 249.000,141.235 249.000 C 144.865 249.000,156.000 264.386,156.000 269.401 C 156.000 270.831,156.450 272.000,157.000 272.000 C 157.655 272.000,158.000 291.533,158.000 328.599 C 158.000 376.731,158.224 385.707,159.500 388.599 C 160.325 390.469,161.647 393.462,162.437 395.250 C 164.210 399.259,170.636 405.526,174.000 406.526 C 175.375 406.935,176.820 407.771,177.212 408.385 C 178.665 410.660,198.205 410.430,202.577 408.086 C 204.719 406.939,206.815 406.000,207.235 406.000 C 209.076 406.000,219.131 394.594,219.671 391.893 C 219.994 390.279,220.650 388.716,221.129 388.420 C 221.608 388.124,222.000 362.477,222.000 331.427 C 222.000 297.857,222.383 274.269,222.945 273.236 C 223.465 272.281,224.161 269.813,224.491 267.750 C 224.821 265.688,225.468 264.000,225.929 264.000 C 226.390 264.000,227.051 263.212,227.399 262.250 C 229.091 257.571,233.319 252.292,236.500 250.888 C 239.398 249.608,242.392 247.652,243.213 246.500 C 245.584 243.175,271.854 245.920,274.300 249.748 C 274.740 250.437,275.664 251.000,276.354 251.000 C 278.408 251.000,283.732 257.137,287.220 263.526 L 290.482 269.500 290.752 327.000 C 290.900 358.625,291.426 385.400,291.921 386.500 C 296.103 395.801,297.481 398.048,301.228 401.670 C 317.712 417.605,354.000 408.059,354.000 387.789 C 354.000 386.805,354.436 386.000,354.969 386.000 C 355.580 386.000,356.042 364.417,356.219 327.549 C 356.436 282.429,356.785 268.814,357.750 267.849 C 358.438 267.162,359.000 265.613,359.000 264.407 C 359.000 263.201,359.675 261.955,360.500 261.638 C 361.325 261.322,362.000 260.469,362.000 259.744 C 362.000 257.907,370.768 249.641,375.000 247.488 C 389.560 240.082,415.030 248.503,419.646 262.250 C 419.969 263.212,420.598 264.000,421.045 264.000 C 421.491 264.000,422.165 266.475,422.543 269.500 C 422.921 272.525,423.615 275.000,424.084 275.000 C 424.554 275.000,425.064 300.988,425.219 332.750 C 425.522 394.935,425.302 392.358,430.750 397.699 C 431.988 398.912,433.000 400.376,433.000 400.952 C 433.000 401.529,433.576 402.000,434.279 402.000 C 434.983 402.000,436.207 402.900,437.000 404.000 C 437.793 405.100,438.869 406.000,439.392 406.000 C 439.915 406.000,441.212 406.788,442.275 407.750 C 444.647 409.898,468.513 410.400,469.795 408.329 C 470.194 407.685,471.718 406.858,473.181 406.491 C 476.562 405.642,483.689 397.898,485.597 393.000 C 485.918 392.175,486.703 390.418,487.341 389.095 C 489.081 385.484,488.993 248.830,487.250 248.250 C 486.457 247.986,486.000 245.873,486.000 242.476 C 486.000 239.529,485.616 236.881,485.148 236.591 C 484.679 236.301,484.013 233.045,483.669 229.354 C 483.324 225.664,482.637 222.387,482.142 222.072 C 481.647 221.757,480.907 219.043,480.498 216.040 C 480.089 213.037,479.360 209.774,478.877 208.790 C 478.395 207.805,477.607 206.198,477.127 205.217 C 476.647 204.237,475.937 201.992,475.550 200.229 C 475.163 198.466,474.431 196.766,473.923 196.452 C 473.415 196.139,473.000 195.189,473.000 194.342 C 473.000 193.495,472.325 191.272,471.500 189.401 C 470.675 187.531,469.325 184.469,468.500 182.599 C 467.675 180.728,467.000 178.741,467.000 178.182 C 467.000 177.624,466.654 177.017,466.232 176.833 C 465.809 176.650,463.993 173.575,462.197 170.000 C 458.899 163.436,456.916 159.916,456.000 159.000 C 455.246 158.246,453.074 154.698,452.327 153.000 C 451.965 152.175,450.392 149.860,448.834 147.856 C 447.275 145.852,446.000 143.793,446.000 143.280 C 446.000 142.768,444.875 141.292,443.500 140.000 C 442.125 138.708,441.000 137.298,441.000 136.866 C 441.000 135.177,407.281 100.000,405.661 100.000 C 405.152 100.000,403.251 98.425,401.435 96.500 C 399.620 94.575,397.724 93.000,397.222 93.000 C 396.720 93.000,395.495 92.100,394.500 91.000 C 393.505 89.900,392.273 89.000,391.763 89.000 C 391.254 89.000,388.961 87.516,386.668 85.702 C 384.376 83.888,380.813 81.535,378.750 80.474 C 376.688 79.413,375.000 78.198,375.000 77.773 C 375.000 77.348,374.553 77.000,374.007 77.000 C 372.393 77.000,365.000 73.588,365.000 72.844 C 365.000 72.467,363.650 71.862,362.000 71.500 C 360.350 71.138,359.000 70.427,359.000 69.921 C 359.000 69.414,358.553 69.000,358.007 69.000 C 356.299 69.000,349.000 65.567,349.000 64.764 C 349.000 64.344,348.098 64.000,346.996 64.000 C 345.894 64.000,343.314 63.100,341.261 62.000 C 339.209 60.900,336.762 60.000,335.824 60.000 C 334.886 60.000,333.840 59.550,333.500 59.000 C 333.160 58.450,331.585 58.000,330.000 58.000 C 328.415 58.000,326.871 57.601,326.570 57.113 C 326.269 56.626,324.330 55.910,322.261 55.524 C 320.192 55.137,318.050 54.466,317.500 54.032 C 316.950 53.598,313.467 52.928,309.761 52.543 C 306.054 52.158,302.765 51.428,302.452 50.922 C 302.138 50.415,300.424 50.000,298.641 50.000 C 296.858 50.000,294.838 49.438,294.150 48.750 C 292.910 47.510,237.138 46.661,224.250 47.687 " stroke="none" fill="#000000" fill-rule="evenodd"></path></g></svg>