<?xml version="1.0" encoding="UTF-8" standalone="no"?>
<!DOCTYPE svg PUBLIC "-//W3C//DTD SVG 1.1//EN" "http://www.w3.org/Graphics/SVG/1.1/DTD/svg11.dtd">
<svg version="1.1" xmlns="http://www.w3.org/2000/svg" xmlns:xlink="http://www.w3.org/1999/xlink" preserveAspectRatio="xMidYMid meet" viewBox="0 0 640 640" width="640" height="640"><defs><path d="" id="b2AlYD49Ur"></path><path d="M400.1 93.05L370.66 98.25L331.93 108.01L294.2 129.96L269.21 150.12L244.35 173L228.3 195.51L216.49 216.64C211.42 227.94 208.6 234.22 208.04 235.48C201.75 252.88 198.27 262.55 197.58 264.47C197.01 269.61 196.69 272.47 196.63 273.06C212.66 221.78 257.93 182.39 314.74 176.59C343.52 173.66 371.1 179.76 394.77 192.59C397.31 194.3 400 195.89 402.76 197.28C403.35 197.67 403.96 198.01 404.58 198.4C404.58 198.4 404.62 198.27 404.62 198.24C415.15 203.37 426.81 206.38 439.01 206.78C442.71 206.89 446.46 206.75 450.32 206.36C476.18 203.72 498.14 189.68 511.68 169.74C520.99 155.98 526.39 139.46 526.27 121.86C525.68 121.19 522.67 117.85 517.3 111.76C515.67 110.99 507.44 106.99 492.65 99.77C489.74 99.28 475.15 96.87 448.9 92.52L400.1 93.05Z" id="d1BvbGwmkB"></path><path d="M400.1 93.05L370.66 98.25L331.93 108.01L294.2 129.96L269.21 150.12L244.35 173L228.3 195.51L216.49 216.64C211.42 227.94 208.6 234.22 208.04 235.48C201.75 252.88 198.27 262.55 197.58 264.47C197.01 269.61 196.69 272.47 196.63 273.06C212.66 221.78 257.93 182.39 314.74 176.59C343.52 173.66 371.1 179.76 394.77 192.59C397.31 194.3 400 195.89 402.76 197.28C403.35 197.67 403.96 198.01 404.58 198.4C404.58 198.4 404.62 198.27 404.62 198.24C415.15 203.37 426.81 206.38 439.01 206.78C442.71 206.89 446.46 206.75 450.32 206.36C476.18 203.72 498.14 189.68 511.68 169.74C520.99 155.98 526.39 139.46 526.27 121.86C525.68 121.19 522.67 117.85 517.3 111.76C515.67 110.99 507.44 106.99 492.65 99.77C489.74 99.28 475.15 96.87 448.9 92.52L400.1 93.05Z" id="a5M9GGVkfo"></path><path d="M400.1 93.05L370.66 98.25L331.93 108.01L294.2 129.96L269.21 150.12L244.35 173L228.3 195.51L216.49 216.64C211.42 227.94 208.6 234.22 208.04 235.48C201.75 252.88 198.27 262.55 197.58 264.47C197.01 269.61 196.69 272.47 196.63 273.06C212.66 221.78 257.93 182.39 314.74 176.59C343.52 173.66 371.1 179.76 394.77 192.59C397.31 194.3 400 195.89 402.76 197.28C403.35 197.67 403.96 198.01 404.58 198.4C404.58 198.4 404.62 198.27 404.62 198.24C415.15 203.37 426.81 206.38 439.01 206.78C442.71 206.89 446.46 206.75 450.32 206.36C476.18 203.72 498.14 189.68 511.68 169.74C520.99 155.98 526.39 139.46 526.27 121.86C525.68 121.19 522.67 117.85 517.3 111.76C515.67 110.99 507.44 106.99 492.65 99.77C489.74 99.28 475.15 96.87 448.9 92.52L400.1 93.05Z" id="m7bzC3mse"></path><path d="M400.1 93.05L370.66 98.25L331.93 108.01L294.2 129.96L269.21 150.12L244.35 173L228.3 195.51L216.49 216.64C211.42 227.94 208.6 234.22 208.04 235.48C201.75 252.88 198.27 262.55 197.58 264.47C197.01 269.61 196.69 272.47 196.63 273.06C212.66 221.78 257.93 182.39 314.74 176.59C343.52 173.66 371.1 179.76 394.77 192.59C397.31 194.3 400 195.89 402.76 197.28C403.35 197.67 403.96 198.01 404.58 198.4C404.58 198.4 404.62 198.27 404.62 198.24C415.15 203.37 426.81 206.38 439.01 206.78C442.71 206.89 446.46 206.75 450.32 206.36C476.18 203.72 498.14 189.68 511.68 169.74C520.99 155.98 526.39 139.46 526.27 121.86C525.68 121.19 522.67 117.85 517.3 111.76C515.67 110.99 507.44 106.99 492.65 99.77C489.74 99.28 475.15 96.87 448.9 92.52L400.1 93.05Z" id="a6qtgwJlNp"></path><path d="M307.06 15.66C305.63 16.45 298.5 20.38 285.66 27.46L241.69 50.32L209.68 83.33L191.29 103.79L176.95 131.69L162.73 160.79L153.44 200.07L151.01 227.85L150.8 244.85L154.02 276.4L158.15 297.85L169.33 331.72L183.06 358.37L193.12 374.32L205.39 388.49L215.88 400.02C222.42 405.65 226.05 408.77 226.78 409.4C228.77 410.69 229.85 411.43 230.07 411.56C230.45 411.7 230.67 411.77 230.7 411.77C209.05 390.09 194.44 361.07 191.1 328.26C190.71 324.49 190.49 320.83 190.39 317.13C190.07 301.83 192.27 287.01 196.63 273.06C215.88 193.64 276.5 128.84 356.67 105.67C369.82 101.86 383.51 99.19 397.63 97.75C427.28 94.72 456.19 97.46 483.21 105.02C498.18 109.21 512.63 114.89 526.27 121.86C526.24 119.22 526.14 116.46 525.87 113.75C523.14 87.05 508.51 64.05 487.52 50.62C437.24 26.81 397.99 13.02 369.77 9.27C368.92 9.23 364.5 9.14 356.63 8.99C353.33 9.45 336.8 11.66 307.06 15.66Z" id="bsfxzt1S"></path><path d="M307.06 15.66C305.63 16.45 298.5 20.38 285.66 27.46L241.69 50.32L209.68 83.33L191.29 103.79L176.95 131.69L162.73 160.79L153.44 200.07L151.01 227.85L150.8 244.85L154.02 276.4L158.15 297.85L169.33 331.72L183.06 358.37L193.12 374.32L205.39 388.49L215.88 400.02C222.42 405.65 226.05 408.77 226.78 409.4C228.77 410.69 229.85 411.43 230.07 411.56C230.45 411.7 230.67 411.77 230.7 411.77C209.05 390.09 194.44 361.07 191.1 328.26C190.71 324.49 190.49 320.83 190.39 317.13C190.07 301.83 192.27 287.01 196.63 273.06C215.88 193.64 276.5 128.84 356.67 105.67C369.82 101.86 383.51 99.19 397.63 97.75C427.28 94.72 456.19 97.46 483.21 105.02C498.18 109.21 512.63 114.89 526.27 121.86C526.24 119.22 526.14 116.46 525.87 113.75C523.14 87.05 508.51 64.05 487.52 50.62C437.24 26.81 397.99 13.02 369.77 9.27C368.92 9.23 364.5 9.14 356.63 8.99C353.33 9.45 336.8 11.66 307.06 15.66Z" id="n1iOn4wN5L"></path><path d="M307.06 15.66C305.63 16.45 298.5 20.38 285.66 27.46L241.69 50.32L209.68 83.33L191.29 103.79L176.95 131.69L162.73 160.79L153.44 200.07L151.01 227.85L150.8 244.85L154.02 276.4L158.15 297.85L169.33 331.72L183.06 358.37L193.12 374.32L205.39 388.49L215.88 400.02C222.42 405.65 226.05 408.77 226.78 409.4C228.77 410.69 229.85 411.43 230.07 411.56C230.45 411.7 230.67 411.77 230.7 411.77C209.05 390.09 194.44 361.07 191.1 328.26C190.71 324.49 190.49 320.83 190.39 317.13C190.07 301.83 192.27 287.01 196.63 273.06C215.88 193.64 276.5 128.84 356.67 105.67C369.82 101.86 383.51 99.19 397.63 97.75C427.28 94.72 456.19 97.46 483.21 105.02C498.18 109.21 512.63 114.89 526.27 121.86C526.24 119.22 526.14 116.46 525.87 113.75C523.14 87.05 508.51 64.05 487.52 50.62C437.24 26.81 397.99 13.02 369.77 9.27C368.92 9.23 364.5 9.14 356.63 8.99C353.33 9.45 336.8 11.66 307.06 15.66Z" id="a2b0FyjZl4"></path><path d="M307.06 15.66C305.63 16.45 298.5 20.38 285.66 27.46L241.69 50.32L209.68 83.33L191.29 103.79L176.95 131.69L162.73 160.79L153.44 200.07L151.01 227.85L150.8 244.85L154.02 276.4L158.15 297.85L169.33 331.72L183.06 358.37L193.12 374.32L205.39 388.49L215.88 400.02C222.42 405.65 226.05 408.77 226.78 409.4C228.77 410.69 229.85 411.43 230.07 411.56C230.45 411.7 230.67 411.77 230.7 411.77C209.05 390.09 194.44 361.07 191.1 328.26C190.71 324.49 190.49 320.83 190.39 317.13C190.07 301.83 192.27 287.01 196.63 273.06C215.88 193.64 276.5 128.84 356.67 105.67C369.82 101.86 383.51 99.19 397.63 97.75C427.28 94.72 456.19 97.46 483.21 105.02C498.18 109.21 512.63 114.89 526.27 121.86C526.24 119.22 526.14 116.46 525.87 113.75C523.14 87.05 508.51 64.05 487.52 50.62C437.24 26.81 397.99 13.02 369.77 9.27C368.92 9.23 364.5 9.14 356.63 8.99C353.33 9.45 336.8 11.66 307.06 15.66Z" id="e3ykyleBe"></path><path d="M352.67 7.42C334.64 6.07 316.29 6.26 297.74 8.16C225.58 15.52 161.77 47.24 113.7 94.34C99.87 107.86 87.38 122.61 76.31 138.46C76.2 138.62 75.77 139.46 74.98 140.94C74.76 141.42 73.66 143.81 71.66 148.09C71.43 148.66 70.24 151.53 68.1 156.7L60.79 182.51L56.68 204.59L55.82 236.74L59.07 268.62L67.69 306.86L86.33 347.09L113.52 382.22L144.35 412.21L178.43 434.07L205.13 447.08L243.74 458.77L285.09 462.1L310.01 460.96C324.36 458.66 332.33 457.38 333.92 457.12C343.86 454.34 349.39 452.78 350.48 452.48C353.91 450.85 355.82 449.96 356.17 449.77C351.82 450.64 347.32 451.31 342.81 451.77C314.51 454.66 287.32 448.79 263.94 436.39C251.69 429.89 240.46 421.57 230.7 411.77C217.05 399.62 204.85 385.87 194.33 370.7C172.86 339.73 158.68 303.06 154.59 262.92C146.68 185.34 178.19 112.83 232.9 65.27C267.61 35.14 311.61 14.99 360.81 9.97C363.82 9.66 366.81 9.45 369.77 9.27C364.12 8.47 358.37 7.87 352.67 7.42" id="a5vxHwLX2J"></path><path d="M352.67 7.42C334.64 6.07 316.29 6.26 297.74 8.16C225.58 15.52 161.77 47.24 113.7 94.34C99.87 107.86 87.38 122.61 76.31 138.46C76.2 138.62 75.77 139.46 74.98 140.94C74.76 141.42 73.66 143.81 71.66 148.09C71.43 148.66 70.24 151.53 68.1 156.7L60.79 182.51L56.68 204.59L55.82 236.74L59.07 268.62L67.69 306.86L86.33 347.09L113.52 382.22L144.35 412.21L178.43 434.07L205.13 447.08L243.74 458.77L285.09 462.1L310.01 460.96C324.36 458.66 332.33 457.38 333.92 457.12C343.86 454.34 349.39 452.78 350.48 452.48C353.91 450.85 355.82 449.96 356.17 449.77C351.82 450.64 347.32 451.31 342.81 451.77C314.51 454.66 287.32 448.79 263.94 436.39C251.69 429.89 240.46 421.57 230.7 411.77C217.05 399.62 204.85 385.87 194.33 370.7C172.86 339.73 158.68 303.06 154.59 262.92C146.68 185.34 178.19 112.83 232.9 65.27C267.61 35.14 311.61 14.99 360.81 9.97C363.82 9.66 366.81 9.45 369.77 9.27C364.12 8.47 358.37 7.87 352.67 7.42" id="a2Di4i2SXo"></path><path d="M352.67 7.42C334.64 6.07 316.29 6.26 297.74 8.16C225.58 15.52 161.77 47.24 113.7 94.34C99.87 107.86 87.38 122.61 76.31 138.46C76.2 138.62 75.77 139.46 74.98 140.94C74.76 141.42 73.66 143.81 71.66 148.09C71.43 148.66 70.24 151.53 68.1 156.7L60.79 182.51L56.68 204.59L55.82 236.74L59.07 268.62L67.69 306.86L86.33 347.09L113.52 382.22L144.35 412.21L178.43 434.07L205.13 447.08L243.74 458.77L285.09 462.1L310.01 460.96C324.36 458.66 332.33 457.38 333.92 457.12C343.86 454.34 349.39 452.78 350.48 452.48C353.91 450.85 355.82 449.96 356.17 449.77C351.82 450.64 347.32 451.31 342.81 451.77C314.51 454.66 287.32 448.79 263.94 436.39C251.69 429.89 240.46 421.57 230.7 411.77C217.05 399.62 204.85 385.87 194.33 370.7C172.86 339.73 158.68 303.06 154.59 262.92C146.68 185.34 178.19 112.83 232.9 65.27C267.61 35.14 311.61 14.99 360.81 9.97C363.82 9.66 366.81 9.45 369.77 9.27C364.12 8.47 358.37 7.87 352.67 7.42" id="h8hJoRf5v1"></path><path d="M352.67 7.42C334.64 6.07 316.29 6.26 297.74 8.16C225.58 15.52 161.77 47.24 113.7 94.34C99.87 107.86 87.38 122.61 76.31 138.46C76.2 138.62 75.77 139.46 74.98 140.94C74.76 141.42 73.66 143.81 71.66 148.09C71.43 148.66 70.24 151.53 68.1 156.7L60.79 182.51L56.68 204.59L55.82 236.74L59.07 268.62L67.69 306.86L86.33 347.09L113.52 382.22L144.35 412.21L178.43 434.07L205.13 447.08L243.74 458.77L285.09 462.1L310.01 460.96C324.36 458.66 332.33 457.38 333.92 457.12C343.86 454.34 349.39 452.78 350.48 452.48C353.91 450.85 355.82 449.96 356.17 449.77C351.82 450.64 347.32 451.31 342.81 451.77C314.51 454.66 287.32 448.79 263.94 436.39C251.69 429.89 240.46 421.57 230.7 411.77C217.05 399.62 204.85 385.87 194.33 370.7C172.86 339.73 158.68 303.06 154.59 262.92C146.68 185.34 178.19 112.83 232.9 65.27C267.61 35.14 311.61 14.99 360.81 9.97C363.82 9.66 366.81 9.45 369.77 9.27C364.12 8.47 358.37 7.87 352.67 7.42" id="h892L5jDK"></path><path d="M415.85 427.11C418.11 423.83 420.33 420.54 422.38 417.16C420.49 418.54 418.52 419.84 416.59 421.16C398.25 433.43 377.94 443.14 356.17 449.77C342.04 454.07 327.29 457.1 311.99 458.66C282.37 461.68 253.46 458.97 226.41 451.42C137.7 426.58 68.86 349.7 58.96 252.57C54.85 212.26 61.43 173.29 76.31 138.46C35.71 196.75 14.93 269.23 22.71 345.43C26.37 381.35 36.12 415.19 50.76 446.06C50.8 446.09 50.87 446.2 51.02 446.43C51.05 446.49 51.23 446.77 51.56 447.29L53.26 449.67L62.56 461.83L90.86 485.74L122 504.14L155.61 518.38L204.45 528.7L248.56 528.71L277.34 523.98L304.34 515.81L325.61 507.19L359.48 487.86L391.86 460.31L409.46 442.51L422.03 424.68L425.3 418.87C423.55 417.85 422.58 417.28 422.38 417.16C419.11 420.81 417.25 422.86 416.89 423.26C416.28 425.57 415.89 426.86 415.85 427.11Z" id="a6Em3AAli"></path><path d="M415.85 427.11C418.11 423.83 420.33 420.54 422.38 417.16C420.49 418.54 418.52 419.84 416.59 421.16C398.25 433.43 377.94 443.14 356.17 449.77C342.04 454.07 327.29 457.1 311.99 458.66C282.37 461.68 253.46 458.97 226.41 451.42C137.7 426.58 68.86 349.7 58.96 252.57C54.85 212.26 61.43 173.29 76.31 138.46C35.71 196.75 14.93 269.23 22.71 345.43C26.37 381.35 36.12 415.19 50.76 446.06C50.8 446.09 50.87 446.2 51.02 446.43C51.05 446.49 51.23 446.77 51.56 447.29L53.26 449.67L62.56 461.83L90.86 485.74L122 504.14L155.61 518.38L204.45 528.7L248.56 528.71L277.34 523.98L304.34 515.81L325.61 507.19L359.48 487.86L391.86 460.31L409.46 442.51L422.03 424.68L425.3 418.87C423.55 417.85 422.58 417.28 422.38 417.16C419.11 420.81 417.25 422.86 416.89 423.26C416.28 425.57 415.89 426.86 415.85 427.11Z" id="a6gZEZJ1C"></path><path d="M415.85 427.11C418.11 423.83 420.33 420.54 422.38 417.16C420.49 418.54 418.52 419.84 416.59 421.16C398.25 433.43 377.94 443.14 356.17 449.77C342.04 454.07 327.29 457.1 311.99 458.66C282.37 461.68 253.46 458.97 226.41 451.42C137.7 426.58 68.86 349.7 58.96 252.57C54.85 212.26 61.43 173.29 76.31 138.46C35.71 196.75 14.93 269.23 22.71 345.43C26.37 381.35 36.12 415.19 50.76 446.06C50.8 446.09 50.87 446.2 51.02 446.43C51.05 446.49 51.23 446.77 51.56 447.29L53.26 449.67L62.56 461.83L90.86 485.74L122 504.14L155.61 518.38L204.45 528.7L248.56 528.71L277.34 523.98L304.34 515.81L325.61 507.19L359.48 487.86L391.86 460.31L409.46 442.51L422.03 424.68L425.3 418.87C423.55 417.85 422.58 417.28 422.38 417.16C419.11 420.81 417.25 422.86 416.89 423.26C416.28 425.57 415.89 426.86 415.85 427.11Z" id="dsDrA55Dq"></path><path d="M415.85 427.11C418.11 423.83 420.33 420.54 422.38 417.16C420.49 418.54 418.52 419.84 416.59 421.16C398.25 433.43 377.94 443.14 356.17 449.77C342.04 454.07 327.29 457.1 311.99 458.66C282.37 461.68 253.46 458.97 226.41 451.42C137.7 426.58 68.86 349.7 58.96 252.57C54.85 212.26 61.43 173.29 76.31 138.46C35.71 196.75 14.93 269.23 22.71 345.43C26.37 381.35 36.12 415.19 50.76 446.06C50.8 446.09 50.87 446.2 51.02 446.43C51.05 446.49 51.23 446.77 51.56 447.29L53.26 449.67L62.56 461.83L90.86 485.74L122 504.14L155.61 518.38L204.45 528.7L248.56 528.71L277.34 523.98L304.34 515.81L325.61 507.19L359.48 487.86L391.86 460.31L409.46 442.51L422.03 424.68L425.3 418.87C423.55 417.85 422.58 417.28 422.38 417.16C419.11 420.81 417.25 422.86 416.89 423.26C416.28 425.57 415.89 426.86 415.85 427.11Z" id="b1Ms3hzEtK"></path><path d="M422.38 417.16C410.16 436.93 394.95 454.82 377.35 470.09C352.62 491.6 323.14 507.99 290.4 517.47C277.28 521.28 263.56 523.98 249.47 525.42C171.31 533.39 98.33 501.41 50.76 446.06C105.04 560.38 227 633.76 360.1 620.18C423.93 613.67 481.08 588.19 526.69 549.83C526.05 548.96 523.03 544.67 517.55 536.89C513.78 531.56 495.04 504.94 461.22 457.01C441.45 428.97 430.85 413.96 429.43 411.94C427.11 413.7 424.77 415.46 422.38 417.16Z" id="aFozDkwqm"></path><path d="M422.38 417.16C410.16 436.93 394.95 454.82 377.35 470.09C352.62 491.6 323.14 507.99 290.4 517.47C277.28 521.28 263.56 523.98 249.47 525.42C171.31 533.39 98.33 501.41 50.76 446.06C105.04 560.38 227 633.76 360.1 620.18C423.93 613.67 481.08 588.19 526.69 549.83C526.05 548.96 523.03 544.67 517.55 536.89C513.78 531.56 495.04 504.94 461.22 457.01C441.45 428.97 430.85 413.96 429.43 411.94C427.11 413.7 424.77 415.46 422.38 417.16Z" id="a66SrwND43"></path><path d="M422.38 417.16C410.16 436.93 394.95 454.82 377.35 470.09C352.62 491.6 323.14 507.99 290.4 517.47C277.28 521.28 263.56 523.98 249.47 525.42C171.31 533.39 98.33 501.41 50.76 446.06C105.04 560.38 227 633.76 360.1 620.18C423.93 613.67 481.08 588.19 526.69 549.83C526.05 548.96 523.03 544.67 517.55 536.89C513.78 531.56 495.04 504.94 461.22 457.01C441.45 428.97 430.85 413.96 429.43 411.94C427.11 413.7 424.77 415.46 422.38 417.16Z" id="d1G4QVmQ6"></path><path d="M422.38 417.16C410.16 436.93 394.95 454.82 377.35 470.09C352.62 491.6 323.14 507.99 290.4 517.47C277.28 521.28 263.56 523.98 249.47 525.42C171.31 533.39 98.33 501.41 50.76 446.06C105.04 560.38 227 633.76 360.1 620.18C423.93 613.67 481.08 588.19 526.69 549.83C526.05 548.96 523.03 544.67 517.55 536.89C513.78 531.56 495.04 504.94 461.22 457.01C441.45 428.97 430.85 413.96 429.43 411.94C427.11 413.7 424.77 415.46 422.38 417.16Z" id="a19lbZdezk"></path><path d="M602.09 406.5C594.82 335.27 531.13 283.45 459.86 290.71C449.09 291.81 438.71 294.18 428.97 297.73C393.76 310.36 366.15 337.63 352.51 371.54C352.54 371.54 352.55 371.6 352.55 371.6C354.63 371.38 371.3 369.68 373.38 369.47C380.94 369.58 418.73 370.26 486.75 371.45C488.02 373.72 494.38 385.11 505.84 405.61C520.41 445.23 528.5 467.24 530.12 471.64C514.53 512.29 505.84 534.83 504.11 539.36C501.35 558.17 499.8 568.67 499.5 570.74C530.81 549.99 557.98 523.77 579.72 493.56C579.72 493.56 579.69 493.51 579.69 493.51C596.65 468.96 605.35 438.53 602.09 406.5" id="a1sdS2d9YV"></path><path d="M602.09 406.5C594.82 335.27 531.13 283.45 459.86 290.71C449.09 291.81 438.71 294.18 428.97 297.73C393.76 310.36 366.15 337.63 352.51 371.54C352.54 371.54 352.55 371.6 352.55 371.6C354.63 371.38 371.3 369.68 373.38 369.47C380.94 369.58 418.73 370.26 486.75 371.45C488.02 373.72 494.38 385.11 505.84 405.61C520.41 445.23 528.5 467.24 530.12 471.64C514.53 512.29 505.84 534.83 504.11 539.36C501.35 558.17 499.8 568.67 499.5 570.74C530.81 549.99 557.98 523.77 579.72 493.56C579.72 493.56 579.69 493.51 579.69 493.51C596.65 468.96 605.35 438.53 602.09 406.5" id="bQtwZcRqi"></path><path d="M602.09 406.5C594.82 335.27 531.13 283.45 459.86 290.71C449.09 291.81 438.71 294.18 428.97 297.73C393.76 310.36 366.15 337.63 352.51 371.54C352.54 371.54 352.55 371.6 352.55 371.6C354.63 371.38 371.3 369.68 373.38 369.47C380.94 369.58 418.73 370.26 486.75 371.45C488.02 373.72 494.38 385.11 505.84 405.61C520.41 445.23 528.5 467.24 530.12 471.64C514.53 512.29 505.84 534.83 504.11 539.36C501.35 558.17 499.8 568.67 499.5 570.74C530.81 549.99 557.98 523.77 579.72 493.56C579.72 493.56 579.69 493.51 579.69 493.51C596.65 468.96 605.35 438.53 602.09 406.5" id="bpKJgtOSf"></path><path d="M602.09 406.5C594.82 335.27 531.13 283.45 459.86 290.71C449.09 291.81 438.71 294.18 428.97 297.73C393.76 310.36 366.15 337.63 352.51 371.54C352.54 371.54 352.55 371.6 352.55 371.6C354.63 371.38 371.3 369.68 373.38 369.47C380.94 369.58 418.73 370.26 486.75 371.45C488.02 373.72 494.38 385.11 505.84 405.61C520.41 445.23 528.5 467.24 530.12 471.64C514.53 512.29 505.84 534.83 504.11 539.36C501.35 558.17 499.8 568.67 499.5 570.74C530.81 549.99 557.98 523.77 579.72 493.56C579.72 493.56 579.69 493.51 579.69 493.51C596.65 468.96 605.35 438.53 602.09 406.5" id="c1GoqKOJRF"></path><path d="M410.42 350.27C388.86 352.47 369.17 360.08 352.55 371.6C403.22 388.27 439.66 424.31 444.25 469.29C448.95 515.39 418.91 559.12 370.5 585.54C347.22 598.28 319.67 607 289.65 610.06C274.93 611.56 260.51 611.6 246.61 610.34C282.77 620.46 321.39 624.13 360.98 620.09C400.36 616.08 437.18 604.84 470.33 587.77C480.42 582.63 490.15 576.95 499.5 570.74C531.74 545.39 550.67 504.62 546.21 460.84C539.27 392.83 478.49 343.33 410.42 350.27" id="bPAUbyz7"></path><path d="M410.42 350.27C388.86 352.47 369.17 360.08 352.55 371.6C403.22 388.27 439.66 424.31 444.25 469.29C448.95 515.39 418.91 559.12 370.5 585.54C347.22 598.28 319.67 607 289.65 610.06C274.93 611.56 260.51 611.6 246.61 610.34C282.77 620.46 321.39 624.13 360.98 620.09C400.36 616.08 437.18 604.84 470.33 587.77C480.42 582.63 490.15 576.95 499.5 570.74C531.74 545.39 550.67 504.62 546.21 460.84C539.27 392.83 478.49 343.33 410.42 350.27" id="e4V1Xm2UDt"></path><path d="M410.42 350.27C388.86 352.47 369.17 360.08 352.55 371.6C403.22 388.27 439.66 424.31 444.25 469.29C448.95 515.39 418.91 559.12 370.5 585.54C347.22 598.28 319.67 607 289.65 610.06C274.93 611.56 260.51 611.6 246.61 610.34C282.77 620.46 321.39 624.13 360.98 620.09C400.36 616.08 437.18 604.84 470.33 587.77C480.42 582.63 490.15 576.95 499.5 570.74C531.74 545.39 550.67 504.62 546.21 460.84C539.27 392.83 478.49 343.33 410.42 350.27" id="b11vmbbIK"></path><path d="M410.42 350.27C388.86 352.47 369.17 360.08 352.55 371.6C403.22 388.27 439.66 424.31 444.25 469.29C448.95 515.39 418.91 559.12 370.5 585.54C347.22 598.28 319.67 607 289.65 610.06C274.93 611.56 260.51 611.6 246.61 610.34C282.77 620.46 321.39 624.13 360.98 620.09C400.36 616.08 437.18 604.84 470.33 587.77C480.42 582.63 490.15 576.95 499.5 570.74C531.74 545.39 550.67 504.62 546.21 460.84C539.27 392.83 478.49 343.33 410.42 350.27" id="b3Vg4cmhc"></path><path d="M463.85 212.25C445.69 215.56 425.08 212.43 401.94 202.99C381.7 190.66 359.66 184.58 335.79 184.67C300.01 184.85 278.37 191.95 258.92 203.76C207.17 235.05 192.51 303.08 195.08 328.28C197.69 353.84 212.36 429.97 285.21 450.74C305.01 456.39 330.51 462.15 365.29 455.41C388.53 450.91 408.23 440.36 424.45 423.73C415.71 412.82 405.77 403.68 394.61 396.27C383.45 388.89 371.11 383.3 357.55 379.45C378.25 341.41 404.03 316.88 434.79 305.9C481 289.44 517.2 302.6 542.33 313.64C567.45 324.64 596.68 362.7 604.01 405.42C608.31 429.96 603.25 455.54 589 482.24C572.41 513.41 553.2 538.64 531.47 557.9C504.35 581.96 475.06 595.1 448.89 606.93C401.78 628.25 332.35 629.58 290.89 624.56C256.95 620.48 248.14 614.99 220.51 606.83C132.75 580.86 38.25 488.89 26.52 350.61C19.55 268.3 45.32 183.87 94.18 128.12C114.59 104.89 138.17 68.51 209.04 41.02C279.95 13.5 329.05 11.81 377.76 18.06C420.11 23.48 458.13 36.85 491.87 58.05C511.04 75.17 523.61 91.65 529.6 107.44C539.21 132.68 530.72 156.85 521.5 171.72C512.67 185.95 490.02 207.57 463.85 212.25Z" id="d2q6EYWB6a"></path><path d="M463.85 212.25C445.69 215.56 425.08 212.43 401.94 202.99C381.7 190.66 359.66 184.58 335.79 184.67C300.01 184.85 278.37 191.95 258.92 203.76C207.17 235.05 192.51 303.08 195.08 328.28C197.69 353.84 212.36 429.97 285.21 450.74C305.01 456.39 330.51 462.15 365.29 455.41C388.53 450.91 408.23 440.36 424.45 423.73C415.71 412.82 405.77 403.68 394.61 396.27C383.45 388.89 371.11 383.3 357.55 379.45C378.25 341.41 404.03 316.88 434.79 305.9C481 289.44 517.2 302.6 542.33 313.64C567.45 324.64 596.68 362.7 604.01 405.42C608.31 429.96 603.25 455.54 589 482.24C572.41 513.41 553.2 538.64 531.47 557.9C504.35 581.96 475.06 595.1 448.89 606.93C401.78 628.25 332.35 629.58 290.89 624.56C256.95 620.48 248.14 614.99 220.51 606.83C132.75 580.86 38.25 488.89 26.52 350.61C19.55 268.3 45.32 183.87 94.18 128.12C114.59 104.89 138.17 68.51 209.04 41.02C279.95 13.5 329.05 11.81 377.76 18.06C420.11 23.48 458.13 36.85 491.87 58.05C511.04 75.17 523.61 91.65 529.6 107.44C539.21 132.68 530.72 156.85 521.5 171.72C512.67 185.95 490.02 207.57 463.85 212.25Z" id="b2Pg4W9IY"></path></defs><g><g><g><g><use xlink:href="#b2AlYD49Ur" opacity="1" fill="#000000" fill-opacity="0"></use><g><use xlink:href="#b2AlYD49Ur" opacity="1" fill-opacity="0" stroke="#000000" stroke-width="1" stroke-opacity="0"></use></g></g><g><use xlink:href="#d1BvbGwmkB" opacity="1" fill="#244d89" fill-opacity="1"></use><g><use xlink:href="#d1BvbGwmkB" opacity="1" fill-opacity="0" stroke="#000000" stroke-width="1" stroke-opacity="0"></use></g></g><g><use xlink:href="#a5M9GGVkfo" opacity="1" fill="#000000" fill-opacity="0"></use><g><use xlink:href="#a5M9GGVkfo" opacity="1" fill-opacity="0" stroke="#000000" stroke-width="1" stroke-opacity="0"></use></g></g><g><use xlink:href="#m7bzC3mse" opacity="1" fill="#000000" fill-opacity="0"></use><g><use xlink:href="#m7bzC3mse" opacity="1" fill-opacity="0" stroke="#000000" stroke-width="1" stroke-opacity="0"></use></g></g><g><use xlink:href="#a6qtgwJlNp" opacity="1" fill="#000000" fill-opacity="0"></use><g><use xlink:href="#a6qtgwJlNp" opacity="1" fill-opacity="0" stroke="#000000" stroke-width="1" stroke-opacity="0"></use></g></g><g><use xlink:href="#bsfxzt1S" opacity="1" fill="#3fc2f0" fill-opacity="1"></use><g><use xlink:href="#bsfxzt1S" opacity="1" fill-opacity="0" stroke="#000000" stroke-width="1" stroke-opacity="0"></use></g></g><g><use xlink:href="#n1iOn4wN5L" opacity="1" fill="#000000" fill-opacity="0"></use><g><use xlink:href="#n1iOn4wN5L" opacity="1" fill-opacity="0" stroke="#000000" stroke-width="1" stroke-opacity="0"></use></g></g><g><use xlink:href="#a2b0FyjZl4" opacity="1" fill="#000000" fill-opacity="0"></use><g><use xlink:href="#a2b0FyjZl4" opacity="1" fill-opacity="0" stroke="#000000" stroke-width="1" stroke-opacity="0"></use></g></g><g><use xlink:href="#e3ykyleBe" opacity="1" fill="#000000" fill-opacity="0"></use><g><use xlink:href="#e3ykyleBe" opacity="1" fill-opacity="0" stroke="#000000" stroke-width="1" stroke-opacity="0"></use></g></g><g><use xlink:href="#a5vxHwLX2J" opacity="1" fill="#2c84bd" fill-opacity="1"></use><g><use xlink:href="#a5vxHwLX2J" opacity="1" fill-opacity="0" stroke="#000000" stroke-width="1" stroke-opacity="0"></use></g></g><g><use xlink:href="#a2Di4i2SXo" opacity="1" fill="#000000" fill-opacity="0"></use><g><use xlink:href="#a2Di4i2SXo" opacity="1" fill-opacity="0" stroke="#000000" stroke-width="1" stroke-opacity="0"></use></g></g><g><use xlink:href="#h8hJoRf5v1" opacity="1" fill="#000000" fill-opacity="0"></use><g><use xlink:href="#h8hJoRf5v1" opacity="1" fill-opacity="0" stroke="#000000" stroke-width="1" stroke-opacity="0"></use></g></g><g><use xlink:href="#h892L5jDK" opacity="1" fill="#000000" fill-opacity="0"></use><g><use xlink:href="#h892L5jDK" opacity="1" fill-opacity="0" stroke="#000000" stroke-width="1" stroke-opacity="0"></use></g></g><g><use xlink:href="#a6Em3AAli" opacity="1" fill="#38589a" fill-opacity="1"></use><g><use xlink:href="#a6Em3AAli" opacity="1" fill-opacity="0" stroke="#000000" stroke-width="1" stroke-opacity="0"></use></g></g><g><use xlink:href="#a6gZEZJ1C" opacity="1" fill="#000000" fill-opacity="0"></use><g><use xlink:href="#a6gZEZJ1C" opacity="1" fill-opacity="0" stroke="#000000" stroke-width="1" stroke-opacity="0"></use></g></g><g><use xlink:href="#dsDrA55Dq" opacity="1" fill="#000000" fill-opacity="0"></use><g><use xlink:href="#dsDrA55Dq" opacity="1" fill-opacity="0" stroke="#000000" stroke-width="1" stroke-opacity="0"></use></g></g><g><use xlink:href="#b1Ms3hzEtK" opacity="1" fill="#000000" fill-opacity="0"></use><g><use xlink:href="#b1Ms3hzEtK" opacity="1" fill-opacity="0" stroke="#000000" stroke-width="1" stroke-opacity="0"></use></g></g><g><use xlink:href="#aFozDkwqm" opacity="1" fill="#244d89" fill-opacity="1"></use><g><use xlink:href="#aFozDkwqm" opacity="1" fill-opacity="0" stroke="#000000" stroke-width="1" stroke-opacity="0"></use></g></g><g><use xlink:href="#a66SrwND43" opacity="1" fill="#000000" fill-opacity="0"></use><g><use xlink:href="#a66SrwND43" opacity="1" fill-opacity="0" stroke="#000000" stroke-width="1" stroke-opacity="0"></use></g></g><g><use xlink:href="#d1G4QVmQ6" opacity="1" fill="#000000" fill-opacity="0"></use><g><use xlink:href="#d1G4QVmQ6" opacity="1" fill-opacity="0" stroke="#000000" stroke-width="1" stroke-opacity="0"></use></g></g><g><use xlink:href="#a19lbZdezk" opacity="1" fill="#000000" fill-opacity="0"></use><g><use xlink:href="#a19lbZdezk" opacity="1" fill-opacity="0" stroke="#000000" stroke-width="1" stroke-opacity="0"></use></g></g><g><use xlink:href="#a1sdS2d9YV" opacity="1" fill="#3fc2f0" fill-opacity="1"></use><g><use xlink:href="#a1sdS2d9YV" opacity="1" fill-opacity="0" stroke="#000000" stroke-width="1" stroke-opacity="0"></use></g></g><g><use xlink:href="#bQtwZcRqi" opacity="1" fill="#000000" fill-opacity="0"></use><g><use xlink:href="#bQtwZcRqi" opacity="1" fill-opacity="0" stroke="#000000" stroke-width="1" stroke-opacity="0"></use></g></g><g><use xlink:href="#bpKJgtOSf" opacity="1" fill="#000000" fill-opacity="0"></use><g><use xlink:href="#bpKJgtOSf" opacity="1" fill-opacity="0" stroke="#000000" stroke-width="1" stroke-opacity="0"></use></g></g><g><use xlink:href="#c1GoqKOJRF" opacity="1" fill="#000000" fill-opacity="0"></use><g><use xlink:href="#c1GoqKOJRF" opacity="1" fill-opacity="0" stroke="#000000" stroke-width="1" stroke-opacity="0"></use></g></g><g><use xlink:href="#bPAUbyz7" opacity="1" fill="#2c84bd" fill-opacity="1"></use><g><use xlink:href="#bPAUbyz7" opacity="1" fill-opacity="0" stroke="#000000" stroke-width="1" stroke-opacity="0"></use></g></g><g><use xlink:href="#e4V1Xm2UDt" opacity="1" fill="#000000" fill-opacity="0"></use><g><use xlink:href="#e4V1Xm2UDt" opacity="1" fill-opacity="0" stroke="#000000" stroke-width="1" stroke-opacity="0"></use></g></g><g><use xlink:href="#b11vmbbIK" opacity="1" fill="#000000" fill-opacity="0"></use><g><use xlink:href="#b11vmbbIK" opacity="1" fill-opacity="0" stroke="#000000" stroke-width="1" stroke-opacity="0"></use></g></g><g><use xlink:href="#b3Vg4cmhc" opacity="1" fill="#000000" fill-opacity="0"></use><g><use xlink:href="#b3Vg4cmhc" opacity="1" fill-opacity="0" stroke="#000000" stroke-width="1" stroke-opacity="0"></use></g></g><g><use xlink:href="#d2q6EYWB6a" opacity="1" fill="#000000" fill-opacity="0"></use><g><use xlink:href="#d2q6EYWB6a" opacity="1" fill-opacity="0" stroke="#000000" stroke-width="1" stroke-opacity="0"></use></g></g><g><use xlink:href="#b2Pg4W9IY" opacity="1" fill="#000000" fill-opacity="0"></use><g><use xlink:href="#b2Pg4W9IY" opacity="1" fill-opacity="0" stroke="#000000" stroke-width="23" stroke-opacity="1"></use></g></g></g></g></g></svg>