<?xml version="1.0" encoding="iso-8859-1"?>
<!-- Generator: Adobe Illustrator 19.0.0, SVG Export Plug-In . SVG Version: 6.00 Build 0)  -->
<svg version="1.1" id="Capa_1" xmlns="http://www.w3.org/2000/svg" xmlns:xlink="http://www.w3.org/1999/xlink" x="0px" y="0px"
	 viewBox="0 0 480.042 480.042" style="enable-background:new 0 0 480.042 480.042;" xml:space="preserve">
<path style="fill:#5050b9;" d="M296.029,71.626l-144-48l-144,48v400l144-48l144,48l176-64v-400L296.029,71.626z"/>
<path style="fill:#43437d;" d="M296.029,471.626l-144-48v-400l144,48V471.626z"/>
<path style="fill:#e35f9b;" d="M431.781,43.41c-9.815-17.182-28.085-27.785-47.872-27.784c-19.79-0.002-38.063,10.601-47.88,27.784
	c-10.076,17.625-10.676,39.12-1.6,57.28l49.48,98.936l49.464-98.936C442.451,82.531,441.854,61.037,431.781,43.41L431.781,43.41z
	 M383.909,95.626c-13.255,0-24-10.745-24-24s10.745-24,24-24s24,10.745,24,24S397.164,95.626,383.909,95.626z"/>
<circle style="fill:#a12696;" cx="64.029" cy="391.626" r="24"/>
<path d="M383.901,104.002c17.673,0,32-14.327,32-32s-14.327-32-32-32s-32,14.327-32,32S366.228,104.002,383.901,104.002z
	 M383.901,56.002c8.837,0,16,7.163,16,16s-7.163,16-16,16s-16-7.163-16-16S375.064,56.002,383.901,56.002z"/>
<path d="M476.621,1.45c-2.138-1.499-4.874-1.861-7.328-0.968l-50.352,18.344c-28.735-19.454-67.8-11.931-87.254,16.804
	c-0.922,1.361-1.789,2.758-2.602,4.188c-2.464,4.369-4.444,8.993-5.904,13.792l-27.264,9.92l-141.36-47.104
	c-1.64-0.482-3.393-0.415-4.992,0.192l-0.064-0.192l-144,48c-3.263,1.087-5.466,4.137-5.472,7.576v400c0,4.418,3.582,8,8,8
	c0.858,0.013,1.711-0.114,2.528-0.376l141.472-47.2l141.472,47.2c0.814,0.276,1.668,0.416,2.528,0.416
	c0.93-0.016,1.851-0.195,2.72-0.528v0.048l176-64c3.161-1.151,5.265-4.156,5.264-7.52v-400C480.03,5.422,478.763,2.959,476.621,1.45
	L476.621,1.45z M342.973,47.754c12.918-22.606,41.717-30.46,64.323-17.541c7.308,4.176,13.365,10.233,17.541,17.541
	c8.766,15.3,9.283,33.975,1.376,49.736l-42.312,84.624L341.629,97.49C333.716,81.733,334.221,63.061,342.973,47.754z
	 M464.029,402.402l-160,58.176v-12.576c0-4.418-3.582-8-8-8s-8,3.582-8,8v12.904l-128-42.672V128.002c0-4.418-3.582-8-8-8
	s-8,3.582-8,8v290.232l-128,42.672V77.762l128-42.664v28.904c0,4.418,3.582,8,8,8s8-3.582,8-8V35.098l128,42.664v290.24
	c0,4.418,3.582,8,8,8s8-3.582,8-8v-290.4l16-5.824c-0.365,11.383,2.109,22.677,7.2,32.864l49.52,98.936
	c1.975,3.952,6.78,5.555,10.733,3.579c1.549-0.774,2.805-2.03,3.579-3.579l49.464-98.936c10.297-20.537,9.622-44.867-1.8-64.8
	c-1.837-3.147-3.946-6.126-6.304-8.904l31.608-11.52L464.029,402.402z"/>
<path d="M405.685,234.346c-3.124-3.123-8.188-3.123-11.312,0l-10.344,10.344l-10.344-10.344c-3.07-3.178-8.134-3.266-11.312-0.196
	c-3.178,3.07-3.266,8.134-0.196,11.312c0.064,0.066,0.129,0.132,0.196,0.196l10.344,10.344l-10.344,10.344
	c-3.178,3.07-3.266,8.134-0.196,11.312c3.07,3.178,8.134,3.266,11.312,0.196c0.066-0.064,0.132-0.129,0.196-0.196l10.344-10.344
	l10.344,10.344c3.178,3.07,8.242,2.982,11.312-0.196c2.995-3.1,2.995-8.016,0-11.116l-10.344-10.344l10.344-10.344
	C408.808,242.534,408.808,237.47,405.685,234.346L405.685,234.346z"/>
<path d="M120.029,320.002c-4.418,0-8,3.582-8,8v16c0,4.418,3.582,8,8,8s8-3.582,8-8v-16
	C128.029,323.584,124.447,320.002,120.029,320.002z"/>
<path d="M120.029,272.002c-4.418,0-8,3.582-8,8v16c0,4.418,3.582,8,8,8s8-3.582,8-8v-16
	C128.029,275.584,124.447,272.002,120.029,272.002z"/>
<path d="M120.029,224.002c-4.418,0-8,3.582-8,8v16c0,4.418,3.582,8,8,8s8-3.582,8-8v-16
	C128.029,227.584,124.447,224.002,120.029,224.002z"/>
<path d="M120.029,176.002c-4.418,0-8,3.582-8,8v16c0,4.418,3.582,8,8,8s8-3.582,8-8v-16
	C128.029,179.584,124.447,176.002,120.029,176.002z"/>
<path d="M124.677,120.338c-4.231-1.274-8.693,1.124-9.966,5.355c-0.001,0.002-0.001,0.004-0.002,0.005
	c-1.779,5.939-2.681,12.105-2.68,18.304c0,4.418,3.582,8,8,8c4.418,0,8-3.582,8-8c-0.004-4.642,0.673-9.259,2.008-13.704
	C131.306,126.068,128.907,121.609,124.677,120.338z"/>
<path d="M148.573,86.226c-6.81,3.255-12.993,7.685-18.264,13.088c-3.093,3.159-3.039,8.227,0.12,11.32
	c3.159,3.093,8.227,3.039,11.32-0.12c3.967-4.061,8.617-7.394,13.736-9.848c4.088-1.677,6.041-6.351,4.364-10.438
	c-1.677-4.088-6.351-6.041-10.438-4.364c-0.287,0.118-0.567,0.252-0.838,0.402L148.573,86.226z"/>
<path d="M200.029,80.002h-16c-4.418,0-8,3.582-8,8s3.582,8,8,8h16c4.418,0,8-3.582,8-8S204.447,80.002,200.029,80.002z"/>
<path d="M253.365,94.258c-5.437-4.88-11.782-8.643-18.672-11.072c-4.166-1.471-8.737,0.714-10.208,4.88
	c-1.471,4.166,0.714,8.737,4.88,10.208c4.919,1.737,9.448,4.425,13.328,7.912c3.294,2.947,8.353,2.666,11.3-0.628
	C256.94,102.264,256.659,97.205,253.365,94.258z"/>
<path d="M264.029,152.002h0.136c4.418-0.074,7.939-3.716,7.864-8.134c0-0.001,0-0.002,0-0.002c-0.072-4.208-0.288-14.312-0.8-17.192
	c-0.726-4.308-4.801-7.217-9.112-6.504c-4.336,0.717-7.301,4.771-6.672,9.12c0.216,1.496,0.456,8.872,0.56,14.848
	C256.079,148.512,259.654,152.016,264.029,152.002L264.029,152.002z"/>
<path d="M272.029,176.002c0-4.418-3.582-8-8-8s-8,3.582-8,8v16c0,4.418,3.582,8,8,8s8-3.582,8-8V176.002z"/>
<path d="M272.029,224.002c0-4.418-3.582-8-8-8s-8,3.582-8,8v16c0,4.418,3.582,8,8,8s8-3.582,8-8V224.002z"/>
<path d="M264.029,264.002c-4.418,0-8,3.582-8,8v16c0,4.418,3.582,8,8,8s8-3.582,8-8v-16
	C272.029,267.584,268.447,264.002,264.029,264.002z"/>
<path d="M264.029,344.002c4.418,0,8-3.582,8-8v-16c0-4.418-3.582-8-8-8s-8,3.582-8,8v16
	C256.029,340.42,259.611,344.002,264.029,344.002z"/>
<path d="M272.581,366.674c-0.643-4.371-4.707-7.394-9.079-6.751c-4.371,0.643-7.394,4.707-6.751,9.079
	c0.016,0.107,0.034,0.214,0.054,0.321c1.097,6.583,3.373,12.914,6.72,18.688c2.325,3.757,7.255,4.919,11.012,2.594
	c3.598-2.226,4.841-6.869,2.836-10.594C274.989,375.888,273.366,371.371,272.581,366.674z"/>
<path d="M312.029,400.002c-4.542,0.005-9.052-0.763-13.336-2.272c-4.122-1.59-8.753,0.464-10.342,4.586s0.464,8.753,4.586,10.342
	c0.141,0.054,0.284,0.105,0.428,0.151c5.994,2.12,12.306,3.202,18.664,3.2c4.418,0,8-3.582,8-8s-3.582-8-8-8V400.002z"/>
<path d="M356.029,394.65c-4.113,2.392-8.626,4.018-13.32,4.8c-4.356,0.737-7.291,4.865-6.554,9.222
	c0.65,3.844,3.976,6.659,7.874,6.666c0.448-0.002,0.894-0.039,1.336-0.112c6.579-1.104,12.906-3.38,18.68-6.72
	c3.811-2.235,5.089-7.136,2.854-10.948c-2.214-3.775-7.05-5.071-10.854-2.908H356.029z"/>
<path d="M384.029,352.002c-4.418,0-8,3.582-8,8c0.004,4.539-0.764,9.046-2.272,13.328c-1.473,4.166,0.71,8.738,4.876,10.212
	c4.166,1.473,8.738-0.71,10.212-4.876c2.12-5.994,3.203-12.306,3.2-18.664c0-4.418-3.582-8-8-8
	C384.04,352.002,384.034,352.002,384.029,352.002L384.029,352.002z"/>
<path d="M384.029,304.002c-4.418,0-8,3.582-8,8v16c0,4.418,3.582,8,8,8s8-3.582,8-8v-16
	C392.029,307.584,388.447,304.002,384.029,304.002z"/>
<path d="M120.029,368.002c-4.418,0-8,3.582-8,8v16c0,4.418,3.582,8,8,8s8-3.582,8-8v-16
	C128.029,371.584,124.447,368.002,120.029,368.002z"/>
<path d="M64.029,360.002c-17.673,0-32,14.327-32,32s14.327,32,32,32s32-14.327,32-32S81.702,360.002,64.029,360.002z
	 M64.029,408.002c-8.837,0-16-7.163-16-16s7.163-16,16-16s16,7.163,16,16S72.865,408.002,64.029,408.002z"/>
<g>
</g>
<g>
</g>
<g>
</g>
<g>
</g>
<g>
</g>
<g>
</g>
<g>
</g>
<g>
</g>
<g>
</g>
<g>
</g>
<g>
</g>
<g>
</g>
<g>
</g>
<g>
</g>
<g>
</g>
</svg>
