<?xml version="1.0" encoding="UTF-8" standalone="no"?>
<!DOCTYPE svg PUBLIC "-//W3C//DTD SVG 1.1//EN" "http://www.w3.org/Graphics/SVG/1.1/DTD/svg11.dtd">
<svg version="1.1" xmlns="http://www.w3.org/2000/svg" xmlns:xlink="http://www.w3.org/1999/xlink" preserveAspectRatio="xMidYMid meet" viewBox="0 0 640 640" width="640" height="640"><defs><path d="M608 394.67C619.78 394.67 629.33 404.22 629.33 416C629.33 435.2 629.33 588.8 629.33 608C629.33 619.78 619.78 629.33 608 629.33C573.87 629.33 300.8 629.33 266.67 629.33C254.88 629.33 245.33 619.78 245.33 608C245.33 588.8 245.33 435.2 245.33 416C245.33 404.22 254.89 394.67 266.67 394.67C334.93 394.67 573.87 394.67 608 394.67Z" id="ajmGksUkJ"></path><path d="M576 394.67C587.78 394.67 597.33 404.22 597.33 416C597.33 435.2 597.33 588.8 597.33 608C597.33 619.78 587.78 629.33 576 629.33C545.07 629.33 297.6 629.33 266.67 629.33C254.88 629.33 245.33 619.78 245.33 608C245.33 588.8 245.33 435.2 245.33 416C245.33 404.22 254.89 394.67 266.67 394.67C328.53 394.67 545.07 394.67 576 394.67Z" id="alQXjdII2"></path><path d="M352 544C357.89 544 362.67 548.78 362.67 554.67C362.67 556.8 362.67 573.87 362.67 576C362.67 581.89 357.89 586.67 352 586.67C347.73 586.67 313.6 586.67 309.33 586.67C303.44 586.67 298.67 581.89 298.67 576C298.67 573.87 298.67 556.8 298.67 554.67C298.67 548.78 303.44 544 309.33 544C317.87 544 347.73 544 352 544Z" id="a4uNNd7KAW"></path><path d="M458.67 544C464.56 544 469.33 548.78 469.33 554.67C469.33 556.8 469.33 573.87 469.33 576C469.33 581.89 464.56 586.67 458.67 586.67C454.4 586.67 420.27 586.67 416 586.67C410.11 586.67 405.33 581.89 405.33 576C405.33 573.87 405.33 556.8 405.33 554.67C405.33 548.78 410.11 544 416 544C424.53 544 454.4 544 458.67 544Z" id="bkdrl9Tys"></path><path d="M565.33 544C571.22 544 576 548.78 576 554.67C576 556.8 576 573.87 576 576C576 581.89 571.22 586.67 565.33 586.67C561.07 586.67 526.93 586.67 522.67 586.67C516.78 586.67 512 581.89 512 576C512 573.87 512 556.8 512 554.67C512 548.78 516.78 544 522.67 544C531.2 544 561.07 544 565.33 544Z" id="b1WC9L2Sn"></path><path d="M309.33 437.33C303.44 437.33 298.67 442.11 298.67 448C298.67 453.89 303.44 458.67 309.33 458.67C333.87 458.67 530.13 458.67 554.67 458.67C560.56 458.67 565.33 453.89 565.33 448C565.33 442.11 560.56 437.33 554.67 437.33C505.6 437.33 333.87 437.33 309.33 437.33Z" id="ada5asWlh"></path><path d="M309.33 480C303.44 480 298.67 484.78 298.67 490.67C298.67 496.56 303.44 501.33 309.33 501.33C324.27 501.33 443.73 501.33 458.67 501.33C464.56 501.33 469.33 496.56 469.33 490.67C469.33 484.78 464.56 480 458.67 480C428.8 480 324.27 480 309.33 480Z" id="c28k5mK6gW"></path><path d="M106.67 10.67C112.56 10.67 117.33 15.44 117.33 21.33C117.33 25.6 117.33 59.73 117.33 64C117.33 69.89 112.56 74.67 106.67 74.67C98.13 74.67 29.87 74.67 21.33 74.67C15.44 74.67 10.67 69.89 10.67 64C10.67 59.73 10.67 25.6 10.67 21.33C10.67 15.44 15.44 10.67 21.33 10.67C38.4 10.67 98.13 10.67 106.67 10.67Z" id="d10n206IeH"></path><path d="M106.67 224C112.56 224 117.33 228.78 117.33 234.67C117.33 238.93 117.33 273.07 117.33 277.33C117.33 283.22 112.56 288 106.67 288C98.13 288 29.87 288 21.33 288C15.44 288 10.67 283.22 10.67 277.33C10.67 273.07 10.67 238.93 10.67 234.67C10.67 228.78 15.44 224 21.33 224C38.4 224 98.13 224 106.67 224Z" id="hrppgkyly"></path><path d="M362.67 10.67C368.56 10.67 373.33 15.44 373.33 21.33C373.33 25.6 373.33 59.73 373.33 64C373.33 69.89 368.56 74.67 362.67 74.67C354.13 74.67 285.87 74.67 277.33 74.67C271.44 74.67 266.67 69.89 266.67 64C266.67 59.73 266.67 25.6 266.67 21.33C266.67 15.44 271.44 10.67 277.33 10.67C294.4 10.67 354.13 10.67 362.67 10.67Z" id="e1pp8POZzT"></path><path d="M618.67 10.67C624.56 10.67 629.33 15.44 629.33 21.33C629.33 25.6 629.33 59.73 629.33 64C629.33 69.89 624.56 74.67 618.67 74.67C610.13 74.67 541.87 74.67 533.33 74.67C527.44 74.67 522.67 69.89 522.67 64C522.67 59.73 522.67 25.6 522.67 21.33C522.67 15.44 527.44 10.67 533.33 10.67C550.4 10.67 610.13 10.67 618.67 10.67Z" id="a1W2QpRude"></path><path d="M618.67 224C624.56 224 629.33 228.78 629.33 234.67C629.33 238.93 629.33 273.07 629.33 277.33C629.33 283.22 624.56 288 618.67 288C610.13 288 541.87 288 533.33 288C527.44 288 522.67 283.22 522.67 277.33C522.67 273.07 522.67 238.93 522.67 234.67C522.67 228.78 527.44 224 533.33 224C550.4 224 610.13 224 618.67 224Z" id="g44svBDEWz"></path><path d="M362.67 224C368.56 224 373.33 228.78 373.33 234.67C373.33 238.93 373.33 273.07 373.33 277.33C373.33 283.22 368.56 288 362.67 288C354.13 288 285.87 288 277.33 288C271.44 288 266.67 283.22 266.67 277.33C266.67 273.07 266.67 238.93 266.67 234.67C266.67 228.78 271.44 224 277.33 224C294.4 224 354.13 224 362.67 224Z" id="f3nGzaGxB6"></path><path d="M106.67 437.33C112.56 437.33 117.33 442.11 117.33 448C117.33 452.27 117.33 486.4 117.33 490.67C117.33 496.56 112.56 501.33 106.67 501.33C98.13 501.33 29.87 501.33 21.33 501.33C15.44 501.33 10.67 496.56 10.67 490.67C10.67 486.4 10.67 452.27 10.67 448C10.67 442.11 15.44 437.33 21.33 437.33C38.4 437.33 98.13 437.33 106.67 437.33Z" id="bxvQAyWh"></path><path d="M74.67 10.67C80.56 10.67 85.33 15.44 85.33 21.33C85.33 25.6 85.33 59.73 85.33 64C85.33 69.89 80.56 74.67 74.67 74.67C69.33 74.67 26.67 74.67 21.33 74.67C15.44 74.67 10.67 69.89 10.67 64C10.67 59.73 10.67 25.6 10.67 21.33C10.67 15.44 15.44 10.67 21.33 10.67C32 10.67 69.33 10.67 74.67 10.67Z" id="a68ZAiWX7N"></path><path d="M74.67 224C80.56 224 85.33 228.78 85.33 234.67C85.33 238.93 85.33 273.07 85.33 277.33C85.33 283.22 80.56 288 74.67 288C69.33 288 26.67 288 21.33 288C15.44 288 10.67 283.22 10.67 277.33C10.67 273.07 10.67 238.93 10.67 234.67C10.67 228.78 15.44 224 21.33 224C32 224 69.33 224 74.67 224Z" id="a197Iz0RZg"></path><path d="M330.67 10.67C336.56 10.67 341.33 15.44 341.33 21.33C341.33 25.6 341.33 59.73 341.33 64C341.33 69.89 336.56 74.67 330.67 74.67C325.33 74.67 282.67 74.67 277.33 74.67C271.44 74.67 266.67 69.89 266.67 64C266.67 59.73 266.67 25.6 266.67 21.33C266.67 15.44 271.44 10.67 277.33 10.67C288 10.67 325.33 10.67 330.67 10.67Z" id="d1teiDBrd1"></path><path d="M586.67 10.67C592.56 10.67 597.33 15.44 597.33 21.33C597.33 25.6 597.33 59.73 597.33 64C597.33 69.89 592.56 74.67 586.67 74.67C581.33 74.67 538.67 74.67 533.33 74.67C527.44 74.67 522.67 69.89 522.67 64C522.67 59.73 522.67 25.6 522.67 21.33C522.67 15.44 527.44 10.67 533.33 10.67C544 10.67 581.33 10.67 586.67 10.67Z" id="f3641VzJ2k"></path><path d="M586.67 224C592.56 224 597.33 228.78 597.33 234.67C597.33 238.93 597.33 273.07 597.33 277.33C597.33 283.22 592.56 288 586.67 288C581.33 288 538.67 288 533.33 288C527.44 288 522.67 283.22 522.67 277.33C522.67 273.07 522.67 238.93 522.67 234.67C522.67 228.78 527.44 224 533.33 224C544 224 581.33 224 586.67 224Z" id="b1Uta21GUm"></path><path d="M330.67 224C336.56 224 341.33 228.78 341.33 234.67C341.33 238.93 341.33 273.07 341.33 277.33C341.33 283.22 336.56 288 330.67 288C325.33 288 282.67 288 277.33 288C271.44 288 266.67 283.22 266.67 277.33C266.67 273.07 266.67 238.93 266.67 234.67C266.67 228.78 271.44 224 277.33 224C288 224 325.33 224 330.67 224Z" id="b5Qc0ILYjq"></path><path d="M74.67 437.33C80.56 437.33 85.33 442.11 85.33 448C85.33 452.27 85.33 486.4 85.33 490.67C85.33 496.56 80.56 501.33 74.67 501.33C69.33 501.33 26.67 501.33 21.33 501.33C15.44 501.33 10.67 496.56 10.67 490.67C10.67 486.4 10.67 452.27 10.67 448C10.67 442.11 15.44 437.33 21.33 437.33C32 437.33 69.33 437.33 74.67 437.33Z" id="atPwFLfbh"></path><path d="M610.62 384.11L611.92 384.24L613.19 384.42L614.45 384.65L615.69 384.93L616.91 385.26L618.11 385.63L619.3 386.05L620.46 386.51L621.59 387.02L622.71 387.57L623.79 388.16L624.86 388.79L625.89 389.47L626.9 390.17L627.88 390.92L628.83 391.7L629.74 392.52L630.63 393.37L631.48 394.26L632.3 395.17L633.08 396.12L633.83 397.1L634.54 398.11L635.21 399.14L635.84 400.21L636.43 401.29L636.98 402.41L637.49 403.54L637.95 404.7L638.37 405.89L638.74 407.09L639.07 408.31L639.35 409.55L639.58 410.81L639.76 412.08L639.89 413.38L639.97 414.68L640 416L640 608L639.97 609.32L639.89 610.62L639.76 611.92L639.58 613.19L639.35 614.45L639.07 615.69L638.74 616.91L638.37 618.11L637.95 619.3L637.49 620.46L636.98 621.59L636.43 622.71L635.84 623.79L635.21 624.86L634.53 625.89L633.83 626.9L633.08 627.88L632.3 628.83L631.48 629.74L630.63 630.63L629.74 631.48L628.83 632.3L627.88 633.08L626.9 633.83L625.89 634.54L624.86 635.21L623.79 635.84L622.71 636.43L621.59 636.98L620.46 637.49L619.3 637.95L618.11 638.37L616.91 638.74L615.69 639.07L614.45 639.35L613.19 639.58L611.92 639.76L610.62 639.89L609.32 639.97L608 640L266.67 640L265.35 639.97L264.04 639.89L262.75 639.76L261.48 639.58L260.22 639.35L258.98 639.07L257.75 638.74L256.55 638.37L255.37 637.95L254.21 637.49L253.07 636.98L251.96 636.43L250.87 635.84L249.81 635.21L248.78 634.53L247.77 633.83L246.79 633.08L245.84 632.3L244.92 631.48L244.04 630.63L243.19 629.74L242.37 628.83L241.59 627.88L240.84 626.9L240.13 625.89L239.46 624.86L238.83 623.79L238.24 622.71L237.69 621.59L237.18 620.46L236.72 619.3L236.3 618.11L235.92 616.91L235.6 615.69L235.32 614.45L235.09 613.19L234.9 611.92L234.77 610.62L234.69 609.32L234.67 608L234.67 416L234.69 414.68L234.77 413.38L234.9 412.08L235.09 410.81L235.32 409.55L235.6 408.31L235.92 407.09L236.3 405.89L236.72 404.7L237.18 403.54L237.69 402.41L238.24 401.29L238.83 400.21L239.46 399.14L240.13 398.11L240.84 397.1L241.59 396.12L242.37 395.17L243.19 394.26L244.04 393.37L244.92 392.52L245.84 391.7L246.79 390.92L247.77 390.17L248.78 389.47L249.81 388.79L250.87 388.16L251.96 387.57L253.07 387.02L254.21 386.51L255.37 386.05L256.55 385.63L257.75 385.26L258.98 384.93L260.22 384.65L261.48 384.42L262.75 384.24L264.04 384.11L265.35 384.03L266.67 384L608 384L609.32 384.03L610.62 384.11ZM266.23 405.34L265.79 405.37L265.36 405.41L264.94 405.47L264.52 405.55L264.1 405.64L263.7 405.75L263.29 405.88L262.9 406.02L262.51 406.17L262.14 406.34L261.76 406.52L261.4 406.72L261.05 406.93L260.7 407.16L260.37 407.39L260.04 407.64L259.72 407.9L259.42 408.17L259.12 408.46L258.84 408.75L258.57 409.06L258.31 409.37L258.06 409.7L257.82 410.04L257.6 410.38L257.39 410.74L257.19 411.1L257.01 411.47L256.84 411.85L256.68 412.23L256.54 412.63L256.42 413.03L256.31 413.44L256.22 413.85L256.14 414.27L256.08 414.69L256.04 415.13L256.01 415.56L256 416L256 608L256.01 608.44L256.04 608.87L256.08 609.31L256.14 609.73L256.22 610.15L256.31 610.56L256.42 610.97L256.54 611.37L256.68 611.77L256.84 612.15L257.01 612.53L257.19 612.9L257.39 613.26L257.6 613.62L257.82 613.96L258.06 614.3L258.31 614.63L258.57 614.94L258.84 615.25L259.12 615.54L259.42 615.83L259.72 616.1L260.04 616.36L260.37 616.61L260.7 616.84L261.05 617.07L261.4 617.28L261.76 617.48L262.14 617.66L262.51 617.83L262.9 617.98L263.29 618.12L263.7 618.25L264.1 618.36L264.52 618.45L264.94 618.53L265.36 618.59L265.79 618.63L266.23 618.66L266.67 618.67L608 618.67L608.29 618.66L608.59 618.64L608.88 618.61L609.17 618.56L609.46 618.5L609.74 618.43L610.03 618.34L610.31 618.24L610.59 618.13L610.88 618L611.16 617.86L611.43 617.71L611.71 617.54L611.99 617.36L612.26 617.17L612.53 616.96L612.81 616.74L613.08 616.51L613.34 616.26L613.61 616L613.88 615.73L614.14 615.44L614.41 615.14L614.67 614.83L614.93 614.5L615.19 614.16L615.44 613.81L615.7 613.44L615.96 613.06L616.21 612.67L616.46 612.26L616.71 611.84L616.96 611.41L617.21 610.96L617.46 610.5L617.7 610.03L617.94 609.54L618.19 609.04L618.43 608.53L618.67 608L618.67 416L618.66 415.56L618.63 415.13L618.59 414.69L618.53 414.27L618.45 413.85L618.36 413.44L618.25 413.03L618.12 412.63L617.98 412.23L617.83 411.85L617.66 411.47L617.48 411.1L617.28 410.74L617.07 410.38L616.84 410.04L616.61 409.7L616.36 409.37L616.1 409.06L615.83 408.75L615.54 408.46L615.25 408.17L614.94 407.9L614.63 407.64L614.3 407.39L613.96 407.16L613.62 406.93L613.26 406.72L612.9 406.52L612.53 406.34L612.15 406.17L611.77 406.02L611.37 405.88L610.97 405.75L610.56 405.64L610.15 405.55L609.73 405.47L609.31 405.41L608.87 405.37L608.44 405.34L608 405.33L266.67 405.33L266.23 405.34Z" id="c38YXTRyf7"></path><path d="M353.75 533.4L354.61 533.49L355.46 533.61L356.3 533.77L357.13 533.95L357.94 534.17L358.74 534.42L359.53 534.7L360.3 535.01L361.06 535.35L361.8 535.71L362.53 536.11L363.24 536.53L363.93 536.98L364.6 537.45L365.25 537.95L365.88 538.47L366.5 539.01L367.09 539.58L367.65 540.17L368.2 540.78L368.72 541.42L369.22 542.07L369.69 542.74L370.14 543.43L370.56 544.14L370.95 544.86L371.32 545.6L371.66 546.36L371.97 547.14L372.25 547.92L372.5 548.73L372.71 549.54L372.9 550.37L373.05 551.21L373.18 552.06L373.26 552.92L373.32 553.79L373.33 554.67L373.33 576L373.32 576.88L373.26 577.75L373.18 578.61L373.05 579.46L372.9 580.3L372.71 581.13L372.5 581.94L372.25 582.74L371.97 583.53L371.66 584.3L371.32 585.06L370.95 585.8L370.56 586.53L370.14 587.24L369.69 587.93L369.22 588.6L368.72 589.25L368.2 589.88L367.65 590.5L367.09 591.09L366.5 591.65L365.88 592.2L365.25 592.72L364.6 593.22L363.93 593.69L363.24 594.14L362.53 594.56L361.8 594.95L361.06 595.32L360.3 595.66L359.53 595.97L358.74 596.25L357.94 596.5L357.13 596.71L356.3 596.9L355.46 597.05L354.61 597.18L353.75 597.26L352.88 597.32L352 597.33L309.33 597.33L308.45 597.32L307.58 597.26L306.72 597.18L305.87 597.05L305.03 596.9L304.21 596.71L303.39 596.5L302.59 596.25L301.8 595.97L301.03 595.66L300.27 595.32L299.53 594.95L298.8 594.56L298.1 594.14L297.41 593.69L296.73 593.22L296.08 592.72L295.45 592.2L294.84 591.65L294.25 591.09L293.68 590.5L293.14 589.88L292.61 589.25L292.12 588.6L291.64 587.93L291.2 587.24L290.78 586.53L290.38 585.8L290.01 585.06L289.68 584.3L289.37 583.53L289.09 582.74L288.84 581.94L288.62 581.13L288.43 580.3L288.28 579.46L288.16 578.61L288.07 577.75L288.02 576.88L288 576L288 554.67L288.02 553.79L288.07 552.92L288.16 552.06L288.28 551.21L288.43 550.37L288.62 549.54L288.84 548.73L289.09 547.92L289.37 547.14L289.68 546.36L290.01 545.61L290.38 544.86L290.78 544.14L291.2 543.43L291.64 542.74L292.12 542.07L292.61 541.42L293.14 540.78L293.68 540.17L294.25 539.58L294.84 539.01L295.45 538.47L296.08 537.95L296.73 537.45L297.41 536.98L298.1 536.53L298.8 536.11L299.53 535.71L300.27 535.35L301.03 535.01L301.8 534.7L302.59 534.42L303.39 534.17L304.21 533.95L305.03 533.77L305.87 533.61L306.72 533.49L307.58 533.4L308.45 533.35L309.33 533.33L352 533.33L352.88 533.35L353.75 533.4ZM309.33 576L352 576L352 554.67L309.33 554.67L309.33 576Z" id="d3nZF9Qjm2"></path><path d="M460.42 533.4L461.28 533.49L462.13 533.61L462.97 533.77L463.79 533.95L464.61 534.17L465.41 534.42L466.2 534.7L466.97 535.01L467.73 535.35L468.47 535.71L469.2 536.11L469.9 536.53L470.59 536.98L471.27 537.45L471.92 537.95L472.55 538.47L473.16 539.01L473.75 539.58L474.32 540.17L474.86 540.78L475.39 541.42L475.88 542.07L476.36 542.74L476.8 543.43L477.22 544.14L477.62 544.86L477.99 545.6L478.32 546.36L478.63 547.14L478.91 547.92L479.16 548.73L479.38 549.54L479.57 550.37L479.72 551.21L479.84 552.06L479.93 552.92L479.98 553.79L480 554.67L480 576L479.98 576.88L479.93 577.75L479.84 578.61L479.72 579.46L479.57 580.3L479.38 581.13L479.16 581.94L478.91 582.74L478.63 583.53L478.32 584.3L477.99 585.06L477.62 585.8L477.22 586.53L476.8 587.24L476.36 587.93L475.88 588.6L475.39 589.25L474.86 589.88L474.32 590.5L473.75 591.09L473.16 591.65L472.55 592.2L471.92 592.72L471.27 593.22L470.59 593.69L469.9 594.14L469.2 594.56L468.47 594.95L467.73 595.32L466.97 595.66L466.2 595.97L465.41 596.25L464.61 596.5L463.79 596.71L462.97 596.9L462.13 597.05L461.28 597.18L460.42 597.26L459.55 597.32L458.67 597.33L416 597.33L415.12 597.32L414.25 597.26L413.39 597.18L412.54 597.05L411.7 596.9L410.87 596.71L410.06 596.5L409.26 596.25L408.47 595.97L407.7 595.66L406.94 595.32L406.2 594.95L405.47 594.56L404.76 594.14L404.07 593.69L403.4 593.22L402.75 592.72L402.12 592.2L401.5 591.65L400.91 591.09L400.35 590.5L399.8 589.88L399.28 589.25L398.78 588.6L398.31 587.93L397.86 587.24L397.44 586.53L397.05 585.8L396.68 585.06L396.34 584.3L396.03 583.53L395.75 582.74L395.5 581.94L395.29 581.13L395.1 580.3L394.95 579.46L394.82 578.61L394.74 577.75L394.68 576.88L394.67 576L394.67 554.67L394.68 553.79L394.74 552.92L394.82 552.06L394.95 551.21L395.1 550.37L395.29 549.54L395.5 548.73L395.75 547.92L396.03 547.14L396.34 546.36L396.68 545.61L397.05 544.86L397.44 544.14L397.86 543.43L398.31 542.74L398.78 542.07L399.28 541.42L399.8 540.78L400.35 540.17L400.91 539.58L401.5 539.01L402.12 538.47L402.75 537.95L403.4 537.45L404.07 536.98L404.76 536.53L405.47 536.11L406.2 535.71L406.94 535.35L407.7 535.01L408.47 534.7L409.26 534.42L410.06 534.17L410.87 533.95L411.7 533.77L412.54 533.61L413.39 533.49L414.25 533.4L415.12 533.35L416 533.33L458.67 533.33L459.55 533.35L460.42 533.4ZM416 576L458.67 576L458.67 554.67L416 554.67L416 576Z" id="c3lczXojJO"></path><path d="M567.08 533.4L567.94 533.49L568.79 533.61L569.63 533.77L570.46 533.95L571.27 534.17L572.08 534.42L572.86 534.7L573.64 535.01L574.4 535.35L575.14 535.71L575.86 536.11L576.57 536.53L577.26 536.98L577.93 537.45L578.58 537.95L579.22 538.47L579.83 539.01L580.42 539.58L580.99 540.17L581.53 540.78L582.05 541.42L582.55 542.07L583.02 542.74L583.47 543.43L583.89 544.14L584.29 544.86L584.65 545.6L584.99 546.36L585.3 547.14L585.58 547.92L585.83 548.73L586.05 549.54L586.23 550.37L586.39 551.21L586.51 552.06L586.6 552.92L586.65 553.79L586.67 554.67L586.67 576L586.65 576.88L586.6 577.75L586.51 578.61L586.39 579.46L586.23 580.3L586.05 581.13L585.83 581.94L585.58 582.74L585.3 583.53L584.99 584.3L584.65 585.06L584.29 585.8L583.89 586.53L583.47 587.24L583.02 587.93L582.55 588.6L582.05 589.25L581.53 589.88L580.99 590.5L580.42 591.09L579.83 591.65L579.22 592.2L578.59 592.72L577.93 593.22L577.26 593.69L576.57 594.14L575.86 594.56L575.14 594.95L574.4 595.32L573.64 595.66L572.86 595.97L572.08 596.25L571.28 596.5L570.46 596.71L569.63 596.9L568.79 597.05L567.94 597.18L567.08 597.26L566.21 597.32L565.33 597.33L522.67 597.33L521.79 597.32L520.92 597.26L520.06 597.18L519.21 597.05L518.37 596.9L517.54 596.71L516.73 596.5L515.92 596.25L515.14 595.97L514.36 595.66L513.61 595.32L512.86 594.95L512.14 594.56L511.43 594.14L510.74 593.69L510.07 593.22L509.42 592.72L508.78 592.2L508.17 591.65L507.58 591.09L507.01 590.5L506.47 589.88L505.95 589.25L505.45 588.6L504.98 587.93L504.53 587.24L504.11 586.53L503.71 585.8L503.35 585.06L503.01 584.3L502.7 583.53L502.42 582.74L502.17 581.94L501.95 581.13L501.77 580.3L501.61 579.46L501.49 578.61L501.4 577.75L501.35 576.88L501.33 576L501.33 554.67L501.35 553.79L501.4 552.92L501.49 552.06L501.61 551.21L501.77 550.37L501.95 549.54L502.17 548.73L502.42 547.92L502.7 547.14L503.01 546.36L503.35 545.61L503.71 544.86L504.11 544.14L504.53 543.43L504.98 542.74L505.45 542.07L505.95 541.42L506.47 540.78L507.01 540.17L507.58 539.58L508.17 539.01L508.78 538.47L509.42 537.95L510.07 537.45L510.74 536.98L511.43 536.53L512.14 536.11L512.86 535.71L513.61 535.35L514.36 535.01L515.14 534.7L515.92 534.42L516.73 534.17L517.54 533.95L518.37 533.77L519.21 533.61L520.06 533.49L520.92 533.4L521.79 533.35L522.67 533.33L565.33 533.33L566.21 533.35L567.08 533.4ZM522.67 576L565.33 576L565.33 554.67L522.67 554.67L522.67 576Z" id="b1mJhrPaxP"></path><path d="M554.67 458.67C560.56 458.67 565.33 453.89 565.33 448C565.33 442.11 560.56 437.33 554.67 437.33C530.13 437.33 333.87 437.33 309.33 437.33C303.44 437.33 298.67 442.11 298.67 448C298.67 453.89 303.44 458.67 309.33 458.67C358.4 458.67 530.13 458.67 554.67 458.67Z" id="aMHn3iG9U"></path><path d="M458.67 501.33C464.56 501.33 469.33 496.56 469.33 490.67C469.33 484.78 464.56 480 458.67 480C443.73 480 324.27 480 309.33 480C303.44 480 298.67 484.78 298.67 490.67C298.67 496.56 303.44 501.33 309.33 501.33C339.2 501.33 443.73 501.33 458.67 501.33Z" id="aMcpci586"></path><path d="M108.42 0.07L109.28 0.16L110.13 0.28L110.97 0.43L111.79 0.62L112.61 0.84L113.41 1.09L114.2 1.37L114.97 1.68L115.73 2.01L116.47 2.38L117.2 2.78L117.9 3.2L118.59 3.64L119.27 4.12L119.92 4.61L120.55 5.14L121.16 5.68L121.75 6.25L122.32 6.84L122.86 7.45L123.39 8.08L123.88 8.73L124.36 9.41L124.8 10.1L125.22 10.8L125.62 11.53L125.99 12.27L126.32 13.03L126.63 13.8L126.91 14.59L127.16 15.39L127.38 16.21L127.57 17.03L127.72 17.87L127.84 18.72L127.93 19.58L127.98 20.45L128 21.33L128 32L198.25 32L184.45 18.24L184.15 17.92L183.87 17.6L183.61 17.26L183.36 16.92L183.12 16.57L182.9 16.21L182.7 15.84L182.51 15.47L182.34 15.1L182.18 14.72L182.04 14.33L181.92 13.94L181.8 13.55L181.71 13.15L181.63 12.76L181.56 12.36L181.51 11.95L181.48 11.55L181.46 11.14L181.45 10.74L181.46 10.33L181.49 9.93L181.53 9.53L181.59 9.12L181.66 8.72L181.75 8.33L181.85 7.93L181.97 7.54L182.1 7.16L182.25 6.77L182.42 6.39L182.6 6.02L182.79 5.66L183 5.29L183.22 4.94L183.46 4.59L183.72 4.26L183.99 3.92L184.28 3.6L184.58 3.29L184.89 2.99L185.21 2.7L185.54 2.43L185.88 2.18L186.23 1.94L186.58 1.71L186.94 1.5L187.31 1.31L187.68 1.13L188.06 0.96L188.44 0.82L188.83 0.68L189.22 0.56L189.62 0.46L190.01 0.37L190.41 0.3L190.81 0.24L191.22 0.2L191.62 0.18L192.03 0.16L192.43 0.17L192.84 0.19L193.24 0.22L193.64 0.27L194.04 0.34L194.44 0.42L194.84 0.52L195.23 0.63L195.62 0.75L196.01 0.89L196.39 1.05L196.76 1.22L197.13 1.41L197.5 1.62L197.85 1.83L198.21 2.07L198.55 2.32L198.88 2.58L199.21 2.86L199.53 3.16L231.53 35.16L231.6 35.23L231.66 35.3L231.73 35.37L231.8 35.44L231.86 35.51L231.92 35.59L231.99 35.66L232.05 35.73L232.11 35.81L232.17 35.88L232.23 35.96L232.29 36.03L232.35 36.11L232.41 36.19L232.47 36.26L232.52 36.34L232.58 36.42L232.64 36.5L232.69 36.58L232.74 36.66L232.8 36.74L232.85 36.82L232.9 36.9L232.95 36.99L233 37.07L233.05 37.15L233.1 37.23L233.15 37.32L233.2 37.4L233.24 37.49L233.29 37.57L233.33 37.66L233.38 37.74L233.42 37.83L233.46 37.92L233.5 38.01L233.55 38.09L233.59 38.18L233.63 38.27L233.66 38.36L233.67 38.38L233.69 38.41L233.7 38.44L233.71 38.46L233.72 38.49L233.73 38.52L233.74 38.54L233.75 38.57L233.76 38.59L233.77 38.62L233.78 38.65L233.79 38.67L233.8 38.7L233.81 38.73L233.82 38.75L233.83 38.78L233.84 38.81L233.85 38.83L233.86 38.86L233.87 38.89L233.88 38.91L233.89 38.94L233.9 38.97L233.9 38.99L233.91 39.02L233.92 39.05L233.93 39.07L233.94 39.1L233.95 39.13L233.96 39.15L233.97 39.18L233.97 39.21L233.98 39.23L233.99 39.26L234 39.29L234.01 39.32L234.01 39.34L234.02 39.37L234.03 39.4L234.04 39.43L234.06 39.49L234.08 39.55L234.1 39.62L234.12 39.68L234.14 39.74L234.16 39.81L234.18 39.87L234.2 39.94L234.21 40L234.23 40.07L234.25 40.13L234.27 40.2L234.28 40.26L234.3 40.33L234.31 40.39L234.33 40.46L234.34 40.52L234.36 40.59L234.37 40.65L234.38 40.72L234.39 40.79L234.41 40.85L234.42 40.92L234.43 40.98L234.44 41.05L234.45 41.12L234.46 41.18L234.47 41.25L234.48 41.31L234.49 41.38L234.5 41.45L234.5 41.51L234.51 41.58L234.52 41.65L234.52 41.71L234.53 41.78L234.54 41.85L234.54 41.91L234.55 41.98L234.55 42.05L234.55 42.08L234.56 42.1L234.56 42.13L234.56 42.15L234.56 42.18L234.57 42.21L234.57 42.23L234.57 42.26L234.57 42.29L234.58 42.31L234.58 42.34L234.58 42.37L234.58 42.39L234.59 42.42L234.59 42.45L234.59 42.47L234.59 42.5L234.59 42.53L234.6 42.55L234.6 42.58L234.6 42.61L234.6 42.63L234.6 42.66L234.6 42.69L234.6 42.71L234.61 42.74L234.61 42.77L234.61 42.79L234.61 42.82L234.61 42.85L234.61 42.87L234.61 42.9L234.61 42.93L234.61 42.95L234.61 42.98L234.61 43.01L234.61 43.03L234.61 43.06L234.61 43.09L234.61 43.12L234.61 43.2L234.61 43.29L234.6 43.37L234.6 43.46L234.59 43.54L234.59 43.63L234.58 43.71L234.57 43.8L234.56 43.89L234.55 43.97L234.54 44.06L234.53 44.14L234.52 44.23L234.51 44.31L234.5 44.39L234.48 44.48L234.47 44.56L234.45 44.65L234.44 44.73L234.42 44.82L234.4 44.9L234.39 44.98L234.37 45.07L234.35 45.15L234.33 45.23L234.31 45.32L234.29 45.4L234.27 45.48L234.24 45.57L234.22 45.65L234.2 45.73L234.17 45.81L234.15 45.9L234.12 45.98L234.1 46.06L234.07 46.14L234.04 46.22L234.01 46.3L233.98 46.38L233.95 46.46L233.95 46.47L233.94 46.48L233.94 46.49L233.94 46.49L233.93 46.5L233.93 46.51L233.92 46.51L233.92 46.52L233.92 46.53L233.92 46.54L233.91 46.54L233.91 46.55L233.91 46.56L233.91 46.57L233.9 46.57L233.9 46.58L233.9 46.59L233.9 46.6L233.9 46.6L233.9 46.61L233.9 46.62L233.89 46.63L233.89 46.63L233.89 46.65L233.89 46.66L233.89 46.67L233.89 46.68L233.89 46.69L233.89 46.7L233.89 46.73L233.89 46.75L233.85 46.84L233.81 46.93L233.77 47.01L233.73 47.1L233.68 47.18L233.64 47.27L233.6 47.35L233.55 47.44L233.51 47.52L233.46 47.6L233.42 47.69L233.37 47.77L233.32 47.85L233.27 47.93L233.22 48.02L233.17 48.1L233.12 48.18L233.07 48.26L233.02 48.34L232.96 48.42L232.91 48.49L232.85 48.57L232.8 48.65L232.74 48.73L232.69 48.8L232.63 48.88L232.57 48.95L232.51 49.03L232.45 49.1L232.39 49.18L232.33 49.25L232.27 49.32L232.21 49.4L232.15 49.47L232.08 49.54L232.02 49.61L231.95 49.68L231.89 49.75L231.82 49.82L231.76 49.89L231.75 49.89L231.74 49.9L231.74 49.91L231.73 49.92L231.73 49.92L231.72 49.93L231.71 49.94L231.71 49.95L231.7 49.96L231.7 49.96L231.69 49.97L231.68 49.99L231.68 50L231.67 50.01L231.67 50.02L231.65 50.05L231.64 50.06L231.63 50.08L231.63 50.09L231.62 50.1L231.62 50.11L231.61 50.11L231.61 50.12L231.6 50.13L231.6 50.14L231.59 50.15L231.59 50.15L231.58 50.16L231.57 50.17L231.57 50.18L231.56 50.19L231.56 50.19L231.55 50.2L231.54 50.21L199.54 82.21L199.34 82.41L199.13 82.61L198.92 82.8L198.7 82.99L198.48 83.17L198.25 83.34L198.02 83.51L197.79 83.67L197.55 83.82L197.31 83.97L197.07 84.11L196.82 84.24L196.57 84.37L196.32 84.49L196.06 84.6L195.81 84.71L195.55 84.81L195.28 84.9L195.02 84.99L194.75 85.07L194.48 85.14L194.21 85.2L193.93 85.26L193.66 85.31L193.38 85.36L193.1 85.39L192.83 85.42L192.55 85.44L192.27 85.46L191.98 85.46L191.7 85.46L191.42 85.45L191.14 85.44L190.86 85.42L190.57 85.39L190.29 85.35L190.01 85.3L189.73 85.25L189.45 85.19L189.17 85.12L188.89 85.04L188.61 84.96L188.34 84.86L188.07 84.77L187.81 84.66L187.55 84.55L187.29 84.43L187.04 84.31L186.79 84.18L186.54 84.04L186.3 83.9L186.06 83.75L185.83 83.59L185.6 83.43L185.38 83.26L185.16 83.09L184.94 82.91L184.73 82.72L184.53 82.53L184.33 82.34L184.13 82.14L183.94 81.94L183.76 81.73L183.58 81.51L183.41 81.29L183.24 81.07L183.08 80.84L182.92 80.6L182.77 80.37L182.63 80.13L182.49 79.88L182.36 79.63L182.23 79.38L182.12 79.12L182 78.86L181.9 78.59L181.8 78.32L181.71 78.05L181.63 77.78L181.55 77.5L181.48 77.22L181.42 76.94L181.37 76.66L181.32 76.37L181.28 76.09L181.25 75.81L181.23 75.53L181.21 75.24L181.2 74.96L181.2 74.68L181.21 74.4L181.22 74.12L181.25 73.84L181.27 73.56L181.31 73.28L181.35 73.01L181.4 72.73L181.46 72.46L181.53 72.19L181.6 71.92L181.68 71.65L181.76 71.38L181.86 71.12L181.96 70.86L182.06 70.6L182.18 70.35L182.3 70.09L182.42 69.84L182.56 69.6L182.7 69.35L182.84 69.11L183 68.87L183.16 68.64L183.32 68.41L183.5 68.19L183.68 67.97L183.86 67.75L184.06 67.54L184.25 67.33L184.46 67.13L198.25 53.33L128 53.33L128 64L127.98 64.88L127.93 65.75L127.84 66.61L127.72 67.46L127.57 68.3L127.38 69.13L127.16 69.94L126.91 70.74L126.63 71.53L126.32 72.3L125.99 73.06L125.62 73.8L125.23 74.53L124.81 75.24L124.36 75.93L123.89 76.6L123.39 77.25L122.87 77.88L122.32 78.5L121.75 79.09L121.16 79.65L120.55 80.2L119.92 80.72L119.27 81.22L118.6 81.69L117.91 82.14L117.2 82.56L116.47 82.95L115.73 83.32L114.97 83.66L114.2 83.97L113.41 84.25L112.61 84.5L111.79 84.71L110.97 84.9L110.13 85.05L109.28 85.18L108.42 85.26L107.55 85.32L106.67 85.33L21.33 85.33L20.45 85.32L19.58 85.26L18.72 85.18L17.87 85.05L17.03 84.9L16.21 84.71L15.39 84.5L14.59 84.25L13.8 83.97L13.03 83.66L12.27 83.32L11.53 82.95L10.8 82.56L10.1 82.14L9.41 81.69L8.73 81.22L8.08 80.72L7.45 80.2L6.84 79.65L6.25 79.09L5.68 78.5L5.14 77.88L4.61 77.25L4.12 76.6L3.64 75.93L3.2 75.24L2.78 74.53L2.38 73.8L2.01 73.06L1.68 72.3L1.37 71.53L1.09 70.74L0.84 69.94L0.62 69.13L0.43 68.3L0.28 67.46L0.16 66.61L0.07 65.75L0.02 64.88L0 64L0 21.33L0.02 20.45L0.07 19.58L0.16 18.72L0.28 17.87L0.43 17.03L0.62 16.21L0.84 15.39L1.09 14.59L1.37 13.8L1.68 13.03L2.01 12.27L2.38 11.53L2.78 10.8L3.2 10.1L3.64 9.41L4.12 8.73L4.61 8.08L5.14 7.45L5.68 6.84L6.25 6.25L6.84 5.68L7.45 5.14L8.08 4.61L8.73 4.12L9.41 3.64L10.1 3.2L10.8 2.78L11.53 2.38L12.27 2.01L13.03 1.68L13.8 1.37L14.59 1.09L15.39 0.84L16.21 0.62L17.03 0.43L17.87 0.28L18.72 0.16L19.58 0.07L20.45 0.02L21.33 0L106.67 0L107.55 0.02L108.42 0.07ZM21.33 64L106.67 64L106.67 21.33L21.33 21.33L21.33 64Z" id="b1jRseXdzn"></path><path d="M108.42 213.4L109.28 213.49L110.13 213.61L110.97 213.77L111.79 213.95L112.61 214.17L113.41 214.42L114.2 214.7L114.97 215.01L115.73 215.35L116.47 215.71L117.2 216.11L117.91 216.53L118.6 216.98L119.27 217.45L119.92 217.95L120.55 218.47L121.16 219.01L121.75 219.58L122.32 220.17L122.87 220.78L123.39 221.41L123.89 222.07L124.36 222.74L124.81 223.43L125.23 224.14L125.62 224.86L125.99 225.6L126.32 226.36L126.63 227.14L126.91 227.92L127.16 228.72L127.38 229.54L127.57 230.37L127.72 231.21L127.84 232.06L127.93 232.92L127.98 233.79L128 234.67L128 277.33L127.98 278.21L127.93 279.08L127.84 279.94L127.72 280.79L127.57 281.63L127.38 282.46L127.16 283.27L126.91 284.08L126.63 284.86L126.32 285.64L125.99 286.39L125.62 287.14L125.23 287.86L124.81 288.57L124.36 289.26L123.89 289.93L123.39 290.58L122.87 291.22L122.32 291.83L121.75 292.42L121.16 292.99L120.55 293.53L119.92 294.05L119.27 294.55L118.6 295.02L117.91 295.47L117.2 295.89L116.47 296.29L115.73 296.65L114.97 296.99L114.2 297.3L113.41 297.58L112.61 297.83L111.79 298.05L110.97 298.23L110.13 298.39L109.28 298.51L108.42 298.6L107.55 298.65L106.67 298.67L74.67 298.67L74.67 368.92L88.43 355.16L88.75 354.86L89.07 354.58L89.41 354.32L89.75 354.07L90.1 353.83L90.46 353.61L90.82 353.41L91.19 353.22L91.57 353.05L91.95 352.89L92.34 352.75L92.73 352.63L93.12 352.51L93.51 352.42L93.91 352.34L94.31 352.27L94.72 352.22L95.12 352.19L95.52 352.17L95.93 352.16L96.33 352.17L96.74 352.2L97.14 352.24L97.54 352.3L97.94 352.37L98.34 352.46L98.74 352.56L99.13 352.68L99.51 352.81L99.9 352.96L100.27 353.13L100.65 353.31L101.01 353.5L101.37 353.71L101.73 353.93L102.07 354.17L102.41 354.43L102.74 354.7L103.07 354.99L103.38 355.29L103.68 355.6L103.97 355.92L104.24 356.25L104.49 356.59L104.73 356.94L104.96 357.29L105.17 357.65L105.36 358.02L105.54 358.39L105.7 358.77L105.85 359.15L105.99 359.54L106.1 359.93L106.21 360.33L106.3 360.72L106.37 361.12L106.42 361.52L106.47 361.93L106.49 362.33L106.5 362.74L106.5 363.14L106.48 363.55L106.45 363.95L106.4 364.35L106.33 364.75L106.25 365.15L106.15 365.55L106.04 365.94L105.92 366.33L105.77 366.72L105.62 367.1L105.44 367.47L105.26 367.84L105.05 368.21L104.83 368.56L104.6 368.92L104.35 369.26L104.09 369.59L103.81 369.92L103.51 370.24L71.51 402.24L71.28 402.46L71.04 402.68L70.8 402.89L70.55 403.09L70.3 403.28L70.04 403.46L69.78 403.64L69.52 403.8L69.25 403.96L68.97 404.11L68.7 404.26L68.41 404.39L68.13 404.51L67.84 404.63L67.55 404.74L67.26 404.84L66.96 404.93L66.66 405.01L66.36 405.09L66.06 405.15L65.76 405.21L65.45 405.25L65.15 405.29L64.84 405.32L64.53 405.34L64.22 405.36L63.91 405.36L63.6 405.35L63.29 405.34L62.98 405.31L62.67 405.28L62.36 405.23L62.05 405.18L61.74 405.12L61.43 405.05L61.12 404.97L60.82 404.88L60.52 404.78L60.21 404.67L59.92 404.56L59.83 404.52L59.74 404.48L59.65 404.43L59.57 404.39L59.48 404.35L59.4 404.31L59.31 404.26L59.23 404.22L59.14 404.17L59.06 404.13L58.98 404.08L58.9 404.03L58.81 403.99L58.73 403.94L58.65 403.89L58.57 403.84L58.49 403.79L58.41 403.73L58.33 403.68L58.25 403.63L58.17 403.57L58.09 403.52L58.02 403.46L57.94 403.41L57.86 403.35L57.79 403.29L57.71 403.24L57.64 403.18L57.56 403.12L57.49 403.06L57.42 403L57.34 402.94L57.27 402.87L57.2 402.81L57.13 402.75L57.06 402.68L56.99 402.62L56.92 402.55L56.85 402.49L56.78 402.42L56.77 402.41L56.76 402.41L56.76 402.4L56.75 402.4L56.74 402.39L56.73 402.39L56.73 402.38L56.72 402.38L56.71 402.37L56.7 402.37L56.69 402.36L56.68 402.35L56.67 402.35L56.66 402.34L56.64 402.33L56.62 402.32L56.6 402.31L56.59 402.3L56.58 402.29L56.57 402.29L56.56 402.28L56.55 402.28L56.54 402.27L56.54 402.27L56.53 402.26L56.52 402.26L56.51 402.25L56.5 402.25L56.5 402.24L56.49 402.23L56.48 402.23L56.47 402.22L56.47 402.21L56.46 402.21L24.46 370.21L24.16 369.89L23.88 369.56L23.62 369.23L23.37 368.88L23.13 368.53L22.92 368.17L22.71 367.81L22.52 367.44L22.35 367.06L22.19 366.68L22.05 366.3L21.93 365.91L21.82 365.52L21.72 365.12L21.64 364.72L21.57 364.32L21.52 363.92L21.49 363.51L21.47 363.11L21.46 362.71L21.48 362.3L21.5 361.9L21.54 361.49L21.6 361.09L21.67 360.69L21.76 360.29L21.86 359.9L21.98 359.51L22.12 359.12L22.26 358.74L22.43 358.36L22.61 357.99L22.8 357.62L23.01 357.26L23.24 356.91L23.48 356.56L23.73 356.22L24 355.89L24.29 355.57L24.59 355.26L24.9 354.95L25.22 354.67L25.56 354.4L25.89 354.14L26.24 353.9L26.59 353.68L26.95 353.47L27.32 353.27L27.69 353.09L28.07 352.93L28.45 352.78L28.84 352.65L29.23 352.53L29.63 352.43L30.02 352.34L30.42 352.27L30.83 352.21L31.23 352.17L31.63 352.14L32.04 352.13L32.44 352.14L32.85 352.15L33.25 352.19L33.65 352.24L34.06 352.3L34.45 352.39L34.85 352.48L35.24 352.59L35.63 352.72L36.02 352.86L36.4 353.02L36.77 353.19L37.14 353.38L37.51 353.58L37.87 353.8L38.22 354.04L38.56 354.28L38.9 354.55L39.22 354.83L39.54 355.13L53.33 368.92L53.33 298.67L21.33 298.67L20.45 298.65L19.58 298.6L18.72 298.51L17.87 298.39L17.03 298.23L16.21 298.05L15.39 297.83L14.59 297.58L13.8 297.3L13.03 296.99L12.27 296.65L11.53 296.29L10.8 295.89L10.1 295.47L9.41 295.02L8.73 294.55L8.08 294.05L7.45 293.53L6.84 292.99L6.25 292.42L5.68 291.83L5.14 291.22L4.61 290.58L4.12 289.93L3.64 289.26L3.2 288.57L2.78 287.86L2.38 287.14L2.01 286.39L1.68 285.64L1.37 284.86L1.09 284.08L0.84 283.27L0.62 282.46L0.43 281.63L0.28 280.79L0.16 279.94L0.07 279.08L0.02 278.21L0 277.33L0 234.67L0.02 233.79L0.07 232.92L0.16 232.06L0.28 231.21L0.43 230.37L0.62 229.54L0.84 228.73L1.09 227.92L1.37 227.14L1.68 226.36L2.01 225.6L2.38 224.86L2.78 224.14L3.2 223.43L3.64 222.74L4.12 222.07L4.61 221.42L5.14 220.78L5.68 220.17L6.25 219.58L6.84 219.01L7.45 218.47L8.08 217.95L8.73 217.45L9.41 216.98L10.1 216.53L10.8 216.11L11.53 215.71L12.27 215.35L13.03 215.01L13.8 214.7L14.59 214.42L15.39 214.17L16.21 213.95L17.03 213.77L17.87 213.61L18.72 213.49L19.58 213.4L20.45 213.35L21.33 213.33L106.67 213.33L107.55 213.35L108.42 213.4ZM21.33 277.33L106.67 277.33L106.67 234.67L21.33 234.67L21.33 277.33Z" id="ek2Loqc61"></path><path d="M364.42 0.07L365.28 0.16L366.13 0.28L366.97 0.43L367.79 0.62L368.61 0.84L369.41 1.09L370.2 1.37L370.97 1.68L371.73 2.01L372.47 2.38L373.2 2.78L373.9 3.2L374.59 3.64L375.27 4.12L375.92 4.61L376.55 5.14L377.16 5.68L377.75 6.25L378.32 6.84L378.86 7.45L379.39 8.08L379.88 8.73L380.36 9.41L380.8 10.1L381.22 10.8L381.62 11.53L381.99 12.27L382.32 13.03L382.63 13.8L382.91 14.59L383.16 15.39L383.38 16.21L383.57 17.03L383.72 17.87L383.84 18.72L383.93 19.58L383.98 20.45L384 21.33L384 32L454.25 32L440.45 18.24L440.15 17.92L439.87 17.6L439.61 17.26L439.36 16.92L439.12 16.57L438.9 16.21L438.7 15.84L438.51 15.47L438.34 15.1L438.18 14.72L438.04 14.33L437.92 13.94L437.8 13.55L437.71 13.15L437.63 12.76L437.56 12.36L437.51 11.95L437.48 11.55L437.46 11.14L437.45 10.74L437.46 10.33L437.49 9.93L437.53 9.53L437.59 9.12L437.66 8.72L437.75 8.33L437.85 7.93L437.97 7.54L438.1 7.16L438.25 6.77L438.42 6.39L438.6 6.02L438.79 5.66L439 5.29L439.22 4.94L439.46 4.59L439.72 4.26L439.99 3.92L440.28 3.6L440.58 3.29L440.89 2.99L441.21 2.7L441.54 2.43L441.88 2.18L442.23 1.94L442.58 1.71L442.94 1.5L443.31 1.31L443.68 1.13L444.06 0.96L444.44 0.82L444.83 0.68L445.22 0.56L445.62 0.46L446.01 0.37L446.41 0.3L446.81 0.24L447.22 0.2L447.62 0.18L448.03 0.16L448.43 0.17L448.84 0.19L449.24 0.22L449.64 0.27L450.04 0.34L450.44 0.42L450.84 0.52L451.23 0.63L451.62 0.75L452.01 0.89L452.39 1.05L452.76 1.22L453.13 1.41L453.5 1.62L453.85 1.83L454.21 2.07L454.55 2.32L454.88 2.58L455.21 2.86L455.53 3.16L487.53 35.16L487.6 35.23L487.66 35.3L487.73 35.37L487.8 35.44L487.86 35.51L487.92 35.59L487.99 35.66L488.05 35.73L488.11 35.81L488.17 35.88L488.23 35.96L488.29 36.03L488.35 36.11L488.41 36.19L488.47 36.26L488.52 36.34L488.58 36.42L488.64 36.5L488.69 36.58L488.74 36.66L488.8 36.74L488.85 36.82L488.9 36.9L488.95 36.99L489 37.07L489.05 37.15L489.1 37.23L489.15 37.32L489.2 37.4L489.24 37.49L489.29 37.57L489.33 37.66L489.38 37.74L489.42 37.83L489.46 37.92L489.5 38.01L489.55 38.09L489.59 38.18L489.63 38.27L489.66 38.36L489.67 38.38L489.69 38.41L489.7 38.44L489.71 38.46L489.72 38.49L489.73 38.52L489.74 38.54L489.75 38.57L489.76 38.59L489.77 38.62L489.78 38.65L489.79 38.67L489.8 38.7L489.81 38.73L489.82 38.75L489.83 38.78L489.84 38.81L489.85 38.83L489.86 38.86L489.87 38.89L489.88 38.91L489.89 38.94L489.9 38.97L489.9 38.99L489.91 39.02L489.92 39.05L489.93 39.07L489.94 39.1L489.95 39.13L489.96 39.15L489.97 39.18L489.97 39.21L489.98 39.23L489.99 39.26L490 39.29L490.01 39.32L490.01 39.34L490.02 39.37L490.03 39.4L490.04 39.43L490.06 39.49L490.08 39.55L490.1 39.62L490.12 39.68L490.14 39.74L490.16 39.81L490.18 39.87L490.2 39.94L490.21 40L490.23 40.07L490.25 40.13L490.27 40.2L490.28 40.26L490.3 40.33L490.31 40.39L490.33 40.46L490.34 40.52L490.36 40.59L490.37 40.65L490.38 40.72L490.39 40.79L490.41 40.85L490.42 40.92L490.43 40.98L490.44 41.05L490.45 41.12L490.46 41.18L490.47 41.25L490.48 41.31L490.49 41.38L490.5 41.45L490.5 41.51L490.51 41.58L490.52 41.65L490.52 41.71L490.53 41.78L490.54 41.85L490.54 41.91L490.55 41.98L490.55 42.05L490.55 42.08L490.56 42.1L490.56 42.13L490.56 42.15L490.56 42.18L490.57 42.21L490.57 42.23L490.57 42.26L490.57 42.29L490.58 42.31L490.58 42.34L490.58 42.37L490.58 42.39L490.59 42.42L490.59 42.45L490.59 42.47L490.59 42.5L490.59 42.53L490.6 42.55L490.6 42.58L490.6 42.61L490.6 42.63L490.6 42.66L490.6 42.69L490.6 42.71L490.61 42.74L490.61 42.77L490.61 42.79L490.61 42.82L490.61 42.85L490.61 42.87L490.61 42.9L490.61 42.93L490.61 42.95L490.61 42.98L490.61 43.01L490.61 43.03L490.61 43.06L490.61 43.09L490.61 43.12L490.61 43.2L490.61 43.29L490.6 43.37L490.6 43.46L490.59 43.54L490.59 43.63L490.58 43.71L490.57 43.8L490.56 43.89L490.55 43.97L490.54 44.06L490.53 44.14L490.52 44.23L490.51 44.31L490.5 44.39L490.48 44.48L490.47 44.56L490.45 44.65L490.44 44.73L490.42 44.82L490.4 44.9L490.39 44.98L490.37 45.07L490.35 45.15L490.33 45.23L490.31 45.32L490.29 45.4L490.27 45.48L490.24 45.57L490.22 45.65L490.2 45.73L490.17 45.81L490.15 45.9L490.12 45.98L490.1 46.06L490.07 46.14L490.04 46.22L490.01 46.3L489.98 46.38L489.95 46.46L489.95 46.47L489.94 46.48L489.94 46.49L489.94 46.49L489.93 46.5L489.93 46.51L489.92 46.51L489.92 46.52L489.92 46.53L489.92 46.54L489.91 46.54L489.91 46.55L489.91 46.56L489.91 46.57L489.9 46.57L489.9 46.58L489.9 46.59L489.9 46.6L489.9 46.6L489.9 46.61L489.9 46.62L489.89 46.63L489.89 46.63L489.89 46.65L489.89 46.66L489.89 46.67L489.89 46.68L489.89 46.69L489.89 46.7L489.89 46.73L489.89 46.75L489.85 46.84L489.81 46.93L489.77 47.01L489.73 47.1L489.68 47.18L489.64 47.27L489.6 47.35L489.55 47.44L489.51 47.52L489.46 47.6L489.42 47.69L489.37 47.77L489.32 47.85L489.27 47.93L489.22 48.02L489.17 48.1L489.12 48.18L489.07 48.26L489.02 48.34L488.96 48.42L488.91 48.49L488.85 48.57L488.8 48.65L488.74 48.73L488.69 48.8L488.63 48.88L488.57 48.95L488.51 49.03L488.45 49.1L488.39 49.18L488.33 49.25L488.27 49.32L488.21 49.4L488.15 49.47L488.08 49.54L488.02 49.61L487.95 49.68L487.89 49.75L487.82 49.82L487.76 49.89L487.75 49.89L487.74 49.9L487.74 49.91L487.73 49.92L487.73 49.92L487.72 49.93L487.71 49.94L487.71 49.95L487.7 49.96L487.7 49.96L487.69 49.97L487.68 49.99L487.68 50L487.67 50.01L487.67 50.02L487.65 50.05L487.64 50.06L487.63 50.08L487.63 50.09L487.62 50.1L487.62 50.11L487.61 50.11L487.61 50.12L487.6 50.13L487.6 50.14L487.59 50.15L487.59 50.15L487.58 50.16L487.57 50.17L487.57 50.18L487.56 50.19L487.56 50.19L487.55 50.2L487.54 50.21L455.54 82.21L455.34 82.41L455.13 82.61L454.92 82.8L454.7 82.99L454.48 83.17L454.25 83.34L454.02 83.51L453.79 83.67L453.55 83.82L453.31 83.97L453.07 84.11L452.82 84.24L452.57 84.37L452.32 84.49L452.06 84.6L451.81 84.71L451.55 84.81L451.28 84.9L451.02 84.99L450.75 85.07L450.48 85.14L450.21 85.2L449.93 85.26L449.66 85.31L449.38 85.36L449.1 85.39L448.83 85.42L448.55 85.44L448.27 85.46L447.98 85.46L447.7 85.46L447.42 85.45L447.14 85.44L446.86 85.42L446.57 85.39L446.29 85.35L446.01 85.3L445.73 85.25L445.45 85.19L445.17 85.12L444.89 85.04L444.61 84.96L444.34 84.86L444.07 84.77L443.81 84.66L443.55 84.55L443.29 84.43L443.04 84.31L442.79 84.18L442.54 84.04L442.3 83.9L442.06 83.75L441.83 83.59L441.6 83.43L441.38 83.26L441.16 83.09L440.94 82.91L440.73 82.72L440.53 82.53L440.33 82.34L440.13 82.14L439.94 81.94L439.76 81.73L439.58 81.51L439.41 81.29L439.24 81.07L439.08 80.84L438.92 80.6L438.77 80.37L438.63 80.13L438.49 79.88L438.36 79.63L438.23 79.38L438.12 79.12L438 78.86L437.9 78.59L437.8 78.32L437.71 78.05L437.63 77.78L437.55 77.5L437.48 77.22L437.42 76.94L437.37 76.66L437.32 76.37L437.28 76.09L437.25 75.81L437.23 75.53L437.21 75.24L437.2 74.96L437.2 74.68L437.21 74.4L437.22 74.12L437.25 73.84L437.27 73.56L437.31 73.28L437.35 73.01L437.4 72.73L437.46 72.46L437.53 72.19L437.6 71.92L437.68 71.65L437.76 71.38L437.86 71.12L437.96 70.86L438.06 70.6L438.18 70.35L438.3 70.09L438.42 69.84L438.56 69.6L438.7 69.35L438.84 69.11L439 68.87L439.16 68.64L439.32 68.41L439.5 68.19L439.68 67.97L439.86 67.75L440.06 67.54L440.25 67.33L440.46 67.13L454.25 53.33L384 53.33L384 64L383.98 64.88L383.93 65.75L383.84 66.61L383.72 67.46L383.57 68.3L383.38 69.13L383.16 69.94L382.91 70.74L382.63 71.53L382.32 72.3L381.99 73.06L381.62 73.8L381.23 74.53L380.81 75.24L380.36 75.93L379.89 76.6L379.39 77.25L378.87 77.88L378.32 78.5L377.75 79.09L377.16 79.65L376.55 80.2L375.92 80.72L375.27 81.22L374.6 81.69L373.91 82.14L373.2 82.56L372.47 82.95L371.73 83.32L370.97 83.66L370.2 83.97L369.41 84.25L368.61 84.5L367.79 84.71L366.97 84.9L366.13 85.05L365.28 85.18L364.42 85.26L363.55 85.32L362.67 85.33L277.33 85.33L276.45 85.32L275.58 85.26L274.72 85.18L273.87 85.05L273.03 84.9L272.21 84.71L271.39 84.5L270.59 84.25L269.8 83.97L269.03 83.66L268.27 83.32L267.53 82.95L266.8 82.56L266.1 82.14L265.41 81.69L264.73 81.22L264.08 80.72L263.45 80.2L262.84 79.65L262.25 79.09L261.68 78.5L261.14 77.88L260.61 77.25L260.12 76.6L259.64 75.93L259.2 75.24L258.78 74.53L258.38 73.8L258.01 73.06L257.68 72.3L257.37 71.53L257.09 70.74L256.84 69.94L256.62 69.13L256.43 68.3L256.28 67.46L256.16 66.61L256.07 65.75L256.02 64.88L256 64L256 21.33L256.02 20.45L256.07 19.58L256.16 18.72L256.28 17.87L256.43 17.03L256.62 16.21L256.84 15.39L257.09 14.59L257.37 13.8L257.68 13.03L258.01 12.27L258.38 11.53L258.78 10.8L259.2 10.1L259.64 9.41L260.12 8.73L260.61 8.08L261.14 7.45L261.68 6.84L262.25 6.25L262.84 5.68L263.45 5.14L264.08 4.61L264.73 4.12L265.41 3.64L266.1 3.2L266.8 2.78L267.53 2.38L268.27 2.01L269.03 1.68L269.8 1.37L270.59 1.09L271.39 0.84L272.21 0.62L273.03 0.43L273.87 0.28L274.72 0.16L275.58 0.07L276.45 0.02L277.33 0L362.67 0L363.55 0.02L364.42 0.07ZM277.33 64L362.67 64L362.67 21.33L277.33 21.33L277.33 64Z" id="a1XFEfoHmB"></path><path d="M620.42 0.07L621.28 0.16L622.13 0.28L622.97 0.43L623.79 0.62L624.61 0.84L625.41 1.09L626.2 1.37L626.97 1.68L627.73 2.01L628.47 2.38L629.2 2.78L629.9 3.2L630.59 3.64L631.27 4.12L631.92 4.61L632.55 5.14L633.16 5.68L633.75 6.25L634.32 6.84L634.86 7.45L635.39 8.08L635.88 8.73L636.36 9.41L636.8 10.1L637.23 10.8L637.62 11.53L637.99 12.27L638.32 13.03L638.63 13.8L638.91 14.59L639.16 15.39L639.38 16.21L639.57 17.03L639.72 17.87L639.84 18.72L639.93 19.58L639.98 20.45L640 21.33L640 64L639.98 64.88L639.93 65.75L639.84 66.61L639.72 67.46L639.57 68.3L639.38 69.13L639.16 69.94L638.91 70.74L638.63 71.53L638.32 72.3L637.99 73.06L637.62 73.8L637.23 74.53L636.81 75.24L636.36 75.93L635.89 76.6L635.39 77.25L634.87 77.88L634.32 78.5L633.75 79.09L633.16 79.65L632.55 80.2L631.92 80.72L631.27 81.22L630.6 81.69L629.91 82.14L629.2 82.56L628.47 82.95L627.73 83.32L626.97 83.66L626.2 83.97L625.41 84.25L624.61 84.5L623.79 84.71L622.97 84.9L622.13 85.05L621.28 85.18L620.42 85.26L619.55 85.32L618.67 85.33L586.67 85.33L586.67 155.58L600.43 141.83L600.75 141.53L601.07 141.25L601.41 140.98L601.75 140.74L602.1 140.5L602.46 140.28L602.82 140.08L603.19 139.89L603.57 139.72L603.95 139.56L604.34 139.42L604.73 139.29L605.12 139.18L605.51 139.09L605.91 139L606.31 138.94L606.72 138.89L607.12 138.85L607.52 138.84L607.93 138.83L608.33 138.84L608.74 138.87L609.14 138.91L609.54 138.97L609.94 139.04L610.34 139.13L610.74 139.23L611.13 139.35L611.51 139.48L611.9 139.63L612.27 139.79L612.65 139.97L613.01 140.17L613.37 140.38L613.73 140.6L614.07 140.84L614.41 141.1L614.74 141.37L615.07 141.65L615.38 141.95L615.68 142.27L615.97 142.59L616.24 142.92L616.49 143.26L616.73 143.61L616.96 143.96L617.17 144.32L617.36 144.69L617.54 145.06L617.7 145.44L617.85 145.82L617.99 146.21L618.1 146.6L618.21 146.99L618.3 147.39L618.37 147.79L618.42 148.19L618.47 148.6L618.49 149L618.5 149.4L618.5 149.81L618.48 150.21L618.45 150.62L618.4 151.02L618.33 151.42L618.25 151.82L618.15 152.22L618.04 152.61L617.92 153L617.77 153.38L617.62 153.76L617.44 154.14L617.26 154.51L617.05 154.87L616.83 155.23L616.6 155.58L616.35 155.93L616.09 156.26L615.81 156.59L615.51 156.91L583.51 188.91L583.28 189.13L583.04 189.35L582.8 189.56L582.55 189.75L582.3 189.95L582.04 190.13L581.78 190.31L581.52 190.47L581.25 190.63L580.97 190.78L580.7 190.92L580.41 191.06L580.13 191.18L579.84 191.3L579.55 191.41L579.26 191.51L578.96 191.6L578.66 191.68L578.36 191.75L578.06 191.82L577.76 191.87L577.45 191.92L577.15 191.96L576.84 191.99L576.53 192.01L576.22 192.02L575.91 192.03L575.6 192.02L575.29 192L574.98 191.98L574.67 191.95L574.36 191.9L574.05 191.85L573.74 191.79L573.43 191.72L573.12 191.64L572.82 191.55L572.52 191.45L572.21 191.34L571.92 191.22L571.83 191.18L571.74 191.14L571.65 191.1L571.57 191.06L571.48 191.02L571.4 190.98L571.31 190.93L571.23 190.89L571.14 190.84L571.06 190.8L570.98 190.75L570.9 190.7L570.81 190.65L570.73 190.6L570.65 190.55L570.57 190.5L570.49 190.45L570.41 190.4L570.33 190.35L570.25 190.3L570.17 190.24L570.09 190.19L570.02 190.13L569.94 190.08L569.86 190.02L569.79 189.96L569.71 189.9L569.64 189.85L569.56 189.79L569.49 189.73L569.42 189.66L569.34 189.6L569.27 189.54L569.2 189.48L569.13 189.42L569.06 189.35L568.99 189.29L568.92 189.22L568.85 189.16L568.78 189.09L568.77 189.08L568.76 189.08L568.76 189.07L568.75 189.06L568.74 189.06L568.73 189.05L568.73 189.05L568.72 189.04L568.71 189.04L568.7 189.03L568.69 189.03L568.68 189.02L568.67 189.01L568.66 189.01L568.64 189L568.62 188.99L568.6 188.98L568.59 188.97L568.58 188.96L568.57 188.96L568.56 188.95L568.55 188.95L568.54 188.94L568.54 188.94L568.53 188.93L568.52 188.93L568.51 188.92L568.5 188.91L568.5 188.91L568.49 188.9L568.48 188.9L568.47 188.89L568.47 188.88L568.46 188.88L536.46 156.87L536.16 156.56L535.88 156.23L535.62 155.89L535.37 155.55L535.13 155.2L534.92 154.84L534.71 154.48L534.52 154.11L534.35 153.73L534.19 153.35L534.05 152.97L533.93 152.58L533.82 152.18L533.72 151.79L533.64 151.39L533.57 150.99L533.52 150.59L533.49 150.18L533.47 149.78L533.46 149.37L533.48 148.97L533.5 148.56L533.54 148.16L533.6 147.76L533.67 147.36L533.76 146.96L533.86 146.57L533.98 146.18L534.12 145.79L534.26 145.41L534.43 145.03L534.61 144.66L534.8 144.29L535.01 143.93L535.24 143.57L535.48 143.23L535.73 142.89L536 142.56L536.29 142.24L536.59 141.92L536.9 141.62L537.22 141.34L537.56 141.07L537.89 140.81L538.24 140.57L538.59 140.34L538.95 140.14L539.32 139.94L539.69 139.76L540.07 139.6L540.45 139.45L540.84 139.32L541.23 139.2L541.63 139.09L542.02 139.01L542.42 138.93L542.83 138.88L543.23 138.84L543.63 138.81L544.04 138.8L544.44 138.8L544.85 138.82L545.25 138.86L545.65 138.91L546.06 138.97L546.45 139.05L546.85 139.15L547.24 139.26L547.63 139.39L548.02 139.53L548.4 139.69L548.77 139.86L549.14 140.05L549.51 140.25L549.87 140.47L550.22 140.7L550.56 140.95L550.9 141.22L551.22 141.5L551.54 141.79L565.33 155.58L565.33 85.33L533.33 85.33L532.45 85.32L531.58 85.26L530.72 85.18L529.87 85.05L529.03 84.9L528.21 84.71L527.39 84.5L526.59 84.25L525.8 83.97L525.03 83.66L524.27 83.32L523.53 82.95L522.8 82.56L522.1 82.14L521.41 81.69L520.73 81.22L520.08 80.72L519.45 80.2L518.84 79.65L518.25 79.09L517.68 78.5L517.14 77.88L516.61 77.25L516.12 76.6L515.64 75.93L515.2 75.24L514.78 74.53L514.38 73.8L514.01 73.06L513.68 72.3L513.37 71.53L513.09 70.74L512.84 69.94L512.62 69.13L512.43 68.3L512.28 67.46L512.16 66.61L512.07 65.75L512.02 64.88L512 64L512 21.33L512.02 20.45L512.07 19.58L512.16 18.72L512.28 17.87L512.43 17.03L512.62 16.21L512.84 15.39L513.09 14.59L513.37 13.8L513.68 13.03L514.01 12.27L514.38 11.53L514.78 10.8L515.2 10.1L515.64 9.41L516.12 8.73L516.61 8.08L517.14 7.45L517.68 6.84L518.25 6.25L518.84 5.68L519.45 5.14L520.08 4.61L520.73 4.12L521.41 3.64L522.1 3.2L522.8 2.78L523.53 2.38L524.27 2.01L525.03 1.68L525.8 1.37L526.59 1.09L527.39 0.84L528.21 0.62L529.03 0.43L529.87 0.28L530.72 0.16L531.58 0.07L532.45 0.02L533.33 0L618.67 0L619.55 0.02L620.42 0.07ZM533.33 64L618.67 64L618.67 21.33L533.33 21.33L533.33 64Z" id="cch2zseIS"></path><path d="M620.42 213.4L621.28 213.49L622.13 213.61L622.97 213.77L623.79 213.95L624.61 214.17L625.41 214.42L626.2 214.7L626.97 215.01L627.73 215.35L628.47 215.71L629.2 216.11L629.9 216.53L630.59 216.98L631.27 217.45L631.92 217.95L632.55 218.47L633.16 219.01L633.75 219.58L634.32 220.17L634.86 220.78L635.39 221.42L635.88 222.07L636.36 222.74L636.8 223.43L637.23 224.14L637.62 224.86L637.99 225.6L638.32 226.36L638.63 227.14L638.91 227.92L639.16 228.73L639.38 229.54L639.57 230.37L639.72 231.21L639.84 232.06L639.93 232.92L639.98 233.79L640 234.67L640 277.33L639.98 278.21L639.93 279.08L639.84 279.94L639.72 280.79L639.57 281.63L639.38 282.46L639.16 283.27L638.91 284.08L638.63 284.86L638.32 285.64L637.99 286.39L637.62 287.14L637.23 287.86L636.81 288.57L636.36 289.26L635.89 289.93L635.39 290.58L634.87 291.22L634.32 291.83L633.75 292.42L633.16 292.99L632.55 293.53L631.92 294.05L631.27 294.55L630.6 295.02L629.91 295.47L629.2 295.89L628.47 296.29L627.73 296.65L626.97 296.99L626.2 297.3L625.41 297.58L624.61 297.83L623.79 298.05L622.97 298.23L622.13 298.39L621.28 298.51L620.42 298.6L619.55 298.65L618.67 298.67L533.33 298.67L532.45 298.65L531.58 298.6L530.72 298.51L529.87 298.39L529.03 298.23L528.21 298.05L527.39 297.83L526.59 297.58L525.8 297.3L525.03 296.99L524.27 296.65L523.53 296.29L522.8 295.89L522.1 295.47L521.41 295.02L520.73 294.55L520.08 294.05L519.45 293.53L518.84 292.99L518.25 292.42L517.68 291.83L517.14 291.22L516.61 290.58L516.12 289.93L515.64 289.26L515.2 288.57L514.78 287.86L514.38 287.14L514.01 286.39L513.68 285.64L513.37 284.86L513.09 284.08L512.84 283.27L512.62 282.46L512.43 281.63L512.28 280.79L512.16 279.94L512.07 279.08L512.02 278.21L512 277.33L512 266.67L441.75 266.67L455.53 280.42L455.83 280.74L456.11 281.07L456.37 281.41L456.62 281.75L456.86 282.1L457.07 282.46L457.28 282.82L457.47 283.19L457.64 283.57L457.8 283.95L457.94 284.33L458.06 284.72L458.17 285.12L458.27 285.51L458.35 285.91L458.42 286.31L458.47 286.71L458.5 287.12L458.52 287.52L458.53 287.93L458.51 288.33L458.49 288.74L458.45 289.14L458.39 289.54L458.32 289.94L458.23 290.34L458.13 290.73L458.01 291.12L457.87 291.51L457.73 291.89L457.56 292.27L457.38 292.64L457.19 293.01L456.98 293.37L456.75 293.73L456.51 294.07L456.26 294.41L455.99 294.74L455.7 295.06L455.4 295.38L455.09 295.68L454.77 295.96L454.43 296.23L454.1 296.49L453.75 296.73L453.4 296.96L453.04 297.16L452.67 297.36L452.3 297.54L451.92 297.7L451.54 297.85L451.15 297.98L450.76 298.1L450.36 298.21L449.97 298.29L449.57 298.37L449.16 298.42L448.76 298.46L448.36 298.49L447.95 298.5L447.55 298.5L447.14 298.48L446.74 298.44L446.34 298.39L445.93 298.33L445.54 298.25L445.14 298.15L444.75 298.04L444.36 297.91L443.97 297.77L443.59 297.61L443.22 297.44L442.85 297.25L442.48 297.05L442.12 296.83L441.77 296.6L441.43 296.35L441.09 296.08L440.77 295.8L440.45 295.51L408.45 263.51L408.44 263.5L408.43 263.49L408.43 263.49L408.42 263.48L408.42 263.47L408.41 263.46L408.4 263.45L408.4 263.45L408.39 263.44L408.39 263.43L408.38 263.42L408.38 263.41L408.37 263.41L408.37 263.4L408.36 263.38L408.35 263.37L408.34 263.36L408.32 263.31L408.31 263.3L408.31 263.29L408.3 263.28L408.3 263.27L408.29 263.26L408.29 263.26L408.28 263.25L408.28 263.24L408.27 263.23L408.26 263.22L408.26 263.22L408.25 263.21L408.25 263.2L408.24 263.19L408.23 263.19L408.17 263.12L408.1 263.05L408.04 262.98L407.97 262.91L407.91 262.84L407.84 262.77L407.78 262.7L407.72 262.62L407.66 262.55L407.6 262.48L407.54 262.4L407.48 262.33L407.42 262.25L407.36 262.18L407.3 262.1L407.25 262.03L407.19 261.95L407.14 261.87L407.08 261.79L407.03 261.72L406.97 261.64L406.92 261.56L406.87 261.48L406.82 261.4L406.77 261.32L406.72 261.23L406.67 261.15L406.62 261.07L406.57 260.99L406.53 260.9L406.48 260.82L406.44 260.74L406.39 260.65L406.35 260.57L406.3 260.48L406.26 260.4L406.22 260.31L406.18 260.23L406.14 260.14L406.1 260.05L406.1 260.04L406.09 260.04L406.09 260.03L406.08 260.03L406.08 260.02L406.08 260.01L406.07 260L406.07 260L406.07 259.99L406.06 259.98L406.06 259.98L406.06 259.97L406.06 259.96L406.06 259.96L406.05 259.95L406.05 259.94L406.05 259.93L406.05 259.93L406.05 259.92L406.05 259.91L406.04 259.9L406.04 259.9L406.04 259.88L406.04 259.87L406.04 259.86L406.04 259.85L406.04 259.84L406.04 259.83L406.04 259.82L406.04 259.79L406.04 259.76L406.01 259.68L405.98 259.6L405.95 259.52L405.92 259.44L405.89 259.36L405.87 259.28L405.84 259.2L405.82 259.11L405.79 259.03L405.77 258.95L405.75 258.87L405.72 258.78L405.7 258.7L405.68 258.62L405.66 258.53L405.64 258.45L405.62 258.37L405.6 258.28L405.59 258.2L405.57 258.12L405.55 258.03L405.54 257.95L405.52 257.86L405.51 257.78L405.49 257.69L405.48 257.61L405.47 257.53L405.46 257.44L405.45 257.36L405.44 257.27L405.43 257.19L405.42 257.1L405.41 257.01L405.4 256.93L405.4 256.84L405.39 256.76L405.39 256.67L405.38 256.59L405.38 256.5L405.38 256.42L405.38 256.39L405.38 256.36L405.38 256.33L405.38 256.31L405.38 256.28L405.38 256.25L405.38 256.23L405.38 256.2L405.38 256.17L405.38 256.15L405.38 256.12L405.38 256.09L405.38 256.07L405.38 256.04L405.39 256.01L405.39 255.99L405.39 255.96L405.39 255.93L405.39 255.91L405.39 255.88L405.39 255.85L405.4 255.83L405.4 255.8L405.4 255.77L405.4 255.75L405.4 255.72L405.41 255.69L405.41 255.67L405.41 255.64L405.41 255.61L405.42 255.59L405.42 255.56L405.42 255.53L405.42 255.51L405.43 255.48L405.43 255.45L405.43 255.43L405.43 255.4L405.44 255.38L405.44 255.35L405.44 255.28L405.45 255.21L405.45 255.15L405.46 255.08L405.47 255.01L405.47 254.95L405.48 254.88L405.49 254.81L405.49 254.75L405.5 254.68L405.51 254.61L405.52 254.55L405.53 254.48L405.54 254.42L405.55 254.35L405.56 254.28L405.57 254.22L405.58 254.15L405.6 254.09L405.61 254.02L405.62 253.95L405.64 253.89L405.65 253.82L405.66 253.76L405.68 253.69L405.69 253.63L405.71 253.56L405.73 253.5L405.74 253.43L405.76 253.37L405.78 253.3L405.79 253.24L405.81 253.17L405.83 253.11L405.85 253.04L405.87 252.98L405.89 252.92L405.91 252.85L405.93 252.79L405.95 252.73L405.96 252.7L405.97 252.67L405.98 252.64L405.98 252.62L405.99 252.59L406 252.56L406.01 252.54L406.02 252.51L406.02 252.48L406.03 252.45L406.04 252.43L406.05 252.4L406.06 252.37L406.07 252.35L406.08 252.32L406.09 252.29L406.09 252.27L406.1 252.24L406.11 252.21L406.12 252.19L406.13 252.16L406.14 252.13L406.15 252.11L406.16 252.08L406.17 252.05L406.18 252.03L406.19 252L406.2 251.97L406.21 251.95L406.22 251.92L406.23 251.89L406.24 251.87L406.25 251.84L406.26 251.82L406.27 251.79L406.28 251.76L406.29 251.74L406.3 251.71L406.32 251.68L406.33 251.66L406.36 251.57L406.4 251.48L406.44 251.39L406.49 251.31L406.53 251.22L406.57 251.13L406.61 251.04L406.66 250.96L406.7 250.87L406.75 250.79L406.79 250.7L406.84 250.62L406.89 250.53L406.94 250.45L406.99 250.37L407.04 250.29L407.09 250.2L407.14 250.12L407.19 250.04L407.25 249.96L407.3 249.88L407.35 249.8L407.41 249.72L407.47 249.64L407.52 249.56L407.58 249.49L407.64 249.41L407.7 249.33L407.76 249.26L407.82 249.18L407.88 249.11L407.94 249.03L408 248.96L408.07 248.89L408.13 248.81L408.19 248.74L408.26 248.67L408.33 248.6L408.39 248.53L408.46 248.46L440.46 216.46L440.78 216.16L441.11 215.88L441.44 215.62L441.78 215.37L442.14 215.13L442.49 214.92L442.86 214.71L443.23 214.52L443.6 214.35L443.98 214.19L444.37 214.05L444.76 213.93L445.15 213.82L445.55 213.72L445.95 213.64L446.35 213.57L446.75 213.52L447.15 213.49L447.56 213.47L447.96 213.46L448.37 213.48L448.77 213.5L449.18 213.54L449.58 213.6L449.98 213.67L450.37 213.76L450.77 213.86L451.16 213.98L451.55 214.12L451.93 214.26L452.31 214.43L452.68 214.61L453.05 214.8L453.41 215.01L453.76 215.24L454.11 215.48L454.45 215.73L454.78 216L455.1 216.29L455.41 216.59L455.71 216.9L456 217.22L456.27 217.56L456.53 217.89L456.77 218.24L456.99 218.59L457.2 218.95L457.39 219.32L457.57 219.69L457.74 220.07L457.89 220.45L458.02 220.84L458.14 221.23L458.24 221.63L458.33 222.02L458.4 222.42L458.46 222.83L458.5 223.23L458.53 223.63L458.54 224.04L458.53 224.44L458.51 224.85L458.48 225.25L458.43 225.65L458.36 226.06L458.28 226.45L458.19 226.85L458.07 227.24L457.95 227.63L457.81 228.02L457.65 228.4L457.48 228.77L457.29 229.14L457.09 229.51L456.87 229.87L456.63 230.22L456.38 230.56L456.12 230.9L455.84 231.22L455.54 231.54L441.75 245.33L512 245.33L512 234.67L512.02 233.79L512.07 232.92L512.16 232.06L512.28 231.21L512.43 230.37L512.62 229.54L512.84 228.73L513.09 227.92L513.37 227.14L513.68 226.36L514.01 225.61L514.38 224.86L514.77 224.14L515.19 223.43L515.64 222.74L516.11 222.07L516.61 221.42L517.13 220.78L517.68 220.17L518.25 219.58L518.84 219.01L519.45 218.47L520.08 217.95L520.73 217.45L521.4 216.98L522.09 216.53L522.8 216.11L523.53 215.71L524.27 215.35L525.03 215.01L525.8 214.7L526.59 214.42L527.39 214.17L528.21 213.95L529.03 213.77L529.87 213.61L530.72 213.49L531.58 213.4L532.45 213.35L533.33 213.33L618.67 213.33L619.55 213.35L620.42 213.4ZM533.33 277.33L618.67 277.33L618.67 234.67L533.33 234.67L533.33 277.33Z" id="aDOs3KOpl"></path><path d="M364.42 213.4L365.28 213.49L366.13 213.61L366.97 213.76L367.79 213.95L368.61 214.17L369.41 214.42L370.2 214.7L370.97 215.01L371.73 215.35L372.47 215.71L373.2 216.11L373.91 216.53L374.6 216.97L375.27 217.45L375.92 217.94L376.55 218.47L377.16 219.01L377.75 219.58L378.32 220.17L378.87 220.78L379.39 221.41L379.89 222.07L380.36 222.74L380.81 223.43L381.23 224.14L381.62 224.86L381.99 225.6L382.32 226.36L382.63 227.13L382.91 227.92L383.16 228.72L383.38 229.54L383.57 230.37L383.72 231.2L383.84 232.05L383.93 232.92L383.98 233.79L384 234.66L384 277.33L383.98 278.21L383.93 279.08L383.84 279.94L383.72 280.79L383.57 281.63L383.38 282.46L383.16 283.27L382.91 284.07L382.63 284.86L382.32 285.64L381.99 286.39L381.62 287.14L381.23 287.86L380.81 288.57L380.36 289.26L379.89 289.93L379.39 290.58L378.87 291.22L378.32 291.83L377.75 292.42L377.16 292.98L376.55 293.53L375.92 294.05L375.27 294.55L374.6 295.02L373.91 295.47L373.2 295.89L372.47 296.28L371.73 296.65L370.97 296.99L370.2 297.3L369.41 297.58L368.61 297.83L367.79 298.04L366.97 298.23L366.13 298.39L365.28 298.51L364.42 298.59L363.55 298.65L362.67 298.66L277.33 298.66L276.45 298.65L275.58 298.59L274.72 298.51L273.87 298.39L273.03 298.23L272.21 298.04L271.39 297.83L270.59 297.58L269.8 297.3L269.03 296.99L268.27 296.65L267.53 296.28L266.8 295.89L266.1 295.47L265.41 295.02L264.73 294.55L264.08 294.05L263.45 293.53L262.84 292.98L262.25 292.42L261.68 291.83L261.14 291.22L260.61 290.58L260.12 289.93L259.64 289.26L259.2 288.57L258.78 287.86L258.38 287.14L258.01 286.39L257.68 285.64L257.37 284.86L257.09 284.07L256.84 283.27L256.62 282.46L256.43 281.63L256.28 280.79L256.16 279.94L256.07 279.08L256.02 278.21L256 277.33L256 266.66L185.75 266.66L199.53 280.42L199.83 280.74L200.11 281.07L200.37 281.41L200.62 281.75L200.85 282.1L201.07 282.46L201.28 282.82L201.46 283.19L201.64 283.57L201.79 283.95L201.94 284.33L202.06 284.72L202.17 285.12L202.27 285.51L202.35 285.91L202.42 286.31L202.47 286.71L202.5 287.12L202.52 287.52L202.52 287.93L202.51 288.33L202.49 288.74L202.44 289.14L202.39 289.54L202.32 289.94L202.23 290.34L202.12 290.73L202.01 291.12L201.87 291.51L201.72 291.89L201.56 292.27L201.38 292.64L201.19 293.01L200.98 293.37L200.75 293.73L200.51 294.07L200.26 294.41L199.99 294.74L199.7 295.06L199.4 295.38L199.09 295.68L198.76 295.96L198.43 296.23L198.09 296.49L197.75 296.73L197.39 296.96L197.03 297.16L196.67 297.36L196.29 297.54L195.92 297.7L195.53 297.85L195.15 297.98L194.76 298.1L194.36 298.21L193.96 298.29L193.56 298.37L193.16 298.42L192.76 298.46L192.36 298.49L191.95 298.5L191.55 298.5L191.14 298.48L190.74 298.44L190.33 298.39L189.93 298.33L189.53 298.25L189.14 298.15L188.75 298.04L188.36 297.91L187.97 297.77L187.59 297.61L187.21 297.44L186.84 297.25L186.48 297.05L186.12 296.83L185.77 296.6L185.43 296.35L185.09 296.08L184.77 295.8L184.45 295.51L158.35 269.41L152.45 263.51L152.44 263.5L152.43 263.49L152.43 263.49L152.42 263.48L152.41 263.47L152.41 263.46L152.4 263.45L152.4 263.45L152.39 263.44L152.39 263.43L152.38 263.42L152.37 263.41L152.37 263.41L152.36 263.4L152.36 263.38L152.35 263.37L152.34 263.36L152.32 263.31L152.31 263.3L152.3 263.29L152.3 263.28L152.29 263.27L152.29 263.26L152.28 263.26L152.28 263.25L152.27 263.24L152.27 263.23L152.26 263.22L152.26 263.22L152.25 263.21L152.25 263.2L152.24 263.19L152.23 263.19L152.17 263.12L152.1 263.05L152.04 262.98L151.97 262.91L151.91 262.84L151.84 262.77L151.78 262.7L151.72 262.62L151.66 262.55L151.6 262.48L151.54 262.4L151.48 262.33L151.42 262.25L151.36 262.18L151.3 262.1L151.25 262.03L151.19 261.95L151.13 261.87L151.08 261.79L151.03 261.72L150.97 261.64L150.92 261.56L150.87 261.48L150.82 261.4L150.77 261.32L150.72 261.23L150.67 261.15L150.62 261.07L150.57 260.99L150.53 260.9L150.48 260.82L150.43 260.74L150.39 260.65L150.35 260.57L150.3 260.48L150.26 260.4L150.22 260.31L150.18 260.23L150.14 260.14L150.1 260.05L150.1 260.04L150.09 260.04L150.09 260.03L150.08 260.03L150.08 260.02L150.08 260.01L150.07 260L150.07 260L150.07 259.99L150.06 259.98L150.06 259.98L150.06 259.97L150.06 259.96L150.05 259.96L150.05 259.95L150.05 259.94L150.05 259.93L150.05 259.93L150.05 259.92L150.04 259.91L150.04 259.9L150.04 259.9L150.04 259.88L150.04 259.87L150.04 259.86L150.04 259.85L150.04 259.84L150.04 259.83L150.04 259.82L150.04 259.79L150.04 259.76L150.01 259.68L149.98 259.6L149.95 259.52L149.92 259.44L149.89 259.36L149.87 259.28L149.84 259.2L149.82 259.11L149.79 259.03L149.77 258.95L149.74 258.87L149.72 258.78L149.7 258.7L149.68 258.62L149.66 258.53L149.64 258.45L149.62 258.37L149.6 258.28L149.58 258.2L149.57 258.12L149.55 258.03L149.54 257.95L149.52 257.86L149.51 257.78L149.49 257.69L149.48 257.61L149.47 257.53L149.46 257.44L149.45 257.36L149.44 257.27L149.43 257.19L149.42 257.1L149.41 257.01L149.4 256.93L149.4 256.84L149.39 256.76L149.39 256.67L149.38 256.59L149.38 256.5L149.38 256.42L149.38 256.39L149.38 256.36L149.38 256.33L149.38 256.31L149.38 256.28L149.38 256.25L149.38 256.23L149.38 256.2L149.38 256.17L149.38 256.15L149.38 256.12L149.38 256.09L149.38 256.07L149.38 256.04L149.38 256.01L149.39 255.99L149.39 255.96L149.39 255.93L149.39 255.91L149.39 255.88L149.39 255.85L149.4 255.83L149.4 255.8L149.4 255.77L149.4 255.75L149.4 255.72L149.4 255.69L149.41 255.67L149.41 255.64L149.41 255.61L149.41 255.59L149.42 255.56L149.42 255.53L149.42 255.51L149.42 255.48L149.43 255.45L149.43 255.43L149.43 255.4L149.44 255.38L149.44 255.35L149.44 255.28L149.45 255.21L149.45 255.15L149.46 255.08L149.46 255.01L149.47 254.95L149.48 254.88L149.49 254.81L149.49 254.75L149.5 254.68L149.51 254.61L149.52 254.55L149.53 254.48L149.54 254.42L149.55 254.35L149.56 254.28L149.57 254.22L149.58 254.15L149.59 254.09L149.61 254.02L149.62 253.95L149.63 253.89L149.65 253.82L149.66 253.76L149.68 253.69L149.69 253.63L149.71 253.56L149.72 253.5L149.74 253.43L149.76 253.37L149.77 253.3L149.79 253.24L149.81 253.17L149.83 253.11L149.85 253.04L149.87 252.98L149.89 252.92L149.91 252.85L149.93 252.79L149.95 252.73L149.96 252.7L149.97 252.67L149.97 252.64L149.98 252.62L149.99 252.59L150 252.56L150.01 252.54L150.02 252.51L150.02 252.48L150.03 252.45L150.04 252.43L150.05 252.4L150.06 252.37L150.07 252.35L150.08 252.32L150.08 252.29L150.09 252.27L150.1 252.24L150.11 252.21L150.12 252.19L150.13 252.16L150.14 252.13L150.15 252.11L150.16 252.08L150.17 252.05L150.18 252.03L150.19 252L150.2 251.97L150.21 251.95L150.22 251.92L150.23 251.89L150.24 251.87L150.25 251.84L150.26 251.82L150.27 251.79L150.28 251.76L150.29 251.74L150.3 251.71L150.31 251.68L150.33 251.66L150.36 251.57L150.4 251.48L150.44 251.39L150.48 251.31L150.53 251.22L150.57 251.13L150.61 251.04L150.66 250.96L150.7 250.87L150.75 250.79L150.79 250.7L150.84 250.62L150.89 250.53L150.94 250.45L150.99 250.37L151.04 250.29L151.09 250.2L151.14 250.12L151.19 250.04L151.24 249.96L151.3 249.88L151.35 249.8L151.41 249.72L151.46 249.64L151.52 249.56L151.58 249.49L151.64 249.41L151.7 249.33L151.76 249.26L151.82 249.18L151.88 249.11L151.94 249.03L152 248.96L152.07 248.89L152.13 248.81L152.19 248.74L152.26 248.67L152.32 248.6L152.39 248.53L152.46 248.46L184.46 216.46L184.78 216.16L185.1 215.88L185.44 215.62L185.78 215.37L186.13 215.13L186.49 214.92L186.86 214.71L187.23 214.52L187.6 214.35L187.98 214.19L188.37 214.05L188.76 213.93L189.15 213.82L189.55 213.72L189.94 213.64L190.34 213.57L190.75 213.52L191.15 213.49L191.56 213.47L191.96 213.46L192.37 213.48L192.77 213.5L193.17 213.54L193.58 213.6L193.98 213.67L194.37 213.76L194.77 213.86L195.16 213.98L195.54 214.12L195.93 214.26L196.31 214.43L196.68 214.61L197.04 214.8L197.41 215.01L197.76 215.24L198.11 215.48L198.44 215.73L198.78 216L199.1 216.29L199.41 216.59L199.71 216.9L200 217.22L200.27 217.56L200.52 217.89L200.76 218.24L200.99 218.59L201.2 218.95L201.39 219.32L201.57 219.69L201.74 220.07L201.88 220.45L202.02 220.84L202.14 221.23L202.24 221.63L202.33 222.02L202.4 222.42L202.46 222.83L202.5 223.23L202.52 223.63L202.54 224.04L202.53 224.44L202.51 224.85L202.48 225.25L202.43 225.65L202.36 226.06L202.28 226.45L202.18 226.85L202.07 227.24L201.95 227.63L201.81 228.02L201.65 228.4L201.48 228.77L201.29 229.14L201.08 229.51L200.87 229.87L200.63 230.22L200.38 230.56L200.12 230.9L199.84 231.22L199.54 231.54L185.75 245.33L256 245.33L256 234.66L256.02 233.79L256.07 232.92L256.16 232.05L256.28 231.2L256.43 230.37L256.62 229.54L256.84 228.72L257.09 227.92L257.37 227.13L257.68 226.36L258.01 225.6L258.38 224.86L258.78 224.14L259.2 223.43L259.64 222.74L260.12 222.07L260.61 221.41L261.14 220.78L261.68 220.17L262.25 219.58L262.84 219.01L263.45 218.47L264.08 217.94L264.73 217.45L265.41 216.97L266.1 216.53L266.8 216.11L267.53 215.71L268.27 215.35L269.03 215.01L269.8 214.7L270.59 214.42L271.39 214.17L272.21 213.95L273.03 213.76L273.87 213.61L274.72 213.49L275.58 213.4L276.45 213.35L277.33 213.33L362.67 213.33L363.55 213.35L364.42 213.4ZM277.33 277.33L362.67 277.33L362.67 234.67L277.33 234.67L277.33 277.33Z" id="g1HjVuH64o"></path><path d="M108.42 426.74L109.28 426.82L110.13 426.95L110.97 427.1L111.79 427.29L112.61 427.5L113.41 427.75L114.2 428.03L114.97 428.34L115.73 428.68L116.47 429.05L117.2 429.44L117.9 429.86L118.59 430.31L119.27 430.78L119.92 431.28L120.55 431.8L121.16 432.35L121.75 432.91L122.32 433.5L122.86 434.12L123.39 434.75L123.88 435.4L124.36 436.07L124.8 436.76L125.22 437.47L125.62 438.2L125.99 438.94L126.32 439.7L126.63 440.47L126.91 441.26L127.16 442.06L127.38 442.87L127.57 443.7L127.72 444.54L127.84 445.39L127.93 446.25L127.98 447.12L128 448L128 458.67L176.92 458.67L163.11 444.91L162.82 444.59L162.54 444.26L162.27 443.93L162.02 443.58L161.79 443.23L161.57 442.88L161.37 442.51L161.18 442.14L161.01 441.77L160.85 441.39L160.71 441L160.58 440.61L160.47 440.22L160.37 439.82L160.29 439.42L160.23 439.02L160.18 438.62L160.14 438.22L160.12 437.81L160.12 437.41L160.13 437L160.16 436.6L160.2 436.19L160.26 435.79L160.33 435.39L160.42 434.99L160.52 434.6L160.64 434.21L160.77 433.82L160.92 433.44L161.08 433.06L161.26 432.69L161.46 432.32L161.67 431.96L161.89 431.61L162.13 431.26L162.39 430.92L162.66 430.59L162.94 430.27L163.24 429.96L163.56 429.66L163.88 429.37L164.21 429.1L164.55 428.84L164.9 428.6L165.25 428.38L165.61 428.17L165.98 427.97L166.35 427.8L166.73 427.63L167.11 427.48L167.5 427.35L167.89 427.23L168.28 427.13L168.68 427.04L169.08 426.97L169.48 426.91L169.88 426.87L170.29 426.84L170.69 426.83L171.1 426.84L171.5 426.86L171.91 426.89L172.31 426.94L172.71 427.01L173.11 427.09L173.51 427.18L173.9 427.29L174.29 427.42L174.67 427.56L175.05 427.72L175.43 427.89L175.8 428.08L176.16 428.28L176.52 428.5L176.87 428.74L177.22 428.99L177.55 429.25L177.88 429.53L178.2 429.83L210.2 461.83L210.26 461.9L210.33 461.97L210.4 462.04L210.46 462.11L210.53 462.18L210.59 462.25L210.65 462.33L210.72 462.4L210.78 462.47L210.84 462.55L210.9 462.63L210.96 462.7L211.02 462.78L211.08 462.85L211.13 462.93L211.19 463.01L211.25 463.09L211.3 463.17L211.36 463.25L211.41 463.33L211.46 463.41L211.52 463.49L211.57 463.57L211.62 463.65L211.67 463.74L211.72 463.82L211.77 463.9L211.82 463.99L211.86 464.07L211.91 464.15L211.95 464.24L212 464.33L212.04 464.41L212.09 464.5L212.13 464.59L212.17 464.67L212.21 464.76L212.25 464.85L212.29 464.94L212.33 465.03L212.34 465.05L212.35 465.08L212.36 465.1L212.37 465.13L212.38 465.16L212.39 465.18L212.41 465.21L212.42 465.24L212.43 465.26L212.44 465.29L212.45 465.31L212.46 465.34L212.47 465.37L212.48 465.39L212.49 465.42L212.5 465.45L212.51 465.47L212.52 465.5L212.52 465.53L212.53 465.55L212.54 465.58L212.55 465.61L212.56 465.63L212.57 465.66L212.58 465.69L212.59 465.71L212.6 465.74L212.61 465.77L212.61 465.79L212.62 465.82L212.63 465.85L212.64 465.88L212.65 465.9L212.66 465.93L212.66 465.96L212.67 465.98L212.68 466.01L212.69 466.04L212.7 466.07L212.7 466.09L212.73 466.16L212.75 466.22L212.77 466.28L212.79 466.35L212.81 466.41L212.83 466.48L212.84 466.54L212.86 466.61L212.88 466.67L212.9 466.73L212.91 466.8L212.93 466.86L212.95 466.93L212.96 466.99L212.98 467.06L212.99 467.12L213.01 467.19L213.02 467.26L213.04 467.32L213.05 467.39L213.06 467.45L213.07 467.52L213.08 467.58L213.1 467.65L213.11 467.72L213.12 467.78L213.13 467.85L213.14 467.92L213.15 467.98L213.15 468.05L213.16 468.11L213.17 468.18L213.18 468.25L213.18 468.31L213.19 468.38L213.2 468.45L213.2 468.52L213.21 468.58L213.21 468.65L213.22 468.72L213.22 468.74L213.22 468.77L213.23 468.8L213.23 468.82L213.23 468.85L213.23 468.88L213.24 468.9L213.24 468.93L213.24 468.96L213.24 468.98L213.25 469.01L213.25 469.04L213.25 469.06L213.25 469.09L213.25 469.12L213.26 469.14L213.26 469.17L213.26 469.2L213.26 469.22L213.26 469.25L213.26 469.28L213.27 469.3L213.27 469.33L213.27 469.36L213.27 469.38L213.27 469.41L213.27 469.44L213.27 469.46L213.27 469.49L213.28 469.52L213.28 469.54L213.28 469.57L213.28 469.6L213.28 469.62L213.28 469.65L213.28 469.68L213.28 469.7L213.28 469.73L213.28 469.76L213.28 469.78L213.28 469.87L213.27 469.95L213.27 470.04L213.26 470.13L213.26 470.21L213.25 470.3L213.24 470.38L213.24 470.47L213.23 470.55L213.22 470.64L213.21 470.72L213.2 470.81L213.19 470.89L213.17 470.98L213.16 471.06L213.15 471.15L213.13 471.23L213.12 471.32L213.1 471.4L213.09 471.48L213.07 471.57L213.05 471.65L213.03 471.74L213.02 471.82L213 471.9L212.98 471.99L212.95 472.07L212.93 472.15L212.91 472.23L212.89 472.32L212.86 472.4L212.84 472.48L212.81 472.56L212.79 472.64L212.76 472.73L212.73 472.81L212.71 472.89L212.68 472.97L212.65 473.05L212.62 473.13L212.61 473.14L212.61 473.15L212.61 473.15L212.6 473.16L212.6 473.17L212.59 473.17L212.59 473.18L212.59 473.19L212.58 473.2L212.58 473.2L212.58 473.21L212.58 473.22L212.57 473.23L212.57 473.23L212.57 473.24L212.57 473.25L212.57 473.26L212.57 473.26L212.56 473.27L212.56 473.28L212.56 473.29L212.56 473.29L212.56 473.3L212.56 473.32L212.56 473.32L212.56 473.34L212.56 473.35L212.56 473.36L212.56 473.37L212.56 473.39L212.55 473.42L212.52 473.51L212.48 473.59L212.43 473.68L212.39 473.77L212.35 473.85L212.31 473.94L212.26 474.02L212.22 474.1L212.17 474.19L212.13 474.27L212.08 474.36L212.03 474.44L211.99 474.52L211.94 474.6L211.89 474.68L211.84 474.76L211.79 474.84L211.73 474.92L211.68 475L211.63 475.08L211.57 475.16L211.52 475.24L211.46 475.32L211.41 475.39L211.35 475.47L211.29 475.55L211.24 475.62L211.18 475.7L211.12 475.77L211.06 475.84L211 475.92L210.94 475.99L210.87 476.06L210.81 476.14L210.75 476.21L210.68 476.28L210.62 476.35L210.55 476.42L210.49 476.49L210.42 476.55L210.41 476.56L210.41 476.57L210.4 476.58L210.4 476.58L210.39 476.59L210.39 476.6L210.38 476.61L210.38 476.62L210.37 476.62L210.37 476.63L210.36 476.64L210.35 476.66L210.35 476.66L210.34 476.67L210.33 476.69L210.32 476.72L210.31 476.73L210.3 476.75L210.29 476.76L210.29 476.77L210.28 476.77L210.28 476.78L210.27 476.79L210.27 476.8L210.26 476.81L210.26 476.81L210.25 476.82L210.25 476.83L210.24 476.84L210.23 476.85L210.23 476.85L210.22 476.86L210.21 476.87L210.21 476.87L178.21 508.87L178 509.08L177.8 509.28L177.58 509.47L177.37 509.66L177.15 509.84L176.92 510.01L176.69 510.18L176.46 510.34L176.22 510.49L175.98 510.64L175.74 510.78L175.49 510.91L175.24 511.04L174.99 511.16L174.73 511.27L174.47 511.38L174.21 511.48L173.95 511.57L173.68 511.66L173.41 511.74L173.15 511.81L172.87 511.87L172.6 511.93L172.33 511.98L172.05 512.02L171.77 512.06L171.49 512.09L171.21 512.11L170.93 512.12L170.65 512.13L170.37 512.13L170.09 512.12L169.81 512.11L169.52 512.08L169.24 512.05L168.96 512.01L168.68 511.97L168.39 511.91L168.11 511.85L167.83 511.78L167.56 511.71L167.28 511.62L167.01 511.53L166.74 511.43L166.48 511.33L166.21 511.22L165.96 511.1L165.7 510.98L165.45 510.84L165.21 510.71L164.97 510.56L164.73 510.41L164.5 510.26L164.27 510.1L164.04 509.93L163.82 509.76L163.61 509.58L163.4 509.39L163.19 509.2L162.99 509.01L162.8 508.81L162.61 508.6L162.42 508.39L162.25 508.18L162.07 507.96L161.9 507.73L161.74 507.5L161.59 507.27L161.44 507.03L161.29 506.79L161.16 506.55L161.03 506.3L160.9 506.04L160.78 505.79L160.67 505.52L160.57 505.26L160.47 504.99L160.38 504.72L160.29 504.44L160.22 504.17L160.15 503.89L160.09 503.61L160.03 503.32L159.99 503.04L159.95 502.76L159.92 502.48L159.89 502.19L159.88 501.91L159.87 501.63L159.87 501.35L159.88 501.07L159.89 500.79L159.91 500.51L159.94 500.23L159.98 499.95L160.02 499.67L160.07 499.4L160.13 499.13L160.19 498.85L160.26 498.59L160.34 498.32L160.43 498.05L160.52 497.79L160.62 497.53L160.73 497.27L160.84 497.01L160.96 496.76L161.09 496.51L161.22 496.26L161.36 496.02L161.51 495.78L161.66 495.54L161.82 495.31L161.99 495.08L162.16 494.85L162.34 494.63L162.53 494.42L162.72 494.2L162.92 494L163.13 493.79L176.92 480L128 480L128 490.67L127.98 491.55L127.93 492.42L127.84 493.28L127.72 494.13L127.57 494.97L127.38 495.79L127.16 496.61L126.91 497.41L126.63 498.2L126.32 498.97L125.99 499.73L125.62 500.47L125.23 501.2L124.81 501.9L124.36 502.59L123.89 503.27L123.39 503.92L122.87 504.55L122.32 505.16L121.75 505.75L121.16 506.32L120.55 506.86L119.92 507.39L119.27 507.88L118.6 508.36L117.91 508.8L117.2 509.22L116.47 509.62L115.73 509.99L114.97 510.32L114.2 510.63L113.41 510.91L112.61 511.16L111.79 511.38L110.97 511.57L110.13 511.72L109.28 511.84L108.42 511.93L107.55 511.98L106.67 512L21.33 512L20.45 511.98L19.58 511.93L18.72 511.84L17.87 511.72L17.03 511.57L16.21 511.38L15.39 511.16L14.59 510.91L13.8 510.63L13.03 510.32L12.27 509.99L11.53 509.62L10.8 509.22L10.1 508.8L9.41 508.36L8.73 507.88L8.08 507.39L7.45 506.86L6.84 506.32L6.25 505.75L5.68 505.16L5.14 504.55L4.61 503.92L4.12 503.27L3.64 502.59L3.2 501.9L2.78 501.2L2.38 500.47L2.01 499.73L1.68 498.97L1.37 498.2L1.09 497.41L0.84 496.61L0.62 495.79L0.43 494.97L0.28 494.13L0.16 493.28L0.07 492.42L0.02 491.55L0 490.67L0 448L0.02 447.12L0.07 446.25L0.16 445.39L0.28 444.54L0.43 443.7L0.62 442.87L0.84 442.06L1.09 441.26L1.37 440.47L1.68 439.7L2.01 438.94L2.38 438.2L2.78 437.47L3.2 436.76L3.64 436.07L4.12 435.4L4.61 434.75L5.14 434.12L5.68 433.5L6.25 432.91L6.84 432.35L7.45 431.8L8.08 431.28L8.73 430.78L9.41 430.31L10.1 429.86L10.8 429.44L11.53 429.05L12.27 428.68L13.03 428.34L13.8 428.03L14.59 427.75L15.39 427.5L16.21 427.29L17.03 427.1L17.87 426.95L18.72 426.82L19.58 426.74L20.45 426.68L21.33 426.67L106.67 426.67L107.55 426.68L108.42 426.74ZM21.33 490.67L106.67 490.67L106.67 448L21.33 448L21.33 490.67Z" id="j3mEYYd57q"></path></defs><g><g><g><use xlink:href="#ajmGksUkJ" opacity="1" fill="#30304c" fill-opacity="1"></use><g><use xlink:href="#ajmGksUkJ" opacity="1" fill-opacity="0" stroke="#000000" stroke-width="1" stroke-opacity="0"></use></g></g><g><use xlink:href="#alQXjdII2" opacity="1" fill="#333853" fill-opacity="1"></use><g><use xlink:href="#alQXjdII2" opacity="1" fill-opacity="0" stroke="#000000" stroke-width="1" stroke-opacity="0"></use></g></g><g><use xlink:href="#a4uNNd7KAW" opacity="1" fill="#ffffff" fill-opacity="1"></use><g><use xlink:href="#a4uNNd7KAW" opacity="1" fill-opacity="0" stroke="#000000" stroke-width="1" stroke-opacity="0"></use></g></g><g><use xlink:href="#bkdrl9Tys" opacity="1" fill="#ffffff" fill-opacity="1"></use><g><use xlink:href="#bkdrl9Tys" opacity="1" fill-opacity="0" stroke="#000000" stroke-width="1" stroke-opacity="0"></use></g></g><g><use xlink:href="#b1WC9L2Sn" opacity="1" fill="#ffffff" fill-opacity="1"></use><g><use xlink:href="#b1WC9L2Sn" opacity="1" fill-opacity="0" stroke="#000000" stroke-width="1" stroke-opacity="0"></use></g></g><g><use xlink:href="#ada5asWlh" opacity="1" fill="#14a085" fill-opacity="1"></use><g><use xlink:href="#ada5asWlh" opacity="1" fill-opacity="0" stroke="#000000" stroke-width="1" stroke-opacity="0"></use></g></g><g><use xlink:href="#c28k5mK6gW" opacity="1" fill="#14a085" fill-opacity="1"></use><g><use xlink:href="#c28k5mK6gW" opacity="1" fill-opacity="0" stroke="#000000" stroke-width="1" stroke-opacity="0"></use></g></g><g><use xlink:href="#d10n206IeH" opacity="1" fill="#d46396" fill-opacity="1"></use><g><use xlink:href="#d10n206IeH" opacity="1" fill-opacity="0" stroke="#000000" stroke-width="1" stroke-opacity="0"></use></g></g><g><use xlink:href="#hrppgkyly" opacity="1" fill="#d46396" fill-opacity="1"></use><g><use xlink:href="#hrppgkyly" opacity="1" fill-opacity="0" stroke="#000000" stroke-width="1" stroke-opacity="0"></use></g></g><g><use xlink:href="#e1pp8POZzT" opacity="1" fill="#d46396" fill-opacity="1"></use><g><use xlink:href="#e1pp8POZzT" opacity="1" fill-opacity="0" stroke="#000000" stroke-width="1" stroke-opacity="0"></use></g></g><g><use xlink:href="#a1W2QpRude" opacity="1" fill="#d46396" fill-opacity="1"></use><g><use xlink:href="#a1W2QpRude" opacity="1" fill-opacity="0" stroke="#000000" stroke-width="1" stroke-opacity="0"></use></g></g><g><use xlink:href="#g44svBDEWz" opacity="1" fill="#d46396" fill-opacity="1"></use><g><use xlink:href="#g44svBDEWz" opacity="1" fill-opacity="0" stroke="#000000" stroke-width="1" stroke-opacity="0"></use></g></g><g><use xlink:href="#f3nGzaGxB6" opacity="1" fill="#d46396" fill-opacity="1"></use><g><use xlink:href="#f3nGzaGxB6" opacity="1" fill-opacity="0" stroke="#000000" stroke-width="1" stroke-opacity="0"></use></g></g><g><use xlink:href="#bxvQAyWh" opacity="1" fill="#d46396" fill-opacity="1"></use><g><use xlink:href="#bxvQAyWh" opacity="1" fill-opacity="0" stroke="#000000" stroke-width="1" stroke-opacity="0"></use></g></g><g><use xlink:href="#a68ZAiWX7N" opacity="1" fill="#f37eb3" fill-opacity="1"></use><g><use xlink:href="#a68ZAiWX7N" opacity="1" fill-opacity="0" stroke="#000000" stroke-width="1" stroke-opacity="0"></use></g></g><g><use xlink:href="#a197Iz0RZg" opacity="1" fill="#f37eb3" fill-opacity="1"></use><g><use xlink:href="#a197Iz0RZg" opacity="1" fill-opacity="0" stroke="#000000" stroke-width="1" stroke-opacity="0"></use></g></g><g><use xlink:href="#d1teiDBrd1" opacity="1" fill="#f37eb3" fill-opacity="1"></use><g><use xlink:href="#d1teiDBrd1" opacity="1" fill-opacity="0" stroke="#000000" stroke-width="1" stroke-opacity="0"></use></g></g><g><use xlink:href="#f3641VzJ2k" opacity="1" fill="#f37eb3" fill-opacity="1"></use><g><use xlink:href="#f3641VzJ2k" opacity="1" fill-opacity="0" stroke="#000000" stroke-width="1" stroke-opacity="0"></use></g></g><g><use xlink:href="#b1Uta21GUm" opacity="1" fill="#f37eb3" fill-opacity="1"></use><g><use xlink:href="#b1Uta21GUm" opacity="1" fill-opacity="0" stroke="#000000" stroke-width="1" stroke-opacity="0"></use></g></g><g><use xlink:href="#b5Qc0ILYjq" opacity="1" fill="#f37eb3" fill-opacity="1"></use><g><use xlink:href="#b5Qc0ILYjq" opacity="1" fill-opacity="0" stroke="#000000" stroke-width="1" stroke-opacity="0"></use></g></g><g><use xlink:href="#atPwFLfbh" opacity="1" fill="#f37eb3" fill-opacity="1"></use><g><use xlink:href="#atPwFLfbh" opacity="1" fill-opacity="0" stroke="#000000" stroke-width="1" stroke-opacity="0"></use></g></g><g><use xlink:href="#c38YXTRyf7" opacity="1" fill="#000000" fill-opacity="1"></use><g><use xlink:href="#c38YXTRyf7" opacity="1" fill-opacity="0" stroke="#000000" stroke-width="1" stroke-opacity="0"></use></g></g><g><use xlink:href="#d3nZF9Qjm2" opacity="1" fill="#000000" fill-opacity="1"></use><g><use xlink:href="#d3nZF9Qjm2" opacity="1" fill-opacity="0" stroke="#000000" stroke-width="1" stroke-opacity="0"></use></g></g><g><use xlink:href="#c3lczXojJO" opacity="1" fill="#000000" fill-opacity="1"></use><g><use xlink:href="#c3lczXojJO" opacity="1" fill-opacity="0" stroke="#000000" stroke-width="1" stroke-opacity="0"></use></g></g><g><use xlink:href="#b1mJhrPaxP" opacity="1" fill="#000000" fill-opacity="1"></use><g><use xlink:href="#b1mJhrPaxP" opacity="1" fill-opacity="0" stroke="#000000" stroke-width="1" stroke-opacity="0"></use></g></g><g><use xlink:href="#aMHn3iG9U" opacity="1" fill="#000000" fill-opacity="1"></use><g><use xlink:href="#aMHn3iG9U" opacity="1" fill-opacity="0" stroke="#000000" stroke-width="1" stroke-opacity="0"></use></g></g><g><use xlink:href="#aMcpci586" opacity="1" fill="#000000" fill-opacity="1"></use><g><use xlink:href="#aMcpci586" opacity="1" fill-opacity="0" stroke="#000000" stroke-width="1" stroke-opacity="0"></use></g></g><g><use xlink:href="#b1jRseXdzn" opacity="1" fill="#000000" fill-opacity="1"></use><g><use xlink:href="#b1jRseXdzn" opacity="1" fill-opacity="0" stroke="#000000" stroke-width="1" stroke-opacity="0"></use></g></g><g><use xlink:href="#ek2Loqc61" opacity="1" fill="#000000" fill-opacity="1"></use><g><use xlink:href="#ek2Loqc61" opacity="1" fill-opacity="0" stroke="#000000" stroke-width="1" stroke-opacity="0"></use></g></g><g><use xlink:href="#a1XFEfoHmB" opacity="1" fill="#000000" fill-opacity="1"></use><g><use xlink:href="#a1XFEfoHmB" opacity="1" fill-opacity="0" stroke="#000000" stroke-width="1" stroke-opacity="0"></use></g></g><g><use xlink:href="#cch2zseIS" opacity="1" fill="#000000" fill-opacity="1"></use><g><use xlink:href="#cch2zseIS" opacity="1" fill-opacity="0" stroke="#000000" stroke-width="1" stroke-opacity="0"></use></g></g><g><use xlink:href="#aDOs3KOpl" opacity="1" fill="#000000" fill-opacity="1"></use><g><use xlink:href="#aDOs3KOpl" opacity="1" fill-opacity="0" stroke="#000000" stroke-width="1" stroke-opacity="0"></use></g></g><g><use xlink:href="#g1HjVuH64o" opacity="1" fill="#000000" fill-opacity="1"></use><g><use xlink:href="#g1HjVuH64o" opacity="1" fill-opacity="0" stroke="#000000" stroke-width="1" stroke-opacity="0"></use></g></g><g><use xlink:href="#j3mEYYd57q" opacity="1" fill="#000000" fill-opacity="1"></use><g><use xlink:href="#j3mEYYd57q" opacity="1" fill-opacity="0" stroke="#000000" stroke-width="1" stroke-opacity="0"></use></g></g></g></g></svg>