<?xml version="1.0" encoding="UTF-8" standalone="no"?>
<!DOCTYPE svg PUBLIC "-//W3C//DTD SVG 1.1//EN" "http://www.w3.org/Graphics/SVG/1.1/DTD/svg11.dtd">
<svg version="1.1" xmlns="http://www.w3.org/2000/svg" xmlns:xlink="http://www.w3.org/1999/xlink" preserveAspectRatio="xMidYMid meet" viewBox="0 0 640 515" width="640" height="515"><defs><path d="M200.23 182.86C181.98 182.86 167.18 197.66 167.18 215.91C167.18 234.65 167.18 328.3 167.18 496.89L563.84 496.89C563.84 328.3 563.84 234.65 563.84 215.91C563.84 197.66 549.04 182.86 530.79 182.86C464.68 182.86 233.29 182.86 200.23 182.86Z" id="ep7kMMoFQ"></path><path d="M530.79 232.44C530.79 223.31 523.39 215.91 514.26 215.91C484.51 215.91 246.51 215.91 216.76 215.91C207.63 215.91 200.23 223.31 200.23 232.44C200.23 248.97 200.23 331.61 200.23 480.36L530.79 480.36C530.79 331.61 530.79 248.97 530.79 232.44Z" id="du2JlY66S"></path><path d="M530.79 232.44C530.79 223.31 523.39 215.91 514.26 215.91C513.16 215.91 507.65 215.91 497.73 215.91L233.29 480.36L530.79 480.36C530.79 331.61 530.79 248.97 530.79 232.44Z" id="axldawafg"></path><path d="M481.2 315.08C481.2 315.08 481.2 315.08 481.2 315.08C481.2 354.75 481.2 376.78 481.2 381.19C481.2 381.19 481.2 381.19 481.2 381.19C342.37 381.19 265.24 381.19 249.82 381.19C249.82 381.19 249.82 381.19 249.82 381.19C249.82 341.52 249.82 319.49 249.82 315.08C249.82 315.08 249.82 315.08 249.82 315.08C388.65 315.08 465.78 315.08 481.2 315.08Z" id="dBfVdYmsb"></path><path d="M291.13 339.87C291.13 339.87 291.13 339.87 291.13 339.87C291.13 349.79 291.13 355.3 291.13 356.4C291.13 356.4 291.13 356.4 291.13 356.4C281.22 356.4 275.71 356.4 274.61 356.4C274.61 356.4 274.61 356.4 274.61 356.4C274.61 346.48 274.61 340.97 274.61 339.87C274.61 339.87 274.61 339.87 274.61 339.87C284.52 339.87 290.03 339.87 291.13 339.87Z" id="a4j6D2Qc8r"></path><path d="M324.19 339.87C324.19 339.87 324.19 339.87 324.19 339.87C324.19 349.79 324.19 355.3 324.19 356.4C324.19 356.4 324.19 356.4 324.19 356.4C314.27 356.4 308.76 356.4 307.66 356.4C307.66 356.4 307.66 356.4 307.66 356.4C307.66 346.48 307.66 340.97 307.66 339.87C307.66 339.87 307.66 339.87 307.66 339.87C317.58 339.87 323.09 339.87 324.19 339.87Z" id="apzpW3sY9"></path><path d="M357.25 339.87C357.25 339.87 357.25 339.87 357.25 339.87C357.25 349.79 357.25 355.3 357.25 356.4C357.25 356.4 357.25 356.4 357.25 356.4C347.33 356.4 341.82 356.4 340.72 356.4C340.72 356.4 340.72 356.4 340.72 356.4C340.72 346.48 340.72 340.97 340.72 339.87C340.72 339.87 340.72 339.87 340.72 339.87C350.63 339.87 356.14 339.87 357.25 339.87Z" id="a7esplLXq"></path><path d="M390.3 339.87C390.3 339.87 390.3 339.87 390.3 339.87C390.3 349.79 390.3 355.3 390.3 356.4C390.3 356.4 390.3 356.4 390.3 356.4C380.38 356.4 374.87 356.4 373.77 356.4C373.77 356.4 373.77 356.4 373.77 356.4C373.77 346.48 373.77 340.97 373.77 339.87C373.77 339.87 373.77 339.87 373.77 339.87C383.69 339.87 389.2 339.87 390.3 339.87Z" id="dV2hz8Pww"></path><path d="M602.16 141.54C612.95 141.54 621.69 150.28 621.69 161.07C621.69 171.21 621.69 252.35 621.69 262.5C621.69 273.28 612.95 282.02 602.16 282.02C582.93 282.02 429.06 282.02 409.83 282.02C399.05 282.02 390.3 273.28 390.3 262.5C390.3 252.35 390.3 171.21 390.3 161.07C390.3 150.28 399.04 141.54 409.83 141.54C448.3 141.54 582.93 141.54 602.16 141.54Z" id="d4iMxxAB1I"></path><path d="M415.09 108.48C415.09 110.69 415.09 121.71 415.09 141.54L448.15 141.54C448.15 121.71 448.15 110.69 448.15 108.48C448.15 76.53 474.05 50.64 506 50.64C537.94 50.64 563.84 76.54 563.84 108.48C563.84 110.69 563.84 121.71 563.84 141.54L596.9 141.54C596.9 121.71 596.9 110.69 596.9 108.48C596.9 58.28 556.2 17.58 506 17.58C455.79 17.58 415.09 58.28 415.09 108.48Z" id="a145lCWGIw"></path><path d="M299.4 141.54C299.4 141.54 299.4 141.54 299.4 141.54C299.4 151.46 299.4 156.96 299.4 158.07C299.4 158.07 299.4 158.07 299.4 158.07C289.48 158.07 283.97 158.07 282.87 158.07C282.87 158.07 282.87 158.07 282.87 158.07C282.87 148.15 282.87 142.64 282.87 141.54C282.87 141.54 282.87 141.54 282.87 141.54C292.79 141.54 298.3 141.54 299.4 141.54Z" id="a9z8kzBPc"></path><path d="M299.4 108.48C299.4 108.48 299.4 108.48 299.4 108.48C299.4 118.4 299.4 123.91 299.4 125.01C299.4 125.01 299.4 125.01 299.4 125.01C289.48 125.01 283.97 125.01 282.87 125.01C282.87 125.01 282.87 125.01 282.87 125.01C282.87 115.09 282.87 109.58 282.87 108.48C282.87 108.48 282.87 108.48 282.87 108.48C292.79 108.48 298.3 108.48 299.4 108.48Z" id="goVSjml75"></path><path d="M299.4 75.43C299.4 75.43 299.4 75.43 299.4 75.43C299.4 85.34 299.4 90.85 299.4 91.96C299.4 91.96 299.4 91.96 299.4 91.96C289.48 91.96 283.97 91.96 282.87 91.96C282.87 91.96 282.87 91.96 282.87 91.96C282.87 82.04 282.87 76.53 282.87 75.43C282.87 75.43 282.87 75.43 282.87 75.43C292.79 75.43 298.3 75.43 299.4 75.43Z" id="e1vCgREj4f"></path><path d="M299.4 42.37C299.4 42.37 299.4 42.37 299.4 42.37C299.4 52.29 299.4 57.8 299.4 58.9C299.4 58.9 299.4 58.9 299.4 58.9C289.48 58.9 283.97 58.9 282.87 58.9C282.87 58.9 282.87 58.9 282.87 58.9C282.87 48.98 282.87 43.47 282.87 42.37C282.87 42.37 282.87 42.37 282.87 42.37C292.79 42.37 298.3 42.37 299.4 42.37Z" id="a1SDXThMlB"></path><path d="M332.45 42.37C332.45 42.37 332.45 42.37 332.45 42.37C332.45 52.29 332.45 57.8 332.45 58.9C332.45 58.9 332.45 58.9 332.45 58.9C322.54 58.9 317.03 58.9 315.93 58.9C315.93 58.9 315.93 58.9 315.93 58.9C315.93 48.98 315.93 43.47 315.93 42.37C315.93 42.37 315.93 42.37 315.93 42.37C325.84 42.37 331.35 42.37 332.45 42.37Z" id="cbFDcxDsr"></path><path d="M365.51 42.37C365.51 42.37 365.51 42.37 365.51 42.37C365.51 52.29 365.51 57.8 365.51 58.9C365.51 58.9 365.51 58.9 365.51 58.9C355.59 58.9 350.08 58.9 348.98 58.9C348.98 58.9 348.98 58.9 348.98 58.9C348.98 48.98 348.98 43.47 348.98 42.37C348.98 42.37 348.98 42.37 348.98 42.37C358.9 42.37 364.41 42.37 365.51 42.37Z" id="aCyCFjZ6g"></path><path d="M398.57 42.37C398.57 42.37 398.57 42.37 398.57 42.37C398.57 52.29 398.57 57.8 398.57 58.9C398.57 58.9 398.57 58.9 398.57 58.9C388.65 58.9 383.14 58.9 382.04 58.9C382.04 58.9 382.04 58.9 382.04 58.9C382.04 48.98 382.04 43.47 382.04 42.37C382.04 42.37 382.04 42.37 382.04 42.37C391.95 42.37 397.46 42.37 398.57 42.37Z" id="bhCoC1Xaz"></path><path d="M167.18 496.89C153.48 496.89 142.39 485.79 142.39 472.09C142.39 472.09 142.39 472.09 142.39 472.09L142.39 447.3C246.51 447.3 304.36 447.3 315.93 447.3C321.59 447.3 326.77 450.5 329.3 455.57C329.3 455.57 329.3 455.57 329.3 455.57C331.83 460.63 337.01 463.83 342.67 463.83C347.43 463.83 385.54 463.83 390.3 463.83C395.96 463.83 401.14 460.63 403.67 455.57C403.67 455.57 403.67 455.57 403.67 455.57C406.2 450.5 411.38 447.3 417.04 447.3C428.48 447.3 485.68 447.3 588.63 447.3C588.63 462.18 588.63 470.44 588.63 472.09C588.63 485.79 577.54 496.89 563.84 496.89C563.84 496.89 563.84 496.89 563.84 496.89C325.84 496.89 193.62 496.89 167.18 496.89Z" id="aaqVgKBz"></path><path d="M398.78 278.59C402.03 280.83 405.88 282.02 409.83 282.02C429.06 282.02 582.93 282.02 602.16 282.02C612.95 282.02 621.69 273.28 621.69 262.5C621.69 252.35 621.69 171.21 621.69 161.07C621.67 152.77 616.4 145.4 608.56 142.7C552.52 226.16 461 262.77 398.78 278.59Z" id="b2v3yutka"></path><path d="M506.07 191.05C496.94 191.01 489.51 198.37 489.47 207.5C489.44 213.43 492.59 218.92 497.73 221.89C497.73 223.69 497.73 232.72 497.73 248.97L514.26 248.97C514.26 232.72 514.26 223.69 514.26 221.89C519.36 218.95 522.51 213.53 522.52 207.65C522.56 198.52 515.2 191.09 506.07 191.05Z" id="b7IPkXIfN"></path><path d="M448.15 125.01C448.15 125.01 448.15 125.01 448.15 125.01C448.15 134.93 448.15 140.44 448.15 141.54C448.15 141.54 448.15 141.54 448.15 141.54C428.32 141.54 417.3 141.54 415.09 141.54C415.09 141.54 415.09 141.54 415.09 141.54C415.09 131.62 415.09 126.11 415.09 125.01C415.09 125.01 415.09 125.01 415.09 125.01C434.93 125.01 445.95 125.01 448.15 125.01Z" id="aGnjrloH1"></path><path d="M596.9 125.01C596.9 125.01 596.9 125.01 596.9 125.01C596.9 134.93 596.9 140.44 596.9 141.54C596.9 141.54 596.9 141.54 596.9 141.54C577.06 141.54 566.05 141.54 563.84 141.54C563.84 141.54 563.84 141.54 563.84 141.54C563.84 131.62 563.84 126.11 563.84 125.01C563.84 125.01 563.84 125.01 563.84 125.01C583.68 125.01 594.69 125.01 596.9 125.01Z" id="azLtQs2p2"></path><path d="M481.2 315.08C481.2 315.08 481.2 315.08 481.2 315.08C481.2 325 481.2 330.51 481.2 331.61C481.2 331.61 481.2 331.61 481.2 331.61C342.37 331.61 265.24 331.61 249.82 331.61C249.82 331.61 249.82 331.61 249.82 331.61C249.82 321.69 249.82 316.18 249.82 315.08C249.82 315.08 249.82 315.08 249.82 315.08C388.65 315.08 465.78 315.08 481.2 315.08Z" id="c2nkfTNZvt"></path><path d="M200.23 191.12L199.21 191.14L198.2 191.2L197.2 191.31L196.21 191.45L195.23 191.63L194.27 191.84L193.33 192.1L192.4 192.39L191.48 192.71L190.58 193.07L189.7 193.46L188.84 193.89L188 194.35L187.17 194.84L186.37 195.36L185.59 195.91L184.83 196.48L184.1 197.09L183.39 197.72L182.7 198.38L182.04 199.07L181.41 199.78L180.8 200.51L180.22 201.27L179.67 202.05L179.15 202.85L178.67 203.68L178.21 204.52L177.78 205.38L177.39 206.26L177.03 207.16L176.7 208.08L176.41 209.01L176.16 209.96L175.94 210.92L175.76 211.89L175.62 212.88L175.52 213.88L175.46 214.89L175.44 215.91L175.44 439.04L191.97 439.04L191.97 232.44L191.99 231.42L192.05 230.41L192.15 229.41L192.29 228.42L192.47 227.45L192.69 226.48L192.94 225.54L193.23 224.61L193.56 223.69L193.92 222.79L194.31 221.91L194.74 221.05L195.19 220.21L195.68 219.38L196.2 218.58L196.75 217.8L197.33 217.04L197.94 216.31L198.57 215.6L199.23 214.91L199.91 214.25L200.63 213.62L201.36 213.01L202.12 212.43L202.9 211.88L203.7 211.36L204.52 210.88L205.37 210.42L206.23 209.99L207.11 209.6L208.01 209.24L208.92 208.91L209.85 208.62L210.8 208.37L211.76 208.15L212.74 207.97L213.73 207.83L214.73 207.73L215.74 207.67L216.76 207.65L365.51 207.65L365.51 224.18L216.76 224.18L216.42 224.19L216.08 224.21L215.75 224.24L215.42 224.29L215.09 224.35L214.77 224.42L214.46 224.5L214.15 224.6L213.84 224.71L213.54 224.83L213.25 224.96L212.96 225.1L212.68 225.25L212.41 225.42L212.14 225.59L211.88 225.77L211.63 225.97L211.38 226.17L211.15 226.38L210.92 226.6L210.7 226.83L210.49 227.06L210.28 227.31L210.09 227.56L209.91 227.82L209.73 228.09L209.57 228.36L209.42 228.64L209.28 228.93L209.15 229.23L209.03 229.53L208.92 229.83L208.82 230.14L208.74 230.46L208.66 230.78L208.6 231.1L208.56 231.43L208.52 231.76L208.5 232.1L208.5 232.44L208.5 439.04L315.93 439.04L316.59 439.05L317.24 439.07L317.89 439.12L318.54 439.18L319.19 439.26L319.83 439.36L320.46 439.47L321.09 439.6L321.72 439.75L322.34 439.92L322.95 440.11L323.56 440.31L324.16 440.52L324.75 440.76L325.34 441.01L325.91 441.27L326.48 441.55L327.05 441.85L327.6 442.16L328.15 442.49L328.68 442.83L329.21 443.19L329.72 443.56L330.23 443.94L330.73 444.34L331.21 444.75L331.69 445.18L332.15 445.62L332.6 446.07L333.04 446.54L333.46 447.02L333.88 447.51L334.28 448.01L334.67 448.53L335.04 449.06L335.4 449.6L335.75 450.15L336.08 450.71L336.39 451.29L336.69 451.87L336.78 452.04L336.87 452.21L336.97 452.37L337.06 452.53L337.17 452.68L337.27 452.84L337.39 452.99L337.5 453.13L337.62 453.27L337.74 453.41L337.87 453.55L338 453.68L338.13 453.8L338.27 453.93L338.41 454.04L338.55 454.16L338.69 454.27L338.84 454.38L338.99 454.48L339.15 454.58L339.31 454.67L339.47 454.76L339.63 454.85L339.79 454.93L339.96 455L340.13 455.08L340.3 455.14L340.47 455.21L340.65 455.26L340.82 455.32L341 455.36L341.18 455.41L341.36 455.45L341.55 455.48L341.73 455.51L341.92 455.53L342.1 455.55L342.29 455.56L342.48 455.57L342.67 455.57L390.3 455.57L390.49 455.57L390.68 455.56L390.87 455.55L391.06 455.53L391.24 455.51L391.43 455.48L391.61 455.45L391.79 455.41L391.97 455.37L392.15 455.32L392.33 455.26L392.5 455.21L392.67 455.15L392.84 455.08L393.01 455.01L393.18 454.93L393.34 454.85L393.51 454.76L393.67 454.68L393.82 454.58L393.98 454.48L394.13 454.38L394.28 454.27L394.42 454.16L394.57 454.05L394.71 453.93L394.84 453.81L394.98 453.68L395.11 453.55L395.23 453.41L395.36 453.28L395.47 453.13L395.59 452.99L395.7 452.84L395.81 452.69L395.91 452.53L396.01 452.37L396.11 452.21L396.2 452.04L396.28 451.87L396.59 451.29L396.9 450.71L397.23 450.15L397.58 449.6L397.94 449.06L398.31 448.53L398.7 448.01L399.1 447.51L399.51 447.02L399.94 446.54L400.38 446.07L400.83 445.62L401.29 445.18L401.77 444.75L402.25 444.34L402.75 443.94L403.25 443.56L403.77 443.19L404.29 442.83L404.83 442.49L405.37 442.16L405.93 441.85L406.49 441.55L407.06 441.27L407.64 441.01L408.22 440.76L408.82 440.52L409.42 440.31L410.02 440.11L410.64 439.92L411.26 439.75L411.88 439.6L412.51 439.47L413.15 439.36L413.78 439.26L414.43 439.18L415.08 439.12L415.73 439.07L416.38 439.05L417.04 439.04L522.52 439.04L522.52 306.82L539.05 306.82L539.05 439.04L555.58 439.04L555.58 306.82L572.11 306.82L572.11 439.04L588.64 439.04L588.98 439.05L589.31 439.07L589.65 439.1L589.98 439.15L590.3 439.21L590.62 439.28L590.94 439.36L591.25 439.46L591.55 439.57L591.85 439.69L592.14 439.82L592.43 439.96L592.71 440.11L592.99 440.28L593.25 440.45L593.51 440.63L593.77 440.83L594.01 441.03L594.25 441.24L594.48 441.46L594.7 441.69L594.91 441.93L595.11 442.17L595.3 442.42L595.49 442.68L595.66 442.95L595.82 443.22L595.98 443.51L596.12 443.79L596.25 444.09L596.37 444.39L596.48 444.69L596.57 445L596.66 445.32L596.73 445.64L596.79 445.96L596.84 446.29L596.87 446.63L596.89 446.96L596.9 447.3L596.9 472.09L596.87 473.46L596.79 474.8L596.65 476.14L596.47 477.46L596.23 478.76L595.94 480.04L595.6 481.3L595.21 482.54L594.78 483.76L594.3 484.96L593.78 486.13L593.21 487.28L592.6 488.41L591.95 489.51L591.25 490.58L590.52 491.62L589.75 492.63L588.94 493.61L588.1 494.55L587.22 495.47L586.3 496.35L585.36 497.19L584.38 498L583.37 498.77L582.32 499.5L581.26 500.2L580.16 500.85L579.03 501.46L577.88 502.03L576.71 502.55L575.51 503.03L574.29 503.46L573.05 503.85L571.79 504.19L570.5 504.48L569.2 504.72L567.89 504.9L566.55 505.04L565.21 505.12L563.84 505.15L167.18 505.15L165.81 505.12L164.47 505.04L163.13 504.9L161.82 504.72L160.52 504.48L159.23 504.19L157.97 503.85L156.73 503.46L155.51 503.03L154.31 502.55L153.14 502.03L151.99 501.46L150.86 500.85L149.76 500.2L148.7 499.5L147.65 498.77L146.64 498L145.66 497.19L144.72 496.35L143.8 495.47L142.92 494.55L142.08 493.61L141.27 492.63L140.5 491.62L139.77 490.58L139.07 489.51L138.42 488.41L137.81 487.28L137.24 486.13L136.72 484.96L136.24 483.76L135.81 482.54L135.42 481.3L135.08 480.04L134.79 478.76L134.55 477.46L134.37 476.14L134.23 474.8L134.15 473.46L134.12 472.09L134.12 447.3L134.13 446.96L134.15 446.63L134.18 446.29L134.23 445.96L134.29 445.64L134.36 445.32L134.45 445L134.54 444.69L134.65 444.39L134.77 444.09L134.9 443.79L135.04 443.51L135.2 443.23L135.36 442.95L135.53 442.68L135.72 442.42L135.91 442.17L136.11 441.93L136.32 441.69L136.54 441.46L136.77 441.24L137.01 441.03L137.25 440.83L137.5 440.63L137.76 440.45L138.03 440.28L138.31 440.11L138.59 439.96L138.87 439.82L139.17 439.69L139.47 439.57L139.77 439.46L140.08 439.36L140.4 439.28L140.72 439.21L141.04 439.15L141.37 439.1L141.71 439.07L142.04 439.05L142.38 439.04L158.91 439.04L158.91 215.91L158.95 214.21L159.05 212.53L159.22 210.86L159.46 209.22L159.76 207.59L160.12 205.99L160.55 204.41L161.03 202.86L161.57 201.34L162.17 199.84L162.83 198.37L163.54 196.94L164.3 195.53L165.12 194.16L165.98 192.82L166.9 191.52L167.86 190.26L168.87 189.04L169.93 187.85L171.03 186.71L172.17 185.61L173.35 184.55L174.58 183.54L175.84 182.58L177.14 181.67L178.48 180.8L179.85 179.98L181.25 179.22L182.69 178.51L184.16 177.85L185.65 177.25L187.18 176.71L188.73 176.23L190.31 175.8L191.91 175.44L193.53 175.14L195.18 174.91L196.84 174.73L198.53 174.63L200.23 174.59L365.51 174.59L365.51 191.12L200.23 191.12ZM150.65 472.09L150.66 472.78L150.7 473.45L150.77 474.12L150.86 474.78L150.98 475.43L151.13 476.07L151.3 476.7L151.49 477.32L151.71 477.93L151.95 478.53L152.21 479.12L152.49 479.69L152.8 480.25L153.12 480.8L153.47 481.34L153.84 481.86L154.22 482.36L154.63 482.85L155.05 483.33L155.49 483.78L155.95 484.22L156.42 484.64L156.91 485.05L157.41 485.43L157.93 485.8L158.47 486.15L159.02 486.47L159.58 486.78L160.15 487.06L160.74 487.32L161.34 487.56L161.95 487.78L162.57 487.97L163.2 488.14L163.84 488.29L164.49 488.41L165.15 488.5L165.82 488.57L166.5 488.61L167.18 488.62L563.84 488.62L564.52 488.61L565.2 488.57L565.86 488.5L566.52 488.41L567.17 488.29L567.81 488.14L568.45 487.97L569.07 487.78L569.68 487.56L570.28 487.32L570.86 487.06L571.44 486.78L572 486.47L572.55 486.15L573.08 485.8L573.6 485.43L574.11 485.05L574.6 484.64L575.07 484.22L575.53 483.78L575.97 483.33L576.39 482.85L576.8 482.36L577.18 481.86L577.55 481.34L577.89 480.8L578.22 480.25L578.53 479.69L578.81 479.12L579.07 478.53L579.31 477.93L579.53 477.32L579.72 476.7L579.89 476.07L580.03 475.43L580.15 474.78L580.25 474.12L580.31 473.45L580.36 472.78L580.37 472.09L580.37 455.57L417.04 455.57L416.85 455.57L416.66 455.57L416.48 455.59L416.29 455.6L416.1 455.63L415.92 455.65L415.74 455.69L415.56 455.72L415.38 455.77L415.2 455.82L415.02 455.87L414.85 455.93L414.67 455.99L414.5 456.05L414.33 456.13L414.17 456.2L414 456.28L413.84 456.37L413.68 456.46L413.53 456.55L413.37 456.65L413.22 456.75L413.07 456.86L412.93 456.97L412.78 457.08L412.64 457.2L412.51 457.32L412.37 457.45L412.25 457.58L412.12 457.71L412 457.85L411.88 457.99L411.76 458.14L411.65 458.29L411.54 458.44L411.44 458.6L411.34 458.75L411.25 458.92L411.15 459.08L411.07 459.25L410.77 459.84L410.45 460.41L410.12 460.98L409.77 461.53L409.41 462.07L409.04 462.6L408.65 463.12L408.25 463.62L407.84 464.11L407.41 464.59L406.97 465.06L406.52 465.51L406.06 465.95L405.59 466.38L405.1 466.79L404.61 467.19L404.1 467.58L403.58 467.95L403.06 468.3L402.52 468.64L401.98 468.97L401.42 469.28L400.86 469.58L400.29 469.86L399.71 470.13L399.13 470.38L398.53 470.61L397.93 470.83L397.33 471.03L396.71 471.21L396.09 471.38L395.47 471.53L394.84 471.66L394.2 471.78L393.56 471.88L392.92 471.96L392.27 472.02L391.62 472.06L390.96 472.09L390.3 472.09L342.67 472.09L342.01 472.09L341.35 472.06L340.7 472.02L340.05 471.96L339.41 471.88L338.77 471.78L338.13 471.66L337.5 471.53L336.88 471.38L336.26 471.21L335.65 471.03L335.04 470.83L334.44 470.61L333.85 470.38L333.26 470.13L332.68 469.86L332.11 469.58L331.55 469.28L331 468.97L330.45 468.64L329.92 468.3L329.39 467.95L328.87 467.58L328.37 467.19L327.87 466.79L327.39 466.38L326.91 465.95L326.45 465.51L326 465.06L325.56 464.59L325.13 464.11L324.72 463.62L324.32 463.12L323.93 462.6L323.56 462.07L323.2 461.53L322.86 460.98L322.53 460.41L322.21 459.84L321.91 459.25L321.82 459.08L321.73 458.92L321.64 458.76L321.54 458.6L321.43 458.44L321.32 458.29L321.21 458.14L321.1 458L320.98 457.86L320.85 457.72L320.73 457.59L320.6 457.46L320.46 457.33L320.33 457.21L320.19 457.09L320.05 456.97L319.9 456.86L319.75 456.76L319.6 456.65L319.45 456.56L319.29 456.46L319.13 456.37L318.97 456.29L318.8 456.21L318.64 456.13L318.47 456.06L318.3 455.99L318.12 455.93L317.95 455.87L317.77 455.82L317.59 455.77L317.41 455.73L317.23 455.69L317.05 455.66L316.87 455.63L316.68 455.61L316.49 455.59L316.31 455.58L316.12 455.57L315.93 455.57L150.65 455.57L150.65 472.09Z" id="a6jY2mnCL"></path><path d="M481.88 306.84L482.21 306.88L482.54 306.93L482.87 306.98L483.19 307.06L483.5 307.14L483.81 307.24L484.12 307.35L484.42 307.47L484.71 307.6L485 307.74L485.28 307.89L485.56 308.06L485.82 308.23L486.08 308.41L486.34 308.6L486.58 308.81L486.82 309.02L487.05 309.24L487.27 309.47L487.48 309.7L487.68 309.95L487.87 310.2L488.06 310.46L488.23 310.73L488.39 311L488.54 311.28L488.69 311.57L488.82 311.86L488.94 312.16L489.05 312.47L489.14 312.78L489.23 313.1L489.3 313.42L489.36 313.74L489.41 314.07L489.44 314.4L489.46 314.74L489.47 315.08L489.47 381.19L489.46 381.53L489.44 381.87L489.41 382.2L489.36 382.53L489.3 382.86L489.23 383.18L489.14 383.49L489.05 383.8L488.94 384.11L488.82 384.41L488.69 384.7L488.54 384.99L488.39 385.27L488.23 385.54L488.06 385.81L487.87 386.07L487.68 386.32L487.48 386.57L487.27 386.8L487.05 387.03L486.82 387.25L486.58 387.46L486.34 387.67L486.08 387.86L485.82 388.04L485.56 388.22L485.28 388.38L485 388.53L484.71 388.67L484.42 388.8L484.12 388.92L483.82 389.03L483.5 389.13L483.19 389.21L482.87 389.29L482.54 389.35L482.21 389.39L481.88 389.43L481.54 389.45L481.2 389.45L249.82 389.45L249.47 389.45L249.14 389.43L248.8 389.39L248.48 389.35L248.15 389.29L247.83 389.21L247.51 389.13L247.2 389.03L246.9 388.92L246.6 388.8L246.31 388.67L246.02 388.53L245.74 388.38L245.46 388.22L245.2 388.04L244.94 387.86L244.68 387.67L244.44 387.46L244.2 387.25L243.97 387.03L243.75 386.81L243.54 386.57L243.34 386.32L243.15 386.07L242.96 385.81L242.79 385.54L242.63 385.27L242.47 384.99L242.33 384.7L242.2 384.41L242.08 384.11L241.97 383.8L241.88 383.49L241.79 383.18L241.72 382.86L241.66 382.53L241.61 382.2L241.58 381.87L241.56 381.53L241.55 381.19L241.55 315.08L241.56 314.74L241.58 314.4L241.61 314.07L241.66 313.74L241.72 313.42L241.79 313.1L241.88 312.78L241.97 312.47L242.08 312.16L242.2 311.86L242.33 311.57L242.47 311.28L242.63 311L242.79 310.73L242.96 310.46L243.15 310.2L243.34 309.95L243.54 309.7L243.75 309.47L243.97 309.24L244.2 309.02L244.44 308.81L244.68 308.6L244.94 308.41L245.2 308.23L245.46 308.06L245.74 307.89L246.02 307.74L246.31 307.6L246.6 307.47L246.9 307.35L247.2 307.24L247.51 307.14L247.83 307.06L248.15 306.98L248.48 306.93L248.8 306.88L249.14 306.84L249.47 306.82L249.82 306.82L481.2 306.82L481.54 306.82L481.88 306.84ZM258.08 372.93L472.94 372.93L472.94 323.34L258.08 323.34L258.08 372.93Z" id="c3KqlRRB5"></path><path d="M291.13 339.87C291.13 339.87 291.13 339.87 291.13 339.87C291.13 349.79 291.13 355.3 291.13 356.4C291.13 356.4 291.13 356.4 291.13 356.4C281.22 356.4 275.71 356.4 274.61 356.4C274.61 356.4 274.61 356.4 274.61 356.4C274.61 346.48 274.61 340.97 274.61 339.87C274.61 339.87 274.61 339.87 274.61 339.87C284.52 339.87 290.03 339.87 291.13 339.87Z" id="jSl1aFbBz"></path><path d="M324.19 339.87C324.19 339.87 324.19 339.87 324.19 339.87C324.19 349.79 324.19 355.3 324.19 356.4C324.19 356.4 324.19 356.4 324.19 356.4C314.27 356.4 308.76 356.4 307.66 356.4C307.66 356.4 307.66 356.4 307.66 356.4C307.66 346.48 307.66 340.97 307.66 339.87C307.66 339.87 307.66 339.87 307.66 339.87C317.58 339.87 323.09 339.87 324.19 339.87Z" id="a6vWdIeQtX"></path><path d="M357.25 339.87C357.25 339.87 357.25 339.87 357.25 339.87C357.25 349.79 357.25 355.3 357.25 356.4C357.25 356.4 357.25 356.4 357.25 356.4C347.33 356.4 341.82 356.4 340.72 356.4C340.72 356.4 340.72 356.4 340.72 356.4C340.72 346.48 340.72 340.97 340.72 339.87C340.72 339.87 340.72 339.87 340.72 339.87C350.63 339.87 356.14 339.87 357.25 339.87Z" id="b1B6DFHyj"></path><path d="M390.3 339.87C390.3 339.87 390.3 339.87 390.3 339.87C390.3 349.79 390.3 355.3 390.3 356.4C390.3 356.4 390.3 356.4 390.3 356.4C380.38 356.4 374.87 356.4 373.77 356.4C373.77 356.4 373.77 356.4 373.77 356.4C373.77 346.48 373.77 340.97 373.77 339.87C373.77 339.87 373.77 339.87 373.77 339.87C383.69 339.87 389.2 339.87 390.3 339.87Z" id="j1cUVAZx6d"></path><path d="M514.13 9.65L518.13 10.05L522.08 10.61L525.98 11.33L529.83 12.2L533.61 13.21L537.34 14.37L541 15.67L544.59 17.11L548.12 18.68L551.57 20.39L554.94 22.22L558.23 24.17L561.44 26.25L564.56 28.45L567.59 30.76L570.53 33.19L573.37 35.72L576.12 38.36L578.76 41.11L581.29 43.95L583.72 46.89L586.03 49.92L588.23 53.04L590.3 56.25L592.26 59.54L594.09 62.91L595.8 66.36L597.37 69.88L598.81 73.48L600.11 77.14L601.27 80.87L602.28 84.65L603.15 88.5L603.86 92.4L604.43 96.35L604.83 100.35L605.08 104.4L605.16 108.48L605.16 133.58L606.21 133.71L607.25 133.88L608.27 134.09L609.27 134.33L610.26 134.61L611.24 134.92L612.2 135.27L613.14 135.66L614.06 136.07L614.96 136.52L615.85 136.99L616.71 137.5L617.55 138.04L618.38 138.61L619.17 139.2L619.95 139.83L620.7 140.48L621.43 141.15L622.14 141.85L622.81 142.58L623.47 143.33L624.09 144.1L624.69 144.89L625.26 145.71L625.8 146.54L626.31 147.4L626.79 148.28L627.24 149.17L627.65 150.08L628.04 151.01L628.39 151.95L628.71 152.91L628.99 153.89L629.24 154.88L629.45 155.88L629.63 156.89L629.77 157.92L629.87 158.96L629.93 160L629.95 161.06L629.95 262.5L629.93 263.65L629.86 264.78L629.75 265.9L629.59 267.01L629.39 268.1L629.14 269.18L628.86 270.24L628.53 271.28L628.17 272.31L627.76 273.31L627.32 274.3L626.84 275.27L626.33 276.21L625.78 277.13L625.2 278.03L624.58 278.91L623.93 279.75L623.25 280.58L622.54 281.37L621.8 282.14L621.04 282.88L620.24 283.59L619.42 284.27L618.57 284.92L617.69 285.53L616.79 286.12L615.87 286.66L614.93 287.18L613.96 287.66L612.97 288.1L611.97 288.5L610.94 288.86L609.9 289.19L608.84 289.47L607.76 289.72L606.67 289.92L605.56 290.08L604.44 290.19L603.31 290.26L602.16 290.29L409.83 290.29L408.68 290.26L407.55 290.19L406.43 290.08L405.32 289.92L404.23 289.72L403.16 289.47L402.09 289.19L401.05 288.86L400.03 288.5L399.02 288.1L398.03 287.66L397.07 287.18L396.12 286.66L395.2 286.12L394.3 285.53L393.43 284.92L392.58 284.27L391.75 283.59L390.96 282.88L390.19 282.14L389.45 281.37L388.74 280.58L388.06 279.75L387.41 278.91L386.79 278.03L386.21 277.13L385.66 276.21L385.15 275.27L384.67 274.3L384.23 273.31L383.83 272.31L383.46 271.28L383.14 270.24L382.85 269.18L382.61 268.1L382.41 267.01L382.25 265.9L382.13 264.78L382.06 263.65L382.04 262.5L382.04 161.06L382.06 160L382.12 158.96L382.22 157.92L382.36 156.89L382.54 155.88L382.75 154.88L383 153.89L383.28 152.91L383.6 151.95L383.95 151.01L384.34 150.08L384.76 149.17L385.2 148.28L385.68 147.4L386.19 146.54L386.73 145.71L387.3 144.89L387.9 144.1L388.53 143.33L389.18 142.58L389.86 141.85L390.56 141.15L391.29 140.48L392.04 139.83L392.82 139.2L393.62 138.61L394.44 138.04L395.28 137.5L396.14 136.99L397.03 136.52L397.93 136.07L398.85 135.66L399.79 135.27L400.75 134.92L401.73 134.61L402.72 134.33L403.72 134.09L404.75 133.88L405.78 133.71L406.83 133.58L406.83 108.48L406.91 104.4L407.16 100.35L407.56 96.35L408.13 92.4L408.84 88.5L409.71 84.65L410.73 80.87L411.88 77.14L413.18 73.48L414.62 69.88L416.19 66.36L417.9 62.91L419.73 59.54L421.69 56.25L423.77 53.04L425.96 49.92L428.28 46.89L430.7 43.95L433.24 41.11L435.88 38.36L438.62 35.72L441.46 33.19L444.4 30.76L447.43 28.45L450.55 26.25L453.76 24.17L457.05 22.22L460.42 20.39L463.87 18.68L467.4 17.11L470.99 15.67L474.65 14.37L478.38 13.21L482.17 12.2L486.01 11.33L489.91 10.61L493.86 10.05L497.86 9.65L501.91 9.4L506 9.32L510.08 9.4L514.13 9.65ZM409.37 149.81L408.91 149.84L408.45 149.89L408 149.95L407.56 150.03L407.12 150.13L406.7 150.25L406.27 150.38L405.86 150.53L405.45 150.69L405.05 150.87L404.66 151.06L404.27 151.27L403.9 151.49L403.54 151.73L403.18 151.98L402.84 152.24L402.5 152.52L402.18 152.8L401.87 153.1L401.57 153.41L401.28 153.74L401.01 154.07L400.74 154.41L400.49 154.77L400.26 155.13L400.04 155.51L399.83 155.89L399.63 156.28L399.45 156.68L399.29 157.09L399.14 157.5L399.01 157.92L398.9 158.35L398.8 158.79L398.72 159.23L398.65 159.68L398.6 160.13L398.58 160.59L398.57 161.06L398.57 262.51L398.58 262.97L398.6 263.43L398.65 263.88L398.72 264.33L398.8 264.77L398.9 265.21L399.01 265.64L399.14 266.06L399.29 266.48L399.45 266.88L399.63 267.28L399.83 267.68L400.04 268.06L400.26 268.43L400.49 268.8L400.74 269.15L401.01 269.49L401.28 269.83L401.57 270.15L401.87 270.46L402.18 270.76L402.5 271.05L402.84 271.32L403.18 271.59L403.54 271.83L403.9 272.07L404.27 272.29L404.66 272.5L405.05 272.69L405.45 272.87L405.86 273.04L406.27 273.18L406.7 273.32L407.12 273.43L407.56 273.53L408 273.61L408.45 273.68L408.91 273.72L409.37 273.75L409.83 273.76L602.16 273.76L602.47 273.75L602.78 273.73L603.09 273.7L603.39 273.65L603.7 273.58L604 273.51L604.3 273.41L604.6 273.31L604.9 273.19L605.2 273.05L605.49 272.91L605.79 272.74L606.08 272.57L606.37 272.38L606.66 272.17L606.95 271.96L607.23 271.72L607.52 271.48L607.8 271.22L608.09 270.94L608.37 270.65L608.65 270.35L608.92 270.04L609.2 269.71L609.48 269.36L609.75 269L610.02 268.63L610.29 268.24L610.56 267.84L610.83 267.43L611.1 267L611.36 266.55L611.62 266.1L611.89 265.63L612.15 265.14L612.41 264.64L612.66 264.13L612.92 263.6L613.17 263.06L613.43 262.51L613.43 161.06L613.42 160.59L613.39 160.13L613.34 159.68L613.28 159.23L613.2 158.79L613.1 158.35L612.98 157.92L612.85 157.5L612.7 157.09L612.54 156.68L612.36 156.28L612.16 155.89L611.96 155.51L611.73 155.13L611.5 154.77L611.25 154.41L610.99 154.07L610.71 153.74L610.42 153.41L610.12 153.1L609.81 152.8L609.49 152.52L609.15 152.24L608.81 151.98L608.46 151.73L608.09 151.49L607.72 151.27L607.34 151.06L606.94 150.87L606.54 150.69L606.14 150.53L605.72 150.38L605.3 150.25L604.87 150.13L604.43 150.03L603.99 149.95L603.54 149.89L603.09 149.84L602.63 149.81L602.16 149.8L409.83 149.8L409.37 149.81ZM503.06 25.91L501.54 26L499.98 26.12L498.38 26.27L496.76 26.46L495.11 26.69L493.43 26.95L491.72 27.25L490 27.59L488.26 27.96L486.5 28.37L484.72 28.82L482.94 29.3L481.14 29.82L479.34 30.39L477.53 30.99L475.72 31.63L473.91 32.31L472.1 33.03L470.29 33.79L468.49 34.59L466.7 35.44L464.92 36.32L463.16 37.25L461.41 38.21L459.68 39.22L457.96 40.28L456.28 41.37L454.61 42.51L452.98 43.69L451.37 44.92L449.8 46.19L448.26 47.51L446.76 48.87L445.3 50.27L443.88 51.73L442.5 53.22L441.17 54.77L439.88 56.36L439.14 57.33L438.41 58.33L437.7 59.34L437 60.36L436.33 61.41L435.66 62.47L435.02 63.55L434.39 64.64L433.79 65.75L433.19 66.88L432.62 68.02L432.06 69.18L431.52 70.36L430.99 71.56L430.49 72.77L430 73.99L429.52 75.24L429.07 76.5L428.63 77.78L428.21 79.07L427.8 80.38L427.42 81.71L427.05 83.06L426.69 84.42L426.36 85.8L426.04 87.19L425.73 88.61L425.45 90.03L425.18 91.48L424.93 92.94L424.7 94.42L424.48 95.92L424.28 97.43L424.1 98.96L423.93 100.5L423.78 102.07L423.65 103.64L423.53 105.24L423.44 106.85L423.36 108.48L423.36 133.27L439.88 133.27L439.88 108.48L439.94 105.76L440.1 103.06L440.37 100.39L440.75 97.76L441.23 95.16L441.81 92.6L442.48 90.07L443.26 87.59L444.12 85.15L445.08 82.75L446.13 80.4L447.26 78.1L448.49 75.85L449.79 73.66L451.18 71.52L452.64 69.44L454.18 67.42L455.8 65.46L457.49 63.56L459.25 61.74L461.08 59.98L462.97 58.29L464.93 56.67L466.95 55.13L469.03 53.66L471.17 52.28L473.37 50.97L475.61 49.75L477.91 48.62L480.26 47.57L482.66 46.61L485.1 45.74L487.58 44.97L490.11 44.29L492.67 43.72L495.27 43.24L497.91 42.86L500.57 42.59L503.27 42.43L506 42.37L508.72 42.43L511.42 42.59L514.08 42.86L516.72 43.24L519.32 43.72L521.88 44.29L524.41 44.97L526.89 45.74L529.33 46.61L531.73 47.57L534.08 48.62L536.38 49.75L538.62 50.97L540.82 52.28L542.96 53.66L545.04 55.13L547.06 56.67L549.02 58.29L550.91 59.98L552.74 61.74L554.5 63.56L556.19 65.46L557.81 67.42L559.35 69.44L560.81 71.52L562.2 73.66L563.51 75.85L564.73 78.1L565.86 80.4L566.91 82.75L567.87 85.15L568.74 87.59L569.51 90.07L570.18 92.6L570.76 95.16L571.24 97.76L571.62 100.39L571.89 103.06L572.05 105.76L572.11 108.48L572.11 133.27L588.63 133.27L588.63 108.48L588.57 105.08L588.36 101.71L588.02 98.37L587.55 95.08L586.96 91.83L586.23 88.62L585.39 85.47L584.42 82.36L583.34 79.31L582.14 76.32L580.83 73.38L579.41 70.51L577.88 67.7L576.25 64.95L574.52 62.28L572.69 59.68L570.76 57.15L568.74 54.7L566.63 52.33L564.43 50.05L562.14 47.85L559.78 45.74L557.33 43.72L554.8 41.79L552.2 39.96L549.53 38.23L546.78 36.59L543.97 35.07L541.1 33.65L538.16 32.34L535.17 31.14L532.12 30.06L529.01 29.09L525.85 28.25L522.65 27.52L519.4 26.93L516.11 26.46L512.77 26.12L509.4 25.91L506 25.84L504.55 25.86L503.06 25.91ZM501.93 59.06L499.93 59.27L497.95 59.55L496 59.91L494.08 60.34L492.19 60.85L490.32 61.43L488.49 62.08L486.7 62.8L484.93 63.58L483.21 64.43L481.52 65.35L479.88 66.33L478.27 67.37L476.71 68.47L475.2 69.62L473.73 70.83L472.31 72.1L470.93 73.42L469.61 74.79L468.35 76.21L467.14 77.68L465.98 79.2L464.88 80.76L463.84 82.36L462.86 84.01L461.95 85.7L461.09 87.42L460.31 89.18L459.59 90.98L458.94 92.81L458.36 94.67L457.85 96.57L457.42 98.49L457.06 100.44L456.78 102.42L456.58 104.42L456.45 106.44L456.41 108.48L456.41 133.27L555.58 133.27L555.58 108.48L555.54 106.44L555.42 104.42L555.21 102.42L554.93 100.44L554.57 98.49L554.14 96.57L553.63 94.67L553.05 92.81L552.4 90.98L551.68 89.18L550.9 87.42L550.05 85.7L549.13 84.01L548.15 82.36L547.11 80.76L546.01 79.2L544.86 77.68L543.64 76.21L542.38 74.79L541.06 73.42L539.69 72.1L538.27 70.83L536.8 69.62L535.28 68.47L533.72 67.37L532.12 66.33L530.47 65.35L528.78 64.43L527.06 63.58L525.3 62.8L523.5 62.08L521.67 61.43L519.81 60.85L517.91 60.34L515.99 59.91L514.04 59.55L512.06 59.27L510.06 59.06L508.04 58.94L506 58.9L503.95 58.94L501.93 59.06Z" id="b1eGQo5b1y"></path><path d="M507.65 182.91L508.46 182.98L509.27 183.07L510.07 183.19L510.87 183.33L511.66 183.5L512.44 183.7L513.21 183.92L513.97 184.16L514.72 184.43L515.46 184.72L516.19 185.04L516.91 185.37L517.62 185.73L518.31 186.12L518.99 186.52L519.66 186.95L520.32 187.39L520.95 187.86L521.58 188.35L522.19 188.85L522.78 189.38L523.35 189.93L523.91 190.49L524.45 191.07L524.98 191.68L525.48 192.29L525.96 192.93L526.43 193.58L526.87 194.25L527.3 194.94L527.7 195.64L528.08 196.36L528.44 197.09L528.77 197.84L529.09 198.6L529.37 199.38L529.71 200.4L530 201.42L530.24 202.45L530.44 203.47L530.59 204.5L530.7 205.53L530.76 206.56L530.79 207.58L530.76 208.6L530.7 209.61L530.6 210.61L530.45 211.61L530.27 212.6L530.04 213.58L529.78 214.55L529.48 215.5L529.14 216.44L528.76 217.37L528.35 218.28L527.9 219.17L527.41 220.05L526.89 220.9L526.34 221.73L525.75 222.54L525.13 223.33L524.47 224.1L523.78 224.83L523.07 225.54L522.32 226.23L521.54 226.88L520.72 227.51L519.88 228.1L519.02 228.66L518.12 229.18L517.19 229.67L516.24 230.13L515.26 230.54L514.26 230.92L514.26 248.97L497.73 248.97L497.73 230.92L496.96 230.63L496.19 230.32L495.45 229.99L494.71 229.63L494 229.25L493.29 228.84L492.61 228.42L491.94 227.98L491.28 227.51L490.65 227.03L490.03 226.52L489.43 226L488.85 225.46L488.28 224.9L487.74 224.33L487.21 223.73L486.7 223.13L486.21 222.5L485.75 221.86L485.3 221.21L484.88 220.54L484.47 219.86L484.09 219.17L483.73 218.46L483.39 217.74L483.08 217.01L482.79 216.27L482.52 215.52L482.27 214.76L482.05 213.99L481.86 213.21L481.69 212.42L481.54 211.62L481.42 210.82L481.33 210.01L481.26 209.19L481.22 208.37L481.21 207.54L481.24 206.47L481.31 205.41L481.42 204.36L481.58 203.33L481.78 202.3L482.02 201.3L482.3 200.31L482.62 199.34L482.98 198.39L483.38 197.45L483.81 196.54L484.28 195.65L484.78 194.78L485.32 193.93L485.89 193.11L486.5 192.31L487.13 191.53L487.8 190.79L488.49 190.07L489.21 189.38L489.96 188.72L490.74 188.08L491.54 187.48L492.37 186.92L493.22 186.38L494.09 185.88L494.98 185.41L495.9 184.98L496.83 184.59L497.79 184.24L498.76 183.92L499.75 183.64L500.76 183.4L501.78 183.21L502.81 183.05L503.86 182.94L504.92 182.88L506 182.86L506.82 182.87L507.65 182.91ZM503.38 199.81L502.2 200.31L501.12 200.98L500.15 201.81L499.33 202.77L498.65 203.85L498.15 205.04L497.84 206.31L497.73 207.65L497.84 208.99L498.15 210.26L498.65 211.45L499.33 212.53L500.15 213.49L501.12 214.32L502.2 214.99L503.38 215.49L504.66 215.81L506 215.91L507.34 215.81L508.61 215.49L509.79 214.99L510.87 214.32L511.84 213.49L512.66 212.53L513.34 211.45L513.84 210.26L514.15 208.99L514.26 207.65L514.15 206.31L513.84 205.04L513.34 203.85L512.66 202.77L511.84 201.81L510.87 200.98L509.79 200.31L508.61 199.81L507.34 199.5L506 199.39L504.66 199.5L503.38 199.81Z" id="d4hyCX7jUN"></path><path d="M299.4 141.54C299.4 141.54 299.4 141.54 299.4 141.54C299.4 151.46 299.4 156.96 299.4 158.07C299.4 158.07 299.4 158.07 299.4 158.07C289.48 158.07 283.97 158.07 282.87 158.07C282.87 158.07 282.87 158.07 282.87 158.07C282.87 148.15 282.87 142.64 282.87 141.54C282.87 141.54 282.87 141.54 282.87 141.54C292.79 141.54 298.3 141.54 299.4 141.54Z" id="bddTQ80Ja2"></path><path d="M299.4 108.48C299.4 108.48 299.4 108.48 299.4 108.48C299.4 118.4 299.4 123.91 299.4 125.01C299.4 125.01 299.4 125.01 299.4 125.01C289.48 125.01 283.97 125.01 282.87 125.01C282.87 125.01 282.87 125.01 282.87 125.01C282.87 115.09 282.87 109.58 282.87 108.48C282.87 108.48 282.87 108.48 282.87 108.48C292.79 108.48 298.3 108.48 299.4 108.48Z" id="a15y8KOgAb"></path><path d="M299.4 75.43C299.4 75.43 299.4 75.43 299.4 75.43C299.4 85.34 299.4 90.85 299.4 91.96C299.4 91.96 299.4 91.96 299.4 91.96C289.48 91.96 283.97 91.96 282.87 91.96C282.87 91.96 282.87 91.96 282.87 91.96C282.87 82.04 282.87 76.53 282.87 75.43C282.87 75.43 282.87 75.43 282.87 75.43C292.79 75.43 298.3 75.43 299.4 75.43Z" id="cRi68C01r"></path><path d="M299.4 42.37C299.4 42.37 299.4 42.37 299.4 42.37C299.4 52.29 299.4 57.8 299.4 58.9C299.4 58.9 299.4 58.9 299.4 58.9C289.48 58.9 283.97 58.9 282.87 58.9C282.87 58.9 282.87 58.9 282.87 58.9C282.87 48.98 282.87 43.47 282.87 42.37C282.87 42.37 282.87 42.37 282.87 42.37C292.79 42.37 298.3 42.37 299.4 42.37Z" id="ac0l9mt9e"></path><path d="M332.45 42.37C332.45 42.37 332.45 42.37 332.45 42.37C332.45 52.29 332.45 57.8 332.45 58.9C332.45 58.9 332.45 58.9 332.45 58.9C322.54 58.9 317.03 58.9 315.93 58.9C315.93 58.9 315.93 58.9 315.93 58.9C315.93 48.98 315.93 43.47 315.93 42.37C315.93 42.37 315.93 42.37 315.93 42.37C325.84 42.37 331.35 42.37 332.45 42.37Z" id="a6PC73JBIh"></path><path d="M365.51 42.37C365.51 42.37 365.51 42.37 365.51 42.37C365.51 52.29 365.51 57.8 365.51 58.9C365.51 58.9 365.51 58.9 365.51 58.9C355.59 58.9 350.08 58.9 348.98 58.9C348.98 58.9 348.98 58.9 348.98 58.9C348.98 48.98 348.98 43.47 348.98 42.37C348.98 42.37 348.98 42.37 348.98 42.37C358.9 42.37 364.41 42.37 365.51 42.37Z" id="b1XxIhBeb"></path><path d="M398.57 42.37C398.57 42.37 398.57 42.37 398.57 42.37C398.57 52.29 398.57 57.8 398.57 58.9C398.57 58.9 398.57 58.9 398.57 58.9C388.65 58.9 383.14 58.9 382.04 58.9C382.04 58.9 382.04 58.9 382.04 58.9C382.04 48.98 382.04 43.47 382.04 42.37C382.04 42.37 382.04 42.37 382.04 42.37C391.95 42.37 397.46 42.37 398.57 42.37Z" id="b48R9Yw4Ux"></path><path d="M183.89 53.76L170.97 54.7L153.84 57.21L136.6 65.01L124.94 72.61L113.21 81.38L105.3 90.38L99.28 98.97C96.59 103.63 95.1 106.21 94.8 106.73C91.33 113.96 89.4 117.97 89.02 118.77C88.55 120.96 88.28 122.18 88.23 122.43C97.4 101.02 118.65 86.03 143.41 86.03C155.95 86.03 167.57 89.87 177.21 96.44C178.24 97.3 179.32 98.1 180.45 98.82C180.69 99.01 180.94 99.18 181.19 99.38C181.19 99.38 181.21 99.33 181.21 99.32C185.53 101.99 190.42 103.8 195.67 104.51C197.26 104.72 198.88 104.83 200.56 104.83C211.83 104.83 221.92 99.74 228.64 91.73C233.25 86.21 236.31 79.32 237.03 71.73C236.81 71.41 235.65 69.84 233.61 66.98C232.94 66.57 229.57 64.49 223.51 60.72C222.27 60.39 216.09 58.7 204.96 55.67L183.89 53.76Z" id="a1e4MKJymg"></path><path d="M183.89 53.76L170.97 54.7L153.84 57.21L136.6 65.01L124.94 72.61L113.21 81.38L105.3 90.38L99.28 98.97C96.59 103.63 95.1 106.21 94.8 106.73C91.33 113.96 89.4 117.97 89.02 118.77C88.55 120.96 88.28 122.18 88.23 122.43C97.4 101.02 118.65 86.03 143.41 86.03C155.95 86.03 167.57 89.87 177.21 96.44C178.24 97.3 179.32 98.1 180.45 98.82C180.69 99.01 180.94 99.18 181.19 99.38C181.19 99.38 181.21 99.33 181.21 99.32C185.53 101.99 190.42 103.8 195.67 104.51C197.26 104.72 198.88 104.83 200.56 104.83C211.83 104.83 221.92 99.74 228.64 91.73C233.25 86.21 236.31 79.32 237.03 71.73C236.81 71.41 235.65 69.84 233.61 66.98C232.94 66.57 229.57 64.49 223.51 60.72C222.27 60.39 216.09 58.7 204.96 55.67L183.89 53.76Z" id="c2CX2tTT1"></path><path d="M183.89 53.76L170.97 54.7L153.84 57.21L136.6 65.01L124.94 72.61L113.21 81.38L105.3 90.38L99.28 98.97C96.59 103.63 95.1 106.21 94.8 106.73C91.33 113.96 89.4 117.97 89.02 118.77C88.55 120.96 88.28 122.18 88.23 122.43C97.4 101.02 118.65 86.03 143.41 86.03C155.95 86.03 167.57 89.87 177.21 96.44C178.24 97.3 179.32 98.1 180.45 98.82C180.69 99.01 180.94 99.18 181.19 99.38C181.19 99.38 181.21 99.33 181.21 99.32C185.53 101.99 190.42 103.8 195.67 104.51C197.26 104.72 198.88 104.83 200.56 104.83C211.83 104.83 221.92 99.74 228.64 91.73C233.25 86.21 236.31 79.32 237.03 71.73C236.81 71.41 235.65 69.84 233.61 66.98C232.94 66.57 229.57 64.49 223.51 60.72C222.27 60.39 216.09 58.7 204.96 55.67L183.89 53.76Z" id="e3hSMJeKyi"></path><path d="M183.89 53.76L170.97 54.7L153.84 57.21L136.6 65.01L124.94 72.61L113.21 81.38L105.3 90.38L99.28 98.97C96.59 103.63 95.1 106.21 94.8 106.73C91.33 113.96 89.4 117.97 89.02 118.77C88.55 120.96 88.28 122.18 88.23 122.43C97.4 101.02 118.65 86.03 143.41 86.03C155.95 86.03 167.57 89.87 177.21 96.44C178.24 97.3 179.32 98.1 180.45 98.82C180.69 99.01 180.94 99.18 181.19 99.38C181.19 99.38 181.21 99.33 181.21 99.32C185.53 101.99 190.42 103.8 195.67 104.51C197.26 104.72 198.88 104.83 200.56 104.83C211.83 104.83 221.92 99.74 228.64 91.73C233.25 86.21 236.31 79.32 237.03 71.73C236.81 71.41 235.65 69.84 233.61 66.98C232.94 66.57 229.57 64.49 223.51 60.72C222.27 60.39 216.09 58.7 204.96 55.67L183.89 53.76Z" id="cfGugGoFO"></path><path d="M147.17 16.29C146.52 16.57 143.27 17.95 137.42 20.44L117.46 28.36L102.2 41.19L93.37 49.2L85.96 60.6L78.55 72.53L72.82 89.06L70.55 100.93L69.71 108.25L69.71 122L70.55 131.43L73.88 146.53L78.63 158.62L82.26 165.94L86.93 172.6L90.95 178.03C93.52 180.74 94.95 182.25 95.24 182.55C96.04 183.19 96.47 183.56 96.56 183.63C96.72 183.71 96.81 183.75 96.82 183.75C88.44 173.45 83.42 160.29 83.42 145.99C83.42 144.35 83.48 142.76 83.6 141.16C84.14 134.55 85.74 128.26 88.23 122.43C100.02 89.03 129.02 63.75 164.61 57.28C170.44 56.22 176.46 55.67 182.62 55.67C195.54 55.67 207.88 58.12 219.2 62.57C225.47 65.04 231.46 68.12 237.03 71.73C237.14 70.59 237.22 69.39 237.22 68.21C237.22 56.58 231.92 46.02 223.45 39.3C202.82 26.82 186.5 19.15 174.5 16.29C174.13 16.24 172.23 16 168.84 15.59C167.4 15.65 160.17 15.87 147.17 16.29Z" id="g8tEvsU52J"></path><path d="M147.17 16.29C146.52 16.57 143.27 17.95 137.42 20.44L117.46 28.36L102.2 41.19L93.37 49.2L85.96 60.6L78.55 72.53L72.82 89.06L70.55 100.93L69.71 108.25L69.71 122L70.55 131.43L73.88 146.53L78.63 158.62L82.26 165.94L86.93 172.6L90.95 178.03C93.52 180.74 94.95 182.25 95.24 182.55C96.04 183.19 96.47 183.56 96.56 183.63C96.72 183.71 96.81 183.75 96.82 183.75C88.44 173.45 83.42 160.29 83.42 145.99C83.42 144.35 83.48 142.76 83.6 141.16C84.14 134.55 85.74 128.26 88.23 122.43C100.02 89.03 129.02 63.75 164.61 57.28C170.44 56.22 176.46 55.67 182.62 55.67C195.54 55.67 207.88 58.12 219.2 62.57C225.47 65.04 231.46 68.12 237.03 71.73C237.14 70.59 237.22 69.39 237.22 68.21C237.22 56.58 231.92 46.02 223.45 39.3C202.82 26.82 186.5 19.15 174.5 16.29C174.13 16.24 172.23 16 168.84 15.59C167.4 15.65 160.17 15.87 147.17 16.29Z" id="b62aKV117"></path><path d="M147.17 16.29C146.52 16.57 143.27 17.95 137.42 20.44L117.46 28.36L102.2 41.19L93.37 49.2L85.96 60.6L78.55 72.53L72.82 89.06L70.55 100.93L69.71 108.25L69.71 122L70.55 131.43L73.88 146.53L78.63 158.62L82.26 165.94L86.93 172.6L90.95 178.03C93.52 180.74 94.95 182.25 95.24 182.55C96.04 183.19 96.47 183.56 96.56 183.63C96.72 183.71 96.81 183.75 96.82 183.75C88.44 173.45 83.42 160.29 83.42 145.99C83.42 144.35 83.48 142.76 83.6 141.16C84.14 134.55 85.74 128.26 88.23 122.43C100.02 89.03 129.02 63.75 164.61 57.28C170.44 56.22 176.46 55.67 182.62 55.67C195.54 55.67 207.88 58.12 219.2 62.57C225.47 65.04 231.46 68.12 237.03 71.73C237.14 70.59 237.22 69.39 237.22 68.21C237.22 56.58 231.92 46.02 223.45 39.3C202.82 26.82 186.5 19.15 174.5 16.29C174.13 16.24 172.23 16 168.84 15.59C167.4 15.65 160.17 15.87 147.17 16.29Z" id="b2322rmXAa"></path><path d="M147.17 16.29C146.52 16.57 143.27 17.95 137.42 20.44L117.46 28.36L102.2 41.19L93.37 49.2L85.96 60.6L78.55 72.53L72.82 89.06L70.55 100.93L69.71 108.25L69.71 122L70.55 131.43L73.88 146.53L78.63 158.62L82.26 165.94L86.93 172.6L90.95 178.03C93.52 180.74 94.95 182.25 95.24 182.55C96.04 183.19 96.47 183.56 96.56 183.63C96.72 183.71 96.81 183.75 96.82 183.75C88.44 173.45 83.42 160.29 83.42 145.99C83.42 144.35 83.48 142.76 83.6 141.16C84.14 134.55 85.74 128.26 88.23 122.43C100.02 89.03 129.02 63.75 164.61 57.28C170.44 56.22 176.46 55.67 182.62 55.67C195.54 55.67 207.88 58.12 219.2 62.57C225.47 65.04 231.46 68.12 237.03 71.73C237.14 70.59 237.22 69.39 237.22 68.21C237.22 56.58 231.92 46.02 223.45 39.3C202.82 26.82 186.5 19.15 174.5 16.29C174.13 16.24 172.23 16 168.84 15.59C167.4 15.65 160.17 15.87 147.17 16.29Z" id="d1rPh58E1y"></path><path d="M167.2 14.74C159.49 13.36 151.57 12.64 143.48 12.64C112.04 12.64 83.13 23.52 60.33 41.71C53.77 46.93 47.73 52.75 42.26 59.1C42.21 59.16 41.99 59.5 41.58 60.11C41.46 60.3 40.89 61.29 39.84 63.04C39.71 63.28 39.07 64.47 37.92 66.6L33.63 77.41L30.89 86.75L29.11 100.58L29.11 114.47L31.14 131.34L37.41 149.51L47.59 165.85L59.57 180.14L73.3 191.07L84.24 197.85L100.38 204.59L118.06 207.84L128.86 208.45C135.15 208.09 138.64 207.88 139.34 207.84C143.75 207.08 146.2 206.65 146.69 206.57C148.23 206.02 149.1 205.72 149.26 205.65C147.34 205.84 145.37 205.93 143.41 205.93C131.07 205.93 119.61 202.2 110.07 195.83C105.07 192.48 100.6 188.4 96.82 183.75C91.47 177.91 86.81 171.44 82.94 164.44C75.05 150.14 70.55 133.7 70.55 116.21C70.55 82.41 87.33 52.52 113.01 34.42C129.3 22.95 149.16 16.2 170.6 16.2C171.91 16.2 173.21 16.24 174.5 16.29C172.1 15.7 169.64 15.19 167.2 14.74" id="i1HyUmolvX"></path><path d="M167.2 14.74C159.49 13.36 151.57 12.64 143.48 12.64C112.04 12.64 83.13 23.52 60.33 41.71C53.77 46.93 47.73 52.75 42.26 59.1C42.21 59.16 41.99 59.5 41.58 60.11C41.46 60.3 40.89 61.29 39.84 63.04C39.71 63.28 39.07 64.47 37.92 66.6L33.63 77.41L30.89 86.75L29.11 100.58L29.11 114.47L31.14 131.34L37.41 149.51L47.59 165.85L59.57 180.14L73.3 191.07L84.24 197.85L100.38 204.59L118.06 207.84L128.86 208.45C135.15 208.09 138.64 207.88 139.34 207.84C143.75 207.08 146.2 206.65 146.69 206.57C148.23 206.02 149.1 205.72 149.26 205.65C147.34 205.84 145.37 205.93 143.41 205.93C131.07 205.93 119.61 202.2 110.07 195.83C105.07 192.48 100.6 188.4 96.82 183.75C91.47 177.91 86.81 171.44 82.94 164.44C75.05 150.14 70.55 133.7 70.55 116.21C70.55 82.41 87.33 52.52 113.01 34.42C129.3 22.95 149.16 16.2 170.6 16.2C171.91 16.2 173.21 16.24 174.5 16.29C172.1 15.7 169.64 15.19 167.2 14.74" id="b8X8cKANrR"></path><path d="M167.2 14.74C159.49 13.36 151.57 12.64 143.48 12.64C112.04 12.64 83.13 23.52 60.33 41.71C53.77 46.93 47.73 52.75 42.26 59.1C42.21 59.16 41.99 59.5 41.58 60.11C41.46 60.3 40.89 61.29 39.84 63.04C39.71 63.28 39.07 64.47 37.92 66.6L33.63 77.41L30.89 86.75L29.11 100.58L29.11 114.47L31.14 131.34L37.41 149.51L47.59 165.85L59.57 180.14L73.3 191.07L84.24 197.85L100.38 204.59L118.06 207.84L128.86 208.45C135.15 208.09 138.64 207.88 139.34 207.84C143.75 207.08 146.2 206.65 146.69 206.57C148.23 206.02 149.1 205.72 149.26 205.65C147.34 205.84 145.37 205.93 143.41 205.93C131.07 205.93 119.61 202.2 110.07 195.83C105.07 192.48 100.6 188.4 96.82 183.75C91.47 177.91 86.81 171.44 82.94 164.44C75.05 150.14 70.55 133.7 70.55 116.21C70.55 82.41 87.33 52.52 113.01 34.42C129.3 22.95 149.16 16.2 170.6 16.2C171.91 16.2 173.21 16.24 174.5 16.29C172.1 15.7 169.64 15.19 167.2 14.74" id="b5cafSJkh7"></path><path d="M167.2 14.74C159.49 13.36 151.57 12.64 143.48 12.64C112.04 12.64 83.13 23.52 60.33 41.71C53.77 46.93 47.73 52.75 42.26 59.1C42.21 59.16 41.99 59.5 41.58 60.11C41.46 60.3 40.89 61.29 39.84 63.04C39.71 63.28 39.07 64.47 37.92 66.6L33.63 77.41L30.89 86.75L29.11 100.58L29.11 114.47L31.14 131.34L37.41 149.51L47.59 165.85L59.57 180.14L73.3 191.07L84.24 197.85L100.38 204.59L118.06 207.84L128.86 208.45C135.15 208.09 138.64 207.88 139.34 207.84C143.75 207.08 146.2 206.65 146.69 206.57C148.23 206.02 149.1 205.72 149.26 205.65C147.34 205.84 145.37 205.93 143.41 205.93C131.07 205.93 119.61 202.2 110.07 195.83C105.07 192.48 100.6 188.4 96.82 183.75C91.47 177.91 86.81 171.44 82.94 164.44C75.05 150.14 70.55 133.7 70.55 116.21C70.55 82.41 87.33 52.52 113.01 34.42C129.3 22.95 149.16 16.2 170.6 16.2C171.91 16.2 173.21 16.24 174.5 16.29C172.1 15.7 169.64 15.19 167.2 14.74" id="d1hkUEPAIP"></path><path d="M175.99 198.5C177.11 197.19 178.21 195.87 179.25 194.5C178.37 195.01 177.46 195.49 176.57 195.97C168.12 200.46 158.94 203.75 149.26 205.65C142.97 206.89 136.48 207.54 129.82 207.54C116.91 207.54 104.56 205.1 93.23 200.66C56.06 186.04 29.76 149.86 29.76 107.54C29.76 89.98 34.31 73.46 42.26 59.1C22.19 82.45 10.05 112.79 10.05 145.99C10.05 161.64 12.76 176.66 17.72 190.62C17.73 190.63 17.76 190.69 17.81 190.79C17.82 190.82 17.89 190.95 18.01 191.18L18.64 192.29L22.11 197.94L33.26 209.5L45.88 218.8L59.75 226.42L80.36 233.02L99.38 234.96L112 234.19L124 231.85L133.55 229.07L149.01 222.22L164.19 211.77L172.55 204.87L178.76 197.73L180.43 195.37C179.72 194.85 179.32 194.56 179.25 194.5C177.67 195.93 176.78 196.73 176.61 196.89C176.24 197.86 176.02 198.4 175.99 198.5Z" id="b2rgjKS6jG"></path><path d="M175.99 198.5C177.11 197.19 178.21 195.87 179.25 194.5C178.37 195.01 177.46 195.49 176.57 195.97C168.12 200.46 158.94 203.75 149.26 205.65C142.97 206.89 136.48 207.54 129.82 207.54C116.91 207.54 104.56 205.1 93.23 200.66C56.06 186.04 29.76 149.86 29.76 107.54C29.76 89.98 34.31 73.46 42.26 59.1C22.19 82.45 10.05 112.79 10.05 145.99C10.05 161.64 12.76 176.66 17.72 190.62C17.73 190.63 17.76 190.69 17.81 190.79C17.82 190.82 17.89 190.95 18.01 191.18L18.64 192.29L22.11 197.94L33.26 209.5L45.88 218.8L59.75 226.42L80.36 233.02L99.38 234.96L112 234.19L124 231.85L133.55 229.07L149.01 222.22L164.19 211.77L172.55 204.87L178.76 197.73L180.43 195.37C179.72 194.85 179.32 194.56 179.25 194.5C177.67 195.93 176.78 196.73 176.61 196.89C176.24 197.86 176.02 198.4 175.99 198.5Z" id="eZXXpL6Mo"></path><path d="M175.99 198.5C177.11 197.19 178.21 195.87 179.25 194.5C178.37 195.01 177.46 195.49 176.57 195.97C168.12 200.46 158.94 203.75 149.26 205.65C142.97 206.89 136.48 207.54 129.82 207.54C116.91 207.54 104.56 205.1 93.23 200.66C56.06 186.04 29.76 149.86 29.76 107.54C29.76 89.98 34.31 73.46 42.26 59.1C22.19 82.45 10.05 112.79 10.05 145.99C10.05 161.64 12.76 176.66 17.72 190.62C17.73 190.63 17.76 190.69 17.81 190.79C17.82 190.82 17.89 190.95 18.01 191.18L18.64 192.29L22.11 197.94L33.26 209.5L45.88 218.8L59.75 226.42L80.36 233.02L99.38 234.96L112 234.19L124 231.85L133.55 229.07L149.01 222.22L164.19 211.77L172.55 204.87L178.76 197.73L180.43 195.37C179.72 194.85 179.32 194.56 179.25 194.5C177.67 195.93 176.78 196.73 176.61 196.89C176.24 197.86 176.02 198.4 175.99 198.5Z" id="a2UtPfYLl"></path><path d="M175.99 198.5C177.11 197.19 178.21 195.87 179.25 194.5C178.37 195.01 177.46 195.49 176.57 195.97C168.12 200.46 158.94 203.75 149.26 205.65C142.97 206.89 136.48 207.54 129.82 207.54C116.91 207.54 104.56 205.1 93.23 200.66C56.06 186.04 29.76 149.86 29.76 107.54C29.76 89.98 34.31 73.46 42.26 59.1C22.19 82.45 10.05 112.79 10.05 145.99C10.05 161.64 12.76 176.66 17.72 190.62C17.73 190.63 17.76 190.69 17.81 190.79C17.82 190.82 17.89 190.95 18.01 191.18L18.64 192.29L22.11 197.94L33.26 209.5L45.88 218.8L59.75 226.42L80.36 233.02L99.38 234.96L112 234.19L124 231.85L133.55 229.07L149.01 222.22L164.19 211.77L172.55 204.87L178.76 197.73L180.43 195.37C179.72 194.85 179.32 194.56 179.25 194.5C177.67 195.93 176.78 196.73 176.61 196.89C176.24 197.86 176.02 198.4 175.99 198.5Z" id="b33obrbv4e"></path><path d="M179.25 194.5C173.11 202.49 165.76 209.54 157.5 215.35C145.89 223.53 132.45 229.31 117.92 231.96C112.09 233.02 106.06 233.58 99.92 233.58C65.86 233.58 35.8 216.58 17.72 190.62C36.1 242.31 85.46 279.31 143.46 279.31C171.27 279.31 197.03 270.84 218.39 256.3C218.15 255.9 217.04 253.92 215.02 250.32C213.63 247.85 206.72 235.55 194.24 213.39C186.95 200.43 183.04 193.49 182.51 192.56C181.44 193.22 180.35 193.87 179.25 194.5Z" id="a6aYvHbalK"></path><path d="M179.25 194.5C173.11 202.49 165.76 209.54 157.5 215.35C145.89 223.53 132.45 229.31 117.92 231.96C112.09 233.02 106.06 233.58 99.92 233.58C65.86 233.58 35.8 216.58 17.72 190.62C36.1 242.31 85.46 279.31 143.46 279.31C171.27 279.31 197.03 270.84 218.39 256.3C218.15 255.9 217.04 253.92 215.02 250.32C213.63 247.85 206.72 235.55 194.24 213.39C186.95 200.43 183.04 193.49 182.51 192.56C181.44 193.22 180.35 193.87 179.25 194.5Z" id="b1kTUWJXWk"></path><path d="M179.25 194.5C173.11 202.49 165.76 209.54 157.5 215.35C145.89 223.53 132.45 229.31 117.92 231.96C112.09 233.02 106.06 233.58 99.92 233.58C65.86 233.58 35.8 216.58 17.72 190.62C36.1 242.31 85.46 279.31 143.46 279.31C171.27 279.31 197.03 270.84 218.39 256.3C218.15 255.9 217.04 253.92 215.02 250.32C213.63 247.85 206.72 235.55 194.24 213.39C186.95 200.43 183.04 193.49 182.51 192.56C181.44 193.22 180.35 193.87 179.25 194.5Z" id="d9g499ZOm"></path><path d="M179.25 194.5C173.11 202.49 165.76 209.54 157.5 215.35C145.89 223.53 132.45 229.31 117.92 231.96C112.09 233.02 106.06 233.58 99.92 233.58C65.86 233.58 35.8 216.58 17.72 190.62C36.1 242.31 85.46 279.31 143.46 279.31C171.27 279.31 197.03 270.84 218.39 256.3C218.15 255.9 217.04 253.92 215.02 250.32C213.63 247.85 206.72 235.55 194.24 213.39C186.95 200.43 183.04 193.49 182.51 192.56C181.44 193.22 180.35 193.87 179.25 194.5Z" id="bHQXNkSB8"></path><path d="M257.21 197.81C257.21 166.77 232.02 141.62 200.97 141.62C196.27 141.62 191.69 142.19 187.34 143.29C171.6 147.18 158.49 157.73 151.12 171.76C151.13 171.76 151.13 171.78 151.13 171.78C152.04 171.78 159.3 171.78 160.21 171.78C163.46 172.16 179.73 174.12 209.01 177.62C209.46 178.66 211.7 183.85 215.74 193.19C220.28 210.92 222.81 220.76 223.31 222.73C214.8 239.58 210.06 248.92 209.12 250.79C207.1 258.78 205.97 263.24 205.74 264.12C220.16 256.55 233.03 246.44 243.73 234.37C243.73 234.37 243.72 234.35 243.72 234.34C252.12 224.5 257.21 211.77 257.21 197.81" id="bpNB4vxX8"></path><path d="M257.21 197.81C257.21 166.77 232.02 141.62 200.97 141.62C196.27 141.62 191.69 142.19 187.34 143.29C171.6 147.18 158.49 157.73 151.12 171.76C151.13 171.76 151.13 171.78 151.13 171.78C152.04 171.78 159.3 171.78 160.21 171.78C163.46 172.16 179.73 174.12 209.01 177.62C209.46 178.66 211.7 183.85 215.74 193.19C220.28 210.92 222.81 220.76 223.31 222.73C214.8 239.58 210.06 248.92 209.12 250.79C207.1 258.78 205.97 263.24 205.74 264.12C220.16 256.55 233.03 246.44 243.73 234.37C243.73 234.37 243.72 234.35 243.72 234.34C252.12 224.5 257.21 211.77 257.21 197.81" id="bxw5hy6Da"></path><path d="M257.21 197.81C257.21 166.77 232.02 141.62 200.97 141.62C196.27 141.62 191.69 142.19 187.34 143.29C171.6 147.18 158.49 157.73 151.12 171.76C151.13 171.76 151.13 171.78 151.13 171.78C152.04 171.78 159.3 171.78 160.21 171.78C163.46 172.16 179.73 174.12 209.01 177.62C209.46 178.66 211.7 183.85 215.74 193.19C220.28 210.92 222.81 220.76 223.31 222.73C214.8 239.58 210.06 248.92 209.12 250.79C207.1 258.78 205.97 263.24 205.74 264.12C220.16 256.55 233.03 246.44 243.73 234.37C243.73 234.37 243.72 234.35 243.72 234.34C252.12 224.5 257.21 211.77 257.21 197.81" id="aatgN82ID"></path><path d="M257.21 197.81C257.21 166.77 232.02 141.62 200.97 141.62C196.27 141.62 191.69 142.19 187.34 143.29C171.6 147.18 158.49 157.73 151.12 171.76C151.13 171.76 151.13 171.78 151.13 171.78C152.04 171.78 159.3 171.78 160.21 171.78C163.46 172.16 179.73 174.12 209.01 177.62C209.46 178.66 211.7 183.85 215.74 193.19C220.28 210.92 222.81 220.76 223.31 222.73C214.8 239.58 210.06 248.92 209.12 250.79C207.1 258.78 205.97 263.24 205.74 264.12C220.16 256.55 233.03 246.44 243.73 234.37C243.73 234.37 243.72 234.35 243.72 234.34C252.12 224.5 257.21 211.77 257.21 197.81" id="cJMQW4rMZ"></path><path d="M177.03 165.13C167.64 165.13 158.81 167.54 151.13 171.78C172.25 181.2 186.38 198.35 186.38 217.95C186.38 238.03 171.51 255.57 149.47 264.83C138.87 269.3 126.6 271.85 113.52 271.85C107.11 271.85 100.89 271.23 94.95 270.08C110.1 276.03 126.59 279.31 143.84 279.31C161 279.31 177.37 276.09 192.42 270.18C196.99 268.41 201.44 266.39 205.74 264.12C220.76 254.61 230.72 237.86 230.72 218.78C230.72 189.15 206.69 165.13 177.03 165.13" id="b8jvhnNx1"></path><path d="M177.03 165.13C167.64 165.13 158.81 167.54 151.13 171.78C172.25 181.2 186.38 198.35 186.38 217.95C186.38 238.03 171.51 255.57 149.47 264.83C138.87 269.3 126.6 271.85 113.52 271.85C107.11 271.85 100.89 271.23 94.95 270.08C110.1 276.03 126.59 279.31 143.84 279.31C161 279.31 177.37 276.09 192.42 270.18C196.99 268.41 201.44 266.39 205.74 264.12C220.76 254.61 230.72 237.86 230.72 218.78C230.72 189.15 206.69 165.13 177.03 165.13" id="d16yqFRbOv"></path><path d="M177.03 165.13C167.64 165.13 158.81 167.54 151.13 171.78C172.25 181.2 186.38 198.35 186.38 217.95C186.38 238.03 171.51 255.57 149.47 264.83C138.87 269.3 126.6 271.85 113.52 271.85C107.11 271.85 100.89 271.23 94.95 270.08C110.1 276.03 126.59 279.31 143.84 279.31C161 279.31 177.37 276.09 192.42 270.18C196.99 268.41 201.44 266.39 205.74 264.12C220.76 254.61 230.72 237.86 230.72 218.78C230.72 189.15 206.69 165.13 177.03 165.13" id="ave98GvQk"></path><path d="M177.03 165.13C167.64 165.13 158.81 167.54 151.13 171.78C172.25 181.2 186.38 198.35 186.38 217.95C186.38 238.03 171.51 255.57 149.47 264.83C138.87 269.3 126.6 271.85 113.52 271.85C107.11 271.85 100.89 271.23 94.95 270.08C110.1 276.03 126.59 279.31 143.84 279.31C161 279.31 177.37 276.09 192.42 270.18C196.99 268.41 201.44 266.39 205.74 264.12C220.76 254.61 230.72 237.86 230.72 218.78C230.72 189.15 206.69 165.13 177.03 165.13" id="d130g5Mk87"></path><path d="M206.14 107.96C198.16 108.59 189.41 106.33 179.85 101.24C171.66 95.04 162.43 91.45 152.13 90.43C136.69 88.94 127.05 91.05 118.14 95.29C94.45 106.5 85.13 135.19 85.13 146.17C85.13 157.31 88.11 190.79 118.61 202.95C126.9 206.26 137.65 209.86 152.94 208.49C163.16 207.57 172.12 203.88 179.85 197.43C176.56 192.34 172.67 187.96 168.19 184.27C163.7 180.6 158.62 177.65 152.94 175.39C163.54 159.9 175.74 150.45 189.49 147.07C210.14 142 225.17 149.27 235.52 155.13C245.87 160.99 256.8 178.68 258.09 197.43C258.86 208.2 255.55 219.01 248.23 229.9C239.71 242.61 230.31 252.64 220.1 259.99C207.34 269.17 194.13 273.55 182.33 277.5C161.08 284.63 131.07 282.15 113.42 278.16C98.96 274.9 95.41 272.15 83.85 267.41C47.14 252.35 10.44 208.54 11.46 148.39C12.08 112.59 26.9 77.32 50.42 55.42C60.25 46.3 72.02 31.65 103.79 22.91C135.57 14.16 156.83 15.59 177.55 20.44C195.58 24.63 211.39 32.07 225 42.7C232.52 50.92 237.22 58.58 239.1 65.65C242.13 76.96 237.41 87.01 232.78 93.02C228.35 98.77 217.63 107.1 206.14 107.96Z" id="b6C52ZOnj"></path><path d="M206.14 107.96C198.16 108.59 189.41 106.33 179.85 101.24C171.66 95.04 162.43 91.45 152.13 90.43C136.69 88.94 127.05 91.05 118.14 95.29C94.45 106.5 85.13 135.19 85.13 146.17C85.13 157.31 88.11 190.79 118.61 202.95C126.9 206.26 137.65 209.86 152.94 208.49C163.16 207.57 172.12 203.88 179.85 197.43C176.56 192.34 172.67 187.96 168.19 184.27C163.7 180.6 158.62 177.65 152.94 175.39C163.54 159.9 175.74 150.45 189.49 147.07C210.14 142 225.17 149.27 235.52 155.13C245.87 160.99 256.8 178.68 258.09 197.43C258.86 208.2 255.55 219.01 248.23 229.9C239.71 242.61 230.31 252.64 220.1 259.99C207.34 269.17 194.13 273.55 182.33 277.5C161.08 284.63 131.07 282.15 113.42 278.16C98.96 274.9 95.41 272.15 83.85 267.41C47.14 252.35 10.44 208.54 11.46 148.39C12.08 112.59 26.9 77.32 50.42 55.42C60.25 46.3 72.02 31.65 103.79 22.91C135.57 14.16 156.83 15.59 177.55 20.44C195.58 24.63 211.39 32.07 225 42.7C232.52 50.92 237.22 58.58 239.1 65.65C242.13 76.96 237.41 87.01 232.78 93.02C228.35 98.77 217.63 107.1 206.14 107.96Z" id="exs3gXtdk"></path></defs><g><g><g><use xlink:href="#ep7kMMoFQ" opacity="1" fill="#b0b0b0" fill-opacity="1"></use><g><use xlink:href="#ep7kMMoFQ" opacity="1" fill-opacity="0" stroke="#000000" stroke-width="1" stroke-opacity="0"></use></g></g><g><use xlink:href="#du2JlY66S" opacity="1" fill="#34345c" fill-opacity="1"></use><g><use xlink:href="#du2JlY66S" opacity="1" fill-opacity="0" stroke="#000000" stroke-width="1" stroke-opacity="0"></use></g></g><g><use xlink:href="#axldawafg" opacity="1" fill="#30304c" fill-opacity="1"></use><g><use xlink:href="#axldawafg" opacity="1" fill-opacity="0" stroke="#000000" stroke-width="1" stroke-opacity="0"></use></g></g><g><use xlink:href="#dBfVdYmsb" opacity="1" fill="#45b2e0" fill-opacity="1"></use><g><use xlink:href="#dBfVdYmsb" opacity="1" fill-opacity="0" stroke="#000000" stroke-width="1" stroke-opacity="0"></use></g></g><g><use xlink:href="#a4j6D2Qc8r" opacity="1" fill="#126099" fill-opacity="1"></use><g><use xlink:href="#a4j6D2Qc8r" opacity="1" fill-opacity="0" stroke="#000000" stroke-width="1" stroke-opacity="0"></use></g></g><g><use xlink:href="#apzpW3sY9" opacity="1" fill="#126099" fill-opacity="1"></use><g><use xlink:href="#apzpW3sY9" opacity="1" fill-opacity="0" stroke="#000000" stroke-width="1" stroke-opacity="0"></use></g></g><g><use xlink:href="#a7esplLXq" opacity="1" fill="#126099" fill-opacity="1"></use><g><use xlink:href="#a7esplLXq" opacity="1" fill-opacity="0" stroke="#000000" stroke-width="1" stroke-opacity="0"></use></g></g><g><use xlink:href="#dV2hz8Pww" opacity="1" fill="#126099" fill-opacity="1"></use><g><use xlink:href="#dV2hz8Pww" opacity="1" fill-opacity="0" stroke="#000000" stroke-width="1" stroke-opacity="0"></use></g></g><g><use xlink:href="#d4iMxxAB1I" opacity="1" fill="#e35f9b" fill-opacity="1"></use><g><use xlink:href="#d4iMxxAB1I" opacity="1" fill-opacity="0" stroke="#000000" stroke-width="1" stroke-opacity="0"></use></g></g><g><use xlink:href="#a145lCWGIw" opacity="1" fill="#b0b0b0" fill-opacity="1"></use><g><use xlink:href="#a145lCWGIw" opacity="1" fill-opacity="0" stroke="#000000" stroke-width="1" stroke-opacity="0"></use></g></g><g><use xlink:href="#a9z8kzBPc" opacity="1" fill="#87ced9" fill-opacity="1"></use><g><use xlink:href="#a9z8kzBPc" opacity="1" fill-opacity="0" stroke="#000000" stroke-width="1" stroke-opacity="0"></use></g></g><g><use xlink:href="#goVSjml75" opacity="1" fill="#87ced9" fill-opacity="1"></use><g><use xlink:href="#goVSjml75" opacity="1" fill-opacity="0" stroke="#000000" stroke-width="1" stroke-opacity="0"></use></g></g><g><use xlink:href="#e1vCgREj4f" opacity="1" fill="#87ced9" fill-opacity="1"></use><g><use xlink:href="#e1vCgREj4f" opacity="1" fill-opacity="0" stroke="#000000" stroke-width="1" stroke-opacity="0"></use></g></g><g><use xlink:href="#a1SDXThMlB" opacity="1" fill="#87ced9" fill-opacity="1"></use><g><use xlink:href="#a1SDXThMlB" opacity="1" fill-opacity="0" stroke="#000000" stroke-width="1" stroke-opacity="0"></use></g></g><g><use xlink:href="#cbFDcxDsr" opacity="1" fill="#87ced9" fill-opacity="1"></use><g><use xlink:href="#cbFDcxDsr" opacity="1" fill-opacity="0" stroke="#000000" stroke-width="1" stroke-opacity="0"></use></g></g><g><use xlink:href="#aCyCFjZ6g" opacity="1" fill="#87ced9" fill-opacity="1"></use><g><use xlink:href="#aCyCFjZ6g" opacity="1" fill-opacity="0" stroke="#000000" stroke-width="1" stroke-opacity="0"></use></g></g><g><use xlink:href="#bhCoC1Xaz" opacity="1" fill="#87ced9" fill-opacity="1"></use><g><use xlink:href="#bhCoC1Xaz" opacity="1" fill-opacity="0" stroke="#000000" stroke-width="1" stroke-opacity="0"></use></g></g><g><use xlink:href="#aaqVgKBz" opacity="1" fill="#b0b0b0" fill-opacity="1"></use><g><use xlink:href="#aaqVgKBz" opacity="1" fill-opacity="0" stroke="#000000" stroke-width="1" stroke-opacity="0"></use></g></g><g><use xlink:href="#b2v3yutka" opacity="1" fill="#d14c89" fill-opacity="1"></use><g><use xlink:href="#b2v3yutka" opacity="1" fill-opacity="0" stroke="#000000" stroke-width="1" stroke-opacity="0"></use></g></g><g><use xlink:href="#b7IPkXIfN" opacity="1" fill="#556575" fill-opacity="1"></use><g><use xlink:href="#b7IPkXIfN" opacity="1" fill-opacity="0" stroke="#000000" stroke-width="1" stroke-opacity="0"></use></g></g><g><use xlink:href="#aGnjrloH1" opacity="1" fill="#c0c0c0" fill-opacity="1"></use><g><use xlink:href="#aGnjrloH1" opacity="1" fill-opacity="0" stroke="#000000" stroke-width="1" stroke-opacity="0"></use></g></g><g><use xlink:href="#azLtQs2p2" opacity="1" fill="#c0c0c0" fill-opacity="1"></use><g><use xlink:href="#azLtQs2p2" opacity="1" fill-opacity="0" stroke="#000000" stroke-width="1" stroke-opacity="0"></use></g></g><g><use xlink:href="#c2nkfTNZvt" opacity="1" fill="#5bc2ed" fill-opacity="1"></use><g><use xlink:href="#c2nkfTNZvt" opacity="1" fill-opacity="0" stroke="#000000" stroke-width="1" stroke-opacity="0"></use></g></g><g><use xlink:href="#a6jY2mnCL" opacity="1" fill="#000000" fill-opacity="1"></use><g><use xlink:href="#a6jY2mnCL" opacity="1" fill-opacity="0" stroke="#000000" stroke-width="1" stroke-opacity="0"></use></g></g><g><use xlink:href="#c3KqlRRB5" opacity="1" fill="#000000" fill-opacity="1"></use><g><use xlink:href="#c3KqlRRB5" opacity="1" fill-opacity="0" stroke="#000000" stroke-width="1" stroke-opacity="0"></use></g></g><g><use xlink:href="#jSl1aFbBz" opacity="1" fill="#000000" fill-opacity="1"></use><g><use xlink:href="#jSl1aFbBz" opacity="1" fill-opacity="0" stroke="#000000" stroke-width="1" stroke-opacity="0"></use></g></g><g><use xlink:href="#a6vWdIeQtX" opacity="1" fill="#000000" fill-opacity="1"></use><g><use xlink:href="#a6vWdIeQtX" opacity="1" fill-opacity="0" stroke="#000000" stroke-width="1" stroke-opacity="0"></use></g></g><g><use xlink:href="#b1B6DFHyj" opacity="1" fill="#000000" fill-opacity="1"></use><g><use xlink:href="#b1B6DFHyj" opacity="1" fill-opacity="0" stroke="#000000" stroke-width="1" stroke-opacity="0"></use></g></g><g><use xlink:href="#j1cUVAZx6d" opacity="1" fill="#000000" fill-opacity="1"></use><g><use xlink:href="#j1cUVAZx6d" opacity="1" fill-opacity="0" stroke="#000000" stroke-width="1" stroke-opacity="0"></use></g></g><g><use xlink:href="#b1eGQo5b1y" opacity="1" fill="#000000" fill-opacity="1"></use><g><use xlink:href="#b1eGQo5b1y" opacity="1" fill-opacity="0" stroke="#000000" stroke-width="1" stroke-opacity="0"></use></g></g><g><use xlink:href="#d4hyCX7jUN" opacity="1" fill="#000000" fill-opacity="1"></use><g><use xlink:href="#d4hyCX7jUN" opacity="1" fill-opacity="0" stroke="#000000" stroke-width="1" stroke-opacity="0"></use></g></g><g><use xlink:href="#bddTQ80Ja2" opacity="1" fill="#000000" fill-opacity="1"></use><g><use xlink:href="#bddTQ80Ja2" opacity="1" fill-opacity="0" stroke="#000000" stroke-width="1" stroke-opacity="0"></use></g></g><g><use xlink:href="#a15y8KOgAb" opacity="1" fill="#000000" fill-opacity="1"></use><g><use xlink:href="#a15y8KOgAb" opacity="1" fill-opacity="0" stroke="#000000" stroke-width="1" stroke-opacity="0"></use></g></g><g><use xlink:href="#cRi68C01r" opacity="1" fill="#000000" fill-opacity="1"></use><g><use xlink:href="#cRi68C01r" opacity="1" fill-opacity="0" stroke="#000000" stroke-width="1" stroke-opacity="0"></use></g></g><g><use xlink:href="#ac0l9mt9e" opacity="1" fill="#000000" fill-opacity="1"></use><g><use xlink:href="#ac0l9mt9e" opacity="1" fill-opacity="0" stroke="#000000" stroke-width="1" stroke-opacity="0"></use></g></g><g><use xlink:href="#a6PC73JBIh" opacity="1" fill="#000000" fill-opacity="1"></use><g><use xlink:href="#a6PC73JBIh" opacity="1" fill-opacity="0" stroke="#000000" stroke-width="1" stroke-opacity="0"></use></g></g><g><use xlink:href="#b1XxIhBeb" opacity="1" fill="#000000" fill-opacity="1"></use><g><use xlink:href="#b1XxIhBeb" opacity="1" fill-opacity="0" stroke="#000000" stroke-width="1" stroke-opacity="0"></use></g></g><g><use xlink:href="#b48R9Yw4Ux" opacity="1" fill="#000000" fill-opacity="1"></use><g><use xlink:href="#b48R9Yw4Ux" opacity="1" fill-opacity="0" stroke="#000000" stroke-width="1" stroke-opacity="0"></use></g></g><g><g><use xlink:href="#a1e4MKJymg" opacity="1" fill="#244d89" fill-opacity="1"></use><g><use xlink:href="#a1e4MKJymg" opacity="1" fill-opacity="0" stroke="#000000" stroke-width="1" stroke-opacity="0"></use></g></g><g><use xlink:href="#c2CX2tTT1" opacity="1" fill="#000000" fill-opacity="0"></use><g><use xlink:href="#c2CX2tTT1" opacity="1" fill-opacity="0" stroke="#000000" stroke-width="1" stroke-opacity="0"></use></g></g><g><use xlink:href="#e3hSMJeKyi" opacity="1" fill="#000000" fill-opacity="0"></use><g><use xlink:href="#e3hSMJeKyi" opacity="1" fill-opacity="0" stroke="#000000" stroke-width="1" stroke-opacity="0"></use></g></g><g><use xlink:href="#cfGugGoFO" opacity="1" fill="#000000" fill-opacity="0"></use><g><use xlink:href="#cfGugGoFO" opacity="1" fill-opacity="0" stroke="#000000" stroke-width="1" stroke-opacity="0"></use></g></g><g><use xlink:href="#g8tEvsU52J" opacity="1" fill="#3fc2f0" fill-opacity="1"></use><g><use xlink:href="#g8tEvsU52J" opacity="1" fill-opacity="0" stroke="#000000" stroke-width="1" stroke-opacity="0"></use></g></g><g><use xlink:href="#b62aKV117" opacity="1" fill="#000000" fill-opacity="0"></use><g><use xlink:href="#b62aKV117" opacity="1" fill-opacity="0" stroke="#000000" stroke-width="1" stroke-opacity="0"></use></g></g><g><use xlink:href="#b2322rmXAa" opacity="1" fill="#000000" fill-opacity="0"></use><g><use xlink:href="#b2322rmXAa" opacity="1" fill-opacity="0" stroke="#000000" stroke-width="1" stroke-opacity="0"></use></g></g><g><use xlink:href="#d1rPh58E1y" opacity="1" fill="#000000" fill-opacity="0"></use><g><use xlink:href="#d1rPh58E1y" opacity="1" fill-opacity="0" stroke="#000000" stroke-width="1" stroke-opacity="0"></use></g></g><g><use xlink:href="#i1HyUmolvX" opacity="1" fill="#2c84bd" fill-opacity="1"></use><g><use xlink:href="#i1HyUmolvX" opacity="1" fill-opacity="0" stroke="#000000" stroke-width="1" stroke-opacity="0"></use></g></g><g><use xlink:href="#b8X8cKANrR" opacity="1" fill="#000000" fill-opacity="0"></use><g><use xlink:href="#b8X8cKANrR" opacity="1" fill-opacity="0" stroke="#000000" stroke-width="1" stroke-opacity="0"></use></g></g><g><use xlink:href="#b5cafSJkh7" opacity="1" fill="#000000" fill-opacity="0"></use><g><use xlink:href="#b5cafSJkh7" opacity="1" fill-opacity="0" stroke="#000000" stroke-width="1" stroke-opacity="0"></use></g></g><g><use xlink:href="#d1hkUEPAIP" opacity="1" fill="#000000" fill-opacity="0"></use><g><use xlink:href="#d1hkUEPAIP" opacity="1" fill-opacity="0" stroke="#000000" stroke-width="1" stroke-opacity="0"></use></g></g><g><use xlink:href="#b2rgjKS6jG" opacity="1" fill="#38589a" fill-opacity="1"></use><g><use xlink:href="#b2rgjKS6jG" opacity="1" fill-opacity="0" stroke="#000000" stroke-width="1" stroke-opacity="0"></use></g></g><g><use xlink:href="#eZXXpL6Mo" opacity="1" fill="#000000" fill-opacity="0"></use><g><use xlink:href="#eZXXpL6Mo" opacity="1" fill-opacity="0" stroke="#000000" stroke-width="1" stroke-opacity="0"></use></g></g><g><use xlink:href="#a2UtPfYLl" opacity="1" fill="#000000" fill-opacity="0"></use><g><use xlink:href="#a2UtPfYLl" opacity="1" fill-opacity="0" stroke="#000000" stroke-width="1" stroke-opacity="0"></use></g></g><g><use xlink:href="#b33obrbv4e" opacity="1" fill="#000000" fill-opacity="0"></use><g><use xlink:href="#b33obrbv4e" opacity="1" fill-opacity="0" stroke="#000000" stroke-width="1" stroke-opacity="0"></use></g></g><g><use xlink:href="#a6aYvHbalK" opacity="1" fill="#244d89" fill-opacity="1"></use><g><use xlink:href="#a6aYvHbalK" opacity="1" fill-opacity="0" stroke="#000000" stroke-width="1" stroke-opacity="0"></use></g></g><g><use xlink:href="#b1kTUWJXWk" opacity="1" fill="#000000" fill-opacity="0"></use><g><use xlink:href="#b1kTUWJXWk" opacity="1" fill-opacity="0" stroke="#000000" stroke-width="1" stroke-opacity="0"></use></g></g><g><use xlink:href="#d9g499ZOm" opacity="1" fill="#000000" fill-opacity="0"></use><g><use xlink:href="#d9g499ZOm" opacity="1" fill-opacity="0" stroke="#000000" stroke-width="1" stroke-opacity="0"></use></g></g><g><use xlink:href="#bHQXNkSB8" opacity="1" fill="#000000" fill-opacity="0"></use><g><use xlink:href="#bHQXNkSB8" opacity="1" fill-opacity="0" stroke="#000000" stroke-width="1" stroke-opacity="0"></use></g></g><g><use xlink:href="#bpNB4vxX8" opacity="1" fill="#3fc2f0" fill-opacity="1"></use><g><use xlink:href="#bpNB4vxX8" opacity="1" fill-opacity="0" stroke="#000000" stroke-width="1" stroke-opacity="0"></use></g></g><g><use xlink:href="#bxw5hy6Da" opacity="1" fill="#000000" fill-opacity="0"></use><g><use xlink:href="#bxw5hy6Da" opacity="1" fill-opacity="0" stroke="#000000" stroke-width="1" stroke-opacity="0"></use></g></g><g><use xlink:href="#aatgN82ID" opacity="1" fill="#000000" fill-opacity="0"></use><g><use xlink:href="#aatgN82ID" opacity="1" fill-opacity="0" stroke="#000000" stroke-width="1" stroke-opacity="0"></use></g></g><g><use xlink:href="#cJMQW4rMZ" opacity="1" fill="#000000" fill-opacity="0"></use><g><use xlink:href="#cJMQW4rMZ" opacity="1" fill-opacity="0" stroke="#000000" stroke-width="1" stroke-opacity="0"></use></g></g><g><use xlink:href="#b8jvhnNx1" opacity="1" fill="#2c84bd" fill-opacity="1"></use><g><use xlink:href="#b8jvhnNx1" opacity="1" fill-opacity="0" stroke="#000000" stroke-width="1" stroke-opacity="0"></use></g></g><g><use xlink:href="#d16yqFRbOv" opacity="1" fill="#000000" fill-opacity="0"></use><g><use xlink:href="#d16yqFRbOv" opacity="1" fill-opacity="0" stroke="#000000" stroke-width="1" stroke-opacity="0"></use></g></g><g><use xlink:href="#ave98GvQk" opacity="1" fill="#000000" fill-opacity="0"></use><g><use xlink:href="#ave98GvQk" opacity="1" fill-opacity="0" stroke="#000000" stroke-width="1" stroke-opacity="0"></use></g></g><g><use xlink:href="#d130g5Mk87" opacity="1" fill="#000000" fill-opacity="0"></use><g><use xlink:href="#d130g5Mk87" opacity="1" fill-opacity="0" stroke="#000000" stroke-width="1" stroke-opacity="0"></use></g></g><g><use xlink:href="#b6C52ZOnj" opacity="1" fill="#000000" fill-opacity="0"></use><g><use xlink:href="#b6C52ZOnj" opacity="1" fill-opacity="0" stroke="#000000" stroke-width="1" stroke-opacity="0"></use></g></g><g><use xlink:href="#exs3gXtdk" opacity="1" fill="#000000" fill-opacity="0"></use><g><use xlink:href="#exs3gXtdk" opacity="1" fill-opacity="0" stroke="#000000" stroke-width="15" stroke-opacity="1"></use></g></g></g></g></g></svg>