<?xml version="1.0" encoding="UTF-8" standalone="no"?>
<!DOCTYPE svg PUBLIC "-//W3C//DTD SVG 1.1//EN" "http://www.w3.org/Graphics/SVG/1.1/DTD/svg11.dtd">
<svg version="1.1" xmlns="http://www.w3.org/2000/svg" xmlns:xlink="http://www.w3.org/1999/xlink" preserveAspectRatio="xMidYMid meet" viewBox="0 0 640 640" width="640" height="640"><defs><path d="M458.66 501.32C470.45 501.32 479.99 510.86 479.99 522.65C479.99 522.65 479.99 522.65 479.99 522.65C479.99 534.43 470.45 543.98 458.66 543.98C416 543.98 74.7 543.98 32.03 543.98C20.25 543.98 10.7 534.43 10.7 522.65C10.7 522.65 10.7 522.65 10.7 522.65C10.7 510.86 20.25 501.32 32.03 501.32C117.36 501.32 416 501.32 458.66 501.32Z" id="aPuLnSxxr"></path><path d="M117.36 10.69C117.36 21.36 32.03 501.32 32.03 501.32C41.36 501.32 87.97 501.32 171.87 501.32C139.16 206.94 120.99 43.4 117.36 10.69Z" id="aeiMNFIDM"></path><path d="M543.99 10.69L117.36 10.69L181.35 586.64L607.98 586.64L543.99 10.69Z" id="f2qMvCDEm7"></path><path d="M607.98 586.64C619.77 586.64 629.31 596.19 629.31 607.97C629.31 607.97 629.31 607.97 629.31 607.97C629.31 619.76 619.77 629.31 607.98 629.31C565.32 629.31 224.02 629.31 181.35 629.31C169.57 629.31 160.02 619.76 160.02 607.97C160.02 607.97 160.02 607.97 160.02 607.97C160.02 596.19 169.57 586.64 181.35 586.64C266.68 586.64 565.32 586.64 607.98 586.64Z" id="a2LkZdPlac"></path><path d="M169.98 484.3C170.74 491.13 174.53 525.24 181.35 586.64L607.98 586.64C588.66 412.68 577.92 316.04 575.77 296.71C518.39 411.02 390.49 490.65 241.74 490.65C217.68 490.65 193.67 488.53 169.98 484.3Z" id="a19LUsuwoW"></path><path d="M416 64.02C427.79 64.02 437.33 73.57 437.33 85.35C437.33 85.35 437.33 85.35 437.33 85.35C437.33 97.14 427.78 106.69 416 106.69C402.13 106.69 291.21 106.69 277.35 106.69C265.56 106.69 256.01 97.14 256.01 85.35C256.01 85.35 256.01 85.35 256.01 85.35C256.01 73.57 265.56 64.02 277.35 64.02C305.08 64.02 402.13 64.02 416 64.02Z" id="a2jHvgNGm4"></path><path d="M418.62 53.46L419.91 53.59L421.19 53.78L422.45 54.01L423.69 54.29L424.91 54.61L426.11 54.99L427.3 55.41L428.45 55.87L429.59 56.38L430.7 56.93L431.79 57.52L432.85 58.15L433.89 58.82L434.9 59.53L435.88 60.28L436.82 61.06L437.74 61.88L438.63 62.73L439.48 63.61L440.29 64.53L441.08 65.48L441.82 66.46L442.53 67.46L443.2 68.5L443.83 69.56L444.43 70.65L444.98 71.76L445.48 72.9L445.95 74.06L446.37 75.24L446.74 76.44L447.07 77.66L447.35 78.91L447.58 80.16L447.76 81.44L447.89 82.73L447.97 84.04L448 85.35L447.97 86.67L447.89 87.98L447.76 89.27L447.58 90.54L447.35 91.8L447.07 93.04L446.74 94.27L446.37 95.47L445.95 96.65L445.48 97.81L444.98 98.95L444.43 100.06L443.83 101.15L443.2 102.21L442.53 103.25L441.82 104.25L441.08 105.23L440.29 106.18L439.48 107.1L438.63 107.98L437.74 108.83L436.82 109.65L435.88 110.43L434.9 111.18L433.89 111.89L432.85 112.56L431.79 113.19L430.7 113.78L429.59 114.33L428.45 114.84L427.3 115.3L426.11 115.72L424.91 116.09L423.69 116.42L422.45 116.7L421.19 116.93L419.91 117.11L418.62 117.25L417.32 117.32L416 117.35L277.35 117.35L276.03 117.32L274.72 117.25L273.43 117.11L272.15 116.93L270.9 116.7L269.66 116.42L268.43 116.09L267.23 115.72L266.05 115.3L264.89 114.84L263.75 114.33L262.64 113.78L261.55 113.19L260.49 112.56L259.45 111.89L258.45 111.18L257.47 110.43L256.52 109.65L255.6 108.83L254.72 107.98L253.87 107.1L253.05 106.18L252.27 105.23L251.52 104.25L250.81 103.25L250.14 102.21L249.51 101.15L248.92 100.06L248.37 98.95L247.86 97.81L247.4 96.65L246.98 95.47L246.61 94.27L246.28 93.04L246 91.8L245.77 90.54L245.59 89.27L245.45 87.98L245.37 86.67L245.35 85.35L245.37 84.04L245.45 82.73L245.59 81.44L245.77 80.16L246 78.91L246.28 77.66L246.61 76.44L246.98 75.24L247.4 74.06L247.86 72.9L248.37 71.76L248.92 70.65L249.51 69.56L250.14 68.5L250.81 67.46L251.52 66.46L252.27 65.48L253.05 64.53L253.87 63.61L254.72 62.73L255.6 61.88L256.52 61.06L257.47 60.28L258.45 59.53L259.45 58.82L260.49 58.15L261.55 57.52L262.64 56.93L263.75 56.38L264.89 55.87L266.05 55.41L267.23 54.99L268.43 54.61L269.66 54.29L270.9 54.01L272.15 53.78L273.43 53.59L274.72 53.46L276.03 53.38L277.35 53.36L416 53.36L417.32 53.38L418.62 53.46ZM276.91 74.7L276.47 74.72L276.04 74.77L275.61 74.83L275.19 74.91L274.78 75L274.37 75.11L273.97 75.23L273.58 75.37L273.19 75.53L272.81 75.7L272.44 75.88L272.08 76.08L271.72 76.29L271.38 76.51L271.04 76.75L270.72 77L270.4 77.26L270.1 77.53L269.8 77.81L269.52 78.11L269.24 78.42L268.98 78.73L268.73 79.06L268.5 79.39L268.28 79.74L268.07 80.09L267.87 80.46L267.69 80.83L267.52 81.21L267.36 81.59L267.22 81.99L267.1 82.39L266.99 82.79L266.9 83.21L266.82 83.63L266.76 84.05L266.71 84.48L266.69 84.92L266.68 85.36L266.69 85.8L266.71 86.23L266.76 86.66L266.82 87.08L266.9 87.5L266.99 87.92L267.1 88.32L267.22 88.73L267.36 89.12L267.52 89.51L267.69 89.88L267.87 90.26L268.07 90.62L268.28 90.97L268.5 91.32L268.74 91.65L268.99 91.98L269.25 92.3L269.52 92.6L269.8 92.9L270.1 93.18L270.41 93.45L270.72 93.71L271.05 93.96L271.38 94.2L271.73 94.42L272.08 94.63L272.45 94.83L272.82 95.01L273.19 95.18L273.58 95.34L273.98 95.48L274.38 95.6L274.78 95.71L275.2 95.8L275.62 95.88L276.04 95.94L276.47 95.99L276.91 96.01L277.35 96.02L416 96.02L416.44 96.01L416.87 95.99L417.3 95.94L417.73 95.88L418.15 95.8L418.56 95.71L418.97 95.6L419.37 95.48L419.76 95.34L420.15 95.18L420.53 95.01L420.9 94.83L421.26 94.63L421.62 94.42L421.96 94.2L422.3 93.96L422.62 93.71L422.94 93.45L423.25 93.18L423.54 92.9L423.82 92.6L424.1 92.3L424.36 91.98L424.61 91.65L424.84 91.32L425.07 90.97L425.28 90.62L425.47 90.26L425.66 89.88L425.83 89.51L425.98 89.12L426.12 88.73L426.25 88.32L426.36 87.92L426.45 87.5L426.53 87.08L426.59 86.66L426.63 86.23L426.66 85.8L426.67 85.36L426.66 84.92L426.63 84.48L426.59 84.05L426.53 83.63L426.45 83.21L426.36 82.79L426.25 82.39L426.12 81.99L425.98 81.59L425.83 81.21L425.66 80.83L425.47 80.46L425.28 80.09L425.07 79.74L424.84 79.39L424.61 79.06L424.36 78.73L424.1 78.42L423.82 78.11L423.54 77.81L423.25 77.53L422.94 77.26L422.62 77L422.3 76.75L421.96 76.51L421.62 76.29L421.26 76.08L420.9 75.88L420.53 75.7L420.15 75.53L419.76 75.37L419.37 75.23L418.97 75.11L418.56 75L418.15 74.91L417.73 74.83L417.3 74.77L416.87 74.72L416.44 74.7L416 74.69L277.35 74.69L276.91 74.7Z" id="bave0I3FY"></path><path d="M544.8 0.06L545.2 0.1L545.59 0.15L545.98 0.21L546.37 0.3L546.75 0.39L547.12 0.5L547.49 0.62L547.86 0.75L548.21 0.9L548.56 1.06L548.91 1.23L549.25 1.41L549.58 1.61L549.9 1.81L550.21 2.03L550.52 2.26L550.82 2.5L551.1 2.75L551.38 3.01L551.65 3.28L551.92 3.56L552.17 3.84L552.41 4.14L552.64 4.45L552.86 4.76L553.06 5.09L553.26 5.42L553.45 5.76L553.62 6.1L553.78 6.46L553.93 6.82L554.06 7.19L554.19 7.56L554.29 7.94L554.39 8.33L554.47 8.72L554.54 9.12L554.59 9.52L617.71 577.65L618.7 577.98L619.67 578.34L620.63 578.73L621.57 579.15L622.49 579.6L623.39 580.07L624.28 580.57L625.14 581.1L625.99 581.65L626.81 582.23L627.62 582.83L628.4 583.46L629.16 584.11L629.9 584.78L630.62 585.48L631.32 586.19L631.99 586.93L632.64 587.69L633.26 588.46L633.86 589.26L634.44 590.07L634.99 590.9L635.51 591.75L636.01 592.62L636.48 593.5L636.92 594.39L637.33 595.3L637.72 596.23L638.08 597.17L638.41 598.12L638.71 599.08L638.98 600.05L639.21 601.04L639.42 602.03L639.6 603.04L639.74 604.05L639.86 605.08L639.94 606.11L639.99 607.14L640 608.19L639.97 609.5L639.88 610.8L639.75 612.09L639.56 613.36L639.33 614.61L639.04 615.85L638.71 617.07L638.34 618.27L637.91 619.44L637.45 620.6L636.94 621.73L636.38 622.84L635.79 623.92L635.16 624.97L634.49 626L633.78 627.01L633.03 627.98L632.24 628.92L631.43 629.83L630.57 630.71L629.69 631.56L628.77 632.37L627.82 633.15L626.84 633.89L625.84 634.59L624.8 635.25L623.74 635.88L622.65 636.46L621.54 637.01L620.41 637.51L619.25 637.97L618.07 638.38L616.87 638.75L615.65 639.07L614.41 639.35L613.16 639.57L611.88 639.75L610.6 639.87L609.3 639.95L607.98 639.97L181.35 639.97L180.38 639.95L179.41 639.9L178.44 639.82L177.49 639.72L176.54 639.58L175.6 639.42L174.66 639.23L173.74 639.01L172.82 638.76L171.92 638.49L171.02 638.19L170.13 637.87L169.26 637.52L168.4 637.15L167.55 636.75L166.71 636.33L165.89 635.88L165.08 635.41L164.28 634.92L163.5 634.4L162.74 633.86L161.99 633.3L161.25 632.72L160.54 632.12L159.84 631.49L159.16 630.85L158.5 630.18L157.85 629.49L157.23 628.79L156.63 628.06L156.04 627.31L155.48 626.55L154.94 625.77L154.42 624.97L153.93 624.15L153.46 623.32L153.01 622.47L152.58 621.6L152.18 620.71L151.81 619.81L151.35 618.58L150.94 617.34L150.58 616.09L150.28 614.84L150.03 613.58L149.83 612.33L149.68 611.07L149.58 609.81L149.53 608.56L149.54 607.31L149.59 606.07L149.69 604.83L149.83 603.6L150.03 602.38L150.27 601.17L150.55 599.97L150.88 598.79L151.26 597.62L151.68 596.46L152.14 595.33L152.65 594.21L153.2 593.11L153.79 592.03L154.42 590.98L155.1 589.94L155.81 588.94L156.56 587.96L157.36 587.01L158.19 586.08L159.06 585.19L159.96 584.33L160.9 583.51L161.88 582.71L162.9 581.96L163.95 581.24L165.03 580.56L166.15 579.92L167.3 579.32L168.48 578.76L169.69 578.25L167.07 554.64L32.03 554.64L30.97 554.63L29.92 554.58L28.88 554.5L27.84 554.39L26.81 554.24L25.79 554.05L24.78 553.84L23.79 553.6L22.8 553.32L21.83 553.01L20.86 552.67L19.92 552.31L18.98 551.91L18.06 551.48L17.16 551.03L16.27 550.55L15.39 550.04L14.54 549.5L13.7 548.94L12.88 548.35L12.08 547.73L11.3 547.09L10.54 546.43L9.8 545.74L9.08 545.03L8.38 544.29L7.71 543.54L7.06 542.76L6.43 541.95L5.83 541.13L5.26 540.29L4.71 539.42L4.19 538.54L3.69 537.63L3.22 536.71L2.78 535.77L2.37 534.81L1.99 533.83L1.64 532.84L1.33 531.83L0.98 530.56L0.68 529.29L0.44 528.02L0.25 526.75L0.12 525.49L0.03 524.22L0 522.96L0.02 521.7L0.08 520.46L0.19 519.22L0.36 517.99L0.57 516.77L0.82 515.56L1.12 514.37L1.47 513.19L1.86 512.02L2.3 510.87L2.78 509.75L3.3 508.64L3.86 507.55L4.46 506.49L5.11 505.44L5.79 504.43L6.51 503.44L7.28 502.47L8.07 501.54L8.91 500.63L9.78 499.76L10.69 498.92L11.63 498.11L12.61 497.33L13.62 496.6L14.66 495.9L15.73 495.24L16.84 494.62L17.98 494.04L19.14 493.5L20.34 493.01L21.56 492.57L22.82 492.16L25.37 477.79L27.98 463.11L30.63 448.17L33.32 432.98L36.05 417.59L38.8 402.03L41.58 386.33L44.38 370.53L47.18 354.66L49.99 338.75L52.8 322.83L55.6 306.95L58.38 291.13L61.15 275.41L63.89 259.82L66.6 244.39L69.28 229.16L71.9 214.16L74.49 199.43L77.01 184.99L79.47 170.88L81.87 157.14L84.19 143.79L86.44 130.88L88.6 118.43L90.66 106.48L92.63 95.07L94.5 84.21L96.26 73.96L97.9 64.34L99.43 55.38L100.82 47.12L102.08 39.6L103.21 32.84L104.19 26.88L105.01 21.76L105.68 17.49L106.19 14.13L106.53 11.71L106.69 10.25L106.92 10.25L106.92 10.06L106.93 9.88L106.94 9.7L106.95 9.52L106.97 9.34L106.99 9.15L107.01 8.97L107.04 8.79L107.07 8.62L107.1 8.44L107.13 8.26L107.17 8.08L107.21 7.91L107.26 7.73L107.3 7.56L107.35 7.38L107.41 7.21L107.46 7.04L107.52 6.87L107.58 6.7L107.65 6.53L107.72 6.36L107.79 6.19L107.86 6.03L107.94 5.87L108.02 5.7L108.1 5.54L108.18 5.38L108.27 5.22L108.36 5.07L108.45 4.91L108.55 4.76L108.65 4.6L108.75 4.45L108.85 4.3L108.96 4.15L109.07 4.01L109.18 3.86L109.3 3.72L109.41 3.58L109.57 3.41L109.72 3.25L109.88 3.09L110.05 2.93L110.21 2.78L110.38 2.63L110.55 2.48L110.73 2.34L110.9 2.2L111.08 2.07L111.27 1.94L111.45 1.82L111.64 1.69L111.83 1.58L112.02 1.46L112.21 1.35L112.41 1.25L112.61 1.15L112.81 1.05L113.01 0.96L113.21 0.87L113.42 0.78L113.63 0.7L113.84 0.63L114.05 0.56L114.26 0.49L114.47 0.43L114.69 0.37L114.91 0.31L115.12 0.27L115.34 0.22L115.56 0.18L115.79 0.15L116.01 0.11L116.23 0.09L116.46 0.07L116.68 0.05L116.91 0.04L117.13 0.03L117.36 0.03L543.99 0.03L544.39 0.04L544.8 0.06ZM180.91 597.32L180.48 597.34L180.05 597.39L179.62 597.45L179.2 597.52L178.79 597.62L178.38 597.73L177.98 597.85L177.59 597.99L177.2 598.15L176.82 598.31L176.45 598.5L176.09 598.69L175.74 598.91L175.39 599.13L175.06 599.37L174.73 599.61L174.41 599.88L174.11 600.15L173.81 600.43L173.53 600.73L173.26 601.03L173 601.35L172.75 601.67L172.51 602.01L172.29 602.36L172.08 602.71L171.88 603.07L171.7 603.44L171.53 603.82L171.37 604.21L171.23 604.6L171.11 605L171 605.41L170.9 605.82L170.83 606.24L170.77 606.67L170.72 607.1L170.7 607.53L170.69 607.97L170.7 608.41L170.72 608.85L170.77 609.28L170.83 609.7L170.9 610.12L171 610.53L171.11 610.94L171.23 611.34L171.37 611.74L171.53 612.12L171.7 612.5L171.88 612.87L172.08 613.24L172.29 613.59L172.51 613.93L172.75 614.27L173 614.6L173.26 614.91L173.53 615.22L173.81 615.51L174.11 615.8L174.41 616.07L174.73 616.33L175.06 616.58L175.39 616.82L175.74 617.04L176.09 617.25L176.45 617.45L176.82 617.63L177.2 617.8L177.59 617.95L177.98 618.09L178.38 618.22L178.79 618.33L179.2 618.42L179.62 618.5L180.05 618.56L180.48 618.6L180.91 618.63L181.35 618.64L607.98 618.64L608.42 618.63L608.86 618.6L609.29 618.56L609.71 618.5L610.13 618.42L610.54 618.33L610.95 618.22L611.35 618.09L611.75 617.95L612.13 617.8L612.51 617.63L612.88 617.45L613.24 617.25L613.6 617.04L613.94 616.82L614.28 616.58L614.61 616.33L614.92 616.07L615.23 615.8L615.52 615.51L615.81 615.22L616.08 614.91L616.34 614.6L616.59 614.27L616.83 613.93L617.05 613.59L617.26 613.24L617.46 612.87L617.64 612.5L617.81 612.12L617.96 611.74L618.1 611.34L618.23 610.94L618.34 610.53L618.43 610.12L618.51 609.7L618.57 609.28L618.61 608.85L618.64 608.41L618.65 607.97L618.64 607.53L618.61 607.1L618.57 606.67L618.51 606.24L618.43 605.82L618.34 605.41L618.23 605L618.1 604.6L617.96 604.21L617.81 603.82L617.64 603.44L617.46 603.07L617.26 602.71L617.05 602.36L616.83 602.01L616.59 601.67L616.34 601.35L616.08 601.03L615.81 600.73L615.52 600.43L615.23 600.15L614.92 599.88L614.61 599.61L614.28 599.37L613.94 599.13L613.6 598.91L613.24 598.69L612.88 598.5L612.51 598.31L612.13 598.15L611.75 597.99L611.35 597.85L610.95 597.73L610.54 597.62L610.13 597.52L609.71 597.45L609.29 597.39L608.86 597.34L608.42 597.32L607.98 597.31L181.35 597.31L180.91 597.32ZM186.15 533.31L224.02 533.31L224.02 554.65L188.59 554.65L190.95 575.98L596.07 575.98L593.7 554.65L554.65 554.65L554.65 533.31L591.33 533.31L534.44 21.36L129.27 21.36L186.15 533.31ZM31.59 511.99L31.16 512.02L30.73 512.06L30.3 512.12L29.88 512.2L29.47 512.29L29.06 512.4L28.66 512.53L28.27 512.66L27.88 512.82L27.5 512.99L27.13 513.17L26.77 513.37L26.42 513.58L26.07 513.8L25.74 514.04L25.41 514.29L25.09 514.55L24.79 514.82L24.49 515.11L24.21 515.4L23.94 515.71L23.68 516.02L23.43 516.35L23.19 516.69L22.97 517.03L22.76 517.38L22.56 517.75L22.38 518.12L22.21 518.5L22.05 518.88L21.91 519.28L21.79 519.68L21.68 520.09L21.58 520.5L21.51 520.92L21.45 521.34L21.4 521.77L21.38 522.21L21.37 522.65L21.37 522.94L21.39 523.23L21.43 523.52L21.47 523.81L21.53 524.1L21.61 524.39L21.69 524.67L21.79 524.96L21.91 525.24L22.03 525.52L22.17 525.8L22.33 526.08L22.49 526.36L22.67 526.63L22.87 526.91L23.07 527.18L23.29 527.45L23.53 527.72L23.77 527.99L24.03 528.26L24.31 528.52L24.59 528.79L24.89 529.05L25.21 529.31L25.53 529.57L25.87 529.83L26.23 530.09L26.59 530.35L26.97 530.6L27.37 530.85L27.77 531.11L28.19 531.36L28.63 531.61L29.07 531.85L29.53 532.1L30.01 532.35L30.49 532.59L30.99 532.83L31.51 533.07L32.03 533.31L164.7 533.31L162.33 511.98L32.03 511.98L31.59 511.99ZM112.35 106.35L110.77 115.5L109.14 124.92L107.46 134.6L105.74 144.52L103.98 154.67L102.18 165.02L100.34 175.55L98.47 186.24L96.58 197.09L94.66 208.06L92.72 219.14L90.76 230.31L88.79 241.55L86.8 252.84L84.81 264.17L82.82 275.51L80.82 286.84L78.83 298.16L76.84 309.43L74.87 320.64L72.9 331.77L70.95 342.81L69.02 353.73L67.12 364.51L65.24 375.13L63.39 385.59L61.57 395.85L59.79 405.9L58.05 415.72L56.36 425.29L54.71 434.59L53.11 443.61L51.56 452.32L50.07 460.71L48.65 468.76L47.28 476.44L45.99 483.75L44.76 490.65L159.96 490.65L115.33 88.97L113.87 97.5L112.35 106.35Z" id="f1qWYyVrpO"></path><path d="M310.49 301.62C350.45 286.65 372.64 278.33 377.08 276.67C381.25 275.11 384 271.12 384 266.67C384 262.41 384 241.07 384 202.68L362.67 202.68L362.67 259.28C315.63 276.92 289.49 286.72 284.27 288.68C282.19 289.49 280.42 290.93 279.2 292.79C279.2 292.79 279.18 292.79 279.14 292.79C253.54 331.19 239.32 352.52 236.48 356.79C234.47 359.78 234.13 363.59 235.55 366.91C237.68 371.89 248.35 396.77 267.55 441.57L287.15 433.16L257.42 363.84L290.78 313.81L426.67 410.82L426.67 490.65L448 490.65C448 439.46 448 411.01 448 405.33C448 401.88 446.33 398.66 443.53 396.65C441.31 395.07 430.2 387.14 410.22 372.86L451.1 331.98L519.72 351.59L525.59 331.07C480.8 318.27 455.91 311.16 450.93 309.74C447.21 308.67 443.2 309.72 440.46 312.46C437.27 315.65 421.32 331.59 392.62 360.28L310.49 301.62Z" id="a28fsuhwzz"></path><path d="M258.64 224.11L259.93 224.25L261.2 224.43L262.46 224.66L263.7 224.94L264.93 225.27L266.13 225.64L267.31 226.06L268.47 226.52L269.61 227.03L270.72 227.58L271.81 228.17L272.87 228.8L273.91 229.47L274.91 230.18L275.89 230.93L276.84 231.71L277.76 232.53L278.64 233.38L279.49 234.26L280.31 235.18L281.09 236.13L281.84 237.11L282.55 238.11L283.22 239.15L283.85 240.21L284.44 241.3L284.99 242.41L285.5 243.55L285.96 244.71L286.38 245.89L286.75 247.09L287.08 248.32L287.36 249.56L287.59 250.81L287.77 252.09L287.91 253.38L287.98 254.69L288.01 256.01L287.98 257.32L287.91 258.63L287.77 259.92L287.59 261.2L287.36 262.45L287.08 263.7L286.75 264.92L286.38 266.12L285.96 267.3L285.5 268.46L284.99 269.6L284.44 270.71L283.85 271.8L283.22 272.86L282.55 273.9L281.84 274.9L281.09 275.88L280.31 276.83L279.49 277.75L278.64 278.63L277.76 279.48L276.84 280.3L275.89 281.08L274.91 281.83L273.91 282.54L272.87 283.21L271.81 283.84L270.72 284.43L269.61 284.98L268.47 285.49L267.31 285.95L266.13 286.37L264.93 286.75L263.7 287.07L262.46 287.35L261.2 287.58L259.93 287.77L258.64 287.9L257.33 287.98L256.01 288L254.7 287.98L253.39 287.9L252.1 287.77L250.82 287.58L249.57 287.35L248.32 287.07L247.1 286.75L245.9 286.37L244.72 285.95L243.56 285.49L242.42 284.98L241.31 284.43L240.22 283.84L239.16 283.21L238.12 282.54L237.12 281.83L236.14 281.08L235.19 280.3L234.27 279.48L233.39 278.63L232.54 277.75L231.72 276.83L230.94 275.88L230.19 274.9L229.48 273.9L228.81 272.86L228.18 271.8L227.59 270.71L227.04 269.6L226.53 268.46L226.07 267.3L225.65 266.12L225.27 264.92L224.95 263.7L224.67 262.45L224.44 261.2L224.25 259.92L224.12 258.63L224.04 257.32L224.02 256.01L224.04 254.69L224.12 253.38L224.25 252.09L224.44 250.81L224.67 249.56L224.95 248.32L225.27 247.09L225.65 245.89L226.07 244.71L226.53 243.55L227.04 242.41L227.59 241.3L228.18 240.21L228.81 239.15L229.48 238.11L230.19 237.11L230.94 236.13L231.72 235.18L232.54 234.26L233.39 233.38L234.27 232.53L235.19 231.71L236.14 230.93L237.12 230.18L238.12 229.47L239.16 228.8L240.22 228.17L241.31 227.58L242.42 227.03L243.56 226.52L244.72 226.06L245.9 225.64L247.1 225.27L248.32 224.94L249.57 224.66L250.82 224.43L252.1 224.25L253.39 224.11L254.7 224.03L256.01 224.01L257.33 224.03L258.64 224.11ZM253.39 245.67L252.16 246.06L251 246.59L249.92 247.25L248.93 248.03L248.04 248.92L247.26 249.91L246.6 250.99L246.07 252.15L245.67 253.38L245.43 254.67L245.35 256.01L245.43 257.34L245.67 258.63L246.07 259.86L246.6 261.02L247.26 262.1L248.04 263.09L248.93 263.98L249.92 264.76L251 265.42L252.16 265.95L253.39 266.35L254.68 266.59L256.01 266.67L257.35 266.59L258.64 266.35L259.87 265.95L261.03 265.42L262.11 264.76L263.1 263.98L263.99 263.09L264.77 262.1L265.43 261.02L265.96 259.86L266.35 258.63L266.6 257.34L266.68 256.01L266.6 254.67L266.35 253.38L265.96 252.15L265.43 250.99L264.77 249.91L263.99 248.92L263.1 248.03L262.11 247.25L261.03 246.59L259.87 246.06L258.64 245.67L257.35 245.42L256.01 245.34L254.67 245.42L253.39 245.67Z" id="a2iY66iDj5"></path><path d="M266.64 533.28C266.64 533.28 266.64 533.28 266.64 533.28C266.64 546.08 266.64 553.19 266.64 554.61C266.64 554.61 266.64 554.61 266.64 554.61C253.84 554.61 246.73 554.61 245.31 554.61C245.31 554.61 245.31 554.61 245.31 554.61C245.31 541.81 245.31 534.7 245.31 533.28C245.31 533.28 245.31 533.28 245.31 533.28C258.1 533.28 265.21 533.28 266.64 533.28Z" id="a1UWWniev"></path><path d="M533.28 533.28C533.28 533.28 533.28 533.28 533.28 533.28C533.28 546.08 533.28 553.19 533.28 554.61C533.28 554.61 533.28 554.61 533.28 554.61C520.48 554.61 513.37 554.61 511.95 554.61C511.95 554.61 511.95 554.61 511.95 554.61C511.95 541.81 511.95 534.7 511.95 533.28C511.95 533.28 511.95 533.28 511.95 533.28C524.75 533.28 531.86 533.28 533.28 533.28Z" id="c5oMeQmZC"></path></defs><g><g><g><use xlink:href="#aPuLnSxxr" opacity="1" fill="#d45e93" fill-opacity="1"></use><g><use xlink:href="#aPuLnSxxr" opacity="1" fill-opacity="0" stroke="#000000" stroke-width="1" stroke-opacity="0"></use></g></g><g><use xlink:href="#aeiMNFIDM" opacity="1" fill="#f37eb3" fill-opacity="1"></use><g><use xlink:href="#aeiMNFIDM" opacity="1" fill-opacity="0" stroke="#000000" stroke-width="1" stroke-opacity="0"></use></g></g><g><use xlink:href="#f2qMvCDEm7" opacity="1" fill="#f37eb3" fill-opacity="1"></use><g><use xlink:href="#f2qMvCDEm7" opacity="1" fill-opacity="0" stroke="#000000" stroke-width="1" stroke-opacity="0"></use></g></g><g><use xlink:href="#a2LkZdPlac" opacity="1" fill="#d45e93" fill-opacity="1"></use><g><use xlink:href="#a2LkZdPlac" opacity="1" fill-opacity="0" stroke="#000000" stroke-width="1" stroke-opacity="0"></use></g></g><g><use xlink:href="#a19LUsuwoW" opacity="1" fill="#d45e93" fill-opacity="1"></use><g><use xlink:href="#a19LUsuwoW" opacity="1" fill-opacity="0" stroke="#000000" stroke-width="1" stroke-opacity="0"></use></g></g><g><use xlink:href="#a2jHvgNGm4" opacity="1" fill="#ffffff" fill-opacity="1"></use><g><use xlink:href="#a2jHvgNGm4" opacity="1" fill-opacity="0" stroke="#000000" stroke-width="1" stroke-opacity="0"></use></g></g><g><use xlink:href="#bave0I3FY" opacity="1" fill="#000000" fill-opacity="1"></use><g><use xlink:href="#bave0I3FY" opacity="1" fill-opacity="0" stroke="#000000" stroke-width="1" stroke-opacity="0"></use></g></g><g><use xlink:href="#f1qWYyVrpO" opacity="1" fill="#000000" fill-opacity="1"></use><g><use xlink:href="#f1qWYyVrpO" opacity="1" fill-opacity="0" stroke="#000000" stroke-width="1" stroke-opacity="0"></use></g></g><g><use xlink:href="#a28fsuhwzz" opacity="1" fill="#000000" fill-opacity="1"></use><g><use xlink:href="#a28fsuhwzz" opacity="1" fill-opacity="0" stroke="#000000" stroke-width="1" stroke-opacity="0"></use></g></g><g><use xlink:href="#a2iY66iDj5" opacity="1" fill="#000000" fill-opacity="1"></use><g><use xlink:href="#a2iY66iDj5" opacity="1" fill-opacity="0" stroke="#000000" stroke-width="1" stroke-opacity="0"></use></g></g><g><use xlink:href="#a1UWWniev" opacity="1" fill="#000000" fill-opacity="1"></use><g><use xlink:href="#a1UWWniev" opacity="1" fill-opacity="0" stroke="#000000" stroke-width="1" stroke-opacity="0"></use></g></g><g><use xlink:href="#c5oMeQmZC" opacity="1" fill="#000000" fill-opacity="1"></use><g><use xlink:href="#c5oMeQmZC" opacity="1" fill-opacity="0" stroke="#000000" stroke-width="1" stroke-opacity="0"></use></g></g></g></g></svg>