<?xml version="1.0" encoding="UTF-8"?>
<!DOCTYPE svg  PUBLIC '-//W3C//DTD SVG 1.1//EN'  'http://www.w3.org/Graphics/SVG/1.1/DTD/svg11.dtd'>
<svg width="585.83" height="710.55" version="1.1" viewBox="0 0 585.827 710.551" xmlns="http://www.w3.org/2000/svg" xmlns:xlink="http://www.w3.org/1999/xlink">
<defs>
<path id="x" d="m410.33 26.78c-64.97-14.35-130.69 20.92-154.64 82.99-32.23-42.24-92.6-50.35-134.84-18.12-29.28 22.34-43.24 59.44-35.95 95.53h-6.73c-34.54 0-62.54 28-62.54 62.54s28 62.54 62.54 62.54h432.94c34.53-0.69 61.97-29.23 61.28-63.76-0.64-32.95-26.75-59.75-59.67-61.24 16.04-72.59-29.8-144.44-102.39-160.48z"/>
<path id="bc" d="m400.47 379.6h-48.1v-144.31h-115.46v144.31h-48.1l105.83 86.59 105.83-86.59z"/>
<path id="cl" d="m231.14 414.24l63.5 51.95 105.83-86.59h-48.1v-86.58l-121.23 121.22z"/>
<path id="cy" d="m381.23 254.53v57.73h-28.86v-57.73h28.86z"/>
<path id="a" d="m401.82 15.46c-60.89-8.75-120.65 22.07-148.79 76.78-19.69-19.38-46.22-30.21-73.84-30.13-58.42 0.07-105.76 47.42-105.83 105.83 0 3.26 0.15 6.52 0.45 9.76-39.77 2.43-70.05 36.66-67.62 76.43 2.33 38.05 33.86 67.72 71.98 67.75h110.64v-19.24h-110.64c-29.23 0-52.92-23.69-52.92-52.92s23.69-52.91 52.92-52.91h6.73c5.31 0 9.62-4.31 9.62-9.62 0-0.65-0.06-1.29-0.19-1.93-9.56-46.85 20.67-92.59 67.52-102.15 5.71-1.17 11.52-1.75 17.34-1.75 27.06-0.06 52.57 12.63 68.85 34.25 3.21 4.23 9.25 5.05 13.47 1.84 1.43-1.08 2.52-2.53 3.16-4.2 24.85-64.41 97.22-96.48 161.62-71.63 48.24 18.61 80.04 65 80.01 116.71-0.02 9.06-1.02 18.08-2.97 26.93-1.14 5.2 2.15 10.32 7.35 11.45 0.59 0.14 1.2 0.2 1.81 0.22 29.17 1.76 51.4 26.82 49.65 55.99-1.64 27.25-23.75 48.8-51.03 49.72h-110.64v19.24h110.64c39.85-0.1 72.08-32.48 71.98-72.33-0.08-34.73-24.89-64.47-59.04-70.78 11.34-78.85-43.38-151.96-122.23-163.31z"/>
<path id="db" d="m353.16 225.7l0.38 0.04 0.39 0.05 0.38 0.07 0.37 0.09 0.37 0.1 0.36 0.11 0.35 0.12 0.35 0.14 0.35 0.16 0.33 0.16 0.33 0.18 0.32 0.19 0.31 0.2 0.3 0.21 0.29 0.23 0.29 0.23 0.28 0.25 0.26 0.25 0.26 0.27 0.24 0.28 0.24 0.28 0.22 0.29 0.22 0.31 0.2 0.31 0.19 0.32 0.17 0.33 0.17 0.33 0.15 0.34 0.14 0.35 0.13 0.36 0.11 0.36 0.1 0.37 0.08 0.37 0.07 0.38 0.06 0.38 0.03 0.39 0.03 0.39 0.01 0.4v134.69h38.48 0.22l0.21 0.01 0.22 0.01 0.21 0.02 0.21 0.02 0.22 0.03 0.21 0.03 0.21 0.04 0.21 0.04 0.2 0.04 0.21 0.05 0.21 0.05 0.2 0.06 0.2 0.06 0.2 0.07 0.2 0.07 0.2 0.08 0.2 0.08 0.19 0.08 0.19 0.09 0.19 0.09 0.19 0.1 0.18 0.1 0.19 0.11 0.18 0.11 0.18 0.11 0.17 0.12 0.18 0.12 0.17 0.12 0.17 0.13 0.16 0.13 0.17 0.14 0.16 0.14 0.16 0.14 0.15 0.15 0.15 0.15 0.15 0.16 0.15 0.16 0.14 0.16 0.14 0.16 0.24 0.32 0.23 0.31 0.22 0.33 0.2 0.33 0.18 0.34 0.18 0.34 0.15 0.34 0.14 0.36 0.13 0.35 0.11 0.36 0.1 0.36 0.09 0.36 0.07 0.37 0.05 0.37 0.04 0.36 0.03 0.37 0.01 0.37v0.37l-0.02 0.37-0.03 0.37-0.04 0.37-0.06 0.36-0.07 0.36-0.09 0.36-0.1 0.36-0.11 0.35-0.13 0.35-0.14 0.35-0.15 0.34-0.17 0.33-0.18 0.33-0.2 0.32-0.21 0.32-0.22 0.31-0.23 0.3-0.25 0.29-0.26 0.29-0.28 0.28-0.29 0.26-0.3 0.26-105.83 86.59-0.27 0.21-0.27 0.2-0.28 0.19-0.29 0.18-0.28 0.17-0.3 0.16-0.29 0.14-0.31 0.14-0.3 0.12-0.31 0.12-0.31 0.1-0.31 0.09-0.32 0.08-0.32 0.07-0.32 0.06-0.32 0.05-0.32 0.04-0.32 0.03-0.33 0.01-0.32 0.01-0.32-0.01-0.33-0.01-0.32-0.03-0.32-0.04-0.32-0.05-0.32-0.06-0.32-0.07-0.32-0.08-0.31-0.09-0.31-0.1-0.31-0.12-0.3-0.12-0.3-0.14-0.3-0.14-0.29-0.16-0.29-0.17-0.29-0.18-0.28-0.19-0.27-0.2-0.27-0.21-105.83-86.59-0.17-0.14-0.16-0.14-0.16-0.15-0.15-0.15-0.15-0.15-0.15-0.15-0.14-0.16-0.14-0.16-0.14-0.16-0.13-0.17-0.13-0.17-0.13-0.17-0.12-0.17-0.12-0.18-0.11-0.18-0.11-0.18-0.1-0.18-0.1-0.19-0.1-0.19-0.09-0.19-0.09-0.19-0.09-0.19-0.08-0.2-0.07-0.2-0.07-0.19-0.07-0.21-0.06-0.2-0.06-0.2-0.05-0.21-0.05-0.2-0.05-0.21-0.04-0.21-0.03-0.21-0.03-0.21-0.03-0.21-0.02-0.22-0.02-0.21-0.01-0.22-0.01-0.21v-0.22l0.01-0.39 0.02-0.4 0.04-0.38 0.05-0.39 0.07-0.38 0.09-0.37 0.1-0.37 0.11-0.36 0.13-0.35 0.14-0.35 0.15-0.34 0.16-0.34 0.18-0.32 0.19-0.32 0.2-0.31 0.22-0.31 0.22-0.29 0.24-0.29 0.24-0.27 0.26-0.27 0.26-0.25 0.28-0.25 0.28-0.24 0.3-0.22 0.3-0.21 0.31-0.21 0.32-0.19 0.33-0.17 0.33-0.17 0.35-0.15 0.34-0.14 0.36-0.13 0.36-0.11 0.37-0.1 0.37-0.08 0.38-0.07 0.38-0.06 0.39-0.04 0.39-0.02 0.4-0.01h38.48v-134.69l0.01-0.4 0.03-0.39 0.03-0.39 0.06-0.38 0.07-0.38 0.08-0.37 0.1-0.37 0.11-0.36 0.13-0.36 0.14-0.34 0.15-0.35 0.17-0.33 0.18-0.33 0.19-0.32 0.2-0.31 0.21-0.3 0.22-0.3 0.24-0.28 0.25-0.28 0.25-0.26 0.27-0.26 0.27-0.24 0.29-0.24 0.29-0.22 0.31-0.22 0.31-0.2 0.32-0.19 0.32-0.18 0.34-0.16 0.34-0.15 0.35-0.14 0.35-0.13 0.37-0.11 0.36-0.1 0.38-0.09 0.37-0.07 0.39-0.05 0.39-0.04 0.39-0.02 0.39-0.01h115.46l0.39 0.01 0.4 0.02zm-106.63 153.9v0.4l-0.03 0.39-0.04 0.39-0.05 0.38-0.07 0.38-0.09 0.38-0.09 0.36-0.12 0.36-0.12 0.36-0.14 0.35-0.15 0.34-0.17 0.33-0.18 0.33-0.19 0.32-0.2 0.31-0.21 0.31-0.23 0.29-0.23 0.28-0.25 0.28-0.25 0.27-0.27 0.25-0.28 0.25-0.28 0.23-0.3 0.23-0.3 0.21-0.31 0.2-0.32 0.19-0.33 0.18-0.33 0.17-0.34 0.15-0.35 0.14-0.36 0.12-0.36 0.12-0.36 0.1-0.38 0.08-0.38 0.07-0.38 0.05-0.39 0.04-0.39 0.03-0.4 0.01h-21.16l78.89 64.53 78.89-64.54h-21.17-0.39l-0.39-0.03-0.39-0.04-0.39-0.05-0.37-0.07-0.38-0.09-0.36-0.09-0.37-0.12-0.35-0.12-0.35-0.14-0.34-0.15-0.34-0.17-0.32-0.18-0.32-0.19-0.31-0.2-0.31-0.21-0.29-0.23-0.29-0.23-0.27-0.25-0.27-0.25-0.25-0.27-0.25-0.28-0.24-0.28-0.22-0.3-0.21-0.3-0.2-0.31-0.19-0.32-0.18-0.33-0.17-0.33-0.15-0.34-0.14-0.35-0.13-0.36-0.11-0.36-0.1-0.36-0.08-0.38-0.07-0.38-0.06-0.38-0.03-0.39-0.03-0.39-0.01-0.4v-134.69h-96.21v134.69z"/>
<path id="am" d="m331.9 526.35l-9.84 0.72-13.04 1.9-13.12 5.94-8.87 5.79-8.93 6.67-6.02 6.85-4.58 6.54c-2.05 3.55-3.18 5.51-3.41 5.91-2.64 5.5-4.11 8.55-4.4 9.16-0.36 1.67-0.56 2.6-0.6 2.79 6.98-16.3 23.16-27.71 42-27.71 9.54 0 18.39 2.93 25.73 7.93 0.78 0.65 1.61 1.26 2.46 1.8 0.18 0.15 0.37 0.28 0.56 0.43 0 0 0.02-0.04 0.02-0.05 3.29 2.04 7.01 3.42 11.01 3.96 1.2 0.16 2.44 0.24 3.72 0.24 8.58 0 16.26-3.88 21.37-9.97 3.51-4.2 5.84-9.44 6.39-15.22-0.17-0.24-1.05-1.44-2.61-3.62-0.51-0.31-3.07-1.9-7.69-4.76-0.94-0.26-5.64-1.54-14.11-3.85l-16.04-1.45z"/>
<path id="cj" d="m331.9 526.35l-9.84 0.72-13.04 1.9-13.12 5.94-8.87 5.79-8.93 6.67-6.02 6.85-4.58 6.54c-2.05 3.55-3.18 5.51-3.41 5.91-2.64 5.5-4.11 8.55-4.4 9.16-0.36 1.67-0.56 2.6-0.6 2.79 6.98-16.3 23.16-27.71 42-27.71 9.54 0 18.39 2.93 25.73 7.93 0.78 0.65 1.61 1.26 2.46 1.8 0.18 0.15 0.37 0.28 0.56 0.43 0 0 0.02-0.04 0.02-0.05 3.29 2.04 7.01 3.42 11.01 3.96 1.2 0.16 2.44 0.24 3.72 0.24 8.58 0 16.26-3.88 21.37-9.97 3.51-4.2 5.84-9.44 6.39-15.22-0.17-0.24-1.05-1.44-2.61-3.62-0.51-0.31-3.07-1.9-7.69-4.76-0.94-0.26-5.64-1.54-14.11-3.85l-16.04-1.45z"/>
<path id="bw" d="m331.9 526.35l-9.84 0.72-13.04 1.9-13.12 5.94-8.87 5.79-8.93 6.67-6.02 6.85-4.58 6.54c-2.05 3.55-3.18 5.51-3.41 5.91-2.64 5.5-4.11 8.55-4.4 9.16-0.36 1.67-0.56 2.6-0.6 2.79 6.98-16.3 23.16-27.71 42-27.71 9.54 0 18.39 2.93 25.73 7.93 0.78 0.65 1.61 1.26 2.46 1.8 0.18 0.15 0.37 0.28 0.56 0.43 0 0 0.02-0.04 0.02-0.05 3.29 2.04 7.01 3.42 11.01 3.96 1.2 0.16 2.44 0.24 3.72 0.24 8.58 0 16.26-3.88 21.37-9.97 3.51-4.2 5.84-9.44 6.39-15.22-0.17-0.24-1.05-1.44-2.61-3.62-0.51-0.31-3.07-1.9-7.69-4.76-0.94-0.26-5.64-1.54-14.11-3.85l-16.04-1.45z"/>
<path id="v" d="m331.9 526.35l-9.84 0.72-13.04 1.9-13.12 5.94-8.87 5.79-8.93 6.67-6.02 6.85-4.58 6.54c-2.05 3.55-3.18 5.51-3.41 5.91-2.64 5.5-4.11 8.55-4.4 9.16-0.36 1.67-0.56 2.6-0.6 2.79 6.98-16.3 23.16-27.71 42-27.71 9.54 0 18.39 2.93 25.73 7.93 0.78 0.65 1.61 1.26 2.46 1.8 0.18 0.15 0.37 0.28 0.56 0.43 0 0 0.02-0.04 0.02-0.05 3.29 2.04 7.01 3.42 11.01 3.96 1.2 0.16 2.44 0.24 3.72 0.24 8.58 0 16.26-3.88 21.37-9.97 3.51-4.2 5.84-9.44 6.39-15.22-0.17-0.24-1.05-1.44-2.61-3.62-0.51-0.31-3.07-1.9-7.69-4.76-0.94-0.26-5.64-1.54-14.11-3.85l-16.04-1.45z"/>
<path id="cn" d="m303.95 497.83c-0.49 0.21-2.97 1.26-7.42 3.16l-15.19 6.03-11.62 9.76-6.72 6.1-5.64 8.68-5.64 9.08-4.36 12.58-1.73 9.03-0.64 5.57v10.47l0.64 7.18 2.54 11.49 3.61 9.21 2.77 5.57 3.55 5.06 3.06 4.13c1.96 2.07 3.04 3.22 3.26 3.45 0.61 0.49 0.94 0.77 1.01 0.82 0.12 0.06 0.19 0.09 0.2 0.09-6.38-7.84-10.2-17.86-10.2-28.74 0-1.25 0.05-2.46 0.14-3.67 0.4-5.04 1.62-9.83 3.52-14.26 8.98-25.42 31.04-44.66 58.13-49.59 4.45-0.81 9.03-1.23 13.71-1.23 9.84 0 19.23 1.87 27.85 5.26 4.77 1.87 9.32 4.22 13.57 6.97 0.08-0.87 0.14-1.78 0.14-2.68 0-8.86-4.04-16.89-10.48-22.01-15.7-9.49-28.12-15.33-37.26-17.51-0.28-0.04-1.73-0.22-4.3-0.53-1.1 0.04-6.6 0.21-16.5 0.53z"/>
<path id="ai" d="m303.95 497.83c-0.49 0.21-2.97 1.26-7.42 3.16l-15.19 6.03-11.62 9.76-6.72 6.1-5.64 8.68-5.64 9.08-4.36 12.58-1.73 9.03-0.64 5.57v10.47l0.64 7.18 2.54 11.49 3.61 9.21 2.77 5.57 3.55 5.06 3.06 4.13c1.96 2.07 3.04 3.22 3.26 3.45 0.61 0.49 0.94 0.77 1.01 0.82 0.12 0.06 0.19 0.09 0.2 0.09-6.38-7.84-10.2-17.86-10.2-28.74 0-1.25 0.05-2.46 0.14-3.67 0.4-5.04 1.62-9.83 3.52-14.26 8.98-25.42 31.04-44.66 58.13-49.59 4.45-0.81 9.03-1.23 13.71-1.23 9.84 0 19.23 1.87 27.85 5.26 4.77 1.87 9.32 4.22 13.57 6.97 0.08-0.87 0.14-1.78 0.14-2.68 0-8.86-4.04-16.89-10.48-22.01-15.7-9.49-28.12-15.33-37.26-17.51-0.28-0.04-1.73-0.22-4.3-0.53-1.1 0.04-6.6 0.21-16.5 0.53z"/>
<path id="bs" d="m303.95 497.83c-0.49 0.21-2.97 1.26-7.42 3.16l-15.19 6.03-11.62 9.76-6.72 6.1-5.64 8.68-5.64 9.08-4.36 12.58-1.73 9.03-0.64 5.57v10.47l0.64 7.18 2.54 11.49 3.61 9.21 2.77 5.57 3.55 5.06 3.06 4.13c1.96 2.07 3.04 3.22 3.26 3.45 0.61 0.49 0.94 0.77 1.01 0.82 0.12 0.06 0.19 0.09 0.2 0.09-6.38-7.84-10.2-17.86-10.2-28.74 0-1.25 0.05-2.46 0.14-3.67 0.4-5.04 1.62-9.83 3.52-14.26 8.98-25.42 31.04-44.66 58.13-49.59 4.45-0.81 9.03-1.23 13.71-1.23 9.84 0 19.23 1.87 27.85 5.26 4.77 1.87 9.32 4.22 13.57 6.97 0.08-0.87 0.14-1.78 0.14-2.68 0-8.86-4.04-16.89-10.48-22.01-15.7-9.49-28.12-15.33-37.26-17.51-0.28-0.04-1.73-0.22-4.3-0.53-1.1 0.04-6.6 0.21-16.5 0.53z"/>
<path id="ch" d="m303.95 497.83c-0.49 0.21-2.97 1.26-7.42 3.16l-15.19 6.03-11.62 9.76-6.72 6.1-5.64 8.68-5.64 9.08-4.36 12.58-1.73 9.03-0.64 5.57v10.47l0.64 7.18 2.54 11.49 3.61 9.21 2.77 5.57 3.55 5.06 3.06 4.13c1.96 2.07 3.04 3.22 3.26 3.45 0.61 0.49 0.94 0.77 1.01 0.82 0.12 0.06 0.19 0.09 0.2 0.09-6.38-7.84-10.2-17.86-10.2-28.74 0-1.25 0.05-2.46 0.14-3.67 0.4-5.04 1.62-9.83 3.52-14.26 8.98-25.42 31.04-44.66 58.13-49.59 4.45-0.81 9.03-1.23 13.71-1.23 9.84 0 19.23 1.87 27.85 5.26 4.77 1.87 9.32 4.22 13.57 6.97 0.08-0.87 0.14-1.78 0.14-2.68 0-8.86-4.04-16.89-10.48-22.01-15.7-9.49-28.12-15.33-37.26-17.51-0.28-0.04-1.73-0.22-4.3-0.53-1.1 0.04-6.6 0.21-16.5 0.53z"/>
<path id="ao" d="m319.2 496.65c-5.87-1.05-11.9-1.6-18.05-1.6-23.94 0-45.94 8.28-63.3 22.13-4.99 3.97-9.58 8.4-13.75 13.23-0.04 0.05-0.21 0.31-0.52 0.77-0.09 0.15-0.53 0.9-1.32 2.24-0.1 0.18-0.59 1.08-1.46 2.7l-3.27 8.23-2.08 7.11-1.36 10.52v10.58l1.55 12.84 4.77 13.83 7.75 12.44 9.11 10.87 10.46 8.32 8.32 5.16 12.29 5.13 13.46 2.48 8.21 0.46c4.79-0.28 7.45-0.43 7.98-0.46 3.36-0.58 5.22-0.91 5.59-0.97 1.18-0.42 1.84-0.65 1.96-0.7-1.46 0.14-2.96 0.21-4.45 0.21-9.39 0-18.12-2.83-25.38-7.69-3.8-2.54-7.2-5.65-10.08-9.19-4.07-4.45-7.62-9.37-10.56-14.7-6.01-10.88-9.44-23.4-9.44-36.71 0-25.73 12.77-48.47 32.32-62.25 12.4-8.73 27.52-13.87 43.84-13.87 0.99 0 1.98 0.03 2.96 0.07-1.83-0.45-3.69-0.84-5.55-1.18"/>
<path id="ae" d="m319.2 496.65c-5.87-1.05-11.9-1.6-18.05-1.6-23.94 0-45.94 8.28-63.3 22.13-4.99 3.97-9.58 8.4-13.75 13.23-0.04 0.05-0.21 0.31-0.52 0.77-0.09 0.15-0.53 0.9-1.32 2.24-0.1 0.18-0.59 1.08-1.46 2.7l-3.27 8.23-2.08 7.11-1.36 10.52v10.58l1.55 12.84 4.77 13.83 7.75 12.44 9.11 10.87 10.46 8.32 8.32 5.16 12.29 5.13 13.46 2.48 8.21 0.46c4.79-0.28 7.45-0.43 7.98-0.46 3.36-0.58 5.22-0.91 5.59-0.97 1.18-0.42 1.84-0.65 1.96-0.7-1.46 0.14-2.96 0.21-4.45 0.21-9.39 0-18.12-2.83-25.38-7.69-3.8-2.54-7.2-5.65-10.08-9.19-4.07-4.45-7.62-9.37-10.56-14.7-6.01-10.88-9.44-23.4-9.44-36.71 0-25.73 12.77-48.47 32.32-62.25 12.4-8.73 27.52-13.87 43.84-13.87 0.99 0 1.98 0.03 2.96 0.07-1.83-0.45-3.69-0.84-5.55-1.18"/>
<path id="au" d="m319.2 496.65c-5.87-1.05-11.9-1.6-18.05-1.6-23.94 0-45.94 8.28-63.3 22.13-4.99 3.97-9.58 8.4-13.75 13.23-0.04 0.05-0.21 0.31-0.52 0.77-0.09 0.15-0.53 0.9-1.32 2.24-0.1 0.18-0.59 1.08-1.46 2.7l-3.27 8.23-2.08 7.11-1.36 10.52v10.58l1.55 12.84 4.77 13.83 7.75 12.44 9.11 10.87 10.46 8.32 8.32 5.16 12.29 5.13 13.46 2.48 8.21 0.46c4.79-0.28 7.45-0.43 7.98-0.46 3.36-0.58 5.22-0.91 5.59-0.97 1.18-0.42 1.84-0.65 1.96-0.7-1.46 0.14-2.96 0.21-4.45 0.21-9.39 0-18.12-2.83-25.38-7.69-3.8-2.54-7.2-5.65-10.08-9.19-4.07-4.45-7.62-9.37-10.56-14.7-6.01-10.88-9.44-23.4-9.44-36.71 0-25.73 12.77-48.47 32.32-62.25 12.4-8.73 27.52-13.87 43.84-13.87 0.99 0 1.98 0.03 2.96 0.07-1.83-0.45-3.69-0.84-5.55-1.18"/>
<path id="bf" d="m319.2 496.65c-5.87-1.05-11.9-1.6-18.05-1.6-23.94 0-45.94 8.28-63.3 22.13-4.99 3.97-9.58 8.4-13.75 13.23-0.04 0.05-0.21 0.31-0.52 0.77-0.09 0.15-0.53 0.9-1.32 2.24-0.1 0.18-0.59 1.08-1.46 2.7l-3.27 8.23-2.08 7.11-1.36 10.52v10.58l1.55 12.84 4.77 13.83 7.75 12.44 9.11 10.87 10.46 8.32 8.32 5.16 12.29 5.13 13.46 2.48 8.21 0.46c4.79-0.28 7.45-0.43 7.98-0.46 3.36-0.58 5.22-0.91 5.59-0.97 1.18-0.42 1.84-0.65 1.96-0.7-1.46 0.14-2.96 0.21-4.45 0.21-9.39 0-18.12-2.83-25.38-7.69-3.8-2.54-7.2-5.65-10.08-9.19-4.07-4.45-7.62-9.37-10.56-14.7-6.01-10.88-9.44-23.4-9.44-36.71 0-25.73 12.77-48.47 32.32-62.25 12.4-8.73 27.52-13.87 43.84-13.87 0.99 0 1.98 0.03 2.96 0.07-1.83-0.45-3.69-0.84-5.55-1.18"/>
<path id="cr" d="m325.89 636.52c0.85-1 1.69-2.01 2.48-3.05-0.67 0.39-1.36 0.75-2.04 1.12-6.43 3.42-13.42 5.92-20.79 7.37-4.78 0.94-9.73 1.44-14.8 1.44-9.82 0-19.22-1.86-27.85-5.24-28.28-11.13-48.3-38.66-48.3-70.88 0-13.37 3.46-25.94 9.51-36.87-15.27 17.77-24.52 40.87-24.52 66.14 0 11.91 2.07 23.34 5.84 33.97 0.01 0.01 0.03 0.05 0.07 0.13l0.15 0.3c0.03 0.05 0.19 0.33 0.48 0.84l2.65 4.3 8.48 8.8 9.61 7.08 10.55 5.8 15.69 5.02 14.48 1.48 9.6-0.59 9.14-1.78 7.27-2.12 11.76-5.21 11.55-7.96 6.37-5.25 4.73-5.43 1.26-1.8c-0.54-0.39-0.83-0.61-0.89-0.66-1.2 1.09-1.88 1.7-2.01 1.82-0.28 0.74-0.45 1.15-0.47 1.23z"/>
<path id="bn" d="m325.89 636.52c0.85-1 1.69-2.01 2.48-3.05-0.67 0.39-1.36 0.75-2.04 1.12-6.43 3.42-13.42 5.92-20.79 7.37-4.78 0.94-9.73 1.44-14.8 1.44-9.82 0-19.22-1.86-27.85-5.24-28.28-11.13-48.3-38.66-48.3-70.88 0-13.37 3.46-25.94 9.51-36.87-15.27 17.77-24.52 40.87-24.52 66.14 0 11.91 2.07 23.34 5.84 33.97 0.01 0.01 0.03 0.05 0.07 0.13l0.15 0.3c0.03 0.05 0.19 0.33 0.48 0.84l2.65 4.3 8.48 8.8 9.61 7.08 10.55 5.8 15.69 5.02 14.48 1.48 9.6-0.59 9.14-1.78 7.27-2.12 11.76-5.21 11.55-7.96 6.37-5.25 4.73-5.43 1.26-1.8c-0.54-0.39-0.83-0.61-0.89-0.66-1.2 1.09-1.88 1.7-2.01 1.82-0.28 0.74-0.45 1.15-0.47 1.23z"/>
<path id="m" d="m325.89 636.52c0.85-1 1.69-2.01 2.48-3.05-0.67 0.39-1.36 0.75-2.04 1.12-6.43 3.42-13.42 5.92-20.79 7.37-4.78 0.94-9.73 1.44-14.8 1.44-9.82 0-19.22-1.86-27.85-5.24-28.28-11.13-48.3-38.66-48.3-70.88 0-13.37 3.46-25.94 9.51-36.87-15.27 17.77-24.52 40.87-24.52 66.14 0 11.91 2.07 23.34 5.84 33.97 0.01 0.01 0.03 0.05 0.07 0.13l0.15 0.3c0.03 0.05 0.19 0.33 0.48 0.84l2.65 4.3 8.48 8.8 9.61 7.08 10.55 5.8 15.69 5.02 14.48 1.48 9.6-0.59 9.14-1.78 7.27-2.12 11.76-5.21 11.55-7.96 6.37-5.25 4.73-5.43 1.26-1.8c-0.54-0.39-0.83-0.61-0.89-0.66-1.2 1.09-1.88 1.7-2.01 1.82-0.28 0.74-0.45 1.15-0.47 1.23z"/>
<path id="cd" d="m325.89 636.52c0.85-1 1.69-2.01 2.48-3.05-0.67 0.39-1.36 0.75-2.04 1.12-6.43 3.42-13.42 5.92-20.79 7.37-4.78 0.94-9.73 1.44-14.8 1.44-9.82 0-19.22-1.86-27.85-5.24-28.28-11.13-48.3-38.66-48.3-70.88 0-13.37 3.46-25.94 9.51-36.87-15.27 17.77-24.52 40.87-24.52 66.14 0 11.91 2.07 23.34 5.84 33.97 0.01 0.01 0.03 0.05 0.07 0.13l0.15 0.3c0.03 0.05 0.19 0.33 0.48 0.84l2.65 4.3 8.48 8.8 9.61 7.08 10.55 5.8 15.69 5.02 14.48 1.48 9.6-0.59 9.14-1.78 7.27-2.12 11.76-5.21 11.55-7.96 6.37-5.25 4.73-5.43 1.26-1.8c-0.54-0.39-0.83-0.61-0.89-0.66-1.2 1.09-1.88 1.7-2.01 1.82-0.28 0.74-0.45 1.15-0.47 1.23z"/>
<path id="ci" d="m328.37 633.47c-4.68 6.09-10.27 11.45-16.56 15.87-8.84 6.23-19.06 10.62-30.12 12.64-4.44 0.81-9.03 1.24-13.7 1.24-25.92 0-48.81-12.94-62.57-32.7 13.99 39.34 51.56 67.51 95.71 67.51 21.16 0 40.77-6.45 57.03-17.52-0.18-0.31-1.03-1.81-2.57-4.55-1.05-1.88-6.32-11.24-15.81-28.11-5.55-9.86-8.53-15.14-8.93-15.85-0.82 0.5-1.65 1-2.48 1.47z"/>
<path id="d" d="m328.37 633.47c-4.68 6.09-10.27 11.45-16.56 15.87-8.84 6.23-19.06 10.62-30.12 12.64-4.44 0.81-9.03 1.24-13.7 1.24-25.92 0-48.81-12.94-62.57-32.7 13.99 39.34 51.56 67.51 95.71 67.51 21.16 0 40.77-6.45 57.03-17.52-0.18-0.31-1.03-1.81-2.57-4.55-1.05-1.88-6.32-11.24-15.81-28.11-5.55-9.86-8.53-15.14-8.93-15.85-0.82 0.5-1.65 1-2.48 1.47z"/>
<path id="j" d="m328.37 633.47c-4.68 6.09-10.27 11.45-16.56 15.87-8.84 6.23-19.06 10.62-30.12 12.64-4.44 0.81-9.03 1.24-13.7 1.24-25.92 0-48.81-12.94-62.57-32.7 13.99 39.34 51.56 67.51 95.71 67.51 21.16 0 40.77-6.45 57.03-17.52-0.18-0.31-1.03-1.81-2.57-4.55-1.05-1.88-6.32-11.24-15.81-28.11-5.55-9.86-8.53-15.14-8.93-15.85-0.82 0.5-1.65 1-2.48 1.47z"/>
<path id="aw" d="m328.37 633.47c-4.68 6.09-10.27 11.45-16.56 15.87-8.84 6.23-19.06 10.62-30.12 12.64-4.44 0.81-9.03 1.24-13.7 1.24-25.92 0-48.81-12.94-62.57-32.7 13.99 39.34 51.56 67.51 95.71 67.51 21.16 0 40.77-6.45 57.03-17.52-0.18-0.31-1.03-1.81-2.57-4.55-1.05-1.88-6.32-11.24-15.81-28.11-5.55-9.86-8.53-15.14-8.93-15.85-0.82 0.5-1.65 1-2.48 1.47z"/>
<path id="h" d="m387.71 635.99c0-23.62-19.18-42.76-42.81-42.76-3.57 0-7.06 0.42-10.37 1.26-11.99 2.97-21.96 11-27.57 21.67 0.01 0 0.01 0.02 0.01 0.02h6.91c2.47 0.29 14.85 1.78 37.14 4.44 0.34 0.79 2.05 4.74 5.12 11.86 3.46 13.49 5.38 20.98 5.76 22.48-6.48 12.82-10.08 19.93-10.8 21.36-1.54 6.08-2.4 9.48-2.57 10.14 10.98-5.76 20.77-13.46 28.92-22.64l-0.01-0.02c6.39-7.49 10.27-17.19 10.27-27.81"/>
<path id="as" d="m387.71 635.99c0-23.62-19.18-42.76-42.81-42.76-3.57 0-7.06 0.42-10.37 1.26-11.99 2.97-21.96 11-27.57 21.67 0.01 0 0.01 0.02 0.01 0.02h6.91c2.47 0.29 14.85 1.78 37.14 4.44 0.34 0.79 2.05 4.74 5.12 11.86 3.46 13.49 5.38 20.98 5.76 22.48-6.48 12.82-10.08 19.93-10.8 21.36-1.54 6.08-2.4 9.48-2.57 10.14 10.98-5.76 20.77-13.46 28.92-22.64l-0.01-0.02c6.39-7.49 10.27-17.19 10.27-27.81"/>
<path id="cz" d="m387.71 635.99c0-23.62-19.18-42.76-42.81-42.76-3.57 0-7.06 0.42-10.37 1.26-11.99 2.97-21.96 11-27.57 21.67 0.01 0 0.01 0.02 0.01 0.02h6.91c2.47 0.29 14.85 1.78 37.14 4.44 0.34 0.79 2.05 4.74 5.12 11.86 3.46 13.49 5.38 20.98 5.76 22.48-6.48 12.82-10.08 19.93-10.8 21.36-1.54 6.08-2.4 9.48-2.57 10.14 10.98-5.76 20.77-13.46 28.92-22.64l-0.01-0.02c6.39-7.49 10.27-17.19 10.27-27.81"/>
<path id="bo" d="m387.71 635.99c0-23.62-19.18-42.76-42.81-42.76-3.57 0-7.06 0.42-10.37 1.26-11.99 2.97-21.96 11-27.57 21.67 0.01 0 0.01 0.02 0.01 0.02h6.91c2.47 0.29 14.85 1.78 37.14 4.44 0.34 0.79 2.05 4.74 5.12 11.86 3.46 13.49 5.38 20.98 5.76 22.48-6.48 12.82-10.08 19.93-10.8 21.36-1.54 6.08-2.4 9.48-2.57 10.14 10.98-5.76 20.77-13.46 28.92-22.64l-0.01-0.02c6.39-7.49 10.27-17.19 10.27-27.81"/>
<path id="cp" d="m326.68 611.12c-7.15 0-13.87 1.84-19.71 5.06 16.07 7.17 26.83 20.22 26.83 35.14 0 15.28-11.33 28.63-28.1 35.68-8.07 3.41-17.4 5.35-27.36 5.35-4.88 0-9.61-0.47-14.14-1.35 11.53 4.53 24.09 7.03 37.22 7.03 13.06 0 25.52-2.46 36.97-6.95 3.48-1.35 6.87-2.89 10.14-4.62 11.44-7.23 19.02-19.99 19.02-34.5 0-22.56-18.3-40.84-40.87-40.84"/>
<path id="bp" d="m326.68 611.12c-7.15 0-13.87 1.84-19.71 5.06 16.07 7.17 26.83 20.22 26.83 35.14 0 15.28-11.33 28.63-28.1 35.68-8.07 3.41-17.4 5.35-27.36 5.35-4.88 0-9.61-0.47-14.14-1.35 11.53 4.53 24.09 7.03 37.22 7.03 13.06 0 25.52-2.46 36.97-6.95 3.48-1.35 6.87-2.89 10.14-4.62 11.44-7.23 19.02-19.99 19.02-34.5 0-22.56-18.3-40.84-40.87-40.84"/>
<path id="ca" d="m326.68 611.12c-7.15 0-13.87 1.84-19.71 5.06 16.07 7.17 26.83 20.22 26.83 35.14 0 15.28-11.33 28.63-28.1 35.68-8.07 3.41-17.4 5.35-27.36 5.35-4.88 0-9.61-0.47-14.14-1.35 11.53 4.53 24.09 7.03 37.22 7.03 13.06 0 25.52-2.46 36.97-6.95 3.48-1.35 6.87-2.89 10.14-4.62 11.44-7.23 19.02-19.99 19.02-34.5 0-22.56-18.3-40.84-40.87-40.84"/>
<path id="y" d="m326.68 611.12c-7.15 0-13.87 1.84-19.71 5.06 16.07 7.17 26.83 20.22 26.83 35.14 0 15.28-11.33 28.63-28.1 35.68-8.07 3.41-17.4 5.35-27.36 5.35-4.88 0-9.61-0.47-14.14-1.35 11.53 4.53 24.09 7.03 37.22 7.03 13.06 0 25.52-2.46 36.97-6.95 3.48-1.35 6.87-2.89 10.14-4.62 11.44-7.23 19.02-19.99 19.02-34.5 0-22.56-18.3-40.84-40.87-40.84"/>
<path id="w" d="m348.83 567.6c-6.07 0.48-12.73-1.23-20.01-5.11-6.23-4.72-13.26-7.46-21.09-8.23-11.76-1.13-19.09 0.47-25.87 3.7-18.04 8.54-25.13 30.37-25.13 38.73 0 8.48 2.27 33.96 25.49 43.21 6.31 2.52 14.48 5.27 26.13 4.22 7.77-0.7 14.59-3.51 20.47-8.42-2.5-3.87-5.46-7.21-8.87-10.01-3.42-2.8-7.28-5.05-11.6-6.76 8.06-11.8 17.35-18.98 27.81-21.56 15.72-3.86 27.16 1.68 35.04 6.14 7.88 4.45 16.2 17.92 17.17 32.19 0.59 8.2-1.92 16.43-7.49 24.71-6.49 9.68-13.64 17.32-21.42 22.91-9.71 6.99-19.76 10.32-28.75 13.33-16.17 5.42-39.01 3.53-52.45 0.5-11-2.48-13.71-4.58-22.5-8.18-27.94-11.46-55.88-44.81-55.1-90.59 0.47-27.25 11.75-54.1 29.65-70.77 7.48-6.93 16.44-18.09 40.62-24.74 24.2-6.66 40.37-5.57 56.15-1.88 13.72 3.19 25.75 8.85 36.11 16.94 5.72 6.26 9.3 12.09 10.74 17.47 2.3 8.61-1.29 16.26-4.82 20.83-3.37 4.37-11.53 10.72-20.28 11.37z"/>
<path id="cs" d="m348.83 567.6c-6.07 0.48-12.73-1.23-20.01-5.11-6.23-4.72-13.26-7.46-21.09-8.23-11.76-1.13-19.09 0.47-25.87 3.7-18.04 8.54-25.13 30.37-25.13 38.73 0 8.48 2.27 33.96 25.49 43.21 6.31 2.52 14.48 5.27 26.13 4.22 7.77-0.7 14.59-3.51 20.47-8.42-2.5-3.87-5.46-7.21-8.87-10.01-3.42-2.8-7.28-5.05-11.6-6.76 8.06-11.8 17.35-18.98 27.81-21.56 15.72-3.86 27.16 1.68 35.04 6.14 7.88 4.45 16.2 17.92 17.17 32.19 0.59 8.2-1.92 16.43-7.49 24.71-6.49 9.68-13.64 17.32-21.42 22.91-9.71 6.99-19.76 10.32-28.75 13.33-16.17 5.42-39.01 3.53-52.45 0.5-11-2.48-13.71-4.58-22.5-8.18-27.94-11.46-55.88-44.81-55.1-90.59 0.47-27.25 11.75-54.1 29.65-70.77 7.48-6.93 16.44-18.09 40.62-24.74 24.2-6.66 40.37-5.57 56.15-1.88 13.72 3.19 25.75 8.85 36.11 16.94 5.72 6.26 9.3 12.09 10.74 17.47 2.3 8.61-1.29 16.26-4.82 20.83-3.37 4.37-11.53 10.72-20.28 11.37z"/>
<path id="b" d="m429.96 143.63c35.36 0 64.03-28.67 64.03-64.02 0-35.36-28.67-64.03-64.03-64.03s-64.02 28.67-64.02 64.03c0 35.35 28.66 64.02 64.02 64.02z"/>
<path id="af" d="m429.96 143.63c35.36 0 64.03-28.67 64.03-64.02 0-35.36-28.67-64.03-64.03-64.03s-64.02 28.67-64.02 64.03c0 35.35 28.66 64.02 64.02 64.02z"/>
<path id="cx" d="m435.77 8.7l2.86 0.3 2.83 0.4 2.79 0.52 2.76 0.63 2.7 0.73 2.67 0.84 2.62 0.94 2.58 1.03 2.53 1.12 2.46 1.23 2.42 1.32 2.37 1.41 2.3 1.5 2.24 1.57 2.18 1.67 2.11 1.74 2.04 1.83 1.97 1.88 1.89 1.98 1.83 2.04 1.74 2.11 1.67 2.18 1.57 2.24 1.5 2.3 1.41 2.36 1.31 2.42 1.23 2.47 1.13 2.53 1.03 2.57 0.94 2.63 0.84 2.67 0.73 2.7 0.63 2.76 0.51 2.78 0.41 2.84 0.3 2.86 0.16 2.88 0.06 2.93-0.06 2.92-0.16 2.89-0.3 2.86-0.41 2.83-0.51 2.8-0.63 2.74-0.73 2.72-0.84 2.66-0.94 2.63-1.03 2.57-1.13 2.53-1.23 2.47-1.31 2.41-1.41 2.37-1.5 2.3-1.57 2.24-1.67 2.18-1.74 2.11-1.83 2.04-1.89 1.97-1.97 1.9-2.04 1.81-2.11 1.75-2.18 1.66-2.24 1.59-2.3 1.49-2.37 1.4-2.42 1.33-2.46 1.22-2.53 1.14-2.58 1.03-2.62 0.93-2.67 0.83-2.7 0.74-2.76 0.62-2.79 0.52-2.83 0.41-2.86 0.29-2.89 0.18-2.92 0.06-2.92-0.06-2.89-0.18-2.86-0.29-2.83-0.41-2.8-0.52-2.74-0.62-2.72-0.74-2.66-0.83-2.63-0.93-2.58-1.03-2.52-1.14-2.48-1.22-2.4-1.33-2.37-1.4-2.3-1.49-2.24-1.59-2.18-1.66-2.11-1.75-2.04-1.81-1.97-1.9-1.9-1.97-1.82-2.04-1.74-2.11-1.66-2.18-1.59-2.24-1.49-2.3-1.4-2.37-1.33-2.41-1.22-2.47-1.14-2.53-1.03-2.57-0.94-2.63-0.82-2.66-0.74-2.72-0.62-2.74-0.52-2.8-0.41-2.83-0.29-2.86-0.18-2.89-0.06-2.92 0.06-2.93 0.18-2.88 0.29-2.86 0.41-2.84 0.52-2.78 0.62-2.76 0.74-2.7 0.82-2.67 0.94-2.63 1.03-2.57 1.14-2.53 1.22-2.47 1.33-2.42 1.4-2.36 1.49-2.3 1.59-2.24 1.66-2.18 1.74-2.11 1.82-2.04 1.9-1.98 1.97-1.88 2.04-1.83 2.11-1.74 2.18-1.67 2.24-1.57 2.3-1.5 2.37-1.41 2.4-1.32 2.48-1.23 2.52-1.12 2.58-1.03 2.63-0.94 2.66-0.84 2.72-0.73 2.74-0.63 2.8-0.52 2.83-0.4 2.86-0.3 2.89-0.17 2.92-0.06 2.92 0.06 2.89 0.17zm-10.46 14.19l-2.29 0.24-2.26 0.32-2.23 0.41-2.21 0.5-2.16 0.59-2.14 0.67-2.1 0.75-2.05 0.82-2.03 0.91-1.98 0.97-1.92 1.06-1.9 1.13-1.84 1.2-1.8 1.26-1.73 1.33-1.69 1.39-1.63 1.46-1.59 1.52-1.5 1.58-1.46 1.62-1.4 1.69-1.33 1.75-1.27 1.78-1.19 1.85-1.12 1.89-1.07 1.94-0.97 1.97-0.91 2.02-0.83 2.06-0.75 2.1-0.66 2.13-0.58 2.18-0.51 2.19-0.41 2.24-0.32 2.27-0.24 2.27-0.14 2.33-0.05 2.33 0.05 2.33 0.14 2.32 0.24 2.29 0.32 2.25 0.41 2.24 0.51 2.2 0.58 2.17 0.66 2.14 0.75 2.1 0.83 2.05 0.91 2.02 0.97 1.99 1.07 1.92 1.12 1.9 1.19 1.84 1.27 1.8 1.33 1.73 1.4 1.69 1.46 1.63 1.5 1.59 1.59 1.5 1.63 1.46 1.69 1.4 1.73 1.33 1.8 1.27 1.84 1.19 1.9 1.12 1.92 1.06 1.98 0.98 2.03 0.91 2.05 0.83 2.1 0.74 2.14 0.67 2.16 0.58 2.21 0.51 2.23 0.41 2.26 0.32 2.29 0.24 2.32 0.14 2.33 0.05 2.33-0.05 2.33-0.14 2.27-0.24 2.27-0.32 2.24-0.41 2.19-0.51 2.17-0.58 2.14-0.67 2.1-0.74 2.06-0.83 2.02-0.91 1.97-0.98 1.94-1.06 1.89-1.12 1.84-1.19 1.79-1.27 1.74-1.33 1.7-1.4 1.62-1.46 1.58-1.5 1.52-1.59 1.46-1.63 1.39-1.69 1.33-1.73 1.26-1.8 1.2-1.84 1.13-1.9 1.06-1.92 0.96-1.99 0.92-2.02 0.82-2.05 0.75-2.1 0.67-2.14 0.58-2.17 0.51-2.2 0.41-2.24 0.32-2.25 0.24-2.29 0.14-2.32 0.05-2.33-0.05-2.33-0.14-2.33-0.24-2.27-0.32-2.27-0.41-2.24-0.51-2.19-0.58-2.18-0.67-2.13-0.75-2.1-0.82-2.06-0.92-2.02-0.96-1.97-1.06-1.94-1.13-1.89-1.2-1.85-1.26-1.78-1.33-1.75-1.39-1.69-1.46-1.62-1.52-1.58-1.58-1.52-1.62-1.46-1.69-1.39-1.75-1.33-1.79-1.26-1.84-1.2-1.89-1.13-1.94-1.06-1.97-0.97-2.02-0.91-2.06-0.82-2.1-0.75-2.14-0.67-2.17-0.59-2.19-0.5-2.24-0.41-2.27-0.32-2.27-0.24-2.33-0.14-2.33-0.05-2.33 0.05-2.32 0.14z"/>
<path id="cm" d="m435.77 8.7l2.86 0.3 2.83 0.4 2.79 0.52 2.76 0.63 2.7 0.73 2.67 0.84 2.62 0.94 2.58 1.03 2.53 1.12 2.46 1.23 2.42 1.32 2.37 1.41 2.3 1.5 2.24 1.57 2.18 1.67 2.11 1.74 2.04 1.83 1.97 1.88 1.89 1.98 1.83 2.04 1.74 2.11 1.67 2.18 1.57 2.24 1.5 2.3 1.41 2.36 1.31 2.42 1.23 2.47 1.13 2.53 1.03 2.57 0.94 2.63 0.84 2.67 0.73 2.7 0.63 2.76 0.51 2.78 0.41 2.84 0.3 2.86 0.16 2.88 0.06 2.93-0.06 2.92-0.16 2.89-0.3 2.86-0.41 2.83-0.51 2.8-0.63 2.74-0.73 2.72-0.84 2.66-0.94 2.63-1.03 2.57-1.13 2.53-1.23 2.47-1.31 2.41-1.41 2.37-1.5 2.3-1.57 2.24-1.67 2.18-1.74 2.11-1.83 2.04-1.89 1.97-1.97 1.9-2.04 1.81-2.11 1.75-2.18 1.66-2.24 1.59-2.3 1.49-2.37 1.4-2.42 1.33-2.46 1.22-2.53 1.14-2.58 1.03-2.62 0.93-2.67 0.83-2.7 0.74-2.76 0.62-2.79 0.52-2.83 0.41-2.86 0.29-2.89 0.18-2.92 0.06-2.92-0.06-2.89-0.18-2.86-0.29-2.83-0.41-2.8-0.52-2.74-0.62-2.72-0.74-2.66-0.83-2.63-0.93-2.58-1.03-2.52-1.14-2.48-1.22-2.4-1.33-2.37-1.4-2.3-1.49-2.24-1.59-2.18-1.66-2.11-1.75-2.04-1.81-1.97-1.9-1.9-1.97-1.82-2.04-1.74-2.11-1.66-2.18-1.59-2.24-1.49-2.3-1.4-2.37-1.33-2.41-1.22-2.47-1.14-2.53-1.03-2.57-0.94-2.63-0.82-2.66-0.74-2.72-0.62-2.74-0.52-2.8-0.41-2.83-0.29-2.86-0.18-2.89-0.06-2.92 0.06-2.93 0.18-2.88 0.29-2.86 0.41-2.84 0.52-2.78 0.62-2.76 0.74-2.7 0.82-2.67 0.94-2.63 1.03-2.57 1.14-2.53 1.22-2.47 1.33-2.42 1.4-2.36 1.49-2.3 1.59-2.24 1.66-2.18 1.74-2.11 1.82-2.04 1.9-1.98 1.97-1.88 2.04-1.83 2.11-1.74 2.18-1.67 2.24-1.57 2.3-1.5 2.37-1.41 2.4-1.32 2.48-1.23 2.52-1.12 2.58-1.03 2.63-0.94 2.66-0.84 2.72-0.73 2.74-0.63 2.8-0.52 2.83-0.4 2.86-0.3 2.89-0.17 2.92-0.06 2.92 0.06 2.89 0.17zm-10.46 14.19l-2.29 0.24-2.26 0.32-2.23 0.41-2.21 0.5-2.16 0.59-2.14 0.67-2.1 0.75-2.05 0.82-2.03 0.91-1.98 0.97-1.92 1.06-1.9 1.13-1.84 1.2-1.8 1.26-1.73 1.33-1.69 1.39-1.63 1.46-1.59 1.52-1.5 1.58-1.46 1.62-1.4 1.69-1.33 1.75-1.27 1.78-1.19 1.85-1.12 1.89-1.07 1.94-0.97 1.97-0.91 2.02-0.83 2.06-0.75 2.1-0.66 2.13-0.58 2.18-0.51 2.19-0.41 2.24-0.32 2.27-0.24 2.27-0.14 2.33-0.05 2.33 0.05 2.33 0.14 2.32 0.24 2.29 0.32 2.25 0.41 2.24 0.51 2.2 0.58 2.17 0.66 2.14 0.75 2.1 0.83 2.05 0.91 2.02 0.97 1.99 1.07 1.92 1.12 1.9 1.19 1.84 1.27 1.8 1.33 1.73 1.4 1.69 1.46 1.63 1.5 1.59 1.59 1.5 1.63 1.46 1.69 1.4 1.73 1.33 1.8 1.27 1.84 1.19 1.9 1.12 1.92 1.06 1.98 0.98 2.03 0.91 2.05 0.83 2.1 0.74 2.14 0.67 2.16 0.58 2.21 0.51 2.23 0.41 2.26 0.32 2.29 0.24 2.32 0.14 2.33 0.05 2.33-0.05 2.33-0.14 2.27-0.24 2.27-0.32 2.24-0.41 2.19-0.51 2.17-0.58 2.14-0.67 2.1-0.74 2.06-0.83 2.02-0.91 1.97-0.98 1.94-1.06 1.89-1.12 1.84-1.19 1.79-1.27 1.74-1.33 1.7-1.4 1.62-1.46 1.58-1.5 1.52-1.59 1.46-1.63 1.39-1.69 1.33-1.73 1.26-1.8 1.2-1.84 1.13-1.9 1.06-1.92 0.96-1.99 0.92-2.02 0.82-2.05 0.75-2.1 0.67-2.14 0.58-2.17 0.51-2.2 0.41-2.24 0.32-2.25 0.24-2.29 0.14-2.32 0.05-2.33-0.05-2.33-0.14-2.33-0.24-2.27-0.32-2.27-0.41-2.24-0.51-2.19-0.58-2.18-0.67-2.13-0.75-2.1-0.82-2.06-0.92-2.02-0.96-1.97-1.06-1.94-1.13-1.89-1.2-1.85-1.26-1.78-1.33-1.75-1.39-1.69-1.46-1.62-1.52-1.58-1.58-1.52-1.62-1.46-1.69-1.39-1.75-1.33-1.79-1.26-1.84-1.2-1.89-1.13-1.94-1.06-1.97-0.97-2.02-0.91-2.06-0.82-2.1-0.75-2.14-0.67-2.17-0.59-2.19-0.5-2.24-0.41-2.27-0.32-2.27-0.24-2.33-0.14-2.33-0.05-2.33 0.05-2.32 0.14z"/>
<path id="bg" d="m429.45 128.63c27.08 0 49.03-21.94 49.03-49.02 0-27.07-21.95-49.03-49.03-49.03-27.07 0-49.02 21.96-49.02 49.03 0 27.08 21.95 49.02 49.02 49.02z"/>
<path id="bz" d="m429.45 128.63c27.08 0 49.03-21.94 49.03-49.02 0-27.07-21.95-49.03-49.03-49.03-27.07 0-49.02 21.96-49.02 49.03 0 27.08 21.95 49.02 49.02 49.02z"/>
<path id="u" d="m429.45 128.63c27.08 0 49.03-21.94 49.03-49.02 0-27.07-21.95-49.03-49.03-49.03-27.07 0-49.02 21.96-49.02 49.03 0 27.08 21.95 49.02 49.02 49.02z"/>
<path id="cu" d="m429.45 128.63c27.08 0 49.03-21.94 49.03-49.02 0-27.07-21.95-49.03-49.03-49.03-27.07 0-49.02 21.96-49.02 49.03 0 27.08 21.95 49.02 49.02 49.02z"/>
<path id="z" d="m428.78 94.51l23.9-14.13-23.9-39.83-0.51 1.8v51.65l0.51 0.51z"/>
<path id="ab" d="m428.78 94.51l23.9-14.13-23.9-39.83-0.51 1.8v51.65l0.51 0.51z"/>
<path id="de" d="m428.78 94.51l23.9-14.13-23.9-39.83-0.51 1.8v51.65l0.51 0.51z"/>
<path id="ar" d="m428.78 94.51l23.9-14.13-23.9-39.83-0.51 1.8v51.65l0.51 0.51z"/>
<path id="ag" d="m428.78 69.33v-28.78l-23.9 39.83 23.9 14.13v-25.18z"/>
<path id="at" d="m428.78 69.33v-28.78l-23.9 39.83 23.9 14.13v-25.18z"/>
<path id="ah" d="m428.78 69.33v-28.78l-23.9 39.83 23.9 14.13v-25.18z"/>
<path id="q" d="m428.78 69.33v-28.78l-23.9 39.83 23.9 14.13v-25.18z"/>
<path id="cv" d="m428.78 118.67l23.9-33.92-23.9 14.13-0.26 0.52v18.25l0.26 1.02z"/>
<path id="ax" d="m428.78 118.67l23.9-33.92-23.9 14.13-0.26 0.52v18.25l0.26 1.02z"/>
<path id="bm" d="m428.78 118.67l23.9-33.92-23.9 14.13-0.26 0.52v18.25l0.26 1.02z"/>
<path id="cc" d="m428.78 118.67l23.9-33.92-23.9 14.13-0.26 0.52v18.25l0.26 1.02z"/>
<path id="bu" d="m428.78 118.67v-19.79l-23.9-14.13 23.9 33.92z"/>
<path id="ak" d="m428.78 118.67v-19.79l-23.9-14.13 23.9 33.92z"/>
<path id="e" d="m428.78 118.67v-19.79l-23.9-14.13 23.9 33.92z"/>
<path id="br" d="m428.78 118.67v-19.79l-23.9-14.13 23.9 33.92z"/>
<path id="bt" d="m428.78 94.51l23.9-14.13-23.9-11.05v25.18z"/>
<path id="aa" d="m428.78 94.51l23.9-14.13-23.9-11.05v25.18z"/>
<path id="by" d="m428.78 94.51l23.9-14.13-23.9-11.05v25.18z"/>
<path id="cw" d="m428.78 94.51l23.9-14.13-23.9-11.05v25.18z"/>
<path id="ct" d="m404.88 80.38l23.9 14.13v-25.18l-23.9 11.05z"/>
<path id="ce" d="m404.88 80.38l23.9 14.13v-25.18l-23.9 11.05z"/>
<path id="al" d="m404.88 80.38l23.9 14.13v-25.18l-23.9 11.05z"/>
<path id="ay" d="m404.88 80.38l23.9 14.13v-25.18l-23.9 11.05z"/>
<path id="bv" d="m146.54 177.17c35.36 0 64.03-28.67 64.03-64.02 0-35.36-28.67-64.03-64.03-64.03s-64.02 28.67-64.02 64.03c0 35.35 28.66 64.02 64.02 64.02z"/>
<path id="an" d="m152.35 42.25l2.86 0.29 2.83 0.4 2.79 0.52 2.76 0.63 2.7 0.73 2.67 0.84 2.63 0.94 2.57 1.03 2.53 1.13 2.46 1.22 2.43 1.32 2.36 1.41 2.3 1.5 2.24 1.57 2.18 1.67 2.11 1.74 2.04 1.83 1.97 1.88 1.89 1.98 1.83 2.04 1.74 2.11 1.67 2.18 1.57 2.24 1.5 2.3 1.41 2.36 1.32 2.42 1.23 2.47 1.12 2.53 1.03 2.58 0.94 2.62 0.84 2.67 0.73 2.7 0.63 2.76 0.51 2.79 0.41 2.83 0.3 2.86 0.17 2.88 0.06 2.93-0.06 2.92-0.17 2.89-0.3 2.86-0.41 2.83-0.51 2.8-0.63 2.74-0.73 2.72-0.84 2.66-0.94 2.63-1.03 2.58-1.12 2.52-1.23 2.47-1.32 2.41-1.41 2.37-1.5 2.3-1.57 2.24-1.67 2.18-1.74 2.11-1.83 2.04-1.89 1.97-1.97 1.9-2.04 1.82-2.11 1.74-2.18 1.66-2.24 1.59-2.3 1.49-2.36 1.4-2.43 1.33-2.46 1.22-2.53 1.14-2.57 1.03-2.63 0.94-2.67 0.82-2.7 0.74-2.76 0.62-2.79 0.52-2.83 0.41-2.86 0.29-2.88 0.18-2.93 0.06-2.92-0.06-2.89-0.18-2.86-0.29-2.83-0.41-2.8-0.52-2.74-0.62-2.72-0.74-2.66-0.82-2.63-0.94-2.58-1.03-2.52-1.14-2.47-1.22-2.41-1.33-2.37-1.4-2.3-1.49-2.24-1.59-2.18-1.66-2.11-1.74-2.04-1.82-1.97-1.9-1.9-1.97-1.82-2.04-1.74-2.11-1.66-2.18-1.58-2.24-1.5-2.3-1.4-2.37-1.33-2.41-1.22-2.47-1.14-2.52-1.03-2.58-0.93-2.63-0.83-2.66-0.74-2.72-0.62-2.74-0.52-2.8-0.41-2.83-0.29-2.86-0.18-2.89-0.06-2.92 0.06-2.93 0.18-2.88 0.29-2.86 0.41-2.83 0.52-2.79 0.62-2.76 0.74-2.7 0.83-2.67 0.93-2.62 1.03-2.58 1.14-2.53 1.22-2.47 1.33-2.42 1.4-2.36 1.5-2.3 1.58-2.24 1.66-2.18 1.74-2.11 1.82-2.04 1.9-1.98 1.97-1.88 2.04-1.83 2.11-1.74 2.18-1.67 2.24-1.57 2.3-1.5 2.37-1.41 2.41-1.32 2.47-1.22 2.52-1.13 2.58-1.03 2.63-0.94 2.66-0.84 2.72-0.73 2.74-0.63 2.8-0.52 2.83-0.4 2.86-0.29 2.89-0.17 2.92-0.06 2.93 0.06 2.88 0.17zm-10.46 14.18l-2.29 0.24-2.25 0.32-2.24 0.41-2.21 0.5-2.16 0.59-2.14 0.67-2.1 0.75-2.05 0.82-2.02 0.92-1.98 0.96-1.93 1.06-1.9 1.13-1.84 1.2-1.8 1.26-1.73 1.34-1.69 1.38-1.63 1.46-1.59 1.52-1.5 1.58-1.46 1.62-1.4 1.69-1.33 1.75-1.27 1.79-1.19 1.84-1.12 1.89-1.06 1.94-0.98 1.97-0.91 2.02-0.83 2.06-0.75 2.1-0.66 2.13-0.58 2.18-0.51 2.2-0.41 2.23-0.32 2.27-0.24 2.27-0.14 2.33-0.05 2.33 0.05 2.33 0.14 2.32 0.24 2.29 0.32 2.25 0.41 2.24 0.51 2.2 0.58 2.17 0.66 2.14 0.75 2.1 0.83 2.05 0.91 2.02 0.98 1.99 1.06 1.93 1.12 1.89 1.19 1.84 1.27 1.8 1.33 1.73 1.4 1.69 1.46 1.63 1.5 1.59 1.59 1.5 1.63 1.46 1.69 1.4 1.73 1.33 1.8 1.27 1.84 1.19 1.9 1.12 1.93 1.06 1.98 0.98 2.02 0.91 2.05 0.83 2.1 0.75 2.14 0.66 2.16 0.58 2.21 0.51 2.24 0.41 2.25 0.32 2.29 0.24 2.32 0.14 2.33 0.05 2.33-0.05 2.33-0.14 2.27-0.24 2.27-0.32 2.24-0.41 2.2-0.51 2.16-0.58 2.15-0.66 2.09-0.75 2.06-0.83 2.02-0.91 1.97-0.98 1.94-1.06 1.89-1.12 1.84-1.19 1.79-1.27 1.74-1.33 1.7-1.4 1.62-1.46 1.58-1.5 1.52-1.59 1.46-1.63 1.4-1.69 1.32-1.73 1.27-1.8 1.19-1.84 1.13-1.89 1.06-1.93 0.97-1.99 0.91-2.02 0.82-2.05 0.75-2.1 0.67-2.14 0.59-2.17 0.5-2.2 0.41-2.24 0.33-2.25 0.23-2.29 0.14-2.32 0.05-2.33-0.05-2.33-0.14-2.33-0.23-2.27-0.33-2.27-0.41-2.23-0.5-2.2-0.59-2.18-0.67-2.13-0.75-2.1-0.82-2.06-0.91-2.02-0.97-1.97-1.06-1.94-1.13-1.89-1.19-1.84-1.27-1.79-1.32-1.75-1.4-1.69-1.46-1.62-1.52-1.58-1.58-1.52-1.62-1.46-1.69-1.38-1.75-1.34-1.79-1.26-1.84-1.2-1.89-1.13-1.94-1.06-1.97-0.96-2.02-0.92-2.06-0.82-2.09-0.75-2.15-0.67-2.16-0.59-2.2-0.5-2.24-0.41-2.27-0.32-2.27-0.24-2.33-0.14-2.33-0.05-2.33 0.05-2.32 0.14z"/>
<path id="f" d="m152.35 42.25l2.86 0.29 2.83 0.4 2.79 0.52 2.76 0.63 2.7 0.73 2.67 0.84 2.63 0.94 2.57 1.03 2.53 1.13 2.46 1.22 2.43 1.32 2.36 1.41 2.3 1.5 2.24 1.57 2.18 1.67 2.11 1.74 2.04 1.83 1.97 1.88 1.89 1.98 1.83 2.04 1.74 2.11 1.67 2.18 1.57 2.24 1.5 2.3 1.41 2.36 1.32 2.42 1.23 2.47 1.12 2.53 1.03 2.58 0.94 2.62 0.84 2.67 0.73 2.7 0.63 2.76 0.51 2.79 0.41 2.83 0.3 2.86 0.17 2.88 0.06 2.93-0.06 2.92-0.17 2.89-0.3 2.86-0.41 2.83-0.51 2.8-0.63 2.74-0.73 2.72-0.84 2.66-0.94 2.63-1.03 2.58-1.12 2.52-1.23 2.47-1.32 2.41-1.41 2.37-1.5 2.3-1.57 2.24-1.67 2.18-1.74 2.11-1.83 2.04-1.89 1.97-1.97 1.9-2.04 1.82-2.11 1.74-2.18 1.66-2.24 1.59-2.3 1.49-2.36 1.4-2.43 1.33-2.46 1.22-2.53 1.14-2.57 1.03-2.63 0.94-2.67 0.82-2.7 0.74-2.76 0.62-2.79 0.52-2.83 0.41-2.86 0.29-2.88 0.18-2.93 0.06-2.92-0.06-2.89-0.18-2.86-0.29-2.83-0.41-2.8-0.52-2.74-0.62-2.72-0.74-2.66-0.82-2.63-0.94-2.58-1.03-2.52-1.14-2.47-1.22-2.41-1.33-2.37-1.4-2.3-1.49-2.24-1.59-2.18-1.66-2.11-1.74-2.04-1.82-1.97-1.9-1.9-1.97-1.82-2.04-1.74-2.11-1.66-2.18-1.58-2.24-1.5-2.3-1.4-2.37-1.33-2.41-1.22-2.47-1.14-2.52-1.03-2.58-0.93-2.63-0.83-2.66-0.74-2.72-0.62-2.74-0.52-2.8-0.41-2.83-0.29-2.86-0.18-2.89-0.06-2.92 0.06-2.93 0.18-2.88 0.29-2.86 0.41-2.83 0.52-2.79 0.62-2.76 0.74-2.7 0.83-2.67 0.93-2.62 1.03-2.58 1.14-2.53 1.22-2.47 1.33-2.42 1.4-2.36 1.5-2.3 1.58-2.24 1.66-2.18 1.74-2.11 1.82-2.04 1.9-1.98 1.97-1.88 2.04-1.83 2.11-1.74 2.18-1.67 2.24-1.57 2.3-1.5 2.37-1.41 2.41-1.32 2.47-1.22 2.52-1.13 2.58-1.03 2.63-0.94 2.66-0.84 2.72-0.73 2.74-0.63 2.8-0.52 2.83-0.4 2.86-0.29 2.89-0.17 2.92-0.06 2.93 0.06 2.88 0.17zm-10.46 14.18l-2.29 0.24-2.25 0.32-2.24 0.41-2.21 0.5-2.16 0.59-2.14 0.67-2.1 0.75-2.05 0.82-2.02 0.92-1.98 0.96-1.93 1.06-1.9 1.13-1.84 1.2-1.8 1.26-1.73 1.34-1.69 1.38-1.63 1.46-1.59 1.52-1.5 1.58-1.46 1.62-1.4 1.69-1.33 1.75-1.27 1.79-1.19 1.84-1.12 1.89-1.06 1.94-0.98 1.97-0.91 2.02-0.83 2.06-0.75 2.1-0.66 2.13-0.58 2.18-0.51 2.2-0.41 2.23-0.32 2.27-0.24 2.27-0.14 2.33-0.05 2.33 0.05 2.33 0.14 2.32 0.24 2.29 0.32 2.25 0.41 2.24 0.51 2.2 0.58 2.17 0.66 2.14 0.75 2.1 0.83 2.05 0.91 2.02 0.98 1.99 1.06 1.93 1.12 1.89 1.19 1.84 1.27 1.8 1.33 1.73 1.4 1.69 1.46 1.63 1.5 1.59 1.59 1.5 1.63 1.46 1.69 1.4 1.73 1.33 1.8 1.27 1.84 1.19 1.9 1.12 1.93 1.06 1.98 0.98 2.02 0.91 2.05 0.83 2.1 0.75 2.14 0.66 2.16 0.58 2.21 0.51 2.24 0.41 2.25 0.32 2.29 0.24 2.32 0.14 2.33 0.05 2.33-0.05 2.33-0.14 2.27-0.24 2.27-0.32 2.24-0.41 2.2-0.51 2.16-0.58 2.15-0.66 2.09-0.75 2.06-0.83 2.02-0.91 1.97-0.98 1.94-1.06 1.89-1.12 1.84-1.19 1.79-1.27 1.74-1.33 1.7-1.4 1.62-1.46 1.58-1.5 1.52-1.59 1.46-1.63 1.4-1.69 1.32-1.73 1.27-1.8 1.19-1.84 1.13-1.89 1.06-1.93 0.97-1.99 0.91-2.02 0.82-2.05 0.75-2.1 0.67-2.14 0.59-2.17 0.5-2.2 0.41-2.24 0.33-2.25 0.23-2.29 0.14-2.32 0.05-2.33-0.05-2.33-0.14-2.33-0.23-2.27-0.33-2.27-0.41-2.23-0.5-2.2-0.59-2.18-0.67-2.13-0.75-2.1-0.82-2.06-0.91-2.02-0.97-1.97-1.06-1.94-1.13-1.89-1.19-1.84-1.27-1.79-1.32-1.75-1.4-1.69-1.46-1.62-1.52-1.58-1.58-1.52-1.62-1.46-1.69-1.38-1.75-1.34-1.79-1.26-1.84-1.2-1.89-1.13-1.94-1.06-1.97-0.96-2.02-0.92-2.06-0.82-2.09-0.75-2.15-0.67-2.16-0.59-2.2-0.5-2.24-0.41-2.27-0.32-2.27-0.24-2.33-0.14-2.33-0.05-2.33 0.05-2.32 0.14z"/>
<path id="o" d="m152.35 42.25l2.86 0.29 2.83 0.4 2.79 0.52 2.76 0.63 2.7 0.73 2.67 0.84 2.63 0.94 2.57 1.03 2.53 1.13 2.46 1.22 2.43 1.32 2.36 1.41 2.3 1.5 2.24 1.57 2.18 1.67 2.11 1.74 2.04 1.83 1.97 1.88 1.89 1.98 1.83 2.04 1.74 2.11 1.67 2.18 1.57 2.24 1.5 2.3 1.41 2.36 1.32 2.42 1.23 2.47 1.12 2.53 1.03 2.58 0.94 2.62 0.84 2.67 0.73 2.7 0.63 2.76 0.51 2.79 0.41 2.83 0.3 2.86 0.17 2.88 0.06 2.93-0.06 2.92-0.17 2.89-0.3 2.86-0.41 2.83-0.51 2.8-0.63 2.74-0.73 2.72-0.84 2.66-0.94 2.63-1.03 2.58-1.12 2.52-1.23 2.47-1.32 2.41-1.41 2.37-1.5 2.3-1.57 2.24-1.67 2.18-1.74 2.11-1.83 2.04-1.89 1.97-1.97 1.9-2.04 1.82-2.11 1.74-2.18 1.66-2.24 1.59-2.3 1.49-2.36 1.4-2.43 1.33-2.46 1.22-2.53 1.14-2.57 1.03-2.63 0.94-2.67 0.82-2.7 0.74-2.76 0.62-2.79 0.52-2.83 0.41-2.86 0.29-2.88 0.18-2.93 0.06-2.92-0.06-2.89-0.18-2.86-0.29-2.83-0.41-2.8-0.52-2.74-0.62-2.72-0.74-2.66-0.82-2.63-0.94-2.58-1.03-2.52-1.14-2.47-1.22-2.41-1.33-2.37-1.4-2.3-1.49-2.24-1.59-2.18-1.66-2.11-1.74-2.04-1.82-1.97-1.9-1.9-1.97-1.82-2.04-1.74-2.11-1.66-2.18-1.58-2.24-1.5-2.3-1.4-2.37-1.33-2.41-1.22-2.47-1.14-2.52-1.03-2.58-0.93-2.63-0.83-2.66-0.74-2.72-0.62-2.74-0.52-2.8-0.41-2.83-0.29-2.86-0.18-2.89-0.06-2.92 0.06-2.93 0.18-2.88 0.29-2.86 0.41-2.83 0.52-2.79 0.62-2.76 0.74-2.7 0.83-2.67 0.93-2.62 1.03-2.58 1.14-2.53 1.22-2.47 1.33-2.42 1.4-2.36 1.5-2.3 1.58-2.24 1.66-2.18 1.74-2.11 1.82-2.04 1.9-1.98 1.97-1.88 2.04-1.83 2.11-1.74 2.18-1.67 2.24-1.57 2.3-1.5 2.37-1.41 2.41-1.32 2.47-1.22 2.52-1.13 2.58-1.03 2.63-0.94 2.66-0.84 2.72-0.73 2.74-0.63 2.8-0.52 2.83-0.4 2.86-0.29 2.89-0.17 2.92-0.06 2.93 0.06 2.88 0.17zm-10.46 14.18l-2.29 0.24-2.25 0.32-2.24 0.41-2.21 0.5-2.16 0.59-2.14 0.67-2.1 0.75-2.05 0.82-2.02 0.92-1.98 0.96-1.93 1.06-1.9 1.13-1.84 1.2-1.8 1.26-1.73 1.34-1.69 1.38-1.63 1.46-1.59 1.52-1.5 1.58-1.46 1.62-1.4 1.69-1.33 1.75-1.27 1.79-1.19 1.84-1.12 1.89-1.06 1.94-0.98 1.97-0.91 2.02-0.83 2.06-0.75 2.1-0.66 2.13-0.58 2.18-0.51 2.2-0.41 2.23-0.32 2.27-0.24 2.27-0.14 2.33-0.05 2.33 0.05 2.33 0.14 2.32 0.24 2.29 0.32 2.25 0.41 2.24 0.51 2.2 0.58 2.17 0.66 2.14 0.75 2.1 0.83 2.05 0.91 2.02 0.98 1.99 1.06 1.93 1.12 1.89 1.19 1.84 1.27 1.8 1.33 1.73 1.4 1.69 1.46 1.63 1.5 1.59 1.59 1.5 1.63 1.46 1.69 1.4 1.73 1.33 1.8 1.27 1.84 1.19 1.9 1.12 1.93 1.06 1.98 0.98 2.02 0.91 2.05 0.83 2.1 0.75 2.14 0.66 2.16 0.58 2.21 0.51 2.24 0.41 2.25 0.32 2.29 0.24 2.32 0.14 2.33 0.05 2.33-0.05 2.33-0.14 2.27-0.24 2.27-0.32 2.24-0.41 2.2-0.51 2.16-0.58 2.15-0.66 2.09-0.75 2.06-0.83 2.02-0.91 1.97-0.98 1.94-1.06 1.89-1.12 1.84-1.19 1.79-1.27 1.74-1.33 1.7-1.4 1.62-1.46 1.58-1.5 1.52-1.59 1.46-1.63 1.4-1.69 1.32-1.73 1.27-1.8 1.19-1.84 1.13-1.89 1.06-1.93 0.97-1.99 0.91-2.02 0.82-2.05 0.75-2.1 0.67-2.14 0.59-2.17 0.5-2.2 0.41-2.24 0.33-2.25 0.23-2.29 0.14-2.32 0.05-2.33-0.05-2.33-0.14-2.33-0.23-2.27-0.33-2.27-0.41-2.23-0.5-2.2-0.59-2.18-0.67-2.13-0.75-2.1-0.82-2.06-0.91-2.02-0.97-1.97-1.06-1.94-1.13-1.89-1.19-1.84-1.27-1.79-1.32-1.75-1.4-1.69-1.46-1.62-1.52-1.58-1.58-1.52-1.62-1.46-1.69-1.38-1.75-1.34-1.79-1.26-1.84-1.2-1.89-1.13-1.94-1.06-1.97-0.96-2.02-0.92-2.06-0.82-2.09-0.75-2.15-0.67-2.16-0.59-2.2-0.5-2.24-0.41-2.27-0.32-2.27-0.24-2.33-0.14-2.33-0.05-2.33 0.05-2.32 0.14z"/>
<path id="da" d="m146.03 162.17c27.08 0 49.03-21.94 49.03-49.02 0-27.07-21.95-49.03-49.03-49.03-27.07 0-49.02 21.96-49.02 49.03 0 27.08 21.95 49.02 49.02 49.02z"/>
<path id="az" d="m146.03 162.17c27.08 0 49.03-21.94 49.03-49.02 0-27.07-21.95-49.03-49.03-49.03-27.07 0-49.02 21.96-49.02 49.03 0 27.08 21.95 49.02 49.02 49.02z"/>
<path id="bx" d="m146.03 162.17c27.08 0 49.03-21.94 49.03-49.02 0-27.07-21.95-49.03-49.03-49.03-27.07 0-49.02 21.96-49.02 49.03 0 27.08 21.95 49.02 49.02 49.02z"/>
<path id="df" d="m146.03 162.17c27.08 0 49.03-21.94 49.03-49.02 0-27.07-21.95-49.03-49.03-49.03-27.07 0-49.02 21.96-49.02 49.03 0 27.08 21.95 49.02 49.02 49.02z"/>
<path id="bd" d="m147.23 149.31c-20.96 0-36.55-13.95-36.55-36.12 0.35-22.25 16.39-36.2 36.9-36.2 7.37 0 12.72 1.66 18.5 4.56-0.67 1.1-5.92 10-6.58 11.11-3.24-1.22-7.01-2.02-10.68-2.02-12.35 0-22.18 7.8-22.18 22.63 0 13.86 9.46 22.45 22.61 22.45 3.67 0 7.37-0.79 10.68-2.01 0.71 1.07 6.31 9.62 7.01 10.7-6.13 3.25-12.7 4.9-19.71 4.9z"/>
<path id="l" d="m147.23 149.31c-20.96 0-36.55-13.95-36.55-36.12 0.35-22.25 16.39-36.2 36.9-36.2 7.37 0 12.72 1.66 18.5 4.56-0.67 1.1-5.92 10-6.58 11.11-3.24-1.22-7.01-2.02-10.68-2.02-12.35 0-22.18 7.8-22.18 22.63 0 13.86 9.46 22.45 22.61 22.45 3.67 0 7.37-0.79 10.68-2.01 0.71 1.07 6.31 9.62 7.01 10.7-6.13 3.25-12.7 4.9-19.71 4.9z"/>
<path id="bq" d="m146.54 177.17c35.36 0 64.03-28.67 64.03-64.02 0-35.36-28.67-64.03-64.03-64.03s-64.02 28.67-64.02 64.03c0 35.35 28.66 64.02 64.02 64.02z"/>
<path id="ad" d="m152.35 42.25l2.86 0.29 2.83 0.4 2.79 0.52 2.76 0.63 2.7 0.73 2.67 0.84 2.63 0.94 2.57 1.03 2.53 1.13 2.46 1.22 2.43 1.32 2.36 1.41 2.3 1.5 2.24 1.57 2.18 1.67 2.11 1.74 2.04 1.83 1.97 1.88 1.89 1.98 1.83 2.04 1.74 2.11 1.67 2.18 1.57 2.24 1.5 2.3 1.41 2.36 1.32 2.42 1.23 2.47 1.12 2.53 1.03 2.58 0.94 2.62 0.84 2.67 0.73 2.7 0.63 2.76 0.51 2.79 0.41 2.83 0.3 2.86 0.17 2.88 0.06 2.93-0.06 2.92-0.17 2.89-0.3 2.86-0.41 2.83-0.51 2.8-0.63 2.74-0.73 2.72-0.84 2.66-0.94 2.63-1.03 2.58-1.12 2.52-1.23 2.47-1.32 2.41-1.41 2.37-1.5 2.3-1.57 2.24-1.67 2.18-1.74 2.11-1.83 2.04-1.89 1.97-1.97 1.9-2.04 1.82-2.11 1.74-2.18 1.66-2.24 1.59-2.3 1.49-2.36 1.4-2.43 1.33-2.46 1.22-2.53 1.14-2.57 1.03-2.63 0.94-2.67 0.82-2.7 0.74-2.76 0.62-2.79 0.52-2.83 0.41-2.86 0.29-2.88 0.18-2.93 0.06-2.92-0.06-2.89-0.18-2.86-0.29-2.83-0.41-2.8-0.52-2.74-0.62-2.72-0.74-2.66-0.82-2.63-0.94-2.58-1.03-2.52-1.14-2.47-1.22-2.41-1.33-2.37-1.4-2.3-1.49-2.24-1.59-2.18-1.66-2.11-1.74-2.04-1.82-1.97-1.9-1.9-1.97-1.82-2.04-1.74-2.11-1.66-2.18-1.58-2.24-1.5-2.3-1.4-2.37-1.33-2.41-1.22-2.47-1.14-2.52-1.03-2.58-0.93-2.63-0.83-2.66-0.74-2.72-0.62-2.74-0.52-2.8-0.41-2.83-0.29-2.86-0.18-2.89-0.06-2.92 0.06-2.93 0.18-2.88 0.29-2.86 0.41-2.83 0.52-2.79 0.62-2.76 0.74-2.7 0.83-2.67 0.93-2.62 1.03-2.58 1.14-2.53 1.22-2.47 1.33-2.42 1.4-2.36 1.5-2.3 1.58-2.24 1.66-2.18 1.74-2.11 1.82-2.04 1.9-1.98 1.97-1.88 2.04-1.83 2.11-1.74 2.18-1.67 2.24-1.57 2.3-1.5 2.37-1.41 2.41-1.32 2.47-1.22 2.52-1.13 2.58-1.03 2.63-0.94 2.66-0.84 2.72-0.73 2.74-0.63 2.8-0.52 2.83-0.4 2.86-0.29 2.89-0.17 2.92-0.06 2.93 0.06 2.88 0.17zm-10.46 14.18l-2.29 0.24-2.25 0.32-2.24 0.41-2.21 0.5-2.16 0.59-2.14 0.67-2.1 0.75-2.05 0.82-2.02 0.92-1.98 0.96-1.93 1.06-1.9 1.13-1.84 1.2-1.8 1.26-1.73 1.34-1.69 1.38-1.63 1.46-1.59 1.52-1.5 1.58-1.46 1.62-1.4 1.69-1.33 1.75-1.27 1.79-1.19 1.84-1.12 1.89-1.06 1.94-0.98 1.97-0.91 2.02-0.83 2.06-0.75 2.1-0.66 2.13-0.58 2.18-0.51 2.2-0.41 2.23-0.32 2.27-0.24 2.27-0.14 2.33-0.05 2.33 0.05 2.33 0.14 2.32 0.24 2.29 0.32 2.25 0.41 2.24 0.51 2.2 0.58 2.17 0.66 2.14 0.75 2.1 0.83 2.05 0.91 2.02 0.98 1.99 1.06 1.93 1.12 1.89 1.19 1.84 1.27 1.8 1.33 1.73 1.4 1.69 1.46 1.63 1.5 1.59 1.59 1.5 1.63 1.46 1.69 1.4 1.73 1.33 1.8 1.27 1.84 1.19 1.9 1.12 1.93 1.06 1.98 0.98 2.02 0.91 2.05 0.83 2.1 0.75 2.14 0.66 2.16 0.58 2.21 0.51 2.24 0.41 2.25 0.32 2.29 0.24 2.32 0.14 2.33 0.05 2.33-0.05 2.33-0.14 2.27-0.24 2.27-0.32 2.24-0.41 2.2-0.51 2.16-0.58 2.15-0.66 2.09-0.75 2.06-0.83 2.02-0.91 1.97-0.98 1.94-1.06 1.89-1.12 1.84-1.19 1.79-1.27 1.74-1.33 1.7-1.4 1.62-1.46 1.58-1.5 1.52-1.59 1.46-1.63 1.4-1.69 1.32-1.73 1.27-1.8 1.19-1.84 1.13-1.89 1.06-1.93 0.97-1.99 0.91-2.02 0.82-2.05 0.75-2.1 0.67-2.14 0.59-2.17 0.5-2.2 0.41-2.24 0.33-2.25 0.23-2.29 0.14-2.32 0.05-2.33-0.05-2.33-0.14-2.33-0.23-2.27-0.33-2.27-0.41-2.23-0.5-2.2-0.59-2.18-0.67-2.13-0.75-2.1-0.82-2.06-0.91-2.02-0.97-1.97-1.06-1.94-1.13-1.89-1.19-1.84-1.27-1.79-1.32-1.75-1.4-1.69-1.46-1.62-1.52-1.58-1.58-1.52-1.62-1.46-1.69-1.38-1.75-1.34-1.79-1.26-1.84-1.2-1.89-1.13-1.94-1.06-1.97-0.96-2.02-0.92-2.06-0.82-2.09-0.75-2.15-0.67-2.16-0.59-2.2-0.5-2.24-0.41-2.27-0.32-2.27-0.24-2.33-0.14-2.33-0.05-2.33 0.05-2.32 0.14z"/>
<path id="cq" d="m504.69 353.44c35.36 0 64.02-28.66 64.02-64.02s-28.66-64.02-64.02-64.02c-35.37 0-64.02 28.66-64.02 64.02s28.65 64.02 64.02 64.02z"/>
<path id="ba" d="m504.69 353.44c35.36 0 64.02-28.66 64.02-64.02s-28.66-64.02-64.02-64.02c-35.37 0-64.02 28.66-64.02 64.02s28.65 64.02 64.02 64.02z"/>
<path id="bl" d="m510.5 218.52l2.86 0.3 2.82 0.4 2.8 0.51 2.75 0.63 2.71 0.73 2.67 0.84 2.62 0.94 2.58 1.03 2.52 1.13 2.47 1.22 2.43 1.32 2.35 1.41 2.31 1.5 2.24 1.58 2.17 1.66 2.12 1.74 2.04 1.83 1.96 1.89 1.9 1.97 1.83 2.04 1.74 2.12 1.66 2.17 1.58 2.24 1.5 2.31 1.41 2.35 1.31 2.42 1.23 2.47 1.13 2.53 1.03 2.58 0.95 2.62 0.83 2.67 0.73 2.7 0.62 2.76 0.51 2.79 0.41 2.83 0.3 2.86 0.18 2.88 0.05 2.93-0.05 2.92-0.18 2.89-0.3 2.87-0.41 2.82-0.51 2.8-0.62 2.74-0.73 2.72-0.83 2.66-0.95 2.63-1.03 2.58-1.13 2.52-1.23 2.47-1.31 2.42-1.41 2.36-1.5 2.3-1.58 2.25-1.66 2.17-1.74 2.11-1.83 2.05-1.9 1.96-1.96 1.9-2.04 1.82-2.12 1.74-2.17 1.66-2.24 1.59-2.31 1.49-2.35 1.41-2.43 1.32-2.47 1.22-2.52 1.14-2.58 1.03-2.62 0.94-2.67 0.83-2.71 0.73-2.75 0.62-2.8 0.52-2.82 0.41-2.86 0.29-2.88 0.18-2.93 0.06-2.93-0.06-2.88-0.18-2.87-0.29-2.82-0.41-2.79-0.52-2.75-0.62-2.72-0.73-2.67-0.83-2.62-0.94-2.58-1.03-2.51-1.14-2.48-1.22-2.42-1.32-2.35-1.41-2.31-1.49-2.25-1.59-2.17-1.66-2.11-1.74-2.05-1.82-1.96-1.9-1.9-1.96-1.82-2.05-1.75-2.11-1.65-2.17-1.58-2.25-1.5-2.3-1.41-2.36-1.32-2.42-1.22-2.47-1.13-2.52-1.04-2.58-0.94-2.63-0.83-2.66-0.73-2.72-0.62-2.74-0.52-2.8-0.41-2.82-0.29-2.87-0.18-2.89-0.06-2.92 0.06-2.93 0.18-2.88 0.29-2.86 0.41-2.83 0.52-2.79 0.62-2.76 0.73-2.7 0.83-2.67 0.94-2.62 1.04-2.58 1.13-2.53 1.22-2.47 1.32-2.42 1.41-2.35 1.5-2.31 1.58-2.24 1.65-2.17 1.75-2.12 1.82-2.04 1.9-1.97 1.96-1.89 2.05-1.83 2.11-1.74 2.17-1.66 2.25-1.58 2.31-1.5 2.35-1.41 2.42-1.32 2.48-1.22 2.51-1.13 2.58-1.03 2.62-0.94 2.67-0.84 2.72-0.73 2.75-0.63 2.79-0.51 2.82-0.4 2.87-0.3 2.88-0.17 2.93-0.06 2.93 0.06 2.88 0.17zm-10.46 14.18l-2.29 0.24-2.26 0.32-2.23 0.41-2.21 0.5-2.16 0.59-2.14 0.67-2.1 0.75-2.06 0.82-2.01 0.92-1.98 0.97-1.94 1.05-1.89 1.13-1.84 1.2-1.8 1.26-1.74 1.34-1.68 1.38-1.63 1.46-1.58 1.52-1.52 1.58-1.45 1.62-1.4 1.69-1.33 1.75-1.27 1.79-1.2 1.84-1.11 1.89-1.06 1.94-0.98 1.98-0.91 2.01-0.83 2.06-0.75 2.11-0.67 2.12-0.58 2.18-0.51 2.2-0.4 2.23-0.32 2.27-0.23 2.28-0.15 2.32-0.05 2.33 0.05 2.34 0.15 2.31 0.23 2.29 0.32 2.25 0.4 2.24 0.51 2.2 0.58 2.17 0.67 2.14 0.75 2.1 0.83 2.06 0.91 2.01 0.98 1.99 1.06 1.93 1.11 1.89 1.2 1.84 1.27 1.8 1.33 1.74 1.4 1.68 1.45 1.63 1.52 1.59 1.58 1.51 1.63 1.45 1.68 1.4 1.74 1.33 1.8 1.27 1.84 1.2 1.89 1.11 1.94 1.06 1.98 0.98 2.01 0.91 2.06 0.83 2.1 0.75 2.14 0.67 2.16 0.58 2.21 0.5 2.23 0.41 2.26 0.32 2.29 0.24 2.31 0.14 2.34 0.05 2.34-0.05 2.31-0.14 2.29-0.24 2.26-0.32 2.23-0.41 2.21-0.5 2.16-0.58 2.14-0.67 2.1-0.75 2.06-0.83 2.01-0.91 1.98-0.98 1.94-1.06 1.88-1.11 1.85-1.2 1.79-1.27 1.74-1.33 1.69-1.4 1.63-1.45 1.58-1.51 1.52-1.59 1.45-1.63 1.4-1.68 1.33-1.74 1.27-1.8 1.19-1.84 1.13-1.89 1.05-1.93 0.98-1.99 0.91-2.01 0.82-2.06 0.75-2.1 0.67-2.14 0.59-2.17 0.5-2.2 0.42-2.24 0.31-2.25 0.23-2.29 0.14-2.31 0.05-2.34-0.05-2.33-0.14-2.32-0.23-2.28-0.31-2.27-0.42-2.23-0.5-2.2-0.59-2.18-0.67-2.12-0.75-2.11-0.82-2.06-0.91-2.01-0.98-1.98-1.05-1.94-1.13-1.89-1.19-1.84-1.27-1.79-1.33-1.75-1.4-1.69-1.45-1.62-1.52-1.58-1.58-1.52-1.63-1.46-1.68-1.38-1.75-1.34-1.79-1.26-1.85-1.2-1.88-1.13-1.94-1.05-1.98-0.97-2.01-0.92-2.06-0.82-2.1-0.75-2.14-0.67-2.16-0.59-2.21-0.5-2.23-0.41-2.26-0.32-2.29-0.24-2.31-0.13-2.34-0.05-2.34 0.05-2.31 0.13z"/>
<path id="c" d="m510.5 218.52l2.86 0.3 2.82 0.4 2.8 0.51 2.75 0.63 2.71 0.73 2.67 0.84 2.62 0.94 2.58 1.03 2.52 1.13 2.47 1.22 2.43 1.32 2.35 1.41 2.31 1.5 2.24 1.58 2.17 1.66 2.12 1.74 2.04 1.83 1.96 1.89 1.9 1.97 1.83 2.04 1.74 2.12 1.66 2.17 1.58 2.24 1.5 2.31 1.41 2.35 1.31 2.42 1.23 2.47 1.13 2.53 1.03 2.58 0.95 2.62 0.83 2.67 0.73 2.7 0.62 2.76 0.51 2.79 0.41 2.83 0.3 2.86 0.18 2.88 0.05 2.93-0.05 2.92-0.18 2.89-0.3 2.87-0.41 2.82-0.51 2.8-0.62 2.74-0.73 2.72-0.83 2.66-0.95 2.63-1.03 2.58-1.13 2.52-1.23 2.47-1.31 2.42-1.41 2.36-1.5 2.3-1.58 2.25-1.66 2.17-1.74 2.11-1.83 2.05-1.9 1.96-1.96 1.9-2.04 1.82-2.12 1.74-2.17 1.66-2.24 1.59-2.31 1.49-2.35 1.41-2.43 1.32-2.47 1.22-2.52 1.14-2.58 1.03-2.62 0.94-2.67 0.83-2.71 0.73-2.75 0.62-2.8 0.52-2.82 0.41-2.86 0.29-2.88 0.18-2.93 0.06-2.93-0.06-2.88-0.18-2.87-0.29-2.82-0.41-2.79-0.52-2.75-0.62-2.72-0.73-2.67-0.83-2.62-0.94-2.58-1.03-2.51-1.14-2.48-1.22-2.42-1.32-2.35-1.41-2.31-1.49-2.25-1.59-2.17-1.66-2.11-1.74-2.05-1.82-1.96-1.9-1.9-1.96-1.82-2.05-1.75-2.11-1.65-2.17-1.58-2.25-1.5-2.3-1.41-2.36-1.32-2.42-1.22-2.47-1.13-2.52-1.04-2.58-0.94-2.63-0.83-2.66-0.73-2.72-0.62-2.74-0.52-2.8-0.41-2.82-0.29-2.87-0.18-2.89-0.06-2.92 0.06-2.93 0.18-2.88 0.29-2.86 0.41-2.83 0.52-2.79 0.62-2.76 0.73-2.7 0.83-2.67 0.94-2.62 1.04-2.58 1.13-2.53 1.22-2.47 1.32-2.42 1.41-2.35 1.5-2.31 1.58-2.24 1.65-2.17 1.75-2.12 1.82-2.04 1.9-1.97 1.96-1.89 2.05-1.83 2.11-1.74 2.17-1.66 2.25-1.58 2.31-1.5 2.35-1.41 2.42-1.32 2.48-1.22 2.51-1.13 2.58-1.03 2.62-0.94 2.67-0.84 2.72-0.73 2.75-0.63 2.79-0.51 2.82-0.4 2.87-0.3 2.88-0.17 2.93-0.06 2.93 0.06 2.88 0.17zm-10.46 14.18l-2.29 0.24-2.26 0.32-2.23 0.41-2.21 0.5-2.16 0.59-2.14 0.67-2.1 0.75-2.06 0.82-2.01 0.92-1.98 0.97-1.94 1.05-1.89 1.13-1.84 1.2-1.8 1.26-1.74 1.34-1.68 1.38-1.63 1.46-1.58 1.52-1.52 1.58-1.45 1.62-1.4 1.69-1.33 1.75-1.27 1.79-1.2 1.84-1.11 1.89-1.06 1.94-0.98 1.98-0.91 2.01-0.83 2.06-0.75 2.11-0.67 2.12-0.58 2.18-0.51 2.2-0.4 2.23-0.32 2.27-0.23 2.28-0.15 2.32-0.05 2.33 0.05 2.34 0.15 2.31 0.23 2.29 0.32 2.25 0.4 2.24 0.51 2.2 0.58 2.17 0.67 2.14 0.75 2.1 0.83 2.06 0.91 2.01 0.98 1.99 1.06 1.93 1.11 1.89 1.2 1.84 1.27 1.8 1.33 1.74 1.4 1.68 1.45 1.63 1.52 1.59 1.58 1.51 1.63 1.45 1.68 1.4 1.74 1.33 1.8 1.27 1.84 1.2 1.89 1.11 1.94 1.06 1.98 0.98 2.01 0.91 2.06 0.83 2.1 0.75 2.14 0.67 2.16 0.58 2.21 0.5 2.23 0.41 2.26 0.32 2.29 0.24 2.31 0.14 2.34 0.05 2.34-0.05 2.31-0.14 2.29-0.24 2.26-0.32 2.23-0.41 2.21-0.5 2.16-0.58 2.14-0.67 2.1-0.75 2.06-0.83 2.01-0.91 1.98-0.98 1.94-1.06 1.88-1.11 1.85-1.2 1.79-1.27 1.74-1.33 1.69-1.4 1.63-1.45 1.58-1.51 1.52-1.59 1.45-1.63 1.4-1.68 1.33-1.74 1.27-1.8 1.19-1.84 1.13-1.89 1.05-1.93 0.98-1.99 0.91-2.01 0.82-2.06 0.75-2.1 0.67-2.14 0.59-2.17 0.5-2.2 0.42-2.24 0.31-2.25 0.23-2.29 0.14-2.31 0.05-2.34-0.05-2.33-0.14-2.32-0.23-2.28-0.31-2.27-0.42-2.23-0.5-2.2-0.59-2.18-0.67-2.12-0.75-2.11-0.82-2.06-0.91-2.01-0.98-1.98-1.05-1.94-1.13-1.89-1.19-1.84-1.27-1.79-1.33-1.75-1.4-1.69-1.45-1.62-1.52-1.58-1.58-1.52-1.63-1.46-1.68-1.38-1.75-1.34-1.79-1.26-1.85-1.2-1.88-1.13-1.94-1.05-1.98-0.97-2.01-0.92-2.06-0.82-2.1-0.75-2.14-0.67-2.16-0.59-2.21-0.5-2.23-0.41-2.26-0.32-2.29-0.24-2.31-0.13-2.34-0.05-2.34 0.05-2.31 0.13z"/>
<path id="t" d="m504.69 353.44c35.36 0 64.02-28.66 64.02-64.02s-28.66-64.02-64.02-64.02c-35.37 0-64.02 28.66-64.02 64.02s28.65 64.02 64.02 64.02z"/>
<path id="aj" d="m504.69 353.44c35.36 0 64.02-28.66 64.02-64.02s-28.66-64.02-64.02-64.02c-35.37 0-64.02 28.66-64.02 64.02s28.65 64.02 64.02 64.02z"/>
<path id="n" d="m510.5 218.52l2.86 0.3 2.82 0.4 2.8 0.51 2.75 0.63 2.71 0.73 2.67 0.84 2.62 0.94 2.58 1.03 2.52 1.13 2.47 1.22 2.43 1.32 2.35 1.41 2.31 1.5 2.24 1.58 2.17 1.66 2.12 1.74 2.04 1.83 1.96 1.89 1.9 1.97 1.83 2.04 1.74 2.12 1.66 2.17 1.58 2.24 1.5 2.31 1.41 2.35 1.31 2.42 1.23 2.47 1.13 2.53 1.03 2.58 0.95 2.62 0.83 2.67 0.73 2.7 0.62 2.76 0.51 2.79 0.41 2.83 0.3 2.86 0.18 2.88 0.05 2.93-0.05 2.92-0.18 2.89-0.3 2.87-0.41 2.82-0.51 2.8-0.62 2.74-0.73 2.72-0.83 2.66-0.95 2.63-1.03 2.58-1.13 2.52-1.23 2.47-1.31 2.42-1.41 2.36-1.5 2.3-1.58 2.25-1.66 2.17-1.74 2.11-1.83 2.05-1.9 1.96-1.96 1.9-2.04 1.82-2.12 1.74-2.17 1.66-2.24 1.59-2.31 1.49-2.35 1.41-2.43 1.32-2.47 1.22-2.52 1.14-2.58 1.03-2.62 0.94-2.67 0.83-2.71 0.73-2.75 0.62-2.8 0.52-2.82 0.41-2.86 0.29-2.88 0.18-2.93 0.06-2.93-0.06-2.88-0.18-2.87-0.29-2.82-0.41-2.79-0.52-2.75-0.62-2.72-0.73-2.67-0.83-2.62-0.94-2.58-1.03-2.51-1.14-2.48-1.22-2.42-1.32-2.35-1.41-2.31-1.49-2.25-1.59-2.17-1.66-2.11-1.74-2.05-1.82-1.96-1.9-1.9-1.96-1.82-2.05-1.75-2.11-1.65-2.17-1.58-2.25-1.5-2.3-1.41-2.36-1.32-2.42-1.22-2.47-1.13-2.52-1.04-2.58-0.94-2.63-0.83-2.66-0.73-2.72-0.62-2.74-0.52-2.8-0.41-2.82-0.29-2.87-0.18-2.89-0.06-2.92 0.06-2.93 0.18-2.88 0.29-2.86 0.41-2.83 0.52-2.79 0.62-2.76 0.73-2.7 0.83-2.67 0.94-2.62 1.04-2.58 1.13-2.53 1.22-2.47 1.32-2.42 1.41-2.35 1.5-2.31 1.58-2.24 1.65-2.17 1.75-2.12 1.82-2.04 1.9-1.97 1.96-1.89 2.05-1.83 2.11-1.74 2.17-1.66 2.25-1.58 2.31-1.5 2.35-1.41 2.42-1.32 2.48-1.22 2.51-1.13 2.58-1.03 2.62-0.94 2.67-0.84 2.72-0.73 2.75-0.63 2.79-0.51 2.82-0.4 2.87-0.3 2.88-0.17 2.93-0.06 2.93 0.06 2.88 0.17zm-10.46 14.18l-2.29 0.24-2.26 0.32-2.23 0.41-2.21 0.5-2.16 0.59-2.14 0.67-2.1 0.75-2.06 0.82-2.01 0.92-1.98 0.97-1.94 1.05-1.89 1.13-1.84 1.2-1.8 1.26-1.74 1.34-1.68 1.38-1.63 1.46-1.58 1.52-1.52 1.58-1.45 1.62-1.4 1.69-1.33 1.75-1.27 1.79-1.2 1.84-1.11 1.89-1.06 1.94-0.98 1.98-0.91 2.01-0.83 2.06-0.75 2.11-0.67 2.12-0.58 2.18-0.51 2.2-0.4 2.23-0.32 2.27-0.23 2.28-0.15 2.32-0.05 2.33 0.05 2.34 0.15 2.31 0.23 2.29 0.32 2.25 0.4 2.24 0.51 2.2 0.58 2.17 0.67 2.14 0.75 2.1 0.83 2.06 0.91 2.01 0.98 1.99 1.06 1.93 1.11 1.89 1.2 1.84 1.27 1.8 1.33 1.74 1.4 1.68 1.45 1.63 1.52 1.59 1.58 1.51 1.63 1.45 1.68 1.4 1.74 1.33 1.8 1.27 1.84 1.2 1.89 1.11 1.94 1.06 1.98 0.98 2.01 0.91 2.06 0.83 2.1 0.75 2.14 0.67 2.16 0.58 2.21 0.5 2.23 0.41 2.26 0.32 2.29 0.24 2.31 0.14 2.34 0.05 2.34-0.05 2.31-0.14 2.29-0.24 2.26-0.32 2.23-0.41 2.21-0.5 2.16-0.58 2.14-0.67 2.1-0.75 2.06-0.83 2.01-0.91 1.98-0.98 1.94-1.06 1.88-1.11 1.85-1.2 1.79-1.27 1.74-1.33 1.69-1.4 1.63-1.45 1.58-1.51 1.52-1.59 1.45-1.63 1.4-1.68 1.33-1.74 1.27-1.8 1.19-1.84 1.13-1.89 1.05-1.93 0.98-1.99 0.91-2.01 0.82-2.06 0.75-2.1 0.67-2.14 0.59-2.17 0.5-2.2 0.42-2.24 0.31-2.25 0.23-2.29 0.14-2.31 0.05-2.34-0.05-2.33-0.14-2.32-0.23-2.28-0.31-2.27-0.42-2.23-0.5-2.2-0.59-2.18-0.67-2.12-0.75-2.11-0.82-2.06-0.91-2.01-0.98-1.98-1.05-1.94-1.13-1.89-1.19-1.84-1.27-1.79-1.33-1.75-1.4-1.69-1.45-1.62-1.52-1.58-1.58-1.52-1.63-1.46-1.68-1.38-1.75-1.34-1.79-1.26-1.85-1.2-1.88-1.13-1.94-1.05-1.98-0.97-2.01-0.92-2.06-0.82-2.1-0.75-2.14-0.67-2.16-0.59-2.21-0.5-2.23-0.41-2.26-0.32-2.29-0.24-2.31-0.13-2.34-0.05-2.34 0.05-2.31 0.13z"/>
<path id="cg" d="m510.5 218.52l2.86 0.3 2.82 0.4 2.8 0.51 2.75 0.63 2.71 0.73 2.67 0.84 2.62 0.94 2.58 1.03 2.52 1.13 2.47 1.22 2.43 1.32 2.35 1.41 2.31 1.5 2.24 1.58 2.17 1.66 2.12 1.74 2.04 1.83 1.96 1.89 1.9 1.97 1.83 2.04 1.74 2.12 1.66 2.17 1.58 2.24 1.5 2.31 1.41 2.35 1.31 2.42 1.23 2.47 1.13 2.53 1.03 2.58 0.95 2.62 0.83 2.67 0.73 2.7 0.62 2.76 0.51 2.79 0.41 2.83 0.3 2.86 0.18 2.88 0.05 2.93-0.05 2.92-0.18 2.89-0.3 2.87-0.41 2.82-0.51 2.8-0.62 2.74-0.73 2.72-0.83 2.66-0.95 2.63-1.03 2.58-1.13 2.52-1.23 2.47-1.31 2.42-1.41 2.36-1.5 2.3-1.58 2.25-1.66 2.17-1.74 2.11-1.83 2.05-1.9 1.96-1.96 1.9-2.04 1.82-2.12 1.74-2.17 1.66-2.24 1.59-2.31 1.49-2.35 1.41-2.43 1.32-2.47 1.22-2.52 1.14-2.58 1.03-2.62 0.94-2.67 0.83-2.71 0.73-2.75 0.62-2.8 0.52-2.82 0.41-2.86 0.29-2.88 0.18-2.93 0.06-2.93-0.06-2.88-0.18-2.87-0.29-2.82-0.41-2.79-0.52-2.75-0.62-2.72-0.73-2.67-0.83-2.62-0.94-2.58-1.03-2.51-1.14-2.48-1.22-2.42-1.32-2.35-1.41-2.31-1.49-2.25-1.59-2.17-1.66-2.11-1.74-2.05-1.82-1.96-1.9-1.9-1.96-1.82-2.05-1.75-2.11-1.65-2.17-1.58-2.25-1.5-2.3-1.41-2.36-1.32-2.42-1.22-2.47-1.13-2.52-1.04-2.58-0.94-2.63-0.83-2.66-0.73-2.72-0.62-2.74-0.52-2.8-0.41-2.82-0.29-2.87-0.18-2.89-0.06-2.92 0.06-2.93 0.18-2.88 0.29-2.86 0.41-2.83 0.52-2.79 0.62-2.76 0.73-2.7 0.83-2.67 0.94-2.62 1.04-2.58 1.13-2.53 1.22-2.47 1.32-2.42 1.41-2.35 1.5-2.31 1.58-2.24 1.65-2.17 1.75-2.12 1.82-2.04 1.9-1.97 1.96-1.89 2.05-1.83 2.11-1.74 2.17-1.66 2.25-1.58 2.31-1.5 2.35-1.41 2.42-1.32 2.48-1.22 2.51-1.13 2.58-1.03 2.62-0.94 2.67-0.84 2.72-0.73 2.75-0.63 2.79-0.51 2.82-0.4 2.87-0.3 2.88-0.17 2.93-0.06 2.93 0.06 2.88 0.17zm-10.46 14.18l-2.29 0.24-2.26 0.32-2.23 0.41-2.21 0.5-2.16 0.59-2.14 0.67-2.1 0.75-2.06 0.82-2.01 0.92-1.98 0.97-1.94 1.05-1.89 1.13-1.84 1.2-1.8 1.26-1.74 1.34-1.68 1.38-1.63 1.46-1.58 1.52-1.52 1.58-1.45 1.62-1.4 1.69-1.33 1.75-1.27 1.79-1.2 1.84-1.11 1.89-1.06 1.94-0.98 1.98-0.91 2.01-0.83 2.06-0.75 2.11-0.67 2.12-0.58 2.18-0.51 2.2-0.4 2.23-0.32 2.27-0.23 2.28-0.15 2.32-0.05 2.33 0.05 2.34 0.15 2.31 0.23 2.29 0.32 2.25 0.4 2.24 0.51 2.2 0.58 2.17 0.67 2.14 0.75 2.1 0.83 2.06 0.91 2.01 0.98 1.99 1.06 1.93 1.11 1.89 1.2 1.84 1.27 1.8 1.33 1.74 1.4 1.68 1.45 1.63 1.52 1.59 1.58 1.51 1.63 1.45 1.68 1.4 1.74 1.33 1.8 1.27 1.84 1.2 1.89 1.11 1.94 1.06 1.98 0.98 2.01 0.91 2.06 0.83 2.1 0.75 2.14 0.67 2.16 0.58 2.21 0.5 2.23 0.41 2.26 0.32 2.29 0.24 2.31 0.14 2.34 0.05 2.34-0.05 2.31-0.14 2.29-0.24 2.26-0.32 2.23-0.41 2.21-0.5 2.16-0.58 2.14-0.67 2.1-0.75 2.06-0.83 2.01-0.91 1.98-0.98 1.94-1.06 1.88-1.11 1.85-1.2 1.79-1.27 1.74-1.33 1.69-1.4 1.63-1.45 1.58-1.51 1.52-1.59 1.45-1.63 1.4-1.68 1.33-1.74 1.27-1.8 1.19-1.84 1.13-1.89 1.05-1.93 0.98-1.99 0.91-2.01 0.82-2.06 0.75-2.1 0.67-2.14 0.59-2.17 0.5-2.2 0.42-2.24 0.31-2.25 0.23-2.29 0.14-2.31 0.05-2.34-0.05-2.33-0.14-2.32-0.23-2.28-0.31-2.27-0.42-2.23-0.5-2.2-0.59-2.18-0.67-2.12-0.75-2.11-0.82-2.06-0.91-2.01-0.98-1.98-1.05-1.94-1.13-1.89-1.19-1.84-1.27-1.79-1.33-1.75-1.4-1.69-1.45-1.62-1.52-1.58-1.58-1.52-1.63-1.46-1.68-1.38-1.75-1.34-1.79-1.26-1.85-1.2-1.88-1.13-1.94-1.05-1.98-0.97-2.01-0.92-2.06-0.82-2.1-0.75-2.14-0.67-2.16-0.59-2.21-0.5-2.23-0.41-2.26-0.32-2.29-0.24-2.31-0.13-2.34-0.05-2.34 0.05-2.31 0.13z"/>
<path id="dc" d="m504.18 338.44c27.09 0 49.03-21.94 49.03-49.02 0-27.07-21.94-49.03-49.03-49.03-27.07 0-49.02 21.96-49.02 49.03 0 27.08 21.95 49.02 49.02 49.02z"/>
<path id="aq" d="m504.18 338.44c27.09 0 49.03-21.94 49.03-49.02 0-27.07-21.94-49.03-49.03-49.03-27.07 0-49.02 21.96-49.02 49.03 0 27.08 21.95 49.02 49.02 49.02z"/>
<path id="i" d="m504.18 338.44c27.09 0 49.03-21.94 49.03-49.02 0-27.07-21.94-49.03-49.03-49.03-27.07 0-49.02 21.96-49.02 49.03 0 27.08 21.95 49.02 49.02 49.02z"/>
<path id="av" d="m504.18 338.44c27.09 0 49.03-21.94 49.03-49.02 0-27.07-21.94-49.03-49.03-49.03-27.07 0-49.02 21.96-49.02 49.03 0 27.08 21.95 49.02 49.02 49.02z"/>
<path id="bk" d="m507.84 262.91l0.28 0.05 0.13 0.04 0.13 0.03 0.13 0.02 0.14 0.04 0.14 0.03 0.13 0.03 0.28 0.06 0.13 0.03 0.14 0.04 0.13 0.02 0.14 0.04 0.13 0.03 0.28 0.06 0.13 0.03 0.14 0.04 0.14 0.02 0.13 0.04 0.13 0.03 0.14 0.04 0.13 0.02 0.14 0.03 0.14 0.04 0.13 0.03 0.28 0.06 0.12 0.04 0.14 0.03 0.13 0.03 0.14 0.03 0.13 0.04 0.14 0.02 0.13 0.04 0.14 0.04 0.39 0.09 2.69-10.79 6.75 1.68-2.76 11.08 0.64 0.22 1.23 0.46 0.61 0.25 0.59 0.24 0.59 0.26 0.57 0.26 0.57 0.27 0.54 0.27 0.54 0.28 0.52 0.3 0.51 0.29 0.49 0.31 0.48 0.31 0.45 0.32 0.46 0.34 0.43 0.34 0.41 0.35 0.4 0.36 0.38 0.37 0.36 0.37 0.34 0.39 0.33 0.39 0.3 0.41 0.29 0.42 0.26 0.43 0.24 0.44 0.22 0.46 0.2 0.47 0.18 0.48 0.14 0.49 0.13 0.5 0.11 0.5 0.08 0.53 0.05 0.54 0.03 0.55v0.56l-0.02 0.58-0.05 0.6-0.08 0.61h-0.01l-0.06 0.44-0.08 0.43-0.1 0.43-0.09 0.4-0.11 0.4-0.11 0.39-0.12 0.38-0.14 0.37-0.14 0.35-0.14 0.33-0.16 0.34-0.16 0.33-0.17 0.31-0.18 0.3-0.18 0.29-0.2 0.29-0.2 0.27-0.2 0.26-0.22 0.26-0.22 0.24-0.23 0.24-0.23 0.22-0.24 0.23-0.5 0.4-0.26 0.2-0.53 0.35-0.55 0.32-0.28 0.15-0.6 0.27-0.61 0.25-0.31 0.11-0.31 0.1-0.65 0.18-0.32 0.08 0.44 0.24 0.44 0.24 0.43 0.25 0.4 0.25 0.41 0.27 0.39 0.28 0.38 0.29 0.35 0.28 0.35 0.3 0.33 0.3 0.63 0.63 0.3 0.33 0.27 0.34 0.26 0.35 0.25 0.36 0.23 0.36 0.22 0.38 0.2 0.37 0.18 0.4 0.17 0.4 0.15 0.4 0.24 0.86 0.1 0.45 0.07 0.45 0.06 0.46 0.04 0.48 0.02 0.49v0.5l-0.02 0.51-0.03 0.52-0.07 0.53-0.07 0.56-0.1 0.55-0.12 0.56-0.15 0.58-0.17 0.6-0.18 0.61-0.22 0.62-0.27 0.76-0.31 0.73-0.31 0.69-0.34 0.67-0.35 0.63-0.38 0.58-0.39 0.56-0.41 0.53-0.42 0.5-0.44 0.47-0.46 0.43-0.48 0.42-0.49 0.38-0.51 0.35-0.52 0.32-0.55 0.31-0.55 0.27-0.57 0.24-0.59 0.23-0.6 0.2-0.62 0.17-0.61 0.16-0.65 0.13-0.67 0.11-0.67 0.08-0.68 0.07-0.71 0.04-0.71 0.03-0.73 0.01-0.74-0.01-0.74-0.03-0.76-0.04-0.79-0.06-0.78-0.07-0.8-0.09-0.82-0.11-0.82-0.12-0.84-0.13-0.84-0.15-0.86-0.16-2.79 11.19-6.75-1.68 2.76-11.04-0.13-0.03-0.13-0.04-0.14-0.02-0.12-0.04-0.13-0.03-0.14-0.04-0.26-0.06-0.13-0.04-0.14-0.03-0.13-0.03-0.14-0.04-0.13-0.04-0.13-0.02-0.26-0.08-0.14-0.03-0.13-0.03-0.14-0.04-0.13-0.04-0.14-0.02-0.14-0.04-0.13-0.04-0.13-0.03-0.13-0.04-0.14-0.03-0.14-0.04-0.13-0.03-0.42-0.11-0.13-0.04-1.1-0.3-2.76 11.09-6.74-1.67 2.79-11.22-13.58-3.42 3.35-7.74 0.08 0.02 0.06 0.02 0.07 0.02 0.09 0.02 0.1 0.03 0.11 0.03 0.12 0.03 0.14 0.04 0.15 0.03 0.15 0.05 0.17 0.04 0.33 0.09 0.17 0.05 0.19 0.04 0.17 0.05 0.19 0.05 0.19 0.04 0.19 0.06 0.18 0.04 0.36 0.1 0.18 0.04 0.16 0.04 0.16 0.04 0.16 0.04 0.29 0.08 0.13 0.02 0.12 0.03 0.11 0.03 0.1 0.02 0.09 0.02 0.12 0.02 0.04 0.01h0.02l0.01-0.01 0.14 0.04 0.14 0.02 0.13 0.03 0.26 0.01h0.24l0.22-0.01 0.11-0.02 0.1-0.02 0.2-0.06 0.1-0.02 0.09-0.04 0.08-0.05 0.09-0.03 0.08-0.06 0.16-0.1 0.07-0.05 0.14-0.12 0.18-0.18 0.06-0.07 0.04-0.06 0.15-0.2 0.05-0.08 0.04-0.06 0.03-0.08 0.11-0.19 0.09-0.19 7.56-30.36 0.01-0.11v-0.33l-0.01-0.11v-0.11l-0.02-0.12-0.01-0.11-0.02-0.11-0.01-0.12-0.03-0.11-0.03-0.12-0.11-0.34-0.05-0.12-0.11-0.22-0.06-0.11-0.07-0.1-0.06-0.11-0.17-0.2-0.08-0.11-0.19-0.2-0.11-0.09-0.12-0.09-0.11-0.1-0.13-0.09-0.26-0.16-0.15-0.08-0.32-0.15-0.17-0.07-0.36-0.12-0.2-0.06-0.2-0.05v-0.01l-0.05-0.03-0.06-0.02-0.06-0.01-0.09-0.03-0.2-0.06-0.12-0.03-0.14-0.03-0.14-0.04-0.3-0.08-0.17-0.04-0.17-0.05-0.18-0.03-0.18-0.05-0.36-0.09-0.18-0.04-0.55-0.14-0.18-0.03-0.18-0.05-0.5-0.1-0.3-0.07-0.14-0.03-0.12-0.04-0.12-0.02-0.1-0.03-0.08-0.01-0.08-0.02-0.06-0.02-0.05-0.01-0.03-0.01 1.8-7.2 13.6 3.37 2.75-11.08 6.75 1.68-2.71 10.87zm-9.37 43.38l1.5 0.39 1.71 0.42 1.88 0.42 1.98 0.35 2.03 0.25 2 0.1 1.94-0.09 1.81-0.33 1.6-0.6 1.36-0.93 1.06-1.29 0.69-1.71 0.21-1.91-0.3-1.69-0.77-1.48-1.14-1.3-1.43-1.13-1.67-0.98-1.83-0.83-1.92-0.7-1.91-0.59-1.86-0.5-1.72-0.4-1.5-0.34-1.22-0.29-3.71 14.84 1.21 0.32zm5.42-21.63l1.53 0.4 1.77 0.41 1.92 0.36 2 0.25 1.99 0.07 1.89-0.17 1.74-0.48 1.48-0.86 1.16-1.29 0.75-1.81 0.2-2.03-0.4-1.72-0.9-1.49-1.31-1.24-1.59-1.04-1.8-0.85-1.88-0.69-1.87-0.54-1.77-0.44-2.78-0.63-3.36 13.46 1.23 0.33z"/>
<path id="cf" d="m507.84 262.91l0.28 0.05 0.13 0.04 0.13 0.03 0.13 0.02 0.14 0.04 0.14 0.03 0.13 0.03 0.28 0.06 0.13 0.03 0.14 0.04 0.13 0.02 0.14 0.04 0.13 0.03 0.28 0.06 0.13 0.03 0.14 0.04 0.14 0.02 0.13 0.04 0.13 0.03 0.14 0.04 0.13 0.02 0.14 0.03 0.14 0.04 0.13 0.03 0.28 0.06 0.12 0.04 0.14 0.03 0.13 0.03 0.14 0.03 0.13 0.04 0.14 0.02 0.13 0.04 0.14 0.04 0.39 0.09 2.69-10.79 6.75 1.68-2.76 11.08 0.64 0.22 1.23 0.46 0.61 0.25 0.59 0.24 0.59 0.26 0.57 0.26 0.57 0.27 0.54 0.27 0.54 0.28 0.52 0.3 0.51 0.29 0.49 0.31 0.48 0.31 0.45 0.32 0.46 0.34 0.43 0.34 0.41 0.35 0.4 0.36 0.38 0.37 0.36 0.37 0.34 0.39 0.33 0.39 0.3 0.41 0.29 0.42 0.26 0.43 0.24 0.44 0.22 0.46 0.2 0.47 0.18 0.48 0.14 0.49 0.13 0.5 0.11 0.5 0.08 0.53 0.05 0.54 0.03 0.55v0.56l-0.02 0.58-0.05 0.6-0.08 0.61h-0.01l-0.06 0.44-0.08 0.43-0.1 0.43-0.09 0.4-0.11 0.4-0.11 0.39-0.12 0.38-0.14 0.37-0.14 0.35-0.14 0.33-0.16 0.34-0.16 0.33-0.17 0.31-0.18 0.3-0.18 0.29-0.2 0.29-0.2 0.27-0.2 0.26-0.22 0.26-0.22 0.24-0.23 0.24-0.23 0.22-0.24 0.23-0.5 0.4-0.26 0.2-0.53 0.35-0.55 0.32-0.28 0.15-0.6 0.27-0.61 0.25-0.31 0.11-0.31 0.1-0.65 0.18-0.32 0.08 0.44 0.24 0.44 0.24 0.43 0.25 0.4 0.25 0.41 0.27 0.39 0.28 0.38 0.29 0.35 0.28 0.35 0.3 0.33 0.3 0.63 0.63 0.3 0.33 0.27 0.34 0.26 0.35 0.25 0.36 0.23 0.36 0.22 0.38 0.2 0.37 0.18 0.4 0.17 0.4 0.15 0.4 0.24 0.86 0.1 0.45 0.07 0.45 0.06 0.46 0.04 0.48 0.02 0.49v0.5l-0.02 0.51-0.03 0.52-0.07 0.53-0.07 0.56-0.1 0.55-0.12 0.56-0.15 0.58-0.17 0.6-0.18 0.61-0.22 0.62-0.27 0.76-0.31 0.73-0.31 0.69-0.34 0.67-0.35 0.63-0.38 0.58-0.39 0.56-0.41 0.53-0.42 0.5-0.44 0.47-0.46 0.43-0.48 0.42-0.49 0.38-0.51 0.35-0.52 0.32-0.55 0.31-0.55 0.27-0.57 0.24-0.59 0.23-0.6 0.2-0.62 0.17-0.61 0.16-0.65 0.13-0.67 0.11-0.67 0.08-0.68 0.07-0.71 0.04-0.71 0.03-0.73 0.01-0.74-0.01-0.74-0.03-0.76-0.04-0.79-0.06-0.78-0.07-0.8-0.09-0.82-0.11-0.82-0.12-0.84-0.13-0.84-0.15-0.86-0.16-2.79 11.19-6.75-1.68 2.76-11.04-0.13-0.03-0.13-0.04-0.14-0.02-0.12-0.04-0.13-0.03-0.14-0.04-0.26-0.06-0.13-0.04-0.14-0.03-0.13-0.03-0.14-0.04-0.13-0.04-0.13-0.02-0.26-0.08-0.14-0.03-0.13-0.03-0.14-0.04-0.13-0.04-0.14-0.02-0.14-0.04-0.13-0.04-0.13-0.03-0.13-0.04-0.14-0.03-0.14-0.04-0.13-0.03-0.42-0.11-0.13-0.04-1.1-0.3-2.76 11.09-6.74-1.67 2.79-11.22-13.58-3.42 3.35-7.74 0.08 0.02 0.06 0.02 0.07 0.02 0.09 0.02 0.1 0.03 0.11 0.03 0.12 0.03 0.14 0.04 0.15 0.03 0.15 0.05 0.17 0.04 0.33 0.09 0.17 0.05 0.19 0.04 0.17 0.05 0.19 0.05 0.19 0.04 0.19 0.06 0.18 0.04 0.36 0.1 0.18 0.04 0.16 0.04 0.16 0.04 0.16 0.04 0.29 0.08 0.13 0.02 0.12 0.03 0.11 0.03 0.1 0.02 0.09 0.02 0.12 0.02 0.04 0.01h0.02l0.01-0.01 0.14 0.04 0.14 0.02 0.13 0.03 0.26 0.01h0.24l0.22-0.01 0.11-0.02 0.1-0.02 0.2-0.06 0.1-0.02 0.09-0.04 0.08-0.05 0.09-0.03 0.08-0.06 0.16-0.1 0.07-0.05 0.14-0.12 0.18-0.18 0.06-0.07 0.04-0.06 0.15-0.2 0.05-0.08 0.04-0.06 0.03-0.08 0.11-0.19 0.09-0.19 7.56-30.36 0.01-0.11v-0.33l-0.01-0.11v-0.11l-0.02-0.12-0.01-0.11-0.02-0.11-0.01-0.12-0.03-0.11-0.03-0.12-0.11-0.34-0.05-0.12-0.11-0.22-0.06-0.11-0.07-0.1-0.06-0.11-0.17-0.2-0.08-0.11-0.19-0.2-0.11-0.09-0.12-0.09-0.11-0.1-0.13-0.09-0.26-0.16-0.15-0.08-0.32-0.15-0.17-0.07-0.36-0.12-0.2-0.06-0.2-0.05v-0.01l-0.05-0.03-0.06-0.02-0.06-0.01-0.09-0.03-0.2-0.06-0.12-0.03-0.14-0.03-0.14-0.04-0.3-0.08-0.17-0.04-0.17-0.05-0.18-0.03-0.18-0.05-0.36-0.09-0.18-0.04-0.55-0.14-0.18-0.03-0.18-0.05-0.5-0.1-0.3-0.07-0.14-0.03-0.12-0.04-0.12-0.02-0.1-0.03-0.08-0.01-0.08-0.02-0.06-0.02-0.05-0.01-0.03-0.01 1.8-7.2 13.6 3.37 2.75-11.08 6.75 1.68-2.71 10.87zm-9.37 43.38l1.5 0.39 1.71 0.42 1.88 0.42 1.98 0.35 2.03 0.25 2 0.1 1.94-0.09 1.81-0.33 1.6-0.6 1.36-0.93 1.06-1.29 0.69-1.71 0.21-1.91-0.3-1.69-0.77-1.48-1.14-1.3-1.43-1.13-1.67-0.98-1.83-0.83-1.92-0.7-1.91-0.59-1.86-0.5-1.72-0.4-1.5-0.34-1.22-0.29-3.71 14.84 1.21 0.32zm5.42-21.63l1.53 0.4 1.77 0.41 1.92 0.36 2 0.25 1.99 0.07 1.89-0.17 1.74-0.48 1.48-0.86 1.16-1.29 0.75-1.81 0.2-2.03-0.4-1.72-0.9-1.49-1.31-1.24-1.59-1.04-1.8-0.85-1.88-0.69-1.87-0.54-1.77-0.44-2.78-0.63-3.36 13.46 1.23 0.33z"/>
<path id="bj" d="m80.81 347.41c35.36 0 64.02-28.66 64.02-64.02s-28.66-64.02-64.02-64.02c-35.37 0-64.02 28.66-64.02 64.02s28.65 64.02 64.02 64.02z"/>
<path id="dd" d="m80.81 347.41c35.36 0 64.02-28.66 64.02-64.02s-28.66-64.02-64.02-64.02c-35.37 0-64.02 28.66-64.02 64.02s28.65 64.02 64.02 64.02z"/>
<path id="bi" d="m86.62 212.49l2.86 0.3 2.82 0.4 2.8 0.52 2.75 0.63 2.71 0.72 2.67 0.84 2.62 0.94 2.58 1.03 2.52 1.13 2.47 1.23 2.42 1.31 2.36 1.41 2.31 1.5 2.24 1.58 2.17 1.66 2.12 1.75 2.04 1.82 1.96 1.89 1.9 1.97 1.83 2.04 1.74 2.12 1.66 2.17 1.58 2.24 1.5 2.31 1.41 2.35 1.3 2.42 1.24 2.48 1.13 2.52 1.03 2.58 0.94 2.62 0.84 2.67 0.73 2.71 0.62 2.75 0.51 2.79 0.41 2.83 0.3 2.86 0.17 2.89 0.06 2.92-0.06 2.93-0.17 2.88-0.3 2.87-0.41 2.82-0.51 2.8-0.62 2.74-0.73 2.72-0.84 2.67-0.94 2.62-1.03 2.58-1.13 2.52-1.24 2.47-1.3 2.42-1.41 2.36-1.5 2.31-1.58 2.24-1.66 2.17-1.74 2.12-1.83 2.04-1.9 1.96-1.96 1.9-2.04 1.82-2.12 1.75-2.17 1.65-2.24 1.59-2.31 1.49-2.36 1.41-2.42 1.32-2.47 1.22-2.52 1.14-2.58 1.03-2.62 0.94-2.67 0.83-2.71 0.74-2.75 0.61-2.8 0.52-2.82 0.41-2.86 0.29-2.89 0.18-2.92 0.06-2.93-0.06-2.88-0.18-2.87-0.29-2.82-0.41-2.8-0.52-2.74-0.61-2.72-0.74-2.67-0.83-2.62-0.94-2.58-1.03-2.52-1.14-2.48-1.22-2.41-1.32-2.36-1.41-2.3-1.49-2.25-1.59-2.17-1.65-2.11-1.75-2.05-1.82-1.96-1.9-1.9-1.96-1.82-2.04-1.75-2.12-1.65-2.17-1.59-2.24-1.49-2.31-1.41-2.36-1.32-2.42-1.22-2.47-1.14-2.52-1.03-2.58-0.94-2.62-0.83-2.67-0.74-2.72-0.61-2.74-0.52-2.8-0.41-2.82-0.29-2.87-0.18-2.88-0.06-2.93 0.06-2.92 0.18-2.89 0.29-2.86 0.41-2.83 0.52-2.79 0.61-2.75 0.74-2.71 0.83-2.67 0.94-2.62 1.03-2.58 1.14-2.52 1.22-2.48 1.32-2.42 1.41-2.35 1.49-2.31 1.59-2.24 1.65-2.17 1.75-2.12 1.82-2.04 1.9-1.97 1.96-1.89 2.05-1.82 2.11-1.75 2.17-1.66 2.25-1.58 2.3-1.5 2.36-1.41 2.41-1.31 2.48-1.23 2.52-1.13 2.58-1.03 2.62-0.94 2.67-0.84 2.72-0.72 2.74-0.63 2.8-0.52 2.82-0.4 2.87-0.3 2.88-0.17 2.93-0.06 2.92 0.06 2.89 0.17zm-10.46 14.19l-2.29 0.24-2.27 0.32-2.22 0.4-2.21 0.51-2.17 0.58-2.13 0.67-2.1 0.75-2.06 0.82-2.02 0.92-1.98 0.97-1.93 1.06-1.89 1.12-1.84 1.2-1.8 1.26-1.74 1.34-1.68 1.39-1.63 1.45-1.59 1.52-1.51 1.58-1.45 1.63-1.4 1.68-1.33 1.75-1.27 1.79-1.2 1.85-1.11 1.88-1.07 1.94-0.97 1.98-0.91 2.02-0.83 2.05-0.75 2.11-0.67 2.12-0.58 2.18-0.51 2.2-0.4 2.23-0.32 2.27-0.24 2.28-0.14 2.32-0.05 2.33 0.05 2.34 0.14 2.31 0.24 2.29 0.32 2.27 0.4 2.22 0.51 2.2 0.58 2.18 0.67 2.13 0.75 2.1 0.83 2.06 0.91 2.02 0.97 1.98 1.07 1.93 1.11 1.9 1.2 1.83 1.27 1.8 1.33 1.74 1.4 1.68 1.45 1.63 1.51 1.59 1.59 1.51 1.63 1.45 1.68 1.4 1.74 1.33 1.8 1.27 1.84 1.2 1.89 1.12 1.93 1.06 1.98 0.97 2.02 0.91 2.06 0.83 2.1 0.75 2.13 0.67 2.17 0.58 2.21 0.51 2.22 0.41 2.27 0.31 2.29 0.24 2.31 0.14 2.34 0.05 2.33-0.05 2.32-0.14 2.28-0.24 2.27-0.31 2.23-0.41 2.2-0.51 2.17-0.58 2.13-0.67 2.11-0.75 2.06-0.83 2.01-0.91 1.98-0.97 1.94-1.06 1.88-1.12 1.85-1.2 1.79-1.27 1.74-1.33 1.69-1.4 1.63-1.45 1.58-1.51 1.52-1.59 1.45-1.63 1.39-1.68 1.34-1.74 1.26-1.8 1.2-1.83 1.13-1.9 1.05-1.93 0.97-1.98 0.92-2.02 0.82-2.06 0.75-2.1 0.67-2.13 0.58-2.18 0.51-2.2 0.4-2.22 0.32-2.27 0.24-2.29 0.14-2.31 0.05-2.34-0.05-2.33-0.14-2.32-0.24-2.28-0.32-2.27-0.4-2.23-0.51-2.2-0.58-2.18-0.67-2.12-0.75-2.11-0.82-2.05-0.92-2.02-0.97-1.98-1.05-1.94-1.13-1.88-1.2-1.85-1.26-1.79-1.34-1.75-1.39-1.68-1.45-1.63-1.52-1.58-1.58-1.52-1.63-1.45-1.68-1.39-1.75-1.34-1.79-1.26-1.85-1.2-1.88-1.12-1.94-1.06-1.98-0.97-2.01-0.92-2.06-0.82-2.11-0.75-2.13-0.67-2.17-0.58-2.2-0.51-2.23-0.4-2.27-0.32-2.28-0.24-2.32-0.14-2.33-0.05-2.34 0.05-2.31 0.14z"/>
<path id="ac" d="m86.62 212.49l2.86 0.3 2.82 0.4 2.8 0.52 2.75 0.63 2.71 0.72 2.67 0.84 2.62 0.94 2.58 1.03 2.52 1.13 2.47 1.23 2.42 1.31 2.36 1.41 2.31 1.5 2.24 1.58 2.17 1.66 2.12 1.75 2.04 1.82 1.96 1.89 1.9 1.97 1.83 2.04 1.74 2.12 1.66 2.17 1.58 2.24 1.5 2.31 1.41 2.35 1.3 2.42 1.24 2.48 1.13 2.52 1.03 2.58 0.94 2.62 0.84 2.67 0.73 2.71 0.62 2.75 0.51 2.79 0.41 2.83 0.3 2.86 0.17 2.89 0.06 2.92-0.06 2.93-0.17 2.88-0.3 2.87-0.41 2.82-0.51 2.8-0.62 2.74-0.73 2.72-0.84 2.67-0.94 2.62-1.03 2.58-1.13 2.52-1.24 2.47-1.3 2.42-1.41 2.36-1.5 2.31-1.58 2.24-1.66 2.17-1.74 2.12-1.83 2.04-1.9 1.96-1.96 1.9-2.04 1.82-2.12 1.75-2.17 1.65-2.24 1.59-2.31 1.49-2.36 1.41-2.42 1.32-2.47 1.22-2.52 1.14-2.58 1.03-2.62 0.94-2.67 0.83-2.71 0.74-2.75 0.61-2.8 0.52-2.82 0.41-2.86 0.29-2.89 0.18-2.92 0.06-2.93-0.06-2.88-0.18-2.87-0.29-2.82-0.41-2.8-0.52-2.74-0.61-2.72-0.74-2.67-0.83-2.62-0.94-2.58-1.03-2.52-1.14-2.48-1.22-2.41-1.32-2.36-1.41-2.3-1.49-2.25-1.59-2.17-1.65-2.11-1.75-2.05-1.82-1.96-1.9-1.9-1.96-1.82-2.04-1.75-2.12-1.65-2.17-1.59-2.24-1.49-2.31-1.41-2.36-1.32-2.42-1.22-2.47-1.14-2.52-1.03-2.58-0.94-2.62-0.83-2.67-0.74-2.72-0.61-2.74-0.52-2.8-0.41-2.82-0.29-2.87-0.18-2.88-0.06-2.93 0.06-2.92 0.18-2.89 0.29-2.86 0.41-2.83 0.52-2.79 0.61-2.75 0.74-2.71 0.83-2.67 0.94-2.62 1.03-2.58 1.14-2.52 1.22-2.48 1.32-2.42 1.41-2.35 1.49-2.31 1.59-2.24 1.65-2.17 1.75-2.12 1.82-2.04 1.9-1.97 1.96-1.89 2.05-1.82 2.11-1.75 2.17-1.66 2.25-1.58 2.3-1.5 2.36-1.41 2.41-1.31 2.48-1.23 2.52-1.13 2.58-1.03 2.62-0.94 2.67-0.84 2.72-0.72 2.74-0.63 2.8-0.52 2.82-0.4 2.87-0.3 2.88-0.17 2.93-0.06 2.92 0.06 2.89 0.17zm-10.46 14.19l-2.29 0.24-2.27 0.32-2.22 0.4-2.21 0.51-2.17 0.58-2.13 0.67-2.1 0.75-2.06 0.82-2.02 0.92-1.98 0.97-1.93 1.06-1.89 1.12-1.84 1.2-1.8 1.26-1.74 1.34-1.68 1.39-1.63 1.45-1.59 1.52-1.51 1.58-1.45 1.63-1.4 1.68-1.33 1.75-1.27 1.79-1.2 1.85-1.11 1.88-1.07 1.94-0.97 1.98-0.91 2.02-0.83 2.05-0.75 2.11-0.67 2.12-0.58 2.18-0.51 2.2-0.4 2.23-0.32 2.27-0.24 2.28-0.14 2.32-0.05 2.33 0.05 2.34 0.14 2.31 0.24 2.29 0.32 2.27 0.4 2.22 0.51 2.2 0.58 2.18 0.67 2.13 0.75 2.1 0.83 2.06 0.91 2.02 0.97 1.98 1.07 1.93 1.11 1.9 1.2 1.83 1.27 1.8 1.33 1.74 1.4 1.68 1.45 1.63 1.51 1.59 1.59 1.51 1.63 1.45 1.68 1.4 1.74 1.33 1.8 1.27 1.84 1.2 1.89 1.12 1.93 1.06 1.98 0.97 2.02 0.91 2.06 0.83 2.1 0.75 2.13 0.67 2.17 0.58 2.21 0.51 2.22 0.41 2.27 0.31 2.29 0.24 2.31 0.14 2.34 0.05 2.33-0.05 2.32-0.14 2.28-0.24 2.27-0.31 2.23-0.41 2.2-0.51 2.17-0.58 2.13-0.67 2.11-0.75 2.06-0.83 2.01-0.91 1.98-0.97 1.94-1.06 1.88-1.12 1.85-1.2 1.79-1.27 1.74-1.33 1.69-1.4 1.63-1.45 1.58-1.51 1.52-1.59 1.45-1.63 1.39-1.68 1.34-1.74 1.26-1.8 1.2-1.83 1.13-1.9 1.05-1.93 0.97-1.98 0.92-2.02 0.82-2.06 0.75-2.1 0.67-2.13 0.58-2.18 0.51-2.2 0.4-2.22 0.32-2.27 0.24-2.29 0.14-2.31 0.05-2.34-0.05-2.33-0.14-2.32-0.24-2.28-0.32-2.27-0.4-2.23-0.51-2.2-0.58-2.18-0.67-2.12-0.75-2.11-0.82-2.05-0.92-2.02-0.97-1.98-1.05-1.94-1.13-1.88-1.2-1.85-1.26-1.79-1.34-1.75-1.39-1.68-1.45-1.63-1.52-1.58-1.58-1.52-1.63-1.45-1.68-1.39-1.75-1.34-1.79-1.26-1.85-1.2-1.88-1.12-1.94-1.06-1.98-0.97-2.01-0.92-2.06-0.82-2.11-0.75-2.13-0.67-2.17-0.58-2.2-0.51-2.23-0.4-2.27-0.32-2.28-0.24-2.32-0.14-2.33-0.05-2.34 0.05-2.31 0.14z"/>
<path id="r" d="m80.3 332.43c27.08 0 49.03-21.96 49.03-49.04 0-27.07-21.95-49.03-49.03-49.03-27.07 0-49.02 21.96-49.02 49.03 0 27.08 21.95 49.04 49.02 49.04z"/>
<path id="ck" d="m80.3 332.43c27.08 0 49.03-21.96 49.03-49.04 0-27.07-21.95-49.03-49.03-49.03-27.07 0-49.02 21.96-49.02 49.03 0 27.08 21.95 49.04 49.02 49.04z"/>
<path id="bb" d="m93.05 279.52l8.1-8.1-22.04-22.05-22.02 22.04 8.09 8.1 13.93-13.93 13.94 13.94z"/>
<path id="be" d="m93.05 279.52l8.1-8.1-22.04-22.05-22.02 22.04 8.09 8.1 13.93-13.93 13.94 13.94z"/>
<path id="s" d="m59.47 285.22l-8.11 8.11-8.09-8.11 8.09-8.1 8.11 8.1z"/>
<path id="p" d="m59.47 285.22l-8.11 8.11-8.09-8.11 8.09-8.1 8.11 8.1z"/>
<path id="g" d="m93.05 290.94l8.11 8.1-0.01 0.01-22.04 22.03-22.02-22.03-0.02-0.01 8.11-8.09 13.93 13.93 13.94-13.94z"/>
<path id="cb" d="m93.05 290.94l8.11 8.1-0.01 0.01-22.04 22.03-22.02-22.03-0.02-0.01 8.11-8.09 13.93 13.93 13.94-13.94z"/>
<path id="co" d="m114.97 285.23l-8.1 8.1-8.11-8.1 8.11-8.11 8.1 8.11z"/>
<path id="ap" d="m114.97 285.23l-8.1 8.1-8.11-8.1 8.11-8.11 8.1 8.11z"/>
<path id="k" d="m79.11 277l-6.08 6.07-0.7 0.7-1.43 1.44-0.01 0.02 0.01 0.01 8.21 8.22 8.22-8.23h0.01l-0.01-0.01-8.22-8.22z"/>
<path id="bh" d="m79.11 277l-6.08 6.07-0.7 0.7-1.43 1.44-0.01 0.02 0.01 0.01 8.21 8.22 8.22-8.23h0.01l-0.01-0.01-8.22-8.22z"/>
</defs>
<use fill="#dadddf" xlink:href="#x"/>
<use fill-opacity="0" stroke="#000000" stroke-opacity="0" xlink:href="#x"/>
<use fill="#3c5084" xlink:href="#bc"/>
<use fill-opacity="0" stroke="#000000" stroke-opacity="0" xlink:href="#bc"/>
<use fill="#43437d" xlink:href="#cl"/>
<use fill-opacity="0" stroke="#000000" stroke-opacity="0" xlink:href="#cl"/>
<use fill="#c7cacc" xlink:href="#cy"/>
<use fill-opacity="0" stroke="#000000" stroke-opacity="0" xlink:href="#cy"/>
<use fill="#000000" xlink:href="#a"/>
<use fill-opacity="0" stroke="#000000" stroke-opacity="0" xlink:href="#a"/>
<use fill="#000000" xlink:href="#db"/>
<use fill-opacity="0" stroke="#000000" stroke-opacity="0" xlink:href="#db"/>
<use fill="#244d89" xlink:href="#am"/>
<use fill-opacity="0" stroke="#000000" stroke-opacity="0" xlink:href="#am"/>
<use fill="#000000" fill-opacity="0" xlink:href="#cj"/>
<use fill-opacity="0" stroke="#000000" stroke-opacity="0" xlink:href="#cj"/>
<use fill="#000000" fill-opacity="0" xlink:href="#bw"/>
<use fill-opacity="0" stroke="#000000" stroke-opacity="0" xlink:href="#bw"/>
<use fill="#000000" fill-opacity="0" xlink:href="#v"/>
<use fill-opacity="0" stroke="#000000" stroke-opacity="0" xlink:href="#v"/>
<use fill="#3fc2f0" xlink:href="#cn"/>
<use fill-opacity="0" stroke="#000000" stroke-opacity="0" xlink:href="#cn"/>
<use fill="#000000" fill-opacity="0" xlink:href="#ai"/>
<use fill-opacity="0" stroke="#000000" stroke-opacity="0" xlink:href="#ai"/>
<use fill="#000000" fill-opacity="0" xlink:href="#bs"/>
<use fill-opacity="0" stroke="#000000" stroke-opacity="0" xlink:href="#bs"/>
<use fill="#000000" fill-opacity="0" xlink:href="#ch"/>
<use fill-opacity="0" stroke="#000000" stroke-opacity="0" xlink:href="#ch"/>
<use fill="#2c84bd" xlink:href="#ao"/>
<use fill-opacity="0" stroke="#000000" stroke-opacity="0" xlink:href="#ao"/>
<use fill="#000000" fill-opacity="0" xlink:href="#ae"/>
<use fill-opacity="0" stroke="#000000" stroke-opacity="0" xlink:href="#ae"/>
<use fill="#000000" fill-opacity="0" xlink:href="#au"/>
<use fill-opacity="0" stroke="#000000" stroke-opacity="0" xlink:href="#au"/>
<use fill="#000000" fill-opacity="0" xlink:href="#bf"/>
<use fill-opacity="0" stroke="#000000" stroke-opacity="0" xlink:href="#bf"/>
<use fill="#38589a" xlink:href="#cr"/>
<use fill-opacity="0" stroke="#000000" stroke-opacity="0" xlink:href="#cr"/>
<use fill="#000000" fill-opacity="0" xlink:href="#bn"/>
<use fill-opacity="0" stroke="#000000" stroke-opacity="0" xlink:href="#bn"/>
<use fill="#000000" fill-opacity="0" xlink:href="#m"/>
<use fill-opacity="0" stroke="#000000" stroke-opacity="0" xlink:href="#m"/>
<use fill="#000000" fill-opacity="0" xlink:href="#cd"/>
<use fill-opacity="0" stroke="#000000" stroke-opacity="0" xlink:href="#cd"/>
<use fill="#244d89" xlink:href="#ci"/>
<use fill-opacity="0" stroke="#000000" stroke-opacity="0" xlink:href="#ci"/>
<use fill="#000000" fill-opacity="0" xlink:href="#d"/>
<use fill-opacity="0" stroke="#000000" stroke-opacity="0" xlink:href="#d"/>
<use fill="#000000" fill-opacity="0" xlink:href="#j"/>
<use fill-opacity="0" stroke="#000000" stroke-opacity="0" xlink:href="#j"/>
<use fill="#000000" fill-opacity="0" xlink:href="#aw"/>
<use fill-opacity="0" stroke="#000000" stroke-opacity="0" xlink:href="#aw"/>
<use fill="#3fc2f0" xlink:href="#h"/>
<use fill-opacity="0" stroke="#000000" stroke-opacity="0" xlink:href="#h"/>
<use fill="#000000" fill-opacity="0" xlink:href="#as"/>
<use fill-opacity="0" stroke="#000000" stroke-opacity="0" xlink:href="#as"/>
<use fill="#000000" fill-opacity="0" xlink:href="#cz"/>
<use fill-opacity="0" stroke="#000000" stroke-opacity="0" xlink:href="#cz"/>
<use fill="#000000" fill-opacity="0" xlink:href="#bo"/>
<use fill-opacity="0" stroke="#000000" stroke-opacity="0" xlink:href="#bo"/>
<use fill="#2c84bd" xlink:href="#cp"/>
<use fill-opacity="0" stroke="#000000" stroke-opacity="0" xlink:href="#cp"/>
<use fill="#000000" fill-opacity="0" xlink:href="#bp"/>
<use fill-opacity="0" stroke="#000000" stroke-opacity="0" xlink:href="#bp"/>
<use fill="#000000" fill-opacity="0" xlink:href="#ca"/>
<use fill-opacity="0" stroke="#000000" stroke-opacity="0" xlink:href="#ca"/>
<use fill="#000000" fill-opacity="0" xlink:href="#y"/>
<use fill-opacity="0" stroke="#000000" stroke-opacity="0" xlink:href="#y"/>
<use fill="#000000" fill-opacity="0" xlink:href="#w"/>
<use fill-opacity="0" stroke="#000000" stroke-opacity="0" xlink:href="#w"/>
<use fill="#000000" fill-opacity="0" xlink:href="#cs"/>
<use fill-opacity="0" stroke="#000000" stroke-width="15" xlink:href="#cs"/>
<use fill="#e35f9b" xlink:href="#b"/>
<use fill-opacity="0" stroke="#000000" stroke-opacity="0" xlink:href="#b"/>
<use fill="#000000" fill-opacity="0" xlink:href="#af"/>
<use fill-opacity="0" stroke="#000000" stroke-opacity="0" xlink:href="#af"/>
<use fill="#000000" xlink:href="#cx"/>
<use fill-opacity="0" stroke="#000000" stroke-opacity="0" xlink:href="#cx"/>
<use fill="#000000" fill-opacity="0" xlink:href="#cm"/>
<use fill-opacity="0" stroke="#000000" stroke-opacity="0" xlink:href="#cm"/>
<use fill="#000000" fill-opacity="0" xlink:href="#bg"/>
<use fill-opacity="0" stroke="#000000" stroke-opacity="0" xlink:href="#bg"/>
<use fill="#000000" fill-opacity="0" xlink:href="#bz"/>
<use fill-opacity="0" stroke="#000000" stroke-opacity="0" xlink:href="#bz"/>
<use fill="#ffffff" xlink:href="#u"/>
<use fill-opacity="0" stroke="#000000" stroke-opacity="0" xlink:href="#u"/>
<use fill="#000000" fill-opacity="0" xlink:href="#cu"/>
<use fill-opacity="0" stroke="#000000" stroke-opacity="0" xlink:href="#cu"/>
<use fill="#343434" xlink:href="#z"/>
<use fill-opacity="0" stroke="#000000" stroke-opacity="0" xlink:href="#z"/>
<use fill="#000000" fill-opacity="0" xlink:href="#ab"/>
<use fill-opacity="0" stroke="#000000" stroke-opacity="0" xlink:href="#ab"/>
<use fill="#000000" fill-opacity="0" xlink:href="#de"/>
<use fill-opacity="0" stroke="#000000" stroke-opacity="0" xlink:href="#de"/>
<use fill="#000000" fill-opacity="0" xlink:href="#ar"/>
<use fill-opacity="0" stroke="#000000" stroke-opacity="0" xlink:href="#ar"/>
<use fill="#8c8c8c" xlink:href="#ag"/>
<use fill-opacity="0" stroke="#000000" stroke-opacity="0" xlink:href="#ag"/>
<use fill="#000000" fill-opacity="0" xlink:href="#at"/>
<use fill-opacity="0" stroke="#000000" stroke-opacity="0" xlink:href="#at"/>
<use fill="#000000" fill-opacity="0" xlink:href="#ah"/>
<use fill-opacity="0" stroke="#000000" stroke-opacity="0" xlink:href="#ah"/>
<use fill="#000000" fill-opacity="0" xlink:href="#q"/>
<use fill-opacity="0" stroke="#000000" stroke-opacity="0" xlink:href="#q"/>
<use fill="#3c3c3b" xlink:href="#cv"/>
<use fill-opacity="0" stroke="#000000" stroke-opacity="0" xlink:href="#cv"/>
<use fill="#000000" fill-opacity="0" xlink:href="#ax"/>
<use fill-opacity="0" stroke="#000000" stroke-opacity="0" xlink:href="#ax"/>
<use fill="#000000" fill-opacity="0" xlink:href="#bm"/>
<use fill-opacity="0" stroke="#000000" stroke-opacity="0" xlink:href="#bm"/>
<use fill="#000000" fill-opacity="0" xlink:href="#cc"/>
<use fill-opacity="0" stroke="#000000" stroke-opacity="0" xlink:href="#cc"/>
<use fill="#8c8c8c" xlink:href="#bu"/>
<use fill-opacity="0" stroke="#000000" stroke-opacity="0" xlink:href="#bu"/>
<use fill="#000000" fill-opacity="0" xlink:href="#ak"/>
<use fill-opacity="0" stroke="#000000" stroke-opacity="0" xlink:href="#ak"/>
<use fill="#000000" fill-opacity="0" xlink:href="#e"/>
<use fill-opacity="0" stroke="#000000" stroke-opacity="0" xlink:href="#e"/>
<use fill="#000000" fill-opacity="0" xlink:href="#br"/>
<use fill-opacity="0" stroke="#000000" stroke-opacity="0" xlink:href="#br"/>
<use fill="#141414" xlink:href="#bt"/>
<use fill-opacity="0" stroke="#000000" stroke-opacity="0" xlink:href="#bt"/>
<use fill="#000000" fill-opacity="0" xlink:href="#aa"/>
<use fill-opacity="0" stroke="#000000" stroke-opacity="0" xlink:href="#aa"/>
<use fill="#000000" fill-opacity="0" xlink:href="#by"/>
<use fill-opacity="0" stroke="#000000" stroke-opacity="0" xlink:href="#by"/>
<use fill="#000000" fill-opacity="0" xlink:href="#cw"/>
<use fill-opacity="0" stroke="#000000" stroke-opacity="0" xlink:href="#cw"/>
<use fill="#393939" xlink:href="#ct"/>
<use fill-opacity="0" stroke="#000000" stroke-opacity="0" xlink:href="#ct"/>
<use fill="#000000" fill-opacity="0" xlink:href="#ce"/>
<use fill-opacity="0" stroke="#000000" stroke-opacity="0" xlink:href="#ce"/>
<use fill="#000000" fill-opacity="0" xlink:href="#al"/>
<use fill-opacity="0" stroke="#000000" stroke-opacity="0" xlink:href="#al"/>
<use fill="#000000" fill-opacity="0" xlink:href="#ay"/>
<use fill-opacity="0" stroke="#000000" stroke-opacity="0" xlink:href="#ay"/>
<use fill="#a115a1" xlink:href="#bv"/>
<use fill-opacity="0" stroke="#000000" stroke-opacity="0" xlink:href="#bv"/>
<use fill="#000000" fill-opacity="0" xlink:href="#an"/>
<use fill-opacity="0" stroke="#000000" stroke-opacity="0" xlink:href="#an"/>
<use fill="#000000" fill-opacity="0" xlink:href="#f"/>
<use fill-opacity="0" stroke="#000000" stroke-opacity="0" xlink:href="#f"/>
<use fill="#000000" fill-opacity="0" xlink:href="#o"/>
<use fill-opacity="0" stroke="#000000" stroke-opacity="0" xlink:href="#o"/>
<use fill="#000000" fill-opacity="0" xlink:href="#da"/>
<use fill-opacity="0" stroke="#000000" stroke-opacity="0" xlink:href="#da"/>
<use fill="#000000" fill-opacity="0" xlink:href="#az"/>
<use fill-opacity="0" stroke="#000000" stroke-opacity="0" xlink:href="#az"/>
<use fill="#ffffff" xlink:href="#bx"/>
<use fill-opacity="0" stroke="#000000" stroke-opacity="0" xlink:href="#bx"/>
<use fill="#000000" fill-opacity="0" xlink:href="#df"/>
<use fill-opacity="0" stroke="#000000" stroke-opacity="0" xlink:href="#df"/>
<use fill="#0667d0" xlink:href="#bd"/>
<use fill-opacity="0" stroke="#000000" stroke-opacity="0" xlink:href="#bd"/>
<use fill="#000000" fill-opacity="0" xlink:href="#l"/>
<use fill-opacity="0" stroke="#000000" stroke-opacity="0" xlink:href="#l"/>
<use fill="#000000" fill-opacity="0" xlink:href="#bq"/>
<use fill-opacity="0" stroke="#000000" stroke-opacity="0" xlink:href="#bq"/>
<use fill="#000000" xlink:href="#ad"/>
<use fill-opacity="0" stroke="#000000" stroke-opacity="0" xlink:href="#ad"/>
<use fill="#5050b9" xlink:href="#cq"/>
<use fill-opacity="0" stroke="#000000" stroke-opacity="0" xlink:href="#cq"/>
<use fill="#000000" fill-opacity="0" xlink:href="#ba"/>
<use fill-opacity="0" stroke="#000000" stroke-opacity="0" xlink:href="#ba"/>
<use fill="#000000" xlink:href="#bl"/>
<use fill-opacity="0" stroke="#000000" stroke-opacity="0" xlink:href="#bl"/>
<use fill="#000000" fill-opacity="0" xlink:href="#c"/>
<use fill-opacity="0" stroke="#000000" stroke-opacity="0" xlink:href="#c"/>
<use fill="#000000" fill-opacity="0" xlink:href="#t"/>
<use fill-opacity="0" stroke="#000000" stroke-opacity="0" xlink:href="#t"/>
<use fill="#000000" fill-opacity="0" xlink:href="#aj"/>
<use fill-opacity="0" stroke="#000000" stroke-opacity="0" xlink:href="#aj"/>
<use fill="#000000" fill-opacity="0" xlink:href="#n"/>
<use fill-opacity="0" stroke="#000000" stroke-opacity="0" xlink:href="#n"/>
<use fill="#000000" fill-opacity="0" xlink:href="#cg"/>
<use fill-opacity="0" stroke="#000000" stroke-opacity="0" xlink:href="#cg"/>
<use fill="#000000" fill-opacity="0" xlink:href="#dc"/>
<use fill-opacity="0" stroke="#000000" stroke-opacity="0" xlink:href="#dc"/>
<use fill="#000000" fill-opacity="0" xlink:href="#aq"/>
<use fill-opacity="0" stroke="#000000" stroke-opacity="0" xlink:href="#aq"/>
<use fill="#ffffff" xlink:href="#i"/>
<use fill-opacity="0" stroke="#000000" stroke-opacity="0" xlink:href="#i"/>
<use fill="#000000" fill-opacity="0" xlink:href="#av"/>
<use fill-opacity="0" stroke="#000000" stroke-opacity="0" xlink:href="#av"/>
<use fill="#f7931a" xlink:href="#bk"/>
<use fill-opacity="0" stroke="#000000" stroke-opacity="0" xlink:href="#bk"/>
<use fill="#000000" fill-opacity="0" xlink:href="#cf"/>
<use fill-opacity="0" stroke="#000000" stroke-opacity="0" xlink:href="#cf"/>
<use fill="#45b2e0" xlink:href="#bj"/>
<use fill-opacity="0" stroke="#000000" stroke-opacity="0" xlink:href="#bj"/>
<use fill="#000000" fill-opacity="0" xlink:href="#dd"/>
<use fill-opacity="0" stroke="#000000" stroke-opacity="0" xlink:href="#dd"/>
<use fill="#000000" xlink:href="#bi"/>
<use fill-opacity="0" stroke="#000000" stroke-opacity="0" xlink:href="#bi"/>
<use fill="#000000" fill-opacity="0" xlink:href="#ac"/>
<use fill-opacity="0" stroke="#000000" stroke-opacity="0" xlink:href="#ac"/>
<use fill="#ffffff" xlink:href="#r"/>
<use fill-opacity="0" stroke="#000000" stroke-opacity="0" xlink:href="#r"/>
<use fill="#000000" fill-opacity="0" xlink:href="#ck"/>
<use fill-opacity="0" stroke="#000000" stroke-opacity="0" xlink:href="#ck"/>
<use fill="#f3ba2f" xlink:href="#bb"/>
<use fill-opacity="0" stroke="#000000" stroke-opacity="0" xlink:href="#bb"/>
<use fill="#000000" fill-opacity="0" xlink:href="#be"/>
<use fill-opacity="0" stroke="#000000" stroke-opacity="0" xlink:href="#be"/>
<use fill="#f3ba2f" xlink:href="#s"/>
<use fill-opacity="0" stroke="#000000" stroke-opacity="0" xlink:href="#s"/>
<use fill="#000000" fill-opacity="0" xlink:href="#p"/>
<use fill-opacity="0" stroke="#000000" stroke-opacity="0" xlink:href="#p"/>
<use fill="#f3ba2f" xlink:href="#g"/>
<use fill-opacity="0" stroke="#000000" stroke-opacity="0" xlink:href="#g"/>
<use fill="#000000" fill-opacity="0" xlink:href="#cb"/>
<use fill-opacity="0" stroke="#000000" stroke-opacity="0" xlink:href="#cb"/>
<use fill="#f3ba2f" xlink:href="#co"/>
<use fill-opacity="0" stroke="#000000" stroke-opacity="0" xlink:href="#co"/>
<use fill="#000000" fill-opacity="0" xlink:href="#ap"/>
<use fill-opacity="0" stroke="#000000" stroke-opacity="0" xlink:href="#ap"/>
<use fill="#f3ba2f" xlink:href="#k"/>
<use fill-opacity="0" stroke="#000000" stroke-opacity="0" xlink:href="#k"/>
<use fill="#000000" fill-opacity="0" xlink:href="#bh"/>
<use fill-opacity="0" stroke="#000000" stroke-opacity="0" xlink:href="#bh"/>
</svg>
