<?xml version="1.0" encoding="iso-8859-1"?>
<svg version="1.1" id="Capa_1" xmlns="http://www.w3.org/2000/svg" xmlns:xlink="http://www.w3.org/1999/xlink" x="0px" y="0px"
	 viewBox="0 0 512 512" style="enable-background:new 0 0 512 512;" xml:space="preserve">
	<path style="fill:#a12696;" d="M75.1,160.527c9.361,0.051,16.9,7.666,16.857,17.027c-0.051,9.361-7.666,16.9-17.027,16.857
	c-9.361-0.051-16.9-7.666-16.857-17.027C58.175,168.049,65.765,160.535,75.1,160.527z"/>
	<circle style="fill:#a12696;" cx="341.964" cy="29.649" r="21.178"/>
	<polygon style="fill:#43437d;" points="269.935,249.897 269.935,283.781 252.993,283.781 236.051,283.781 236.051,249.897 "/>
	<path style="fill:#30304C;" d="M286.877,232.954v16.942h-67.769v-16.942c0.068-18.687,15.197-33.817,33.884-33.884
	c18.687-0.025,33.859,15.112,33.884,33.8C286.877,232.895,286.877,232.929,286.877,232.954z"/>
	<path style="fill:#5099b9;" d="M151.763,21.601l-51.165,50.488l-0.085-0.085c-13.85-14.214-13.554-36.976,0.661-50.826
	c13.96-13.596,36.205-13.596,50.166,0L151.763,21.601z"/>
	<polygon style="fill:#30304C;" points="380.059,266.839 363.117,283.781 346.174,300.723 312.29,266.839 346.174,232.954 "/>
	<path style="fill:#43437d;" d="M286.877,249.897v-16.942c0.034-18.679-15.087-33.85-33.766-33.884
	c-6.946-0.008-13.732,2.118-19.433,6.099l-22.872-22.872l51.081-50.572l50.403,50.403l42.355,42.355l-8.471,8.471l-33.884,33.884
	l-8.471,8.471l-25.413-25.413H286.877z"/>
	<polygon style="fill:#5050b9;" points="164.978,8.556 274.425,119.357 261.887,131.725 261.464,131.302 210.637,182.128
	210.807,182.297 197.761,195.173 88.23,84.372 100.598,72.089 151.763,21.601 "/>
	<rect x="308.777" y="165.184" transform="matrix(-0.7071 0.7071 -0.7071 -0.7071 670.3564 69.6397)" style="fill:#30304C;" width="23.956" height="16.942"/>
	<rect x="325.01" y="139.455" transform="matrix(-0.7071 0.7071 -0.7071 -0.7071 689.0712 53.3774)" style="fill:#30304C;" width="16.942" height="59.89"/>
	<path style="fill:#43437d;" d="M380.059,309.194c-2.245,0-4.405-0.889-5.989-2.482l-16.942-16.942l11.978-11.978l10.953,10.953
	l2.482-2.482l11.978,11.978l-8.471,8.471C384.455,308.305,382.304,309.194,380.059,309.194z"/>
	<path style="fill:#30304C;" d="M269.935,292.252h-33.884c-4.676,0-8.471-3.795-8.471-8.471v-33.884h16.942v25.413h16.942v-25.413
	h16.942v33.884C278.406,288.457,274.611,292.252,269.935,292.252z"/>
	<rect x="244.522" y="216.012" style="fill:#FFFFFF;" width="16.942" height="16.942"/>
	<rect x="56.004" y="387.531" transform="matrix(-0.4406 0.8977 -0.8977 -0.4406 616.2713 407.9703)" style="fill:#30304C;" width="250.04" height="16.934"/>
	<rect x="316.539" y="271.008" transform="matrix(-0.8978 0.4404 -0.4404 -0.8978 791.2075 608.4502)" style="fill:#30304C;" width="16.934" height="250.04"/>
	<rect x="244.522" y="283.781" style="fill:#30304C;" width="16.942" height="224.483"/>
	<path style="fill:#30304C;" d="M252.993,444.731c-0.906,0-1.813-0.144-2.677-0.432l-76.24-25.413l5.354-16.095l73.563,24.541
	l73.563-24.524l5.354,16.095l-76.24,25.413C254.797,444.596,253.899,444.74,252.993,444.731z"/>
	<polygon style="fill:#5099b9;" points="40.284,312.794 23.342,312.71 23.596,278.783 40.538,278.952 	"/>
	<rect x="23.451" y="278.873" transform="matrix(-0.005 1 -1 -0.005 327.8926 265.3725)" style="fill:#5099b9;" width="16.942" height="33.885"/>
	<rect x="477.486" y="121.805" transform="matrix(-0.7071 0.7071 -0.7071 -0.7071 928.4169 -105.0096)" style="fill:#F9B544;" width="16.942" height="35.942"/>
	<rect x="468" y="131.294" transform="matrix(-0.7071 0.7071 -0.7071 -0.7071 928.4332 -105.0402)" style="fill:#F9B544;" width="35.942" height="16.942"/>
	<rect x="7.332" y="16.942" style="fill:#F9B544;" width="16.942" height="16.942"/>
	<rect x="133.796" y="245.559" transform="matrix(-0.005 1 -1 -0.005 397.0052 113.0347)" style="fill:#00448F;" width="16.942" height="16.942"/>
	<rect x="447.827" y="8.471" style="fill:#00448F;" width="16.942" height="16.942"/>
	<rect x="447.827" y="262.603" style="fill:#5099b9;" width="16.942" height="16.942"/>
	<rect x="244.522" y="216.012" width="16.942" height="16.942"/>
	<path d="M387.683,504.537L278.406,281.824v-19.949l19.424,19.424c3.304,3.304,8.674,3.304,11.978,0l2.482-2.482l27.895,27.895
	c3.304,3.304,8.674,3.304,11.978,0l10.953-10.953l10.953,10.953c3.304,3.304,8.674,3.304,11.978,0l8.471-8.471l-11.978-11.978
	l-2.482,2.482l-4.964-4.964l10.953-10.953c3.304-3.304,3.304-8.674,0-11.978l-27.895-27.895l2.482-2.482
	c3.304-3.304,3.304-8.674,0-11.978l-36.366-36.366l4.964-4.964l19.424,19.424l11.978-11.978l-42.355-42.355l-11.978,11.978
	l10.953,10.953l-4.964,4.964l-38.365-38.365l6.455-6.379c3.329-3.287,3.355-8.649,0.068-11.978L170.984,2.643
	c-3.278-3.338-8.64-3.38-11.978-0.102l-7.751,7.624C131.17-3.854,103.529,1.059,89.51,21.144
	C78.972,36.231,78.853,56.256,89.205,71.47l-6.887,6.777c-3.329,3.287-3.355,8.649-0.068,11.978l109.455,110.878
	c3.287,3.329,8.649,3.363,11.978,0.076l7.056-6.972l10.733,10.733c-6.938,7.683-10.801,17.662-10.834,28.014v16.942
	c0,4.676,3.795,8.471,8.471,8.471h8.471v23.456L118.303,504.537l15.197,7.455l44.948-91.64l66.074,22.025v65.888h16.942v-65.896
	l66.074-22.025l44.897,91.649L387.683,504.537z M227.58,241.426v-8.471c0-14.037,11.377-25.413,25.413-25.413
	s25.413,11.377,25.413,25.413v8.471H227.58z M368.081,266.839l-21.906,21.906l-21.906-21.906l21.906-21.906L368.081,266.839z
	M98.455,46.591c-0.025-15.104,12.198-27.378,27.302-27.404c4.566-0.008,9.064,1.127,13.079,3.304l-37.171,36.731
	C99.582,55.333,98.48,50.996,98.455,46.591z M100.251,84.44l64.643-63.872l97.553,98.739l-4.236,4.236
	c-1.017,0.424-1.948,1.033-2.728,1.813l-50.826,50.826c-0.186,0.246-0.364,0.508-0.517,0.779l-6.336,6.26L100.251,84.44z
	M261.87,143.686l80.797,80.797l-2.482,2.482l-33.884,33.884l-2.482,2.482l-9.538-9.538c0.669-1.194,1.042-2.533,1.067-3.897
	v-16.942c-0.025-23.38-18.975-42.33-42.355-42.355c-6.175,0.025-12.258,1.415-17.832,4.075l-12.368-12.376L261.87,143.686z
	M261.464,258.368v16.942h-16.942v-16.942H261.464z M186.012,405.002l55.316-112.75h3.194v132.25L186.012,405.002z M261.464,424.502
	v-132.25h3.194l55.316,112.75L261.464,424.502z"/>
	<polygon points="40.301,312.794 40.352,304.332 48.815,304.382 48.916,287.44 40.454,287.39 40.504,278.91 23.562,278.817
	23.511,287.288 15.032,287.237 14.93,304.179 23.41,304.23 23.359,312.701 "/>
	<path d="M341.939,59.297c16.375,0,29.649-13.274,29.649-29.649S358.305,0,341.939,0c-16.366,0-29.649,13.274-29.649,29.649
	S325.564,59.297,341.939,59.297z M341.939,16.942c7.014,0,12.707,5.693,12.707,12.707s-5.693,12.707-12.707,12.707
	s-12.707-5.693-12.707-12.707S334.916,16.942,341.939,16.942z"/>
	<path d="M74.846,202.882h0.144c14.037,0.042,25.447-11.3,25.489-25.329c0.042-14.037-11.3-25.447-25.328-25.498l0,0H74.99
	c-14.037-0.042-25.447,11.309-25.489,25.337C49.458,191.429,60.81,202.84,74.846,202.882z M74.99,168.998h0.059
	c4.676,0.017,8.454,3.82,8.446,8.496c-0.008,4.676-3.82,8.454-8.496,8.446h-0.059c-4.676-0.017-8.463-3.82-8.446-8.496
	C66.502,172.767,70.306,168.981,74.99,168.998z"/>
	<polygon points="479.23,158.468 485.947,151.751 492.665,158.468 504.643,146.49 497.925,139.773 504.643,133.055 492.665,121.077
	485.947,127.795 479.23,121.077 467.251,133.055 473.969,139.773 467.251,146.49 "/>
	<rect x="7.332" y="16.942" width="16.942" height="16.942"/>
	<rect x="133.84" y="245.652" transform="matrix(-0.0059 1 -1 -0.0059 397.2695 113.3146)" width="16.942" height="16.942"/>
	<rect x="447.827" y="8.471" width="16.942" height="16.942"/>
	<rect x="447.827" y="262.603" width="16.942" height="16.942"/>
</svg>
